M48
;DRILL file {KiCad 5.0.0-rc2-dev-unknown-6940f92~62~ubuntu16.04.1} date Sun Mar 25 22:17:45 2018
;FORMAT={-:-/ absolute / inch / decimal}
FMAT,2
INCH,TZ
T1C0.0118
T2C0.0256
T3C0.0315
%
G90
G05
M72
T1
X3.6825Y-4.7925
X3.6875Y-4.75
X3.6875Y-4.895
X3.69Y-4.7175
X3.695Y-4.25
X3.845Y-4.9099
X3.8525Y-4.4725
X3.8575Y-4.5075
X3.8875Y-4.3675
X4.035Y-4.8975
X4.08Y-4.83
X4.09Y-4.8675
X4.2775Y-4.685
X4.285Y-4.735
X4.3025Y-4.3625
X4.3075Y-4.895
X4.4527Y-4.9977
X4.455Y-4.5325
X4.4575Y-4.865
X4.5075Y-4.5575
X4.6275Y-4.5575
X4.6425Y-4.5925
X4.6503Y-4.5333
X4.695Y-4.485
X4.6975Y-4.1625
X4.6975Y-4.2975
X4.6975Y-4.3475
X4.7275Y-4.255
X4.755Y-4.685
X4.77Y-4.1625
X4.77Y-4.195
X4.7775Y-4.6625
X4.7929Y-4.4404
X4.8075Y-4.3475
X4.8125Y-4.2575
X4.84Y-4.175
X4.8425Y-4.1573
X4.8675Y-4.615
X4.8725Y-4.57
X4.9125Y-4.22
X4.9875Y-4.3
X5.1325Y-4.545
X5.135Y-4.525
X5.1875Y-4.48
X5.235Y-4.6825
X5.2675Y-4.665
X5.3025Y-4.365
X5.3275Y-4.625
X5.3525Y-4.33
X5.3625Y-4.5775
X5.3725Y-4.2475
X5.4875Y-4.8375
X5.4925Y-5.02
X5.52Y-4.7225
X5.5624Y-4.6725
X5.5725Y-4.24
X5.69Y-5.0049
X5.695Y-4.9475
X5.7125Y-4.6725
X5.7425Y-4.9975
X5.755Y-4.2475
X5.7575Y-4.3375
X5.8475Y-4.7141
X5.8525Y-4.75
X5.8775Y-4.675
X5.9025Y-4.7225
X5.9068Y-4.7843
X5.9125Y-4.6125
X5.935Y-4.7625
X5.94Y-4.8275
X5.945Y-4.59
X5.9475Y-4.6775
X5.96Y-4.72
X5.965Y-4.5325
X5.9925Y-4.41
X6.01Y-4.49
X6.0125Y-4.7373
X6.0375Y-4.8075
X6.0572Y-4.41
X6.085Y-4.7525
X6.0975Y-4.8775
X6.1125Y-4.5325
X6.1375Y-4.5
X6.1425Y-4.565
X6.1475Y-4.8375
X6.16Y-4.8149
X6.1672Y-4.4376
X6.1672Y-4.4376
X6.2075Y-4.8175
X6.2125Y-4.3525
X6.225Y-4.3849
X6.245Y-4.405
X6.25Y-4.7825
X6.2525Y-4.8125
X6.255Y-4.5624
X6.2625Y-4.7125
X6.2666Y-4.8015
X6.2725Y-4.5725
X6.2775Y-4.6275
X6.2778Y-4.6717
X6.2783Y-4.4267
X6.28Y-4.5
X6.28Y-4.8176
X6.2825Y-4.53
X6.3175Y-4.4375
X6.3175Y-4.4675
X6.3175Y-4.5325
X6.3175Y-4.7825
X6.3225Y-4.8216
X6.3342Y-4.38
X6.3475Y-4.5
X6.3475Y-4.5325
X6.3475Y-4.6275
X6.3475Y-4.69
X6.3475Y-4.72
X6.3475Y-4.785
X6.3625Y-4.8222
X6.38Y-4.5
X6.38Y-4.5325
X6.38Y-4.5625
X6.38Y-4.6275
X6.38Y-4.69
X6.38Y-4.72
X6.38Y-4.785
X6.3802Y-4.8196
X6.4Y-4.245
X6.4038Y-4.8187
X6.41Y-4.4675
X6.41Y-4.6275
X6.4108Y-4.5308
X6.4114Y-4.5622
X6.4125Y-4.5
X6.4125Y-4.69
X6.4125Y-4.72
X6.4125Y-4.7825
X6.415Y-4.8372
X6.425Y-4.395
X6.4413Y-4.7217
X6.4425Y-4.47
X6.4425Y-4.5625
X6.4425Y-4.595
X6.4425Y-4.625
X6.4425Y-4.69
X6.4425Y-4.7525
X6.4475Y-4.2225
X6.4629Y-4.3319
X6.4735Y-4.625
X6.475Y-4.5625
X6.475Y-4.69
X6.475Y-4.72
X6.475Y-4.7825
X6.4925Y-4.3525
X6.495Y-4.2475
X6.5025Y-4.7825
X6.505Y-4.53
X6.505Y-4.625
X6.505Y-4.6875
X6.505Y-4.72
X6.5075Y-4.7525
X6.5325Y-4.39
X6.5375Y-4.72
X6.5375Y-4.4375
X6.5375Y-4.5
X6.5375Y-4.5625
X6.5375Y-4.595
X6.5375Y-4.6275
X6.5375Y-4.6575
X6.5375Y-4.6875
X6.5375Y-4.7825
X6.545Y-4.355
X6.5475Y-4.2674
X6.5675Y-4.47
X6.5675Y-4.5625
X6.5675Y-4.595
X6.5675Y-4.625
X6.57Y-4.5325
X6.57Y-4.6575
X6.57Y-4.69
X6.57Y-4.72
X6.5986Y-4.6907
X6.6Y-4.4375
X6.6Y-4.4675
X6.6Y-4.5
X6.6Y-4.5625
X6.6Y-4.595
X6.6Y-4.625
X6.6Y-4.72
X6.6Y-4.7525
X6.6309Y-4.625
X6.6325Y-4.4375
X6.6325Y-4.47
X6.6325Y-4.5
X6.6325Y-4.5325
X6.6325Y-4.595
X6.6325Y-4.6575
X6.6325Y-4.69
X6.6325Y-4.72
X6.6325Y-4.7525
X6.645Y-4.87
X6.6568Y-4.2375
X6.6625Y-4.6275
X6.6625Y-4.6575
X6.6625Y-4.69
X6.6625Y-4.72
X6.6825Y-4.36
X6.695Y-4.6575
X6.695Y-4.82
X6.7099Y-4.4325
X6.7114Y-4.3747
X6.72Y-4.555
X6.7225Y-4.6475
X6.7225Y-4.8625
X6.7325Y-4.5725
X6.7325Y-4.79
X6.7375Y-4.6
X6.7412Y-4.3775
X6.7425Y-4.555
X6.75Y-4.2375
X6.775Y-4.375
X6.78Y-4.545
X6.7825Y-4.3575
X6.8Y-4.59
X6.88Y-4.6266
X6.9075Y-4.57
X6.9419Y-4.4694
X6.9925Y-4.7675
X6.9975Y-4.6875
X7.0175Y-4.415
X7.1925Y-4.55
X7.1975Y-4.2725
X7.335Y-4.275
T2
X5.645Y-4.7625
X5.645Y-4.8125
X5.645Y-4.8625
X5.645Y-4.9125
X5.645Y-4.9625
X5.52Y-4.76
X5.52Y-4.81
X5.52Y-4.86
X5.52Y-4.91
X5.52Y-4.96
T3
X5.17Y-4.17
X5.2487Y-4.17
X5.3275Y-4.17
X5.4062Y-4.17
X5.485Y-4.17
X5.5637Y-4.17
X5.6424Y-4.17
X5.7212Y-4.17
X3.625Y-4.15
X3.625Y-4.2287
X3.625Y-4.3075
X3.625Y-4.3862
X3.625Y-4.465
X3.625Y-4.5437
X3.625Y-4.6224
X3.625Y-4.7012
X3.625Y-4.7799
X3.625Y-4.8587
X3.625Y-4.9374
X5.88Y-4.17
X5.9587Y-4.17
X6.0375Y-4.17
X6.1162Y-4.17
X6.195Y-4.17
X6.2737Y-4.17
X6.3524Y-4.17
X6.4312Y-4.17
X6.5099Y-4.17
X6.5887Y-4.17
X6.6674Y-4.17
X6.7461Y-4.17
X6.8249Y-4.17
X6.9036Y-4.17
X6.9824Y-4.17
X7.0611Y-4.17
X7.1398Y-4.17
X7.2186Y-4.17
X7.2973Y-4.17
X7.3761Y-4.17
X5.8376Y-4.94
X5.9164Y-4.94
X5.9951Y-4.94
X6.0739Y-4.94
X6.1526Y-4.94
X6.2313Y-4.94
X6.3101Y-4.94
X6.3888Y-4.94
X6.4676Y-4.94
X6.5463Y-4.94
X6.625Y-4.94
X6.7038Y-4.94
X6.7825Y-4.94
X6.8613Y-4.94
X6.94Y-4.94
X5.89Y-4.3
X5.9687Y-4.3
X6.0475Y-4.3
X6.1262Y-4.3
X6.205Y-4.3
X6.2837Y-4.3
X6.3624Y-4.3
X6.4412Y-4.3
X6.5199Y-4.3
X6.5987Y-4.3
X6.6774Y-4.3
X6.7561Y-4.3
X6.8349Y-4.3
X6.9136Y-4.3
T0
M30
