G04 #@! TF.GenerationSoftware,KiCad,Pcbnew,5.0.0-rc3-unknown-14ce5182~65~ubuntu16.04.1*
G04 #@! TF.CreationDate,2018-08-12T21:53:15+02:00*
G04 #@! TF.ProjectId,roboy_sno,726F626F795F736E6F2E6B696361645F,rev?*
G04 #@! TF.SameCoordinates,Original*
G04 #@! TF.FileFunction,Copper,L4,Bot,Signal*
G04 #@! TF.FilePolarity,Positive*
%FSLAX46Y46*%
G04 Gerber Fmt 4.6, Leading zero omitted, Abs format (unit mm)*
G04 Created by KiCad (PCBNEW 5.0.0-rc3-unknown-14ce5182~65~ubuntu16.04.1) date Sun Aug 12 21:53:15 2018*
%MOMM*%
%LPD*%
G01*
G04 APERTURE LIST*
G04 #@! TA.AperFunction,ComponentPad*
%ADD10R,1.700000X1.700000*%
G04 #@! TD*
G04 #@! TA.AperFunction,ComponentPad*
%ADD11O,1.700000X1.700000*%
G04 #@! TD*
G04 #@! TA.AperFunction,ViaPad*
%ADD12C,0.301000*%
G04 #@! TD*
G04 #@! TA.AperFunction,Conductor*
%ADD13C,0.152400*%
G04 #@! TD*
G04 #@! TA.AperFunction,Conductor*
%ADD14C,0.300000*%
G04 #@! TD*
G04 #@! TA.AperFunction,Conductor*
%ADD15C,0.254000*%
G04 #@! TD*
G04 APERTURE END LIST*
D10*
G04 #@! TO.P,J4,1*
G04 #@! TO.N,/TDI*
X147472400Y-120192800D03*
D11*
G04 #@! TO.P,J4,2*
G04 #@! TO.N,GND*
X144932400Y-120192800D03*
G04 #@! TO.P,J4,3*
G04 #@! TO.N,N/C*
X147472400Y-122732800D03*
G04 #@! TO.P,J4,4*
X144932400Y-122732800D03*
G04 #@! TO.P,J4,5*
G04 #@! TO.N,/TMS*
X147472400Y-125272800D03*
G04 #@! TO.P,J4,6*
G04 #@! TO.N,N/C*
X144932400Y-125272800D03*
G04 #@! TO.P,J4,7*
G04 #@! TO.N,/TDO*
X147472400Y-127812800D03*
G04 #@! TO.P,J4,8*
G04 #@! TO.N,3.3V*
X144932400Y-127812800D03*
G04 #@! TO.P,J4,9*
G04 #@! TO.N,/TCK*
X147472400Y-130352800D03*
G04 #@! TO.P,J4,10*
G04 #@! TO.N,GND*
X144932400Y-130352800D03*
G04 #@! TD*
D10*
G04 #@! TO.P,J5,1*
G04 #@! TO.N,GND*
X114046000Y-119380000D03*
D11*
G04 #@! TO.P,J5,2*
G04 #@! TO.N,VDD5V*
X114046000Y-116840000D03*
G04 #@! TD*
D12*
G04 #@! TO.N,/M7*
X134728599Y-129603500D03*
G04 #@! TO.N,GND*
X139522200Y-126466600D03*
X136321800Y-128828800D03*
X134721600Y-128828800D03*
X135534400Y-125628400D03*
X130759200Y-123977400D03*
X131521200Y-121615200D03*
X132334000Y-126441200D03*
X129891266Y-130500866D03*
X140385800Y-129667000D03*
X140436600Y-120116600D03*
X129768600Y-120675400D03*
X170637200Y-136321800D03*
X171323000Y-136398000D03*
X154660600Y-130225800D03*
X155651199Y-121183400D03*
X166446200Y-109702600D03*
X167309800Y-113563400D03*
X164896800Y-114630200D03*
X127736600Y-130352800D03*
X135839200Y-132638800D03*
X138728436Y-123248798D03*
X141909800Y-125831600D03*
X128625600Y-121615200D03*
X138252200Y-117195600D03*
X133922000Y-122377200D03*
X136296400Y-120827800D03*
X176199800Y-135382000D03*
G04 #@! TO.N,3.3V*
X133934200Y-128803400D03*
X131546600Y-128016000D03*
X135534400Y-126390400D03*
X132334000Y-122453400D03*
X135534400Y-121615200D03*
X137922000Y-123215400D03*
X138709400Y-124028200D03*
X131521200Y-124815200D03*
G04 #@! TO.N,GND*
X124866400Y-118008400D03*
X119710200Y-125412500D03*
X116509800Y-129857500D03*
X116509800Y-131406900D03*
X116852700Y-132308600D03*
X122491500Y-132321300D03*
X119430800Y-128143000D03*
X122694700Y-121500900D03*
G04 #@! TO.N,3.3V*
X159918400Y-137033000D03*
X157911800Y-137083800D03*
X155879800Y-137134600D03*
X153898600Y-137109200D03*
X151917400Y-137058400D03*
X149885400Y-137007600D03*
X147904200Y-136982200D03*
X145897600Y-137033000D03*
X143891000Y-137058400D03*
X141909800Y-137033000D03*
X133477000Y-137236200D03*
X131495800Y-137185400D03*
X129489200Y-137134600D03*
X127482600Y-137083800D03*
X125476000Y-137058400D03*
X123469400Y-137058400D03*
X121488200Y-137058400D03*
X119507000Y-137033000D03*
X117500400Y-137007600D03*
X115493800Y-137007600D03*
X116941600Y-111709200D03*
X118973600Y-111760000D03*
X120980200Y-111734600D03*
X122986800Y-111760000D03*
X124993400Y-111810800D03*
X126974600Y-111810800D03*
X128981200Y-111861600D03*
X131013200Y-111887000D03*
X133019800Y-111887000D03*
X135001000Y-111887000D03*
X150495000Y-117043200D03*
X152171400Y-117830600D03*
X143408400Y-111302800D03*
X145364200Y-111328200D03*
X147370800Y-111379000D03*
X149377400Y-111404400D03*
X151384000Y-111455200D03*
X153390600Y-111429800D03*
X155371800Y-111506000D03*
X157403800Y-111506000D03*
X159359600Y-111531400D03*
X161366200Y-111556800D03*
X169545000Y-107442000D03*
X149885400Y-129794000D03*
X133375400Y-132842000D03*
X136321800Y-127203200D03*
X138722100Y-125590300D03*
X126695200Y-120548400D03*
X136956800Y-119049800D03*
X116052600Y-125412500D03*
X124819000Y-119608600D03*
X123621800Y-117284500D03*
X123634500Y-118237000D03*
X115798600Y-130416300D03*
X125310900Y-131152900D03*
X114401600Y-134429500D03*
G04 #@! TO.N,VDD5V*
X174167800Y-135915400D03*
X166751000Y-114503200D03*
X164541200Y-113030000D03*
X119341900Y-117271800D03*
G04 #@! TO.N,Net-(C4-Pad2)*
X169418000Y-108737400D03*
X173609000Y-133680200D03*
G04 #@! TO.N,Net-(C6-Pad1)*
X167487600Y-109626400D03*
X171323000Y-113436400D03*
G04 #@! TO.N,Net-(C7-Pad2)*
X168884600Y-108737400D03*
X169976800Y-133629400D03*
G04 #@! TO.N,Net-(D5-Pad2)*
X168630600Y-135534400D03*
X176047400Y-137972800D03*
G04 #@! TO.N,GPIO0*
X168681400Y-118973600D03*
X172034200Y-107442000D03*
G04 #@! TO.N,RTS*
X170688000Y-114503200D03*
X175209200Y-114173000D03*
G04 #@! TO.N,Net-(Q1-Pad2)*
X175260000Y-111099600D03*
X174472600Y-108305600D03*
G04 #@! TO.N,RESET*
X171831000Y-108305600D03*
X173532800Y-110566200D03*
X168783000Y-115214400D03*
G04 #@! TO.N,DTR*
X170535600Y-115112800D03*
X172946799Y-112977399D03*
G04 #@! TO.N,Net-(R1-Pad1)*
X133146800Y-122402600D03*
X125653800Y-122936000D03*
G04 #@! TO.N,Net-(R2-Pad2)*
X135534400Y-124028200D03*
X125628400Y-125120400D03*
G04 #@! TO.N,Net-(R3-Pad1)*
X132308600Y-121564400D03*
X125679200Y-121843800D03*
G04 #@! TO.N,Net-(R4-Pad2)*
X134747000Y-123215400D03*
X125628400Y-124053600D03*
G04 #@! TO.N,RESET_N*
X136321800Y-121564400D03*
X125603000Y-120726200D03*
G04 #@! TO.N,ESP_EN*
X137109200Y-130429000D03*
X163728400Y-118592600D03*
G04 #@! TO.N,Net-(U2-Pad3)*
X134010400Y-125730000D03*
X128976101Y-126751099D03*
G04 #@! TO.N,SPI_MOSI*
X135483600Y-130479800D03*
X155651200Y-119176800D03*
G04 #@! TO.N,SPI_MISO*
X136347200Y-130479800D03*
X164155100Y-128879600D03*
G04 #@! TO.N,SPI_CSO*
X136321800Y-129616200D03*
X164541200Y-134594600D03*
X156006800Y-129946400D03*
X161747200Y-133934200D03*
G04 #@! TO.N,SPI_CLK*
X137134600Y-128828800D03*
X158750000Y-118694200D03*
G04 #@! TO.N,/D6*
X133934200Y-123215400D03*
X116515097Y-114523303D03*
G04 #@! TO.N,/E6*
X133934200Y-124002800D03*
X116001800Y-114579400D03*
G04 #@! TO.N,/TCK*
X130733800Y-124841000D03*
X146202400Y-126034800D03*
G04 #@! TO.N,/TDO*
X134696200Y-124028200D03*
X141986000Y-124866400D03*
G04 #@! TO.N,/TMS*
X129870200Y-125577600D03*
G04 #@! TO.N,/TDI*
X133934200Y-124790200D03*
G04 #@! TO.N,Net-(R9-Pad2)*
X133121400Y-124028200D03*
X128498600Y-119659400D03*
G04 #@! TO.N,/J7*
X135509000Y-127254000D03*
X133985000Y-134162800D03*
G04 #@! TO.N,/K7*
X134747000Y-128041400D03*
X122529600Y-134137400D03*
G04 #@! TO.N,/L5*
X133121400Y-128828800D03*
X128498600Y-134112000D03*
G04 #@! TO.N,/M3*
X131521200Y-129641600D03*
X127990600Y-134137400D03*
G04 #@! TO.N,/L3*
X131521200Y-128828800D03*
X125984000Y-134162800D03*
G04 #@! TO.N,/L4*
X132334000Y-128828800D03*
X126466600Y-134188200D03*
G04 #@! TO.N,/K6*
X133934200Y-128016000D03*
X121945400Y-134137400D03*
G04 #@! TO.N,/K2*
X130733800Y-128016000D03*
X119964200Y-134162800D03*
G04 #@! TO.N,/K5*
X133146800Y-128016000D03*
X120523000Y-134137400D03*
G04 #@! TO.N,/H3*
X131597400Y-125628400D03*
X116884565Y-134131165D03*
G04 #@! TO.N,/K1*
X129870200Y-127939800D03*
G04 #@! TO.N,/H2*
X130683000Y-125628400D03*
X129286000Y-124750801D03*
G04 #@! TO.N,/J9*
X137109200Y-127203200D03*
X144348200Y-134112000D03*
G04 #@! TO.N,/H9*
X137109200Y-126466600D03*
X146380200Y-134162800D03*
G04 #@! TO.N,/B2*
X130733800Y-120827800D03*
X124002800Y-114427000D03*
G04 #@! TO.N,/B3*
X131546600Y-120827800D03*
X125958600Y-114452400D03*
G04 #@! TO.N,/B4*
X132334000Y-120827800D03*
X127990600Y-114503200D03*
G04 #@! TO.N,/B5*
X133121400Y-120827800D03*
X130048000Y-114655600D03*
G04 #@! TO.N,/B6*
X133934200Y-120827800D03*
X132003800Y-114554000D03*
G04 #@! TO.N,/F4*
X132334000Y-124028200D03*
X126136400Y-117322600D03*
X125603000Y-116357400D03*
X118008400Y-114579400D03*
G04 #@! TO.N,/G9*
X137134600Y-125577600D03*
X150368000Y-134137400D03*
G04 #@! TO.N,/G10*
X137909300Y-125615700D03*
X150901400Y-134112000D03*
G04 #@! TO.N,/G12*
X139547600Y-125603000D03*
X160401000Y-134137400D03*
G04 #@! TO.N,/G13*
X140385800Y-125577600D03*
X160883600Y-134162800D03*
G04 #@! TO.N,/H10*
X137922000Y-126441200D03*
X146888200Y-134162800D03*
G04 #@! TO.N,/J5*
X133121400Y-126441200D03*
G04 #@! TO.N,/J6*
X133915824Y-127294601D03*
X122682000Y-122351800D03*
G04 #@! TO.N,/J10*
X137922000Y-127203200D03*
X144881600Y-134162800D03*
G04 #@! TO.N,/J12*
X158394400Y-134112000D03*
X139522200Y-127203200D03*
G04 #@! TO.N,/J13*
X156895800Y-134137400D03*
X140792200Y-127508000D03*
G04 #@! TO.N,/K10*
X137922000Y-128016000D03*
X148945600Y-134086600D03*
G04 #@! TO.N,/K11*
X138709400Y-128016000D03*
X150596600Y-132513700D03*
X154940000Y-134112000D03*
G04 #@! TO.N,/K12*
X139522200Y-128016000D03*
X156413200Y-134112000D03*
X151692599Y-132134599D03*
G04 #@! TO.N,/L11*
X138709400Y-128803400D03*
X158978600Y-134061200D03*
G04 #@! TO.N,/L12*
X139522200Y-128803400D03*
X149098000Y-132892800D03*
G04 #@! TO.N,/M10*
X137922000Y-129616200D03*
X142722600Y-134112000D03*
G04 #@! TO.N,/M12*
X139522200Y-129616200D03*
X148437600Y-134112000D03*
G04 #@! TO.N,/M13*
X140360400Y-128854200D03*
G04 #@! TO.N,/B12*
X139496800Y-120827800D03*
X148234400Y-114579400D03*
G04 #@! TO.N,/C9*
X137109200Y-121640600D03*
X144012535Y-114497735D03*
G04 #@! TO.N,/C10*
X137922000Y-121640600D03*
X145965035Y-114545235D03*
G04 #@! TO.N,/C11*
X138709400Y-121640600D03*
X149933535Y-114576735D03*
G04 #@! TO.N,/C12*
X139522200Y-121640600D03*
X152349200Y-114554000D03*
G04 #@! TO.N,/D8*
X135534400Y-122428000D03*
X121945400Y-114554000D03*
G04 #@! TO.N,/D9*
X136321800Y-122478800D03*
X122504200Y-114528600D03*
G04 #@! TO.N,/D11*
X138709400Y-122428000D03*
X148869400Y-114579400D03*
G04 #@! TO.N,/D12*
X139522200Y-122402600D03*
X154330400Y-114604800D03*
G04 #@! TO.N,/E8*
X135534400Y-123240800D03*
X120085018Y-114605527D03*
G04 #@! TO.N,/E9*
X136321800Y-123215400D03*
X120523000Y-114554000D03*
G04 #@! TO.N,/E10*
X137109200Y-123240800D03*
X158877000Y-114630200D03*
G04 #@! TO.N,/E12*
X139547600Y-123266200D03*
X158343600Y-114604800D03*
G04 #@! TO.N,/E13*
X140385800Y-123240800D03*
X156870400Y-114655600D03*
G04 #@! TO.N,/F8*
X136321800Y-124028200D03*
X152882600Y-114503200D03*
G04 #@! TO.N,/F9*
X137134600Y-124028200D03*
X154838400Y-114630200D03*
G04 #@! TO.N,/F10*
X137922000Y-124028200D03*
X156286200Y-114655600D03*
G04 #@! TO.N,/F12*
X139598400Y-124028200D03*
X160324800Y-114554000D03*
G04 #@! TO.N,/F13*
X140385800Y-124002800D03*
X153466800Y-114757200D03*
X160883600Y-114554000D03*
G04 #@! TO.N,/K8*
X134442200Y-134162800D03*
X135534400Y-127995300D03*
G04 #@! TO.N,/H4*
X132308600Y-125628400D03*
X116230400Y-126619000D03*
G04 #@! TO.N,/H5*
X133146800Y-125628400D03*
X114122200Y-127685800D03*
G04 #@! TO.N,/J1*
X129844800Y-127177800D03*
G04 #@! TO.N,/J2*
X130733800Y-127228600D03*
X118008400Y-134162800D03*
G04 #@! TO.N,/M1*
X129870200Y-129565400D03*
X122580400Y-128066800D03*
G04 #@! TO.N,/M2*
X130733800Y-129616200D03*
X122656600Y-127304800D03*
G04 #@! TO.N,/J5*
X122593100Y-124218700D03*
G04 #@! TO.N,/M4*
X132334000Y-129616200D03*
X129971800Y-134137400D03*
G04 #@! TO.N,/M5*
X133146800Y-129616200D03*
X130505200Y-134112000D03*
G04 #@! TO.N,Net-(D2-Pad2)*
X119202200Y-116382800D03*
X120103900Y-121018300D03*
G04 #@! TO.N,Net-(D4-Pad2)*
X119240300Y-118351300D03*
X119976900Y-123063000D03*
G04 #@! TO.N,/M7*
X118503700Y-126965700D03*
G04 #@! TO.N,/N6*
X133219518Y-133695401D03*
X117919500Y-127101600D03*
G04 #@! TO.N,/ESP8266-12E/GPIO4*
X121412000Y-128041400D03*
X161277300Y-133870700D03*
G04 #@! TO.N,/ESP8266-12E/GPIO5*
X121911154Y-128050246D03*
X162864800Y-133527800D03*
G04 #@! TO.N,Net-(R23-Pad2)*
X119951500Y-131495800D03*
X123151900Y-129349500D03*
G04 #@! TD*
D13*
G04 #@! TO.N,GND*
X153534398Y-119066599D02*
X155651199Y-121183400D01*
X146058601Y-119066599D02*
X153534398Y-119066599D01*
X144932400Y-120192800D02*
X146058601Y-119066599D01*
X127884666Y-130500866D02*
X127736600Y-130352800D01*
X129891266Y-130500866D02*
X127884666Y-130500866D01*
X134721600Y-128828800D02*
X136321800Y-128828800D01*
X140436600Y-120329439D02*
X140436600Y-120116600D01*
X140436600Y-122119718D02*
X140436600Y-120329439D01*
X139147933Y-122829301D02*
X139727017Y-122829301D01*
X139727017Y-122829301D02*
X140436600Y-122119718D01*
X138728436Y-123248798D02*
X139147933Y-122829301D01*
X131897101Y-121991101D02*
X132926781Y-121991101D01*
X132926781Y-121991101D02*
X133023282Y-121894600D01*
X131521200Y-121615200D02*
X131897101Y-121991101D01*
X133388600Y-121894600D02*
X133922000Y-122428000D01*
X133023282Y-121894600D02*
X133388600Y-121894600D01*
X140223761Y-120116600D02*
X140436600Y-120116600D01*
X136820161Y-120116600D02*
X140223761Y-120116600D01*
X128828800Y-121615200D02*
X128625600Y-121615200D01*
X129768600Y-120675400D02*
X128828800Y-121615200D01*
X128625600Y-121843800D02*
X128625600Y-121615200D01*
X130759200Y-123977400D02*
X128625600Y-121843800D01*
X138252200Y-118684561D02*
X138252200Y-117195600D01*
X136820161Y-120116600D02*
X138252200Y-118684561D01*
X136820161Y-120304039D02*
X136820161Y-120116600D01*
X136296400Y-120827800D02*
X136820161Y-120304039D01*
X135155300Y-129049661D02*
X135155300Y-130176582D01*
X134934439Y-128828800D02*
X135155300Y-129049661D01*
X134721600Y-128828800D02*
X134934439Y-128828800D01*
X135056899Y-130274983D02*
X135155300Y-130176582D01*
X135056899Y-131856499D02*
X135056899Y-130274983D01*
X135839200Y-132638800D02*
X135056899Y-131856499D01*
X125018800Y-118008400D02*
X124866400Y-118008400D01*
X128625600Y-121615200D02*
X125018800Y-118008400D01*
X124715901Y-118158899D02*
X124866400Y-118008400D01*
X122845199Y-120029601D02*
X124715901Y-118158899D01*
X122845199Y-121350401D02*
X122845199Y-120029601D01*
X122694700Y-121500900D02*
X122845199Y-121350401D01*
G04 #@! TO.N,3.3V*
X131396101Y-128166499D02*
X131546600Y-128016000D01*
X130554383Y-130068301D02*
X130296901Y-129810819D01*
X133326217Y-130068301D02*
X130554383Y-130068301D01*
X130296901Y-129810819D02*
X130296901Y-129265699D01*
X133934200Y-129460318D02*
X133326217Y-130068301D01*
X130296901Y-129265699D02*
X131396101Y-128166499D01*
X133934200Y-128803400D02*
X133934200Y-129460318D01*
X133326217Y-132792817D02*
X133375400Y-132842000D01*
X133326217Y-130068301D02*
X133326217Y-132792817D01*
X137922000Y-123240800D02*
X138709400Y-124028200D01*
X137922000Y-123215400D02*
X137922000Y-123240800D01*
X135534400Y-120472200D02*
X136956800Y-119049800D01*
X135534400Y-121615200D02*
X135534400Y-120472200D01*
X136621501Y-121991101D02*
X136631699Y-122001299D01*
X136631699Y-122001299D02*
X138658600Y-124028200D01*
X135910301Y-121991101D02*
X136621501Y-121991101D01*
X135534400Y-121615200D02*
X135910301Y-121991101D01*
D14*
G04 #@! TO.N,VDD5V*
X164541200Y-112817161D02*
X159216839Y-107492800D01*
X164541200Y-113030000D02*
X164541200Y-112817161D01*
X114046000Y-113864058D02*
X114046000Y-115637919D01*
X120417258Y-107492800D02*
X114046000Y-113864058D01*
X114046000Y-115637919D02*
X114046000Y-116840000D01*
X159216839Y-107492800D02*
X120417258Y-107492800D01*
X169468800Y-117221000D02*
X166751000Y-114503200D01*
X174167800Y-135915400D02*
X172021500Y-133769100D01*
X172021500Y-133769100D02*
X170802300Y-133769100D01*
X170802300Y-133769100D02*
X169468800Y-132435600D01*
X169468800Y-132435600D02*
X169468800Y-117221000D01*
D13*
G04 #@! TO.N,Net-(C6-Pad1)*
X167513000Y-109626400D02*
X167487600Y-109626400D01*
X171323000Y-113436400D02*
X167513000Y-109626400D01*
D14*
G04 #@! TO.N,Net-(D5-Pad2)*
X168630600Y-135534400D02*
X170637200Y-135534400D01*
X170637200Y-135534400D02*
X172669200Y-135534400D01*
X175107600Y-137972800D02*
X176047400Y-137972800D01*
X172669200Y-135534400D02*
X175107600Y-137972800D01*
D13*
G04 #@! TO.N,RTS*
X174879000Y-114503200D02*
X175209200Y-114173000D01*
X170688000Y-114503200D02*
X174879000Y-114503200D01*
G04 #@! TO.N,Net-(Q1-Pad2)*
X174472600Y-110312200D02*
X174472600Y-108305600D01*
X175260000Y-111099600D02*
X174472600Y-110312200D01*
G04 #@! TO.N,RESET*
X171831000Y-108864400D02*
X171831000Y-108305600D01*
X173532800Y-110566200D02*
X171831000Y-108864400D01*
G04 #@! TO.N,SPI_CSO*
X159893000Y-129946400D02*
X156006800Y-129946400D01*
X164541200Y-134594600D02*
X159893000Y-129946400D01*
G04 #@! TO.N,/D6*
X133934200Y-123215400D02*
X132489882Y-123215400D01*
X131094499Y-121820017D02*
X131094499Y-121089217D01*
X131179899Y-121003817D02*
X131179899Y-118479899D01*
X132489882Y-123215400D02*
X131094499Y-121820017D01*
X131094499Y-121089217D02*
X131179899Y-121003817D01*
X131179899Y-118479899D02*
X128346200Y-115646200D01*
X117637994Y-115646200D02*
X116515097Y-114523303D01*
X128346200Y-115646200D02*
X117637994Y-115646200D01*
G04 #@! TO.N,/TCK*
X132129183Y-126867901D02*
X135107699Y-126867901D01*
X131170699Y-125909417D02*
X132129183Y-126867901D01*
X143814800Y-129057400D02*
X146177000Y-129057400D01*
X130733800Y-124841000D02*
X131170699Y-125277899D01*
X135107699Y-126867901D02*
X135148301Y-126827299D01*
X146177000Y-129057400D02*
X147472400Y-130352800D01*
X135986501Y-126827299D02*
X136779000Y-126034800D01*
X135148301Y-126827299D02*
X135986501Y-126827299D01*
X136779000Y-126034800D02*
X140792200Y-126034800D01*
X131170699Y-125277899D02*
X131170699Y-125909417D01*
X140792200Y-126034800D02*
X143814800Y-129057400D01*
X146202400Y-129082800D02*
X147472400Y-130352800D01*
X146202400Y-126034800D02*
X146202400Y-129082800D01*
G04 #@! TO.N,/TMS*
X135614082Y-124917200D02*
X141097000Y-124917200D01*
X130528983Y-124414299D02*
X131290583Y-124414299D01*
X129870200Y-125073082D02*
X130528983Y-124414299D01*
X142011400Y-124002800D02*
X146202400Y-124002800D01*
X135283882Y-125247400D02*
X135614082Y-124917200D01*
X146202400Y-124002800D02*
X147472400Y-125272800D01*
X129870200Y-125577600D02*
X129870200Y-125073082D01*
X133607482Y-125145800D02*
X133709082Y-125247400D01*
X131290583Y-124414299D02*
X131316383Y-124388499D01*
X131316383Y-124388499D02*
X132062781Y-124388499D01*
X132062781Y-124388499D02*
X132820082Y-125145800D01*
X133709082Y-125247400D02*
X135283882Y-125247400D01*
X141097000Y-124917200D02*
X142011400Y-124002800D01*
X132820082Y-125145800D02*
X133607482Y-125145800D01*
G04 #@! TO.N,/TDI*
X146583400Y-121081800D02*
X147472400Y-120192800D01*
X146558000Y-121081800D02*
X146583400Y-121081800D01*
X133934200Y-124841000D02*
X134320299Y-124454901D01*
X134320299Y-124454901D02*
X140975099Y-124454901D01*
X146151600Y-121488200D02*
X146558000Y-121081800D01*
X140975099Y-124454901D02*
X143941800Y-121488200D01*
X143941800Y-121488200D02*
X146151600Y-121488200D01*
G04 #@! TO.N,/H2*
X130532501Y-125778899D02*
X130683000Y-125628400D01*
X130307099Y-126004301D02*
X130532501Y-125778899D01*
X129665383Y-126004301D02*
X130307099Y-126004301D01*
X129286000Y-125624918D02*
X129665383Y-126004301D01*
X129286000Y-124750801D02*
X129286000Y-125624918D01*
G04 #@! TO.N,/F4*
X126136400Y-116890800D02*
X125603000Y-116357400D01*
X126136400Y-117322600D02*
X126136400Y-116890800D01*
G04 #@! TO.N,/J6*
X126139221Y-123282701D02*
X123612901Y-123282701D01*
X129402802Y-126546282D02*
X126139221Y-123282701D01*
X133635124Y-127575301D02*
X129729183Y-127575301D01*
X129729183Y-127575301D02*
X129402802Y-127248920D01*
X123612901Y-123282701D02*
X122682000Y-122351800D01*
X133915824Y-127294601D02*
X133635124Y-127575301D01*
X129402802Y-127248920D02*
X129402802Y-126546282D01*
G04 #@! TO.N,/K11*
X140462371Y-128395101D02*
X141503400Y-129436130D01*
X139088501Y-128395101D02*
X140462371Y-128395101D01*
X138709400Y-128016000D02*
X139088501Y-128395101D01*
X141503400Y-129436130D02*
X141503400Y-130479800D01*
X143537300Y-132513700D02*
X150596600Y-132513700D01*
X141503400Y-130479800D02*
X143537300Y-132513700D01*
G04 #@! TO.N,/K12*
X139809330Y-128090291D02*
X140663291Y-128090291D01*
X139735039Y-128016000D02*
X139809330Y-128090291D01*
X139522200Y-128016000D02*
X139735039Y-128016000D01*
X142011400Y-129438400D02*
X142011400Y-130556734D01*
X140663291Y-128090291D02*
X142011400Y-129438400D01*
X143589265Y-132134599D02*
X151692599Y-132134599D01*
X142011400Y-130556734D02*
X143589265Y-132134599D01*
G04 #@! TO.N,/L11*
X143794781Y-133707499D02*
X158624899Y-133707499D01*
X139959099Y-129871817D02*
X143794781Y-133707499D01*
X138709400Y-128803400D02*
X139143099Y-129237099D01*
X139143099Y-129237099D02*
X139734015Y-129237099D01*
X139734015Y-129237099D02*
X139959099Y-129462183D01*
X139959099Y-129462183D02*
X139959099Y-129871817D01*
X158624899Y-133707499D02*
X158978600Y-134061200D01*
G04 #@! TO.N,/L12*
X141046200Y-129695882D02*
X141046200Y-130527852D01*
X139522200Y-128803400D02*
X139735039Y-128803400D01*
X139735039Y-128803400D02*
X140171938Y-129240299D01*
X140171938Y-129240299D02*
X140590617Y-129240299D01*
X140590617Y-129240299D02*
X141046200Y-129695882D01*
X143411148Y-132892800D02*
X149098000Y-132892800D01*
X141046200Y-130527852D02*
X143411148Y-132892800D01*
G04 #@! TO.N,/E8*
X133488101Y-120981662D02*
X133488101Y-117663901D01*
X135534400Y-123027961D02*
X133488101Y-120981662D01*
X135534400Y-123240800D02*
X135534400Y-123027961D01*
X133488101Y-117663901D02*
X131064000Y-115239800D01*
X120085018Y-114658736D02*
X120085018Y-114605527D01*
X120666082Y-115239800D02*
X120085018Y-114658736D01*
X131064000Y-115239800D02*
X120666082Y-115239800D01*
G04 #@! TO.N,/F13*
X153466800Y-114544361D02*
X154549361Y-113461800D01*
X153466800Y-114757200D02*
X153466800Y-114544361D01*
X154549361Y-113461800D02*
X160858200Y-113461800D01*
X160883600Y-113487200D02*
X160883600Y-114554000D01*
X160858200Y-113461800D02*
X160883600Y-113487200D01*
G04 #@! TO.N,Net-(D2-Pad2)*
X120103900Y-117284500D02*
X120103900Y-121018300D01*
X119202200Y-116382800D02*
X120103900Y-117284500D01*
G04 #@! TO.N,Net-(D4-Pad2)*
X119240300Y-122326400D02*
X119976900Y-123063000D01*
X119240300Y-118351300D02*
X119240300Y-122326400D01*
G04 #@! TO.N,/M7*
X134728599Y-129603500D02*
X134728599Y-129816339D01*
X134728599Y-129816339D02*
X134411701Y-130133237D01*
X133580217Y-133268701D02*
X125534401Y-133268701D01*
X134411701Y-130133237D02*
X134411701Y-132437217D01*
X134411701Y-132437217D02*
X133580217Y-133268701D01*
X125657601Y-133145501D02*
X125534401Y-133268701D01*
X125657601Y-129792683D02*
X125657601Y-133145501D01*
X122680119Y-126815201D02*
X125657601Y-129792683D01*
X118654199Y-126815201D02*
X122680119Y-126815201D01*
X118503700Y-126965700D02*
X118654199Y-126815201D01*
G04 #@! TO.N,/N6*
X133219518Y-133629400D02*
X133219518Y-133695401D01*
X124968000Y-133629400D02*
X133219518Y-133695401D01*
X122576599Y-127720099D02*
X122843299Y-127720099D01*
X118240189Y-127422289D02*
X122278789Y-127422289D01*
X122278789Y-127422289D02*
X122576599Y-127720099D01*
X117919500Y-127101600D02*
X118240189Y-127422289D01*
X124964199Y-133625599D02*
X124968000Y-133629400D01*
X124964199Y-129840999D02*
X124964199Y-133625599D01*
X122843299Y-127720099D02*
X124964199Y-129840999D01*
G04 #@! TO.N,/ESP8266-12E/GPIO4*
X161277300Y-134282218D02*
X161277300Y-133870700D01*
X161024617Y-134534901D02*
X161277300Y-134282218D01*
X119604799Y-129848601D02*
X119604799Y-134395201D01*
X121412000Y-128041400D02*
X119604799Y-129848601D01*
X119604799Y-134395201D02*
X119744499Y-134534901D01*
X119744499Y-134534901D02*
X161024617Y-134534901D01*
G04 #@! TO.N,/ESP8266-12E/GPIO5*
X121555607Y-127694699D02*
X121123701Y-127694699D01*
X121911154Y-128050246D02*
X121555607Y-127694699D01*
X119160299Y-134335945D02*
X119850754Y-135026400D01*
X119160299Y-129658101D02*
X119160299Y-134335945D01*
X121123701Y-127694699D02*
X119160299Y-129658101D01*
X161366200Y-135026400D02*
X162864800Y-133527800D01*
X119850754Y-135026400D02*
X161366200Y-135026400D01*
G04 #@! TO.N,Net-(R23-Pad2)*
X122097800Y-129349500D02*
X123151900Y-129349500D01*
X119951500Y-131495800D02*
X122097800Y-129349500D01*
G04 #@! TD*
D15*
G04 #@! TO.N,3.3V*
G36*
X119916849Y-106883051D02*
X119916847Y-106883053D01*
X119851305Y-106926847D01*
X119807511Y-106992389D01*
X113545592Y-113254309D01*
X113480047Y-113298105D01*
X113306546Y-113557767D01*
X113261000Y-113786743D01*
X113261000Y-113786746D01*
X113245622Y-113864058D01*
X113261000Y-113941370D01*
X113261001Y-115560599D01*
X113261000Y-115560604D01*
X113261000Y-115578526D01*
X112975375Y-115769375D01*
X112647161Y-116260582D01*
X112531908Y-116840000D01*
X112647161Y-117419418D01*
X112975375Y-117910625D01*
X112993619Y-117922816D01*
X112948235Y-117931843D01*
X112738191Y-118072191D01*
X112597843Y-118282235D01*
X112548560Y-118530000D01*
X112548560Y-120230000D01*
X112597843Y-120477765D01*
X112738191Y-120687809D01*
X112948235Y-120828157D01*
X113196000Y-120877440D01*
X114896000Y-120877440D01*
X115143765Y-120828157D01*
X115353809Y-120687809D01*
X115494157Y-120477765D01*
X115543440Y-120230000D01*
X115543440Y-118530000D01*
X115494157Y-118282235D01*
X115353809Y-118072191D01*
X115143765Y-117931843D01*
X115098381Y-117922816D01*
X115116625Y-117910625D01*
X115444839Y-117419418D01*
X115560092Y-116840000D01*
X115444839Y-116260582D01*
X115116625Y-115769375D01*
X114831000Y-115578526D01*
X114831000Y-114423154D01*
X115216300Y-114423154D01*
X115216300Y-114735646D01*
X115335885Y-115024350D01*
X115556850Y-115245315D01*
X115845554Y-115364900D01*
X116158046Y-115364900D01*
X116294418Y-115308413D01*
X117085572Y-116099567D01*
X117125248Y-116158946D01*
X117184627Y-116198622D01*
X117184629Y-116198624D01*
X117360496Y-116316135D01*
X117360497Y-116316135D01*
X117360498Y-116316136D01*
X117567948Y-116357400D01*
X117567951Y-116357400D01*
X117637993Y-116371332D01*
X117708035Y-116357400D01*
X118416700Y-116357400D01*
X118416700Y-116539046D01*
X118536285Y-116827750D01*
X118634804Y-116926269D01*
X118556400Y-117115554D01*
X118556400Y-117428046D01*
X118675985Y-117716750D01*
X118719985Y-117760750D01*
X118574385Y-117906350D01*
X118454800Y-118195054D01*
X118454800Y-118507546D01*
X118529100Y-118686922D01*
X118529101Y-122256354D01*
X118515168Y-122326400D01*
X118570365Y-122603896D01*
X118687876Y-122779764D01*
X118687879Y-122779767D01*
X118727555Y-122839146D01*
X118786934Y-122878822D01*
X119236685Y-123328574D01*
X119310985Y-123507950D01*
X119531950Y-123728915D01*
X119820654Y-123848500D01*
X120133146Y-123848500D01*
X120421850Y-123728915D01*
X120642815Y-123507950D01*
X120762400Y-123219246D01*
X120762400Y-122906754D01*
X120642815Y-122618050D01*
X120421850Y-122397085D01*
X120242474Y-122322785D01*
X119951500Y-122031812D01*
X119951500Y-121803800D01*
X120260146Y-121803800D01*
X120548850Y-121684215D01*
X120769815Y-121463250D01*
X120889400Y-121174546D01*
X120889400Y-120862054D01*
X120815100Y-120682678D01*
X120815100Y-117354541D01*
X120829032Y-117284499D01*
X120815100Y-117214455D01*
X120815100Y-117214454D01*
X120773836Y-117007004D01*
X120728242Y-116938768D01*
X120656324Y-116831135D01*
X120656320Y-116831131D01*
X120616645Y-116771754D01*
X120557269Y-116732080D01*
X120182589Y-116357400D01*
X124817500Y-116357400D01*
X124817500Y-116513646D01*
X124937085Y-116802350D01*
X125158050Y-117023315D01*
X125337428Y-117097616D01*
X125367087Y-117127275D01*
X125350900Y-117166354D01*
X125350900Y-117374949D01*
X125329546Y-117360681D01*
X125311350Y-117342485D01*
X125022646Y-117222900D01*
X124710154Y-117222900D01*
X124421450Y-117342485D01*
X124200485Y-117563450D01*
X124126185Y-117742826D01*
X122391833Y-119477179D01*
X122332454Y-119516855D01*
X122292778Y-119576234D01*
X122292775Y-119576237D01*
X122175264Y-119752105D01*
X122120067Y-120029601D01*
X122134000Y-120099647D01*
X122133999Y-120950736D01*
X122028785Y-121055950D01*
X121909200Y-121344654D01*
X121909200Y-121657146D01*
X122014358Y-121911020D01*
X121896500Y-122195554D01*
X121896500Y-122508046D01*
X122016085Y-122796750D01*
X122237050Y-123017715D01*
X122416427Y-123092015D01*
X122763456Y-123439045D01*
X122749346Y-123433200D01*
X122436854Y-123433200D01*
X122148150Y-123552785D01*
X121927185Y-123773750D01*
X121807600Y-124062454D01*
X121807600Y-124374946D01*
X121927185Y-124663650D01*
X122148150Y-124884615D01*
X122436854Y-125004200D01*
X122749346Y-125004200D01*
X123038050Y-124884615D01*
X123259015Y-124663650D01*
X123378600Y-124374946D01*
X123378600Y-124062454D01*
X123332235Y-123950519D01*
X123335405Y-123952637D01*
X123542855Y-123993901D01*
X123542859Y-123993901D01*
X123612901Y-124007833D01*
X123682943Y-123993901D01*
X124842900Y-123993901D01*
X124842900Y-124209846D01*
X124962485Y-124498550D01*
X125050935Y-124587000D01*
X124962485Y-124675450D01*
X124842900Y-124964154D01*
X124842900Y-125276646D01*
X124962485Y-125565350D01*
X125183450Y-125786315D01*
X125472154Y-125905900D01*
X125784646Y-125905900D01*
X126073350Y-125786315D01*
X126294315Y-125565350D01*
X126413900Y-125276646D01*
X126413900Y-124964154D01*
X126294315Y-124675450D01*
X126205865Y-124587000D01*
X126294315Y-124498550D01*
X126310414Y-124459682D01*
X128265284Y-126414552D01*
X128190601Y-126594853D01*
X128190601Y-126907345D01*
X128310186Y-127196049D01*
X128531151Y-127417014D01*
X128727263Y-127498246D01*
X128732866Y-127526415D01*
X128751942Y-127554964D01*
X128850378Y-127702284D01*
X128850380Y-127702286D01*
X128890056Y-127761665D01*
X128949436Y-127801342D01*
X129084700Y-127936606D01*
X129084700Y-128096046D01*
X129204285Y-128384750D01*
X129425250Y-128605715D01*
X129713954Y-128725300D01*
X130026446Y-128725300D01*
X130242672Y-128635737D01*
X130288850Y-128681915D01*
X130577554Y-128801500D01*
X130735700Y-128801500D01*
X130735700Y-128830700D01*
X130577554Y-128830700D01*
X130343368Y-128927703D01*
X130315150Y-128899485D01*
X130026446Y-128779900D01*
X129713954Y-128779900D01*
X129425250Y-128899485D01*
X129204285Y-129120450D01*
X129084700Y-129409154D01*
X129084700Y-129721646D01*
X129112875Y-129789666D01*
X128284331Y-129789666D01*
X128181550Y-129686885D01*
X127892846Y-129567300D01*
X127580354Y-129567300D01*
X127291650Y-129686885D01*
X127070685Y-129907850D01*
X126951100Y-130196554D01*
X126951100Y-130509046D01*
X127070685Y-130797750D01*
X127291650Y-131018715D01*
X127522930Y-131114514D01*
X127607170Y-131170802D01*
X127814620Y-131212066D01*
X127814625Y-131212066D01*
X127884666Y-131225998D01*
X127954708Y-131212066D01*
X129555644Y-131212066D01*
X129735020Y-131286366D01*
X130047512Y-131286366D01*
X130336216Y-131166781D01*
X130557181Y-130945816D01*
X130676766Y-130657112D01*
X130676766Y-130401700D01*
X130890046Y-130401700D01*
X131096839Y-130316043D01*
X131364954Y-130427100D01*
X131677446Y-130427100D01*
X131958261Y-130310783D01*
X132177754Y-130401700D01*
X132490246Y-130401700D01*
X132740400Y-130298083D01*
X132990554Y-130401700D01*
X133303046Y-130401700D01*
X133591750Y-130282115D01*
X133695538Y-130178327D01*
X133700501Y-130203279D01*
X133700502Y-132142627D01*
X133285629Y-132557501D01*
X126368801Y-132557501D01*
X126368801Y-129862724D01*
X126382733Y-129792682D01*
X126368801Y-129722638D01*
X126368801Y-129722637D01*
X126327537Y-129515187D01*
X126327145Y-129514600D01*
X126210025Y-129339318D01*
X126210021Y-129339314D01*
X126170346Y-129279937D01*
X126110970Y-129240263D01*
X123232543Y-126361837D01*
X123192865Y-126302455D01*
X122957615Y-126145265D01*
X122750165Y-126104001D01*
X122750160Y-126104001D01*
X122680119Y-126090069D01*
X122610078Y-126104001D01*
X120093380Y-126104001D01*
X120155150Y-126078415D01*
X120376115Y-125857450D01*
X120495700Y-125568746D01*
X120495700Y-125256254D01*
X120376115Y-124967550D01*
X120155150Y-124746585D01*
X119866446Y-124627000D01*
X119553954Y-124627000D01*
X119265250Y-124746585D01*
X119044285Y-124967550D01*
X118924700Y-125256254D01*
X118924700Y-125568746D01*
X119044285Y-125857450D01*
X119265250Y-126078415D01*
X119327020Y-126104001D01*
X118724241Y-126104001D01*
X118654199Y-126090069D01*
X118584158Y-126104001D01*
X118584153Y-126104001D01*
X118376703Y-126145265D01*
X118286851Y-126205303D01*
X118058750Y-126299785D01*
X118042435Y-126316100D01*
X117763254Y-126316100D01*
X117474550Y-126435685D01*
X117253585Y-126656650D01*
X117134000Y-126945354D01*
X117134000Y-127257846D01*
X117253585Y-127546550D01*
X117474550Y-127767515D01*
X117653928Y-127841816D01*
X117687765Y-127875653D01*
X117727443Y-127935035D01*
X117962693Y-128092225D01*
X118170143Y-128133489D01*
X118170147Y-128133489D01*
X118240189Y-128147421D01*
X118310231Y-128133489D01*
X118645300Y-128133489D01*
X118645300Y-128299246D01*
X118764885Y-128587950D01*
X118985850Y-128808915D01*
X118998470Y-128814142D01*
X118706933Y-129105679D01*
X118647553Y-129145356D01*
X118607877Y-129204735D01*
X118607875Y-129204737D01*
X118544790Y-129299150D01*
X118490363Y-129380606D01*
X118449099Y-129588056D01*
X118449099Y-129588060D01*
X118435167Y-129658101D01*
X118449099Y-129728143D01*
X118449100Y-133495125D01*
X118164646Y-133377300D01*
X117852154Y-133377300D01*
X117563450Y-133496885D01*
X117462300Y-133598035D01*
X117329515Y-133465250D01*
X117040811Y-133345665D01*
X116728319Y-133345665D01*
X116439615Y-133465250D01*
X116218650Y-133686215D01*
X116099065Y-133974919D01*
X116099065Y-134287411D01*
X116218650Y-134576115D01*
X116439615Y-134797080D01*
X116728319Y-134916665D01*
X117040811Y-134916665D01*
X117329515Y-134797080D01*
X117430665Y-134695930D01*
X117563450Y-134828715D01*
X117852154Y-134948300D01*
X118164646Y-134948300D01*
X118453350Y-134828715D01*
X118561765Y-134720300D01*
X118607875Y-134789309D01*
X118607878Y-134789312D01*
X118647554Y-134848691D01*
X118706933Y-134888367D01*
X119298332Y-135479767D01*
X119338008Y-135539146D01*
X119397387Y-135578822D01*
X119397389Y-135578824D01*
X119447789Y-135612500D01*
X119573258Y-135696336D01*
X119780708Y-135737600D01*
X119780712Y-135737600D01*
X119850754Y-135751532D01*
X119920796Y-135737600D01*
X161296159Y-135737600D01*
X161366200Y-135751532D01*
X161436241Y-135737600D01*
X161436246Y-135737600D01*
X161643696Y-135696336D01*
X161878946Y-135539146D01*
X161918624Y-135479764D01*
X163130374Y-134268015D01*
X163185848Y-134245037D01*
X163800985Y-134860174D01*
X163875285Y-135039550D01*
X164096250Y-135260515D01*
X164384954Y-135380100D01*
X164697446Y-135380100D01*
X164986150Y-135260515D01*
X165207115Y-135039550D01*
X165326700Y-134750846D01*
X165326700Y-134438354D01*
X165207115Y-134149650D01*
X164986150Y-133928685D01*
X164806774Y-133854385D01*
X160445424Y-129493036D01*
X160405746Y-129433654D01*
X160170496Y-129276464D01*
X159963046Y-129235200D01*
X159963041Y-129235200D01*
X159893000Y-129221268D01*
X159822959Y-129235200D01*
X156342422Y-129235200D01*
X156163046Y-129160900D01*
X155850554Y-129160900D01*
X155561850Y-129280485D01*
X155340885Y-129501450D01*
X155254842Y-129709177D01*
X155105550Y-129559885D01*
X154816846Y-129440300D01*
X154504354Y-129440300D01*
X154215650Y-129559885D01*
X153994685Y-129780850D01*
X153875100Y-130069554D01*
X153875100Y-130382046D01*
X153994685Y-130670750D01*
X154215650Y-130891715D01*
X154504354Y-131011300D01*
X154816846Y-131011300D01*
X155105550Y-130891715D01*
X155326515Y-130670750D01*
X155412558Y-130463023D01*
X155561850Y-130612315D01*
X155850554Y-130731900D01*
X156163046Y-130731900D01*
X156342422Y-130657600D01*
X159598412Y-130657600D01*
X162147563Y-133206752D01*
X162132338Y-133243510D01*
X161903446Y-133148700D01*
X161590954Y-133148700D01*
X161588901Y-133149550D01*
X161433546Y-133085200D01*
X161121054Y-133085200D01*
X160832350Y-133204785D01*
X160647748Y-133389387D01*
X160557246Y-133351900D01*
X160244754Y-133351900D01*
X159956050Y-133471485D01*
X159735085Y-133692450D01*
X159705582Y-133763678D01*
X159644515Y-133616250D01*
X159423550Y-133395285D01*
X159244172Y-133320984D01*
X159177323Y-133254135D01*
X159137645Y-133194753D01*
X158902395Y-133037563D01*
X158694945Y-132996299D01*
X158694940Y-132996299D01*
X158624899Y-132982367D01*
X158554858Y-132996299D01*
X151224866Y-132996299D01*
X151262515Y-132958650D01*
X151309259Y-132845799D01*
X151356977Y-132845799D01*
X151536353Y-132920099D01*
X151848845Y-132920099D01*
X152137549Y-132800514D01*
X152358514Y-132579549D01*
X152478099Y-132290845D01*
X152478099Y-131978353D01*
X152358514Y-131689649D01*
X152137549Y-131468684D01*
X151848845Y-131349099D01*
X151536353Y-131349099D01*
X151356977Y-131423399D01*
X148543042Y-131423399D01*
X148871239Y-130932218D01*
X148986492Y-130352800D01*
X148871239Y-129773382D01*
X148543025Y-129282175D01*
X148244639Y-129082800D01*
X148543025Y-128883425D01*
X148649981Y-128723354D01*
X163369600Y-128723354D01*
X163369600Y-129035846D01*
X163489185Y-129324550D01*
X163710150Y-129545515D01*
X163998854Y-129665100D01*
X164311346Y-129665100D01*
X164600050Y-129545515D01*
X164821015Y-129324550D01*
X164940600Y-129035846D01*
X164940600Y-128723354D01*
X164821015Y-128434650D01*
X164600050Y-128213685D01*
X164311346Y-128094100D01*
X163998854Y-128094100D01*
X163710150Y-128213685D01*
X163489185Y-128434650D01*
X163369600Y-128723354D01*
X148649981Y-128723354D01*
X148871239Y-128392218D01*
X148986492Y-127812800D01*
X148871239Y-127233382D01*
X148543025Y-126742175D01*
X148244639Y-126542800D01*
X148543025Y-126343425D01*
X148871239Y-125852218D01*
X148986492Y-125272800D01*
X148871239Y-124693382D01*
X148543025Y-124202175D01*
X148244639Y-124002800D01*
X148543025Y-123803425D01*
X148871239Y-123312218D01*
X148986492Y-122732800D01*
X148871239Y-122153382D01*
X148543025Y-121662175D01*
X148524781Y-121649984D01*
X148570165Y-121640957D01*
X148780209Y-121500609D01*
X148920557Y-121290565D01*
X148969840Y-121042800D01*
X148969840Y-119777799D01*
X153239810Y-119777799D01*
X154910984Y-121448974D01*
X154985284Y-121628350D01*
X155206249Y-121849315D01*
X155494953Y-121968900D01*
X155807445Y-121968900D01*
X156096149Y-121849315D01*
X156317114Y-121628350D01*
X156436699Y-121339646D01*
X156436699Y-121027154D01*
X156317114Y-120738450D01*
X156096149Y-120517485D01*
X155916773Y-120443185D01*
X155394121Y-119920534D01*
X155494954Y-119962300D01*
X155807446Y-119962300D01*
X156096150Y-119842715D01*
X156317115Y-119621750D01*
X156436700Y-119333046D01*
X156436700Y-119020554D01*
X156317115Y-118731850D01*
X156123219Y-118537954D01*
X157964500Y-118537954D01*
X157964500Y-118850446D01*
X158084085Y-119139150D01*
X158305050Y-119360115D01*
X158593754Y-119479700D01*
X158906246Y-119479700D01*
X159194950Y-119360115D01*
X159415915Y-119139150D01*
X159535500Y-118850446D01*
X159535500Y-118537954D01*
X159493416Y-118436354D01*
X162942900Y-118436354D01*
X162942900Y-118748846D01*
X163062485Y-119037550D01*
X163283450Y-119258515D01*
X163572154Y-119378100D01*
X163884646Y-119378100D01*
X164173350Y-119258515D01*
X164394315Y-119037550D01*
X164513900Y-118748846D01*
X164513900Y-118436354D01*
X164394315Y-118147650D01*
X164173350Y-117926685D01*
X163884646Y-117807100D01*
X163572154Y-117807100D01*
X163283450Y-117926685D01*
X163062485Y-118147650D01*
X162942900Y-118436354D01*
X159493416Y-118436354D01*
X159415915Y-118249250D01*
X159194950Y-118028285D01*
X158906246Y-117908700D01*
X158593754Y-117908700D01*
X158305050Y-118028285D01*
X158084085Y-118249250D01*
X157964500Y-118537954D01*
X156123219Y-118537954D01*
X156096150Y-118510885D01*
X155807446Y-118391300D01*
X155494954Y-118391300D01*
X155206250Y-118510885D01*
X154985285Y-118731850D01*
X154865700Y-119020554D01*
X154865700Y-119333046D01*
X154907466Y-119433879D01*
X154086822Y-118613235D01*
X154047144Y-118553853D01*
X153811894Y-118396663D01*
X153604444Y-118355399D01*
X153604439Y-118355399D01*
X153534398Y-118341467D01*
X153464357Y-118355399D01*
X146128643Y-118355399D01*
X146058601Y-118341467D01*
X145988559Y-118355399D01*
X145988555Y-118355399D01*
X145781105Y-118396663D01*
X145781103Y-118396664D01*
X145781104Y-118396664D01*
X145605236Y-118514175D01*
X145605234Y-118514177D01*
X145545855Y-118553853D01*
X145506179Y-118613232D01*
X145356371Y-118763041D01*
X145078656Y-118707800D01*
X144786144Y-118707800D01*
X144352982Y-118793961D01*
X143861775Y-119122175D01*
X143533561Y-119613382D01*
X143418308Y-120192800D01*
X143533561Y-120772218D01*
X143595186Y-120864447D01*
X143488435Y-120935776D01*
X143488433Y-120935778D01*
X143429054Y-120975454D01*
X143389378Y-121034833D01*
X141171300Y-123252912D01*
X141171300Y-123084554D01*
X141051715Y-122795850D01*
X140912769Y-122656904D01*
X140949345Y-122632464D01*
X140989020Y-122573087D01*
X140989024Y-122573083D01*
X141099766Y-122407346D01*
X141106536Y-122397214D01*
X141147800Y-122189764D01*
X141147800Y-122189760D01*
X141161732Y-122119718D01*
X141147800Y-122049676D01*
X141147800Y-120452222D01*
X141222100Y-120272846D01*
X141222100Y-119960354D01*
X141102515Y-119671650D01*
X140881550Y-119450685D01*
X140592846Y-119331100D01*
X140280354Y-119331100D01*
X140100978Y-119405400D01*
X138537150Y-119405400D01*
X138705569Y-119236981D01*
X138764945Y-119197307D01*
X138804620Y-119137930D01*
X138804624Y-119137926D01*
X138922135Y-118962058D01*
X138922136Y-118962057D01*
X138963400Y-118754607D01*
X138963400Y-118754603D01*
X138977332Y-118684561D01*
X138963400Y-118614519D01*
X138963400Y-117531222D01*
X139037700Y-117351846D01*
X139037700Y-117039354D01*
X138918115Y-116750650D01*
X138697150Y-116529685D01*
X138408446Y-116410100D01*
X138095954Y-116410100D01*
X137807250Y-116529685D01*
X137586285Y-116750650D01*
X137466700Y-117039354D01*
X137466700Y-117351846D01*
X137541001Y-117531224D01*
X137541000Y-118389972D01*
X136366797Y-119564176D01*
X136307415Y-119603854D01*
X136150225Y-119839104D01*
X136118174Y-120000238D01*
X136030827Y-120087585D01*
X135851450Y-120161885D01*
X135630485Y-120382850D01*
X135510900Y-120671554D01*
X135510900Y-120984046D01*
X135611436Y-121226761D01*
X135536300Y-121408154D01*
X135536300Y-121642500D01*
X135378154Y-121642500D01*
X135220168Y-121707940D01*
X134654260Y-121142033D01*
X134719700Y-120984046D01*
X134719700Y-120671554D01*
X134600115Y-120382850D01*
X134379150Y-120161885D01*
X134199301Y-120087389D01*
X134199301Y-117733943D01*
X134213233Y-117663901D01*
X134199301Y-117593859D01*
X134199301Y-117593855D01*
X134158037Y-117386405D01*
X134000847Y-117151155D01*
X133941465Y-117111477D01*
X132166723Y-115336735D01*
X132448750Y-115219915D01*
X132669715Y-114998950D01*
X132789300Y-114710246D01*
X132789300Y-114397754D01*
X132765995Y-114341489D01*
X143227035Y-114341489D01*
X143227035Y-114653981D01*
X143346620Y-114942685D01*
X143567585Y-115163650D01*
X143856289Y-115283235D01*
X144168781Y-115283235D01*
X144457485Y-115163650D01*
X144678450Y-114942685D01*
X144798035Y-114653981D01*
X144798035Y-114388989D01*
X145179535Y-114388989D01*
X145179535Y-114701481D01*
X145299120Y-114990185D01*
X145520085Y-115211150D01*
X145808789Y-115330735D01*
X146121281Y-115330735D01*
X146409985Y-115211150D01*
X146630950Y-114990185D01*
X146750535Y-114701481D01*
X146750535Y-114423154D01*
X147448900Y-114423154D01*
X147448900Y-114735646D01*
X147568485Y-115024350D01*
X147789450Y-115245315D01*
X148078154Y-115364900D01*
X148390646Y-115364900D01*
X148551900Y-115298106D01*
X148713154Y-115364900D01*
X149025646Y-115364900D01*
X149314350Y-115245315D01*
X149402800Y-115156865D01*
X149488585Y-115242650D01*
X149777289Y-115362235D01*
X150089781Y-115362235D01*
X150378485Y-115242650D01*
X150599450Y-115021685D01*
X150719035Y-114732981D01*
X150719035Y-114420489D01*
X150709618Y-114397754D01*
X151563700Y-114397754D01*
X151563700Y-114710246D01*
X151683285Y-114998950D01*
X151904250Y-115219915D01*
X152192954Y-115339500D01*
X152505446Y-115339500D01*
X152677221Y-115268348D01*
X152726354Y-115288700D01*
X152887435Y-115288700D01*
X153021850Y-115423115D01*
X153310554Y-115542700D01*
X153623046Y-115542700D01*
X153911750Y-115423115D01*
X154011810Y-115323055D01*
X154174154Y-115390300D01*
X154486646Y-115390300D01*
X154553739Y-115362509D01*
X154682154Y-115415700D01*
X154994646Y-115415700D01*
X155283350Y-115296115D01*
X155504315Y-115075150D01*
X155557039Y-114947862D01*
X155620285Y-115100550D01*
X155841250Y-115321515D01*
X156129954Y-115441100D01*
X156442446Y-115441100D01*
X156578300Y-115384827D01*
X156714154Y-115441100D01*
X157026646Y-115441100D01*
X157315350Y-115321515D01*
X157536315Y-115100550D01*
X157617521Y-114904501D01*
X157677685Y-115049750D01*
X157898650Y-115270715D01*
X158187354Y-115390300D01*
X158499846Y-115390300D01*
X158579639Y-115357248D01*
X158720754Y-115415700D01*
X159033246Y-115415700D01*
X159321950Y-115296115D01*
X159542915Y-115075150D01*
X159616682Y-114897062D01*
X159658885Y-114998950D01*
X159879850Y-115219915D01*
X160168554Y-115339500D01*
X160481046Y-115339500D01*
X160604200Y-115288488D01*
X160727354Y-115339500D01*
X161039846Y-115339500D01*
X161328550Y-115219915D01*
X161549515Y-114998950D01*
X161669100Y-114710246D01*
X161669100Y-114473954D01*
X164111300Y-114473954D01*
X164111300Y-114786446D01*
X164230885Y-115075150D01*
X164451850Y-115296115D01*
X164740554Y-115415700D01*
X165053046Y-115415700D01*
X165341750Y-115296115D01*
X165562715Y-115075150D01*
X165682300Y-114786446D01*
X165682300Y-114473954D01*
X165562715Y-114185250D01*
X165341750Y-113964285D01*
X165053046Y-113844700D01*
X164740554Y-113844700D01*
X164451850Y-113964285D01*
X164230885Y-114185250D01*
X164111300Y-114473954D01*
X161669100Y-114473954D01*
X161669100Y-114397754D01*
X161594800Y-114218378D01*
X161594800Y-113557241D01*
X161608732Y-113487199D01*
X161594800Y-113417158D01*
X161594800Y-113417154D01*
X161553536Y-113209704D01*
X161485121Y-113107315D01*
X161436024Y-113033836D01*
X161436022Y-113033834D01*
X161396345Y-112974454D01*
X161381121Y-112964281D01*
X161370946Y-112949054D01*
X161135696Y-112791864D01*
X160928246Y-112750600D01*
X160928241Y-112750600D01*
X160858200Y-112736668D01*
X160788159Y-112750600D01*
X154619402Y-112750600D01*
X154549360Y-112736668D01*
X154479318Y-112750600D01*
X154479315Y-112750600D01*
X154271865Y-112791864D01*
X154271864Y-112791865D01*
X154271863Y-112791865D01*
X154095996Y-112909376D01*
X154095994Y-112909378D01*
X154036615Y-112949054D01*
X153996939Y-113008433D01*
X153214793Y-113790580D01*
X153038846Y-113717700D01*
X152726354Y-113717700D01*
X152554579Y-113788852D01*
X152505446Y-113768500D01*
X152192954Y-113768500D01*
X151904250Y-113888085D01*
X151683285Y-114109050D01*
X151563700Y-114397754D01*
X150709618Y-114397754D01*
X150599450Y-114131785D01*
X150378485Y-113910820D01*
X150089781Y-113791235D01*
X149777289Y-113791235D01*
X149488585Y-113910820D01*
X149400135Y-113999270D01*
X149314350Y-113913485D01*
X149025646Y-113793900D01*
X148713154Y-113793900D01*
X148551900Y-113860694D01*
X148390646Y-113793900D01*
X148078154Y-113793900D01*
X147789450Y-113913485D01*
X147568485Y-114134450D01*
X147448900Y-114423154D01*
X146750535Y-114423154D01*
X146750535Y-114388989D01*
X146630950Y-114100285D01*
X146409985Y-113879320D01*
X146121281Y-113759735D01*
X145808789Y-113759735D01*
X145520085Y-113879320D01*
X145299120Y-114100285D01*
X145179535Y-114388989D01*
X144798035Y-114388989D01*
X144798035Y-114341489D01*
X144678450Y-114052785D01*
X144457485Y-113831820D01*
X144168781Y-113712235D01*
X143856289Y-113712235D01*
X143567585Y-113831820D01*
X143346620Y-114052785D01*
X143227035Y-114341489D01*
X132765995Y-114341489D01*
X132669715Y-114109050D01*
X132448750Y-113888085D01*
X132160046Y-113768500D01*
X131847554Y-113768500D01*
X131558850Y-113888085D01*
X131337885Y-114109050D01*
X131218300Y-114397754D01*
X131218300Y-114545359D01*
X131134046Y-114528600D01*
X131134041Y-114528600D01*
X131064000Y-114514668D01*
X130993959Y-114528600D01*
X130833500Y-114528600D01*
X130833500Y-114499354D01*
X130713915Y-114210650D01*
X130492950Y-113989685D01*
X130204246Y-113870100D01*
X129891754Y-113870100D01*
X129603050Y-113989685D01*
X129382085Y-114210650D01*
X129262500Y-114499354D01*
X129262500Y-114528600D01*
X128776100Y-114528600D01*
X128776100Y-114346954D01*
X128656515Y-114058250D01*
X128435550Y-113837285D01*
X128146846Y-113717700D01*
X127834354Y-113717700D01*
X127545650Y-113837285D01*
X127324685Y-114058250D01*
X127205100Y-114346954D01*
X127205100Y-114528600D01*
X126744100Y-114528600D01*
X126744100Y-114296154D01*
X126624515Y-114007450D01*
X126403550Y-113786485D01*
X126114846Y-113666900D01*
X125802354Y-113666900D01*
X125513650Y-113786485D01*
X125292685Y-114007450D01*
X125173100Y-114296154D01*
X125173100Y-114528600D01*
X124788300Y-114528600D01*
X124788300Y-114270754D01*
X124668715Y-113982050D01*
X124447750Y-113761085D01*
X124159046Y-113641500D01*
X123846554Y-113641500D01*
X123557850Y-113761085D01*
X123336885Y-113982050D01*
X123232458Y-114234159D01*
X123170115Y-114083650D01*
X122949150Y-113862685D01*
X122660446Y-113743100D01*
X122347954Y-113743100D01*
X122194139Y-113806812D01*
X122101646Y-113768500D01*
X121789154Y-113768500D01*
X121500450Y-113888085D01*
X121279485Y-114109050D01*
X121234200Y-114218378D01*
X121188915Y-114109050D01*
X120967950Y-113888085D01*
X120679246Y-113768500D01*
X120366754Y-113768500D01*
X120241810Y-113820253D01*
X120241264Y-113820027D01*
X119928772Y-113820027D01*
X119640068Y-113939612D01*
X119419103Y-114160577D01*
X119299518Y-114449281D01*
X119299518Y-114761773D01*
X119371271Y-114935000D01*
X118711325Y-114935000D01*
X118793900Y-114735646D01*
X118793900Y-114423154D01*
X118674315Y-114134450D01*
X118453350Y-113913485D01*
X118164646Y-113793900D01*
X117852154Y-113793900D01*
X117563450Y-113913485D01*
X117342485Y-114134450D01*
X117280845Y-114283263D01*
X117255312Y-114257730D01*
X117181012Y-114078353D01*
X116960047Y-113857388D01*
X116671343Y-113737803D01*
X116358851Y-113737803D01*
X116190733Y-113807440D01*
X116158046Y-113793900D01*
X115845554Y-113793900D01*
X115556850Y-113913485D01*
X115335885Y-114134450D01*
X115216300Y-114423154D01*
X114831000Y-114423154D01*
X114831000Y-114189215D01*
X120742416Y-108277800D01*
X158891682Y-108277800D01*
X163755700Y-113141818D01*
X163755700Y-113186246D01*
X163786867Y-113261491D01*
X163801746Y-113336291D01*
X163844117Y-113399703D01*
X163875285Y-113474950D01*
X163932877Y-113532542D01*
X163975247Y-113595953D01*
X164038658Y-113638323D01*
X164096250Y-113695915D01*
X164171495Y-113727082D01*
X164234908Y-113769454D01*
X164309710Y-113784333D01*
X164384954Y-113815500D01*
X164466398Y-113815500D01*
X164541200Y-113830379D01*
X164616002Y-113815500D01*
X164697446Y-113815500D01*
X164772691Y-113784333D01*
X164847491Y-113769454D01*
X164910903Y-113727083D01*
X164986150Y-113695915D01*
X165043742Y-113638323D01*
X165107153Y-113595953D01*
X165149523Y-113532542D01*
X165207115Y-113474950D01*
X165238282Y-113399705D01*
X165280654Y-113336292D01*
X165295533Y-113261490D01*
X165326700Y-113186246D01*
X165326700Y-112891959D01*
X165341578Y-112817161D01*
X165326200Y-112739849D01*
X165326200Y-112739846D01*
X165280654Y-112510870D01*
X165280654Y-112510869D01*
X165150949Y-112316753D01*
X165107153Y-112251208D01*
X165041608Y-112207412D01*
X161415350Y-108581154D01*
X168099100Y-108581154D01*
X168099100Y-108893646D01*
X168218685Y-109182350D01*
X168439650Y-109403315D01*
X168728354Y-109522900D01*
X169040846Y-109522900D01*
X169151300Y-109477148D01*
X169261754Y-109522900D01*
X169574246Y-109522900D01*
X169862950Y-109403315D01*
X170083915Y-109182350D01*
X170203500Y-108893646D01*
X170203500Y-108581154D01*
X170083915Y-108292450D01*
X169862950Y-108071485D01*
X169574246Y-107951900D01*
X169261754Y-107951900D01*
X169151300Y-107997652D01*
X169040846Y-107951900D01*
X168728354Y-107951900D01*
X168439650Y-108071485D01*
X168218685Y-108292450D01*
X168099100Y-108581154D01*
X161415350Y-108581154D01*
X159826588Y-106992392D01*
X159782792Y-106926847D01*
X159715674Y-106882000D01*
X171483335Y-106882000D01*
X171368285Y-106997050D01*
X171248700Y-107285754D01*
X171248700Y-107598246D01*
X171301066Y-107724669D01*
X171165085Y-107860650D01*
X171045500Y-108149354D01*
X171045500Y-108461846D01*
X171119800Y-108641222D01*
X171119800Y-108794359D01*
X171105868Y-108864400D01*
X171119800Y-108934441D01*
X171119800Y-108934445D01*
X171161064Y-109141895D01*
X171161065Y-109141896D01*
X171278576Y-109317764D01*
X171278578Y-109317766D01*
X171318254Y-109377145D01*
X171377634Y-109416822D01*
X172792585Y-110831774D01*
X172866885Y-111011150D01*
X173087850Y-111232115D01*
X173376554Y-111351700D01*
X173689046Y-111351700D01*
X173977750Y-111232115D01*
X174182238Y-111027627D01*
X174519785Y-111365174D01*
X174594085Y-111544550D01*
X174815050Y-111765515D01*
X175103754Y-111885100D01*
X175416246Y-111885100D01*
X175704950Y-111765515D01*
X175925915Y-111544550D01*
X176045500Y-111255846D01*
X176045500Y-110943354D01*
X175925915Y-110654650D01*
X175704950Y-110433685D01*
X175525574Y-110359385D01*
X175183800Y-110017612D01*
X175183800Y-108641222D01*
X175258100Y-108461846D01*
X175258100Y-108149354D01*
X175138515Y-107860650D01*
X174917550Y-107639685D01*
X174628846Y-107520100D01*
X174316354Y-107520100D01*
X174027650Y-107639685D01*
X173806685Y-107860650D01*
X173687100Y-108149354D01*
X173687100Y-108461846D01*
X173761401Y-108641224D01*
X173761400Y-109789011D01*
X172563116Y-108590727D01*
X172616500Y-108461846D01*
X172616500Y-108149354D01*
X172564134Y-108022931D01*
X172700115Y-107886950D01*
X172819700Y-107598246D01*
X172819700Y-107285754D01*
X172700115Y-106997050D01*
X172585065Y-106882000D01*
X176582000Y-106882000D01*
X176582000Y-114935000D01*
X175452988Y-114935000D01*
X175474772Y-114913216D01*
X175654150Y-114838915D01*
X175875115Y-114617950D01*
X175994700Y-114329246D01*
X175994700Y-114016754D01*
X175875115Y-113728050D01*
X175654150Y-113507085D01*
X175365446Y-113387500D01*
X175052954Y-113387500D01*
X174764250Y-113507085D01*
X174543285Y-113728050D01*
X174516796Y-113792000D01*
X172025925Y-113792000D01*
X172108500Y-113592646D01*
X172108500Y-113280154D01*
X171988915Y-112991450D01*
X171818618Y-112821153D01*
X172161299Y-112821153D01*
X172161299Y-113133645D01*
X172280884Y-113422349D01*
X172501849Y-113643314D01*
X172790553Y-113762899D01*
X173103045Y-113762899D01*
X173391749Y-113643314D01*
X173612714Y-113422349D01*
X173732299Y-113133645D01*
X173732299Y-112821153D01*
X173612714Y-112532449D01*
X173391749Y-112311484D01*
X173103045Y-112191899D01*
X172790553Y-112191899D01*
X172501849Y-112311484D01*
X172280884Y-112532449D01*
X172161299Y-112821153D01*
X171818618Y-112821153D01*
X171767950Y-112770485D01*
X171588574Y-112696185D01*
X168209855Y-109317467D01*
X168153515Y-109181450D01*
X167932550Y-108960485D01*
X167643846Y-108840900D01*
X167331354Y-108840900D01*
X167042650Y-108960485D01*
X166928800Y-109074335D01*
X166891150Y-109036685D01*
X166602446Y-108917100D01*
X166289954Y-108917100D01*
X166001250Y-109036685D01*
X165780285Y-109257650D01*
X165660700Y-109546354D01*
X165660700Y-109858846D01*
X165780285Y-110147550D01*
X166001250Y-110368515D01*
X166289954Y-110488100D01*
X166602446Y-110488100D01*
X166891150Y-110368515D01*
X167005000Y-110254665D01*
X167042650Y-110292315D01*
X167265388Y-110384576D01*
X170582785Y-113701974D01*
X170589299Y-113717700D01*
X170531754Y-113717700D01*
X170243050Y-113837285D01*
X170022085Y-114058250D01*
X169902500Y-114346954D01*
X169902500Y-114635035D01*
X169869685Y-114667850D01*
X169759028Y-114935000D01*
X169517488Y-114935000D01*
X169448915Y-114769450D01*
X169227950Y-114548485D01*
X168939246Y-114428900D01*
X168626754Y-114428900D01*
X168338050Y-114548485D01*
X168122246Y-114764289D01*
X167636325Y-114278368D01*
X167754750Y-114229315D01*
X167975715Y-114008350D01*
X168095300Y-113719646D01*
X168095300Y-113407154D01*
X167975715Y-113118450D01*
X167754750Y-112897485D01*
X167466046Y-112777900D01*
X167153554Y-112777900D01*
X166864850Y-112897485D01*
X166643885Y-113118450D01*
X166524300Y-113407154D01*
X166524300Y-113719646D01*
X166533930Y-113742894D01*
X166519508Y-113748868D01*
X166444709Y-113763746D01*
X166381297Y-113806117D01*
X166306050Y-113837285D01*
X166248458Y-113894877D01*
X166185047Y-113937247D01*
X166142677Y-114000658D01*
X166085085Y-114058250D01*
X166053917Y-114133497D01*
X166011546Y-114196909D01*
X165996668Y-114271708D01*
X165965500Y-114346954D01*
X165965500Y-114428402D01*
X165950622Y-114503200D01*
X165965500Y-114577998D01*
X165965500Y-114659446D01*
X165996668Y-114734692D01*
X166011546Y-114809491D01*
X166053917Y-114872903D01*
X166085085Y-114948150D01*
X166306050Y-115169115D01*
X166307259Y-115169616D01*
X168683801Y-117546158D01*
X168683801Y-118188100D01*
X168525154Y-118188100D01*
X168236450Y-118307685D01*
X168015485Y-118528650D01*
X167895900Y-118817354D01*
X167895900Y-119129846D01*
X168015485Y-119418550D01*
X168236450Y-119639515D01*
X168525154Y-119759100D01*
X168683801Y-119759100D01*
X168683800Y-132358288D01*
X168668422Y-132435600D01*
X168683800Y-132512912D01*
X168683800Y-132512915D01*
X168718432Y-132687023D01*
X168729346Y-132741891D01*
X168806838Y-132857865D01*
X168902847Y-133001553D01*
X168968392Y-133045349D01*
X169251313Y-133328270D01*
X169191300Y-133473154D01*
X169191300Y-133785646D01*
X169310885Y-134074350D01*
X169531850Y-134295315D01*
X169820554Y-134414900D01*
X170133046Y-134414900D01*
X170270584Y-134357930D01*
X170301889Y-134378847D01*
X170301891Y-134378849D01*
X170492410Y-134506150D01*
X170496008Y-134508554D01*
X170724984Y-134554100D01*
X170724988Y-134554100D01*
X170802300Y-134569478D01*
X170879612Y-134554100D01*
X171696343Y-134554100D01*
X171891643Y-134749400D01*
X168788053Y-134749400D01*
X168786846Y-134748900D01*
X168474354Y-134748900D01*
X168399110Y-134780067D01*
X168324308Y-134794946D01*
X168260895Y-134837318D01*
X168185650Y-134868485D01*
X168128058Y-134926077D01*
X168064647Y-134968447D01*
X168022277Y-135031858D01*
X167964685Y-135089450D01*
X167933518Y-135164695D01*
X167891146Y-135228108D01*
X167876267Y-135302910D01*
X167845100Y-135378154D01*
X167845100Y-135459598D01*
X167830221Y-135534400D01*
X167845100Y-135609202D01*
X167845100Y-135690646D01*
X167876267Y-135765890D01*
X167891146Y-135840692D01*
X167933518Y-135904105D01*
X167964685Y-135979350D01*
X168022277Y-136036942D01*
X168064647Y-136100353D01*
X168128058Y-136142723D01*
X168185650Y-136200315D01*
X168260895Y-136231482D01*
X168324308Y-136273854D01*
X168399110Y-136288733D01*
X168474354Y-136319900D01*
X168786846Y-136319900D01*
X168788053Y-136319400D01*
X169851700Y-136319400D01*
X169851700Y-136478046D01*
X169971285Y-136766750D01*
X170192250Y-136987715D01*
X170480954Y-137107300D01*
X170793446Y-137107300D01*
X170888118Y-137068085D01*
X171166754Y-137183500D01*
X171479246Y-137183500D01*
X171767950Y-137063915D01*
X171988915Y-136842950D01*
X172108500Y-136554246D01*
X172108500Y-136319400D01*
X172344043Y-136319400D01*
X174497853Y-138473211D01*
X174541647Y-138538753D01*
X174607189Y-138582547D01*
X174607191Y-138582549D01*
X174734346Y-138667511D01*
X174801308Y-138712254D01*
X175030284Y-138757800D01*
X175030288Y-138757800D01*
X175107599Y-138773178D01*
X175184910Y-138757800D01*
X175889947Y-138757800D01*
X175891154Y-138758300D01*
X176203646Y-138758300D01*
X176278890Y-138727133D01*
X176353692Y-138712254D01*
X176417105Y-138669882D01*
X176492350Y-138638715D01*
X176549942Y-138581123D01*
X176582001Y-138559702D01*
X176582001Y-141530000D01*
X112470000Y-141530000D01*
X112470000Y-129701254D01*
X115724300Y-129701254D01*
X115724300Y-130013746D01*
X115843885Y-130302450D01*
X116064850Y-130523415D01*
X116327480Y-130632200D01*
X116064850Y-130740985D01*
X115843885Y-130961950D01*
X115724300Y-131250654D01*
X115724300Y-131563146D01*
X115843885Y-131851850D01*
X116064850Y-132072815D01*
X116094977Y-132085294D01*
X116067200Y-132152354D01*
X116067200Y-132464846D01*
X116186785Y-132753550D01*
X116407750Y-132974515D01*
X116696454Y-133094100D01*
X117008946Y-133094100D01*
X117297650Y-132974515D01*
X117518615Y-132753550D01*
X117638200Y-132464846D01*
X117638200Y-132152354D01*
X117518615Y-131863650D01*
X117297650Y-131642685D01*
X117267523Y-131630206D01*
X117295300Y-131563146D01*
X117295300Y-131250654D01*
X117175715Y-130961950D01*
X116954750Y-130740985D01*
X116692120Y-130632200D01*
X116954750Y-130523415D01*
X117175715Y-130302450D01*
X117295300Y-130013746D01*
X117295300Y-129701254D01*
X117175715Y-129412550D01*
X116954750Y-129191585D01*
X116666046Y-129072000D01*
X116353554Y-129072000D01*
X116064850Y-129191585D01*
X115843885Y-129412550D01*
X115724300Y-129701254D01*
X112470000Y-129701254D01*
X112470000Y-127529554D01*
X113336700Y-127529554D01*
X113336700Y-127842046D01*
X113456285Y-128130750D01*
X113677250Y-128351715D01*
X113965954Y-128471300D01*
X114278446Y-128471300D01*
X114567150Y-128351715D01*
X114788115Y-128130750D01*
X114907700Y-127842046D01*
X114907700Y-127529554D01*
X114788115Y-127240850D01*
X114567150Y-127019885D01*
X114278446Y-126900300D01*
X113965954Y-126900300D01*
X113677250Y-127019885D01*
X113456285Y-127240850D01*
X113336700Y-127529554D01*
X112470000Y-127529554D01*
X112470000Y-126462754D01*
X115444900Y-126462754D01*
X115444900Y-126775246D01*
X115564485Y-127063950D01*
X115785450Y-127284915D01*
X116074154Y-127404500D01*
X116386646Y-127404500D01*
X116675350Y-127284915D01*
X116896315Y-127063950D01*
X117015900Y-126775246D01*
X117015900Y-126462754D01*
X116896315Y-126174050D01*
X116675350Y-125953085D01*
X116386646Y-125833500D01*
X116074154Y-125833500D01*
X115785450Y-125953085D01*
X115564485Y-126174050D01*
X115444900Y-126462754D01*
X112470000Y-126462754D01*
X112470000Y-123548726D01*
X116617800Y-123548726D01*
X116617800Y-123960474D01*
X116775369Y-124340880D01*
X117066520Y-124632031D01*
X117446926Y-124789600D01*
X117858674Y-124789600D01*
X118239080Y-124632031D01*
X118530231Y-124340880D01*
X118687800Y-123960474D01*
X118687800Y-123548726D01*
X118530231Y-123168320D01*
X118239080Y-122877169D01*
X117858674Y-122719600D01*
X117446926Y-122719600D01*
X117066520Y-122877169D01*
X116775369Y-123168320D01*
X116617800Y-123548726D01*
X112470000Y-123548726D01*
X112470000Y-110460000D01*
X112569926Y-110460000D01*
X112777028Y-110418805D01*
X113011881Y-110261881D01*
X113168805Y-110027028D01*
X113223909Y-109750000D01*
X113168805Y-109472972D01*
X113011881Y-109238119D01*
X112777028Y-109081195D01*
X112569926Y-109040000D01*
X112470000Y-109040000D01*
X112470000Y-106882000D01*
X119918422Y-106882000D01*
X119916849Y-106883051D01*
X119916849Y-106883051D01*
G37*
X119916849Y-106883051D02*
X119916847Y-106883053D01*
X119851305Y-106926847D01*
X119807511Y-106992389D01*
X113545592Y-113254309D01*
X113480047Y-113298105D01*
X113306546Y-113557767D01*
X113261000Y-113786743D01*
X113261000Y-113786746D01*
X113245622Y-113864058D01*
X113261000Y-113941370D01*
X113261001Y-115560599D01*
X113261000Y-115560604D01*
X113261000Y-115578526D01*
X112975375Y-115769375D01*
X112647161Y-116260582D01*
X112531908Y-116840000D01*
X112647161Y-117419418D01*
X112975375Y-117910625D01*
X112993619Y-117922816D01*
X112948235Y-117931843D01*
X112738191Y-118072191D01*
X112597843Y-118282235D01*
X112548560Y-118530000D01*
X112548560Y-120230000D01*
X112597843Y-120477765D01*
X112738191Y-120687809D01*
X112948235Y-120828157D01*
X113196000Y-120877440D01*
X114896000Y-120877440D01*
X115143765Y-120828157D01*
X115353809Y-120687809D01*
X115494157Y-120477765D01*
X115543440Y-120230000D01*
X115543440Y-118530000D01*
X115494157Y-118282235D01*
X115353809Y-118072191D01*
X115143765Y-117931843D01*
X115098381Y-117922816D01*
X115116625Y-117910625D01*
X115444839Y-117419418D01*
X115560092Y-116840000D01*
X115444839Y-116260582D01*
X115116625Y-115769375D01*
X114831000Y-115578526D01*
X114831000Y-114423154D01*
X115216300Y-114423154D01*
X115216300Y-114735646D01*
X115335885Y-115024350D01*
X115556850Y-115245315D01*
X115845554Y-115364900D01*
X116158046Y-115364900D01*
X116294418Y-115308413D01*
X117085572Y-116099567D01*
X117125248Y-116158946D01*
X117184627Y-116198622D01*
X117184629Y-116198624D01*
X117360496Y-116316135D01*
X117360497Y-116316135D01*
X117360498Y-116316136D01*
X117567948Y-116357400D01*
X117567951Y-116357400D01*
X117637993Y-116371332D01*
X117708035Y-116357400D01*
X118416700Y-116357400D01*
X118416700Y-116539046D01*
X118536285Y-116827750D01*
X118634804Y-116926269D01*
X118556400Y-117115554D01*
X118556400Y-117428046D01*
X118675985Y-117716750D01*
X118719985Y-117760750D01*
X118574385Y-117906350D01*
X118454800Y-118195054D01*
X118454800Y-118507546D01*
X118529100Y-118686922D01*
X118529101Y-122256354D01*
X118515168Y-122326400D01*
X118570365Y-122603896D01*
X118687876Y-122779764D01*
X118687879Y-122779767D01*
X118727555Y-122839146D01*
X118786934Y-122878822D01*
X119236685Y-123328574D01*
X119310985Y-123507950D01*
X119531950Y-123728915D01*
X119820654Y-123848500D01*
X120133146Y-123848500D01*
X120421850Y-123728915D01*
X120642815Y-123507950D01*
X120762400Y-123219246D01*
X120762400Y-122906754D01*
X120642815Y-122618050D01*
X120421850Y-122397085D01*
X120242474Y-122322785D01*
X119951500Y-122031812D01*
X119951500Y-121803800D01*
X120260146Y-121803800D01*
X120548850Y-121684215D01*
X120769815Y-121463250D01*
X120889400Y-121174546D01*
X120889400Y-120862054D01*
X120815100Y-120682678D01*
X120815100Y-117354541D01*
X120829032Y-117284499D01*
X120815100Y-117214455D01*
X120815100Y-117214454D01*
X120773836Y-117007004D01*
X120728242Y-116938768D01*
X120656324Y-116831135D01*
X120656320Y-116831131D01*
X120616645Y-116771754D01*
X120557269Y-116732080D01*
X120182589Y-116357400D01*
X124817500Y-116357400D01*
X124817500Y-116513646D01*
X124937085Y-116802350D01*
X125158050Y-117023315D01*
X125337428Y-117097616D01*
X125367087Y-117127275D01*
X125350900Y-117166354D01*
X125350900Y-117374949D01*
X125329546Y-117360681D01*
X125311350Y-117342485D01*
X125022646Y-117222900D01*
X124710154Y-117222900D01*
X124421450Y-117342485D01*
X124200485Y-117563450D01*
X124126185Y-117742826D01*
X122391833Y-119477179D01*
X122332454Y-119516855D01*
X122292778Y-119576234D01*
X122292775Y-119576237D01*
X122175264Y-119752105D01*
X122120067Y-120029601D01*
X122134000Y-120099647D01*
X122133999Y-120950736D01*
X122028785Y-121055950D01*
X121909200Y-121344654D01*
X121909200Y-121657146D01*
X122014358Y-121911020D01*
X121896500Y-122195554D01*
X121896500Y-122508046D01*
X122016085Y-122796750D01*
X122237050Y-123017715D01*
X122416427Y-123092015D01*
X122763456Y-123439045D01*
X122749346Y-123433200D01*
X122436854Y-123433200D01*
X122148150Y-123552785D01*
X121927185Y-123773750D01*
X121807600Y-124062454D01*
X121807600Y-124374946D01*
X121927185Y-124663650D01*
X122148150Y-124884615D01*
X122436854Y-125004200D01*
X122749346Y-125004200D01*
X123038050Y-124884615D01*
X123259015Y-124663650D01*
X123378600Y-124374946D01*
X123378600Y-124062454D01*
X123332235Y-123950519D01*
X123335405Y-123952637D01*
X123542855Y-123993901D01*
X123542859Y-123993901D01*
X123612901Y-124007833D01*
X123682943Y-123993901D01*
X124842900Y-123993901D01*
X124842900Y-124209846D01*
X124962485Y-124498550D01*
X125050935Y-124587000D01*
X124962485Y-124675450D01*
X124842900Y-124964154D01*
X124842900Y-125276646D01*
X124962485Y-125565350D01*
X125183450Y-125786315D01*
X125472154Y-125905900D01*
X125784646Y-125905900D01*
X126073350Y-125786315D01*
X126294315Y-125565350D01*
X126413900Y-125276646D01*
X126413900Y-124964154D01*
X126294315Y-124675450D01*
X126205865Y-124587000D01*
X126294315Y-124498550D01*
X126310414Y-124459682D01*
X128265284Y-126414552D01*
X128190601Y-126594853D01*
X128190601Y-126907345D01*
X128310186Y-127196049D01*
X128531151Y-127417014D01*
X128727263Y-127498246D01*
X128732866Y-127526415D01*
X128751942Y-127554964D01*
X128850378Y-127702284D01*
X128850380Y-127702286D01*
X128890056Y-127761665D01*
X128949436Y-127801342D01*
X129084700Y-127936606D01*
X129084700Y-128096046D01*
X129204285Y-128384750D01*
X129425250Y-128605715D01*
X129713954Y-128725300D01*
X130026446Y-128725300D01*
X130242672Y-128635737D01*
X130288850Y-128681915D01*
X130577554Y-128801500D01*
X130735700Y-128801500D01*
X130735700Y-128830700D01*
X130577554Y-128830700D01*
X130343368Y-128927703D01*
X130315150Y-128899485D01*
X130026446Y-128779900D01*
X129713954Y-128779900D01*
X129425250Y-128899485D01*
X129204285Y-129120450D01*
X129084700Y-129409154D01*
X129084700Y-129721646D01*
X129112875Y-129789666D01*
X128284331Y-129789666D01*
X128181550Y-129686885D01*
X127892846Y-129567300D01*
X127580354Y-129567300D01*
X127291650Y-129686885D01*
X127070685Y-129907850D01*
X126951100Y-130196554D01*
X126951100Y-130509046D01*
X127070685Y-130797750D01*
X127291650Y-131018715D01*
X127522930Y-131114514D01*
X127607170Y-131170802D01*
X127814620Y-131212066D01*
X127814625Y-131212066D01*
X127884666Y-131225998D01*
X127954708Y-131212066D01*
X129555644Y-131212066D01*
X129735020Y-131286366D01*
X130047512Y-131286366D01*
X130336216Y-131166781D01*
X130557181Y-130945816D01*
X130676766Y-130657112D01*
X130676766Y-130401700D01*
X130890046Y-130401700D01*
X131096839Y-130316043D01*
X131364954Y-130427100D01*
X131677446Y-130427100D01*
X131958261Y-130310783D01*
X132177754Y-130401700D01*
X132490246Y-130401700D01*
X132740400Y-130298083D01*
X132990554Y-130401700D01*
X133303046Y-130401700D01*
X133591750Y-130282115D01*
X133695538Y-130178327D01*
X133700501Y-130203279D01*
X133700502Y-132142627D01*
X133285629Y-132557501D01*
X126368801Y-132557501D01*
X126368801Y-129862724D01*
X126382733Y-129792682D01*
X126368801Y-129722638D01*
X126368801Y-129722637D01*
X126327537Y-129515187D01*
X126327145Y-129514600D01*
X126210025Y-129339318D01*
X126210021Y-129339314D01*
X126170346Y-129279937D01*
X126110970Y-129240263D01*
X123232543Y-126361837D01*
X123192865Y-126302455D01*
X122957615Y-126145265D01*
X122750165Y-126104001D01*
X122750160Y-126104001D01*
X122680119Y-126090069D01*
X122610078Y-126104001D01*
X120093380Y-126104001D01*
X120155150Y-126078415D01*
X120376115Y-125857450D01*
X120495700Y-125568746D01*
X120495700Y-125256254D01*
X120376115Y-124967550D01*
X120155150Y-124746585D01*
X119866446Y-124627000D01*
X119553954Y-124627000D01*
X119265250Y-124746585D01*
X119044285Y-124967550D01*
X118924700Y-125256254D01*
X118924700Y-125568746D01*
X119044285Y-125857450D01*
X119265250Y-126078415D01*
X119327020Y-126104001D01*
X118724241Y-126104001D01*
X118654199Y-126090069D01*
X118584158Y-126104001D01*
X118584153Y-126104001D01*
X118376703Y-126145265D01*
X118286851Y-126205303D01*
X118058750Y-126299785D01*
X118042435Y-126316100D01*
X117763254Y-126316100D01*
X117474550Y-126435685D01*
X117253585Y-126656650D01*
X117134000Y-126945354D01*
X117134000Y-127257846D01*
X117253585Y-127546550D01*
X117474550Y-127767515D01*
X117653928Y-127841816D01*
X117687765Y-127875653D01*
X117727443Y-127935035D01*
X117962693Y-128092225D01*
X118170143Y-128133489D01*
X118170147Y-128133489D01*
X118240189Y-128147421D01*
X118310231Y-128133489D01*
X118645300Y-128133489D01*
X118645300Y-128299246D01*
X118764885Y-128587950D01*
X118985850Y-128808915D01*
X118998470Y-128814142D01*
X118706933Y-129105679D01*
X118647553Y-129145356D01*
X118607877Y-129204735D01*
X118607875Y-129204737D01*
X118544790Y-129299150D01*
X118490363Y-129380606D01*
X118449099Y-129588056D01*
X118449099Y-129588060D01*
X118435167Y-129658101D01*
X118449099Y-129728143D01*
X118449100Y-133495125D01*
X118164646Y-133377300D01*
X117852154Y-133377300D01*
X117563450Y-133496885D01*
X117462300Y-133598035D01*
X117329515Y-133465250D01*
X117040811Y-133345665D01*
X116728319Y-133345665D01*
X116439615Y-133465250D01*
X116218650Y-133686215D01*
X116099065Y-133974919D01*
X116099065Y-134287411D01*
X116218650Y-134576115D01*
X116439615Y-134797080D01*
X116728319Y-134916665D01*
X117040811Y-134916665D01*
X117329515Y-134797080D01*
X117430665Y-134695930D01*
X117563450Y-134828715D01*
X117852154Y-134948300D01*
X118164646Y-134948300D01*
X118453350Y-134828715D01*
X118561765Y-134720300D01*
X118607875Y-134789309D01*
X118607878Y-134789312D01*
X118647554Y-134848691D01*
X118706933Y-134888367D01*
X119298332Y-135479767D01*
X119338008Y-135539146D01*
X119397387Y-135578822D01*
X119397389Y-135578824D01*
X119447789Y-135612500D01*
X119573258Y-135696336D01*
X119780708Y-135737600D01*
X119780712Y-135737600D01*
X119850754Y-135751532D01*
X119920796Y-135737600D01*
X161296159Y-135737600D01*
X161366200Y-135751532D01*
X161436241Y-135737600D01*
X161436246Y-135737600D01*
X161643696Y-135696336D01*
X161878946Y-135539146D01*
X161918624Y-135479764D01*
X163130374Y-134268015D01*
X163185848Y-134245037D01*
X163800985Y-134860174D01*
X163875285Y-135039550D01*
X164096250Y-135260515D01*
X164384954Y-135380100D01*
X164697446Y-135380100D01*
X164986150Y-135260515D01*
X165207115Y-135039550D01*
X165326700Y-134750846D01*
X165326700Y-134438354D01*
X165207115Y-134149650D01*
X164986150Y-133928685D01*
X164806774Y-133854385D01*
X160445424Y-129493036D01*
X160405746Y-129433654D01*
X160170496Y-129276464D01*
X159963046Y-129235200D01*
X159963041Y-129235200D01*
X159893000Y-129221268D01*
X159822959Y-129235200D01*
X156342422Y-129235200D01*
X156163046Y-129160900D01*
X155850554Y-129160900D01*
X155561850Y-129280485D01*
X155340885Y-129501450D01*
X155254842Y-129709177D01*
X155105550Y-129559885D01*
X154816846Y-129440300D01*
X154504354Y-129440300D01*
X154215650Y-129559885D01*
X153994685Y-129780850D01*
X153875100Y-130069554D01*
X153875100Y-130382046D01*
X153994685Y-130670750D01*
X154215650Y-130891715D01*
X154504354Y-131011300D01*
X154816846Y-131011300D01*
X155105550Y-130891715D01*
X155326515Y-130670750D01*
X155412558Y-130463023D01*
X155561850Y-130612315D01*
X155850554Y-130731900D01*
X156163046Y-130731900D01*
X156342422Y-130657600D01*
X159598412Y-130657600D01*
X162147563Y-133206752D01*
X162132338Y-133243510D01*
X161903446Y-133148700D01*
X161590954Y-133148700D01*
X161588901Y-133149550D01*
X161433546Y-133085200D01*
X161121054Y-133085200D01*
X160832350Y-133204785D01*
X160647748Y-133389387D01*
X160557246Y-133351900D01*
X160244754Y-133351900D01*
X159956050Y-133471485D01*
X159735085Y-133692450D01*
X159705582Y-133763678D01*
X159644515Y-133616250D01*
X159423550Y-133395285D01*
X159244172Y-133320984D01*
X159177323Y-133254135D01*
X159137645Y-133194753D01*
X158902395Y-133037563D01*
X158694945Y-132996299D01*
X158694940Y-132996299D01*
X158624899Y-132982367D01*
X158554858Y-132996299D01*
X151224866Y-132996299D01*
X151262515Y-132958650D01*
X151309259Y-132845799D01*
X151356977Y-132845799D01*
X151536353Y-132920099D01*
X151848845Y-132920099D01*
X152137549Y-132800514D01*
X152358514Y-132579549D01*
X152478099Y-132290845D01*
X152478099Y-131978353D01*
X152358514Y-131689649D01*
X152137549Y-131468684D01*
X151848845Y-131349099D01*
X151536353Y-131349099D01*
X151356977Y-131423399D01*
X148543042Y-131423399D01*
X148871239Y-130932218D01*
X148986492Y-130352800D01*
X148871239Y-129773382D01*
X148543025Y-129282175D01*
X148244639Y-129082800D01*
X148543025Y-128883425D01*
X148649981Y-128723354D01*
X163369600Y-128723354D01*
X163369600Y-129035846D01*
X163489185Y-129324550D01*
X163710150Y-129545515D01*
X163998854Y-129665100D01*
X164311346Y-129665100D01*
X164600050Y-129545515D01*
X164821015Y-129324550D01*
X164940600Y-129035846D01*
X164940600Y-128723354D01*
X164821015Y-128434650D01*
X164600050Y-128213685D01*
X164311346Y-128094100D01*
X163998854Y-128094100D01*
X163710150Y-128213685D01*
X163489185Y-128434650D01*
X163369600Y-128723354D01*
X148649981Y-128723354D01*
X148871239Y-128392218D01*
X148986492Y-127812800D01*
X148871239Y-127233382D01*
X148543025Y-126742175D01*
X148244639Y-126542800D01*
X148543025Y-126343425D01*
X148871239Y-125852218D01*
X148986492Y-125272800D01*
X148871239Y-124693382D01*
X148543025Y-124202175D01*
X148244639Y-124002800D01*
X148543025Y-123803425D01*
X148871239Y-123312218D01*
X148986492Y-122732800D01*
X148871239Y-122153382D01*
X148543025Y-121662175D01*
X148524781Y-121649984D01*
X148570165Y-121640957D01*
X148780209Y-121500609D01*
X148920557Y-121290565D01*
X148969840Y-121042800D01*
X148969840Y-119777799D01*
X153239810Y-119777799D01*
X154910984Y-121448974D01*
X154985284Y-121628350D01*
X155206249Y-121849315D01*
X155494953Y-121968900D01*
X155807445Y-121968900D01*
X156096149Y-121849315D01*
X156317114Y-121628350D01*
X156436699Y-121339646D01*
X156436699Y-121027154D01*
X156317114Y-120738450D01*
X156096149Y-120517485D01*
X155916773Y-120443185D01*
X155394121Y-119920534D01*
X155494954Y-119962300D01*
X155807446Y-119962300D01*
X156096150Y-119842715D01*
X156317115Y-119621750D01*
X156436700Y-119333046D01*
X156436700Y-119020554D01*
X156317115Y-118731850D01*
X156123219Y-118537954D01*
X157964500Y-118537954D01*
X157964500Y-118850446D01*
X158084085Y-119139150D01*
X158305050Y-119360115D01*
X158593754Y-119479700D01*
X158906246Y-119479700D01*
X159194950Y-119360115D01*
X159415915Y-119139150D01*
X159535500Y-118850446D01*
X159535500Y-118537954D01*
X159493416Y-118436354D01*
X162942900Y-118436354D01*
X162942900Y-118748846D01*
X163062485Y-119037550D01*
X163283450Y-119258515D01*
X163572154Y-119378100D01*
X163884646Y-119378100D01*
X164173350Y-119258515D01*
X164394315Y-119037550D01*
X164513900Y-118748846D01*
X164513900Y-118436354D01*
X164394315Y-118147650D01*
X164173350Y-117926685D01*
X163884646Y-117807100D01*
X163572154Y-117807100D01*
X163283450Y-117926685D01*
X163062485Y-118147650D01*
X162942900Y-118436354D01*
X159493416Y-118436354D01*
X159415915Y-118249250D01*
X159194950Y-118028285D01*
X158906246Y-117908700D01*
X158593754Y-117908700D01*
X158305050Y-118028285D01*
X158084085Y-118249250D01*
X157964500Y-118537954D01*
X156123219Y-118537954D01*
X156096150Y-118510885D01*
X155807446Y-118391300D01*
X155494954Y-118391300D01*
X155206250Y-118510885D01*
X154985285Y-118731850D01*
X154865700Y-119020554D01*
X154865700Y-119333046D01*
X154907466Y-119433879D01*
X154086822Y-118613235D01*
X154047144Y-118553853D01*
X153811894Y-118396663D01*
X153604444Y-118355399D01*
X153604439Y-118355399D01*
X153534398Y-118341467D01*
X153464357Y-118355399D01*
X146128643Y-118355399D01*
X146058601Y-118341467D01*
X145988559Y-118355399D01*
X145988555Y-118355399D01*
X145781105Y-118396663D01*
X145781103Y-118396664D01*
X145781104Y-118396664D01*
X145605236Y-118514175D01*
X145605234Y-118514177D01*
X145545855Y-118553853D01*
X145506179Y-118613232D01*
X145356371Y-118763041D01*
X145078656Y-118707800D01*
X144786144Y-118707800D01*
X144352982Y-118793961D01*
X143861775Y-119122175D01*
X143533561Y-119613382D01*
X143418308Y-120192800D01*
X143533561Y-120772218D01*
X143595186Y-120864447D01*
X143488435Y-120935776D01*
X143488433Y-120935778D01*
X143429054Y-120975454D01*
X143389378Y-121034833D01*
X141171300Y-123252912D01*
X141171300Y-123084554D01*
X141051715Y-122795850D01*
X140912769Y-122656904D01*
X140949345Y-122632464D01*
X140989020Y-122573087D01*
X140989024Y-122573083D01*
X141099766Y-122407346D01*
X141106536Y-122397214D01*
X141147800Y-122189764D01*
X141147800Y-122189760D01*
X141161732Y-122119718D01*
X141147800Y-122049676D01*
X141147800Y-120452222D01*
X141222100Y-120272846D01*
X141222100Y-119960354D01*
X141102515Y-119671650D01*
X140881550Y-119450685D01*
X140592846Y-119331100D01*
X140280354Y-119331100D01*
X140100978Y-119405400D01*
X138537150Y-119405400D01*
X138705569Y-119236981D01*
X138764945Y-119197307D01*
X138804620Y-119137930D01*
X138804624Y-119137926D01*
X138922135Y-118962058D01*
X138922136Y-118962057D01*
X138963400Y-118754607D01*
X138963400Y-118754603D01*
X138977332Y-118684561D01*
X138963400Y-118614519D01*
X138963400Y-117531222D01*
X139037700Y-117351846D01*
X139037700Y-117039354D01*
X138918115Y-116750650D01*
X138697150Y-116529685D01*
X138408446Y-116410100D01*
X138095954Y-116410100D01*
X137807250Y-116529685D01*
X137586285Y-116750650D01*
X137466700Y-117039354D01*
X137466700Y-117351846D01*
X137541001Y-117531224D01*
X137541000Y-118389972D01*
X136366797Y-119564176D01*
X136307415Y-119603854D01*
X136150225Y-119839104D01*
X136118174Y-120000238D01*
X136030827Y-120087585D01*
X135851450Y-120161885D01*
X135630485Y-120382850D01*
X135510900Y-120671554D01*
X135510900Y-120984046D01*
X135611436Y-121226761D01*
X135536300Y-121408154D01*
X135536300Y-121642500D01*
X135378154Y-121642500D01*
X135220168Y-121707940D01*
X134654260Y-121142033D01*
X134719700Y-120984046D01*
X134719700Y-120671554D01*
X134600115Y-120382850D01*
X134379150Y-120161885D01*
X134199301Y-120087389D01*
X134199301Y-117733943D01*
X134213233Y-117663901D01*
X134199301Y-117593859D01*
X134199301Y-117593855D01*
X134158037Y-117386405D01*
X134000847Y-117151155D01*
X133941465Y-117111477D01*
X132166723Y-115336735D01*
X132448750Y-115219915D01*
X132669715Y-114998950D01*
X132789300Y-114710246D01*
X132789300Y-114397754D01*
X132765995Y-114341489D01*
X143227035Y-114341489D01*
X143227035Y-114653981D01*
X143346620Y-114942685D01*
X143567585Y-115163650D01*
X143856289Y-115283235D01*
X144168781Y-115283235D01*
X144457485Y-115163650D01*
X144678450Y-114942685D01*
X144798035Y-114653981D01*
X144798035Y-114388989D01*
X145179535Y-114388989D01*
X145179535Y-114701481D01*
X145299120Y-114990185D01*
X145520085Y-115211150D01*
X145808789Y-115330735D01*
X146121281Y-115330735D01*
X146409985Y-115211150D01*
X146630950Y-114990185D01*
X146750535Y-114701481D01*
X146750535Y-114423154D01*
X147448900Y-114423154D01*
X147448900Y-114735646D01*
X147568485Y-115024350D01*
X147789450Y-115245315D01*
X148078154Y-115364900D01*
X148390646Y-115364900D01*
X148551900Y-115298106D01*
X148713154Y-115364900D01*
X149025646Y-115364900D01*
X149314350Y-115245315D01*
X149402800Y-115156865D01*
X149488585Y-115242650D01*
X149777289Y-115362235D01*
X150089781Y-115362235D01*
X150378485Y-115242650D01*
X150599450Y-115021685D01*
X150719035Y-114732981D01*
X150719035Y-114420489D01*
X150709618Y-114397754D01*
X151563700Y-114397754D01*
X151563700Y-114710246D01*
X151683285Y-114998950D01*
X151904250Y-115219915D01*
X152192954Y-115339500D01*
X152505446Y-115339500D01*
X152677221Y-115268348D01*
X152726354Y-115288700D01*
X152887435Y-115288700D01*
X153021850Y-115423115D01*
X153310554Y-115542700D01*
X153623046Y-115542700D01*
X153911750Y-115423115D01*
X154011810Y-115323055D01*
X154174154Y-115390300D01*
X154486646Y-115390300D01*
X154553739Y-115362509D01*
X154682154Y-115415700D01*
X154994646Y-115415700D01*
X155283350Y-115296115D01*
X155504315Y-115075150D01*
X155557039Y-114947862D01*
X155620285Y-115100550D01*
X155841250Y-115321515D01*
X156129954Y-115441100D01*
X156442446Y-115441100D01*
X156578300Y-115384827D01*
X156714154Y-115441100D01*
X157026646Y-115441100D01*
X157315350Y-115321515D01*
X157536315Y-115100550D01*
X157617521Y-114904501D01*
X157677685Y-115049750D01*
X157898650Y-115270715D01*
X158187354Y-115390300D01*
X158499846Y-115390300D01*
X158579639Y-115357248D01*
X158720754Y-115415700D01*
X159033246Y-115415700D01*
X159321950Y-115296115D01*
X159542915Y-115075150D01*
X159616682Y-114897062D01*
X159658885Y-114998950D01*
X159879850Y-115219915D01*
X160168554Y-115339500D01*
X160481046Y-115339500D01*
X160604200Y-115288488D01*
X160727354Y-115339500D01*
X161039846Y-115339500D01*
X161328550Y-115219915D01*
X161549515Y-114998950D01*
X161669100Y-114710246D01*
X161669100Y-114473954D01*
X164111300Y-114473954D01*
X164111300Y-114786446D01*
X164230885Y-115075150D01*
X164451850Y-115296115D01*
X164740554Y-115415700D01*
X165053046Y-115415700D01*
X165341750Y-115296115D01*
X165562715Y-115075150D01*
X165682300Y-114786446D01*
X165682300Y-114473954D01*
X165562715Y-114185250D01*
X165341750Y-113964285D01*
X165053046Y-113844700D01*
X164740554Y-113844700D01*
X164451850Y-113964285D01*
X164230885Y-114185250D01*
X164111300Y-114473954D01*
X161669100Y-114473954D01*
X161669100Y-114397754D01*
X161594800Y-114218378D01*
X161594800Y-113557241D01*
X161608732Y-113487199D01*
X161594800Y-113417158D01*
X161594800Y-113417154D01*
X161553536Y-113209704D01*
X161485121Y-113107315D01*
X161436024Y-113033836D01*
X161436022Y-113033834D01*
X161396345Y-112974454D01*
X161381121Y-112964281D01*
X161370946Y-112949054D01*
X161135696Y-112791864D01*
X160928246Y-112750600D01*
X160928241Y-112750600D01*
X160858200Y-112736668D01*
X160788159Y-112750600D01*
X154619402Y-112750600D01*
X154549360Y-112736668D01*
X154479318Y-112750600D01*
X154479315Y-112750600D01*
X154271865Y-112791864D01*
X154271864Y-112791865D01*
X154271863Y-112791865D01*
X154095996Y-112909376D01*
X154095994Y-112909378D01*
X154036615Y-112949054D01*
X153996939Y-113008433D01*
X153214793Y-113790580D01*
X153038846Y-113717700D01*
X152726354Y-113717700D01*
X152554579Y-113788852D01*
X152505446Y-113768500D01*
X152192954Y-113768500D01*
X151904250Y-113888085D01*
X151683285Y-114109050D01*
X151563700Y-114397754D01*
X150709618Y-114397754D01*
X150599450Y-114131785D01*
X150378485Y-113910820D01*
X150089781Y-113791235D01*
X149777289Y-113791235D01*
X149488585Y-113910820D01*
X149400135Y-113999270D01*
X149314350Y-113913485D01*
X149025646Y-113793900D01*
X148713154Y-113793900D01*
X148551900Y-113860694D01*
X148390646Y-113793900D01*
X148078154Y-113793900D01*
X147789450Y-113913485D01*
X147568485Y-114134450D01*
X147448900Y-114423154D01*
X146750535Y-114423154D01*
X146750535Y-114388989D01*
X146630950Y-114100285D01*
X146409985Y-113879320D01*
X146121281Y-113759735D01*
X145808789Y-113759735D01*
X145520085Y-113879320D01*
X145299120Y-114100285D01*
X145179535Y-114388989D01*
X144798035Y-114388989D01*
X144798035Y-114341489D01*
X144678450Y-114052785D01*
X144457485Y-113831820D01*
X144168781Y-113712235D01*
X143856289Y-113712235D01*
X143567585Y-113831820D01*
X143346620Y-114052785D01*
X143227035Y-114341489D01*
X132765995Y-114341489D01*
X132669715Y-114109050D01*
X132448750Y-113888085D01*
X132160046Y-113768500D01*
X131847554Y-113768500D01*
X131558850Y-113888085D01*
X131337885Y-114109050D01*
X131218300Y-114397754D01*
X131218300Y-114545359D01*
X131134046Y-114528600D01*
X131134041Y-114528600D01*
X131064000Y-114514668D01*
X130993959Y-114528600D01*
X130833500Y-114528600D01*
X130833500Y-114499354D01*
X130713915Y-114210650D01*
X130492950Y-113989685D01*
X130204246Y-113870100D01*
X129891754Y-113870100D01*
X129603050Y-113989685D01*
X129382085Y-114210650D01*
X129262500Y-114499354D01*
X129262500Y-114528600D01*
X128776100Y-114528600D01*
X128776100Y-114346954D01*
X128656515Y-114058250D01*
X128435550Y-113837285D01*
X128146846Y-113717700D01*
X127834354Y-113717700D01*
X127545650Y-113837285D01*
X127324685Y-114058250D01*
X127205100Y-114346954D01*
X127205100Y-114528600D01*
X126744100Y-114528600D01*
X126744100Y-114296154D01*
X126624515Y-114007450D01*
X126403550Y-113786485D01*
X126114846Y-113666900D01*
X125802354Y-113666900D01*
X125513650Y-113786485D01*
X125292685Y-114007450D01*
X125173100Y-114296154D01*
X125173100Y-114528600D01*
X124788300Y-114528600D01*
X124788300Y-114270754D01*
X124668715Y-113982050D01*
X124447750Y-113761085D01*
X124159046Y-113641500D01*
X123846554Y-113641500D01*
X123557850Y-113761085D01*
X123336885Y-113982050D01*
X123232458Y-114234159D01*
X123170115Y-114083650D01*
X122949150Y-113862685D01*
X122660446Y-113743100D01*
X122347954Y-113743100D01*
X122194139Y-113806812D01*
X122101646Y-113768500D01*
X121789154Y-113768500D01*
X121500450Y-113888085D01*
X121279485Y-114109050D01*
X121234200Y-114218378D01*
X121188915Y-114109050D01*
X120967950Y-113888085D01*
X120679246Y-113768500D01*
X120366754Y-113768500D01*
X120241810Y-113820253D01*
X120241264Y-113820027D01*
X119928772Y-113820027D01*
X119640068Y-113939612D01*
X119419103Y-114160577D01*
X119299518Y-114449281D01*
X119299518Y-114761773D01*
X119371271Y-114935000D01*
X118711325Y-114935000D01*
X118793900Y-114735646D01*
X118793900Y-114423154D01*
X118674315Y-114134450D01*
X118453350Y-113913485D01*
X118164646Y-113793900D01*
X117852154Y-113793900D01*
X117563450Y-113913485D01*
X117342485Y-114134450D01*
X117280845Y-114283263D01*
X117255312Y-114257730D01*
X117181012Y-114078353D01*
X116960047Y-113857388D01*
X116671343Y-113737803D01*
X116358851Y-113737803D01*
X116190733Y-113807440D01*
X116158046Y-113793900D01*
X115845554Y-113793900D01*
X115556850Y-113913485D01*
X115335885Y-114134450D01*
X115216300Y-114423154D01*
X114831000Y-114423154D01*
X114831000Y-114189215D01*
X120742416Y-108277800D01*
X158891682Y-108277800D01*
X163755700Y-113141818D01*
X163755700Y-113186246D01*
X163786867Y-113261491D01*
X163801746Y-113336291D01*
X163844117Y-113399703D01*
X163875285Y-113474950D01*
X163932877Y-113532542D01*
X163975247Y-113595953D01*
X164038658Y-113638323D01*
X164096250Y-113695915D01*
X164171495Y-113727082D01*
X164234908Y-113769454D01*
X164309710Y-113784333D01*
X164384954Y-113815500D01*
X164466398Y-113815500D01*
X164541200Y-113830379D01*
X164616002Y-113815500D01*
X164697446Y-113815500D01*
X164772691Y-113784333D01*
X164847491Y-113769454D01*
X164910903Y-113727083D01*
X164986150Y-113695915D01*
X165043742Y-113638323D01*
X165107153Y-113595953D01*
X165149523Y-113532542D01*
X165207115Y-113474950D01*
X165238282Y-113399705D01*
X165280654Y-113336292D01*
X165295533Y-113261490D01*
X165326700Y-113186246D01*
X165326700Y-112891959D01*
X165341578Y-112817161D01*
X165326200Y-112739849D01*
X165326200Y-112739846D01*
X165280654Y-112510870D01*
X165280654Y-112510869D01*
X165150949Y-112316753D01*
X165107153Y-112251208D01*
X165041608Y-112207412D01*
X161415350Y-108581154D01*
X168099100Y-108581154D01*
X168099100Y-108893646D01*
X168218685Y-109182350D01*
X168439650Y-109403315D01*
X168728354Y-109522900D01*
X169040846Y-109522900D01*
X169151300Y-109477148D01*
X169261754Y-109522900D01*
X169574246Y-109522900D01*
X169862950Y-109403315D01*
X170083915Y-109182350D01*
X170203500Y-108893646D01*
X170203500Y-108581154D01*
X170083915Y-108292450D01*
X169862950Y-108071485D01*
X169574246Y-107951900D01*
X169261754Y-107951900D01*
X169151300Y-107997652D01*
X169040846Y-107951900D01*
X168728354Y-107951900D01*
X168439650Y-108071485D01*
X168218685Y-108292450D01*
X168099100Y-108581154D01*
X161415350Y-108581154D01*
X159826588Y-106992392D01*
X159782792Y-106926847D01*
X159715674Y-106882000D01*
X171483335Y-106882000D01*
X171368285Y-106997050D01*
X171248700Y-107285754D01*
X171248700Y-107598246D01*
X171301066Y-107724669D01*
X171165085Y-107860650D01*
X171045500Y-108149354D01*
X171045500Y-108461846D01*
X171119800Y-108641222D01*
X171119800Y-108794359D01*
X171105868Y-108864400D01*
X171119800Y-108934441D01*
X171119800Y-108934445D01*
X171161064Y-109141895D01*
X171161065Y-109141896D01*
X171278576Y-109317764D01*
X171278578Y-109317766D01*
X171318254Y-109377145D01*
X171377634Y-109416822D01*
X172792585Y-110831774D01*
X172866885Y-111011150D01*
X173087850Y-111232115D01*
X173376554Y-111351700D01*
X173689046Y-111351700D01*
X173977750Y-111232115D01*
X174182238Y-111027627D01*
X174519785Y-111365174D01*
X174594085Y-111544550D01*
X174815050Y-111765515D01*
X175103754Y-111885100D01*
X175416246Y-111885100D01*
X175704950Y-111765515D01*
X175925915Y-111544550D01*
X176045500Y-111255846D01*
X176045500Y-110943354D01*
X175925915Y-110654650D01*
X175704950Y-110433685D01*
X175525574Y-110359385D01*
X175183800Y-110017612D01*
X175183800Y-108641222D01*
X175258100Y-108461846D01*
X175258100Y-108149354D01*
X175138515Y-107860650D01*
X174917550Y-107639685D01*
X174628846Y-107520100D01*
X174316354Y-107520100D01*
X174027650Y-107639685D01*
X173806685Y-107860650D01*
X173687100Y-108149354D01*
X173687100Y-108461846D01*
X173761401Y-108641224D01*
X173761400Y-109789011D01*
X172563116Y-108590727D01*
X172616500Y-108461846D01*
X172616500Y-108149354D01*
X172564134Y-108022931D01*
X172700115Y-107886950D01*
X172819700Y-107598246D01*
X172819700Y-107285754D01*
X172700115Y-106997050D01*
X172585065Y-106882000D01*
X176582000Y-106882000D01*
X176582000Y-114935000D01*
X175452988Y-114935000D01*
X175474772Y-114913216D01*
X175654150Y-114838915D01*
X175875115Y-114617950D01*
X175994700Y-114329246D01*
X175994700Y-114016754D01*
X175875115Y-113728050D01*
X175654150Y-113507085D01*
X175365446Y-113387500D01*
X175052954Y-113387500D01*
X174764250Y-113507085D01*
X174543285Y-113728050D01*
X174516796Y-113792000D01*
X172025925Y-113792000D01*
X172108500Y-113592646D01*
X172108500Y-113280154D01*
X171988915Y-112991450D01*
X171818618Y-112821153D01*
X172161299Y-112821153D01*
X172161299Y-113133645D01*
X172280884Y-113422349D01*
X172501849Y-113643314D01*
X172790553Y-113762899D01*
X173103045Y-113762899D01*
X173391749Y-113643314D01*
X173612714Y-113422349D01*
X173732299Y-113133645D01*
X173732299Y-112821153D01*
X173612714Y-112532449D01*
X173391749Y-112311484D01*
X173103045Y-112191899D01*
X172790553Y-112191899D01*
X172501849Y-112311484D01*
X172280884Y-112532449D01*
X172161299Y-112821153D01*
X171818618Y-112821153D01*
X171767950Y-112770485D01*
X171588574Y-112696185D01*
X168209855Y-109317467D01*
X168153515Y-109181450D01*
X167932550Y-108960485D01*
X167643846Y-108840900D01*
X167331354Y-108840900D01*
X167042650Y-108960485D01*
X166928800Y-109074335D01*
X166891150Y-109036685D01*
X166602446Y-108917100D01*
X166289954Y-108917100D01*
X166001250Y-109036685D01*
X165780285Y-109257650D01*
X165660700Y-109546354D01*
X165660700Y-109858846D01*
X165780285Y-110147550D01*
X166001250Y-110368515D01*
X166289954Y-110488100D01*
X166602446Y-110488100D01*
X166891150Y-110368515D01*
X167005000Y-110254665D01*
X167042650Y-110292315D01*
X167265388Y-110384576D01*
X170582785Y-113701974D01*
X170589299Y-113717700D01*
X170531754Y-113717700D01*
X170243050Y-113837285D01*
X170022085Y-114058250D01*
X169902500Y-114346954D01*
X169902500Y-114635035D01*
X169869685Y-114667850D01*
X169759028Y-114935000D01*
X169517488Y-114935000D01*
X169448915Y-114769450D01*
X169227950Y-114548485D01*
X168939246Y-114428900D01*
X168626754Y-114428900D01*
X168338050Y-114548485D01*
X168122246Y-114764289D01*
X167636325Y-114278368D01*
X167754750Y-114229315D01*
X167975715Y-114008350D01*
X168095300Y-113719646D01*
X168095300Y-113407154D01*
X167975715Y-113118450D01*
X167754750Y-112897485D01*
X167466046Y-112777900D01*
X167153554Y-112777900D01*
X166864850Y-112897485D01*
X166643885Y-113118450D01*
X166524300Y-113407154D01*
X166524300Y-113719646D01*
X166533930Y-113742894D01*
X166519508Y-113748868D01*
X166444709Y-113763746D01*
X166381297Y-113806117D01*
X166306050Y-113837285D01*
X166248458Y-113894877D01*
X166185047Y-113937247D01*
X166142677Y-114000658D01*
X166085085Y-114058250D01*
X166053917Y-114133497D01*
X166011546Y-114196909D01*
X165996668Y-114271708D01*
X165965500Y-114346954D01*
X165965500Y-114428402D01*
X165950622Y-114503200D01*
X165965500Y-114577998D01*
X165965500Y-114659446D01*
X165996668Y-114734692D01*
X166011546Y-114809491D01*
X166053917Y-114872903D01*
X166085085Y-114948150D01*
X166306050Y-115169115D01*
X166307259Y-115169616D01*
X168683801Y-117546158D01*
X168683801Y-118188100D01*
X168525154Y-118188100D01*
X168236450Y-118307685D01*
X168015485Y-118528650D01*
X167895900Y-118817354D01*
X167895900Y-119129846D01*
X168015485Y-119418550D01*
X168236450Y-119639515D01*
X168525154Y-119759100D01*
X168683801Y-119759100D01*
X168683800Y-132358288D01*
X168668422Y-132435600D01*
X168683800Y-132512912D01*
X168683800Y-132512915D01*
X168718432Y-132687023D01*
X168729346Y-132741891D01*
X168806838Y-132857865D01*
X168902847Y-133001553D01*
X168968392Y-133045349D01*
X169251313Y-133328270D01*
X169191300Y-133473154D01*
X169191300Y-133785646D01*
X169310885Y-134074350D01*
X169531850Y-134295315D01*
X169820554Y-134414900D01*
X170133046Y-134414900D01*
X170270584Y-134357930D01*
X170301889Y-134378847D01*
X170301891Y-134378849D01*
X170492410Y-134506150D01*
X170496008Y-134508554D01*
X170724984Y-134554100D01*
X170724988Y-134554100D01*
X170802300Y-134569478D01*
X170879612Y-134554100D01*
X171696343Y-134554100D01*
X171891643Y-134749400D01*
X168788053Y-134749400D01*
X168786846Y-134748900D01*
X168474354Y-134748900D01*
X168399110Y-134780067D01*
X168324308Y-134794946D01*
X168260895Y-134837318D01*
X168185650Y-134868485D01*
X168128058Y-134926077D01*
X168064647Y-134968447D01*
X168022277Y-135031858D01*
X167964685Y-135089450D01*
X167933518Y-135164695D01*
X167891146Y-135228108D01*
X167876267Y-135302910D01*
X167845100Y-135378154D01*
X167845100Y-135459598D01*
X167830221Y-135534400D01*
X167845100Y-135609202D01*
X167845100Y-135690646D01*
X167876267Y-135765890D01*
X167891146Y-135840692D01*
X167933518Y-135904105D01*
X167964685Y-135979350D01*
X168022277Y-136036942D01*
X168064647Y-136100353D01*
X168128058Y-136142723D01*
X168185650Y-136200315D01*
X168260895Y-136231482D01*
X168324308Y-136273854D01*
X168399110Y-136288733D01*
X168474354Y-136319900D01*
X168786846Y-136319900D01*
X168788053Y-136319400D01*
X169851700Y-136319400D01*
X169851700Y-136478046D01*
X169971285Y-136766750D01*
X170192250Y-136987715D01*
X170480954Y-137107300D01*
X170793446Y-137107300D01*
X170888118Y-137068085D01*
X171166754Y-137183500D01*
X171479246Y-137183500D01*
X171767950Y-137063915D01*
X171988915Y-136842950D01*
X172108500Y-136554246D01*
X172108500Y-136319400D01*
X172344043Y-136319400D01*
X174497853Y-138473211D01*
X174541647Y-138538753D01*
X174607189Y-138582547D01*
X174607191Y-138582549D01*
X174734346Y-138667511D01*
X174801308Y-138712254D01*
X175030284Y-138757800D01*
X175030288Y-138757800D01*
X175107599Y-138773178D01*
X175184910Y-138757800D01*
X175889947Y-138757800D01*
X175891154Y-138758300D01*
X176203646Y-138758300D01*
X176278890Y-138727133D01*
X176353692Y-138712254D01*
X176417105Y-138669882D01*
X176492350Y-138638715D01*
X176549942Y-138581123D01*
X176582001Y-138559702D01*
X176582001Y-141530000D01*
X112470000Y-141530000D01*
X112470000Y-129701254D01*
X115724300Y-129701254D01*
X115724300Y-130013746D01*
X115843885Y-130302450D01*
X116064850Y-130523415D01*
X116327480Y-130632200D01*
X116064850Y-130740985D01*
X115843885Y-130961950D01*
X115724300Y-131250654D01*
X115724300Y-131563146D01*
X115843885Y-131851850D01*
X116064850Y-132072815D01*
X116094977Y-132085294D01*
X116067200Y-132152354D01*
X116067200Y-132464846D01*
X116186785Y-132753550D01*
X116407750Y-132974515D01*
X116696454Y-133094100D01*
X117008946Y-133094100D01*
X117297650Y-132974515D01*
X117518615Y-132753550D01*
X117638200Y-132464846D01*
X117638200Y-132152354D01*
X117518615Y-131863650D01*
X117297650Y-131642685D01*
X117267523Y-131630206D01*
X117295300Y-131563146D01*
X117295300Y-131250654D01*
X117175715Y-130961950D01*
X116954750Y-130740985D01*
X116692120Y-130632200D01*
X116954750Y-130523415D01*
X117175715Y-130302450D01*
X117295300Y-130013746D01*
X117295300Y-129701254D01*
X117175715Y-129412550D01*
X116954750Y-129191585D01*
X116666046Y-129072000D01*
X116353554Y-129072000D01*
X116064850Y-129191585D01*
X115843885Y-129412550D01*
X115724300Y-129701254D01*
X112470000Y-129701254D01*
X112470000Y-127529554D01*
X113336700Y-127529554D01*
X113336700Y-127842046D01*
X113456285Y-128130750D01*
X113677250Y-128351715D01*
X113965954Y-128471300D01*
X114278446Y-128471300D01*
X114567150Y-128351715D01*
X114788115Y-128130750D01*
X114907700Y-127842046D01*
X114907700Y-127529554D01*
X114788115Y-127240850D01*
X114567150Y-127019885D01*
X114278446Y-126900300D01*
X113965954Y-126900300D01*
X113677250Y-127019885D01*
X113456285Y-127240850D01*
X113336700Y-127529554D01*
X112470000Y-127529554D01*
X112470000Y-126462754D01*
X115444900Y-126462754D01*
X115444900Y-126775246D01*
X115564485Y-127063950D01*
X115785450Y-127284915D01*
X116074154Y-127404500D01*
X116386646Y-127404500D01*
X116675350Y-127284915D01*
X116896315Y-127063950D01*
X117015900Y-126775246D01*
X117015900Y-126462754D01*
X116896315Y-126174050D01*
X116675350Y-125953085D01*
X116386646Y-125833500D01*
X116074154Y-125833500D01*
X115785450Y-125953085D01*
X115564485Y-126174050D01*
X115444900Y-126462754D01*
X112470000Y-126462754D01*
X112470000Y-123548726D01*
X116617800Y-123548726D01*
X116617800Y-123960474D01*
X116775369Y-124340880D01*
X117066520Y-124632031D01*
X117446926Y-124789600D01*
X117858674Y-124789600D01*
X118239080Y-124632031D01*
X118530231Y-124340880D01*
X118687800Y-123960474D01*
X118687800Y-123548726D01*
X118530231Y-123168320D01*
X118239080Y-122877169D01*
X117858674Y-122719600D01*
X117446926Y-122719600D01*
X117066520Y-122877169D01*
X116775369Y-123168320D01*
X116617800Y-123548726D01*
X112470000Y-123548726D01*
X112470000Y-110460000D01*
X112569926Y-110460000D01*
X112777028Y-110418805D01*
X113011881Y-110261881D01*
X113168805Y-110027028D01*
X113223909Y-109750000D01*
X113168805Y-109472972D01*
X113011881Y-109238119D01*
X112777028Y-109081195D01*
X112569926Y-109040000D01*
X112470000Y-109040000D01*
X112470000Y-106882000D01*
X119918422Y-106882000D01*
X119916849Y-106883051D01*
G36*
X133936100Y-128985046D02*
X134035326Y-129224599D01*
X133943099Y-129447254D01*
X133943099Y-129590996D01*
X133932300Y-129598211D01*
X133932300Y-129459954D01*
X133821243Y-129191839D01*
X133906900Y-128985046D01*
X133906900Y-128801500D01*
X133936100Y-128801500D01*
X133936100Y-128985046D01*
X133936100Y-128985046D01*
G37*
X133936100Y-128985046D02*
X134035326Y-129224599D01*
X133943099Y-129447254D01*
X133943099Y-129590996D01*
X133932300Y-129598211D01*
X133932300Y-129459954D01*
X133821243Y-129191839D01*
X133906900Y-128985046D01*
X133906900Y-128801500D01*
X133936100Y-128801500D01*
X133936100Y-128985046D01*
G36*
X136443285Y-127648150D02*
X136664250Y-127869115D01*
X136952954Y-127988700D01*
X137136500Y-127988700D01*
X137136500Y-128043300D01*
X136978354Y-128043300D01*
X136728200Y-128146917D01*
X136478046Y-128043300D01*
X136319900Y-128043300D01*
X136319900Y-127839054D01*
X136218391Y-127593989D01*
X136257972Y-127498434D01*
X136263997Y-127497235D01*
X136355460Y-127436121D01*
X136443285Y-127648150D01*
X136443285Y-127648150D01*
G37*
X136443285Y-127648150D02*
X136664250Y-127869115D01*
X136952954Y-127988700D01*
X137136500Y-127988700D01*
X137136500Y-128043300D01*
X136978354Y-128043300D01*
X136728200Y-128146917D01*
X136478046Y-128043300D01*
X136319900Y-128043300D01*
X136319900Y-127839054D01*
X136218391Y-127593989D01*
X136257972Y-127498434D01*
X136263997Y-127497235D01*
X136355460Y-127436121D01*
X136443285Y-127648150D01*
G36*
X145059400Y-127685800D02*
X145079400Y-127685800D01*
X145079400Y-127939800D01*
X145059400Y-127939800D01*
X145059400Y-127959800D01*
X144805400Y-127959800D01*
X144805400Y-127939800D01*
X144785400Y-127939800D01*
X144785400Y-127685800D01*
X144805400Y-127685800D01*
X144805400Y-127665800D01*
X145059400Y-127665800D01*
X145059400Y-127685800D01*
X145059400Y-127685800D01*
G37*
X145059400Y-127685800D02*
X145079400Y-127685800D01*
X145079400Y-127939800D01*
X145059400Y-127939800D01*
X145059400Y-127959800D01*
X144805400Y-127959800D01*
X144805400Y-127939800D01*
X144785400Y-127939800D01*
X144785400Y-127685800D01*
X144805400Y-127685800D01*
X144805400Y-127665800D01*
X145059400Y-127665800D01*
X145059400Y-127685800D01*
G36*
X127885385Y-121880774D02*
X127928550Y-121984984D01*
X127955664Y-122121295D01*
X127986080Y-122166815D01*
X128073176Y-122297164D01*
X128073178Y-122297166D01*
X128112854Y-122356545D01*
X128172234Y-122396222D01*
X129856752Y-124080741D01*
X129791779Y-124145715D01*
X129730950Y-124084886D01*
X129442246Y-123965301D01*
X129129754Y-123965301D01*
X128841050Y-124084886D01*
X128620085Y-124305851D01*
X128500500Y-124594555D01*
X128500500Y-124638192D01*
X126691644Y-122829336D01*
X126651967Y-122769955D01*
X126416717Y-122612765D01*
X126365948Y-122602667D01*
X126319715Y-122491050D01*
X126231265Y-122402600D01*
X126345115Y-122288750D01*
X126464700Y-122000046D01*
X126464700Y-121687554D01*
X126345115Y-121398850D01*
X126193165Y-121246900D01*
X126268915Y-121171150D01*
X126388500Y-120882446D01*
X126388500Y-120569954D01*
X126268915Y-120281250D01*
X126047950Y-120060285D01*
X125759246Y-119940700D01*
X125446754Y-119940700D01*
X125158050Y-120060285D01*
X124937085Y-120281250D01*
X124817500Y-120569954D01*
X124817500Y-120882446D01*
X124937085Y-121171150D01*
X125089035Y-121323100D01*
X125013285Y-121398850D01*
X124893700Y-121687554D01*
X124893700Y-122000046D01*
X125013285Y-122288750D01*
X125101735Y-122377200D01*
X124987885Y-122491050D01*
X124954561Y-122571501D01*
X123907490Y-122571501D01*
X123422215Y-122086227D01*
X123362342Y-121941680D01*
X123455098Y-121717747D01*
X123469532Y-121696146D01*
X123515135Y-121627897D01*
X123556399Y-121420447D01*
X123556399Y-121420442D01*
X123570331Y-121350401D01*
X123556399Y-121280359D01*
X123556399Y-120324189D01*
X124942600Y-118937988D01*
X127885385Y-121880774D01*
X127885385Y-121880774D01*
G37*
X127885385Y-121880774D02*
X127928550Y-121984984D01*
X127955664Y-122121295D01*
X127986080Y-122166815D01*
X128073176Y-122297164D01*
X128073178Y-122297166D01*
X128112854Y-122356545D01*
X128172234Y-122396222D01*
X129856752Y-124080741D01*
X129791779Y-124145715D01*
X129730950Y-124084886D01*
X129442246Y-123965301D01*
X129129754Y-123965301D01*
X128841050Y-124084886D01*
X128620085Y-124305851D01*
X128500500Y-124594555D01*
X128500500Y-124638192D01*
X126691644Y-122829336D01*
X126651967Y-122769955D01*
X126416717Y-122612765D01*
X126365948Y-122602667D01*
X126319715Y-122491050D01*
X126231265Y-122402600D01*
X126345115Y-122288750D01*
X126464700Y-122000046D01*
X126464700Y-121687554D01*
X126345115Y-121398850D01*
X126193165Y-121246900D01*
X126268915Y-121171150D01*
X126388500Y-120882446D01*
X126388500Y-120569954D01*
X126268915Y-120281250D01*
X126047950Y-120060285D01*
X125759246Y-119940700D01*
X125446754Y-119940700D01*
X125158050Y-120060285D01*
X124937085Y-120281250D01*
X124817500Y-120569954D01*
X124817500Y-120882446D01*
X124937085Y-121171150D01*
X125089035Y-121323100D01*
X125013285Y-121398850D01*
X124893700Y-121687554D01*
X124893700Y-122000046D01*
X125013285Y-122288750D01*
X125101735Y-122377200D01*
X124987885Y-122491050D01*
X124954561Y-122571501D01*
X123907490Y-122571501D01*
X123422215Y-122086227D01*
X123362342Y-121941680D01*
X123455098Y-121717747D01*
X123469532Y-121696146D01*
X123515135Y-121627897D01*
X123556399Y-121420447D01*
X123556399Y-121420442D01*
X123570331Y-121350401D01*
X123556399Y-121280359D01*
X123556399Y-120324189D01*
X124942600Y-118937988D01*
X127885385Y-121880774D01*
G36*
X137765754Y-122426100D02*
X137923900Y-122426100D01*
X137923900Y-122584246D01*
X138038692Y-122861378D01*
X137942936Y-123092552D01*
X137942936Y-123242700D01*
X137894700Y-123242700D01*
X137894700Y-123084554D01*
X137775115Y-122795850D01*
X137554150Y-122574885D01*
X137265446Y-122455300D01*
X137107300Y-122455300D01*
X137107300Y-122426100D01*
X137265446Y-122426100D01*
X137515600Y-122322483D01*
X137765754Y-122426100D01*
X137765754Y-122426100D01*
G37*
X137765754Y-122426100D02*
X137923900Y-122426100D01*
X137923900Y-122584246D01*
X138038692Y-122861378D01*
X137942936Y-123092552D01*
X137942936Y-123242700D01*
X137894700Y-123242700D01*
X137894700Y-123084554D01*
X137775115Y-122795850D01*
X137554150Y-122574885D01*
X137265446Y-122455300D01*
X137107300Y-122455300D01*
X137107300Y-122426100D01*
X137265446Y-122426100D01*
X137515600Y-122322483D01*
X137765754Y-122426100D01*
G04 #@! TD*
M02*
