G04 #@! TF.GenerationSoftware,KiCad,Pcbnew,5.0.0-rc2-dev-unknown-6940f92~62~ubuntu16.04.1*
G04 #@! TF.CreationDate,2018-03-25T22:17:42+02:00*
G04 #@! TF.ProjectId,roboy_sno,726F626F795F736E6F2E6B696361645F,rev?*
G04 #@! TF.SameCoordinates,Original*
G04 #@! TF.FileFunction,Copper,L4,Bot,Signal*
G04 #@! TF.FilePolarity,Positive*
%FSLAX46Y46*%
G04 Gerber Fmt 4.6, Leading zero omitted, Abs format (unit mm)*
G04 Created by KiCad (PCBNEW 5.0.0-rc2-dev-unknown-6940f92~62~ubuntu16.04.1) date Sun Mar 25 22:17:42 2018*
%MOMM*%
%LPD*%
G01*
G04 APERTURE LIST*
%ADD10R,1.000000X1.000000*%
%ADD11O,1.000000X1.000000*%
%ADD12O,1.350000X1.350000*%
%ADD13R,1.350000X1.350000*%
%ADD14C,0.301000*%
%ADD15C,0.152400*%
%ADD16C,0.254000*%
G04 APERTURE END LIST*
D10*
X140208000Y-125984000D03*
D11*
X140208000Y-124714000D03*
X140208000Y-123444000D03*
X140208000Y-122174000D03*
X140208000Y-120904000D03*
D12*
X187352000Y-105918000D03*
X185352000Y-105918000D03*
X183352000Y-105918000D03*
X181352000Y-105918000D03*
X179352000Y-105918000D03*
X177352000Y-105918000D03*
X175352000Y-105918000D03*
X173352000Y-105918000D03*
X171352000Y-105918000D03*
X169352000Y-105918000D03*
X167352000Y-105918000D03*
X165352000Y-105918000D03*
X163352000Y-105918000D03*
X161352000Y-105918000D03*
X159352000Y-105918000D03*
X157352000Y-105918000D03*
X155352000Y-105918000D03*
X153352000Y-105918000D03*
X151352000Y-105918000D03*
D13*
X149352000Y-105918000D03*
D12*
X175606000Y-109220000D03*
X173606000Y-109220000D03*
X171606000Y-109220000D03*
X169606000Y-109220000D03*
X167606000Y-109220000D03*
X165606000Y-109220000D03*
X163606000Y-109220000D03*
X161606000Y-109220000D03*
X159606000Y-109220000D03*
X157606000Y-109220000D03*
X155606000Y-109220000D03*
X153606000Y-109220000D03*
X151606000Y-109220000D03*
D13*
X149606000Y-109220000D03*
D12*
X145318000Y-105918000D03*
X143318000Y-105918000D03*
X141318000Y-105918000D03*
X139318000Y-105918000D03*
X137318000Y-105918000D03*
X135318000Y-105918000D03*
X133318000Y-105918000D03*
D13*
X131318000Y-105918000D03*
D12*
X148276000Y-125476000D03*
X150276000Y-125476000D03*
X152276000Y-125476000D03*
X154276000Y-125476000D03*
X156276000Y-125476000D03*
X158276000Y-125476000D03*
X160276000Y-125476000D03*
X162276000Y-125476000D03*
X164276000Y-125476000D03*
X166276000Y-125476000D03*
X168276000Y-125476000D03*
X170276000Y-125476000D03*
X172276000Y-125476000D03*
X174276000Y-125476000D03*
D13*
X176276000Y-125476000D03*
D12*
X92075000Y-125410000D03*
X92075000Y-123410000D03*
X92075000Y-121410000D03*
X92075000Y-119410000D03*
X92075000Y-117410000D03*
X92075000Y-115410000D03*
X92075000Y-113410000D03*
X92075000Y-111410000D03*
X92075000Y-109410000D03*
X92075000Y-107410000D03*
D13*
X92075000Y-105410000D03*
D11*
X143383000Y-120967500D03*
X143383000Y-122237500D03*
X143383000Y-123507500D03*
X143383000Y-124777500D03*
D10*
X143383000Y-126047500D03*
D14*
X144653000Y-125666500D03*
X149288500Y-118745000D03*
X145859500Y-126936500D03*
X144525474Y-127125100D03*
X113099411Y-126942411D03*
X140208000Y-119951500D03*
X141284774Y-118681500D03*
X167640000Y-112712500D03*
X139509500Y-127508000D03*
X186309000Y-108585000D03*
X152209500Y-112014000D03*
X153853100Y-112014000D03*
X158115000Y-111377100D03*
X159067500Y-119697500D03*
X154876500Y-123888500D03*
X159512000Y-122366400D03*
X141541500Y-107696000D03*
X162560000Y-107823000D03*
X164158733Y-110030634D03*
X164465000Y-121475500D03*
X168783000Y-123698000D03*
X170053000Y-122428000D03*
X171450000Y-107632500D03*
X172085000Y-111125000D03*
X172212000Y-115443000D03*
X156647952Y-112714400D03*
X159467780Y-112439220D03*
X155892500Y-114300000D03*
X156647952Y-112714400D03*
X168425100Y-117475000D03*
X160464500Y-115125500D03*
X162877500Y-119126000D03*
X166878000Y-119888000D03*
X165227000Y-117475000D03*
X162052000Y-115887500D03*
X168465500Y-115125500D03*
X162877500Y-114300000D03*
X162052000Y-114300000D03*
X166052500Y-112712500D03*
X97663000Y-124712100D03*
X182816500Y-108521500D03*
X164973000Y-107886500D03*
X182689500Y-115570000D03*
X163610065Y-119932155D03*
X153352500Y-122110500D03*
X159170910Y-121958518D03*
X166306500Y-108390701D03*
X170751500Y-123507500D03*
X159455102Y-118661701D03*
X175450500Y-116078000D03*
X162834601Y-115082601D03*
X122237500Y-108140500D03*
X120078500Y-108077000D03*
X152654000Y-114046000D03*
X170468699Y-111116855D03*
X160888701Y-111252000D03*
X172720000Y-116586000D03*
X166814500Y-113538000D03*
X166052000Y-119888000D03*
X162052000Y-119126000D03*
X168465500Y-118300500D03*
X119316500Y-109156500D03*
X164427000Y-117475000D03*
X123634500Y-117221000D03*
X119253000Y-113919000D03*
X121348500Y-118427500D03*
X120777000Y-118999000D03*
X148653500Y-120650000D03*
X159448500Y-117538500D03*
X151384000Y-119888000D03*
X159321500Y-116141500D03*
X163639500Y-115887500D03*
X161226500Y-119126000D03*
X163639500Y-116713000D03*
X158877000Y-115883701D03*
X162849717Y-115879924D03*
X166814500Y-116713000D03*
X167640000Y-116713000D03*
X171005500Y-116141500D03*
X171259500Y-115697000D03*
X171132500Y-116840000D03*
X170688000Y-115697000D03*
X166052500Y-116713000D03*
X171226900Y-111188500D03*
X167640000Y-115887500D03*
X169735500Y-110744000D03*
X166052500Y-115887500D03*
X166878000Y-115125500D03*
X172275500Y-110680500D03*
X168465500Y-112712500D03*
X168465500Y-113538000D03*
X167640000Y-113474500D03*
X170432100Y-112585500D03*
X166814500Y-115887500D03*
X164909500Y-110553500D03*
X166052500Y-114300000D03*
X163766500Y-107251500D03*
X169081499Y-107632500D03*
X168465500Y-114300000D03*
X166243000Y-110617000D03*
X167640000Y-114300000D03*
X168465500Y-116713000D03*
X166814500Y-117475000D03*
X166052500Y-117538500D03*
X170053000Y-118300500D03*
X169227500Y-117538500D03*
X166878000Y-118300500D03*
X167640000Y-117475000D03*
X169227500Y-119126000D03*
X169227500Y-118300500D03*
X168465500Y-119126000D03*
X169227500Y-119888000D03*
X166878000Y-119126000D03*
X167605053Y-119144113D03*
X157670500Y-122364500D03*
X160591869Y-122469673D03*
X150032815Y-121521315D03*
X156464000Y-122299100D03*
X161607578Y-122484862D03*
X139382500Y-122872500D03*
X130429000Y-114935000D03*
X165163500Y-121475500D03*
X166052500Y-121475500D03*
X161226500Y-121539000D03*
X162052000Y-119888000D03*
X162877500Y-119888000D03*
X163639500Y-119126000D03*
X162877500Y-121475500D03*
X165290500Y-120713500D03*
X164465000Y-119126000D03*
X164465000Y-119888000D03*
X165227000Y-119062500D03*
X165227000Y-119888000D03*
X102489000Y-124396500D03*
X93662500Y-124333000D03*
X103886000Y-123634500D03*
X93535500Y-121729500D03*
X108839000Y-120269000D03*
X93662500Y-120650000D03*
X108648500Y-118999000D03*
X93726000Y-119824500D03*
X109283500Y-110807500D03*
X97853500Y-113601500D03*
X93853000Y-107950000D03*
X117538500Y-115760500D03*
X123761500Y-116078000D03*
X103632000Y-122682000D03*
X119316500Y-110426500D03*
X121158000Y-105727500D03*
X119316500Y-105727500D03*
X121158000Y-106553000D03*
X122936000Y-106045000D03*
X98742500Y-110934500D03*
X123000120Y-105596155D03*
X122110500Y-110426500D03*
X157797500Y-110553500D03*
X160464500Y-112712500D03*
X163639500Y-113538000D03*
X158623000Y-111887000D03*
X164465000Y-115887500D03*
X162814000Y-113474500D03*
X165925500Y-111506000D03*
X165227000Y-115062000D03*
X145097500Y-118681500D03*
X146240500Y-110172500D03*
X146177000Y-107886500D03*
X163195000Y-111633000D03*
X150177500Y-117157500D03*
X158750000Y-121475500D03*
X136461500Y-107886500D03*
X151511000Y-115125500D03*
X155257500Y-115125500D03*
X159575500Y-115062000D03*
X97980500Y-114490500D03*
X124777500Y-107188000D03*
X162941338Y-122863962D03*
X158813500Y-122237500D03*
X135953500Y-109982000D03*
X176325435Y-113523935D03*
X167640000Y-119888000D03*
X178244500Y-112141000D03*
X167640000Y-120713500D03*
X171005500Y-121666000D03*
X174752000Y-117516901D03*
X166052500Y-119062500D03*
X170751500Y-118046500D03*
X166052500Y-118300500D03*
X177736500Y-119062500D03*
X168465500Y-119888000D03*
X177609500Y-121094500D03*
X168465500Y-120713500D03*
X126682500Y-109220000D03*
X134683500Y-110871000D03*
X151066500Y-118808500D03*
X152717500Y-120326299D03*
X154559000Y-120713499D03*
X148526500Y-119737701D03*
X149923500Y-119951500D03*
X150749000Y-120967500D03*
X161226500Y-119888000D03*
X160464500Y-113474500D03*
X161226500Y-114300000D03*
X161226500Y-117538500D03*
X159512000Y-114300000D03*
X163639500Y-117475000D03*
X161226500Y-115125500D03*
X162052000Y-117538500D03*
X162052000Y-115125500D03*
X162814000Y-117538500D03*
X160464500Y-121475500D03*
X151003000Y-116586000D03*
X156019500Y-115951000D03*
X114490500Y-115760500D03*
X162052000Y-121539000D03*
X113220500Y-123571000D03*
X163639501Y-120713500D03*
X162056011Y-122417923D03*
X156146500Y-122872500D03*
X150876000Y-122618500D03*
X113157000Y-115125500D03*
X162657685Y-122393815D03*
X121740615Y-112787115D03*
X117919500Y-116649500D03*
X109410500Y-124333000D03*
X118117789Y-115146227D03*
X135318500Y-117475000D03*
X131762500Y-113792000D03*
X133794500Y-118491000D03*
X132969000Y-118935500D03*
X136207500Y-116268500D03*
X130365500Y-115443000D03*
D15*
X158877000Y-115883701D02*
X157527011Y-117233690D01*
X157527011Y-117233690D02*
X150799810Y-117233690D01*
X150799810Y-117233690D02*
X149288500Y-118745000D01*
X142240000Y-120142000D02*
X147617829Y-120175399D01*
X140208000Y-122174000D02*
X140707999Y-122673999D01*
X140904071Y-122673999D02*
X142240000Y-120142000D01*
X148772829Y-121330399D02*
X149629060Y-121330399D01*
X140707999Y-122673999D02*
X140904071Y-122673999D01*
X147617829Y-120175399D02*
X148772829Y-121330399D01*
X149629060Y-121330399D02*
X149819976Y-121521315D01*
X149819976Y-121521315D02*
X150032815Y-121521315D01*
X148343330Y-126746000D02*
X146050000Y-126746000D01*
X146050000Y-126746000D02*
X145859500Y-126936500D01*
X113099411Y-126942411D02*
X113249910Y-127092910D01*
X113249910Y-127092910D02*
X144493284Y-127092910D01*
X144493284Y-127092910D02*
X144525474Y-127125100D01*
X141284774Y-118681500D02*
X140208000Y-119758274D01*
X140208000Y-119758274D02*
X140208000Y-119951500D01*
X153853100Y-112014000D02*
X152209500Y-112014000D01*
X156647952Y-112714400D02*
X154553500Y-112714400D01*
X154553500Y-112714400D02*
X153853100Y-112014000D01*
X158115000Y-111377100D02*
X160452731Y-111377100D01*
X162938740Y-111937810D02*
X163013031Y-112012101D01*
X160452731Y-111377100D02*
X161013441Y-111937810D01*
X161013441Y-111937810D02*
X162938740Y-111937810D01*
X162560000Y-108035839D02*
X162560000Y-107823000D01*
X163013031Y-112012101D02*
X163376969Y-112012101D01*
X163376969Y-112012101D02*
X163574101Y-111814969D01*
X163574101Y-111814969D02*
X163574101Y-110573761D01*
X163574101Y-110573761D02*
X162560000Y-109559660D01*
X162560000Y-109559660D02*
X162560000Y-108035839D01*
X162052000Y-115887500D02*
X162052000Y-116973632D01*
X162052000Y-116973632D02*
X162434899Y-117356531D01*
X162434899Y-117356531D02*
X162434899Y-118683399D01*
X162434899Y-118683399D02*
X162727001Y-118975501D01*
X162727001Y-118975501D02*
X162877500Y-119126000D01*
X172509601Y-108501601D02*
X171640500Y-107632500D01*
X171640500Y-107632500D02*
X171450000Y-107632500D01*
X173172271Y-110123601D02*
X172509601Y-109460931D01*
X172509601Y-109460931D02*
X172509601Y-108501601D01*
X173172271Y-110991059D02*
X173172271Y-110123601D01*
X173038330Y-111125000D02*
X173172271Y-110991059D01*
X172085000Y-111125000D02*
X173038330Y-111125000D01*
X166306500Y-108390701D02*
X165802299Y-107886500D01*
X165802299Y-107886500D02*
X164973000Y-107886500D01*
X175450500Y-116078000D02*
X182181500Y-116078000D01*
X182181500Y-116078000D02*
X182689500Y-115570000D01*
X164427000Y-117475000D02*
X164018601Y-117066601D01*
X164018601Y-117066601D02*
X164018601Y-115705531D01*
X164018601Y-115705531D02*
X163395671Y-115082601D01*
X163395671Y-115082601D02*
X163047440Y-115082601D01*
X163047440Y-115082601D02*
X162834601Y-115082601D01*
X120078500Y-108077000D02*
X122174000Y-108077000D01*
X122174000Y-108077000D02*
X122237500Y-108140500D01*
X124140601Y-116714899D02*
X123634500Y-117221000D01*
X124140601Y-115896031D02*
X124140601Y-116714899D01*
X122163570Y-113919000D02*
X124140601Y-115896031D01*
X119253000Y-113919000D02*
X122163570Y-113919000D01*
X120777000Y-118999000D02*
X121348500Y-118427500D01*
X159448500Y-117538500D02*
X151765000Y-117538500D01*
X151765000Y-117538500D02*
X148653500Y-120650000D01*
X151384000Y-119888000D02*
X153354399Y-117917601D01*
X153354399Y-117917601D02*
X159630469Y-117917601D01*
X159630469Y-117917601D02*
X159827601Y-117720469D01*
X159471999Y-116291999D02*
X159321500Y-116141500D01*
X159827601Y-117720469D02*
X159827601Y-116647601D01*
X159827601Y-116647601D02*
X159471999Y-116291999D01*
X143764000Y-124984000D02*
X147430670Y-124984000D01*
X147430670Y-124984000D02*
X153288670Y-119126000D01*
X153288670Y-119126000D02*
X161226500Y-119126000D01*
X167640000Y-116713000D02*
X167260899Y-116333899D01*
X168607069Y-117854101D02*
X168804201Y-117656969D01*
X184677001Y-105243001D02*
X185352000Y-105918000D01*
X167260899Y-116333899D02*
X166632531Y-116333899D01*
X166431601Y-116534829D02*
X166431601Y-117653171D01*
X166632531Y-116333899D02*
X166431601Y-116534829D01*
X168804201Y-117019729D02*
X175700329Y-110123601D01*
X166431601Y-117653171D02*
X166632531Y-117854101D01*
X166632531Y-117854101D02*
X168607069Y-117854101D01*
X168804201Y-117656969D02*
X168804201Y-117019729D01*
X175700329Y-110123601D02*
X178676527Y-110123601D01*
X178676527Y-110123601D02*
X182448399Y-106351729D01*
X182448399Y-106351729D02*
X182448399Y-105484271D01*
X182448399Y-105484271D02*
X182918271Y-105014399D01*
X182918271Y-105014399D02*
X184448399Y-105014399D01*
X184448399Y-105014399D02*
X184677001Y-105243001D01*
X171005500Y-116141500D02*
X173128500Y-116141500D01*
X173128500Y-116141500D02*
X183352000Y-105918000D01*
X171259500Y-112892570D02*
X171226900Y-111188500D01*
X171259500Y-111188500D02*
X171226900Y-111188500D01*
X167640000Y-115887500D02*
X168022899Y-115504601D01*
X168022899Y-115504601D02*
X168647469Y-115504601D01*
X168647469Y-115504601D02*
X171259500Y-112892570D01*
X171352000Y-105918000D02*
X168702399Y-108567601D01*
X168702399Y-108567601D02*
X168702399Y-109710899D01*
X168702399Y-109710899D02*
X169735500Y-110744000D01*
X170432100Y-112585500D02*
X167970201Y-110123601D01*
X167970201Y-110123601D02*
X164979473Y-110123601D01*
X164979473Y-110123601D02*
X164509601Y-109653729D01*
X164509601Y-109653729D02*
X164509601Y-108786271D01*
X164509601Y-108786271D02*
X162544931Y-106821601D01*
X162544931Y-106821601D02*
X160255601Y-106821601D01*
X160255601Y-106821601D02*
X160026999Y-106592999D01*
X160026999Y-106592999D02*
X159352000Y-105918000D01*
X164909500Y-110553500D02*
X165227000Y-111061500D01*
X165227000Y-111061500D02*
X165354000Y-112268000D01*
X165354000Y-112268000D02*
X166052500Y-114300000D01*
X169081499Y-107632500D02*
X163766500Y-107251500D01*
X167640000Y-114300000D02*
X168019101Y-113920899D01*
X168019101Y-113920899D02*
X168019101Y-112393101D01*
X168019101Y-112393101D02*
X166243000Y-110617000D01*
X166964999Y-117324501D02*
X167229429Y-117324501D01*
X167229429Y-117324501D02*
X167461829Y-117092101D01*
X167461829Y-117092101D02*
X167821969Y-117092101D01*
X167821969Y-117092101D02*
X168086399Y-116827671D01*
X166814500Y-117475000D02*
X166964999Y-117324501D01*
X171606000Y-110174594D02*
X171606000Y-109220000D01*
X168086399Y-116827671D02*
X168086399Y-116531031D01*
X168086399Y-116531031D02*
X171606000Y-113011430D01*
X171606000Y-113011430D02*
X171606000Y-110174594D01*
X169606000Y-109220000D02*
X170847799Y-110461799D01*
X170847799Y-110461799D02*
X170847799Y-112730871D01*
X168832271Y-114746399D02*
X167818171Y-114746399D01*
X170847799Y-112730871D02*
X168832271Y-114746399D01*
X167818171Y-114746399D02*
X167059969Y-115504601D01*
X167059969Y-115504601D02*
X166636329Y-115504601D01*
X166052500Y-117538500D02*
X165673399Y-117159399D01*
X165673399Y-117159399D02*
X165673399Y-116531031D01*
X166435399Y-116069469D02*
X166435399Y-115705531D01*
X165673399Y-116531031D02*
X165937829Y-116266601D01*
X165937829Y-116266601D02*
X166238267Y-116266601D01*
X166238267Y-116266601D02*
X166435399Y-116069469D01*
X166435399Y-115705531D02*
X166636329Y-115504601D01*
X163606000Y-109220000D02*
X163606000Y-110174594D01*
X164847899Y-111416493D02*
X164847899Y-117656969D01*
X163606000Y-110174594D02*
X164847899Y-111416493D01*
X165110430Y-117919500D02*
X166266864Y-117919500D01*
X164847899Y-117656969D02*
X165110430Y-117919500D01*
X166266864Y-117919500D02*
X166647864Y-118300500D01*
X166647864Y-118300500D02*
X166665161Y-118300500D01*
X166665161Y-118300500D02*
X166878000Y-118300500D01*
X167605053Y-119144113D02*
X167244065Y-119505101D01*
X155063201Y-115504601D02*
X149606000Y-110047400D01*
X167244065Y-119505101D02*
X161802733Y-119505101D01*
X161802733Y-119505101D02*
X161605601Y-119307969D01*
X161605601Y-119307969D02*
X161605601Y-117346101D01*
X161605601Y-117346101D02*
X159764101Y-115504601D01*
X159764101Y-115504601D02*
X155063201Y-115504601D01*
X149606000Y-110047400D02*
X149606000Y-109220000D01*
X165163500Y-121475500D02*
X163372399Y-123266601D01*
X163372399Y-123266601D02*
X163372399Y-125716931D01*
X151179601Y-126379601D02*
X150950999Y-126150999D01*
X163372399Y-125716931D02*
X162709729Y-126379601D01*
X162709729Y-126379601D02*
X151179601Y-126379601D01*
X150950999Y-126150999D02*
X150276000Y-125476000D01*
X166052500Y-121475500D02*
X165673399Y-121096399D01*
X165673399Y-121096399D02*
X156464000Y-121094500D01*
X156464000Y-121094500D02*
X152950999Y-124801001D01*
X152950999Y-124801001D02*
X152276000Y-125476000D01*
X165290500Y-120713500D02*
X165851570Y-120713500D01*
X165851570Y-120713500D02*
X168276000Y-123137930D01*
X168276000Y-124521406D02*
X168276000Y-125476000D01*
X168276000Y-123137930D02*
X168276000Y-124521406D01*
X164465000Y-119888000D02*
X164844101Y-120267101D01*
X171601001Y-124801001D02*
X172276000Y-125476000D01*
X164844101Y-120267101D02*
X166495101Y-120267101D01*
X166495101Y-120267101D02*
X171029001Y-124801001D01*
X171029001Y-124801001D02*
X171601001Y-124801001D01*
X93662500Y-124333000D02*
X102425500Y-124333000D01*
X102425500Y-124333000D02*
X102489000Y-124396500D01*
X93535500Y-121729500D02*
X95440500Y-123634500D01*
X95440500Y-123634500D02*
X103886000Y-123634500D01*
X93662500Y-120650000D02*
X108458000Y-120650000D01*
X108458000Y-120650000D02*
X108839000Y-120269000D01*
X93726000Y-119824500D02*
X107823000Y-119824500D01*
X107823000Y-119824500D02*
X108648500Y-118999000D01*
X93853000Y-107950000D02*
X93853000Y-109601000D01*
X93853000Y-109601000D02*
X97853500Y-113601500D01*
X117538500Y-115760500D02*
X118427500Y-116078000D01*
X118427500Y-116078000D02*
X123761500Y-116078000D01*
X119316500Y-105727500D02*
X121158000Y-105727500D01*
X122936000Y-106045000D02*
X122428000Y-106553000D01*
X122428000Y-106553000D02*
X121158000Y-106553000D01*
X98742500Y-110934500D02*
X98994601Y-111186601D01*
X98994601Y-111186601D02*
X121350399Y-111186601D01*
X121960001Y-110576999D02*
X122110500Y-110426500D01*
X121350399Y-111186601D02*
X121960001Y-110576999D01*
X123000120Y-105596155D02*
X123212959Y-105596155D01*
X123212959Y-105596155D02*
X123315101Y-105698297D01*
X123315101Y-105698297D02*
X123315101Y-109221899D01*
X122260999Y-110276001D02*
X122110500Y-110426500D01*
X123315101Y-109221899D02*
X122260999Y-110276001D01*
X163639500Y-113538000D02*
X163323899Y-113853601D01*
X163323899Y-113853601D02*
X161605601Y-113853601D01*
X161605601Y-113853601D02*
X160464500Y-112712500D01*
X158623000Y-111887000D02*
X164465000Y-112776000D01*
X164465000Y-112776000D02*
X164465000Y-115887500D01*
X166736410Y-112139844D02*
X166559344Y-112139844D01*
X166559344Y-112139844D02*
X165925500Y-111506000D01*
X167193601Y-112597035D02*
X166736410Y-112139844D01*
X165227000Y-115062000D02*
X165851570Y-115062000D01*
X165851570Y-115062000D02*
X167193601Y-113719969D01*
X167193601Y-113719969D02*
X167193601Y-112597035D01*
X146240500Y-110172500D02*
X145097500Y-111315500D01*
X145097500Y-111315500D02*
X145097500Y-118681500D01*
X160509601Y-108786271D02*
X159609830Y-107886500D01*
X160509601Y-109460931D02*
X160509601Y-108786271D01*
X159609830Y-107886500D02*
X146177000Y-107886500D01*
X162681670Y-111633000D02*
X160509601Y-109460931D01*
X163195000Y-111633000D02*
X162681670Y-111633000D01*
X150177500Y-117157500D02*
X150177500Y-116459000D01*
X150177500Y-116459000D02*
X151511000Y-115125500D01*
X136461500Y-107886500D02*
X132459100Y-107886500D01*
X132459100Y-107886500D02*
X131318000Y-106745400D01*
X131318000Y-106745400D02*
X131318000Y-105918000D01*
X159575500Y-115062000D02*
X155321000Y-115062000D01*
X155321000Y-115062000D02*
X155257500Y-115125500D01*
X158813500Y-122237500D02*
X159439962Y-122863962D01*
X159439962Y-122863962D02*
X162941338Y-122863962D01*
X167640000Y-119888000D02*
X168019101Y-120267101D01*
X168019101Y-120267101D02*
X169582269Y-120267101D01*
X169582269Y-120267101D02*
X176325435Y-113523935D01*
X167640000Y-120713500D02*
X168019101Y-121092601D01*
X168019101Y-121092601D02*
X169292899Y-121092601D01*
X169292899Y-121092601D02*
X178244500Y-112141000D01*
X171640500Y-121031000D02*
X171005500Y-121666000D01*
X171640500Y-120650000D02*
X171640500Y-121031000D01*
X171640500Y-119697500D02*
X171640500Y-120650000D01*
X173821099Y-117516901D02*
X171640500Y-119697500D01*
X174752000Y-117516901D02*
X173821099Y-117516901D01*
X170751500Y-118163070D02*
X170751500Y-118046500D01*
X170234969Y-118679601D02*
X170751500Y-118163070D01*
X166431601Y-118679601D02*
X170234969Y-118679601D01*
X166052500Y-118300500D02*
X166431601Y-118679601D01*
X134683500Y-110871000D02*
X131953000Y-107886500D01*
X131953000Y-107886500D02*
X126682500Y-109220000D01*
X148653500Y-108316399D02*
X156039729Y-108316399D01*
X139716399Y-108316399D02*
X148653500Y-108316399D01*
X148702399Y-108365298D02*
X148653500Y-108316399D01*
X148526500Y-119737701D02*
X148702399Y-119561802D01*
X148702399Y-119561802D02*
X148702399Y-108365298D01*
X150749000Y-120967500D02*
X150749000Y-120777000D01*
X150749000Y-120777000D02*
X149923500Y-119951500D01*
X156039729Y-108316399D02*
X156509601Y-108786271D01*
X156509601Y-108786271D02*
X156509601Y-110017171D01*
X156509601Y-110017171D02*
X159131000Y-113284000D01*
X137318000Y-105918000D02*
X139716399Y-108316399D01*
X159131000Y-113284000D02*
X160464500Y-113474500D01*
X162431101Y-115705531D02*
X162496500Y-115506500D01*
X161341171Y-114679101D02*
X159891101Y-114679101D01*
X159891101Y-114679101D02*
X159662499Y-114450499D01*
X162496500Y-115506500D02*
X162369500Y-114681000D01*
X162560000Y-116967000D02*
X162431101Y-115705531D01*
X163639500Y-117475000D02*
X162560000Y-116967000D01*
X162369500Y-114681000D02*
X161671000Y-114681000D01*
X161671000Y-114681000D02*
X161341171Y-114679101D01*
X159662499Y-114450499D02*
X159512000Y-114300000D01*
X156019500Y-115951000D02*
X155384500Y-116586000D01*
X155384500Y-116586000D02*
X151003000Y-116586000D01*
X154080271Y-120334399D02*
X149179601Y-125235069D01*
X163260400Y-120334399D02*
X154080271Y-120334399D01*
X149179601Y-125235069D02*
X149179601Y-125909729D01*
X163639501Y-120713500D02*
X163260400Y-120334399D01*
X149179601Y-125909729D02*
X148343330Y-126746000D01*
X131762500Y-113792000D02*
X135318500Y-117348000D01*
X135318500Y-117348000D02*
X135318500Y-117475000D01*
X132969000Y-118935500D02*
X133350000Y-118935500D01*
X133350000Y-118935500D02*
X133794500Y-118491000D01*
X136207500Y-117147070D02*
X136207500Y-116268500D01*
X135500469Y-117854101D02*
X136207500Y-117147070D01*
X132776601Y-117854101D02*
X135500469Y-117854101D01*
X130365500Y-115443000D02*
X132776601Y-117854101D01*
D16*
G36*
X189285701Y-127116846D02*
X148901252Y-127193867D01*
X149537228Y-126557891D01*
X149764864Y-126709993D01*
X150146978Y-126786000D01*
X150405022Y-126786000D01*
X150551146Y-126756934D01*
X150627177Y-126832965D01*
X150666855Y-126892347D01*
X150902105Y-127049537D01*
X151109555Y-127090801D01*
X151109559Y-127090801D01*
X151179600Y-127104733D01*
X151249642Y-127090801D01*
X162639688Y-127090801D01*
X162709729Y-127104733D01*
X162779770Y-127090801D01*
X162779775Y-127090801D01*
X162987225Y-127049537D01*
X163222475Y-126892347D01*
X163262153Y-126832965D01*
X163537227Y-126557891D01*
X163764864Y-126709993D01*
X164146978Y-126786000D01*
X164405022Y-126786000D01*
X164787136Y-126709993D01*
X165220457Y-126420457D01*
X165276000Y-126337331D01*
X165331543Y-126420457D01*
X165764864Y-126709993D01*
X166146978Y-126786000D01*
X166405022Y-126786000D01*
X166787136Y-126709993D01*
X167220457Y-126420457D01*
X167276000Y-126337331D01*
X167331543Y-126420457D01*
X167764864Y-126709993D01*
X168146978Y-126786000D01*
X168405022Y-126786000D01*
X168787136Y-126709993D01*
X169220457Y-126420457D01*
X169276000Y-126337331D01*
X169331543Y-126420457D01*
X169764864Y-126709993D01*
X170146978Y-126786000D01*
X170405022Y-126786000D01*
X170787136Y-126709993D01*
X171220457Y-126420457D01*
X171276000Y-126337331D01*
X171331543Y-126420457D01*
X171764864Y-126709993D01*
X172146978Y-126786000D01*
X172405022Y-126786000D01*
X172787136Y-126709993D01*
X173220457Y-126420457D01*
X173276000Y-126337331D01*
X173331543Y-126420457D01*
X173764864Y-126709993D01*
X174146978Y-126786000D01*
X174405022Y-126786000D01*
X174787136Y-126709993D01*
X175080032Y-126514286D01*
X175143191Y-126608809D01*
X175353235Y-126749157D01*
X175601000Y-126798440D01*
X176951000Y-126798440D01*
X177198765Y-126749157D01*
X177408809Y-126608809D01*
X177549157Y-126398765D01*
X177598440Y-126151000D01*
X177598440Y-124801000D01*
X177549157Y-124553235D01*
X177408809Y-124343191D01*
X177198765Y-124202843D01*
X176951000Y-124153560D01*
X175601000Y-124153560D01*
X175353235Y-124202843D01*
X175143191Y-124343191D01*
X175080032Y-124437714D01*
X174787136Y-124242007D01*
X174405022Y-124166000D01*
X174146978Y-124166000D01*
X173764864Y-124242007D01*
X173331543Y-124531543D01*
X173276000Y-124614669D01*
X173220457Y-124531543D01*
X172787136Y-124242007D01*
X172405022Y-124166000D01*
X172146978Y-124166000D01*
X171980376Y-124199139D01*
X171878497Y-124131065D01*
X171671047Y-124089801D01*
X171671042Y-124089801D01*
X171601001Y-124075869D01*
X171530960Y-124089801D01*
X171323590Y-124089801D01*
X170377568Y-123143779D01*
X170497950Y-123093915D01*
X170718915Y-122872950D01*
X170838500Y-122584246D01*
X170838500Y-122447046D01*
X170849254Y-122451500D01*
X171161746Y-122451500D01*
X171450450Y-122331915D01*
X171671415Y-122110950D01*
X171745715Y-121931573D01*
X172093867Y-121583422D01*
X172153246Y-121543746D01*
X172192922Y-121484367D01*
X172192924Y-121484365D01*
X172302792Y-121319936D01*
X172310436Y-121308496D01*
X172351700Y-121101045D01*
X172351700Y-121101042D01*
X172365632Y-121031000D01*
X172351700Y-120960958D01*
X172351700Y-120938254D01*
X176824000Y-120938254D01*
X176824000Y-121250746D01*
X176943585Y-121539450D01*
X177164550Y-121760415D01*
X177453254Y-121880000D01*
X177765746Y-121880000D01*
X178054450Y-121760415D01*
X178275415Y-121539450D01*
X178395000Y-121250746D01*
X178395000Y-120938254D01*
X178275415Y-120649550D01*
X178054450Y-120428585D01*
X177765746Y-120309000D01*
X177453254Y-120309000D01*
X177164550Y-120428585D01*
X176943585Y-120649550D01*
X176824000Y-120938254D01*
X172351700Y-120938254D01*
X172351700Y-119992088D01*
X173437534Y-118906254D01*
X176951000Y-118906254D01*
X176951000Y-119218746D01*
X177070585Y-119507450D01*
X177291550Y-119728415D01*
X177580254Y-119848000D01*
X177892746Y-119848000D01*
X178181450Y-119728415D01*
X178402415Y-119507450D01*
X178522000Y-119218746D01*
X178522000Y-118906254D01*
X178402415Y-118617550D01*
X178181450Y-118396585D01*
X177892746Y-118277000D01*
X177580254Y-118277000D01*
X177291550Y-118396585D01*
X177070585Y-118617550D01*
X176951000Y-118906254D01*
X173437534Y-118906254D01*
X174115688Y-118228101D01*
X174416378Y-118228101D01*
X174595754Y-118302401D01*
X174908246Y-118302401D01*
X175196950Y-118182816D01*
X175417915Y-117961851D01*
X175537500Y-117673147D01*
X175537500Y-117360655D01*
X175417915Y-117071951D01*
X175196950Y-116850986D01*
X174908246Y-116731401D01*
X174659888Y-116731401D01*
X178510074Y-112881215D01*
X178689450Y-112806915D01*
X178910415Y-112585950D01*
X179030000Y-112297246D01*
X179030000Y-111984754D01*
X178910415Y-111696050D01*
X178745077Y-111530712D01*
X181847035Y-108428754D01*
X185523500Y-108428754D01*
X185523500Y-108741246D01*
X185643085Y-109029950D01*
X185864050Y-109250915D01*
X186152754Y-109370500D01*
X186465246Y-109370500D01*
X186753950Y-109250915D01*
X186974915Y-109029950D01*
X187094500Y-108741246D01*
X187094500Y-108428754D01*
X186974915Y-108140050D01*
X186753950Y-107919085D01*
X186465246Y-107799500D01*
X186152754Y-107799500D01*
X185864050Y-107919085D01*
X185643085Y-108140050D01*
X185523500Y-108428754D01*
X181847035Y-108428754D01*
X183076855Y-107198934D01*
X183222978Y-107228000D01*
X183481022Y-107228000D01*
X183863136Y-107151993D01*
X184296457Y-106862457D01*
X184352000Y-106779331D01*
X184407543Y-106862457D01*
X184840864Y-107151993D01*
X185222978Y-107228000D01*
X185481022Y-107228000D01*
X185863136Y-107151993D01*
X186296457Y-106862457D01*
X186352000Y-106779331D01*
X186407543Y-106862457D01*
X186840864Y-107151993D01*
X187222978Y-107228000D01*
X187481022Y-107228000D01*
X187863136Y-107151993D01*
X188296457Y-106862457D01*
X188585993Y-106429136D01*
X188687664Y-105918000D01*
X188585993Y-105406864D01*
X188296457Y-104973543D01*
X187863136Y-104684007D01*
X187481022Y-104608000D01*
X187222978Y-104608000D01*
X186840864Y-104684007D01*
X186407543Y-104973543D01*
X186352000Y-105056669D01*
X186296457Y-104973543D01*
X185863136Y-104684007D01*
X185481022Y-104608000D01*
X185222978Y-104608000D01*
X185076854Y-104637066D01*
X185000823Y-104561035D01*
X184961145Y-104501653D01*
X184725895Y-104344463D01*
X184518445Y-104303199D01*
X184518440Y-104303199D01*
X184448399Y-104289267D01*
X184378358Y-104303199D01*
X182988312Y-104303199D01*
X182918270Y-104289267D01*
X182848228Y-104303199D01*
X182848225Y-104303199D01*
X182640775Y-104344463D01*
X182640774Y-104344464D01*
X182640773Y-104344464D01*
X182464906Y-104461975D01*
X182464904Y-104461977D01*
X182405525Y-104501653D01*
X182365849Y-104561033D01*
X182090773Y-104836109D01*
X181863136Y-104684007D01*
X181481022Y-104608000D01*
X181222978Y-104608000D01*
X180840864Y-104684007D01*
X180407543Y-104973543D01*
X180352000Y-105056669D01*
X180296457Y-104973543D01*
X179863136Y-104684007D01*
X179481022Y-104608000D01*
X179222978Y-104608000D01*
X178840864Y-104684007D01*
X178407543Y-104973543D01*
X178352000Y-105056669D01*
X178296457Y-104973543D01*
X177863136Y-104684007D01*
X177481022Y-104608000D01*
X177222978Y-104608000D01*
X176840864Y-104684007D01*
X176407543Y-104973543D01*
X176352000Y-105056669D01*
X176296457Y-104973543D01*
X175863136Y-104684007D01*
X175481022Y-104608000D01*
X175222978Y-104608000D01*
X174840864Y-104684007D01*
X174407543Y-104973543D01*
X174352000Y-105056669D01*
X174296457Y-104973543D01*
X173863136Y-104684007D01*
X173481022Y-104608000D01*
X173222978Y-104608000D01*
X172840864Y-104684007D01*
X172407543Y-104973543D01*
X172352000Y-105056669D01*
X172296457Y-104973543D01*
X171863136Y-104684007D01*
X171481022Y-104608000D01*
X171222978Y-104608000D01*
X170840864Y-104684007D01*
X170407543Y-104973543D01*
X170352000Y-105056669D01*
X170296457Y-104973543D01*
X169863136Y-104684007D01*
X169481022Y-104608000D01*
X169222978Y-104608000D01*
X168840864Y-104684007D01*
X168407543Y-104973543D01*
X168352000Y-105056669D01*
X168296457Y-104973543D01*
X167863136Y-104684007D01*
X167481022Y-104608000D01*
X167222978Y-104608000D01*
X166840864Y-104684007D01*
X166407543Y-104973543D01*
X166352000Y-105056669D01*
X166296457Y-104973543D01*
X165863136Y-104684007D01*
X165481022Y-104608000D01*
X165222978Y-104608000D01*
X164840864Y-104684007D01*
X164407543Y-104973543D01*
X164352000Y-105056669D01*
X164296457Y-104973543D01*
X163863136Y-104684007D01*
X163481022Y-104608000D01*
X163222978Y-104608000D01*
X162840864Y-104684007D01*
X162407543Y-104973543D01*
X162352000Y-105056669D01*
X162296457Y-104973543D01*
X161863136Y-104684007D01*
X161481022Y-104608000D01*
X161222978Y-104608000D01*
X160840864Y-104684007D01*
X160407543Y-104973543D01*
X160352000Y-105056669D01*
X160296457Y-104973543D01*
X159863136Y-104684007D01*
X159481022Y-104608000D01*
X159222978Y-104608000D01*
X158840864Y-104684007D01*
X158407543Y-104973543D01*
X158352000Y-105056669D01*
X158296457Y-104973543D01*
X157863136Y-104684007D01*
X157481022Y-104608000D01*
X157222978Y-104608000D01*
X156840864Y-104684007D01*
X156407543Y-104973543D01*
X156352000Y-105056669D01*
X156296457Y-104973543D01*
X155863136Y-104684007D01*
X155481022Y-104608000D01*
X155222978Y-104608000D01*
X154840864Y-104684007D01*
X154407543Y-104973543D01*
X154352000Y-105056669D01*
X154296457Y-104973543D01*
X153863136Y-104684007D01*
X153481022Y-104608000D01*
X153222978Y-104608000D01*
X152840864Y-104684007D01*
X152407543Y-104973543D01*
X152352000Y-105056669D01*
X152296457Y-104973543D01*
X151863136Y-104684007D01*
X151481022Y-104608000D01*
X151222978Y-104608000D01*
X150840864Y-104684007D01*
X150547968Y-104879714D01*
X150484809Y-104785191D01*
X150274765Y-104644843D01*
X150027000Y-104595560D01*
X148677000Y-104595560D01*
X148429235Y-104644843D01*
X148219191Y-104785191D01*
X148078843Y-104995235D01*
X148029560Y-105243000D01*
X148029560Y-106593000D01*
X148078843Y-106840765D01*
X148219191Y-107050809D01*
X148405504Y-107175300D01*
X146512622Y-107175300D01*
X146333246Y-107101000D01*
X146020754Y-107101000D01*
X145732050Y-107220585D01*
X145511085Y-107441550D01*
X145443299Y-107605199D01*
X142327000Y-107605199D01*
X142327000Y-107539754D01*
X142207415Y-107251050D01*
X141996517Y-107040152D01*
X142262457Y-106862457D01*
X142318000Y-106779331D01*
X142373543Y-106862457D01*
X142806864Y-107151993D01*
X143188978Y-107228000D01*
X143447022Y-107228000D01*
X143829136Y-107151993D01*
X144262457Y-106862457D01*
X144318000Y-106779331D01*
X144373543Y-106862457D01*
X144806864Y-107151993D01*
X145188978Y-107228000D01*
X145447022Y-107228000D01*
X145829136Y-107151993D01*
X146262457Y-106862457D01*
X146551993Y-106429136D01*
X146653664Y-105918000D01*
X146551993Y-105406864D01*
X146262457Y-104973543D01*
X145829136Y-104684007D01*
X145447022Y-104608000D01*
X145188978Y-104608000D01*
X144806864Y-104684007D01*
X144373543Y-104973543D01*
X144318000Y-105056669D01*
X144262457Y-104973543D01*
X143829136Y-104684007D01*
X143447022Y-104608000D01*
X143188978Y-104608000D01*
X142806864Y-104684007D01*
X142373543Y-104973543D01*
X142318000Y-105056669D01*
X142262457Y-104973543D01*
X141829136Y-104684007D01*
X141447022Y-104608000D01*
X141188978Y-104608000D01*
X140806864Y-104684007D01*
X140373543Y-104973543D01*
X140318000Y-105056669D01*
X140262457Y-104973543D01*
X139829136Y-104684007D01*
X139447022Y-104608000D01*
X139188978Y-104608000D01*
X138806864Y-104684007D01*
X138373543Y-104973543D01*
X138318000Y-105056669D01*
X138262457Y-104973543D01*
X137829136Y-104684007D01*
X137447022Y-104608000D01*
X137188978Y-104608000D01*
X136806864Y-104684007D01*
X136373543Y-104973543D01*
X136318000Y-105056669D01*
X136262457Y-104973543D01*
X135829136Y-104684007D01*
X135447022Y-104608000D01*
X135188978Y-104608000D01*
X134806864Y-104684007D01*
X134373543Y-104973543D01*
X134318000Y-105056669D01*
X134262457Y-104973543D01*
X133829136Y-104684007D01*
X133447022Y-104608000D01*
X133188978Y-104608000D01*
X132806864Y-104684007D01*
X132513968Y-104879714D01*
X132450809Y-104785191D01*
X132240765Y-104644843D01*
X131993000Y-104595560D01*
X130643000Y-104595560D01*
X130395235Y-104644843D01*
X130185191Y-104785191D01*
X130044843Y-104995235D01*
X129995560Y-105243000D01*
X129995560Y-106593000D01*
X130044843Y-106840765D01*
X130185191Y-107050809D01*
X130395235Y-107191157D01*
X130643000Y-107240440D01*
X130793424Y-107240440D01*
X130805254Y-107258145D01*
X130864634Y-107297822D01*
X130968733Y-107401921D01*
X126857268Y-108442172D01*
X126838746Y-108434500D01*
X126526254Y-108434500D01*
X126237550Y-108554085D01*
X126016585Y-108775050D01*
X125897000Y-109063754D01*
X125897000Y-109376246D01*
X126016585Y-109664950D01*
X126237550Y-109885915D01*
X126526254Y-110005500D01*
X126838746Y-110005500D01*
X127127450Y-109885915D01*
X127187534Y-109825831D01*
X131715267Y-108680260D01*
X133927362Y-111098132D01*
X134017585Y-111315950D01*
X134238550Y-111536915D01*
X134527254Y-111656500D01*
X134839746Y-111656500D01*
X135128450Y-111536915D01*
X135349415Y-111315950D01*
X135469000Y-111027246D01*
X135469000Y-110714754D01*
X135393772Y-110533137D01*
X135508550Y-110647915D01*
X135797254Y-110767500D01*
X136109746Y-110767500D01*
X136398450Y-110647915D01*
X136619415Y-110426950D01*
X136739000Y-110138246D01*
X136739000Y-109825754D01*
X136619415Y-109537050D01*
X136398450Y-109316085D01*
X136109746Y-109196500D01*
X135797254Y-109196500D01*
X135508550Y-109316085D01*
X135287585Y-109537050D01*
X135168000Y-109825754D01*
X135168000Y-110138246D01*
X135243228Y-110319863D01*
X135128450Y-110205085D01*
X134983126Y-110144890D01*
X133567611Y-108597700D01*
X136125878Y-108597700D01*
X136305254Y-108672000D01*
X136617746Y-108672000D01*
X136906450Y-108552415D01*
X137127415Y-108331450D01*
X137247000Y-108042746D01*
X137247000Y-107730254D01*
X137127415Y-107441550D01*
X136906450Y-107220585D01*
X136617746Y-107101000D01*
X136305254Y-107101000D01*
X136125878Y-107175300D01*
X135711963Y-107175300D01*
X135829136Y-107151993D01*
X136262457Y-106862457D01*
X136318000Y-106779331D01*
X136373543Y-106862457D01*
X136806864Y-107151993D01*
X137188978Y-107228000D01*
X137447022Y-107228000D01*
X137593146Y-107198934D01*
X139163977Y-108769766D01*
X139203653Y-108829145D01*
X139263032Y-108868821D01*
X139263034Y-108868823D01*
X139438901Y-108986334D01*
X139438902Y-108986334D01*
X139438903Y-108986335D01*
X139646353Y-109027599D01*
X139646356Y-109027599D01*
X139716398Y-109041531D01*
X139786440Y-109027599D01*
X147991200Y-109027599D01*
X147991199Y-119162137D01*
X147860585Y-119292751D01*
X147781828Y-119482888D01*
X147758811Y-119478310D01*
X147692290Y-119464648D01*
X147690058Y-119464634D01*
X147617829Y-119450267D01*
X147549974Y-119463764D01*
X145295363Y-119449762D01*
X145542450Y-119347415D01*
X145763415Y-119126450D01*
X145883000Y-118837746D01*
X145883000Y-118525254D01*
X145808700Y-118345878D01*
X145808700Y-111610088D01*
X146506074Y-110912715D01*
X146685450Y-110838415D01*
X146906415Y-110617450D01*
X147026000Y-110328746D01*
X147026000Y-110016254D01*
X146906415Y-109727550D01*
X146685450Y-109506585D01*
X146396746Y-109387000D01*
X146084254Y-109387000D01*
X145795550Y-109506585D01*
X145574585Y-109727550D01*
X145500285Y-109906926D01*
X144644134Y-110763078D01*
X144584754Y-110802755D01*
X144545078Y-110862134D01*
X144545076Y-110862136D01*
X144473836Y-110968754D01*
X144427564Y-111038005D01*
X144386300Y-111245455D01*
X144386300Y-111245459D01*
X144372368Y-111315500D01*
X144386300Y-111385541D01*
X144386301Y-118345875D01*
X144312000Y-118525254D01*
X144312000Y-118837746D01*
X144431585Y-119126450D01*
X144652550Y-119347415D01*
X144893614Y-119447267D01*
X142345705Y-119431443D01*
X142307195Y-119419987D01*
X142205351Y-119430571D01*
X142174373Y-119430379D01*
X142135837Y-119437796D01*
X142025777Y-119449234D01*
X141997855Y-119464352D01*
X141966670Y-119470354D01*
X141874289Y-119531255D01*
X141776972Y-119583946D01*
X141756955Y-119608606D01*
X141730449Y-119626080D01*
X141668410Y-119717690D01*
X141643671Y-119748168D01*
X141629211Y-119775573D01*
X141571801Y-119860349D01*
X141563719Y-119899703D01*
X141271751Y-120453071D01*
X141026289Y-120085711D01*
X140993500Y-120063802D01*
X140993500Y-119978562D01*
X141550348Y-119421715D01*
X141729724Y-119347415D01*
X141950689Y-119126450D01*
X142070274Y-118837746D01*
X142070274Y-118525254D01*
X141950689Y-118236550D01*
X141729724Y-118015585D01*
X141441020Y-117896000D01*
X141128528Y-117896000D01*
X140839824Y-118015585D01*
X140618859Y-118236550D01*
X140544559Y-118415926D01*
X139754634Y-119205852D01*
X139695254Y-119245529D01*
X139655578Y-119304908D01*
X139655576Y-119304910D01*
X139589702Y-119403498D01*
X139538064Y-119480779D01*
X139524487Y-119549035D01*
X139422500Y-119795254D01*
X139422500Y-120063802D01*
X139389711Y-120085711D01*
X139138854Y-120461145D01*
X139050765Y-120904000D01*
X139138854Y-121346855D01*
X139267241Y-121539000D01*
X139138854Y-121731145D01*
X139053867Y-122158405D01*
X138937550Y-122206585D01*
X138716585Y-122427550D01*
X138597000Y-122716254D01*
X138597000Y-123028746D01*
X138716585Y-123317450D01*
X138937550Y-123538415D01*
X139081397Y-123597998D01*
X139138854Y-123886855D01*
X139275199Y-124090910D01*
X139220873Y-124153791D01*
X139113881Y-124412126D01*
X139240046Y-124587000D01*
X140081000Y-124587000D01*
X140081000Y-124575973D01*
X140096217Y-124579000D01*
X140319783Y-124579000D01*
X140335000Y-124575973D01*
X140335000Y-124587000D01*
X141175954Y-124587000D01*
X141302119Y-124412126D01*
X141195127Y-124153791D01*
X141140801Y-124090910D01*
X141277146Y-123886855D01*
X141365235Y-123444000D01*
X141327356Y-123253570D01*
X141367098Y-123232052D01*
X141388535Y-123205643D01*
X141416817Y-123186745D01*
X141477070Y-123096570D01*
X141500399Y-123067830D01*
X141515883Y-123038484D01*
X141574007Y-122951495D01*
X141581406Y-122914296D01*
X142347973Y-121461417D01*
X142442241Y-121602500D01*
X142313854Y-121794645D01*
X142225765Y-122237500D01*
X142313854Y-122680355D01*
X142442241Y-122872500D01*
X142313854Y-123064645D01*
X142225765Y-123507500D01*
X142313854Y-123950355D01*
X142442241Y-124142500D01*
X142313854Y-124334645D01*
X142225765Y-124777500D01*
X142313854Y-125220355D01*
X142325869Y-125238336D01*
X142284843Y-125299735D01*
X142235560Y-125547500D01*
X142235560Y-126381710D01*
X141355440Y-126381710D01*
X141355440Y-125484000D01*
X141306157Y-125236235D01*
X141247322Y-125148183D01*
X141302119Y-125015874D01*
X141175954Y-124841000D01*
X140730322Y-124841000D01*
X140708000Y-124836560D01*
X139708000Y-124836560D01*
X139685678Y-124841000D01*
X139240046Y-124841000D01*
X139113881Y-125015874D01*
X139168678Y-125148183D01*
X139109843Y-125236235D01*
X139060560Y-125484000D01*
X139060560Y-126381710D01*
X115054422Y-126381710D01*
X115014848Y-118842754D01*
X119991500Y-118842754D01*
X119991500Y-119155246D01*
X120111085Y-119443950D01*
X120332050Y-119664915D01*
X120620754Y-119784500D01*
X120933246Y-119784500D01*
X121221950Y-119664915D01*
X121442915Y-119443950D01*
X121517215Y-119264573D01*
X121614073Y-119167715D01*
X121793450Y-119093415D01*
X122014415Y-118872450D01*
X122134000Y-118583746D01*
X122134000Y-118271254D01*
X122014415Y-117982550D01*
X121793450Y-117761585D01*
X121504746Y-117642000D01*
X121192254Y-117642000D01*
X120903550Y-117761585D01*
X120682585Y-117982550D01*
X120608285Y-118161927D01*
X120511427Y-118258785D01*
X120332050Y-118333085D01*
X120111085Y-118554050D01*
X119991500Y-118842754D01*
X115014848Y-118842754D01*
X115001815Y-116360050D01*
X115156415Y-116205450D01*
X115276000Y-115916746D01*
X115276000Y-115604254D01*
X116753000Y-115604254D01*
X116753000Y-115916746D01*
X116872585Y-116205450D01*
X117093550Y-116426415D01*
X117151707Y-116450505D01*
X117134000Y-116493254D01*
X117134000Y-116805746D01*
X117253585Y-117094450D01*
X117474550Y-117315415D01*
X117763254Y-117435000D01*
X118075746Y-117435000D01*
X118364450Y-117315415D01*
X118585415Y-117094450D01*
X118705000Y-116805746D01*
X118705000Y-116789200D01*
X122963138Y-116789200D01*
X122849000Y-117064754D01*
X122849000Y-117377246D01*
X122968585Y-117665950D01*
X123189550Y-117886915D01*
X123478254Y-118006500D01*
X123790746Y-118006500D01*
X124079450Y-117886915D01*
X124300415Y-117665950D01*
X124374715Y-117486573D01*
X124593967Y-117267321D01*
X124653347Y-117227645D01*
X124693023Y-117168266D01*
X124693025Y-117168264D01*
X124784775Y-117030950D01*
X124810537Y-116992395D01*
X124851801Y-116784945D01*
X124851801Y-116784941D01*
X124865733Y-116714899D01*
X124851801Y-116644857D01*
X124851801Y-115966072D01*
X124865733Y-115896030D01*
X124851801Y-115825986D01*
X124851801Y-115825985D01*
X124810537Y-115618535D01*
X124807790Y-115614424D01*
X124693025Y-115442666D01*
X124693021Y-115442662D01*
X124653346Y-115383285D01*
X124593970Y-115343611D01*
X124537113Y-115286754D01*
X129580000Y-115286754D01*
X129580000Y-115599246D01*
X129699585Y-115887950D01*
X129920550Y-116108915D01*
X130099927Y-116183215D01*
X132224179Y-118307468D01*
X132263855Y-118366847D01*
X132323234Y-118406523D01*
X132323236Y-118406525D01*
X132361526Y-118432109D01*
X132303085Y-118490550D01*
X132183500Y-118779254D01*
X132183500Y-119091746D01*
X132303085Y-119380450D01*
X132524050Y-119601415D01*
X132812754Y-119721000D01*
X133125246Y-119721000D01*
X133296621Y-119650014D01*
X133350000Y-119660632D01*
X133420041Y-119646700D01*
X133420046Y-119646700D01*
X133627496Y-119605436D01*
X133862746Y-119448246D01*
X133902424Y-119388864D01*
X134060072Y-119231216D01*
X134239450Y-119156915D01*
X134460415Y-118935950D01*
X134580000Y-118647246D01*
X134580000Y-118565301D01*
X135430428Y-118565301D01*
X135500469Y-118579233D01*
X135570510Y-118565301D01*
X135570515Y-118565301D01*
X135777965Y-118524037D01*
X136013215Y-118366847D01*
X136052893Y-118307465D01*
X136660869Y-117699490D01*
X136720245Y-117659816D01*
X136759920Y-117600439D01*
X136759924Y-117600435D01*
X136869198Y-117436895D01*
X136877436Y-117424566D01*
X136918700Y-117217116D01*
X136918700Y-117217112D01*
X136932632Y-117147070D01*
X136918700Y-117077028D01*
X136918700Y-116604122D01*
X136993000Y-116424746D01*
X136993000Y-116112254D01*
X136873415Y-115823550D01*
X136652450Y-115602585D01*
X136363746Y-115483000D01*
X136051254Y-115483000D01*
X135762550Y-115602585D01*
X135541585Y-115823550D01*
X135422000Y-116112254D01*
X135422000Y-116424746D01*
X135436825Y-116460536D01*
X132502715Y-113526427D01*
X132428415Y-113347050D01*
X132207450Y-113126085D01*
X131918746Y-113006500D01*
X131606254Y-113006500D01*
X131317550Y-113126085D01*
X131096585Y-113347050D01*
X130977000Y-113635754D01*
X130977000Y-113948246D01*
X131096585Y-114236950D01*
X131317550Y-114457915D01*
X131496927Y-114532215D01*
X134107612Y-117142901D01*
X133071190Y-117142901D01*
X131157396Y-115229108D01*
X131214500Y-115091246D01*
X131214500Y-114778754D01*
X131094915Y-114490050D01*
X130873950Y-114269085D01*
X130585246Y-114149500D01*
X130272754Y-114149500D01*
X129984050Y-114269085D01*
X129763085Y-114490050D01*
X129643500Y-114778754D01*
X129643500Y-115091246D01*
X129652241Y-115112349D01*
X129580000Y-115286754D01*
X124537113Y-115286754D01*
X122715994Y-113465636D01*
X122676316Y-113406254D01*
X122441066Y-113249064D01*
X122398081Y-113240514D01*
X122406530Y-113232065D01*
X122526115Y-112943361D01*
X122526115Y-112630869D01*
X122406530Y-112342165D01*
X122185565Y-112121200D01*
X121896861Y-112001615D01*
X121584369Y-112001615D01*
X121295665Y-112121200D01*
X121074700Y-112342165D01*
X120955115Y-112630869D01*
X120955115Y-112943361D01*
X121064649Y-113207800D01*
X119588622Y-113207800D01*
X119409246Y-113133500D01*
X119096754Y-113133500D01*
X118808050Y-113253085D01*
X118587085Y-113474050D01*
X118467500Y-113762754D01*
X118467500Y-114075246D01*
X118587085Y-114363950D01*
X118808050Y-114584915D01*
X119096754Y-114704500D01*
X119409246Y-114704500D01*
X119588622Y-114630200D01*
X121868982Y-114630200D01*
X122605582Y-115366800D01*
X118876644Y-115366800D01*
X118903289Y-115302473D01*
X118903289Y-114989981D01*
X118783704Y-114701277D01*
X118562739Y-114480312D01*
X118274035Y-114360727D01*
X117961543Y-114360727D01*
X117672839Y-114480312D01*
X117451874Y-114701277D01*
X117332289Y-114989981D01*
X117332289Y-114995696D01*
X117093550Y-115094585D01*
X116872585Y-115315550D01*
X116753000Y-115604254D01*
X115276000Y-115604254D01*
X115156415Y-115315550D01*
X114995488Y-115154623D01*
X114978391Y-111897801D01*
X121280358Y-111897801D01*
X121350399Y-111911733D01*
X121420440Y-111897801D01*
X121420445Y-111897801D01*
X121627895Y-111856537D01*
X121863145Y-111699347D01*
X121902823Y-111639965D01*
X122376074Y-111166715D01*
X122555450Y-111092415D01*
X122776415Y-110871450D01*
X122850715Y-110692073D01*
X123768468Y-109774321D01*
X123827847Y-109734645D01*
X123867523Y-109675266D01*
X123867525Y-109675264D01*
X123985036Y-109499397D01*
X123985036Y-109499396D01*
X123985037Y-109499395D01*
X124026301Y-109291945D01*
X124026301Y-109291942D01*
X124040233Y-109221900D01*
X124026301Y-109151858D01*
X124026301Y-107427056D01*
X124111585Y-107632950D01*
X124332550Y-107853915D01*
X124621254Y-107973500D01*
X124933746Y-107973500D01*
X125222450Y-107853915D01*
X125443415Y-107632950D01*
X125563000Y-107344246D01*
X125563000Y-107031754D01*
X125443415Y-106743050D01*
X125222450Y-106522085D01*
X124933746Y-106402500D01*
X124621254Y-106402500D01*
X124332550Y-106522085D01*
X124111585Y-106743050D01*
X124026301Y-106948944D01*
X124026301Y-105768339D01*
X124040233Y-105698297D01*
X124026301Y-105628256D01*
X124026301Y-105628251D01*
X123985037Y-105420801D01*
X123898904Y-105291895D01*
X123867525Y-105244933D01*
X123867523Y-105244931D01*
X123827846Y-105185551D01*
X123768467Y-105145875D01*
X123765383Y-105142791D01*
X123725705Y-105083409D01*
X123490455Y-104926219D01*
X123384464Y-104905136D01*
X123156366Y-104810655D01*
X122843874Y-104810655D01*
X122555170Y-104930240D01*
X122334205Y-105151205D01*
X122214620Y-105439909D01*
X122214620Y-105733954D01*
X122195784Y-105779428D01*
X122133412Y-105841800D01*
X121943500Y-105841800D01*
X121943500Y-105571254D01*
X121823915Y-105282550D01*
X121602950Y-105061585D01*
X121314246Y-104942000D01*
X121001754Y-104942000D01*
X120822378Y-105016300D01*
X119652122Y-105016300D01*
X119472746Y-104942000D01*
X119160254Y-104942000D01*
X118871550Y-105061585D01*
X118650585Y-105282550D01*
X118531000Y-105571254D01*
X118531000Y-105883746D01*
X118650585Y-106172450D01*
X118871550Y-106393415D01*
X119160254Y-106513000D01*
X119472746Y-106513000D01*
X119652122Y-106438700D01*
X120372500Y-106438700D01*
X120372500Y-106709246D01*
X120492085Y-106997950D01*
X120713050Y-107218915D01*
X121001754Y-107338500D01*
X121314246Y-107338500D01*
X121493622Y-107264200D01*
X122357959Y-107264200D01*
X122428000Y-107278132D01*
X122498041Y-107264200D01*
X122498046Y-107264200D01*
X122603901Y-107243144D01*
X122603902Y-108927309D01*
X121844927Y-109686285D01*
X121665550Y-109760585D01*
X121444585Y-109981550D01*
X121370285Y-110160926D01*
X121055811Y-110475401D01*
X120102000Y-110475401D01*
X120102000Y-110270254D01*
X119982415Y-109981550D01*
X119761450Y-109760585D01*
X119472746Y-109641000D01*
X119160254Y-109641000D01*
X118871550Y-109760585D01*
X118650585Y-109981550D01*
X118531000Y-110270254D01*
X118531000Y-110475401D01*
X114970925Y-110475401D01*
X114938062Y-104215000D01*
X189405606Y-104215000D01*
X189285701Y-127116846D01*
X189285701Y-127116846D01*
G37*
X189285701Y-127116846D02*
X148901252Y-127193867D01*
X149537228Y-126557891D01*
X149764864Y-126709993D01*
X150146978Y-126786000D01*
X150405022Y-126786000D01*
X150551146Y-126756934D01*
X150627177Y-126832965D01*
X150666855Y-126892347D01*
X150902105Y-127049537D01*
X151109555Y-127090801D01*
X151109559Y-127090801D01*
X151179600Y-127104733D01*
X151249642Y-127090801D01*
X162639688Y-127090801D01*
X162709729Y-127104733D01*
X162779770Y-127090801D01*
X162779775Y-127090801D01*
X162987225Y-127049537D01*
X163222475Y-126892347D01*
X163262153Y-126832965D01*
X163537227Y-126557891D01*
X163764864Y-126709993D01*
X164146978Y-126786000D01*
X164405022Y-126786000D01*
X164787136Y-126709993D01*
X165220457Y-126420457D01*
X165276000Y-126337331D01*
X165331543Y-126420457D01*
X165764864Y-126709993D01*
X166146978Y-126786000D01*
X166405022Y-126786000D01*
X166787136Y-126709993D01*
X167220457Y-126420457D01*
X167276000Y-126337331D01*
X167331543Y-126420457D01*
X167764864Y-126709993D01*
X168146978Y-126786000D01*
X168405022Y-126786000D01*
X168787136Y-126709993D01*
X169220457Y-126420457D01*
X169276000Y-126337331D01*
X169331543Y-126420457D01*
X169764864Y-126709993D01*
X170146978Y-126786000D01*
X170405022Y-126786000D01*
X170787136Y-126709993D01*
X171220457Y-126420457D01*
X171276000Y-126337331D01*
X171331543Y-126420457D01*
X171764864Y-126709993D01*
X172146978Y-126786000D01*
X172405022Y-126786000D01*
X172787136Y-126709993D01*
X173220457Y-126420457D01*
X173276000Y-126337331D01*
X173331543Y-126420457D01*
X173764864Y-126709993D01*
X174146978Y-126786000D01*
X174405022Y-126786000D01*
X174787136Y-126709993D01*
X175080032Y-126514286D01*
X175143191Y-126608809D01*
X175353235Y-126749157D01*
X175601000Y-126798440D01*
X176951000Y-126798440D01*
X177198765Y-126749157D01*
X177408809Y-126608809D01*
X177549157Y-126398765D01*
X177598440Y-126151000D01*
X177598440Y-124801000D01*
X177549157Y-124553235D01*
X177408809Y-124343191D01*
X177198765Y-124202843D01*
X176951000Y-124153560D01*
X175601000Y-124153560D01*
X175353235Y-124202843D01*
X175143191Y-124343191D01*
X175080032Y-124437714D01*
X174787136Y-124242007D01*
X174405022Y-124166000D01*
X174146978Y-124166000D01*
X173764864Y-124242007D01*
X173331543Y-124531543D01*
X173276000Y-124614669D01*
X173220457Y-124531543D01*
X172787136Y-124242007D01*
X172405022Y-124166000D01*
X172146978Y-124166000D01*
X171980376Y-124199139D01*
X171878497Y-124131065D01*
X171671047Y-124089801D01*
X171671042Y-124089801D01*
X171601001Y-124075869D01*
X171530960Y-124089801D01*
X171323590Y-124089801D01*
X170377568Y-123143779D01*
X170497950Y-123093915D01*
X170718915Y-122872950D01*
X170838500Y-122584246D01*
X170838500Y-122447046D01*
X170849254Y-122451500D01*
X171161746Y-122451500D01*
X171450450Y-122331915D01*
X171671415Y-122110950D01*
X171745715Y-121931573D01*
X172093867Y-121583422D01*
X172153246Y-121543746D01*
X172192922Y-121484367D01*
X172192924Y-121484365D01*
X172302792Y-121319936D01*
X172310436Y-121308496D01*
X172351700Y-121101045D01*
X172351700Y-121101042D01*
X172365632Y-121031000D01*
X172351700Y-120960958D01*
X172351700Y-120938254D01*
X176824000Y-120938254D01*
X176824000Y-121250746D01*
X176943585Y-121539450D01*
X177164550Y-121760415D01*
X177453254Y-121880000D01*
X177765746Y-121880000D01*
X178054450Y-121760415D01*
X178275415Y-121539450D01*
X178395000Y-121250746D01*
X178395000Y-120938254D01*
X178275415Y-120649550D01*
X178054450Y-120428585D01*
X177765746Y-120309000D01*
X177453254Y-120309000D01*
X177164550Y-120428585D01*
X176943585Y-120649550D01*
X176824000Y-120938254D01*
X172351700Y-120938254D01*
X172351700Y-119992088D01*
X173437534Y-118906254D01*
X176951000Y-118906254D01*
X176951000Y-119218746D01*
X177070585Y-119507450D01*
X177291550Y-119728415D01*
X177580254Y-119848000D01*
X177892746Y-119848000D01*
X178181450Y-119728415D01*
X178402415Y-119507450D01*
X178522000Y-119218746D01*
X178522000Y-118906254D01*
X178402415Y-118617550D01*
X178181450Y-118396585D01*
X177892746Y-118277000D01*
X177580254Y-118277000D01*
X177291550Y-118396585D01*
X177070585Y-118617550D01*
X176951000Y-118906254D01*
X173437534Y-118906254D01*
X174115688Y-118228101D01*
X174416378Y-118228101D01*
X174595754Y-118302401D01*
X174908246Y-118302401D01*
X175196950Y-118182816D01*
X175417915Y-117961851D01*
X175537500Y-117673147D01*
X175537500Y-117360655D01*
X175417915Y-117071951D01*
X175196950Y-116850986D01*
X174908246Y-116731401D01*
X174659888Y-116731401D01*
X178510074Y-112881215D01*
X178689450Y-112806915D01*
X178910415Y-112585950D01*
X179030000Y-112297246D01*
X179030000Y-111984754D01*
X178910415Y-111696050D01*
X178745077Y-111530712D01*
X181847035Y-108428754D01*
X185523500Y-108428754D01*
X185523500Y-108741246D01*
X185643085Y-109029950D01*
X185864050Y-109250915D01*
X186152754Y-109370500D01*
X186465246Y-109370500D01*
X186753950Y-109250915D01*
X186974915Y-109029950D01*
X187094500Y-108741246D01*
X187094500Y-108428754D01*
X186974915Y-108140050D01*
X186753950Y-107919085D01*
X186465246Y-107799500D01*
X186152754Y-107799500D01*
X185864050Y-107919085D01*
X185643085Y-108140050D01*
X185523500Y-108428754D01*
X181847035Y-108428754D01*
X183076855Y-107198934D01*
X183222978Y-107228000D01*
X183481022Y-107228000D01*
X183863136Y-107151993D01*
X184296457Y-106862457D01*
X184352000Y-106779331D01*
X184407543Y-106862457D01*
X184840864Y-107151993D01*
X185222978Y-107228000D01*
X185481022Y-107228000D01*
X185863136Y-107151993D01*
X186296457Y-106862457D01*
X186352000Y-106779331D01*
X186407543Y-106862457D01*
X186840864Y-107151993D01*
X187222978Y-107228000D01*
X187481022Y-107228000D01*
X187863136Y-107151993D01*
X188296457Y-106862457D01*
X188585993Y-106429136D01*
X188687664Y-105918000D01*
X188585993Y-105406864D01*
X188296457Y-104973543D01*
X187863136Y-104684007D01*
X187481022Y-104608000D01*
X187222978Y-104608000D01*
X186840864Y-104684007D01*
X186407543Y-104973543D01*
X186352000Y-105056669D01*
X186296457Y-104973543D01*
X185863136Y-104684007D01*
X185481022Y-104608000D01*
X185222978Y-104608000D01*
X185076854Y-104637066D01*
X185000823Y-104561035D01*
X184961145Y-104501653D01*
X184725895Y-104344463D01*
X184518445Y-104303199D01*
X184518440Y-104303199D01*
X184448399Y-104289267D01*
X184378358Y-104303199D01*
X182988312Y-104303199D01*
X182918270Y-104289267D01*
X182848228Y-104303199D01*
X182848225Y-104303199D01*
X182640775Y-104344463D01*
X182640774Y-104344464D01*
X182640773Y-104344464D01*
X182464906Y-104461975D01*
X182464904Y-104461977D01*
X182405525Y-104501653D01*
X182365849Y-104561033D01*
X182090773Y-104836109D01*
X181863136Y-104684007D01*
X181481022Y-104608000D01*
X181222978Y-104608000D01*
X180840864Y-104684007D01*
X180407543Y-104973543D01*
X180352000Y-105056669D01*
X180296457Y-104973543D01*
X179863136Y-104684007D01*
X179481022Y-104608000D01*
X179222978Y-104608000D01*
X178840864Y-104684007D01*
X178407543Y-104973543D01*
X178352000Y-105056669D01*
X178296457Y-104973543D01*
X177863136Y-104684007D01*
X177481022Y-104608000D01*
X177222978Y-104608000D01*
X176840864Y-104684007D01*
X176407543Y-104973543D01*
X176352000Y-105056669D01*
X176296457Y-104973543D01*
X175863136Y-104684007D01*
X175481022Y-104608000D01*
X175222978Y-104608000D01*
X174840864Y-104684007D01*
X174407543Y-104973543D01*
X174352000Y-105056669D01*
X174296457Y-104973543D01*
X173863136Y-104684007D01*
X173481022Y-104608000D01*
X173222978Y-104608000D01*
X172840864Y-104684007D01*
X172407543Y-104973543D01*
X172352000Y-105056669D01*
X172296457Y-104973543D01*
X171863136Y-104684007D01*
X171481022Y-104608000D01*
X171222978Y-104608000D01*
X170840864Y-104684007D01*
X170407543Y-104973543D01*
X170352000Y-105056669D01*
X170296457Y-104973543D01*
X169863136Y-104684007D01*
X169481022Y-104608000D01*
X169222978Y-104608000D01*
X168840864Y-104684007D01*
X168407543Y-104973543D01*
X168352000Y-105056669D01*
X168296457Y-104973543D01*
X167863136Y-104684007D01*
X167481022Y-104608000D01*
X167222978Y-104608000D01*
X166840864Y-104684007D01*
X166407543Y-104973543D01*
X166352000Y-105056669D01*
X166296457Y-104973543D01*
X165863136Y-104684007D01*
X165481022Y-104608000D01*
X165222978Y-104608000D01*
X164840864Y-104684007D01*
X164407543Y-104973543D01*
X164352000Y-105056669D01*
X164296457Y-104973543D01*
X163863136Y-104684007D01*
X163481022Y-104608000D01*
X163222978Y-104608000D01*
X162840864Y-104684007D01*
X162407543Y-104973543D01*
X162352000Y-105056669D01*
X162296457Y-104973543D01*
X161863136Y-104684007D01*
X161481022Y-104608000D01*
X161222978Y-104608000D01*
X160840864Y-104684007D01*
X160407543Y-104973543D01*
X160352000Y-105056669D01*
X160296457Y-104973543D01*
X159863136Y-104684007D01*
X159481022Y-104608000D01*
X159222978Y-104608000D01*
X158840864Y-104684007D01*
X158407543Y-104973543D01*
X158352000Y-105056669D01*
X158296457Y-104973543D01*
X157863136Y-104684007D01*
X157481022Y-104608000D01*
X157222978Y-104608000D01*
X156840864Y-104684007D01*
X156407543Y-104973543D01*
X156352000Y-105056669D01*
X156296457Y-104973543D01*
X155863136Y-104684007D01*
X155481022Y-104608000D01*
X155222978Y-104608000D01*
X154840864Y-104684007D01*
X154407543Y-104973543D01*
X154352000Y-105056669D01*
X154296457Y-104973543D01*
X153863136Y-104684007D01*
X153481022Y-104608000D01*
X153222978Y-104608000D01*
X152840864Y-104684007D01*
X152407543Y-104973543D01*
X152352000Y-105056669D01*
X152296457Y-104973543D01*
X151863136Y-104684007D01*
X151481022Y-104608000D01*
X151222978Y-104608000D01*
X150840864Y-104684007D01*
X150547968Y-104879714D01*
X150484809Y-104785191D01*
X150274765Y-104644843D01*
X150027000Y-104595560D01*
X148677000Y-104595560D01*
X148429235Y-104644843D01*
X148219191Y-104785191D01*
X148078843Y-104995235D01*
X148029560Y-105243000D01*
X148029560Y-106593000D01*
X148078843Y-106840765D01*
X148219191Y-107050809D01*
X148405504Y-107175300D01*
X146512622Y-107175300D01*
X146333246Y-107101000D01*
X146020754Y-107101000D01*
X145732050Y-107220585D01*
X145511085Y-107441550D01*
X145443299Y-107605199D01*
X142327000Y-107605199D01*
X142327000Y-107539754D01*
X142207415Y-107251050D01*
X141996517Y-107040152D01*
X142262457Y-106862457D01*
X142318000Y-106779331D01*
X142373543Y-106862457D01*
X142806864Y-107151993D01*
X143188978Y-107228000D01*
X143447022Y-107228000D01*
X143829136Y-107151993D01*
X144262457Y-106862457D01*
X144318000Y-106779331D01*
X144373543Y-106862457D01*
X144806864Y-107151993D01*
X145188978Y-107228000D01*
X145447022Y-107228000D01*
X145829136Y-107151993D01*
X146262457Y-106862457D01*
X146551993Y-106429136D01*
X146653664Y-105918000D01*
X146551993Y-105406864D01*
X146262457Y-104973543D01*
X145829136Y-104684007D01*
X145447022Y-104608000D01*
X145188978Y-104608000D01*
X144806864Y-104684007D01*
X144373543Y-104973543D01*
X144318000Y-105056669D01*
X144262457Y-104973543D01*
X143829136Y-104684007D01*
X143447022Y-104608000D01*
X143188978Y-104608000D01*
X142806864Y-104684007D01*
X142373543Y-104973543D01*
X142318000Y-105056669D01*
X142262457Y-104973543D01*
X141829136Y-104684007D01*
X141447022Y-104608000D01*
X141188978Y-104608000D01*
X140806864Y-104684007D01*
X140373543Y-104973543D01*
X140318000Y-105056669D01*
X140262457Y-104973543D01*
X139829136Y-104684007D01*
X139447022Y-104608000D01*
X139188978Y-104608000D01*
X138806864Y-104684007D01*
X138373543Y-104973543D01*
X138318000Y-105056669D01*
X138262457Y-104973543D01*
X137829136Y-104684007D01*
X137447022Y-104608000D01*
X137188978Y-104608000D01*
X136806864Y-104684007D01*
X136373543Y-104973543D01*
X136318000Y-105056669D01*
X136262457Y-104973543D01*
X135829136Y-104684007D01*
X135447022Y-104608000D01*
X135188978Y-104608000D01*
X134806864Y-104684007D01*
X134373543Y-104973543D01*
X134318000Y-105056669D01*
X134262457Y-104973543D01*
X133829136Y-104684007D01*
X133447022Y-104608000D01*
X133188978Y-104608000D01*
X132806864Y-104684007D01*
X132513968Y-104879714D01*
X132450809Y-104785191D01*
X132240765Y-104644843D01*
X131993000Y-104595560D01*
X130643000Y-104595560D01*
X130395235Y-104644843D01*
X130185191Y-104785191D01*
X130044843Y-104995235D01*
X129995560Y-105243000D01*
X129995560Y-106593000D01*
X130044843Y-106840765D01*
X130185191Y-107050809D01*
X130395235Y-107191157D01*
X130643000Y-107240440D01*
X130793424Y-107240440D01*
X130805254Y-107258145D01*
X130864634Y-107297822D01*
X130968733Y-107401921D01*
X126857268Y-108442172D01*
X126838746Y-108434500D01*
X126526254Y-108434500D01*
X126237550Y-108554085D01*
X126016585Y-108775050D01*
X125897000Y-109063754D01*
X125897000Y-109376246D01*
X126016585Y-109664950D01*
X126237550Y-109885915D01*
X126526254Y-110005500D01*
X126838746Y-110005500D01*
X127127450Y-109885915D01*
X127187534Y-109825831D01*
X131715267Y-108680260D01*
X133927362Y-111098132D01*
X134017585Y-111315950D01*
X134238550Y-111536915D01*
X134527254Y-111656500D01*
X134839746Y-111656500D01*
X135128450Y-111536915D01*
X135349415Y-111315950D01*
X135469000Y-111027246D01*
X135469000Y-110714754D01*
X135393772Y-110533137D01*
X135508550Y-110647915D01*
X135797254Y-110767500D01*
X136109746Y-110767500D01*
X136398450Y-110647915D01*
X136619415Y-110426950D01*
X136739000Y-110138246D01*
X136739000Y-109825754D01*
X136619415Y-109537050D01*
X136398450Y-109316085D01*
X136109746Y-109196500D01*
X135797254Y-109196500D01*
X135508550Y-109316085D01*
X135287585Y-109537050D01*
X135168000Y-109825754D01*
X135168000Y-110138246D01*
X135243228Y-110319863D01*
X135128450Y-110205085D01*
X134983126Y-110144890D01*
X133567611Y-108597700D01*
X136125878Y-108597700D01*
X136305254Y-108672000D01*
X136617746Y-108672000D01*
X136906450Y-108552415D01*
X137127415Y-108331450D01*
X137247000Y-108042746D01*
X137247000Y-107730254D01*
X137127415Y-107441550D01*
X136906450Y-107220585D01*
X136617746Y-107101000D01*
X136305254Y-107101000D01*
X136125878Y-107175300D01*
X135711963Y-107175300D01*
X135829136Y-107151993D01*
X136262457Y-106862457D01*
X136318000Y-106779331D01*
X136373543Y-106862457D01*
X136806864Y-107151993D01*
X137188978Y-107228000D01*
X137447022Y-107228000D01*
X137593146Y-107198934D01*
X139163977Y-108769766D01*
X139203653Y-108829145D01*
X139263032Y-108868821D01*
X139263034Y-108868823D01*
X139438901Y-108986334D01*
X139438902Y-108986334D01*
X139438903Y-108986335D01*
X139646353Y-109027599D01*
X139646356Y-109027599D01*
X139716398Y-109041531D01*
X139786440Y-109027599D01*
X147991200Y-109027599D01*
X147991199Y-119162137D01*
X147860585Y-119292751D01*
X147781828Y-119482888D01*
X147758811Y-119478310D01*
X147692290Y-119464648D01*
X147690058Y-119464634D01*
X147617829Y-119450267D01*
X147549974Y-119463764D01*
X145295363Y-119449762D01*
X145542450Y-119347415D01*
X145763415Y-119126450D01*
X145883000Y-118837746D01*
X145883000Y-118525254D01*
X145808700Y-118345878D01*
X145808700Y-111610088D01*
X146506074Y-110912715D01*
X146685450Y-110838415D01*
X146906415Y-110617450D01*
X147026000Y-110328746D01*
X147026000Y-110016254D01*
X146906415Y-109727550D01*
X146685450Y-109506585D01*
X146396746Y-109387000D01*
X146084254Y-109387000D01*
X145795550Y-109506585D01*
X145574585Y-109727550D01*
X145500285Y-109906926D01*
X144644134Y-110763078D01*
X144584754Y-110802755D01*
X144545078Y-110862134D01*
X144545076Y-110862136D01*
X144473836Y-110968754D01*
X144427564Y-111038005D01*
X144386300Y-111245455D01*
X144386300Y-111245459D01*
X144372368Y-111315500D01*
X144386300Y-111385541D01*
X144386301Y-118345875D01*
X144312000Y-118525254D01*
X144312000Y-118837746D01*
X144431585Y-119126450D01*
X144652550Y-119347415D01*
X144893614Y-119447267D01*
X142345705Y-119431443D01*
X142307195Y-119419987D01*
X142205351Y-119430571D01*
X142174373Y-119430379D01*
X142135837Y-119437796D01*
X142025777Y-119449234D01*
X141997855Y-119464352D01*
X141966670Y-119470354D01*
X141874289Y-119531255D01*
X141776972Y-119583946D01*
X141756955Y-119608606D01*
X141730449Y-119626080D01*
X141668410Y-119717690D01*
X141643671Y-119748168D01*
X141629211Y-119775573D01*
X141571801Y-119860349D01*
X141563719Y-119899703D01*
X141271751Y-120453071D01*
X141026289Y-120085711D01*
X140993500Y-120063802D01*
X140993500Y-119978562D01*
X141550348Y-119421715D01*
X141729724Y-119347415D01*
X141950689Y-119126450D01*
X142070274Y-118837746D01*
X142070274Y-118525254D01*
X141950689Y-118236550D01*
X141729724Y-118015585D01*
X141441020Y-117896000D01*
X141128528Y-117896000D01*
X140839824Y-118015585D01*
X140618859Y-118236550D01*
X140544559Y-118415926D01*
X139754634Y-119205852D01*
X139695254Y-119245529D01*
X139655578Y-119304908D01*
X139655576Y-119304910D01*
X139589702Y-119403498D01*
X139538064Y-119480779D01*
X139524487Y-119549035D01*
X139422500Y-119795254D01*
X139422500Y-120063802D01*
X139389711Y-120085711D01*
X139138854Y-120461145D01*
X139050765Y-120904000D01*
X139138854Y-121346855D01*
X139267241Y-121539000D01*
X139138854Y-121731145D01*
X139053867Y-122158405D01*
X138937550Y-122206585D01*
X138716585Y-122427550D01*
X138597000Y-122716254D01*
X138597000Y-123028746D01*
X138716585Y-123317450D01*
X138937550Y-123538415D01*
X139081397Y-123597998D01*
X139138854Y-123886855D01*
X139275199Y-124090910D01*
X139220873Y-124153791D01*
X139113881Y-124412126D01*
X139240046Y-124587000D01*
X140081000Y-124587000D01*
X140081000Y-124575973D01*
X140096217Y-124579000D01*
X140319783Y-124579000D01*
X140335000Y-124575973D01*
X140335000Y-124587000D01*
X141175954Y-124587000D01*
X141302119Y-124412126D01*
X141195127Y-124153791D01*
X141140801Y-124090910D01*
X141277146Y-123886855D01*
X141365235Y-123444000D01*
X141327356Y-123253570D01*
X141367098Y-123232052D01*
X141388535Y-123205643D01*
X141416817Y-123186745D01*
X141477070Y-123096570D01*
X141500399Y-123067830D01*
X141515883Y-123038484D01*
X141574007Y-122951495D01*
X141581406Y-122914296D01*
X142347973Y-121461417D01*
X142442241Y-121602500D01*
X142313854Y-121794645D01*
X142225765Y-122237500D01*
X142313854Y-122680355D01*
X142442241Y-122872500D01*
X142313854Y-123064645D01*
X142225765Y-123507500D01*
X142313854Y-123950355D01*
X142442241Y-124142500D01*
X142313854Y-124334645D01*
X142225765Y-124777500D01*
X142313854Y-125220355D01*
X142325869Y-125238336D01*
X142284843Y-125299735D01*
X142235560Y-125547500D01*
X142235560Y-126381710D01*
X141355440Y-126381710D01*
X141355440Y-125484000D01*
X141306157Y-125236235D01*
X141247322Y-125148183D01*
X141302119Y-125015874D01*
X141175954Y-124841000D01*
X140730322Y-124841000D01*
X140708000Y-124836560D01*
X139708000Y-124836560D01*
X139685678Y-124841000D01*
X139240046Y-124841000D01*
X139113881Y-125015874D01*
X139168678Y-125148183D01*
X139109843Y-125236235D01*
X139060560Y-125484000D01*
X139060560Y-126381710D01*
X115054422Y-126381710D01*
X115014848Y-118842754D01*
X119991500Y-118842754D01*
X119991500Y-119155246D01*
X120111085Y-119443950D01*
X120332050Y-119664915D01*
X120620754Y-119784500D01*
X120933246Y-119784500D01*
X121221950Y-119664915D01*
X121442915Y-119443950D01*
X121517215Y-119264573D01*
X121614073Y-119167715D01*
X121793450Y-119093415D01*
X122014415Y-118872450D01*
X122134000Y-118583746D01*
X122134000Y-118271254D01*
X122014415Y-117982550D01*
X121793450Y-117761585D01*
X121504746Y-117642000D01*
X121192254Y-117642000D01*
X120903550Y-117761585D01*
X120682585Y-117982550D01*
X120608285Y-118161927D01*
X120511427Y-118258785D01*
X120332050Y-118333085D01*
X120111085Y-118554050D01*
X119991500Y-118842754D01*
X115014848Y-118842754D01*
X115001815Y-116360050D01*
X115156415Y-116205450D01*
X115276000Y-115916746D01*
X115276000Y-115604254D01*
X116753000Y-115604254D01*
X116753000Y-115916746D01*
X116872585Y-116205450D01*
X117093550Y-116426415D01*
X117151707Y-116450505D01*
X117134000Y-116493254D01*
X117134000Y-116805746D01*
X117253585Y-117094450D01*
X117474550Y-117315415D01*
X117763254Y-117435000D01*
X118075746Y-117435000D01*
X118364450Y-117315415D01*
X118585415Y-117094450D01*
X118705000Y-116805746D01*
X118705000Y-116789200D01*
X122963138Y-116789200D01*
X122849000Y-117064754D01*
X122849000Y-117377246D01*
X122968585Y-117665950D01*
X123189550Y-117886915D01*
X123478254Y-118006500D01*
X123790746Y-118006500D01*
X124079450Y-117886915D01*
X124300415Y-117665950D01*
X124374715Y-117486573D01*
X124593967Y-117267321D01*
X124653347Y-117227645D01*
X124693023Y-117168266D01*
X124693025Y-117168264D01*
X124784775Y-117030950D01*
X124810537Y-116992395D01*
X124851801Y-116784945D01*
X124851801Y-116784941D01*
X124865733Y-116714899D01*
X124851801Y-116644857D01*
X124851801Y-115966072D01*
X124865733Y-115896030D01*
X124851801Y-115825986D01*
X124851801Y-115825985D01*
X124810537Y-115618535D01*
X124807790Y-115614424D01*
X124693025Y-115442666D01*
X124693021Y-115442662D01*
X124653346Y-115383285D01*
X124593970Y-115343611D01*
X124537113Y-115286754D01*
X129580000Y-115286754D01*
X129580000Y-115599246D01*
X129699585Y-115887950D01*
X129920550Y-116108915D01*
X130099927Y-116183215D01*
X132224179Y-118307468D01*
X132263855Y-118366847D01*
X132323234Y-118406523D01*
X132323236Y-118406525D01*
X132361526Y-118432109D01*
X132303085Y-118490550D01*
X132183500Y-118779254D01*
X132183500Y-119091746D01*
X132303085Y-119380450D01*
X132524050Y-119601415D01*
X132812754Y-119721000D01*
X133125246Y-119721000D01*
X133296621Y-119650014D01*
X133350000Y-119660632D01*
X133420041Y-119646700D01*
X133420046Y-119646700D01*
X133627496Y-119605436D01*
X133862746Y-119448246D01*
X133902424Y-119388864D01*
X134060072Y-119231216D01*
X134239450Y-119156915D01*
X134460415Y-118935950D01*
X134580000Y-118647246D01*
X134580000Y-118565301D01*
X135430428Y-118565301D01*
X135500469Y-118579233D01*
X135570510Y-118565301D01*
X135570515Y-118565301D01*
X135777965Y-118524037D01*
X136013215Y-118366847D01*
X136052893Y-118307465D01*
X136660869Y-117699490D01*
X136720245Y-117659816D01*
X136759920Y-117600439D01*
X136759924Y-117600435D01*
X136869198Y-117436895D01*
X136877436Y-117424566D01*
X136918700Y-117217116D01*
X136918700Y-117217112D01*
X136932632Y-117147070D01*
X136918700Y-117077028D01*
X136918700Y-116604122D01*
X136993000Y-116424746D01*
X136993000Y-116112254D01*
X136873415Y-115823550D01*
X136652450Y-115602585D01*
X136363746Y-115483000D01*
X136051254Y-115483000D01*
X135762550Y-115602585D01*
X135541585Y-115823550D01*
X135422000Y-116112254D01*
X135422000Y-116424746D01*
X135436825Y-116460536D01*
X132502715Y-113526427D01*
X132428415Y-113347050D01*
X132207450Y-113126085D01*
X131918746Y-113006500D01*
X131606254Y-113006500D01*
X131317550Y-113126085D01*
X131096585Y-113347050D01*
X130977000Y-113635754D01*
X130977000Y-113948246D01*
X131096585Y-114236950D01*
X131317550Y-114457915D01*
X131496927Y-114532215D01*
X134107612Y-117142901D01*
X133071190Y-117142901D01*
X131157396Y-115229108D01*
X131214500Y-115091246D01*
X131214500Y-114778754D01*
X131094915Y-114490050D01*
X130873950Y-114269085D01*
X130585246Y-114149500D01*
X130272754Y-114149500D01*
X129984050Y-114269085D01*
X129763085Y-114490050D01*
X129643500Y-114778754D01*
X129643500Y-115091246D01*
X129652241Y-115112349D01*
X129580000Y-115286754D01*
X124537113Y-115286754D01*
X122715994Y-113465636D01*
X122676316Y-113406254D01*
X122441066Y-113249064D01*
X122398081Y-113240514D01*
X122406530Y-113232065D01*
X122526115Y-112943361D01*
X122526115Y-112630869D01*
X122406530Y-112342165D01*
X122185565Y-112121200D01*
X121896861Y-112001615D01*
X121584369Y-112001615D01*
X121295665Y-112121200D01*
X121074700Y-112342165D01*
X120955115Y-112630869D01*
X120955115Y-112943361D01*
X121064649Y-113207800D01*
X119588622Y-113207800D01*
X119409246Y-113133500D01*
X119096754Y-113133500D01*
X118808050Y-113253085D01*
X118587085Y-113474050D01*
X118467500Y-113762754D01*
X118467500Y-114075246D01*
X118587085Y-114363950D01*
X118808050Y-114584915D01*
X119096754Y-114704500D01*
X119409246Y-114704500D01*
X119588622Y-114630200D01*
X121868982Y-114630200D01*
X122605582Y-115366800D01*
X118876644Y-115366800D01*
X118903289Y-115302473D01*
X118903289Y-114989981D01*
X118783704Y-114701277D01*
X118562739Y-114480312D01*
X118274035Y-114360727D01*
X117961543Y-114360727D01*
X117672839Y-114480312D01*
X117451874Y-114701277D01*
X117332289Y-114989981D01*
X117332289Y-114995696D01*
X117093550Y-115094585D01*
X116872585Y-115315550D01*
X116753000Y-115604254D01*
X115276000Y-115604254D01*
X115156415Y-115315550D01*
X114995488Y-115154623D01*
X114978391Y-111897801D01*
X121280358Y-111897801D01*
X121350399Y-111911733D01*
X121420440Y-111897801D01*
X121420445Y-111897801D01*
X121627895Y-111856537D01*
X121863145Y-111699347D01*
X121902823Y-111639965D01*
X122376074Y-111166715D01*
X122555450Y-111092415D01*
X122776415Y-110871450D01*
X122850715Y-110692073D01*
X123768468Y-109774321D01*
X123827847Y-109734645D01*
X123867523Y-109675266D01*
X123867525Y-109675264D01*
X123985036Y-109499397D01*
X123985036Y-109499396D01*
X123985037Y-109499395D01*
X124026301Y-109291945D01*
X124026301Y-109291942D01*
X124040233Y-109221900D01*
X124026301Y-109151858D01*
X124026301Y-107427056D01*
X124111585Y-107632950D01*
X124332550Y-107853915D01*
X124621254Y-107973500D01*
X124933746Y-107973500D01*
X125222450Y-107853915D01*
X125443415Y-107632950D01*
X125563000Y-107344246D01*
X125563000Y-107031754D01*
X125443415Y-106743050D01*
X125222450Y-106522085D01*
X124933746Y-106402500D01*
X124621254Y-106402500D01*
X124332550Y-106522085D01*
X124111585Y-106743050D01*
X124026301Y-106948944D01*
X124026301Y-105768339D01*
X124040233Y-105698297D01*
X124026301Y-105628256D01*
X124026301Y-105628251D01*
X123985037Y-105420801D01*
X123898904Y-105291895D01*
X123867525Y-105244933D01*
X123867523Y-105244931D01*
X123827846Y-105185551D01*
X123768467Y-105145875D01*
X123765383Y-105142791D01*
X123725705Y-105083409D01*
X123490455Y-104926219D01*
X123384464Y-104905136D01*
X123156366Y-104810655D01*
X122843874Y-104810655D01*
X122555170Y-104930240D01*
X122334205Y-105151205D01*
X122214620Y-105439909D01*
X122214620Y-105733954D01*
X122195784Y-105779428D01*
X122133412Y-105841800D01*
X121943500Y-105841800D01*
X121943500Y-105571254D01*
X121823915Y-105282550D01*
X121602950Y-105061585D01*
X121314246Y-104942000D01*
X121001754Y-104942000D01*
X120822378Y-105016300D01*
X119652122Y-105016300D01*
X119472746Y-104942000D01*
X119160254Y-104942000D01*
X118871550Y-105061585D01*
X118650585Y-105282550D01*
X118531000Y-105571254D01*
X118531000Y-105883746D01*
X118650585Y-106172450D01*
X118871550Y-106393415D01*
X119160254Y-106513000D01*
X119472746Y-106513000D01*
X119652122Y-106438700D01*
X120372500Y-106438700D01*
X120372500Y-106709246D01*
X120492085Y-106997950D01*
X120713050Y-107218915D01*
X121001754Y-107338500D01*
X121314246Y-107338500D01*
X121493622Y-107264200D01*
X122357959Y-107264200D01*
X122428000Y-107278132D01*
X122498041Y-107264200D01*
X122498046Y-107264200D01*
X122603901Y-107243144D01*
X122603902Y-108927309D01*
X121844927Y-109686285D01*
X121665550Y-109760585D01*
X121444585Y-109981550D01*
X121370285Y-110160926D01*
X121055811Y-110475401D01*
X120102000Y-110475401D01*
X120102000Y-110270254D01*
X119982415Y-109981550D01*
X119761450Y-109760585D01*
X119472746Y-109641000D01*
X119160254Y-109641000D01*
X118871550Y-109760585D01*
X118650585Y-109981550D01*
X118531000Y-110270254D01*
X118531000Y-110475401D01*
X114970925Y-110475401D01*
X114938062Y-104215000D01*
X189405606Y-104215000D01*
X189285701Y-127116846D01*
G36*
X152546325Y-124194107D02*
X152405022Y-124166000D01*
X152146978Y-124166000D01*
X151764864Y-124242007D01*
X151331543Y-124531543D01*
X151276000Y-124614669D01*
X151220457Y-124531543D01*
X151021712Y-124398746D01*
X154077547Y-121342911D01*
X154114050Y-121379414D01*
X154402754Y-121498999D01*
X154715246Y-121498999D01*
X155003950Y-121379414D01*
X155224915Y-121158449D01*
X155271659Y-121045599D01*
X155530461Y-121045599D01*
X152546325Y-124194107D01*
X152546325Y-124194107D01*
G37*
X152546325Y-124194107D02*
X152405022Y-124166000D01*
X152146978Y-124166000D01*
X151764864Y-124242007D01*
X151331543Y-124531543D01*
X151276000Y-124614669D01*
X151220457Y-124531543D01*
X151021712Y-124398746D01*
X154077547Y-121342911D01*
X154114050Y-121379414D01*
X154402754Y-121498999D01*
X154715246Y-121498999D01*
X155003950Y-121379414D01*
X155224915Y-121158449D01*
X155271659Y-121045599D01*
X155530461Y-121045599D01*
X152546325Y-124194107D01*
G36*
X154427611Y-115874800D02*
X151767489Y-115874800D01*
X151776574Y-115865715D01*
X151955950Y-115791415D01*
X152176915Y-115570450D01*
X152296500Y-115281746D01*
X152296500Y-114969254D01*
X152176915Y-114680550D01*
X151955950Y-114459585D01*
X151667246Y-114340000D01*
X151354754Y-114340000D01*
X151066050Y-114459585D01*
X150845085Y-114680550D01*
X150770785Y-114859926D01*
X149724134Y-115906578D01*
X149664755Y-115946254D01*
X149625079Y-116005633D01*
X149625076Y-116005636D01*
X149534295Y-116141500D01*
X149507565Y-116181504D01*
X149466300Y-116388954D01*
X149466300Y-116388959D01*
X149452368Y-116459000D01*
X149466300Y-116529041D01*
X149466300Y-116821878D01*
X149413599Y-116949109D01*
X149413599Y-110860787D01*
X154427611Y-115874800D01*
X154427611Y-115874800D01*
G37*
X154427611Y-115874800D02*
X151767489Y-115874800D01*
X151776574Y-115865715D01*
X151955950Y-115791415D01*
X152176915Y-115570450D01*
X152296500Y-115281746D01*
X152296500Y-114969254D01*
X152176915Y-114680550D01*
X151955950Y-114459585D01*
X151667246Y-114340000D01*
X151354754Y-114340000D01*
X151066050Y-114459585D01*
X150845085Y-114680550D01*
X150770785Y-114859926D01*
X149724134Y-115906578D01*
X149664755Y-115946254D01*
X149625079Y-116005633D01*
X149625076Y-116005636D01*
X149534295Y-116141500D01*
X149507565Y-116181504D01*
X149466300Y-116388954D01*
X149466300Y-116388959D01*
X149452368Y-116459000D01*
X149466300Y-116529041D01*
X149466300Y-116821878D01*
X149413599Y-116949109D01*
X149413599Y-110860787D01*
X154427611Y-115874800D01*
G36*
X163753801Y-115102000D02*
X163483254Y-115102000D01*
X163253754Y-115197062D01*
X163162655Y-115159328D01*
X163144255Y-115039726D01*
X163322450Y-114965915D01*
X163543415Y-114744950D01*
X163648036Y-114492372D01*
X163753801Y-114421702D01*
X163753801Y-115102000D01*
X163753801Y-115102000D01*
G37*
X163753801Y-115102000D02*
X163483254Y-115102000D01*
X163253754Y-115197062D01*
X163162655Y-115159328D01*
X163144255Y-115039726D01*
X163322450Y-114965915D01*
X163543415Y-114744950D01*
X163648036Y-114492372D01*
X163753801Y-114421702D01*
X163753801Y-115102000D01*
M02*
