G04 #@! TF.GenerationSoftware,KiCad,Pcbnew,6.0.0-rc1-unknown-994a9c5~65~ubuntu16.04.1*
G04 #@! TF.CreationDate,2018-07-26T22:21:31+02:00*
G04 #@! TF.ProjectId,roboy_sno,726F626F795F736E6F2E6B696361645F,rev?*
G04 #@! TF.SameCoordinates,Original*
G04 #@! TF.FileFunction,Copper,L4,Bot,Signal*
G04 #@! TF.FilePolarity,Positive*
%FSLAX46Y46*%
G04 Gerber Fmt 4.6, Leading zero omitted, Abs format (unit mm)*
G04 Created by KiCad (PCBNEW 6.0.0-rc1-unknown-994a9c5~65~ubuntu16.04.1) date Thu Jul 26 22:21:31 2018*
%MOMM*%
%LPD*%
G01*
G04 APERTURE LIST*
G04 #@! TA.AperFunction,ComponentPad*
%ADD10R,1.700000X1.700000*%
G04 #@! TD*
G04 #@! TA.AperFunction,ComponentPad*
%ADD11O,1.700000X1.700000*%
G04 #@! TD*
G04 #@! TA.AperFunction,ViaPad*
%ADD12C,0.301000*%
G04 #@! TD*
G04 #@! TA.AperFunction,Conductor*
%ADD13C,0.152400*%
G04 #@! TD*
G04 #@! TA.AperFunction,Conductor*
%ADD14C,0.254000*%
G04 #@! TD*
G04 APERTURE END LIST*
D10*
G04 #@! TO.P,J4,1*
G04 #@! TO.N,/TDI*
X157010000Y-111640000D03*
D11*
G04 #@! TO.P,J4,2*
G04 #@! TO.N,GND*
X157010000Y-114180000D03*
G04 #@! TO.P,J4,3*
G04 #@! TO.N,Net-(J4-Pad3)*
X159550000Y-111640000D03*
G04 #@! TO.P,J4,4*
G04 #@! TO.N,Net-(J4-Pad4)*
X159550000Y-114180000D03*
G04 #@! TO.P,J4,5*
G04 #@! TO.N,/TMS*
X162090000Y-111640000D03*
G04 #@! TO.P,J4,6*
G04 #@! TO.N,Net-(J4-Pad6)*
X162090000Y-114180000D03*
G04 #@! TO.P,J4,7*
G04 #@! TO.N,/TDO*
X164630000Y-111640000D03*
G04 #@! TO.P,J4,8*
G04 #@! TO.N,3.3V*
X164630000Y-114180000D03*
G04 #@! TO.P,J4,9*
G04 #@! TO.N,/TCK*
X167170000Y-111640000D03*
G04 #@! TO.P,J4,10*
G04 #@! TO.N,GND*
X167170000Y-114180000D03*
G04 #@! TD*
D10*
G04 #@! TO.P,J5,1*
G04 #@! TO.N,/ESP8266-12E/ADC*
X194750000Y-114250000D03*
D11*
G04 #@! TO.P,J5,2*
G04 #@! TO.N,/ESP8266-12E/GPIO2*
X194750000Y-111710000D03*
G04 #@! TO.P,J5,3*
G04 #@! TO.N,/ESP8266-12E/GPIO16*
X192210000Y-114250000D03*
G04 #@! TO.P,J5,4*
G04 #@! TO.N,/ESP8266-12E/GPIO4*
X192210000Y-111710000D03*
G04 #@! TO.P,J5,5*
G04 #@! TO.N,/ESP8266-12E/GPIO15*
X189670000Y-114250000D03*
G04 #@! TO.P,J5,6*
G04 #@! TO.N,/ESP8266-12E/GPIO5*
X189670000Y-111710000D03*
G04 #@! TO.P,J5,7*
G04 #@! TO.N,/ESP8266-12E/GPIO14*
X187130000Y-114250000D03*
G04 #@! TO.P,J5,8*
G04 #@! TO.N,/ESP8266-12E/GPIO9*
X187130000Y-111710000D03*
G04 #@! TO.P,J5,9*
G04 #@! TO.N,/ESP8266-12E/GPIO13*
X184590000Y-114250000D03*
G04 #@! TO.P,J5,10*
G04 #@! TO.N,/ESP8266-12E/GPIO10*
X184590000Y-111710000D03*
G04 #@! TO.P,J5,11*
G04 #@! TO.N,Net-(J5-Pad11)*
X182050000Y-114250000D03*
G04 #@! TO.P,J5,12*
G04 #@! TO.N,/ESP8266-12E/GPIO12*
X182050000Y-111710000D03*
G04 #@! TD*
D10*
G04 #@! TO.P,J1,1*
G04 #@! TO.N,/D0*
X152510000Y-114250000D03*
D11*
G04 #@! TO.P,J1,2*
G04 #@! TO.N,/E0*
X152510000Y-111710000D03*
G04 #@! TO.P,J1,3*
G04 #@! TO.N,/D1*
X149970000Y-114250000D03*
G04 #@! TO.P,J1,4*
G04 #@! TO.N,/E1*
X149970000Y-111710000D03*
G04 #@! TO.P,J1,5*
G04 #@! TO.N,/D2*
X147430000Y-114250000D03*
G04 #@! TO.P,J1,6*
G04 #@! TO.N,/E2*
X147430000Y-111710000D03*
G04 #@! TO.P,J1,7*
G04 #@! TO.N,/D3*
X144890000Y-114250000D03*
G04 #@! TO.P,J1,8*
G04 #@! TO.N,/E3*
X144890000Y-111710000D03*
G04 #@! TO.P,J1,9*
G04 #@! TO.N,/D4*
X142350000Y-114250000D03*
G04 #@! TO.P,J1,10*
G04 #@! TO.N,/E4*
X142350000Y-111710000D03*
G04 #@! TO.P,J1,11*
G04 #@! TO.N,/D5*
X139810000Y-114250000D03*
G04 #@! TO.P,J1,12*
G04 #@! TO.N,/E5*
X139810000Y-111710000D03*
G04 #@! TO.P,J1,13*
G04 #@! TO.N,/D6*
X137270000Y-114250000D03*
G04 #@! TO.P,J1,14*
G04 #@! TO.N,/E6*
X137270000Y-111710000D03*
G04 #@! TO.P,J1,15*
G04 #@! TO.N,/D7*
X134730000Y-114250000D03*
G04 #@! TO.P,J1,16*
G04 #@! TO.N,/E7*
X134730000Y-111710000D03*
G04 #@! TO.P,J1,17*
G04 #@! TO.N,/D8*
X132190000Y-114250000D03*
G04 #@! TO.P,J1,18*
G04 #@! TO.N,/E8*
X132190000Y-111710000D03*
G04 #@! TO.P,J1,19*
G04 #@! TO.N,/D9*
X129650000Y-114250000D03*
G04 #@! TO.P,J1,20*
G04 #@! TO.N,/E9*
X129650000Y-111710000D03*
G04 #@! TO.P,J1,21*
G04 #@! TO.N,/D10*
X127110000Y-114250000D03*
G04 #@! TO.P,J1,22*
G04 #@! TO.N,/E10*
X127110000Y-111710000D03*
G04 #@! TO.P,J1,23*
G04 #@! TO.N,/D11*
X124570000Y-114250000D03*
G04 #@! TO.P,J1,24*
G04 #@! TO.N,/E11*
X124570000Y-111710000D03*
G04 #@! TO.P,J1,25*
G04 #@! TO.N,/D12*
X122030000Y-114250000D03*
G04 #@! TO.P,J1,26*
G04 #@! TO.N,/E12*
X122030000Y-111710000D03*
G04 #@! TO.P,J1,27*
G04 #@! TO.N,/D13*
X119490000Y-114250000D03*
G04 #@! TO.P,J1,28*
G04 #@! TO.N,/E13*
X119490000Y-111710000D03*
G04 #@! TO.P,J1,29*
G04 #@! TO.N,/D14*
X116950000Y-114250000D03*
G04 #@! TO.P,J1,30*
G04 #@! TO.N,/E14*
X116950000Y-111710000D03*
G04 #@! TO.P,J1,31*
G04 #@! TO.N,/D15*
X114410000Y-114250000D03*
G04 #@! TO.P,J1,32*
G04 #@! TO.N,/E15*
X114410000Y-111710000D03*
G04 #@! TD*
G04 #@! TO.P,J2,32*
G04 #@! TO.N,3.3V*
X114400000Y-137210000D03*
G04 #@! TO.P,J2,31*
G04 #@! TO.N,GND*
X114400000Y-139750000D03*
G04 #@! TO.P,J2,30*
G04 #@! TO.N,3.3V*
X116940000Y-137210000D03*
G04 #@! TO.P,J2,29*
G04 #@! TO.N,GND*
X116940000Y-139750000D03*
G04 #@! TO.P,J2,28*
G04 #@! TO.N,3.3V*
X119480000Y-137210000D03*
G04 #@! TO.P,J2,27*
G04 #@! TO.N,GND*
X119480000Y-139750000D03*
G04 #@! TO.P,J2,26*
G04 #@! TO.N,3.3V*
X122020000Y-137210000D03*
G04 #@! TO.P,J2,25*
G04 #@! TO.N,GND*
X122020000Y-139750000D03*
G04 #@! TO.P,J2,24*
G04 #@! TO.N,3.3V*
X124560000Y-137210000D03*
G04 #@! TO.P,J2,23*
G04 #@! TO.N,GND*
X124560000Y-139750000D03*
G04 #@! TO.P,J2,22*
G04 #@! TO.N,/E42*
X127100000Y-137210000D03*
G04 #@! TO.P,J2,21*
G04 #@! TO.N,/D42*
X127100000Y-139750000D03*
G04 #@! TO.P,J2,20*
G04 #@! TO.N,/E41*
X129640000Y-137210000D03*
G04 #@! TO.P,J2,19*
G04 #@! TO.N,/D41*
X129640000Y-139750000D03*
G04 #@! TO.P,J2,18*
G04 #@! TO.N,/E40*
X132180000Y-137210000D03*
G04 #@! TO.P,J2,17*
G04 #@! TO.N,/D40*
X132180000Y-139750000D03*
G04 #@! TO.P,J2,16*
G04 #@! TO.N,/E39*
X134720000Y-137210000D03*
G04 #@! TO.P,J2,15*
G04 #@! TO.N,/D39*
X134720000Y-139750000D03*
G04 #@! TO.P,J2,14*
G04 #@! TO.N,/E38*
X137260000Y-137210000D03*
G04 #@! TO.P,J2,13*
G04 #@! TO.N,/D38*
X137260000Y-139750000D03*
G04 #@! TO.P,J2,12*
G04 #@! TO.N,/E37*
X139800000Y-137210000D03*
G04 #@! TO.P,J2,11*
G04 #@! TO.N,/D37*
X139800000Y-139750000D03*
G04 #@! TO.P,J2,10*
G04 #@! TO.N,/E36*
X142340000Y-137210000D03*
G04 #@! TO.P,J2,9*
G04 #@! TO.N,/D36*
X142340000Y-139750000D03*
G04 #@! TO.P,J2,8*
G04 #@! TO.N,/E35*
X144880000Y-137210000D03*
G04 #@! TO.P,J2,7*
G04 #@! TO.N,/D35*
X144880000Y-139750000D03*
G04 #@! TO.P,J2,6*
G04 #@! TO.N,/E34*
X147420000Y-137210000D03*
G04 #@! TO.P,J2,5*
G04 #@! TO.N,/D34*
X147420000Y-139750000D03*
G04 #@! TO.P,J2,4*
G04 #@! TO.N,/E33*
X149960000Y-137210000D03*
G04 #@! TO.P,J2,3*
G04 #@! TO.N,/D33*
X149960000Y-139750000D03*
G04 #@! TO.P,J2,2*
G04 #@! TO.N,/E32*
X152500000Y-137210000D03*
D10*
G04 #@! TO.P,J2,1*
G04 #@! TO.N,/D32*
X152500000Y-139750000D03*
G04 #@! TD*
G04 #@! TO.P,J3,1*
G04 #@! TO.N,/D16*
X194750000Y-139760000D03*
D11*
G04 #@! TO.P,J3,2*
G04 #@! TO.N,/E16*
X194750000Y-137220000D03*
G04 #@! TO.P,J3,3*
G04 #@! TO.N,/D17*
X192210000Y-139760000D03*
G04 #@! TO.P,J3,4*
G04 #@! TO.N,/E17*
X192210000Y-137220000D03*
G04 #@! TO.P,J3,5*
G04 #@! TO.N,/D18*
X189670000Y-139760000D03*
G04 #@! TO.P,J3,6*
G04 #@! TO.N,/E18*
X189670000Y-137220000D03*
G04 #@! TO.P,J3,7*
G04 #@! TO.N,/D19*
X187130000Y-139760000D03*
G04 #@! TO.P,J3,8*
G04 #@! TO.N,/E19*
X187130000Y-137220000D03*
G04 #@! TO.P,J3,9*
G04 #@! TO.N,/D20*
X184590000Y-139760000D03*
G04 #@! TO.P,J3,10*
G04 #@! TO.N,/E20*
X184590000Y-137220000D03*
G04 #@! TO.P,J3,11*
G04 #@! TO.N,/D21*
X182050000Y-139760000D03*
G04 #@! TO.P,J3,12*
G04 #@! TO.N,/E21*
X182050000Y-137220000D03*
G04 #@! TO.P,J3,13*
G04 #@! TO.N,/D22*
X179510000Y-139760000D03*
G04 #@! TO.P,J3,14*
G04 #@! TO.N,/E22*
X179510000Y-137220000D03*
G04 #@! TO.P,J3,15*
G04 #@! TO.N,/D23*
X176970000Y-139760000D03*
G04 #@! TO.P,J3,16*
G04 #@! TO.N,/E23*
X176970000Y-137220000D03*
G04 #@! TO.P,J3,17*
G04 #@! TO.N,/D24*
X174430000Y-139760000D03*
G04 #@! TO.P,J3,18*
G04 #@! TO.N,/E24*
X174430000Y-137220000D03*
G04 #@! TO.P,J3,19*
G04 #@! TO.N,/D25*
X171890000Y-139760000D03*
G04 #@! TO.P,J3,20*
G04 #@! TO.N,/E25*
X171890000Y-137220000D03*
G04 #@! TO.P,J3,21*
G04 #@! TO.N,/D26*
X169350000Y-139760000D03*
G04 #@! TO.P,J3,22*
G04 #@! TO.N,/E26*
X169350000Y-137220000D03*
G04 #@! TO.P,J3,23*
G04 #@! TO.N,/D27*
X166810000Y-139760000D03*
G04 #@! TO.P,J3,24*
G04 #@! TO.N,/E27*
X166810000Y-137220000D03*
G04 #@! TO.P,J3,25*
G04 #@! TO.N,/D28*
X164270000Y-139760000D03*
G04 #@! TO.P,J3,26*
G04 #@! TO.N,/E28*
X164270000Y-137220000D03*
G04 #@! TO.P,J3,27*
G04 #@! TO.N,/D29*
X161730000Y-139760000D03*
G04 #@! TO.P,J3,28*
G04 #@! TO.N,/E29*
X161730000Y-137220000D03*
G04 #@! TO.P,J3,29*
G04 #@! TO.N,/D30*
X159190000Y-139760000D03*
G04 #@! TO.P,J3,30*
G04 #@! TO.N,/E30*
X159190000Y-137220000D03*
G04 #@! TO.P,J3,31*
G04 #@! TO.N,/D31*
X156650000Y-139760000D03*
G04 #@! TO.P,J3,32*
G04 #@! TO.N,/E31*
X156650000Y-137220000D03*
G04 #@! TD*
D12*
G04 #@! TO.N,GND*
X133654800Y-122682000D03*
X137642600Y-121881900D03*
X135242300Y-123482100D03*
X140840000Y-123490000D03*
X140830000Y-125895100D03*
X136842500Y-125882400D03*
X134442200Y-127495300D03*
X139240000Y-128280000D03*
X136842500Y-129082800D03*
X131590000Y-131030000D03*
X134450000Y-124300000D03*
X174441935Y-120078065D03*
X174280000Y-112710000D03*
X167590000Y-121520000D03*
X171670000Y-125470000D03*
X131448601Y-123090901D03*
X129100000Y-123080000D03*
X125770000Y-135210000D03*
X129130000Y-129840000D03*
X139260000Y-135370000D03*
X125520000Y-132070000D03*
X157680000Y-125880001D03*
X162350000Y-125830000D03*
X150310000Y-131330000D03*
X157900000Y-137970000D03*
X195780000Y-135520000D03*
X142650000Y-119390000D03*
X178690000Y-117240000D03*
X174548800Y-129984500D03*
X181025800Y-131381500D03*
X149910800Y-121221500D03*
G04 #@! TO.N,3.3V*
X180400000Y-116200000D03*
X171000000Y-126800000D03*
X180800000Y-120300000D03*
X165700000Y-116800000D03*
X162900000Y-120600000D03*
X136842500Y-121881900D03*
X135255000Y-122694700D03*
X135242300Y-128295400D03*
X137630000Y-126682500D03*
X138450000Y-129100000D03*
X169130000Y-127090000D03*
X169150000Y-128290000D03*
X169120000Y-129210000D03*
X118230000Y-123520000D03*
X118200000Y-130010000D03*
X125030000Y-127340000D03*
X156300000Y-115940000D03*
X158610000Y-118690000D03*
X134442200Y-125095000D03*
X132842000Y-124282200D03*
X128220000Y-125170000D03*
X133629400Y-127495300D03*
X131680000Y-129331452D03*
X130838201Y-119450000D03*
X140042900Y-126695200D03*
X143960000Y-126680000D03*
X145730000Y-128380000D03*
X151660000Y-134780000D03*
X167750000Y-131100000D03*
X128960000Y-135250000D03*
X126900000Y-134280000D03*
X174409100Y-126593600D03*
X140042900Y-123494800D03*
X117017800Y-120624600D03*
G04 #@! TO.N,VDD5V*
X160782000Y-123444000D03*
X173795000Y-125730000D03*
G04 #@! TO.N,Net-(C8-Pad2)*
X171750000Y-118250000D03*
X171000000Y-124500000D03*
G04 #@! TO.N,Net-(C10-Pad1)*
X169200000Y-119700000D03*
X172800000Y-123400000D03*
G04 #@! TO.N,Net-(C11-Pad2)*
X172250000Y-118250000D03*
X171500000Y-124500000D03*
G04 #@! TO.N,/ESP8266-12E/GPIO9*
X181775100Y-122999500D03*
G04 #@! TO.N,/ESP8266-12E/GPIO10*
X181483000Y-121500900D03*
G04 #@! TO.N,/ESP8266-12E/GPIO15*
X181127400Y-130810000D03*
G04 #@! TO.N,Net-(L1-Pad2)*
X174244000Y-123698000D03*
X166370000Y-120396000D03*
G04 #@! TO.N,GPIO0*
X162200000Y-118600000D03*
X183057800Y-125920500D03*
G04 #@! TO.N,RESET*
X167970200Y-117830600D03*
X182740300Y-116230400D03*
X194627500Y-116395500D03*
G04 #@! TO.N,DTR*
X166300000Y-119400000D03*
X170800000Y-118500000D03*
G04 #@! TO.N,Net-(R1-Pad1)*
X135242300Y-121881900D03*
X120330000Y-127830000D03*
G04 #@! TO.N,Net-(R2-Pad2)*
X137642600Y-123494800D03*
X122360000Y-128100000D03*
X133642100Y-123482100D03*
G04 #@! TO.N,Net-(R3-Pad1)*
X134442200Y-121881900D03*
X119990000Y-124310000D03*
G04 #@! TO.N,Net-(R4-Pad2)*
X136840000Y-122690000D03*
X122340000Y-128590000D03*
G04 #@! TO.N,RESET_N*
X138820000Y-118800000D03*
X137740000Y-117940000D03*
X136400000Y-115950000D03*
X125650000Y-116380000D03*
X117060000Y-124230000D03*
G04 #@! TO.N,Net-(R9-Pad2)*
X177774600Y-132651500D03*
X189941200Y-120116600D03*
G04 #@! TO.N,Net-(U2-Pad3)*
X136042400Y-125890000D03*
X131570000Y-126370000D03*
G04 #@! TO.N,SPI_MOSI*
X173630000Y-133180000D03*
X138400000Y-133240000D03*
X135242300Y-129890000D03*
X176542700Y-129133600D03*
G04 #@! TO.N,SPI_MISO*
X136042400Y-129900000D03*
X138860000Y-133619100D03*
X174120000Y-133620000D03*
X180950000Y-134050000D03*
X182321200Y-126720600D03*
X180047900Y-123977400D03*
G04 #@! TO.N,SPI_CSO*
X180467000Y-130911600D03*
X180111400Y-121081800D03*
G04 #@! TO.N,SPI_CLK*
X173920000Y-132610000D03*
X176428400Y-131229100D03*
G04 #@! TO.N,Net-(U4-Pad21)*
X173164500Y-118910100D03*
X191871600Y-131356100D03*
G04 #@! TO.N,Net-(U4-Pad22)*
X168500000Y-119800000D03*
X193840100Y-131838700D03*
G04 #@! TO.N,/D0*
X139240000Y-121890000D03*
X148932900Y-115976400D03*
G04 #@! TO.N,/E0*
X139242800Y-122694700D03*
G04 #@! TO.N,/D1*
X141560000Y-117170000D03*
G04 #@! TO.N,/E1*
X141750000Y-117780000D03*
G04 #@! TO.N,/D2*
X142080000Y-118300000D03*
G04 #@! TO.N,/D3*
X137642600Y-122690000D03*
G04 #@! TO.N,/E3*
X138440000Y-123494800D03*
G04 #@! TO.N,/D5*
X136842500Y-121094500D03*
G04 #@! TO.N,/E5*
X135240000Y-121090000D03*
G04 #@! TO.N,/D7*
X136842500Y-123494800D03*
G04 #@! TO.N,/E7*
X136050000Y-122690000D03*
X136500000Y-119430000D03*
G04 #@! TO.N,/D8*
X133640000Y-121090000D03*
G04 #@! TO.N,/E8*
X134442200Y-121094500D03*
G04 #@! TO.N,/E9*
X132842000Y-121100000D03*
G04 #@! TO.N,/D10*
X140040000Y-122690000D03*
G04 #@! TO.N,/E10*
X140830300Y-122694700D03*
G04 #@! TO.N,/D11*
X130080000Y-119540000D03*
X138440000Y-122682000D03*
G04 #@! TO.N,/E11*
X139242800Y-123482100D03*
G04 #@! TO.N,/D12*
X141560000Y-120150000D03*
G04 #@! TO.N,/E12*
X141630400Y-121081800D03*
G04 #@! TO.N,/D13*
X140042900Y-121881900D03*
X122530000Y-118630000D03*
G04 #@! TO.N,/E13*
X140840000Y-121894600D03*
X123250000Y-118180000D03*
G04 #@! TO.N,/D14*
X140042900Y-121094500D03*
G04 #@! TO.N,/E14*
X140850000Y-121081800D03*
G04 #@! TO.N,/D15*
X138442700Y-124290000D03*
G04 #@! TO.N,/E15*
X137630000Y-124280000D03*
G04 #@! TO.N,/D16*
X140042900Y-124282200D03*
X186730000Y-135790000D03*
G04 #@! TO.N,/E16*
X139240000Y-124290000D03*
X170110000Y-131840000D03*
G04 #@! TO.N,/D17*
X141643100Y-123482100D03*
G04 #@! TO.N,/E17*
X141630400Y-124282200D03*
X187350000Y-135490000D03*
G04 #@! TO.N,/D18*
X143543065Y-123913065D03*
G04 #@! TO.N,/E18*
X171488100Y-126136400D03*
G04 #@! TO.N,/D19*
X140042900Y-125090000D03*
G04 #@! TO.N,/E19*
X139240000Y-125090000D03*
G04 #@! TO.N,/D20*
X140042900Y-127495300D03*
G04 #@! TO.N,/E20*
X140030200Y-128295400D03*
X178580000Y-138530000D03*
G04 #@! TO.N,/D21*
X141630000Y-129082800D03*
X155040000Y-135060000D03*
G04 #@! TO.N,/E21*
X140830300Y-128282700D03*
G04 #@! TO.N,/D22*
X141630400Y-127495300D03*
X173620000Y-135130000D03*
G04 #@! TO.N,/E22*
X141630400Y-128295400D03*
G04 #@! TO.N,/D23*
X140042900Y-125882400D03*
X172650000Y-135440000D03*
G04 #@! TO.N,/E23*
X139242800Y-127482600D03*
G04 #@! TO.N,/D24*
X166160000Y-131851799D03*
G04 #@! TO.N,/E24*
X165630000Y-131851799D03*
G04 #@! TO.N,/D25*
X138430000Y-125882400D03*
G04 #@! TO.N,/E25*
X139230100Y-125895100D03*
G04 #@! TO.N,/D26*
X141643100Y-125095000D03*
X167810000Y-135260000D03*
G04 #@! TO.N,/E26*
X166810000Y-131790000D03*
G04 #@! TO.N,/D27*
X140030000Y-129080000D03*
G04 #@! TO.N,/E27*
X140040000Y-129880000D03*
X165580000Y-139210000D03*
G04 #@! TO.N,/D28*
X138442700Y-127482600D03*
G04 #@! TO.N,/E28*
X138440000Y-126690000D03*
G04 #@! TO.N,/D29*
X140830300Y-129095500D03*
G04 #@! TO.N,/E29*
X140830300Y-129882900D03*
G04 #@! TO.N,/D30*
X141630400Y-129895600D03*
G04 #@! TO.N,/E30*
X153840000Y-131490000D03*
G04 #@! TO.N,/D31*
X142080000Y-131570000D03*
X137640000Y-128295400D03*
G04 #@! TO.N,/E31*
X137629900Y-127482600D03*
G04 #@! TO.N,/D32*
X136840000Y-128290000D03*
G04 #@! TO.N,/E32*
X136840000Y-127482600D03*
G04 #@! TO.N,/D33*
X137642600Y-129882900D03*
G04 #@! TO.N,/E33*
X136800000Y-130750000D03*
G04 #@! TO.N,/D34*
X136040000Y-127482600D03*
G04 #@! TO.N,/E34*
X136042400Y-128295400D03*
X136110000Y-133070000D03*
G04 #@! TO.N,/D35*
X135240000Y-129100000D03*
G04 #@! TO.N,/E35*
X136029700Y-129095500D03*
X136370000Y-132400000D03*
G04 #@! TO.N,/D36*
X138390000Y-130790000D03*
G04 #@! TO.N,/E36*
X139900000Y-130830000D03*
G04 #@! TO.N,/D37*
X139240000Y-129880000D03*
X138720000Y-131200000D03*
G04 #@! TO.N,/E37*
X138440000Y-129880000D03*
G04 #@! TO.N,/D38*
X133640000Y-128290000D03*
G04 #@! TO.N,/E38*
X131840000Y-128320000D03*
G04 #@! TO.N,/E42*
X135250000Y-125890000D03*
G04 #@! TO.N,/D42*
X134442200Y-126695200D03*
G04 #@! TO.N,/E41*
X131920000Y-129820000D03*
G04 #@! TO.N,/D41*
X133642100Y-129882900D03*
G04 #@! TO.N,/E39*
X134442200Y-129882900D03*
G04 #@! TO.N,/D39*
X134430000Y-129090000D03*
G04 #@! TO.N,/TCK*
X133640000Y-125890000D03*
X158088601Y-115830000D03*
G04 #@! TO.N,/TDO*
X136842500Y-124282200D03*
G04 #@! TO.N,/TMS*
X161011399Y-115703601D03*
X135040000Y-119800000D03*
X131220000Y-120110000D03*
G04 #@! TO.N,/TDI*
X135240000Y-124290000D03*
G04 #@! TO.N,Net-(R7-Pad2)*
X136040000Y-123482100D03*
X146330000Y-117770000D03*
G04 #@! TO.N,Net-(D5-Pad1)*
X167132000Y-121158000D03*
X173736000Y-120904000D03*
G04 #@! TO.N,Net-(SW1-Pad2)*
X128016000Y-119380000D03*
X134620000Y-119380000D03*
G04 #@! TD*
D13*
G04 #@! TO.N,GND*
X167439501Y-121670499D02*
X167590000Y-121520000D01*
X163280000Y-125830000D02*
X167439501Y-121670499D01*
X162350000Y-125830000D02*
X163280000Y-125830000D01*
X157900000Y-136873670D02*
X157900000Y-137970000D01*
X157167729Y-136141399D02*
X157900000Y-136873670D01*
X150310000Y-131330000D02*
X155121399Y-136141399D01*
X155121399Y-136141399D02*
X157167729Y-136141399D01*
X144449570Y-121221500D02*
X149910800Y-121221500D01*
X143108500Y-121221500D02*
X144449570Y-121221500D01*
X140840000Y-123490000D02*
X143108500Y-121221500D01*
G04 #@! TO.N,3.3V*
X132820000Y-124300000D02*
X131950000Y-125170000D01*
X131950000Y-125170000D02*
X128220000Y-125170000D01*
X133427161Y-127584291D02*
X131680000Y-129331452D01*
X133640000Y-127584291D02*
X133427161Y-127584291D01*
X130838201Y-119450000D02*
X129648201Y-120640000D01*
X129648201Y-120640000D02*
X129410000Y-120640000D01*
X174202700Y-126800000D02*
X174409100Y-126593600D01*
X171000000Y-126800000D02*
X174202700Y-126800000D01*
X117987161Y-130010000D02*
X116933161Y-131064000D01*
X118200000Y-130010000D02*
X117987161Y-130010000D01*
X116933161Y-131064000D02*
X116319300Y-131064000D01*
X167750000Y-130580000D02*
X169120000Y-129210000D01*
X167750000Y-131100000D02*
X167750000Y-130580000D01*
X141021969Y-122259101D02*
X142554870Y-120726200D01*
X140030001Y-123470001D02*
X140420901Y-123079101D01*
X140420901Y-122568029D02*
X140729829Y-122259101D01*
X140729829Y-122259101D02*
X141021969Y-122259101D01*
X140420901Y-123079101D02*
X140420901Y-122568029D01*
X142554870Y-120726200D02*
X146862800Y-120726200D01*
X146862800Y-120726200D02*
X147116800Y-120726200D01*
X125831969Y-116000899D02*
X121641501Y-116000899D01*
X129077100Y-119246030D02*
X125831969Y-116000899D01*
X129077100Y-120307100D02*
X129077100Y-119246030D01*
X129410000Y-120640000D02*
X129077100Y-120307100D01*
X121641501Y-116000899D02*
X117017800Y-120624600D01*
X147116800Y-120726200D02*
X151231600Y-120726200D01*
X151231600Y-120726200D02*
X151434800Y-120523000D01*
G04 #@! TO.N,Net-(C8-Pad2)*
X171750000Y-118250000D02*
X171000000Y-119000000D01*
X171000000Y-119000000D02*
X171000000Y-124500000D01*
G04 #@! TO.N,Net-(C11-Pad2)*
X172129101Y-123870899D02*
X171500000Y-124500000D01*
X172250000Y-118250000D02*
X172250000Y-123750000D01*
X172250000Y-123750000D02*
X172129101Y-123870899D01*
G04 #@! TO.N,RESET*
X194462400Y-116230400D02*
X194627500Y-116395500D01*
X182740300Y-116230400D02*
X194462400Y-116230400D01*
G04 #@! TO.N,DTR*
X166450499Y-119249501D02*
X169550499Y-119249501D01*
X166300000Y-119400000D02*
X166450499Y-119249501D01*
X169550499Y-119249501D02*
X170300000Y-118500000D01*
X170300000Y-118500000D02*
X170800000Y-118500000D01*
G04 #@! TO.N,Net-(R1-Pad1)*
X134580171Y-122290899D02*
X125189101Y-122290899D01*
X135240000Y-121870000D02*
X135001070Y-121870000D01*
X135001070Y-121870000D02*
X134580171Y-122290899D01*
X125100000Y-122380000D02*
X123650000Y-122380000D01*
X125189101Y-122290899D02*
X125100000Y-122380000D01*
X123650000Y-122380000D02*
X120700000Y-125330000D01*
X120700000Y-125330000D02*
X120700000Y-127460000D01*
X120700000Y-127460000D02*
X120330000Y-127830000D01*
G04 #@! TO.N,Net-(R2-Pad2)*
X126989999Y-123470001D02*
X122360000Y-128100000D01*
X133640000Y-123470001D02*
X126989999Y-123470001D01*
G04 #@! TO.N,Net-(R3-Pad1)*
X134227161Y-121870000D02*
X134197161Y-121900000D01*
X134440000Y-121870000D02*
X134227161Y-121870000D01*
X134197161Y-121900000D02*
X122400000Y-121900000D01*
X122400000Y-121900000D02*
X119990000Y-124310000D01*
G04 #@! TO.N,Net-(R4-Pad2)*
X127221940Y-123920899D02*
X122552839Y-128590000D01*
X135639101Y-123651969D02*
X135370171Y-123920899D01*
X135639101Y-123288031D02*
X135639101Y-123651969D01*
X122552839Y-128590000D02*
X122340000Y-128590000D01*
X135836233Y-123090899D02*
X135639101Y-123288031D01*
X135370171Y-123920899D02*
X127221940Y-123920899D01*
X136210171Y-123090899D02*
X135836233Y-123090899D01*
X136611070Y-122690000D02*
X136210171Y-123090899D01*
X136840000Y-122690000D02*
X136611070Y-122690000D01*
G04 #@! TO.N,RESET_N*
X138820000Y-118800000D02*
X138600000Y-118800000D01*
X138600000Y-118800000D02*
X137740000Y-117940000D01*
X117060000Y-124128930D02*
X117060000Y-124230000D01*
X125650000Y-116380000D02*
X118889101Y-123140899D01*
X118048031Y-123140899D02*
X117060000Y-124128930D01*
X118889101Y-123140899D02*
X118048031Y-123140899D01*
G04 #@! TO.N,Net-(R9-Pad2)*
X177774600Y-132651500D02*
X191137270Y-132651500D01*
X192250701Y-122426101D02*
X189941200Y-120116600D01*
X191137270Y-132651500D02*
X192250701Y-131538069D01*
X192250701Y-131538069D02*
X192250701Y-122426101D01*
G04 #@! TO.N,SPI_MOSI*
X173479501Y-132196799D02*
X176542700Y-129133600D01*
X173479501Y-133029501D02*
X173479501Y-132196799D01*
X173630000Y-133180000D02*
X173479501Y-133029501D01*
G04 #@! TO.N,SPI_MISO*
X174120000Y-133620000D02*
X174550000Y-134050000D01*
X174550000Y-134050000D02*
X180950000Y-134050000D01*
G04 #@! TO.N,SPI_CSO*
X180467000Y-121437400D02*
X180111400Y-121081800D01*
X180467000Y-130911600D02*
X180467000Y-121437400D01*
G04 #@! TO.N,SPI_CLK*
X175047500Y-132610000D02*
X176428400Y-131229100D01*
X173920000Y-132610000D02*
X175047500Y-132610000D01*
G04 #@! TO.N,Net-(U4-Pad21)*
X191871600Y-130810530D02*
X191871600Y-131356100D01*
X179971170Y-118910100D02*
X191871600Y-130810530D01*
X173164500Y-118910100D02*
X179971170Y-118910100D01*
G04 #@! TO.N,/D0*
X152510000Y-114250000D02*
X152510000Y-115252400D01*
X140550900Y-120998218D02*
X140550900Y-120497600D01*
X140172417Y-121376701D02*
X140550900Y-120998218D01*
X139753299Y-121376701D02*
X140172417Y-121376701D01*
X139240000Y-121890000D02*
X139753299Y-121376701D01*
X141224000Y-119824500D02*
X141439900Y-119824500D01*
X140550900Y-120497600D02*
X141224000Y-119824500D01*
X145140199Y-119769101D02*
X148932900Y-115976400D01*
X145084800Y-119824500D02*
X145140199Y-119769101D01*
X141439900Y-119824500D02*
X145084800Y-119824500D01*
G04 #@! TO.N,/E0*
X152510000Y-111710000D02*
X151660001Y-112559999D01*
X151660001Y-112559999D02*
X151660001Y-112874533D01*
X151660001Y-112874533D02*
X150966201Y-113568333D01*
X150966201Y-113568333D02*
X150966201Y-114728177D01*
X153359999Y-112559999D02*
X152510000Y-111710000D01*
X153506201Y-112706201D02*
X153359999Y-112559999D01*
X139240000Y-122680000D02*
X139526701Y-122393299D01*
X141146701Y-121222417D02*
X141146701Y-121093299D01*
X139526701Y-122393299D02*
X139975819Y-122393299D01*
X139975819Y-122393299D02*
X140336701Y-122032417D01*
X153506201Y-115216961D02*
X153506201Y-112706201D01*
X140336701Y-121773299D02*
X140526701Y-121583299D01*
X148301772Y-120421390D02*
X153506201Y-115216961D01*
X140336701Y-122032417D02*
X140336701Y-121773299D01*
X140526701Y-121583299D02*
X140785819Y-121583299D01*
X141818610Y-120421390D02*
X148301772Y-120421390D01*
X141146701Y-121093299D02*
X141818610Y-120421390D01*
X140785819Y-121583299D02*
X141146701Y-121222417D01*
G04 #@! TO.N,/D1*
X150966201Y-111231823D02*
X150966201Y-113253799D01*
X150448177Y-110713799D02*
X150966201Y-111231823D01*
X150966201Y-113253799D02*
X150819999Y-113400001D01*
X146433799Y-111656201D02*
X146433799Y-111156201D01*
X145383799Y-112706201D02*
X146433799Y-111656201D01*
X144959421Y-112706201D02*
X145383799Y-112706201D01*
X150819999Y-113400001D02*
X149970000Y-114250000D01*
X146433799Y-111156201D02*
X146876201Y-110713799D01*
X143346201Y-114319421D02*
X144959421Y-112706201D01*
X146876201Y-110713799D02*
X150448177Y-110713799D01*
X143346201Y-115383799D02*
X143346201Y-114319421D01*
X141560000Y-117170000D02*
X143346201Y-115383799D01*
G04 #@! TO.N,/E1*
X146433799Y-114180579D02*
X146433799Y-113776201D01*
X141750000Y-117780000D02*
X142834378Y-117780000D01*
X142834378Y-117780000D02*
X146433799Y-114180579D01*
X149120001Y-112559999D02*
X149970000Y-111710000D01*
X148973799Y-112706201D02*
X149120001Y-112559999D01*
X147503799Y-112706201D02*
X148973799Y-112706201D01*
X146433799Y-113776201D02*
X147503799Y-112706201D01*
G04 #@! TO.N,/D2*
X143380000Y-118300000D02*
X147430000Y-114250000D01*
X142080000Y-118300000D02*
X143380000Y-118300000D01*
G04 #@! TO.N,/D5*
X136820000Y-117240000D02*
X139810000Y-114250000D01*
X136820000Y-121110000D02*
X136820000Y-117240000D01*
G04 #@! TO.N,/E5*
X135240000Y-121090000D02*
X135950000Y-120380000D01*
X138960001Y-112559999D02*
X139810000Y-111710000D01*
X138813799Y-112706201D02*
X138960001Y-112559999D01*
X136791823Y-112706201D02*
X138813799Y-112706201D01*
X135950000Y-113548024D02*
X136791823Y-112706201D01*
X135950000Y-120380000D02*
X135950000Y-113548024D01*
G04 #@! TO.N,/D7*
X135609101Y-124740899D02*
X135609101Y-124880899D01*
X136840000Y-123510000D02*
X135609101Y-124740899D01*
X135469101Y-124740899D02*
X132919101Y-124740899D01*
X135609101Y-124880899D02*
X135469101Y-124740899D01*
X135726201Y-113253799D02*
X135579999Y-113400001D01*
X135726201Y-110736201D02*
X135726201Y-113253799D01*
X135703799Y-110713799D02*
X135726201Y-110736201D01*
X113906201Y-110713799D02*
X135703799Y-110713799D01*
X113413799Y-111206201D02*
X113906201Y-110713799D01*
X135579999Y-113400001D02*
X134730000Y-114250000D01*
X113413799Y-121474869D02*
X113413799Y-111206201D01*
X124618031Y-128969101D02*
X120908031Y-128969101D01*
X120908031Y-128969101D02*
X113413799Y-121474869D01*
X128038031Y-125549101D02*
X124618031Y-128969101D01*
X132110899Y-125549101D02*
X128038031Y-125549101D01*
X132919101Y-124740899D02*
X132110899Y-125549101D01*
G04 #@! TO.N,/E7*
X136050000Y-122690000D02*
X136200499Y-122539501D01*
X136200499Y-119729501D02*
X136500000Y-119430000D01*
X136200499Y-122539501D02*
X136200499Y-119729501D01*
G04 #@! TO.N,/D8*
X133640000Y-121090000D02*
X131160000Y-118610000D01*
X131160000Y-115280000D02*
X132190000Y-114250000D01*
X131160000Y-118610000D02*
X131160000Y-115280000D01*
G04 #@! TO.N,/E8*
X134450000Y-120867161D02*
X133420000Y-119837161D01*
X134450000Y-121080000D02*
X134450000Y-120867161D01*
X133420000Y-112940000D02*
X132190000Y-111710000D01*
X133420000Y-119837161D02*
X133420000Y-112940000D01*
G04 #@! TO.N,/E9*
X130499999Y-112559999D02*
X129650000Y-111710000D01*
X130646201Y-112706201D02*
X130499999Y-112559999D01*
X130646201Y-118703362D02*
X130646201Y-112706201D01*
X132830000Y-120887161D02*
X130646201Y-118703362D01*
X132830000Y-121100000D02*
X132830000Y-120887161D01*
G04 #@! TO.N,/E16*
X193900001Y-136370001D02*
X194750000Y-137220000D01*
X191959101Y-134429101D02*
X193900001Y-136370001D01*
X172699101Y-134429101D02*
X191959101Y-134429101D01*
X170110000Y-131840000D02*
X172699101Y-134429101D01*
G04 #@! TO.N,/D21*
X150980882Y-129070000D02*
X154640000Y-132729118D01*
X141630000Y-129070000D02*
X150980882Y-129070000D01*
X154640000Y-132729118D02*
X154640000Y-134660000D01*
X154640000Y-134660000D02*
X155040000Y-135060000D01*
G04 #@! TO.N,/D22*
X178660001Y-138910001D02*
X179510000Y-139760000D01*
X178520883Y-138910001D02*
X178660001Y-138910001D01*
X177039421Y-138763799D02*
X178374681Y-138763799D01*
X175973799Y-137698177D02*
X177039421Y-138763799D01*
X175973799Y-137289421D02*
X175973799Y-137698177D01*
X173964877Y-135280499D02*
X175973799Y-137289421D01*
X173770499Y-135280499D02*
X173964877Y-135280499D01*
X178374681Y-138763799D02*
X178520883Y-138910001D01*
X173620000Y-135130000D02*
X173770499Y-135280499D01*
G04 #@! TO.N,/E24*
X173580001Y-136370001D02*
X174430000Y-137220000D01*
X172946701Y-135736701D02*
X173580001Y-136370001D01*
X169514902Y-135736701D02*
X172946701Y-135736701D01*
X165630000Y-131851799D02*
X169514902Y-135736701D01*
G04 #@! TO.N,/D25*
X171040001Y-138910001D02*
X171890000Y-139760000D01*
X170893799Y-138763799D02*
X171040001Y-138910001D01*
X169828177Y-136223799D02*
X170893799Y-137289421D01*
X168334681Y-136223799D02*
X169828177Y-136223799D01*
X170893799Y-137289421D02*
X170893799Y-138763799D01*
X158411781Y-126300899D02*
X168334681Y-136223799D01*
X138840899Y-126300899D02*
X158411781Y-126300899D01*
X138430000Y-125890000D02*
X138840899Y-126300899D01*
G04 #@! TO.N,/E25*
X172739999Y-138069999D02*
X171890000Y-137220000D01*
X172886201Y-138216201D02*
X172739999Y-138069999D01*
X163791823Y-140756201D02*
X172368177Y-140756201D01*
X163273799Y-140238177D02*
X163791823Y-140756201D01*
X162430587Y-138438611D02*
X163273799Y-139281823D01*
X156351996Y-138438611D02*
X162430587Y-138438611D01*
X153455795Y-135542410D02*
X156351996Y-138438611D01*
X148607875Y-135542410D02*
X153455795Y-135542410D01*
X144932166Y-131866701D02*
X148607875Y-135542410D01*
X138947583Y-131866701D02*
X144932166Y-131866701D01*
X163273799Y-139281823D02*
X163273799Y-140238177D01*
X138093299Y-131012417D02*
X138947583Y-131866701D01*
X137343299Y-128937583D02*
X138093299Y-129687583D01*
X137497583Y-127193299D02*
X137343299Y-127347583D01*
X172368177Y-140756201D02*
X172886201Y-140238177D01*
X137782417Y-127193299D02*
X137497583Y-127193299D01*
X138133299Y-126842417D02*
X137782417Y-127193299D01*
X172886201Y-140238177D02*
X172886201Y-138216201D01*
X138133299Y-125747583D02*
X138133299Y-126842417D01*
X138093299Y-129687583D02*
X138093299Y-131012417D01*
X138287583Y-125593299D02*
X138133299Y-125747583D01*
X137343299Y-127347583D02*
X137343299Y-128937583D01*
X138923299Y-125593299D02*
X138287583Y-125593299D01*
X139230000Y-125900000D02*
X138923299Y-125593299D01*
G04 #@! TO.N,/D26*
X141630000Y-125080000D02*
X157630000Y-125080000D01*
X157630000Y-125080000D02*
X167810000Y-135260000D01*
G04 #@! TO.N,/D28*
X160186201Y-136741823D02*
X158314378Y-134870000D01*
X160186201Y-137150579D02*
X160186201Y-136741823D01*
X161251823Y-138216201D02*
X160186201Y-137150579D01*
X164270000Y-139760000D02*
X162726201Y-138216201D01*
X162726201Y-138216201D02*
X161251823Y-138216201D01*
X151231079Y-127786701D02*
X138756701Y-127786701D01*
X158314378Y-134870000D02*
X151231079Y-127786701D01*
X138756701Y-127786701D02*
X138669559Y-127699559D01*
X138669559Y-127699559D02*
X138649559Y-127699559D01*
X138649559Y-127699559D02*
X138440000Y-127490000D01*
G04 #@! TO.N,/E28*
X163420001Y-136370001D02*
X164270000Y-137220000D01*
X154223299Y-127173299D02*
X163420001Y-136370001D01*
X138923299Y-127173299D02*
X154223299Y-127173299D01*
X138440000Y-126690000D02*
X138923299Y-127173299D01*
G04 #@! TO.N,/E30*
X159190000Y-136840000D02*
X159190000Y-137220000D01*
X153840000Y-131490000D02*
X159190000Y-136840000D01*
G04 #@! TO.N,/D31*
X141929501Y-131419501D02*
X142080000Y-131570000D01*
X140523299Y-130013299D02*
X141929501Y-131419501D01*
X140523299Y-129717583D02*
X140523299Y-130013299D01*
X140389015Y-129583299D02*
X140523299Y-129717583D01*
X138372229Y-129583299D02*
X140389015Y-129583299D01*
X137640000Y-128851070D02*
X138372229Y-129583299D01*
X137640000Y-128280000D02*
X137640000Y-128851070D01*
G04 #@! TO.N,/E31*
X138809101Y-128659101D02*
X137790499Y-127640499D01*
X140848219Y-128659101D02*
X138809101Y-128659101D01*
X141116701Y-128927583D02*
X140848219Y-128659101D01*
X141116701Y-129795819D02*
X141116701Y-128927583D01*
X137790499Y-127640499D02*
X137640000Y-127490000D01*
X141487583Y-130166701D02*
X141116701Y-129795819D01*
X143546701Y-130166701D02*
X141487583Y-130166701D01*
X148700000Y-135320000D02*
X143546701Y-130166701D01*
X153547919Y-135320000D02*
X148700000Y-135320000D01*
X155447919Y-137220000D02*
X153547919Y-135320000D01*
X156650000Y-137220000D02*
X155447919Y-137220000D01*
G04 #@! TO.N,/E33*
X136950499Y-130900499D02*
X136950499Y-130930499D01*
X136800000Y-130750000D02*
X136950499Y-130900499D01*
X136950499Y-130930499D02*
X140070000Y-134050000D01*
X146800000Y-134050000D02*
X149960000Y-137210000D01*
X140070000Y-134050000D02*
X146800000Y-134050000D01*
G04 #@! TO.N,/E34*
X147420000Y-137210000D02*
X146423799Y-136213799D01*
X139253799Y-136213799D02*
X136110000Y-133070000D01*
X146423799Y-136213799D02*
X139253799Y-136213799D01*
G04 #@! TO.N,/D35*
X138803799Y-140228177D02*
X139705622Y-141130000D01*
X138803799Y-137279421D02*
X138803799Y-140228177D01*
X135609101Y-134084723D02*
X138803799Y-137279421D01*
X135240000Y-129100000D02*
X135609101Y-129469101D01*
X135609101Y-129469101D02*
X135609101Y-134084723D01*
X143500000Y-141130000D02*
X144880000Y-139750000D01*
X139705622Y-141130000D02*
X143500000Y-141130000D01*
G04 #@! TO.N,/E35*
X136399101Y-132370899D02*
X136370000Y-132400000D01*
X136040000Y-129080000D02*
X136399101Y-129439101D01*
X136399101Y-129439101D02*
X136399101Y-132370899D01*
G04 #@! TO.N,/D37*
X139240000Y-130680000D02*
X138720000Y-131200000D01*
X139240000Y-129880000D02*
X139240000Y-130680000D01*
G04 #@! TO.N,/D38*
X136263799Y-136731823D02*
X136263799Y-138753799D01*
X136410001Y-138900001D02*
X137260000Y-139750000D01*
X136263799Y-138753799D02*
X136410001Y-138900001D01*
X133350000Y-133818024D02*
X136263799Y-136731823D01*
X133350000Y-128580000D02*
X133350000Y-133818024D01*
X133640000Y-128290000D02*
X133350000Y-128580000D01*
G04 #@! TO.N,/E38*
X131689501Y-128470499D02*
X131840000Y-128320000D01*
X131689501Y-128650499D02*
X131689501Y-128470499D01*
X131150000Y-129190000D02*
X131689501Y-128650499D01*
X131150000Y-132190000D02*
X131150000Y-129190000D01*
X131665123Y-132705123D02*
X131150000Y-132190000D01*
X131689501Y-132705123D02*
X131665123Y-132705123D01*
X137260000Y-137210000D02*
X138256201Y-138206201D01*
X137738177Y-140746201D02*
X136781823Y-140746201D01*
X138256201Y-140228177D02*
X137738177Y-140746201D01*
X136041389Y-137057011D02*
X131689501Y-132705123D01*
X136781823Y-140746201D02*
X136041389Y-140005767D01*
X138256201Y-138206201D02*
X138256201Y-140228177D01*
X136041389Y-140005767D02*
X136041389Y-137057011D01*
G04 #@! TO.N,/E42*
X135250000Y-126102839D02*
X135250000Y-125890000D01*
X134582417Y-126976701D02*
X135250000Y-126309118D01*
X134259829Y-127099101D02*
X134382229Y-126976701D01*
X132621781Y-127099101D02*
X134259829Y-127099101D01*
X127949999Y-131770883D02*
X132621781Y-127099101D01*
X135250000Y-126309118D02*
X135250000Y-126102839D01*
X134382229Y-126976701D02*
X134582417Y-126976701D01*
X127949999Y-136360001D02*
X127949999Y-131770883D01*
X127100000Y-137210000D02*
X127949999Y-136360001D01*
G04 #@! TO.N,/TDO*
X163551399Y-115950201D02*
X163551399Y-112718601D01*
X157900999Y-121600601D02*
X163551399Y-115950201D01*
X145294459Y-121600601D02*
X157900999Y-121600601D01*
X163780001Y-112489999D02*
X164630000Y-111640000D01*
X142994161Y-123900899D02*
X145294459Y-121600601D01*
X137223801Y-123900899D02*
X142994161Y-123900899D01*
X163551399Y-112718601D02*
X163780001Y-112489999D01*
X136842500Y-124282200D02*
X137223801Y-123900899D01*
G04 #@! TO.N,/TMS*
X161011399Y-112718601D02*
X161011399Y-115703601D01*
X162090000Y-111640000D02*
X161011399Y-112718601D01*
G04 #@! TO.N,Net-(R7-Pad2)*
X138060899Y-122820171D02*
X138060899Y-122269101D01*
X137811969Y-123069101D02*
X138060899Y-122820171D01*
X136719829Y-123069101D02*
X137811969Y-123069101D01*
X136040000Y-123470000D02*
X136318930Y-123470000D01*
X136318930Y-123470000D02*
X136719829Y-123069101D01*
X138060899Y-122269101D02*
X141400000Y-118930000D01*
X141400000Y-118930000D02*
X145170000Y-118930000D01*
X145170000Y-118930000D02*
X146330000Y-117770000D01*
G04 #@! TD*
D14*
G04 #@! TO.N,3.3V*
G36*
X112960433Y-122027291D02*
X120355609Y-129422468D01*
X120395285Y-129481847D01*
X120454664Y-129521523D01*
X120454666Y-129521525D01*
X120502317Y-129553364D01*
X120630535Y-129639037D01*
X120837985Y-129680301D01*
X120837989Y-129680301D01*
X120908031Y-129694233D01*
X120978073Y-129680301D01*
X124547990Y-129680301D01*
X124618031Y-129694233D01*
X124688072Y-129680301D01*
X124688077Y-129680301D01*
X124895527Y-129639037D01*
X125130777Y-129481847D01*
X125170455Y-129422465D01*
X128332620Y-126260301D01*
X130784500Y-126260301D01*
X130784500Y-126526246D01*
X130904085Y-126814950D01*
X131125050Y-127035915D01*
X131413754Y-127155500D01*
X131559593Y-127155500D01*
X129550950Y-129164144D01*
X129286246Y-129054500D01*
X128973754Y-129054500D01*
X128685050Y-129174085D01*
X128464085Y-129395050D01*
X128344500Y-129683754D01*
X128344500Y-129996246D01*
X128454144Y-130260950D01*
X127496633Y-131218461D01*
X127437254Y-131258137D01*
X127397578Y-131317516D01*
X127397575Y-131317519D01*
X127280064Y-131493387D01*
X127224867Y-131770883D01*
X127238800Y-131840929D01*
X127238799Y-135725000D01*
X126953744Y-135725000D01*
X126520582Y-135811161D01*
X126029375Y-136139375D01*
X125816157Y-136458478D01*
X125755183Y-136328642D01*
X125326924Y-135938355D01*
X124916890Y-135768524D01*
X124687000Y-135889845D01*
X124687000Y-137083000D01*
X124707000Y-137083000D01*
X124707000Y-137337000D01*
X124687000Y-137337000D01*
X124687000Y-137357000D01*
X124433000Y-137357000D01*
X124433000Y-137337000D01*
X122147000Y-137337000D01*
X122147000Y-137357000D01*
X121893000Y-137357000D01*
X121893000Y-137337000D01*
X119607000Y-137337000D01*
X119607000Y-137357000D01*
X119353000Y-137357000D01*
X119353000Y-137337000D01*
X117067000Y-137337000D01*
X117067000Y-137357000D01*
X116813000Y-137357000D01*
X116813000Y-137337000D01*
X114527000Y-137337000D01*
X114527000Y-137357000D01*
X114273000Y-137357000D01*
X114273000Y-137337000D01*
X114253000Y-137337000D01*
X114253000Y-137083000D01*
X114273000Y-137083000D01*
X114273000Y-135889845D01*
X114527000Y-135889845D01*
X114527000Y-137083000D01*
X116813000Y-137083000D01*
X116813000Y-135889845D01*
X117067000Y-135889845D01*
X117067000Y-137083000D01*
X119353000Y-137083000D01*
X119353000Y-135889845D01*
X119607000Y-135889845D01*
X119607000Y-137083000D01*
X121893000Y-137083000D01*
X121893000Y-135889845D01*
X122147000Y-135889845D01*
X122147000Y-137083000D01*
X124433000Y-137083000D01*
X124433000Y-135889845D01*
X124203110Y-135768524D01*
X123793076Y-135938355D01*
X123364817Y-136328642D01*
X123290000Y-136487954D01*
X123215183Y-136328642D01*
X122786924Y-135938355D01*
X122376890Y-135768524D01*
X122147000Y-135889845D01*
X121893000Y-135889845D01*
X121663110Y-135768524D01*
X121253076Y-135938355D01*
X120824817Y-136328642D01*
X120750000Y-136487954D01*
X120675183Y-136328642D01*
X120246924Y-135938355D01*
X119836890Y-135768524D01*
X119607000Y-135889845D01*
X119353000Y-135889845D01*
X119123110Y-135768524D01*
X118713076Y-135938355D01*
X118284817Y-136328642D01*
X118210000Y-136487954D01*
X118135183Y-136328642D01*
X117706924Y-135938355D01*
X117296890Y-135768524D01*
X117067000Y-135889845D01*
X116813000Y-135889845D01*
X116583110Y-135768524D01*
X116173076Y-135938355D01*
X115744817Y-136328642D01*
X115670000Y-136487954D01*
X115595183Y-136328642D01*
X115166924Y-135938355D01*
X114756890Y-135768524D01*
X114527000Y-135889845D01*
X114273000Y-135889845D01*
X114043110Y-135768524D01*
X113633076Y-135938355D01*
X113204817Y-136328642D01*
X112960000Y-136849944D01*
X112960000Y-135053754D01*
X124984500Y-135053754D01*
X124984500Y-135366246D01*
X125104085Y-135654950D01*
X125325050Y-135875915D01*
X125613754Y-135995500D01*
X125926246Y-135995500D01*
X126214950Y-135875915D01*
X126435915Y-135654950D01*
X126555500Y-135366246D01*
X126555500Y-135053754D01*
X126435915Y-134765050D01*
X126214950Y-134544085D01*
X125926246Y-134424500D01*
X125613754Y-134424500D01*
X125325050Y-134544085D01*
X125104085Y-134765050D01*
X124984500Y-135053754D01*
X112960000Y-135053754D01*
X112960000Y-131913754D01*
X124734500Y-131913754D01*
X124734500Y-132226246D01*
X124854085Y-132514950D01*
X125075050Y-132735915D01*
X125363754Y-132855500D01*
X125676246Y-132855500D01*
X125964950Y-132735915D01*
X126185915Y-132514950D01*
X126305500Y-132226246D01*
X126305500Y-131913754D01*
X126185915Y-131625050D01*
X125964950Y-131404085D01*
X125676246Y-131284500D01*
X125363754Y-131284500D01*
X125075050Y-131404085D01*
X124854085Y-131625050D01*
X124734500Y-131913754D01*
X112960000Y-131913754D01*
X112960000Y-122027002D01*
X112960433Y-122027291D01*
X112960433Y-122027291D01*
G37*
X112960433Y-122027291D02*
X120355609Y-129422468D01*
X120395285Y-129481847D01*
X120454664Y-129521523D01*
X120454666Y-129521525D01*
X120502317Y-129553364D01*
X120630535Y-129639037D01*
X120837985Y-129680301D01*
X120837989Y-129680301D01*
X120908031Y-129694233D01*
X120978073Y-129680301D01*
X124547990Y-129680301D01*
X124618031Y-129694233D01*
X124688072Y-129680301D01*
X124688077Y-129680301D01*
X124895527Y-129639037D01*
X125130777Y-129481847D01*
X125170455Y-129422465D01*
X128332620Y-126260301D01*
X130784500Y-126260301D01*
X130784500Y-126526246D01*
X130904085Y-126814950D01*
X131125050Y-127035915D01*
X131413754Y-127155500D01*
X131559593Y-127155500D01*
X129550950Y-129164144D01*
X129286246Y-129054500D01*
X128973754Y-129054500D01*
X128685050Y-129174085D01*
X128464085Y-129395050D01*
X128344500Y-129683754D01*
X128344500Y-129996246D01*
X128454144Y-130260950D01*
X127496633Y-131218461D01*
X127437254Y-131258137D01*
X127397578Y-131317516D01*
X127397575Y-131317519D01*
X127280064Y-131493387D01*
X127224867Y-131770883D01*
X127238800Y-131840929D01*
X127238799Y-135725000D01*
X126953744Y-135725000D01*
X126520582Y-135811161D01*
X126029375Y-136139375D01*
X125816157Y-136458478D01*
X125755183Y-136328642D01*
X125326924Y-135938355D01*
X124916890Y-135768524D01*
X124687000Y-135889845D01*
X124687000Y-137083000D01*
X124707000Y-137083000D01*
X124707000Y-137337000D01*
X124687000Y-137337000D01*
X124687000Y-137357000D01*
X124433000Y-137357000D01*
X124433000Y-137337000D01*
X122147000Y-137337000D01*
X122147000Y-137357000D01*
X121893000Y-137357000D01*
X121893000Y-137337000D01*
X119607000Y-137337000D01*
X119607000Y-137357000D01*
X119353000Y-137357000D01*
X119353000Y-137337000D01*
X117067000Y-137337000D01*
X117067000Y-137357000D01*
X116813000Y-137357000D01*
X116813000Y-137337000D01*
X114527000Y-137337000D01*
X114527000Y-137357000D01*
X114273000Y-137357000D01*
X114273000Y-137337000D01*
X114253000Y-137337000D01*
X114253000Y-137083000D01*
X114273000Y-137083000D01*
X114273000Y-135889845D01*
X114527000Y-135889845D01*
X114527000Y-137083000D01*
X116813000Y-137083000D01*
X116813000Y-135889845D01*
X117067000Y-135889845D01*
X117067000Y-137083000D01*
X119353000Y-137083000D01*
X119353000Y-135889845D01*
X119607000Y-135889845D01*
X119607000Y-137083000D01*
X121893000Y-137083000D01*
X121893000Y-135889845D01*
X122147000Y-135889845D01*
X122147000Y-137083000D01*
X124433000Y-137083000D01*
X124433000Y-135889845D01*
X124203110Y-135768524D01*
X123793076Y-135938355D01*
X123364817Y-136328642D01*
X123290000Y-136487954D01*
X123215183Y-136328642D01*
X122786924Y-135938355D01*
X122376890Y-135768524D01*
X122147000Y-135889845D01*
X121893000Y-135889845D01*
X121663110Y-135768524D01*
X121253076Y-135938355D01*
X120824817Y-136328642D01*
X120750000Y-136487954D01*
X120675183Y-136328642D01*
X120246924Y-135938355D01*
X119836890Y-135768524D01*
X119607000Y-135889845D01*
X119353000Y-135889845D01*
X119123110Y-135768524D01*
X118713076Y-135938355D01*
X118284817Y-136328642D01*
X118210000Y-136487954D01*
X118135183Y-136328642D01*
X117706924Y-135938355D01*
X117296890Y-135768524D01*
X117067000Y-135889845D01*
X116813000Y-135889845D01*
X116583110Y-135768524D01*
X116173076Y-135938355D01*
X115744817Y-136328642D01*
X115670000Y-136487954D01*
X115595183Y-136328642D01*
X115166924Y-135938355D01*
X114756890Y-135768524D01*
X114527000Y-135889845D01*
X114273000Y-135889845D01*
X114043110Y-135768524D01*
X113633076Y-135938355D01*
X113204817Y-136328642D01*
X112960000Y-136849944D01*
X112960000Y-135053754D01*
X124984500Y-135053754D01*
X124984500Y-135366246D01*
X125104085Y-135654950D01*
X125325050Y-135875915D01*
X125613754Y-135995500D01*
X125926246Y-135995500D01*
X126214950Y-135875915D01*
X126435915Y-135654950D01*
X126555500Y-135366246D01*
X126555500Y-135053754D01*
X126435915Y-134765050D01*
X126214950Y-134544085D01*
X125926246Y-134424500D01*
X125613754Y-134424500D01*
X125325050Y-134544085D01*
X125104085Y-134765050D01*
X124984500Y-135053754D01*
X112960000Y-135053754D01*
X112960000Y-131913754D01*
X124734500Y-131913754D01*
X124734500Y-132226246D01*
X124854085Y-132514950D01*
X125075050Y-132735915D01*
X125363754Y-132855500D01*
X125676246Y-132855500D01*
X125964950Y-132735915D01*
X126185915Y-132514950D01*
X126305500Y-132226246D01*
X126305500Y-131913754D01*
X126185915Y-131625050D01*
X125964950Y-131404085D01*
X125676246Y-131284500D01*
X125363754Y-131284500D01*
X125075050Y-131404085D01*
X124854085Y-131625050D01*
X124734500Y-131913754D01*
X112960000Y-131913754D01*
X112960000Y-122027002D01*
X112960433Y-122027291D01*
G36*
X130438800Y-132119958D02*
X130424868Y-132190000D01*
X130438800Y-132260041D01*
X130438800Y-132260045D01*
X130480064Y-132467495D01*
X130520267Y-132527663D01*
X130597576Y-132643364D01*
X130597578Y-132643366D01*
X130637254Y-132702745D01*
X130696633Y-132742422D01*
X131112701Y-133158489D01*
X131152377Y-133217869D01*
X131211756Y-133257545D01*
X131211758Y-133257547D01*
X131285228Y-133306638D01*
X133930274Y-135951684D01*
X133649375Y-136139375D01*
X133450000Y-136437761D01*
X133250625Y-136139375D01*
X132759418Y-135811161D01*
X132326256Y-135725000D01*
X132033744Y-135725000D01*
X131600582Y-135811161D01*
X131109375Y-136139375D01*
X130910000Y-136437761D01*
X130710625Y-136139375D01*
X130219418Y-135811161D01*
X129786256Y-135725000D01*
X129493744Y-135725000D01*
X129060582Y-135811161D01*
X128661199Y-136078020D01*
X128661199Y-132065471D01*
X130438801Y-130287870D01*
X130438800Y-132119958D01*
X130438800Y-132119958D01*
G37*
X130438800Y-132119958D02*
X130424868Y-132190000D01*
X130438800Y-132260041D01*
X130438800Y-132260045D01*
X130480064Y-132467495D01*
X130520267Y-132527663D01*
X130597576Y-132643364D01*
X130597578Y-132643366D01*
X130637254Y-132702745D01*
X130696633Y-132742422D01*
X131112701Y-133158489D01*
X131152377Y-133217869D01*
X131211756Y-133257545D01*
X131211758Y-133257547D01*
X131285228Y-133306638D01*
X133930274Y-135951684D01*
X133649375Y-136139375D01*
X133450000Y-136437761D01*
X133250625Y-136139375D01*
X132759418Y-135811161D01*
X132326256Y-135725000D01*
X132033744Y-135725000D01*
X131600582Y-135811161D01*
X131109375Y-136139375D01*
X130910000Y-136437761D01*
X130710625Y-136139375D01*
X130219418Y-135811161D01*
X129786256Y-135725000D01*
X129493744Y-135725000D01*
X129060582Y-135811161D01*
X128661199Y-136078020D01*
X128661199Y-132065471D01*
X130438801Y-130287870D01*
X130438800Y-132119958D01*
G36*
X180979375Y-110639375D02*
X180651161Y-111130582D01*
X180535908Y-111710000D01*
X180651161Y-112289418D01*
X180979375Y-112780625D01*
X181277761Y-112980000D01*
X180979375Y-113179375D01*
X180651161Y-113670582D01*
X180535908Y-114250000D01*
X180651161Y-114829418D01*
X180979375Y-115320625D01*
X181470582Y-115648839D01*
X181903744Y-115735000D01*
X182124835Y-115735000D01*
X182074385Y-115785450D01*
X181954800Y-116074154D01*
X181954800Y-116386646D01*
X182074385Y-116675350D01*
X182295350Y-116896315D01*
X182584054Y-117015900D01*
X182896546Y-117015900D01*
X183075922Y-116941600D01*
X194062735Y-116941600D01*
X194182550Y-117061415D01*
X194471254Y-117181000D01*
X194783746Y-117181000D01*
X195072450Y-117061415D01*
X195293415Y-116840450D01*
X195413000Y-116551746D01*
X195413000Y-116239254D01*
X195293415Y-115950550D01*
X195090305Y-115747440D01*
X195600000Y-115747440D01*
X195847765Y-115698157D01*
X196040000Y-115569709D01*
X196040001Y-134777477D01*
X195936246Y-134734500D01*
X195623754Y-134734500D01*
X195335050Y-134854085D01*
X195114085Y-135075050D01*
X194994500Y-135363754D01*
X194994500Y-135676246D01*
X195029843Y-135761572D01*
X194896256Y-135735000D01*
X194603744Y-135735000D01*
X194326030Y-135790241D01*
X192511524Y-133975736D01*
X192471847Y-133916355D01*
X192236597Y-133759165D01*
X192029147Y-133717901D01*
X192029142Y-133717901D01*
X191959101Y-133703969D01*
X191889060Y-133717901D01*
X181662659Y-133717901D01*
X181615915Y-133605050D01*
X181394950Y-133384085D01*
X181343322Y-133362700D01*
X191067229Y-133362700D01*
X191137270Y-133376632D01*
X191207311Y-133362700D01*
X191207316Y-133362700D01*
X191414766Y-133321436D01*
X191650016Y-133164246D01*
X191689694Y-133104864D01*
X192704070Y-132090489D01*
X192763446Y-132050815D01*
X192803121Y-131991438D01*
X192803125Y-131991434D01*
X192920636Y-131815567D01*
X192920636Y-131815566D01*
X192920637Y-131815565D01*
X192947114Y-131682454D01*
X193054600Y-131682454D01*
X193054600Y-131994946D01*
X193174185Y-132283650D01*
X193395150Y-132504615D01*
X193683854Y-132624200D01*
X193996346Y-132624200D01*
X194285050Y-132504615D01*
X194506015Y-132283650D01*
X194625600Y-131994946D01*
X194625600Y-131682454D01*
X194506015Y-131393750D01*
X194285050Y-131172785D01*
X193996346Y-131053200D01*
X193683854Y-131053200D01*
X193395150Y-131172785D01*
X193174185Y-131393750D01*
X193054600Y-131682454D01*
X192947114Y-131682454D01*
X192961901Y-131608115D01*
X192961901Y-131608112D01*
X192975833Y-131538070D01*
X192961901Y-131468028D01*
X192961901Y-122496143D01*
X192975833Y-122426101D01*
X192961901Y-122356059D01*
X192961901Y-122356055D01*
X192920637Y-122148605D01*
X192852503Y-122046636D01*
X192803125Y-121972736D01*
X192803123Y-121972734D01*
X192763447Y-121913355D01*
X192704068Y-121873679D01*
X190681415Y-119851027D01*
X190607115Y-119671650D01*
X190386150Y-119450685D01*
X190097446Y-119331100D01*
X189784954Y-119331100D01*
X189496250Y-119450685D01*
X189275285Y-119671650D01*
X189155700Y-119960354D01*
X189155700Y-120272846D01*
X189275285Y-120561550D01*
X189496250Y-120782515D01*
X189675627Y-120856815D01*
X191539502Y-122720691D01*
X191539501Y-129472643D01*
X180523594Y-118456736D01*
X180483916Y-118397354D01*
X180248666Y-118240164D01*
X180041216Y-118198900D01*
X180041211Y-118198900D01*
X179971170Y-118184968D01*
X179901129Y-118198900D01*
X173500122Y-118198900D01*
X173320746Y-118124600D01*
X173035500Y-118124600D01*
X173035500Y-118093754D01*
X172915915Y-117805050D01*
X172694950Y-117584085D01*
X172406246Y-117464500D01*
X172093754Y-117464500D01*
X172000000Y-117503334D01*
X171906246Y-117464500D01*
X171593754Y-117464500D01*
X171305050Y-117584085D01*
X171110670Y-117778465D01*
X170956246Y-117714500D01*
X170643754Y-117714500D01*
X170464378Y-117788800D01*
X170370041Y-117788800D01*
X170299999Y-117774868D01*
X170229957Y-117788800D01*
X170229954Y-117788800D01*
X170022504Y-117830064D01*
X170022503Y-117830065D01*
X170022502Y-117830065D01*
X169846635Y-117947576D01*
X169846633Y-117947578D01*
X169787254Y-117987254D01*
X169747578Y-118046633D01*
X169255911Y-118538301D01*
X168314270Y-118538301D01*
X168415150Y-118496515D01*
X168636115Y-118275550D01*
X168755700Y-117986846D01*
X168755700Y-117674354D01*
X168636115Y-117385650D01*
X168415150Y-117164685D01*
X168219766Y-117083754D01*
X177904500Y-117083754D01*
X177904500Y-117396246D01*
X178024085Y-117684950D01*
X178245050Y-117905915D01*
X178533754Y-118025500D01*
X178846246Y-118025500D01*
X179134950Y-117905915D01*
X179355915Y-117684950D01*
X179475500Y-117396246D01*
X179475500Y-117083754D01*
X179355915Y-116795050D01*
X179134950Y-116574085D01*
X178846246Y-116454500D01*
X178533754Y-116454500D01*
X178245050Y-116574085D01*
X178024085Y-116795050D01*
X177904500Y-117083754D01*
X168219766Y-117083754D01*
X168126446Y-117045100D01*
X167813954Y-117045100D01*
X167525250Y-117164685D01*
X167304285Y-117385650D01*
X167184700Y-117674354D01*
X167184700Y-117986846D01*
X167304285Y-118275550D01*
X167525250Y-118496515D01*
X167626130Y-118538301D01*
X166520541Y-118538301D01*
X166450499Y-118524369D01*
X166380458Y-118538301D01*
X166380453Y-118538301D01*
X166173003Y-118579565D01*
X166083151Y-118639603D01*
X165855050Y-118734085D01*
X165634085Y-118955050D01*
X165514500Y-119243754D01*
X165514500Y-119556246D01*
X165634085Y-119844950D01*
X165722135Y-119933000D01*
X165704085Y-119951050D01*
X165584500Y-120239754D01*
X165584500Y-120552246D01*
X165704085Y-120840950D01*
X165925050Y-121061915D01*
X166213754Y-121181500D01*
X166346500Y-121181500D01*
X166346500Y-121314246D01*
X166466085Y-121602950D01*
X166483673Y-121620538D01*
X162985412Y-125118800D01*
X162685622Y-125118800D01*
X162506246Y-125044500D01*
X162193754Y-125044500D01*
X161905050Y-125164085D01*
X161684085Y-125385050D01*
X161564500Y-125673754D01*
X161564500Y-125986246D01*
X161684085Y-126274950D01*
X161905050Y-126495915D01*
X162193754Y-126615500D01*
X162506246Y-126615500D01*
X162685622Y-126541200D01*
X163209959Y-126541200D01*
X163280000Y-126555132D01*
X163350041Y-126541200D01*
X163350046Y-126541200D01*
X163557496Y-126499936D01*
X163792746Y-126342746D01*
X163832424Y-126283364D01*
X167855574Y-122260215D01*
X168034950Y-122185915D01*
X168255915Y-121964950D01*
X168375500Y-121676246D01*
X168375500Y-121363754D01*
X168255915Y-121075050D01*
X168034950Y-120854085D01*
X167819341Y-120764777D01*
X167797915Y-120713050D01*
X167576950Y-120492085D01*
X167288246Y-120372500D01*
X167155500Y-120372500D01*
X167155500Y-120239754D01*
X167039913Y-119960701D01*
X167716345Y-119960701D01*
X167834085Y-120244950D01*
X168055050Y-120465915D01*
X168343754Y-120585500D01*
X168656246Y-120585500D01*
X168944950Y-120465915D01*
X168960040Y-120450825D01*
X169043754Y-120485500D01*
X169356246Y-120485500D01*
X169644950Y-120365915D01*
X169865915Y-120144950D01*
X169985500Y-119856246D01*
X169985500Y-119814195D01*
X170063245Y-119762247D01*
X170102923Y-119702865D01*
X170288800Y-119516988D01*
X170288801Y-124164376D01*
X170214500Y-124343754D01*
X170214500Y-124656246D01*
X170334085Y-124944950D01*
X170555050Y-125165915D01*
X170843754Y-125285500D01*
X170896203Y-125285500D01*
X170884500Y-125313754D01*
X170884500Y-125626246D01*
X170885346Y-125628289D01*
X170822185Y-125691450D01*
X170702600Y-125980154D01*
X170702600Y-126292646D01*
X170822185Y-126581350D01*
X171043150Y-126802315D01*
X171331854Y-126921900D01*
X171644346Y-126921900D01*
X171933050Y-126802315D01*
X172154015Y-126581350D01*
X172273600Y-126292646D01*
X172273600Y-125980154D01*
X172272754Y-125978111D01*
X172335915Y-125914950D01*
X172455500Y-125626246D01*
X172455500Y-125573754D01*
X173009500Y-125573754D01*
X173009500Y-125886246D01*
X173129085Y-126174950D01*
X173350050Y-126395915D01*
X173638754Y-126515500D01*
X173951246Y-126515500D01*
X174239950Y-126395915D01*
X174460915Y-126174950D01*
X174580500Y-125886246D01*
X174580500Y-125573754D01*
X174460915Y-125285050D01*
X174239950Y-125064085D01*
X173951246Y-124944500D01*
X173638754Y-124944500D01*
X173350050Y-125064085D01*
X173129085Y-125285050D01*
X173009500Y-125573754D01*
X172455500Y-125573754D01*
X172455500Y-125313754D01*
X172335915Y-125025050D01*
X172192246Y-124881381D01*
X172240215Y-124765573D01*
X172681525Y-124324264D01*
X172681527Y-124324261D01*
X172703364Y-124302424D01*
X172762746Y-124262746D01*
X172814360Y-124185500D01*
X172956246Y-124185500D01*
X173244950Y-124065915D01*
X173458500Y-123852365D01*
X173458500Y-123854246D01*
X173578085Y-124142950D01*
X173799050Y-124363915D01*
X174087754Y-124483500D01*
X174400246Y-124483500D01*
X174688950Y-124363915D01*
X174909915Y-124142950D01*
X175029500Y-123854246D01*
X175029500Y-123541754D01*
X174909915Y-123253050D01*
X174688950Y-123032085D01*
X174400246Y-122912500D01*
X174087754Y-122912500D01*
X173799050Y-123032085D01*
X173585500Y-123245635D01*
X173585500Y-123243754D01*
X173465915Y-122955050D01*
X173244950Y-122734085D01*
X172961200Y-122616552D01*
X172961200Y-121086078D01*
X173070085Y-121348950D01*
X173291050Y-121569915D01*
X173579754Y-121689500D01*
X173892246Y-121689500D01*
X174180950Y-121569915D01*
X174401915Y-121348950D01*
X174521500Y-121060246D01*
X174521500Y-120863565D01*
X174598181Y-120863565D01*
X174886885Y-120743980D01*
X175107850Y-120523015D01*
X175227435Y-120234311D01*
X175227435Y-119921819D01*
X175107850Y-119633115D01*
X175096035Y-119621300D01*
X179676582Y-119621300D01*
X180410934Y-120355652D01*
X180267646Y-120296300D01*
X179955154Y-120296300D01*
X179666450Y-120415885D01*
X179445485Y-120636850D01*
X179325900Y-120925554D01*
X179325900Y-121238046D01*
X179445485Y-121526750D01*
X179666450Y-121747715D01*
X179755801Y-121784725D01*
X179755801Y-123248172D01*
X179602950Y-123311485D01*
X179381985Y-123532450D01*
X179262400Y-123821154D01*
X179262400Y-124133646D01*
X179381985Y-124422350D01*
X179602950Y-124643315D01*
X179755801Y-124706628D01*
X179755800Y-130575978D01*
X179681500Y-130755354D01*
X179681500Y-131067846D01*
X179801085Y-131356550D01*
X180022050Y-131577515D01*
X180305385Y-131694876D01*
X180359885Y-131826450D01*
X180473735Y-131940300D01*
X178110222Y-131940300D01*
X177930846Y-131866000D01*
X177618354Y-131866000D01*
X177329650Y-131985585D01*
X177108685Y-132206550D01*
X176989100Y-132495254D01*
X176989100Y-132807746D01*
X177108685Y-133096450D01*
X177329650Y-133317415D01*
X177381278Y-133338800D01*
X174853742Y-133338800D01*
X174846452Y-133321200D01*
X174977459Y-133321200D01*
X175047500Y-133335132D01*
X175117541Y-133321200D01*
X175117546Y-133321200D01*
X175324996Y-133279936D01*
X175560246Y-133122746D01*
X175599924Y-133063364D01*
X176693972Y-131969316D01*
X176873350Y-131895015D01*
X177094315Y-131674050D01*
X177213900Y-131385346D01*
X177213900Y-131072854D01*
X177094315Y-130784150D01*
X176873350Y-130563185D01*
X176584646Y-130443600D01*
X176272154Y-130443600D01*
X176214684Y-130467405D01*
X176808274Y-129873815D01*
X176987650Y-129799515D01*
X177208615Y-129578550D01*
X177328200Y-129289846D01*
X177328200Y-128977354D01*
X177208615Y-128688650D01*
X176987650Y-128467685D01*
X176698946Y-128348100D01*
X176386454Y-128348100D01*
X176097750Y-128467685D01*
X175876785Y-128688650D01*
X175802485Y-128868026D01*
X175172838Y-129497673D01*
X174993750Y-129318585D01*
X174705046Y-129199000D01*
X174392554Y-129199000D01*
X174103850Y-129318585D01*
X173882885Y-129539550D01*
X173763300Y-129828254D01*
X173763300Y-130140746D01*
X173882885Y-130429450D01*
X174061973Y-130608538D01*
X173026135Y-131644377D01*
X172966756Y-131684053D01*
X172927080Y-131743432D01*
X172927077Y-131743435D01*
X172843280Y-131868846D01*
X172809566Y-131919303D01*
X172768301Y-132126753D01*
X172768301Y-132126758D01*
X172754369Y-132196799D01*
X172768301Y-132266840D01*
X172768301Y-132959460D01*
X172754369Y-133029501D01*
X172768301Y-133099542D01*
X172768301Y-133099546D01*
X172809565Y-133306996D01*
X172844708Y-133359591D01*
X172869602Y-133396847D01*
X172964085Y-133624950D01*
X173057036Y-133717901D01*
X172993690Y-133717901D01*
X170850215Y-131574427D01*
X170775915Y-131395050D01*
X170554950Y-131174085D01*
X170266246Y-131054500D01*
X169953754Y-131054500D01*
X169665050Y-131174085D01*
X169444085Y-131395050D01*
X169324500Y-131683754D01*
X169324500Y-131996246D01*
X169444085Y-132284950D01*
X169665050Y-132505915D01*
X169844427Y-132580215D01*
X172121673Y-134857462D01*
X171984085Y-134995050D01*
X171971472Y-135025501D01*
X169809491Y-135025501D01*
X167244311Y-132460322D01*
X167254950Y-132455915D01*
X167475915Y-132234950D01*
X167595500Y-131946246D01*
X167595500Y-131633754D01*
X167475915Y-131345050D01*
X167254950Y-131124085D01*
X166966246Y-131004500D01*
X166653754Y-131004500D01*
X166410402Y-131105300D01*
X166316246Y-131066299D01*
X166003754Y-131066299D01*
X165895000Y-131111346D01*
X165786246Y-131066299D01*
X165473754Y-131066299D01*
X165185050Y-131185884D01*
X164964085Y-131406849D01*
X164963661Y-131407872D01*
X158182424Y-124626636D01*
X158142746Y-124567254D01*
X157907496Y-124410064D01*
X157700046Y-124368800D01*
X157700041Y-124368800D01*
X157630000Y-124354868D01*
X157559959Y-124368800D01*
X144198195Y-124368800D01*
X144208980Y-124358015D01*
X144328565Y-124069311D01*
X144328565Y-123756819D01*
X144274516Y-123626333D01*
X144613095Y-123287754D01*
X159996500Y-123287754D01*
X159996500Y-123600246D01*
X160116085Y-123888950D01*
X160337050Y-124109915D01*
X160625754Y-124229500D01*
X160938246Y-124229500D01*
X161226950Y-124109915D01*
X161447915Y-123888950D01*
X161567500Y-123600246D01*
X161567500Y-123287754D01*
X161447915Y-122999050D01*
X161226950Y-122778085D01*
X160938246Y-122658500D01*
X160625754Y-122658500D01*
X160337050Y-122778085D01*
X160116085Y-122999050D01*
X159996500Y-123287754D01*
X144613095Y-123287754D01*
X145589048Y-122311801D01*
X157830958Y-122311801D01*
X157900999Y-122325733D01*
X157971040Y-122311801D01*
X157971045Y-122311801D01*
X158178495Y-122270537D01*
X158413745Y-122113347D01*
X158453423Y-122053965D01*
X161513100Y-118994288D01*
X161534085Y-119044950D01*
X161755050Y-119265915D01*
X162043754Y-119385500D01*
X162356246Y-119385500D01*
X162644950Y-119265915D01*
X162865915Y-119044950D01*
X162985500Y-118756246D01*
X162985500Y-118443754D01*
X162865915Y-118155050D01*
X162644950Y-117934085D01*
X162594288Y-117913100D01*
X164004768Y-116502621D01*
X164064144Y-116462947D01*
X164103819Y-116403570D01*
X164103823Y-116403566D01*
X164221334Y-116227699D01*
X164221334Y-116227698D01*
X164221335Y-116227697D01*
X164262599Y-116020247D01*
X164262599Y-116020244D01*
X164276531Y-115950202D01*
X164262599Y-115880160D01*
X164262599Y-115617122D01*
X164273110Y-115621476D01*
X164503000Y-115500155D01*
X164503000Y-114307000D01*
X164483000Y-114307000D01*
X164483000Y-114053000D01*
X164503000Y-114053000D01*
X164503000Y-114033000D01*
X164757000Y-114033000D01*
X164757000Y-114053000D01*
X164777000Y-114053000D01*
X164777000Y-114307000D01*
X164757000Y-114307000D01*
X164757000Y-115500155D01*
X164986890Y-115621476D01*
X165396924Y-115451645D01*
X165825183Y-115061358D01*
X165886157Y-114931522D01*
X166099375Y-115250625D01*
X166590582Y-115578839D01*
X167023744Y-115665000D01*
X167316256Y-115665000D01*
X167749418Y-115578839D01*
X168240625Y-115250625D01*
X168568839Y-114759418D01*
X168684092Y-114180000D01*
X168568839Y-113600582D01*
X168240625Y-113109375D01*
X167942239Y-112910000D01*
X168240625Y-112710625D01*
X168345442Y-112553754D01*
X173494500Y-112553754D01*
X173494500Y-112866246D01*
X173614085Y-113154950D01*
X173835050Y-113375915D01*
X174123754Y-113495500D01*
X174436246Y-113495500D01*
X174724950Y-113375915D01*
X174945915Y-113154950D01*
X175065500Y-112866246D01*
X175065500Y-112553754D01*
X174945915Y-112265050D01*
X174724950Y-112044085D01*
X174436246Y-111924500D01*
X174123754Y-111924500D01*
X173835050Y-112044085D01*
X173614085Y-112265050D01*
X173494500Y-112553754D01*
X168345442Y-112553754D01*
X168568839Y-112219418D01*
X168684092Y-111640000D01*
X168568839Y-111060582D01*
X168240625Y-110569375D01*
X168076934Y-110460000D01*
X181247829Y-110460000D01*
X180979375Y-110639375D01*
X180979375Y-110639375D01*
G37*
X180979375Y-110639375D02*
X180651161Y-111130582D01*
X180535908Y-111710000D01*
X180651161Y-112289418D01*
X180979375Y-112780625D01*
X181277761Y-112980000D01*
X180979375Y-113179375D01*
X180651161Y-113670582D01*
X180535908Y-114250000D01*
X180651161Y-114829418D01*
X180979375Y-115320625D01*
X181470582Y-115648839D01*
X181903744Y-115735000D01*
X182124835Y-115735000D01*
X182074385Y-115785450D01*
X181954800Y-116074154D01*
X181954800Y-116386646D01*
X182074385Y-116675350D01*
X182295350Y-116896315D01*
X182584054Y-117015900D01*
X182896546Y-117015900D01*
X183075922Y-116941600D01*
X194062735Y-116941600D01*
X194182550Y-117061415D01*
X194471254Y-117181000D01*
X194783746Y-117181000D01*
X195072450Y-117061415D01*
X195293415Y-116840450D01*
X195413000Y-116551746D01*
X195413000Y-116239254D01*
X195293415Y-115950550D01*
X195090305Y-115747440D01*
X195600000Y-115747440D01*
X195847765Y-115698157D01*
X196040000Y-115569709D01*
X196040001Y-134777477D01*
X195936246Y-134734500D01*
X195623754Y-134734500D01*
X195335050Y-134854085D01*
X195114085Y-135075050D01*
X194994500Y-135363754D01*
X194994500Y-135676246D01*
X195029843Y-135761572D01*
X194896256Y-135735000D01*
X194603744Y-135735000D01*
X194326030Y-135790241D01*
X192511524Y-133975736D01*
X192471847Y-133916355D01*
X192236597Y-133759165D01*
X192029147Y-133717901D01*
X192029142Y-133717901D01*
X191959101Y-133703969D01*
X191889060Y-133717901D01*
X181662659Y-133717901D01*
X181615915Y-133605050D01*
X181394950Y-133384085D01*
X181343322Y-133362700D01*
X191067229Y-133362700D01*
X191137270Y-133376632D01*
X191207311Y-133362700D01*
X191207316Y-133362700D01*
X191414766Y-133321436D01*
X191650016Y-133164246D01*
X191689694Y-133104864D01*
X192704070Y-132090489D01*
X192763446Y-132050815D01*
X192803121Y-131991438D01*
X192803125Y-131991434D01*
X192920636Y-131815567D01*
X192920636Y-131815566D01*
X192920637Y-131815565D01*
X192947114Y-131682454D01*
X193054600Y-131682454D01*
X193054600Y-131994946D01*
X193174185Y-132283650D01*
X193395150Y-132504615D01*
X193683854Y-132624200D01*
X193996346Y-132624200D01*
X194285050Y-132504615D01*
X194506015Y-132283650D01*
X194625600Y-131994946D01*
X194625600Y-131682454D01*
X194506015Y-131393750D01*
X194285050Y-131172785D01*
X193996346Y-131053200D01*
X193683854Y-131053200D01*
X193395150Y-131172785D01*
X193174185Y-131393750D01*
X193054600Y-131682454D01*
X192947114Y-131682454D01*
X192961901Y-131608115D01*
X192961901Y-131608112D01*
X192975833Y-131538070D01*
X192961901Y-131468028D01*
X192961901Y-122496143D01*
X192975833Y-122426101D01*
X192961901Y-122356059D01*
X192961901Y-122356055D01*
X192920637Y-122148605D01*
X192852503Y-122046636D01*
X192803125Y-121972736D01*
X192803123Y-121972734D01*
X192763447Y-121913355D01*
X192704068Y-121873679D01*
X190681415Y-119851027D01*
X190607115Y-119671650D01*
X190386150Y-119450685D01*
X190097446Y-119331100D01*
X189784954Y-119331100D01*
X189496250Y-119450685D01*
X189275285Y-119671650D01*
X189155700Y-119960354D01*
X189155700Y-120272846D01*
X189275285Y-120561550D01*
X189496250Y-120782515D01*
X189675627Y-120856815D01*
X191539502Y-122720691D01*
X191539501Y-129472643D01*
X180523594Y-118456736D01*
X180483916Y-118397354D01*
X180248666Y-118240164D01*
X180041216Y-118198900D01*
X180041211Y-118198900D01*
X179971170Y-118184968D01*
X179901129Y-118198900D01*
X173500122Y-118198900D01*
X173320746Y-118124600D01*
X173035500Y-118124600D01*
X173035500Y-118093754D01*
X172915915Y-117805050D01*
X172694950Y-117584085D01*
X172406246Y-117464500D01*
X172093754Y-117464500D01*
X172000000Y-117503334D01*
X171906246Y-117464500D01*
X171593754Y-117464500D01*
X171305050Y-117584085D01*
X171110670Y-117778465D01*
X170956246Y-117714500D01*
X170643754Y-117714500D01*
X170464378Y-117788800D01*
X170370041Y-117788800D01*
X170299999Y-117774868D01*
X170229957Y-117788800D01*
X170229954Y-117788800D01*
X170022504Y-117830064D01*
X170022503Y-117830065D01*
X170022502Y-117830065D01*
X169846635Y-117947576D01*
X169846633Y-117947578D01*
X169787254Y-117987254D01*
X169747578Y-118046633D01*
X169255911Y-118538301D01*
X168314270Y-118538301D01*
X168415150Y-118496515D01*
X168636115Y-118275550D01*
X168755700Y-117986846D01*
X168755700Y-117674354D01*
X168636115Y-117385650D01*
X168415150Y-117164685D01*
X168219766Y-117083754D01*
X177904500Y-117083754D01*
X177904500Y-117396246D01*
X178024085Y-117684950D01*
X178245050Y-117905915D01*
X178533754Y-118025500D01*
X178846246Y-118025500D01*
X179134950Y-117905915D01*
X179355915Y-117684950D01*
X179475500Y-117396246D01*
X179475500Y-117083754D01*
X179355915Y-116795050D01*
X179134950Y-116574085D01*
X178846246Y-116454500D01*
X178533754Y-116454500D01*
X178245050Y-116574085D01*
X178024085Y-116795050D01*
X177904500Y-117083754D01*
X168219766Y-117083754D01*
X168126446Y-117045100D01*
X167813954Y-117045100D01*
X167525250Y-117164685D01*
X167304285Y-117385650D01*
X167184700Y-117674354D01*
X167184700Y-117986846D01*
X167304285Y-118275550D01*
X167525250Y-118496515D01*
X167626130Y-118538301D01*
X166520541Y-118538301D01*
X166450499Y-118524369D01*
X166380458Y-118538301D01*
X166380453Y-118538301D01*
X166173003Y-118579565D01*
X166083151Y-118639603D01*
X165855050Y-118734085D01*
X165634085Y-118955050D01*
X165514500Y-119243754D01*
X165514500Y-119556246D01*
X165634085Y-119844950D01*
X165722135Y-119933000D01*
X165704085Y-119951050D01*
X165584500Y-120239754D01*
X165584500Y-120552246D01*
X165704085Y-120840950D01*
X165925050Y-121061915D01*
X166213754Y-121181500D01*
X166346500Y-121181500D01*
X166346500Y-121314246D01*
X166466085Y-121602950D01*
X166483673Y-121620538D01*
X162985412Y-125118800D01*
X162685622Y-125118800D01*
X162506246Y-125044500D01*
X162193754Y-125044500D01*
X161905050Y-125164085D01*
X161684085Y-125385050D01*
X161564500Y-125673754D01*
X161564500Y-125986246D01*
X161684085Y-126274950D01*
X161905050Y-126495915D01*
X162193754Y-126615500D01*
X162506246Y-126615500D01*
X162685622Y-126541200D01*
X163209959Y-126541200D01*
X163280000Y-126555132D01*
X163350041Y-126541200D01*
X163350046Y-126541200D01*
X163557496Y-126499936D01*
X163792746Y-126342746D01*
X163832424Y-126283364D01*
X167855574Y-122260215D01*
X168034950Y-122185915D01*
X168255915Y-121964950D01*
X168375500Y-121676246D01*
X168375500Y-121363754D01*
X168255915Y-121075050D01*
X168034950Y-120854085D01*
X167819341Y-120764777D01*
X167797915Y-120713050D01*
X167576950Y-120492085D01*
X167288246Y-120372500D01*
X167155500Y-120372500D01*
X167155500Y-120239754D01*
X167039913Y-119960701D01*
X167716345Y-119960701D01*
X167834085Y-120244950D01*
X168055050Y-120465915D01*
X168343754Y-120585500D01*
X168656246Y-120585500D01*
X168944950Y-120465915D01*
X168960040Y-120450825D01*
X169043754Y-120485500D01*
X169356246Y-120485500D01*
X169644950Y-120365915D01*
X169865915Y-120144950D01*
X169985500Y-119856246D01*
X169985500Y-119814195D01*
X170063245Y-119762247D01*
X170102923Y-119702865D01*
X170288800Y-119516988D01*
X170288801Y-124164376D01*
X170214500Y-124343754D01*
X170214500Y-124656246D01*
X170334085Y-124944950D01*
X170555050Y-125165915D01*
X170843754Y-125285500D01*
X170896203Y-125285500D01*
X170884500Y-125313754D01*
X170884500Y-125626246D01*
X170885346Y-125628289D01*
X170822185Y-125691450D01*
X170702600Y-125980154D01*
X170702600Y-126292646D01*
X170822185Y-126581350D01*
X171043150Y-126802315D01*
X171331854Y-126921900D01*
X171644346Y-126921900D01*
X171933050Y-126802315D01*
X172154015Y-126581350D01*
X172273600Y-126292646D01*
X172273600Y-125980154D01*
X172272754Y-125978111D01*
X172335915Y-125914950D01*
X172455500Y-125626246D01*
X172455500Y-125573754D01*
X173009500Y-125573754D01*
X173009500Y-125886246D01*
X173129085Y-126174950D01*
X173350050Y-126395915D01*
X173638754Y-126515500D01*
X173951246Y-126515500D01*
X174239950Y-126395915D01*
X174460915Y-126174950D01*
X174580500Y-125886246D01*
X174580500Y-125573754D01*
X174460915Y-125285050D01*
X174239950Y-125064085D01*
X173951246Y-124944500D01*
X173638754Y-124944500D01*
X173350050Y-125064085D01*
X173129085Y-125285050D01*
X173009500Y-125573754D01*
X172455500Y-125573754D01*
X172455500Y-125313754D01*
X172335915Y-125025050D01*
X172192246Y-124881381D01*
X172240215Y-124765573D01*
X172681525Y-124324264D01*
X172681527Y-124324261D01*
X172703364Y-124302424D01*
X172762746Y-124262746D01*
X172814360Y-124185500D01*
X172956246Y-124185500D01*
X173244950Y-124065915D01*
X173458500Y-123852365D01*
X173458500Y-123854246D01*
X173578085Y-124142950D01*
X173799050Y-124363915D01*
X174087754Y-124483500D01*
X174400246Y-124483500D01*
X174688950Y-124363915D01*
X174909915Y-124142950D01*
X175029500Y-123854246D01*
X175029500Y-123541754D01*
X174909915Y-123253050D01*
X174688950Y-123032085D01*
X174400246Y-122912500D01*
X174087754Y-122912500D01*
X173799050Y-123032085D01*
X173585500Y-123245635D01*
X173585500Y-123243754D01*
X173465915Y-122955050D01*
X173244950Y-122734085D01*
X172961200Y-122616552D01*
X172961200Y-121086078D01*
X173070085Y-121348950D01*
X173291050Y-121569915D01*
X173579754Y-121689500D01*
X173892246Y-121689500D01*
X174180950Y-121569915D01*
X174401915Y-121348950D01*
X174521500Y-121060246D01*
X174521500Y-120863565D01*
X174598181Y-120863565D01*
X174886885Y-120743980D01*
X175107850Y-120523015D01*
X175227435Y-120234311D01*
X175227435Y-119921819D01*
X175107850Y-119633115D01*
X175096035Y-119621300D01*
X179676582Y-119621300D01*
X180410934Y-120355652D01*
X180267646Y-120296300D01*
X179955154Y-120296300D01*
X179666450Y-120415885D01*
X179445485Y-120636850D01*
X179325900Y-120925554D01*
X179325900Y-121238046D01*
X179445485Y-121526750D01*
X179666450Y-121747715D01*
X179755801Y-121784725D01*
X179755801Y-123248172D01*
X179602950Y-123311485D01*
X179381985Y-123532450D01*
X179262400Y-123821154D01*
X179262400Y-124133646D01*
X179381985Y-124422350D01*
X179602950Y-124643315D01*
X179755801Y-124706628D01*
X179755800Y-130575978D01*
X179681500Y-130755354D01*
X179681500Y-131067846D01*
X179801085Y-131356550D01*
X180022050Y-131577515D01*
X180305385Y-131694876D01*
X180359885Y-131826450D01*
X180473735Y-131940300D01*
X178110222Y-131940300D01*
X177930846Y-131866000D01*
X177618354Y-131866000D01*
X177329650Y-131985585D01*
X177108685Y-132206550D01*
X176989100Y-132495254D01*
X176989100Y-132807746D01*
X177108685Y-133096450D01*
X177329650Y-133317415D01*
X177381278Y-133338800D01*
X174853742Y-133338800D01*
X174846452Y-133321200D01*
X174977459Y-133321200D01*
X175047500Y-133335132D01*
X175117541Y-133321200D01*
X175117546Y-133321200D01*
X175324996Y-133279936D01*
X175560246Y-133122746D01*
X175599924Y-133063364D01*
X176693972Y-131969316D01*
X176873350Y-131895015D01*
X177094315Y-131674050D01*
X177213900Y-131385346D01*
X177213900Y-131072854D01*
X177094315Y-130784150D01*
X176873350Y-130563185D01*
X176584646Y-130443600D01*
X176272154Y-130443600D01*
X176214684Y-130467405D01*
X176808274Y-129873815D01*
X176987650Y-129799515D01*
X177208615Y-129578550D01*
X177328200Y-129289846D01*
X177328200Y-128977354D01*
X177208615Y-128688650D01*
X176987650Y-128467685D01*
X176698946Y-128348100D01*
X176386454Y-128348100D01*
X176097750Y-128467685D01*
X175876785Y-128688650D01*
X175802485Y-128868026D01*
X175172838Y-129497673D01*
X174993750Y-129318585D01*
X174705046Y-129199000D01*
X174392554Y-129199000D01*
X174103850Y-129318585D01*
X173882885Y-129539550D01*
X173763300Y-129828254D01*
X173763300Y-130140746D01*
X173882885Y-130429450D01*
X174061973Y-130608538D01*
X173026135Y-131644377D01*
X172966756Y-131684053D01*
X172927080Y-131743432D01*
X172927077Y-131743435D01*
X172843280Y-131868846D01*
X172809566Y-131919303D01*
X172768301Y-132126753D01*
X172768301Y-132126758D01*
X172754369Y-132196799D01*
X172768301Y-132266840D01*
X172768301Y-132959460D01*
X172754369Y-133029501D01*
X172768301Y-133099542D01*
X172768301Y-133099546D01*
X172809565Y-133306996D01*
X172844708Y-133359591D01*
X172869602Y-133396847D01*
X172964085Y-133624950D01*
X173057036Y-133717901D01*
X172993690Y-133717901D01*
X170850215Y-131574427D01*
X170775915Y-131395050D01*
X170554950Y-131174085D01*
X170266246Y-131054500D01*
X169953754Y-131054500D01*
X169665050Y-131174085D01*
X169444085Y-131395050D01*
X169324500Y-131683754D01*
X169324500Y-131996246D01*
X169444085Y-132284950D01*
X169665050Y-132505915D01*
X169844427Y-132580215D01*
X172121673Y-134857462D01*
X171984085Y-134995050D01*
X171971472Y-135025501D01*
X169809491Y-135025501D01*
X167244311Y-132460322D01*
X167254950Y-132455915D01*
X167475915Y-132234950D01*
X167595500Y-131946246D01*
X167595500Y-131633754D01*
X167475915Y-131345050D01*
X167254950Y-131124085D01*
X166966246Y-131004500D01*
X166653754Y-131004500D01*
X166410402Y-131105300D01*
X166316246Y-131066299D01*
X166003754Y-131066299D01*
X165895000Y-131111346D01*
X165786246Y-131066299D01*
X165473754Y-131066299D01*
X165185050Y-131185884D01*
X164964085Y-131406849D01*
X164963661Y-131407872D01*
X158182424Y-124626636D01*
X158142746Y-124567254D01*
X157907496Y-124410064D01*
X157700046Y-124368800D01*
X157700041Y-124368800D01*
X157630000Y-124354868D01*
X157559959Y-124368800D01*
X144198195Y-124368800D01*
X144208980Y-124358015D01*
X144328565Y-124069311D01*
X144328565Y-123756819D01*
X144274516Y-123626333D01*
X144613095Y-123287754D01*
X159996500Y-123287754D01*
X159996500Y-123600246D01*
X160116085Y-123888950D01*
X160337050Y-124109915D01*
X160625754Y-124229500D01*
X160938246Y-124229500D01*
X161226950Y-124109915D01*
X161447915Y-123888950D01*
X161567500Y-123600246D01*
X161567500Y-123287754D01*
X161447915Y-122999050D01*
X161226950Y-122778085D01*
X160938246Y-122658500D01*
X160625754Y-122658500D01*
X160337050Y-122778085D01*
X160116085Y-122999050D01*
X159996500Y-123287754D01*
X144613095Y-123287754D01*
X145589048Y-122311801D01*
X157830958Y-122311801D01*
X157900999Y-122325733D01*
X157971040Y-122311801D01*
X157971045Y-122311801D01*
X158178495Y-122270537D01*
X158413745Y-122113347D01*
X158453423Y-122053965D01*
X161513100Y-118994288D01*
X161534085Y-119044950D01*
X161755050Y-119265915D01*
X162043754Y-119385500D01*
X162356246Y-119385500D01*
X162644950Y-119265915D01*
X162865915Y-119044950D01*
X162985500Y-118756246D01*
X162985500Y-118443754D01*
X162865915Y-118155050D01*
X162644950Y-117934085D01*
X162594288Y-117913100D01*
X164004768Y-116502621D01*
X164064144Y-116462947D01*
X164103819Y-116403570D01*
X164103823Y-116403566D01*
X164221334Y-116227699D01*
X164221334Y-116227698D01*
X164221335Y-116227697D01*
X164262599Y-116020247D01*
X164262599Y-116020244D01*
X164276531Y-115950202D01*
X164262599Y-115880160D01*
X164262599Y-115617122D01*
X164273110Y-115621476D01*
X164503000Y-115500155D01*
X164503000Y-114307000D01*
X164483000Y-114307000D01*
X164483000Y-114053000D01*
X164503000Y-114053000D01*
X164503000Y-114033000D01*
X164757000Y-114033000D01*
X164757000Y-114053000D01*
X164777000Y-114053000D01*
X164777000Y-114307000D01*
X164757000Y-114307000D01*
X164757000Y-115500155D01*
X164986890Y-115621476D01*
X165396924Y-115451645D01*
X165825183Y-115061358D01*
X165886157Y-114931522D01*
X166099375Y-115250625D01*
X166590582Y-115578839D01*
X167023744Y-115665000D01*
X167316256Y-115665000D01*
X167749418Y-115578839D01*
X168240625Y-115250625D01*
X168568839Y-114759418D01*
X168684092Y-114180000D01*
X168568839Y-113600582D01*
X168240625Y-113109375D01*
X167942239Y-112910000D01*
X168240625Y-112710625D01*
X168345442Y-112553754D01*
X173494500Y-112553754D01*
X173494500Y-112866246D01*
X173614085Y-113154950D01*
X173835050Y-113375915D01*
X174123754Y-113495500D01*
X174436246Y-113495500D01*
X174724950Y-113375915D01*
X174945915Y-113154950D01*
X175065500Y-112866246D01*
X175065500Y-112553754D01*
X174945915Y-112265050D01*
X174724950Y-112044085D01*
X174436246Y-111924500D01*
X174123754Y-111924500D01*
X173835050Y-112044085D01*
X173614085Y-112265050D01*
X173494500Y-112553754D01*
X168345442Y-112553754D01*
X168568839Y-112219418D01*
X168684092Y-111640000D01*
X168568839Y-111060582D01*
X168240625Y-110569375D01*
X168076934Y-110460000D01*
X181247829Y-110460000D01*
X180979375Y-110639375D01*
G36*
X153928800Y-133023707D02*
X153928801Y-133943012D01*
X151050215Y-131064427D01*
X150975915Y-130885050D01*
X150754950Y-130664085D01*
X150466246Y-130544500D01*
X150153754Y-130544500D01*
X149865050Y-130664085D01*
X149644085Y-130885050D01*
X149524500Y-131173754D01*
X149524500Y-131486246D01*
X149644085Y-131774950D01*
X149865050Y-131995915D01*
X150044427Y-132070215D01*
X152583011Y-134608800D01*
X148994589Y-134608800D01*
X144166988Y-129781200D01*
X150686294Y-129781200D01*
X153928800Y-133023707D01*
X153928800Y-133023707D01*
G37*
X153928800Y-133023707D02*
X153928801Y-133943012D01*
X151050215Y-131064427D01*
X150975915Y-130885050D01*
X150754950Y-130664085D01*
X150466246Y-130544500D01*
X150153754Y-130544500D01*
X149865050Y-130664085D01*
X149644085Y-130885050D01*
X149524500Y-131173754D01*
X149524500Y-131486246D01*
X149644085Y-131774950D01*
X149865050Y-131995915D01*
X150044427Y-132070215D01*
X152583011Y-134608800D01*
X148994589Y-134608800D01*
X144166988Y-129781200D01*
X150686294Y-129781200D01*
X153928800Y-133023707D01*
G36*
X135254500Y-127326354D02*
X135254500Y-127638846D01*
X135359317Y-127891897D01*
X135256900Y-128139154D01*
X135256900Y-128314500D01*
X135083754Y-128314500D01*
X134847071Y-128412537D01*
X134586246Y-128304500D01*
X134425500Y-128304500D01*
X134425500Y-128280800D01*
X134598446Y-128280800D01*
X134887150Y-128161215D01*
X135108115Y-127940250D01*
X135227700Y-127651546D01*
X135227700Y-127339054D01*
X135227159Y-127337747D01*
X135265777Y-127299130D01*
X135254500Y-127326354D01*
X135254500Y-127326354D01*
G37*
X135254500Y-127326354D02*
X135254500Y-127638846D01*
X135359317Y-127891897D01*
X135256900Y-128139154D01*
X135256900Y-128314500D01*
X135083754Y-128314500D01*
X134847071Y-128412537D01*
X134586246Y-128304500D01*
X134425500Y-128304500D01*
X134425500Y-128280800D01*
X134598446Y-128280800D01*
X134887150Y-128161215D01*
X135108115Y-127940250D01*
X135227700Y-127651546D01*
X135227700Y-127339054D01*
X135227159Y-127337747D01*
X135265777Y-127299130D01*
X135254500Y-127326354D01*
G36*
X131816311Y-124837901D02*
X128108072Y-124837901D01*
X128038030Y-124823969D01*
X127967988Y-124837901D01*
X127967985Y-124837901D01*
X127760535Y-124879165D01*
X127760534Y-124879166D01*
X127760533Y-124879166D01*
X127584666Y-124996677D01*
X127584664Y-124996679D01*
X127525285Y-125036355D01*
X127485609Y-125095734D01*
X124323443Y-128257901D01*
X123890726Y-128257901D01*
X127516529Y-124632099D01*
X132022112Y-124632099D01*
X131816311Y-124837901D01*
X131816311Y-124837901D01*
G37*
X131816311Y-124837901D02*
X128108072Y-124837901D01*
X128038030Y-124823969D01*
X127967988Y-124837901D01*
X127967985Y-124837901D01*
X127760535Y-124879165D01*
X127760534Y-124879166D01*
X127760533Y-124879166D01*
X127584666Y-124996677D01*
X127584664Y-124996679D01*
X127525285Y-125036355D01*
X127485609Y-125095734D01*
X124323443Y-128257901D01*
X123890726Y-128257901D01*
X127516529Y-124632099D01*
X132022112Y-124632099D01*
X131816311Y-124837901D01*
G36*
X128579375Y-115320625D02*
X129070582Y-115648839D01*
X129503744Y-115735000D01*
X129796256Y-115735000D01*
X129935001Y-115707402D01*
X129935001Y-118633321D01*
X129921069Y-118703362D01*
X129931241Y-118754500D01*
X129923754Y-118754500D01*
X129635050Y-118874085D01*
X129414085Y-119095050D01*
X129294500Y-119383754D01*
X129294500Y-119696246D01*
X129414085Y-119984950D01*
X129635050Y-120205915D01*
X129923754Y-120325500D01*
X130236246Y-120325500D01*
X130434500Y-120243381D01*
X130434500Y-120266246D01*
X130554085Y-120554950D01*
X130775050Y-120775915D01*
X131063754Y-120895500D01*
X131376246Y-120895500D01*
X131664950Y-120775915D01*
X131688958Y-120751907D01*
X132056500Y-121119450D01*
X132056500Y-121188800D01*
X122470042Y-121188800D01*
X122400000Y-121174868D01*
X122329958Y-121188800D01*
X122329954Y-121188800D01*
X122122504Y-121230064D01*
X122083320Y-121256246D01*
X121946635Y-121347576D01*
X121946633Y-121347578D01*
X121887254Y-121387254D01*
X121847578Y-121446633D01*
X119724427Y-123569785D01*
X119545050Y-123644085D01*
X119324085Y-123865050D01*
X119204500Y-124153754D01*
X119204500Y-124466246D01*
X119324085Y-124754950D01*
X119545050Y-124975915D01*
X119833754Y-125095500D01*
X120021512Y-125095500D01*
X119988800Y-125259955D01*
X119988800Y-125259959D01*
X119974868Y-125330000D01*
X119988800Y-125400042D01*
X119988801Y-127044082D01*
X117672792Y-124728073D01*
X117725915Y-124674950D01*
X117845500Y-124386246D01*
X117845500Y-124349218D01*
X118342620Y-123852099D01*
X118819060Y-123852099D01*
X118889101Y-123866031D01*
X118959142Y-123852099D01*
X118959147Y-123852099D01*
X119166597Y-123810835D01*
X119401847Y-123653645D01*
X119441525Y-123594263D01*
X123812034Y-119223754D01*
X127230500Y-119223754D01*
X127230500Y-119536246D01*
X127350085Y-119824950D01*
X127571050Y-120045915D01*
X127859754Y-120165500D01*
X128172246Y-120165500D01*
X128460950Y-120045915D01*
X128681915Y-119824950D01*
X128801500Y-119536246D01*
X128801500Y-119223754D01*
X128681915Y-118935050D01*
X128460950Y-118714085D01*
X128172246Y-118594500D01*
X127859754Y-118594500D01*
X127571050Y-118714085D01*
X127350085Y-118935050D01*
X127230500Y-119223754D01*
X123812034Y-119223754D01*
X125915574Y-117120215D01*
X126094950Y-117045915D01*
X126315915Y-116824950D01*
X126435500Y-116536246D01*
X126435500Y-116223754D01*
X126315915Y-115935050D01*
X126094950Y-115714085D01*
X125806246Y-115594500D01*
X125493754Y-115594500D01*
X125205050Y-115714085D01*
X124984085Y-115935050D01*
X124909785Y-116114426D01*
X123564260Y-117459951D01*
X123406246Y-117394500D01*
X123093754Y-117394500D01*
X122805050Y-117514085D01*
X122584085Y-117735050D01*
X122538749Y-117844500D01*
X122373754Y-117844500D01*
X122085050Y-117964085D01*
X121864085Y-118185050D01*
X121744500Y-118473754D01*
X121744500Y-118786246D01*
X121864085Y-119074950D01*
X121906673Y-119117538D01*
X118594513Y-122429699D01*
X118118073Y-122429699D01*
X118048031Y-122415767D01*
X117977989Y-122429699D01*
X117977985Y-122429699D01*
X117770535Y-122470963D01*
X117710367Y-122511166D01*
X117594666Y-122588475D01*
X117594664Y-122588477D01*
X117535285Y-122628153D01*
X117495609Y-122687532D01*
X116621890Y-123561252D01*
X116615050Y-123564085D01*
X116594558Y-123584577D01*
X116555436Y-123610718D01*
X114124999Y-121180281D01*
X114124999Y-115707402D01*
X114263744Y-115735000D01*
X114556256Y-115735000D01*
X114989418Y-115648839D01*
X115480625Y-115320625D01*
X115680000Y-115022239D01*
X115879375Y-115320625D01*
X116370582Y-115648839D01*
X116803744Y-115735000D01*
X117096256Y-115735000D01*
X117529418Y-115648839D01*
X118020625Y-115320625D01*
X118220000Y-115022239D01*
X118419375Y-115320625D01*
X118910582Y-115648839D01*
X119343744Y-115735000D01*
X119636256Y-115735000D01*
X120069418Y-115648839D01*
X120560625Y-115320625D01*
X120760000Y-115022239D01*
X120959375Y-115320625D01*
X121450582Y-115648839D01*
X121883744Y-115735000D01*
X122176256Y-115735000D01*
X122609418Y-115648839D01*
X123100625Y-115320625D01*
X123300000Y-115022239D01*
X123499375Y-115320625D01*
X123990582Y-115648839D01*
X124423744Y-115735000D01*
X124716256Y-115735000D01*
X125149418Y-115648839D01*
X125640625Y-115320625D01*
X125840000Y-115022239D01*
X126039375Y-115320625D01*
X126530582Y-115648839D01*
X126963744Y-115735000D01*
X127256256Y-115735000D01*
X127689418Y-115648839D01*
X128180625Y-115320625D01*
X128380000Y-115022239D01*
X128579375Y-115320625D01*
X128579375Y-115320625D01*
G37*
X128579375Y-115320625D02*
X129070582Y-115648839D01*
X129503744Y-115735000D01*
X129796256Y-115735000D01*
X129935001Y-115707402D01*
X129935001Y-118633321D01*
X129921069Y-118703362D01*
X129931241Y-118754500D01*
X129923754Y-118754500D01*
X129635050Y-118874085D01*
X129414085Y-119095050D01*
X129294500Y-119383754D01*
X129294500Y-119696246D01*
X129414085Y-119984950D01*
X129635050Y-120205915D01*
X129923754Y-120325500D01*
X130236246Y-120325500D01*
X130434500Y-120243381D01*
X130434500Y-120266246D01*
X130554085Y-120554950D01*
X130775050Y-120775915D01*
X131063754Y-120895500D01*
X131376246Y-120895500D01*
X131664950Y-120775915D01*
X131688958Y-120751907D01*
X132056500Y-121119450D01*
X132056500Y-121188800D01*
X122470042Y-121188800D01*
X122400000Y-121174868D01*
X122329958Y-121188800D01*
X122329954Y-121188800D01*
X122122504Y-121230064D01*
X122083320Y-121256246D01*
X121946635Y-121347576D01*
X121946633Y-121347578D01*
X121887254Y-121387254D01*
X121847578Y-121446633D01*
X119724427Y-123569785D01*
X119545050Y-123644085D01*
X119324085Y-123865050D01*
X119204500Y-124153754D01*
X119204500Y-124466246D01*
X119324085Y-124754950D01*
X119545050Y-124975915D01*
X119833754Y-125095500D01*
X120021512Y-125095500D01*
X119988800Y-125259955D01*
X119988800Y-125259959D01*
X119974868Y-125330000D01*
X119988800Y-125400042D01*
X119988801Y-127044082D01*
X117672792Y-124728073D01*
X117725915Y-124674950D01*
X117845500Y-124386246D01*
X117845500Y-124349218D01*
X118342620Y-123852099D01*
X118819060Y-123852099D01*
X118889101Y-123866031D01*
X118959142Y-123852099D01*
X118959147Y-123852099D01*
X119166597Y-123810835D01*
X119401847Y-123653645D01*
X119441525Y-123594263D01*
X123812034Y-119223754D01*
X127230500Y-119223754D01*
X127230500Y-119536246D01*
X127350085Y-119824950D01*
X127571050Y-120045915D01*
X127859754Y-120165500D01*
X128172246Y-120165500D01*
X128460950Y-120045915D01*
X128681915Y-119824950D01*
X128801500Y-119536246D01*
X128801500Y-119223754D01*
X128681915Y-118935050D01*
X128460950Y-118714085D01*
X128172246Y-118594500D01*
X127859754Y-118594500D01*
X127571050Y-118714085D01*
X127350085Y-118935050D01*
X127230500Y-119223754D01*
X123812034Y-119223754D01*
X125915574Y-117120215D01*
X126094950Y-117045915D01*
X126315915Y-116824950D01*
X126435500Y-116536246D01*
X126435500Y-116223754D01*
X126315915Y-115935050D01*
X126094950Y-115714085D01*
X125806246Y-115594500D01*
X125493754Y-115594500D01*
X125205050Y-115714085D01*
X124984085Y-115935050D01*
X124909785Y-116114426D01*
X123564260Y-117459951D01*
X123406246Y-117394500D01*
X123093754Y-117394500D01*
X122805050Y-117514085D01*
X122584085Y-117735050D01*
X122538749Y-117844500D01*
X122373754Y-117844500D01*
X122085050Y-117964085D01*
X121864085Y-118185050D01*
X121744500Y-118473754D01*
X121744500Y-118786246D01*
X121864085Y-119074950D01*
X121906673Y-119117538D01*
X118594513Y-122429699D01*
X118118073Y-122429699D01*
X118048031Y-122415767D01*
X117977989Y-122429699D01*
X117977985Y-122429699D01*
X117770535Y-122470963D01*
X117710367Y-122511166D01*
X117594666Y-122588475D01*
X117594664Y-122588477D01*
X117535285Y-122628153D01*
X117495609Y-122687532D01*
X116621890Y-123561252D01*
X116615050Y-123564085D01*
X116594558Y-123584577D01*
X116555436Y-123610718D01*
X114124999Y-121180281D01*
X114124999Y-115707402D01*
X114263744Y-115735000D01*
X114556256Y-115735000D01*
X114989418Y-115648839D01*
X115480625Y-115320625D01*
X115680000Y-115022239D01*
X115879375Y-115320625D01*
X116370582Y-115648839D01*
X116803744Y-115735000D01*
X117096256Y-115735000D01*
X117529418Y-115648839D01*
X118020625Y-115320625D01*
X118220000Y-115022239D01*
X118419375Y-115320625D01*
X118910582Y-115648839D01*
X119343744Y-115735000D01*
X119636256Y-115735000D01*
X120069418Y-115648839D01*
X120560625Y-115320625D01*
X120760000Y-115022239D01*
X120959375Y-115320625D01*
X121450582Y-115648839D01*
X121883744Y-115735000D01*
X122176256Y-115735000D01*
X122609418Y-115648839D01*
X123100625Y-115320625D01*
X123300000Y-115022239D01*
X123499375Y-115320625D01*
X123990582Y-115648839D01*
X124423744Y-115735000D01*
X124716256Y-115735000D01*
X125149418Y-115648839D01*
X125640625Y-115320625D01*
X125840000Y-115022239D01*
X126039375Y-115320625D01*
X126530582Y-115648839D01*
X126963744Y-115735000D01*
X127256256Y-115735000D01*
X127689418Y-115648839D01*
X128180625Y-115320625D01*
X128380000Y-115022239D01*
X128579375Y-115320625D01*
G36*
X135224744Y-122696600D02*
X135180258Y-122696600D01*
X135209458Y-122667400D01*
X135253944Y-122667400D01*
X135224744Y-122696600D01*
X135224744Y-122696600D01*
G37*
X135224744Y-122696600D02*
X135180258Y-122696600D01*
X135209458Y-122667400D01*
X135253944Y-122667400D01*
X135224744Y-122696600D01*
G36*
X155561843Y-110542235D02*
X155512560Y-110790000D01*
X155512560Y-112490000D01*
X155561843Y-112737765D01*
X155702191Y-112947809D01*
X155912235Y-113088157D01*
X155957619Y-113097184D01*
X155939375Y-113109375D01*
X155611161Y-113600582D01*
X155495908Y-114180000D01*
X155611161Y-114759418D01*
X155939375Y-115250625D01*
X156430582Y-115578839D01*
X156863744Y-115665000D01*
X157156256Y-115665000D01*
X157320238Y-115632382D01*
X157303101Y-115673754D01*
X157303101Y-115986246D01*
X157422686Y-116274950D01*
X157643651Y-116495915D01*
X157932355Y-116615500D01*
X158244847Y-116615500D01*
X158533551Y-116495915D01*
X158754516Y-116274950D01*
X158874101Y-115986246D01*
X158874101Y-115673754D01*
X158782819Y-115453380D01*
X158970582Y-115578839D01*
X159403744Y-115665000D01*
X159696256Y-115665000D01*
X160129418Y-115578839D01*
X160244789Y-115501751D01*
X160225899Y-115547355D01*
X160225899Y-115859847D01*
X160345484Y-116148551D01*
X160566449Y-116369516D01*
X160855153Y-116489101D01*
X161167645Y-116489101D01*
X161456349Y-116369516D01*
X161677314Y-116148551D01*
X161796899Y-115859847D01*
X161796899Y-115635791D01*
X161943744Y-115665000D01*
X162236256Y-115665000D01*
X162669418Y-115578839D01*
X162840199Y-115464727D01*
X162840199Y-115655612D01*
X157606411Y-120889401D01*
X150623459Y-120889401D01*
X150576715Y-120776550D01*
X150355750Y-120555585D01*
X150067046Y-120436000D01*
X149754554Y-120436000D01*
X149575178Y-120510300D01*
X149218650Y-120510300D01*
X153959570Y-115769381D01*
X154018946Y-115729707D01*
X154058621Y-115670330D01*
X154058625Y-115670326D01*
X154176136Y-115494459D01*
X154176136Y-115494458D01*
X154176137Y-115494457D01*
X154217401Y-115287007D01*
X154217401Y-115287004D01*
X154231333Y-115216962D01*
X154217401Y-115146920D01*
X154217401Y-112776243D01*
X154231333Y-112706201D01*
X154217401Y-112636160D01*
X154217401Y-112636155D01*
X154176137Y-112428705D01*
X154018947Y-112193455D01*
X153959565Y-112153777D01*
X153939759Y-112133971D01*
X154024092Y-111710000D01*
X153908839Y-111130582D01*
X153580625Y-110639375D01*
X153312171Y-110460000D01*
X155616791Y-110460000D01*
X155561843Y-110542235D01*
X155561843Y-110542235D01*
G37*
X155561843Y-110542235D02*
X155512560Y-110790000D01*
X155512560Y-112490000D01*
X155561843Y-112737765D01*
X155702191Y-112947809D01*
X155912235Y-113088157D01*
X155957619Y-113097184D01*
X155939375Y-113109375D01*
X155611161Y-113600582D01*
X155495908Y-114180000D01*
X155611161Y-114759418D01*
X155939375Y-115250625D01*
X156430582Y-115578839D01*
X156863744Y-115665000D01*
X157156256Y-115665000D01*
X157320238Y-115632382D01*
X157303101Y-115673754D01*
X157303101Y-115986246D01*
X157422686Y-116274950D01*
X157643651Y-116495915D01*
X157932355Y-116615500D01*
X158244847Y-116615500D01*
X158533551Y-116495915D01*
X158754516Y-116274950D01*
X158874101Y-115986246D01*
X158874101Y-115673754D01*
X158782819Y-115453380D01*
X158970582Y-115578839D01*
X159403744Y-115665000D01*
X159696256Y-115665000D01*
X160129418Y-115578839D01*
X160244789Y-115501751D01*
X160225899Y-115547355D01*
X160225899Y-115859847D01*
X160345484Y-116148551D01*
X160566449Y-116369516D01*
X160855153Y-116489101D01*
X161167645Y-116489101D01*
X161456349Y-116369516D01*
X161677314Y-116148551D01*
X161796899Y-115859847D01*
X161796899Y-115635791D01*
X161943744Y-115665000D01*
X162236256Y-115665000D01*
X162669418Y-115578839D01*
X162840199Y-115464727D01*
X162840199Y-115655612D01*
X157606411Y-120889401D01*
X150623459Y-120889401D01*
X150576715Y-120776550D01*
X150355750Y-120555585D01*
X150067046Y-120436000D01*
X149754554Y-120436000D01*
X149575178Y-120510300D01*
X149218650Y-120510300D01*
X153959570Y-115769381D01*
X154018946Y-115729707D01*
X154058621Y-115670330D01*
X154058625Y-115670326D01*
X154176136Y-115494459D01*
X154176136Y-115494458D01*
X154176137Y-115494457D01*
X154217401Y-115287007D01*
X154217401Y-115287004D01*
X154231333Y-115216962D01*
X154217401Y-115146920D01*
X154217401Y-112776243D01*
X154231333Y-112706201D01*
X154217401Y-112636160D01*
X154217401Y-112636155D01*
X154176137Y-112428705D01*
X154018947Y-112193455D01*
X153959565Y-112153777D01*
X153939759Y-112133971D01*
X154024092Y-111710000D01*
X153908839Y-111130582D01*
X153580625Y-110639375D01*
X153312171Y-110460000D01*
X155616791Y-110460000D01*
X155561843Y-110542235D01*
G04 #@! TD*
M02*
