G04 #@! TF.GenerationSoftware,KiCad,Pcbnew,5.0.0-rc2-dev-unknown-6940f92~62~ubuntu16.04.1*
G04 #@! TF.CreationDate,2018-03-25T22:17:42+02:00*
G04 #@! TF.ProjectId,roboy_sno,726F626F795F736E6F2E6B696361645F,rev?*
G04 #@! TF.SameCoordinates,Original*
G04 #@! TF.FileFunction,Paste,Top*
G04 #@! TF.FilePolarity,Positive*
%FSLAX46Y46*%
G04 Gerber Fmt 4.6, Leading zero omitted, Abs format (unit mm)*
G04 Created by KiCad (PCBNEW 5.0.0-rc2-dev-unknown-6940f92~62~ubuntu16.04.1) date Sun Mar 25 22:17:42 2018*
%MOMM*%
%LPD*%
G01*
G04 APERTURE LIST*
%ADD10R,0.500000X0.600000*%
%ADD11C,0.320000*%
%ADD12R,0.600000X0.500000*%
%ADD13R,1.100000X1.100000*%
%ADD14R,0.650000X0.400000*%
%ADD15R,0.400000X0.600000*%
%ADD16R,0.600000X0.400000*%
%ADD17R,1.500000X1.100000*%
%ADD18R,0.510000X0.780000*%
%ADD19R,0.630000X0.450000*%
%ADD20R,1.300000X1.100000*%
%ADD21R,2.500000X1.100000*%
%ADD22R,1.100000X2.500000*%
%ADD23R,0.750000X0.750000*%
%ADD24R,0.300000X0.730000*%
%ADD25R,0.730000X0.300000*%
%ADD26R,0.450000X1.380000*%
%ADD27R,1.475000X2.100000*%
%ADD28R,2.375000X1.900000*%
%ADD29R,1.175000X1.900000*%
G04 APERTURE END LIST*
D10*
X124968000Y-109686000D03*
X124968000Y-110786000D03*
D11*
X160046000Y-112294000D03*
X160846000Y-112294000D03*
X161646000Y-112294000D03*
X162446000Y-112294000D03*
X163246000Y-112294000D03*
X164046000Y-112294000D03*
X164846000Y-112294000D03*
X165646000Y-112294000D03*
X166446000Y-112294000D03*
X167246000Y-112294000D03*
X168046000Y-112294000D03*
X168846000Y-112294000D03*
X169646000Y-112294000D03*
X160046000Y-113094000D03*
X160846000Y-113094000D03*
X161646000Y-113094000D03*
X162446000Y-113094000D03*
X163246000Y-113094000D03*
X164046000Y-113094000D03*
X164846000Y-113094000D03*
X165646000Y-113094000D03*
X166446000Y-113094000D03*
X167246000Y-113094000D03*
X168046000Y-113094000D03*
X168846000Y-113094000D03*
X169646000Y-113094000D03*
X160046000Y-113894000D03*
X160846000Y-113894000D03*
X161646000Y-113894000D03*
X162446000Y-113894000D03*
X163246000Y-113894000D03*
X164046000Y-113894000D03*
X164846000Y-113894000D03*
X165646000Y-113894000D03*
X166446000Y-113894000D03*
X167246000Y-113894000D03*
X168046000Y-113894000D03*
X168846000Y-113894000D03*
X169646000Y-113894000D03*
X160046000Y-114694000D03*
X160846000Y-114694000D03*
X161646000Y-114694000D03*
X162446000Y-114694000D03*
X163246000Y-114694000D03*
X164046000Y-114694000D03*
X164846000Y-114694000D03*
X165646000Y-114694000D03*
X166446000Y-114694000D03*
X167246000Y-114694000D03*
X168046000Y-114694000D03*
X168846000Y-114694000D03*
X169646000Y-114694000D03*
X160046000Y-115494000D03*
X160846000Y-115494000D03*
X161646000Y-115494000D03*
X162446000Y-115494000D03*
X163246000Y-115494000D03*
X164046000Y-115494000D03*
X164846000Y-115494000D03*
X165646000Y-115494000D03*
X166446000Y-115494000D03*
X167246000Y-115494000D03*
X168046000Y-115494000D03*
X168846000Y-115494000D03*
X169646000Y-115494000D03*
X160046000Y-116294000D03*
X160846000Y-116294000D03*
X161646000Y-116294000D03*
X162446000Y-116294000D03*
X163246000Y-116294000D03*
X164046000Y-116294000D03*
X164846000Y-116294000D03*
X165646000Y-116294000D03*
X166446000Y-116294000D03*
X167246000Y-116294000D03*
X168046000Y-116294000D03*
X168846000Y-116294000D03*
X169646000Y-116294000D03*
X160046000Y-117094000D03*
X160846000Y-117094000D03*
X161646000Y-117094000D03*
X162446000Y-117094000D03*
X163246000Y-117094000D03*
X164046000Y-117094000D03*
X164846000Y-117094000D03*
X165646000Y-117094000D03*
X166446000Y-117094000D03*
X167246000Y-117094000D03*
X168046000Y-117094000D03*
X168846000Y-117094000D03*
X169646000Y-117094000D03*
X160046000Y-117894000D03*
X160846000Y-117894000D03*
X161646000Y-117894000D03*
X162446000Y-117894000D03*
X163246000Y-117894000D03*
X164046000Y-117894000D03*
X164846000Y-117894000D03*
X165646000Y-117894000D03*
X166446000Y-117894000D03*
X167246000Y-117894000D03*
X168046000Y-117894000D03*
X168846000Y-117894000D03*
X169646000Y-117894000D03*
X160046000Y-118694000D03*
X160846000Y-118694000D03*
X161646000Y-118694000D03*
X162446000Y-118694000D03*
X163246000Y-118694000D03*
X164046000Y-118694000D03*
X164846000Y-118694000D03*
X165646000Y-118694000D03*
X166446000Y-118694000D03*
X167246000Y-118694000D03*
X168046000Y-118694000D03*
X168846000Y-118694000D03*
X169646000Y-118694000D03*
X160046000Y-119494000D03*
X160846000Y-119494000D03*
X161646000Y-119494000D03*
X162446000Y-119494000D03*
X163246000Y-119494000D03*
X164046000Y-119494000D03*
X164846000Y-119494000D03*
X165646000Y-119494000D03*
X166446000Y-119494000D03*
X167246000Y-119494000D03*
X168046000Y-119494000D03*
X168846000Y-119494000D03*
X169646000Y-119494000D03*
X160046000Y-120294000D03*
X160846000Y-120294000D03*
X161646000Y-120294000D03*
X162446000Y-120294000D03*
X163246000Y-120294000D03*
X164046000Y-120294000D03*
X164846000Y-120294000D03*
X165646000Y-120294000D03*
X166446000Y-120294000D03*
X167246000Y-120294000D03*
X168046000Y-120294000D03*
X168846000Y-120294000D03*
X169646000Y-120294000D03*
X160046000Y-121094000D03*
X160846000Y-121094000D03*
X161646000Y-121094000D03*
X162446000Y-121094000D03*
X163246000Y-121094000D03*
X164046000Y-121094000D03*
X164846000Y-121094000D03*
X165646000Y-121094000D03*
X166446000Y-121094000D03*
X167246000Y-121094000D03*
X168046000Y-121094000D03*
X168846000Y-121094000D03*
X169646000Y-121094000D03*
X160046000Y-121894000D03*
X160846000Y-121894000D03*
X161646000Y-121894000D03*
X162446000Y-121894000D03*
X163246000Y-121894000D03*
X164046000Y-121894000D03*
X164846000Y-121894000D03*
X165646000Y-121894000D03*
X166446000Y-121894000D03*
X167246000Y-121894000D03*
X168046000Y-121894000D03*
X168846000Y-121894000D03*
X169646000Y-121894000D03*
D10*
X154432000Y-113326000D03*
X154432000Y-112226000D03*
X155956000Y-112226000D03*
X155956000Y-113326000D03*
X151257000Y-113326000D03*
X151257000Y-112226000D03*
X152908000Y-112226000D03*
X152908000Y-113326000D03*
X127254000Y-105368000D03*
X127254000Y-106468000D03*
X119126000Y-120438000D03*
X119126000Y-119338000D03*
D12*
X115782000Y-114046000D03*
X116882000Y-114046000D03*
D10*
X124460000Y-115528000D03*
X124460000Y-116628000D03*
X122936000Y-119338000D03*
X122936000Y-120438000D03*
D13*
X116332000Y-119764000D03*
X116332000Y-116964000D03*
D12*
X115782000Y-115316000D03*
X116882000Y-115316000D03*
D14*
X120208000Y-106822000D03*
X120208000Y-105522000D03*
X122108000Y-106172000D03*
X120208000Y-106172000D03*
X122108000Y-105522000D03*
X122108000Y-106822000D03*
D15*
X153474000Y-110871000D03*
X154374000Y-110871000D03*
D16*
X157543500Y-112193500D03*
X157543500Y-113093500D03*
D15*
X156787000Y-110998000D03*
X155887000Y-110998000D03*
X168280500Y-110934500D03*
X167380500Y-110934500D03*
X161475000Y-110934500D03*
X162375000Y-110934500D03*
X157030000Y-116078000D03*
X157930000Y-116078000D03*
X157030000Y-114554000D03*
X157930000Y-114554000D03*
D16*
X153670000Y-118930000D03*
X153670000Y-119830000D03*
X125476000Y-106114000D03*
X125476000Y-105214000D03*
X118364000Y-105277500D03*
X118364000Y-106177500D03*
X123698000Y-106039500D03*
X123698000Y-106939500D03*
X120142000Y-108770000D03*
X120142000Y-109670000D03*
X122174000Y-109670000D03*
X122174000Y-108770000D03*
X120396000Y-119692000D03*
X120396000Y-120592000D03*
X121666000Y-120592000D03*
X121666000Y-119692000D03*
D17*
X179192000Y-108458000D03*
X179192000Y-110998000D03*
X179192000Y-113538000D03*
X179192000Y-116078000D03*
X179192000Y-118618000D03*
X179192000Y-121158000D03*
X179192000Y-123698000D03*
X179192000Y-126238000D03*
X188092000Y-110998000D03*
X188092000Y-108458000D03*
X188092000Y-113538000D03*
X188092000Y-116078000D03*
X188092000Y-118618000D03*
X188092000Y-121158000D03*
X188092000Y-123698000D03*
X188092000Y-126238000D03*
D18*
X129457000Y-110886000D03*
X129457000Y-109586000D03*
X128607000Y-110886000D03*
X128607000Y-109586000D03*
D19*
X127692000Y-111186000D03*
X127692000Y-110236000D03*
X127692000Y-109286000D03*
X130372000Y-109286000D03*
X130372000Y-110236000D03*
X130372000Y-111186000D03*
D20*
X155922000Y-117793000D03*
X158022000Y-117793000D03*
X158022000Y-119443000D03*
X155922000Y-119443000D03*
D21*
X95947000Y-110490000D03*
X95947000Y-112490000D03*
X95947000Y-114490000D03*
X95947000Y-116490000D03*
X95947000Y-118490000D03*
X95947000Y-120490000D03*
X95947000Y-122490000D03*
X95947000Y-124490000D03*
X111347000Y-124490000D03*
X111347000Y-122490000D03*
X111347000Y-120490000D03*
X111347000Y-118490000D03*
X111347000Y-116490000D03*
X111347000Y-114490000D03*
X111347000Y-112490000D03*
X111347000Y-110490000D03*
D22*
X98637000Y-126190000D03*
X100637000Y-126190000D03*
X102637000Y-126190000D03*
X104637000Y-126190000D03*
X106637000Y-126190000D03*
X108637000Y-126190000D03*
D23*
X120279000Y-114945000D03*
X120279000Y-116195000D03*
X121529000Y-114945000D03*
X121529000Y-116195000D03*
D24*
X119904000Y-113605000D03*
X120404000Y-113605000D03*
X120904000Y-113605000D03*
X121404000Y-113605000D03*
X121904000Y-113605000D03*
D25*
X122869000Y-114570000D03*
X122869000Y-115070000D03*
X122869000Y-115570000D03*
X122869000Y-116070000D03*
X122869000Y-116570000D03*
D24*
X121904000Y-117535000D03*
X121404000Y-117535000D03*
X120904000Y-117535000D03*
X120404000Y-117535000D03*
X119904000Y-117535000D03*
D25*
X118939000Y-116570000D03*
X118939000Y-116070000D03*
X118939000Y-115570000D03*
X118939000Y-115070000D03*
X118939000Y-114570000D03*
D12*
X143214000Y-118681500D03*
X144314000Y-118681500D03*
D10*
X131064000Y-119338000D03*
X131064000Y-120438000D03*
D12*
X129328000Y-114046000D03*
X128228000Y-114046000D03*
D10*
X136906000Y-115782000D03*
X136906000Y-116882000D03*
X135382000Y-120438000D03*
X135382000Y-119338000D03*
D13*
X128778000Y-119764000D03*
X128778000Y-116964000D03*
D12*
X129328000Y-115316000D03*
X128228000Y-115316000D03*
D16*
X132461000Y-120592000D03*
X132461000Y-119692000D03*
X133858000Y-119692000D03*
X133858000Y-120592000D03*
D23*
X132725000Y-114945000D03*
X132725000Y-116195000D03*
X133975000Y-114945000D03*
X133975000Y-116195000D03*
D24*
X132350000Y-113605000D03*
X132850000Y-113605000D03*
X133350000Y-113605000D03*
X133850000Y-113605000D03*
X134350000Y-113605000D03*
D25*
X135315000Y-114570000D03*
X135315000Y-115070000D03*
X135315000Y-115570000D03*
X135315000Y-116070000D03*
X135315000Y-116570000D03*
D24*
X134350000Y-117535000D03*
X133850000Y-117535000D03*
X133350000Y-117535000D03*
X132850000Y-117535000D03*
X132350000Y-117535000D03*
D25*
X131385000Y-116570000D03*
X131385000Y-116070000D03*
X131385000Y-115570000D03*
X131385000Y-115070000D03*
X131385000Y-114570000D03*
D10*
X132842000Y-109686000D03*
X132842000Y-110786000D03*
D26*
X120112000Y-123832000D03*
X120762000Y-123832000D03*
X121412000Y-123832000D03*
X122062000Y-123832000D03*
X122712000Y-123832000D03*
D27*
X118949500Y-124192000D03*
X123874500Y-124192000D03*
D28*
X118502000Y-126492000D03*
X124322000Y-126492000D03*
D29*
X120572000Y-126492000D03*
X122252000Y-126492000D03*
X134317000Y-126492000D03*
X132637000Y-126492000D03*
D28*
X136387000Y-126492000D03*
X130567000Y-126492000D03*
D27*
X135939500Y-124192000D03*
X131014500Y-124192000D03*
D26*
X134777000Y-123832000D03*
X134127000Y-123832000D03*
X133477000Y-123832000D03*
X132827000Y-123832000D03*
X132177000Y-123832000D03*
M02*
