G04 #@! TF.GenerationSoftware,KiCad,Pcbnew,6.0.0-rc1-unknown-994a9c5~65~ubuntu16.04.1*
G04 #@! TF.CreationDate,2018-07-26T22:21:31+02:00*
G04 #@! TF.ProjectId,roboy_sno,726F626F795F736E6F2E6B696361645F,rev?*
G04 #@! TF.SameCoordinates,Original*
G04 #@! TF.FileFunction,Soldermask,Top*
G04 #@! TF.FilePolarity,Negative*
%FSLAX46Y46*%
G04 Gerber Fmt 4.6, Leading zero omitted, Abs format (unit mm)*
G04 Created by KiCad (PCBNEW 6.0.0-rc1-unknown-994a9c5~65~ubuntu16.04.1) date Thu Jul 26 22:21:31 2018*
%MOMM*%
%LPD*%
G01*
G04 APERTURE LIST*
%ADD10C,0.010000*%
%ADD11C,0.060000*%
%ADD12R,2.100000X2.100000*%
%ADD13O,2.100000X2.100000*%
%ADD14C,0.100000*%
%ADD15C,0.990000*%
%ADD16R,1.500000X1.500000*%
%ADD17R,0.850000X1.780000*%
%ADD18R,1.875000X2.500000*%
%ADD19R,2.775000X2.300000*%
%ADD20R,1.575000X2.300000*%
%ADD21R,1.050000X0.800000*%
%ADD22R,1.030000X0.850000*%
%ADD23R,1.250000X1.700000*%
%ADD24R,1.700000X1.500000*%
%ADD25C,0.720000*%
%ADD26R,1.130000X0.700000*%
%ADD27R,0.700000X1.130000*%
%ADD28R,1.650000X1.650000*%
%ADD29R,1.500000X2.900000*%
%ADD30R,2.900000X1.500000*%
%ADD31C,1.275000*%
%ADD32R,2.100000X1.300000*%
G04 APERTURE END LIST*
D10*
G04 #@! TO.C,G\002A\002A\002A*
G36*
X155051411Y-118405658D02*
X155100303Y-118407034D01*
X155141791Y-118409227D01*
X155144248Y-118409404D01*
X155310730Y-118426617D01*
X155474856Y-118453619D01*
X155636263Y-118490236D01*
X155794589Y-118536297D01*
X155949470Y-118591628D01*
X156100545Y-118656056D01*
X156247451Y-118729410D01*
X156389824Y-118811515D01*
X156527304Y-118902199D01*
X156659526Y-119001290D01*
X156786128Y-119108614D01*
X156906748Y-119223999D01*
X156951488Y-119270506D01*
X157062388Y-119395802D01*
X157164852Y-119526680D01*
X157258766Y-119662894D01*
X157344014Y-119804197D01*
X157420485Y-119950344D01*
X157488064Y-120101091D01*
X157546637Y-120256190D01*
X157596090Y-120415396D01*
X157636310Y-120578465D01*
X157667184Y-120745149D01*
X157681027Y-120845580D01*
X157683688Y-120873614D01*
X157686056Y-120910158D01*
X157688107Y-120953565D01*
X157689818Y-121002188D01*
X157691168Y-121054379D01*
X157692131Y-121108493D01*
X157692687Y-121162881D01*
X157692810Y-121215898D01*
X157692479Y-121265897D01*
X157691671Y-121311229D01*
X157690362Y-121350250D01*
X157688529Y-121381311D01*
X157688521Y-121381409D01*
X157670425Y-121545738D01*
X157642523Y-121707947D01*
X157605024Y-121867636D01*
X157558137Y-122024405D01*
X157502068Y-122177853D01*
X157437026Y-122327580D01*
X157363220Y-122473186D01*
X157280858Y-122614271D01*
X157190147Y-122750433D01*
X157091295Y-122881273D01*
X156984512Y-123006391D01*
X156870005Y-123125385D01*
X156747982Y-123237856D01*
X156703827Y-123275365D01*
X156572339Y-123378164D01*
X156435556Y-123472370D01*
X156293820Y-123557844D01*
X156147475Y-123634444D01*
X155996863Y-123702030D01*
X155842328Y-123760462D01*
X155684213Y-123809599D01*
X155522861Y-123849300D01*
X155358615Y-123879425D01*
X155191818Y-123899834D01*
X155176220Y-123901230D01*
X155144605Y-123903421D01*
X155105273Y-123905283D01*
X155060337Y-123906791D01*
X155011909Y-123907916D01*
X154962102Y-123908634D01*
X154913029Y-123908917D01*
X154866802Y-123908740D01*
X154825534Y-123908076D01*
X154791338Y-123906899D01*
X154778694Y-123906187D01*
X154609062Y-123890042D01*
X154442378Y-123864308D01*
X154278908Y-123829099D01*
X154118916Y-123784529D01*
X153962667Y-123730712D01*
X153810427Y-123667763D01*
X153662461Y-123595796D01*
X153519033Y-123514925D01*
X153380408Y-123425265D01*
X153246852Y-123326929D01*
X153118630Y-123220031D01*
X153057269Y-123164036D01*
X152938879Y-123045867D01*
X152828479Y-122921571D01*
X152726241Y-122791510D01*
X152632338Y-122656048D01*
X152546943Y-122515546D01*
X152470229Y-122370369D01*
X152402370Y-122220880D01*
X152343537Y-122067441D01*
X152293904Y-121910416D01*
X152253644Y-121750168D01*
X152222930Y-121587060D01*
X152201935Y-121421454D01*
X152196484Y-121357168D01*
X152194235Y-121316243D01*
X152192806Y-121267784D01*
X152192158Y-121213741D01*
X152192254Y-121156065D01*
X152192845Y-121112280D01*
X153875866Y-121112280D01*
X153876087Y-121172867D01*
X153876800Y-121225255D01*
X153878154Y-121271398D01*
X153880296Y-121313249D01*
X153883376Y-121352763D01*
X153887541Y-121391895D01*
X153892939Y-121432598D01*
X153899719Y-121476827D01*
X153906683Y-121518680D01*
X153931321Y-121643767D01*
X153963172Y-121773784D01*
X154001644Y-121907155D01*
X154046146Y-122042306D01*
X154096085Y-122177660D01*
X154150869Y-122311644D01*
X154209907Y-122442683D01*
X154272605Y-122569201D01*
X154338373Y-122689623D01*
X154362138Y-122730260D01*
X154387850Y-122772150D01*
X154412392Y-122809070D01*
X154437458Y-122843163D01*
X154464739Y-122876577D01*
X154495927Y-122911455D01*
X154532714Y-122949944D01*
X154546237Y-122963668D01*
X154614539Y-123030063D01*
X154680032Y-123088339D01*
X154744180Y-123139594D01*
X154808445Y-123184927D01*
X154874292Y-123225436D01*
X154943183Y-123262220D01*
X154945625Y-123263432D01*
X155012865Y-123294631D01*
X155080523Y-123321591D01*
X155149818Y-123344574D01*
X155221972Y-123363841D01*
X155298208Y-123379653D01*
X155379746Y-123392271D01*
X155467807Y-123401955D01*
X155563614Y-123408968D01*
X155644301Y-123412743D01*
X155658468Y-123412065D01*
X155679174Y-123409605D01*
X155703042Y-123405805D01*
X155716346Y-123403295D01*
X155822126Y-123376969D01*
X155926227Y-123340724D01*
X156028740Y-123294520D01*
X156129759Y-123238316D01*
X156208715Y-123186715D01*
X156244948Y-123160443D01*
X156285856Y-123129048D01*
X156330005Y-123093764D01*
X156375964Y-123055826D01*
X156422299Y-123016467D01*
X156467577Y-122976921D01*
X156510365Y-122938423D01*
X156549230Y-122902207D01*
X156582740Y-122869506D01*
X156609357Y-122841669D01*
X156659078Y-122784571D01*
X156708026Y-122723833D01*
X156755342Y-122660772D01*
X156800168Y-122596702D01*
X156841646Y-122532939D01*
X156878916Y-122470800D01*
X156911120Y-122411600D01*
X156937399Y-122356654D01*
X156955547Y-122311160D01*
X156967166Y-122274683D01*
X156973669Y-122244920D01*
X156975291Y-122219946D01*
X156972266Y-122197838D01*
X156970229Y-122190655D01*
X156961899Y-122157183D01*
X156955174Y-122113850D01*
X156950045Y-122060582D01*
X156948557Y-122038480D01*
X156946914Y-122015285D01*
X156945091Y-121995827D01*
X156943327Y-121982354D01*
X156942048Y-121977279D01*
X156935985Y-121973091D01*
X156923461Y-121966816D01*
X156911213Y-121961494D01*
X156875191Y-121943805D01*
X156845050Y-121922111D01*
X156820055Y-121895333D01*
X156799472Y-121862396D01*
X156782567Y-121822221D01*
X156768606Y-121773733D01*
X156761731Y-121742200D01*
X156753109Y-121687984D01*
X156746872Y-121625299D01*
X156743003Y-121555547D01*
X156741488Y-121480131D01*
X156742310Y-121400453D01*
X156745454Y-121317917D01*
X156750904Y-121233924D01*
X156758644Y-121149878D01*
X156768658Y-121067181D01*
X156769391Y-121061857D01*
X156777683Y-121010621D01*
X156788851Y-120956523D01*
X156803299Y-120897881D01*
X156821436Y-120833012D01*
X156837507Y-120779894D01*
X156848001Y-120744596D01*
X156854749Y-120718223D01*
X156857856Y-120700298D01*
X156857630Y-120690994D01*
X156856992Y-120683817D01*
X156856273Y-120667339D01*
X156855490Y-120642422D01*
X156854662Y-120609926D01*
X156853807Y-120570708D01*
X156852943Y-120525631D01*
X156852087Y-120475553D01*
X156851258Y-120421335D01*
X156850474Y-120363836D01*
X156850024Y-120327420D01*
X156849099Y-120252866D01*
X156848178Y-120187436D01*
X156847209Y-120130094D01*
X156846143Y-120079802D01*
X156844928Y-120035525D01*
X156843514Y-119996228D01*
X156841851Y-119960872D01*
X156839886Y-119928422D01*
X156837570Y-119897843D01*
X156834853Y-119868097D01*
X156831682Y-119838148D01*
X156828009Y-119806961D01*
X156823781Y-119773498D01*
X156822415Y-119762995D01*
X156813450Y-119700533D01*
X156802637Y-119635182D01*
X156790663Y-119570772D01*
X156778216Y-119511131D01*
X156773201Y-119489220D01*
X156767194Y-119463740D01*
X156761859Y-119441078D01*
X156757719Y-119423465D01*
X156755300Y-119413135D01*
X156755099Y-119412273D01*
X156749514Y-119402596D01*
X156736770Y-119388140D01*
X156718059Y-119369912D01*
X156694573Y-119348920D01*
X156667505Y-119326170D01*
X156638047Y-119302671D01*
X156607391Y-119279430D01*
X156576729Y-119257454D01*
X156552900Y-119241398D01*
X156459663Y-119186561D01*
X156360366Y-119139665D01*
X156254885Y-119100665D01*
X156143099Y-119069515D01*
X156024885Y-119046173D01*
X156014420Y-119044529D01*
X155969797Y-119038994D01*
X155917546Y-119034733D01*
X155860123Y-119031789D01*
X155799984Y-119030208D01*
X155739587Y-119030036D01*
X155681389Y-119031316D01*
X155627846Y-119034094D01*
X155595320Y-119036864D01*
X155458305Y-119054876D01*
X155326889Y-119080248D01*
X155201374Y-119112863D01*
X155082065Y-119152607D01*
X154969262Y-119199362D01*
X154863270Y-119253014D01*
X154764391Y-119313447D01*
X154672928Y-119380544D01*
X154652307Y-119397465D01*
X154619118Y-119426484D01*
X154586726Y-119457428D01*
X154553635Y-119491870D01*
X154518349Y-119531378D01*
X154479372Y-119577524D01*
X154470517Y-119588280D01*
X154366906Y-119720732D01*
X154273379Y-119853187D01*
X154189858Y-119985797D01*
X154116268Y-120118716D01*
X154052533Y-120252098D01*
X153998577Y-120386098D01*
X153954324Y-120520867D01*
X153919697Y-120656561D01*
X153904339Y-120733820D01*
X153896862Y-120776964D01*
X153890787Y-120815561D01*
X153885975Y-120851452D01*
X153882287Y-120886477D01*
X153879585Y-120922477D01*
X153877730Y-120961291D01*
X153876585Y-121004762D01*
X153876009Y-121054729D01*
X153875866Y-121112280D01*
X152192845Y-121112280D01*
X152193056Y-121096704D01*
X152194526Y-121037611D01*
X152196624Y-120980735D01*
X152199314Y-120928027D01*
X152202556Y-120881437D01*
X152206314Y-120842915D01*
X152206582Y-120840680D01*
X152232056Y-120671148D01*
X152266728Y-120505926D01*
X152310629Y-120344938D01*
X152363792Y-120188112D01*
X152426249Y-120035374D01*
X152498030Y-119886650D01*
X152579169Y-119741866D01*
X152669697Y-119600948D01*
X152769646Y-119463822D01*
X152837157Y-119379718D01*
X152862254Y-119350734D01*
X152893460Y-119316564D01*
X152929254Y-119278728D01*
X152968116Y-119238747D01*
X153008523Y-119198143D01*
X153048955Y-119158438D01*
X153087890Y-119121151D01*
X153123808Y-119087805D01*
X153155186Y-119059920D01*
X153166798Y-119050077D01*
X153283126Y-118957763D01*
X153400135Y-118874075D01*
X153519986Y-118797586D01*
X153644836Y-118726870D01*
X153697940Y-118699230D01*
X153843201Y-118630517D01*
X153990453Y-118571076D01*
X154140545Y-118520650D01*
X154294324Y-118478984D01*
X154452640Y-118445823D01*
X154616342Y-118420911D01*
X154627760Y-118419502D01*
X154665674Y-118415711D01*
X154711787Y-118412433D01*
X154764148Y-118409705D01*
X154820806Y-118407566D01*
X154879812Y-118406054D01*
X154939215Y-118405206D01*
X154997065Y-118405062D01*
X155051411Y-118405658D01*
X155051411Y-118405658D01*
G37*
X155051411Y-118405658D02*
X155100303Y-118407034D01*
X155141791Y-118409227D01*
X155144248Y-118409404D01*
X155310730Y-118426617D01*
X155474856Y-118453619D01*
X155636263Y-118490236D01*
X155794589Y-118536297D01*
X155949470Y-118591628D01*
X156100545Y-118656056D01*
X156247451Y-118729410D01*
X156389824Y-118811515D01*
X156527304Y-118902199D01*
X156659526Y-119001290D01*
X156786128Y-119108614D01*
X156906748Y-119223999D01*
X156951488Y-119270506D01*
X157062388Y-119395802D01*
X157164852Y-119526680D01*
X157258766Y-119662894D01*
X157344014Y-119804197D01*
X157420485Y-119950344D01*
X157488064Y-120101091D01*
X157546637Y-120256190D01*
X157596090Y-120415396D01*
X157636310Y-120578465D01*
X157667184Y-120745149D01*
X157681027Y-120845580D01*
X157683688Y-120873614D01*
X157686056Y-120910158D01*
X157688107Y-120953565D01*
X157689818Y-121002188D01*
X157691168Y-121054379D01*
X157692131Y-121108493D01*
X157692687Y-121162881D01*
X157692810Y-121215898D01*
X157692479Y-121265897D01*
X157691671Y-121311229D01*
X157690362Y-121350250D01*
X157688529Y-121381311D01*
X157688521Y-121381409D01*
X157670425Y-121545738D01*
X157642523Y-121707947D01*
X157605024Y-121867636D01*
X157558137Y-122024405D01*
X157502068Y-122177853D01*
X157437026Y-122327580D01*
X157363220Y-122473186D01*
X157280858Y-122614271D01*
X157190147Y-122750433D01*
X157091295Y-122881273D01*
X156984512Y-123006391D01*
X156870005Y-123125385D01*
X156747982Y-123237856D01*
X156703827Y-123275365D01*
X156572339Y-123378164D01*
X156435556Y-123472370D01*
X156293820Y-123557844D01*
X156147475Y-123634444D01*
X155996863Y-123702030D01*
X155842328Y-123760462D01*
X155684213Y-123809599D01*
X155522861Y-123849300D01*
X155358615Y-123879425D01*
X155191818Y-123899834D01*
X155176220Y-123901230D01*
X155144605Y-123903421D01*
X155105273Y-123905283D01*
X155060337Y-123906791D01*
X155011909Y-123907916D01*
X154962102Y-123908634D01*
X154913029Y-123908917D01*
X154866802Y-123908740D01*
X154825534Y-123908076D01*
X154791338Y-123906899D01*
X154778694Y-123906187D01*
X154609062Y-123890042D01*
X154442378Y-123864308D01*
X154278908Y-123829099D01*
X154118916Y-123784529D01*
X153962667Y-123730712D01*
X153810427Y-123667763D01*
X153662461Y-123595796D01*
X153519033Y-123514925D01*
X153380408Y-123425265D01*
X153246852Y-123326929D01*
X153118630Y-123220031D01*
X153057269Y-123164036D01*
X152938879Y-123045867D01*
X152828479Y-122921571D01*
X152726241Y-122791510D01*
X152632338Y-122656048D01*
X152546943Y-122515546D01*
X152470229Y-122370369D01*
X152402370Y-122220880D01*
X152343537Y-122067441D01*
X152293904Y-121910416D01*
X152253644Y-121750168D01*
X152222930Y-121587060D01*
X152201935Y-121421454D01*
X152196484Y-121357168D01*
X152194235Y-121316243D01*
X152192806Y-121267784D01*
X152192158Y-121213741D01*
X152192254Y-121156065D01*
X152192845Y-121112280D01*
X153875866Y-121112280D01*
X153876087Y-121172867D01*
X153876800Y-121225255D01*
X153878154Y-121271398D01*
X153880296Y-121313249D01*
X153883376Y-121352763D01*
X153887541Y-121391895D01*
X153892939Y-121432598D01*
X153899719Y-121476827D01*
X153906683Y-121518680D01*
X153931321Y-121643767D01*
X153963172Y-121773784D01*
X154001644Y-121907155D01*
X154046146Y-122042306D01*
X154096085Y-122177660D01*
X154150869Y-122311644D01*
X154209907Y-122442683D01*
X154272605Y-122569201D01*
X154338373Y-122689623D01*
X154362138Y-122730260D01*
X154387850Y-122772150D01*
X154412392Y-122809070D01*
X154437458Y-122843163D01*
X154464739Y-122876577D01*
X154495927Y-122911455D01*
X154532714Y-122949944D01*
X154546237Y-122963668D01*
X154614539Y-123030063D01*
X154680032Y-123088339D01*
X154744180Y-123139594D01*
X154808445Y-123184927D01*
X154874292Y-123225436D01*
X154943183Y-123262220D01*
X154945625Y-123263432D01*
X155012865Y-123294631D01*
X155080523Y-123321591D01*
X155149818Y-123344574D01*
X155221972Y-123363841D01*
X155298208Y-123379653D01*
X155379746Y-123392271D01*
X155467807Y-123401955D01*
X155563614Y-123408968D01*
X155644301Y-123412743D01*
X155658468Y-123412065D01*
X155679174Y-123409605D01*
X155703042Y-123405805D01*
X155716346Y-123403295D01*
X155822126Y-123376969D01*
X155926227Y-123340724D01*
X156028740Y-123294520D01*
X156129759Y-123238316D01*
X156208715Y-123186715D01*
X156244948Y-123160443D01*
X156285856Y-123129048D01*
X156330005Y-123093764D01*
X156375964Y-123055826D01*
X156422299Y-123016467D01*
X156467577Y-122976921D01*
X156510365Y-122938423D01*
X156549230Y-122902207D01*
X156582740Y-122869506D01*
X156609357Y-122841669D01*
X156659078Y-122784571D01*
X156708026Y-122723833D01*
X156755342Y-122660772D01*
X156800168Y-122596702D01*
X156841646Y-122532939D01*
X156878916Y-122470800D01*
X156911120Y-122411600D01*
X156937399Y-122356654D01*
X156955547Y-122311160D01*
X156967166Y-122274683D01*
X156973669Y-122244920D01*
X156975291Y-122219946D01*
X156972266Y-122197838D01*
X156970229Y-122190655D01*
X156961899Y-122157183D01*
X156955174Y-122113850D01*
X156950045Y-122060582D01*
X156948557Y-122038480D01*
X156946914Y-122015285D01*
X156945091Y-121995827D01*
X156943327Y-121982354D01*
X156942048Y-121977279D01*
X156935985Y-121973091D01*
X156923461Y-121966816D01*
X156911213Y-121961494D01*
X156875191Y-121943805D01*
X156845050Y-121922111D01*
X156820055Y-121895333D01*
X156799472Y-121862396D01*
X156782567Y-121822221D01*
X156768606Y-121773733D01*
X156761731Y-121742200D01*
X156753109Y-121687984D01*
X156746872Y-121625299D01*
X156743003Y-121555547D01*
X156741488Y-121480131D01*
X156742310Y-121400453D01*
X156745454Y-121317917D01*
X156750904Y-121233924D01*
X156758644Y-121149878D01*
X156768658Y-121067181D01*
X156769391Y-121061857D01*
X156777683Y-121010621D01*
X156788851Y-120956523D01*
X156803299Y-120897881D01*
X156821436Y-120833012D01*
X156837507Y-120779894D01*
X156848001Y-120744596D01*
X156854749Y-120718223D01*
X156857856Y-120700298D01*
X156857630Y-120690994D01*
X156856992Y-120683817D01*
X156856273Y-120667339D01*
X156855490Y-120642422D01*
X156854662Y-120609926D01*
X156853807Y-120570708D01*
X156852943Y-120525631D01*
X156852087Y-120475553D01*
X156851258Y-120421335D01*
X156850474Y-120363836D01*
X156850024Y-120327420D01*
X156849099Y-120252866D01*
X156848178Y-120187436D01*
X156847209Y-120130094D01*
X156846143Y-120079802D01*
X156844928Y-120035525D01*
X156843514Y-119996228D01*
X156841851Y-119960872D01*
X156839886Y-119928422D01*
X156837570Y-119897843D01*
X156834853Y-119868097D01*
X156831682Y-119838148D01*
X156828009Y-119806961D01*
X156823781Y-119773498D01*
X156822415Y-119762995D01*
X156813450Y-119700533D01*
X156802637Y-119635182D01*
X156790663Y-119570772D01*
X156778216Y-119511131D01*
X156773201Y-119489220D01*
X156767194Y-119463740D01*
X156761859Y-119441078D01*
X156757719Y-119423465D01*
X156755300Y-119413135D01*
X156755099Y-119412273D01*
X156749514Y-119402596D01*
X156736770Y-119388140D01*
X156718059Y-119369912D01*
X156694573Y-119348920D01*
X156667505Y-119326170D01*
X156638047Y-119302671D01*
X156607391Y-119279430D01*
X156576729Y-119257454D01*
X156552900Y-119241398D01*
X156459663Y-119186561D01*
X156360366Y-119139665D01*
X156254885Y-119100665D01*
X156143099Y-119069515D01*
X156024885Y-119046173D01*
X156014420Y-119044529D01*
X155969797Y-119038994D01*
X155917546Y-119034733D01*
X155860123Y-119031789D01*
X155799984Y-119030208D01*
X155739587Y-119030036D01*
X155681389Y-119031316D01*
X155627846Y-119034094D01*
X155595320Y-119036864D01*
X155458305Y-119054876D01*
X155326889Y-119080248D01*
X155201374Y-119112863D01*
X155082065Y-119152607D01*
X154969262Y-119199362D01*
X154863270Y-119253014D01*
X154764391Y-119313447D01*
X154672928Y-119380544D01*
X154652307Y-119397465D01*
X154619118Y-119426484D01*
X154586726Y-119457428D01*
X154553635Y-119491870D01*
X154518349Y-119531378D01*
X154479372Y-119577524D01*
X154470517Y-119588280D01*
X154366906Y-119720732D01*
X154273379Y-119853187D01*
X154189858Y-119985797D01*
X154116268Y-120118716D01*
X154052533Y-120252098D01*
X153998577Y-120386098D01*
X153954324Y-120520867D01*
X153919697Y-120656561D01*
X153904339Y-120733820D01*
X153896862Y-120776964D01*
X153890787Y-120815561D01*
X153885975Y-120851452D01*
X153882287Y-120886477D01*
X153879585Y-120922477D01*
X153877730Y-120961291D01*
X153876585Y-121004762D01*
X153876009Y-121054729D01*
X153875866Y-121112280D01*
X152192845Y-121112280D01*
X152193056Y-121096704D01*
X152194526Y-121037611D01*
X152196624Y-120980735D01*
X152199314Y-120928027D01*
X152202556Y-120881437D01*
X152206314Y-120842915D01*
X152206582Y-120840680D01*
X152232056Y-120671148D01*
X152266728Y-120505926D01*
X152310629Y-120344938D01*
X152363792Y-120188112D01*
X152426249Y-120035374D01*
X152498030Y-119886650D01*
X152579169Y-119741866D01*
X152669697Y-119600948D01*
X152769646Y-119463822D01*
X152837157Y-119379718D01*
X152862254Y-119350734D01*
X152893460Y-119316564D01*
X152929254Y-119278728D01*
X152968116Y-119238747D01*
X153008523Y-119198143D01*
X153048955Y-119158438D01*
X153087890Y-119121151D01*
X153123808Y-119087805D01*
X153155186Y-119059920D01*
X153166798Y-119050077D01*
X153283126Y-118957763D01*
X153400135Y-118874075D01*
X153519986Y-118797586D01*
X153644836Y-118726870D01*
X153697940Y-118699230D01*
X153843201Y-118630517D01*
X153990453Y-118571076D01*
X154140545Y-118520650D01*
X154294324Y-118478984D01*
X154452640Y-118445823D01*
X154616342Y-118420911D01*
X154627760Y-118419502D01*
X154665674Y-118415711D01*
X154711787Y-118412433D01*
X154764148Y-118409705D01*
X154820806Y-118407566D01*
X154879812Y-118406054D01*
X154939215Y-118405206D01*
X154997065Y-118405062D01*
X155051411Y-118405658D01*
G36*
X154464466Y-122087926D02*
X154479554Y-122099333D01*
X154481789Y-122101610D01*
X154497997Y-122122076D01*
X154511303Y-122145188D01*
X154521395Y-122169348D01*
X154527961Y-122192960D01*
X154530691Y-122214426D01*
X154529274Y-122232150D01*
X154523397Y-122244535D01*
X154512750Y-122249983D01*
X154510740Y-122250103D01*
X154503319Y-122247690D01*
X154491818Y-122241702D01*
X154490097Y-122240671D01*
X154473099Y-122225908D01*
X154457367Y-122204401D01*
X154443917Y-122178683D01*
X154433764Y-122151289D01*
X154427921Y-122124754D01*
X154427405Y-122101613D01*
X154430003Y-122090595D01*
X154437422Y-122083074D01*
X154449666Y-122082345D01*
X154464466Y-122087926D01*
X154464466Y-122087926D01*
G37*
X154464466Y-122087926D02*
X154479554Y-122099333D01*
X154481789Y-122101610D01*
X154497997Y-122122076D01*
X154511303Y-122145188D01*
X154521395Y-122169348D01*
X154527961Y-122192960D01*
X154530691Y-122214426D01*
X154529274Y-122232150D01*
X154523397Y-122244535D01*
X154512750Y-122249983D01*
X154510740Y-122250103D01*
X154503319Y-122247690D01*
X154491818Y-122241702D01*
X154490097Y-122240671D01*
X154473099Y-122225908D01*
X154457367Y-122204401D01*
X154443917Y-122178683D01*
X154433764Y-122151289D01*
X154427921Y-122124754D01*
X154427405Y-122101613D01*
X154430003Y-122090595D01*
X154437422Y-122083074D01*
X154449666Y-122082345D01*
X154464466Y-122087926D01*
G36*
X155903667Y-121809102D02*
X155916744Y-121812493D01*
X155928048Y-121819622D01*
X155930392Y-121821545D01*
X155949692Y-121843382D01*
X155959619Y-121867859D01*
X155959926Y-121893768D01*
X155950441Y-121919765D01*
X155936012Y-121938859D01*
X155917537Y-121950325D01*
X155893024Y-121955210D01*
X155882228Y-121955560D01*
X155864829Y-121954947D01*
X155853155Y-121951934D01*
X155842794Y-121944758D01*
X155833903Y-121936259D01*
X155817278Y-121913369D01*
X155809936Y-121888434D01*
X155811832Y-121863206D01*
X155822919Y-121839436D01*
X155836859Y-121823951D01*
X155848713Y-121814754D01*
X155860030Y-121810033D01*
X155875130Y-121808369D01*
X155884667Y-121808240D01*
X155903667Y-121809102D01*
X155903667Y-121809102D01*
G37*
X155903667Y-121809102D02*
X155916744Y-121812493D01*
X155928048Y-121819622D01*
X155930392Y-121821545D01*
X155949692Y-121843382D01*
X155959619Y-121867859D01*
X155959926Y-121893768D01*
X155950441Y-121919765D01*
X155936012Y-121938859D01*
X155917537Y-121950325D01*
X155893024Y-121955210D01*
X155882228Y-121955560D01*
X155864829Y-121954947D01*
X155853155Y-121951934D01*
X155842794Y-121944758D01*
X155833903Y-121936259D01*
X155817278Y-121913369D01*
X155809936Y-121888434D01*
X155811832Y-121863206D01*
X155822919Y-121839436D01*
X155836859Y-121823951D01*
X155848713Y-121814754D01*
X155860030Y-121810033D01*
X155875130Y-121808369D01*
X155884667Y-121808240D01*
X155903667Y-121809102D01*
G36*
X155858423Y-121559777D02*
X155896263Y-121563066D01*
X155916759Y-121566897D01*
X155968390Y-121583874D01*
X156013060Y-121607654D01*
X156050646Y-121637527D01*
X156081024Y-121672781D01*
X156104071Y-121712703D01*
X156119661Y-121756583D01*
X156127672Y-121803708D01*
X156127980Y-121853366D01*
X156120461Y-121904846D01*
X156104990Y-121957436D01*
X156081445Y-122010424D01*
X156049701Y-122063099D01*
X156011669Y-122112398D01*
X155962024Y-122163506D01*
X155907034Y-122208255D01*
X155847863Y-122246142D01*
X155785678Y-122276666D01*
X155721645Y-122299325D01*
X155656929Y-122313617D01*
X155592695Y-122319041D01*
X155538218Y-122316169D01*
X155483393Y-122305107D01*
X155434297Y-122286036D01*
X155391371Y-122259148D01*
X155372887Y-122243333D01*
X155341140Y-122209436D01*
X155318000Y-122174962D01*
X155302118Y-122137320D01*
X155292141Y-122093916D01*
X155290986Y-122086145D01*
X155288426Y-122031755D01*
X155295286Y-121976691D01*
X155310934Y-121921752D01*
X155324275Y-121891475D01*
X155689164Y-121891475D01*
X155691545Y-121913112D01*
X155704506Y-121957304D01*
X155725689Y-121996657D01*
X155754198Y-122030122D01*
X155789137Y-122056653D01*
X155829610Y-122075204D01*
X155830453Y-122075481D01*
X155850411Y-122079460D01*
X155877461Y-122081152D01*
X155895684Y-122080976D01*
X155919938Y-122079571D01*
X155938324Y-122076634D01*
X155955122Y-122071176D01*
X155972690Y-122063155D01*
X156009679Y-122039788D01*
X156040282Y-122009948D01*
X156063754Y-121975048D01*
X156079349Y-121936504D01*
X156086322Y-121895728D01*
X156083925Y-121854134D01*
X156083670Y-121852722D01*
X156070966Y-121810824D01*
X156049644Y-121772438D01*
X156020985Y-121739215D01*
X155986270Y-121712806D01*
X155967445Y-121702858D01*
X155937518Y-121693350D01*
X155902396Y-121688786D01*
X155865790Y-121689225D01*
X155831413Y-121694724D01*
X155813531Y-121700426D01*
X155778383Y-121719486D01*
X155747691Y-121745944D01*
X155722440Y-121778087D01*
X155703613Y-121814199D01*
X155692193Y-121852567D01*
X155689164Y-121891475D01*
X155324275Y-121891475D01*
X155334736Y-121867736D01*
X155366061Y-121815441D01*
X155404274Y-121765666D01*
X155448745Y-121719207D01*
X155498840Y-121676864D01*
X155553926Y-121639434D01*
X155613370Y-121607716D01*
X155676541Y-121582507D01*
X155694886Y-121576701D01*
X155731263Y-121568238D01*
X155772757Y-121562503D01*
X155816199Y-121559636D01*
X155858423Y-121559777D01*
X155858423Y-121559777D01*
G37*
X155858423Y-121559777D02*
X155896263Y-121563066D01*
X155916759Y-121566897D01*
X155968390Y-121583874D01*
X156013060Y-121607654D01*
X156050646Y-121637527D01*
X156081024Y-121672781D01*
X156104071Y-121712703D01*
X156119661Y-121756583D01*
X156127672Y-121803708D01*
X156127980Y-121853366D01*
X156120461Y-121904846D01*
X156104990Y-121957436D01*
X156081445Y-122010424D01*
X156049701Y-122063099D01*
X156011669Y-122112398D01*
X155962024Y-122163506D01*
X155907034Y-122208255D01*
X155847863Y-122246142D01*
X155785678Y-122276666D01*
X155721645Y-122299325D01*
X155656929Y-122313617D01*
X155592695Y-122319041D01*
X155538218Y-122316169D01*
X155483393Y-122305107D01*
X155434297Y-122286036D01*
X155391371Y-122259148D01*
X155372887Y-122243333D01*
X155341140Y-122209436D01*
X155318000Y-122174962D01*
X155302118Y-122137320D01*
X155292141Y-122093916D01*
X155290986Y-122086145D01*
X155288426Y-122031755D01*
X155295286Y-121976691D01*
X155310934Y-121921752D01*
X155324275Y-121891475D01*
X155689164Y-121891475D01*
X155691545Y-121913112D01*
X155704506Y-121957304D01*
X155725689Y-121996657D01*
X155754198Y-122030122D01*
X155789137Y-122056653D01*
X155829610Y-122075204D01*
X155830453Y-122075481D01*
X155850411Y-122079460D01*
X155877461Y-122081152D01*
X155895684Y-122080976D01*
X155919938Y-122079571D01*
X155938324Y-122076634D01*
X155955122Y-122071176D01*
X155972690Y-122063155D01*
X156009679Y-122039788D01*
X156040282Y-122009948D01*
X156063754Y-121975048D01*
X156079349Y-121936504D01*
X156086322Y-121895728D01*
X156083925Y-121854134D01*
X156083670Y-121852722D01*
X156070966Y-121810824D01*
X156049644Y-121772438D01*
X156020985Y-121739215D01*
X155986270Y-121712806D01*
X155967445Y-121702858D01*
X155937518Y-121693350D01*
X155902396Y-121688786D01*
X155865790Y-121689225D01*
X155831413Y-121694724D01*
X155813531Y-121700426D01*
X155778383Y-121719486D01*
X155747691Y-121745944D01*
X155722440Y-121778087D01*
X155703613Y-121814199D01*
X155692193Y-121852567D01*
X155689164Y-121891475D01*
X155324275Y-121891475D01*
X155334736Y-121867736D01*
X155366061Y-121815441D01*
X155404274Y-121765666D01*
X155448745Y-121719207D01*
X155498840Y-121676864D01*
X155553926Y-121639434D01*
X155613370Y-121607716D01*
X155676541Y-121582507D01*
X155694886Y-121576701D01*
X155731263Y-121568238D01*
X155772757Y-121562503D01*
X155816199Y-121559636D01*
X155858423Y-121559777D01*
G36*
X154233665Y-121750400D02*
X154251199Y-121752815D01*
X154267879Y-121758076D01*
X154286678Y-121766404D01*
X154336544Y-121794810D01*
X154386028Y-121832026D01*
X154434186Y-121876713D01*
X154480077Y-121927536D01*
X154522757Y-121983158D01*
X154561285Y-122042244D01*
X154594717Y-122103456D01*
X154622112Y-122165459D01*
X154642526Y-122226917D01*
X154655018Y-122286492D01*
X154655381Y-122289129D01*
X154658149Y-122332196D01*
X154654456Y-122370257D01*
X154644593Y-122402427D01*
X154628853Y-122427822D01*
X154607525Y-122445556D01*
X154603187Y-122447832D01*
X154575219Y-122456318D01*
X154543409Y-122457581D01*
X154511189Y-122451488D01*
X154510740Y-122451346D01*
X154467203Y-122433057D01*
X154422270Y-122405842D01*
X154376881Y-122370665D01*
X154331976Y-122328487D01*
X154288495Y-122280272D01*
X154247378Y-122226982D01*
X154209565Y-122169579D01*
X154175996Y-122109026D01*
X154175540Y-122108119D01*
X154150181Y-122053845D01*
X154141711Y-122031574D01*
X154295284Y-122031574D01*
X154295543Y-122059315D01*
X154298121Y-122087311D01*
X154302567Y-122110702D01*
X154312407Y-122140865D01*
X154326999Y-122175156D01*
X154344535Y-122209944D01*
X154363208Y-122241596D01*
X154378382Y-122263022D01*
X154409895Y-122298806D01*
X154441152Y-122326895D01*
X154471506Y-122347000D01*
X154500309Y-122358834D01*
X154526913Y-122362109D01*
X154550670Y-122356538D01*
X154566133Y-122346466D01*
X154580767Y-122329999D01*
X154590019Y-122310003D01*
X154594606Y-122284313D01*
X154595402Y-122258316D01*
X154591584Y-122219085D01*
X154581587Y-122178767D01*
X154566265Y-122138451D01*
X154546466Y-122099228D01*
X154523042Y-122062188D01*
X154496844Y-122028421D01*
X154468723Y-121999018D01*
X154439529Y-121975069D01*
X154410113Y-121957664D01*
X154381326Y-121947894D01*
X154354019Y-121946849D01*
X154352521Y-121947075D01*
X154330226Y-121955610D01*
X154311870Y-121972429D01*
X154301805Y-121989686D01*
X154297365Y-122007295D01*
X154295284Y-122031574D01*
X154141711Y-122031574D01*
X154131505Y-122004742D01*
X154118956Y-121958850D01*
X154111980Y-121914209D01*
X154110024Y-121876820D01*
X154110147Y-121851734D01*
X154111356Y-121833780D01*
X154114108Y-121819950D01*
X154118861Y-121807235D01*
X154121443Y-121801751D01*
X154132212Y-121784421D01*
X154145671Y-121768733D01*
X154151471Y-121763651D01*
X154161774Y-121756608D01*
X154171873Y-121752452D01*
X154184939Y-121750443D01*
X154204145Y-121749838D01*
X154210641Y-121749820D01*
X154233665Y-121750400D01*
X154233665Y-121750400D01*
G37*
X154233665Y-121750400D02*
X154251199Y-121752815D01*
X154267879Y-121758076D01*
X154286678Y-121766404D01*
X154336544Y-121794810D01*
X154386028Y-121832026D01*
X154434186Y-121876713D01*
X154480077Y-121927536D01*
X154522757Y-121983158D01*
X154561285Y-122042244D01*
X154594717Y-122103456D01*
X154622112Y-122165459D01*
X154642526Y-122226917D01*
X154655018Y-122286492D01*
X154655381Y-122289129D01*
X154658149Y-122332196D01*
X154654456Y-122370257D01*
X154644593Y-122402427D01*
X154628853Y-122427822D01*
X154607525Y-122445556D01*
X154603187Y-122447832D01*
X154575219Y-122456318D01*
X154543409Y-122457581D01*
X154511189Y-122451488D01*
X154510740Y-122451346D01*
X154467203Y-122433057D01*
X154422270Y-122405842D01*
X154376881Y-122370665D01*
X154331976Y-122328487D01*
X154288495Y-122280272D01*
X154247378Y-122226982D01*
X154209565Y-122169579D01*
X154175996Y-122109026D01*
X154175540Y-122108119D01*
X154150181Y-122053845D01*
X154141711Y-122031574D01*
X154295284Y-122031574D01*
X154295543Y-122059315D01*
X154298121Y-122087311D01*
X154302567Y-122110702D01*
X154312407Y-122140865D01*
X154326999Y-122175156D01*
X154344535Y-122209944D01*
X154363208Y-122241596D01*
X154378382Y-122263022D01*
X154409895Y-122298806D01*
X154441152Y-122326895D01*
X154471506Y-122347000D01*
X154500309Y-122358834D01*
X154526913Y-122362109D01*
X154550670Y-122356538D01*
X154566133Y-122346466D01*
X154580767Y-122329999D01*
X154590019Y-122310003D01*
X154594606Y-122284313D01*
X154595402Y-122258316D01*
X154591584Y-122219085D01*
X154581587Y-122178767D01*
X154566265Y-122138451D01*
X154546466Y-122099228D01*
X154523042Y-122062188D01*
X154496844Y-122028421D01*
X154468723Y-121999018D01*
X154439529Y-121975069D01*
X154410113Y-121957664D01*
X154381326Y-121947894D01*
X154354019Y-121946849D01*
X154352521Y-121947075D01*
X154330226Y-121955610D01*
X154311870Y-121972429D01*
X154301805Y-121989686D01*
X154297365Y-122007295D01*
X154295284Y-122031574D01*
X154141711Y-122031574D01*
X154131505Y-122004742D01*
X154118956Y-121958850D01*
X154111980Y-121914209D01*
X154110024Y-121876820D01*
X154110147Y-121851734D01*
X154111356Y-121833780D01*
X154114108Y-121819950D01*
X154118861Y-121807235D01*
X154121443Y-121801751D01*
X154132212Y-121784421D01*
X154145671Y-121768733D01*
X154151471Y-121763651D01*
X154161774Y-121756608D01*
X154171873Y-121752452D01*
X154184939Y-121750443D01*
X154204145Y-121749838D01*
X154210641Y-121749820D01*
X154233665Y-121750400D01*
D11*
G36*
X155564692Y-123189830D02*
X155568884Y-123195238D01*
X155569842Y-123203434D01*
X155565424Y-123208854D01*
X155553375Y-123216710D01*
X155535655Y-123226093D01*
X155514225Y-123236090D01*
X155491046Y-123245791D01*
X155468078Y-123254284D01*
X155447282Y-123260659D01*
X155445917Y-123261013D01*
X155402856Y-123268486D01*
X155354361Y-123270860D01*
X155303785Y-123268138D01*
X155257500Y-123260965D01*
X155230200Y-123255186D01*
X155211309Y-123250973D01*
X155199286Y-123247840D01*
X155192588Y-123245302D01*
X155189673Y-123242876D01*
X155188999Y-123240076D01*
X155188997Y-123239433D01*
X155190026Y-123231727D01*
X155193898Y-123227084D01*
X155202140Y-123225369D01*
X155216276Y-123226449D01*
X155237832Y-123230190D01*
X155254960Y-123233657D01*
X155313922Y-123243109D01*
X155367388Y-123245441D01*
X155417312Y-123240442D01*
X155465646Y-123227901D01*
X155514342Y-123207609D01*
X155519221Y-123205188D01*
X155541207Y-123194758D01*
X155555915Y-123189654D01*
X155564692Y-123189830D01*
X155564692Y-123189830D01*
G37*
X155564692Y-123189830D02*
X155568884Y-123195238D01*
X155569842Y-123203434D01*
X155565424Y-123208854D01*
X155553375Y-123216710D01*
X155535655Y-123226093D01*
X155514225Y-123236090D01*
X155491046Y-123245791D01*
X155468078Y-123254284D01*
X155447282Y-123260659D01*
X155445917Y-123261013D01*
X155402856Y-123268486D01*
X155354361Y-123270860D01*
X155303785Y-123268138D01*
X155257500Y-123260965D01*
X155230200Y-123255186D01*
X155211309Y-123250973D01*
X155199286Y-123247840D01*
X155192588Y-123245302D01*
X155189673Y-123242876D01*
X155188999Y-123240076D01*
X155188997Y-123239433D01*
X155190026Y-123231727D01*
X155193898Y-123227084D01*
X155202140Y-123225369D01*
X155216276Y-123226449D01*
X155237832Y-123230190D01*
X155254960Y-123233657D01*
X155313922Y-123243109D01*
X155367388Y-123245441D01*
X155417312Y-123240442D01*
X155465646Y-123227901D01*
X155514342Y-123207609D01*
X155519221Y-123205188D01*
X155541207Y-123194758D01*
X155555915Y-123189654D01*
X155564692Y-123189830D01*
G04 #@! TD*
D12*
G04 #@! TO.C,J4*
X157010000Y-111640000D03*
D13*
X157010000Y-114180000D03*
X159550000Y-111640000D03*
X159550000Y-114180000D03*
X162090000Y-111640000D03*
X162090000Y-114180000D03*
X164630000Y-111640000D03*
X164630000Y-114180000D03*
X167170000Y-111640000D03*
X167170000Y-114180000D03*
G04 #@! TD*
D12*
G04 #@! TO.C,J5*
X194750000Y-114250000D03*
D13*
X194750000Y-111710000D03*
X192210000Y-114250000D03*
X192210000Y-111710000D03*
X189670000Y-114250000D03*
X189670000Y-111710000D03*
X187130000Y-114250000D03*
X187130000Y-111710000D03*
X184590000Y-114250000D03*
X184590000Y-111710000D03*
X182050000Y-114250000D03*
X182050000Y-111710000D03*
G04 #@! TD*
D14*
G04 #@! TO.C,C1*
G36*
X122486759Y-122981192D02*
X122510785Y-122984756D01*
X122534345Y-122990657D01*
X122557214Y-122998840D01*
X122579171Y-123009224D01*
X122600004Y-123021711D01*
X122619512Y-123036180D01*
X122637509Y-123052491D01*
X122653820Y-123070488D01*
X122668289Y-123089996D01*
X122680776Y-123110829D01*
X122691160Y-123132786D01*
X122699343Y-123155655D01*
X122705244Y-123179215D01*
X122708808Y-123203241D01*
X122710000Y-123227500D01*
X122710000Y-123772500D01*
X122708808Y-123796759D01*
X122705244Y-123820785D01*
X122699343Y-123844345D01*
X122691160Y-123867214D01*
X122680776Y-123889171D01*
X122668289Y-123910004D01*
X122653820Y-123929512D01*
X122637509Y-123947509D01*
X122619512Y-123963820D01*
X122600004Y-123978289D01*
X122579171Y-123990776D01*
X122557214Y-124001160D01*
X122534345Y-124009343D01*
X122510785Y-124015244D01*
X122486759Y-124018808D01*
X122462500Y-124020000D01*
X121967500Y-124020000D01*
X121943241Y-124018808D01*
X121919215Y-124015244D01*
X121895655Y-124009343D01*
X121872786Y-124001160D01*
X121850829Y-123990776D01*
X121829996Y-123978289D01*
X121810488Y-123963820D01*
X121792491Y-123947509D01*
X121776180Y-123929512D01*
X121761711Y-123910004D01*
X121749224Y-123889171D01*
X121738840Y-123867214D01*
X121730657Y-123844345D01*
X121724756Y-123820785D01*
X121721192Y-123796759D01*
X121720000Y-123772500D01*
X121720000Y-123227500D01*
X121721192Y-123203241D01*
X121724756Y-123179215D01*
X121730657Y-123155655D01*
X121738840Y-123132786D01*
X121749224Y-123110829D01*
X121761711Y-123089996D01*
X121776180Y-123070488D01*
X121792491Y-123052491D01*
X121810488Y-123036180D01*
X121829996Y-123021711D01*
X121850829Y-123009224D01*
X121872786Y-122998840D01*
X121895655Y-122990657D01*
X121919215Y-122984756D01*
X121943241Y-122981192D01*
X121967500Y-122980000D01*
X122462500Y-122980000D01*
X122486759Y-122981192D01*
X122486759Y-122981192D01*
G37*
D15*
X122215000Y-123500000D03*
D14*
G36*
X123456759Y-122981192D02*
X123480785Y-122984756D01*
X123504345Y-122990657D01*
X123527214Y-122998840D01*
X123549171Y-123009224D01*
X123570004Y-123021711D01*
X123589512Y-123036180D01*
X123607509Y-123052491D01*
X123623820Y-123070488D01*
X123638289Y-123089996D01*
X123650776Y-123110829D01*
X123661160Y-123132786D01*
X123669343Y-123155655D01*
X123675244Y-123179215D01*
X123678808Y-123203241D01*
X123680000Y-123227500D01*
X123680000Y-123772500D01*
X123678808Y-123796759D01*
X123675244Y-123820785D01*
X123669343Y-123844345D01*
X123661160Y-123867214D01*
X123650776Y-123889171D01*
X123638289Y-123910004D01*
X123623820Y-123929512D01*
X123607509Y-123947509D01*
X123589512Y-123963820D01*
X123570004Y-123978289D01*
X123549171Y-123990776D01*
X123527214Y-124001160D01*
X123504345Y-124009343D01*
X123480785Y-124015244D01*
X123456759Y-124018808D01*
X123432500Y-124020000D01*
X122937500Y-124020000D01*
X122913241Y-124018808D01*
X122889215Y-124015244D01*
X122865655Y-124009343D01*
X122842786Y-124001160D01*
X122820829Y-123990776D01*
X122799996Y-123978289D01*
X122780488Y-123963820D01*
X122762491Y-123947509D01*
X122746180Y-123929512D01*
X122731711Y-123910004D01*
X122719224Y-123889171D01*
X122708840Y-123867214D01*
X122700657Y-123844345D01*
X122694756Y-123820785D01*
X122691192Y-123796759D01*
X122690000Y-123772500D01*
X122690000Y-123227500D01*
X122691192Y-123203241D01*
X122694756Y-123179215D01*
X122700657Y-123155655D01*
X122708840Y-123132786D01*
X122719224Y-123110829D01*
X122731711Y-123089996D01*
X122746180Y-123070488D01*
X122762491Y-123052491D01*
X122780488Y-123036180D01*
X122799996Y-123021711D01*
X122820829Y-123009224D01*
X122842786Y-122998840D01*
X122865655Y-122990657D01*
X122889215Y-122984756D01*
X122913241Y-122981192D01*
X122937500Y-122980000D01*
X123432500Y-122980000D01*
X123456759Y-122981192D01*
X123456759Y-122981192D01*
G37*
D15*
X123185000Y-123500000D03*
G04 #@! TD*
D14*
G04 #@! TO.C,C2*
G36*
X170226759Y-125291192D02*
X170250785Y-125294756D01*
X170274345Y-125300657D01*
X170297214Y-125308840D01*
X170319171Y-125319224D01*
X170340004Y-125331711D01*
X170359512Y-125346180D01*
X170377509Y-125362491D01*
X170393820Y-125380488D01*
X170408289Y-125399996D01*
X170420776Y-125420829D01*
X170431160Y-125442786D01*
X170439343Y-125465655D01*
X170445244Y-125489215D01*
X170448808Y-125513241D01*
X170450000Y-125537500D01*
X170450000Y-126032500D01*
X170448808Y-126056759D01*
X170445244Y-126080785D01*
X170439343Y-126104345D01*
X170431160Y-126127214D01*
X170420776Y-126149171D01*
X170408289Y-126170004D01*
X170393820Y-126189512D01*
X170377509Y-126207509D01*
X170359512Y-126223820D01*
X170340004Y-126238289D01*
X170319171Y-126250776D01*
X170297214Y-126261160D01*
X170274345Y-126269343D01*
X170250785Y-126275244D01*
X170226759Y-126278808D01*
X170202500Y-126280000D01*
X169657500Y-126280000D01*
X169633241Y-126278808D01*
X169609215Y-126275244D01*
X169585655Y-126269343D01*
X169562786Y-126261160D01*
X169540829Y-126250776D01*
X169519996Y-126238289D01*
X169500488Y-126223820D01*
X169482491Y-126207509D01*
X169466180Y-126189512D01*
X169451711Y-126170004D01*
X169439224Y-126149171D01*
X169428840Y-126127214D01*
X169420657Y-126104345D01*
X169414756Y-126080785D01*
X169411192Y-126056759D01*
X169410000Y-126032500D01*
X169410000Y-125537500D01*
X169411192Y-125513241D01*
X169414756Y-125489215D01*
X169420657Y-125465655D01*
X169428840Y-125442786D01*
X169439224Y-125420829D01*
X169451711Y-125399996D01*
X169466180Y-125380488D01*
X169482491Y-125362491D01*
X169500488Y-125346180D01*
X169519996Y-125331711D01*
X169540829Y-125319224D01*
X169562786Y-125308840D01*
X169585655Y-125300657D01*
X169609215Y-125294756D01*
X169633241Y-125291192D01*
X169657500Y-125290000D01*
X170202500Y-125290000D01*
X170226759Y-125291192D01*
X170226759Y-125291192D01*
G37*
D15*
X169930000Y-125785000D03*
D14*
G36*
X170226759Y-126261192D02*
X170250785Y-126264756D01*
X170274345Y-126270657D01*
X170297214Y-126278840D01*
X170319171Y-126289224D01*
X170340004Y-126301711D01*
X170359512Y-126316180D01*
X170377509Y-126332491D01*
X170393820Y-126350488D01*
X170408289Y-126369996D01*
X170420776Y-126390829D01*
X170431160Y-126412786D01*
X170439343Y-126435655D01*
X170445244Y-126459215D01*
X170448808Y-126483241D01*
X170450000Y-126507500D01*
X170450000Y-127002500D01*
X170448808Y-127026759D01*
X170445244Y-127050785D01*
X170439343Y-127074345D01*
X170431160Y-127097214D01*
X170420776Y-127119171D01*
X170408289Y-127140004D01*
X170393820Y-127159512D01*
X170377509Y-127177509D01*
X170359512Y-127193820D01*
X170340004Y-127208289D01*
X170319171Y-127220776D01*
X170297214Y-127231160D01*
X170274345Y-127239343D01*
X170250785Y-127245244D01*
X170226759Y-127248808D01*
X170202500Y-127250000D01*
X169657500Y-127250000D01*
X169633241Y-127248808D01*
X169609215Y-127245244D01*
X169585655Y-127239343D01*
X169562786Y-127231160D01*
X169540829Y-127220776D01*
X169519996Y-127208289D01*
X169500488Y-127193820D01*
X169482491Y-127177509D01*
X169466180Y-127159512D01*
X169451711Y-127140004D01*
X169439224Y-127119171D01*
X169428840Y-127097214D01*
X169420657Y-127074345D01*
X169414756Y-127050785D01*
X169411192Y-127026759D01*
X169410000Y-127002500D01*
X169410000Y-126507500D01*
X169411192Y-126483241D01*
X169414756Y-126459215D01*
X169420657Y-126435655D01*
X169428840Y-126412786D01*
X169439224Y-126390829D01*
X169451711Y-126369996D01*
X169466180Y-126350488D01*
X169482491Y-126332491D01*
X169500488Y-126316180D01*
X169519996Y-126301711D01*
X169540829Y-126289224D01*
X169562786Y-126278840D01*
X169585655Y-126270657D01*
X169609215Y-126264756D01*
X169633241Y-126261192D01*
X169657500Y-126260000D01*
X170202500Y-126260000D01*
X170226759Y-126261192D01*
X170226759Y-126261192D01*
G37*
D15*
X169930000Y-126755000D03*
G04 #@! TD*
D14*
G04 #@! TO.C,C3*
G36*
X123441759Y-124181192D02*
X123465785Y-124184756D01*
X123489345Y-124190657D01*
X123512214Y-124198840D01*
X123534171Y-124209224D01*
X123555004Y-124221711D01*
X123574512Y-124236180D01*
X123592509Y-124252491D01*
X123608820Y-124270488D01*
X123623289Y-124289996D01*
X123635776Y-124310829D01*
X123646160Y-124332786D01*
X123654343Y-124355655D01*
X123660244Y-124379215D01*
X123663808Y-124403241D01*
X123665000Y-124427500D01*
X123665000Y-124972500D01*
X123663808Y-124996759D01*
X123660244Y-125020785D01*
X123654343Y-125044345D01*
X123646160Y-125067214D01*
X123635776Y-125089171D01*
X123623289Y-125110004D01*
X123608820Y-125129512D01*
X123592509Y-125147509D01*
X123574512Y-125163820D01*
X123555004Y-125178289D01*
X123534171Y-125190776D01*
X123512214Y-125201160D01*
X123489345Y-125209343D01*
X123465785Y-125215244D01*
X123441759Y-125218808D01*
X123417500Y-125220000D01*
X122922500Y-125220000D01*
X122898241Y-125218808D01*
X122874215Y-125215244D01*
X122850655Y-125209343D01*
X122827786Y-125201160D01*
X122805829Y-125190776D01*
X122784996Y-125178289D01*
X122765488Y-125163820D01*
X122747491Y-125147509D01*
X122731180Y-125129512D01*
X122716711Y-125110004D01*
X122704224Y-125089171D01*
X122693840Y-125067214D01*
X122685657Y-125044345D01*
X122679756Y-125020785D01*
X122676192Y-124996759D01*
X122675000Y-124972500D01*
X122675000Y-124427500D01*
X122676192Y-124403241D01*
X122679756Y-124379215D01*
X122685657Y-124355655D01*
X122693840Y-124332786D01*
X122704224Y-124310829D01*
X122716711Y-124289996D01*
X122731180Y-124270488D01*
X122747491Y-124252491D01*
X122765488Y-124236180D01*
X122784996Y-124221711D01*
X122805829Y-124209224D01*
X122827786Y-124198840D01*
X122850655Y-124190657D01*
X122874215Y-124184756D01*
X122898241Y-124181192D01*
X122922500Y-124180000D01*
X123417500Y-124180000D01*
X123441759Y-124181192D01*
X123441759Y-124181192D01*
G37*
D15*
X123170000Y-124700000D03*
D14*
G36*
X122471759Y-124181192D02*
X122495785Y-124184756D01*
X122519345Y-124190657D01*
X122542214Y-124198840D01*
X122564171Y-124209224D01*
X122585004Y-124221711D01*
X122604512Y-124236180D01*
X122622509Y-124252491D01*
X122638820Y-124270488D01*
X122653289Y-124289996D01*
X122665776Y-124310829D01*
X122676160Y-124332786D01*
X122684343Y-124355655D01*
X122690244Y-124379215D01*
X122693808Y-124403241D01*
X122695000Y-124427500D01*
X122695000Y-124972500D01*
X122693808Y-124996759D01*
X122690244Y-125020785D01*
X122684343Y-125044345D01*
X122676160Y-125067214D01*
X122665776Y-125089171D01*
X122653289Y-125110004D01*
X122638820Y-125129512D01*
X122622509Y-125147509D01*
X122604512Y-125163820D01*
X122585004Y-125178289D01*
X122564171Y-125190776D01*
X122542214Y-125201160D01*
X122519345Y-125209343D01*
X122495785Y-125215244D01*
X122471759Y-125218808D01*
X122447500Y-125220000D01*
X121952500Y-125220000D01*
X121928241Y-125218808D01*
X121904215Y-125215244D01*
X121880655Y-125209343D01*
X121857786Y-125201160D01*
X121835829Y-125190776D01*
X121814996Y-125178289D01*
X121795488Y-125163820D01*
X121777491Y-125147509D01*
X121761180Y-125129512D01*
X121746711Y-125110004D01*
X121734224Y-125089171D01*
X121723840Y-125067214D01*
X121715657Y-125044345D01*
X121709756Y-125020785D01*
X121706192Y-124996759D01*
X121705000Y-124972500D01*
X121705000Y-124427500D01*
X121706192Y-124403241D01*
X121709756Y-124379215D01*
X121715657Y-124355655D01*
X121723840Y-124332786D01*
X121734224Y-124310829D01*
X121746711Y-124289996D01*
X121761180Y-124270488D01*
X121777491Y-124252491D01*
X121795488Y-124236180D01*
X121814996Y-124221711D01*
X121835829Y-124209224D01*
X121857786Y-124198840D01*
X121880655Y-124190657D01*
X121904215Y-124184756D01*
X121928241Y-124181192D01*
X121952500Y-124180000D01*
X122447500Y-124180000D01*
X122471759Y-124181192D01*
X122471759Y-124181192D01*
G37*
D15*
X122200000Y-124700000D03*
G04 #@! TD*
D14*
G04 #@! TO.C,C4*
G36*
X122486759Y-125381192D02*
X122510785Y-125384756D01*
X122534345Y-125390657D01*
X122557214Y-125398840D01*
X122579171Y-125409224D01*
X122600004Y-125421711D01*
X122619512Y-125436180D01*
X122637509Y-125452491D01*
X122653820Y-125470488D01*
X122668289Y-125489996D01*
X122680776Y-125510829D01*
X122691160Y-125532786D01*
X122699343Y-125555655D01*
X122705244Y-125579215D01*
X122708808Y-125603241D01*
X122710000Y-125627500D01*
X122710000Y-126172500D01*
X122708808Y-126196759D01*
X122705244Y-126220785D01*
X122699343Y-126244345D01*
X122691160Y-126267214D01*
X122680776Y-126289171D01*
X122668289Y-126310004D01*
X122653820Y-126329512D01*
X122637509Y-126347509D01*
X122619512Y-126363820D01*
X122600004Y-126378289D01*
X122579171Y-126390776D01*
X122557214Y-126401160D01*
X122534345Y-126409343D01*
X122510785Y-126415244D01*
X122486759Y-126418808D01*
X122462500Y-126420000D01*
X121967500Y-126420000D01*
X121943241Y-126418808D01*
X121919215Y-126415244D01*
X121895655Y-126409343D01*
X121872786Y-126401160D01*
X121850829Y-126390776D01*
X121829996Y-126378289D01*
X121810488Y-126363820D01*
X121792491Y-126347509D01*
X121776180Y-126329512D01*
X121761711Y-126310004D01*
X121749224Y-126289171D01*
X121738840Y-126267214D01*
X121730657Y-126244345D01*
X121724756Y-126220785D01*
X121721192Y-126196759D01*
X121720000Y-126172500D01*
X121720000Y-125627500D01*
X121721192Y-125603241D01*
X121724756Y-125579215D01*
X121730657Y-125555655D01*
X121738840Y-125532786D01*
X121749224Y-125510829D01*
X121761711Y-125489996D01*
X121776180Y-125470488D01*
X121792491Y-125452491D01*
X121810488Y-125436180D01*
X121829996Y-125421711D01*
X121850829Y-125409224D01*
X121872786Y-125398840D01*
X121895655Y-125390657D01*
X121919215Y-125384756D01*
X121943241Y-125381192D01*
X121967500Y-125380000D01*
X122462500Y-125380000D01*
X122486759Y-125381192D01*
X122486759Y-125381192D01*
G37*
D15*
X122215000Y-125900000D03*
D14*
G36*
X123456759Y-125381192D02*
X123480785Y-125384756D01*
X123504345Y-125390657D01*
X123527214Y-125398840D01*
X123549171Y-125409224D01*
X123570004Y-125421711D01*
X123589512Y-125436180D01*
X123607509Y-125452491D01*
X123623820Y-125470488D01*
X123638289Y-125489996D01*
X123650776Y-125510829D01*
X123661160Y-125532786D01*
X123669343Y-125555655D01*
X123675244Y-125579215D01*
X123678808Y-125603241D01*
X123680000Y-125627500D01*
X123680000Y-126172500D01*
X123678808Y-126196759D01*
X123675244Y-126220785D01*
X123669343Y-126244345D01*
X123661160Y-126267214D01*
X123650776Y-126289171D01*
X123638289Y-126310004D01*
X123623820Y-126329512D01*
X123607509Y-126347509D01*
X123589512Y-126363820D01*
X123570004Y-126378289D01*
X123549171Y-126390776D01*
X123527214Y-126401160D01*
X123504345Y-126409343D01*
X123480785Y-126415244D01*
X123456759Y-126418808D01*
X123432500Y-126420000D01*
X122937500Y-126420000D01*
X122913241Y-126418808D01*
X122889215Y-126415244D01*
X122865655Y-126409343D01*
X122842786Y-126401160D01*
X122820829Y-126390776D01*
X122799996Y-126378289D01*
X122780488Y-126363820D01*
X122762491Y-126347509D01*
X122746180Y-126329512D01*
X122731711Y-126310004D01*
X122719224Y-126289171D01*
X122708840Y-126267214D01*
X122700657Y-126244345D01*
X122694756Y-126220785D01*
X122691192Y-126196759D01*
X122690000Y-126172500D01*
X122690000Y-125627500D01*
X122691192Y-125603241D01*
X122694756Y-125579215D01*
X122700657Y-125555655D01*
X122708840Y-125532786D01*
X122719224Y-125510829D01*
X122731711Y-125489996D01*
X122746180Y-125470488D01*
X122762491Y-125452491D01*
X122780488Y-125436180D01*
X122799996Y-125421711D01*
X122820829Y-125409224D01*
X122842786Y-125398840D01*
X122865655Y-125390657D01*
X122889215Y-125384756D01*
X122913241Y-125381192D01*
X122937500Y-125380000D01*
X123432500Y-125380000D01*
X123456759Y-125381192D01*
X123456759Y-125381192D01*
G37*
D15*
X123185000Y-125900000D03*
G04 #@! TD*
D14*
G04 #@! TO.C,C5*
G36*
X123456759Y-126681192D02*
X123480785Y-126684756D01*
X123504345Y-126690657D01*
X123527214Y-126698840D01*
X123549171Y-126709224D01*
X123570004Y-126721711D01*
X123589512Y-126736180D01*
X123607509Y-126752491D01*
X123623820Y-126770488D01*
X123638289Y-126789996D01*
X123650776Y-126810829D01*
X123661160Y-126832786D01*
X123669343Y-126855655D01*
X123675244Y-126879215D01*
X123678808Y-126903241D01*
X123680000Y-126927500D01*
X123680000Y-127472500D01*
X123678808Y-127496759D01*
X123675244Y-127520785D01*
X123669343Y-127544345D01*
X123661160Y-127567214D01*
X123650776Y-127589171D01*
X123638289Y-127610004D01*
X123623820Y-127629512D01*
X123607509Y-127647509D01*
X123589512Y-127663820D01*
X123570004Y-127678289D01*
X123549171Y-127690776D01*
X123527214Y-127701160D01*
X123504345Y-127709343D01*
X123480785Y-127715244D01*
X123456759Y-127718808D01*
X123432500Y-127720000D01*
X122937500Y-127720000D01*
X122913241Y-127718808D01*
X122889215Y-127715244D01*
X122865655Y-127709343D01*
X122842786Y-127701160D01*
X122820829Y-127690776D01*
X122799996Y-127678289D01*
X122780488Y-127663820D01*
X122762491Y-127647509D01*
X122746180Y-127629512D01*
X122731711Y-127610004D01*
X122719224Y-127589171D01*
X122708840Y-127567214D01*
X122700657Y-127544345D01*
X122694756Y-127520785D01*
X122691192Y-127496759D01*
X122690000Y-127472500D01*
X122690000Y-126927500D01*
X122691192Y-126903241D01*
X122694756Y-126879215D01*
X122700657Y-126855655D01*
X122708840Y-126832786D01*
X122719224Y-126810829D01*
X122731711Y-126789996D01*
X122746180Y-126770488D01*
X122762491Y-126752491D01*
X122780488Y-126736180D01*
X122799996Y-126721711D01*
X122820829Y-126709224D01*
X122842786Y-126698840D01*
X122865655Y-126690657D01*
X122889215Y-126684756D01*
X122913241Y-126681192D01*
X122937500Y-126680000D01*
X123432500Y-126680000D01*
X123456759Y-126681192D01*
X123456759Y-126681192D01*
G37*
D15*
X123185000Y-127200000D03*
D14*
G36*
X122486759Y-126681192D02*
X122510785Y-126684756D01*
X122534345Y-126690657D01*
X122557214Y-126698840D01*
X122579171Y-126709224D01*
X122600004Y-126721711D01*
X122619512Y-126736180D01*
X122637509Y-126752491D01*
X122653820Y-126770488D01*
X122668289Y-126789996D01*
X122680776Y-126810829D01*
X122691160Y-126832786D01*
X122699343Y-126855655D01*
X122705244Y-126879215D01*
X122708808Y-126903241D01*
X122710000Y-126927500D01*
X122710000Y-127472500D01*
X122708808Y-127496759D01*
X122705244Y-127520785D01*
X122699343Y-127544345D01*
X122691160Y-127567214D01*
X122680776Y-127589171D01*
X122668289Y-127610004D01*
X122653820Y-127629512D01*
X122637509Y-127647509D01*
X122619512Y-127663820D01*
X122600004Y-127678289D01*
X122579171Y-127690776D01*
X122557214Y-127701160D01*
X122534345Y-127709343D01*
X122510785Y-127715244D01*
X122486759Y-127718808D01*
X122462500Y-127720000D01*
X121967500Y-127720000D01*
X121943241Y-127718808D01*
X121919215Y-127715244D01*
X121895655Y-127709343D01*
X121872786Y-127701160D01*
X121850829Y-127690776D01*
X121829996Y-127678289D01*
X121810488Y-127663820D01*
X121792491Y-127647509D01*
X121776180Y-127629512D01*
X121761711Y-127610004D01*
X121749224Y-127589171D01*
X121738840Y-127567214D01*
X121730657Y-127544345D01*
X121724756Y-127520785D01*
X121721192Y-127496759D01*
X121720000Y-127472500D01*
X121720000Y-126927500D01*
X121721192Y-126903241D01*
X121724756Y-126879215D01*
X121730657Y-126855655D01*
X121738840Y-126832786D01*
X121749224Y-126810829D01*
X121761711Y-126789996D01*
X121776180Y-126770488D01*
X121792491Y-126752491D01*
X121810488Y-126736180D01*
X121829996Y-126721711D01*
X121850829Y-126709224D01*
X121872786Y-126698840D01*
X121895655Y-126690657D01*
X121919215Y-126684756D01*
X121943241Y-126681192D01*
X121967500Y-126680000D01*
X122462500Y-126680000D01*
X122486759Y-126681192D01*
X122486759Y-126681192D01*
G37*
D15*
X122215000Y-127200000D03*
G04 #@! TD*
D14*
G04 #@! TO.C,C6*
G36*
X173066759Y-126261192D02*
X173090785Y-126264756D01*
X173114345Y-126270657D01*
X173137214Y-126278840D01*
X173159171Y-126289224D01*
X173180004Y-126301711D01*
X173199512Y-126316180D01*
X173217509Y-126332491D01*
X173233820Y-126350488D01*
X173248289Y-126369996D01*
X173260776Y-126390829D01*
X173271160Y-126412786D01*
X173279343Y-126435655D01*
X173285244Y-126459215D01*
X173288808Y-126483241D01*
X173290000Y-126507500D01*
X173290000Y-127002500D01*
X173288808Y-127026759D01*
X173285244Y-127050785D01*
X173279343Y-127074345D01*
X173271160Y-127097214D01*
X173260776Y-127119171D01*
X173248289Y-127140004D01*
X173233820Y-127159512D01*
X173217509Y-127177509D01*
X173199512Y-127193820D01*
X173180004Y-127208289D01*
X173159171Y-127220776D01*
X173137214Y-127231160D01*
X173114345Y-127239343D01*
X173090785Y-127245244D01*
X173066759Y-127248808D01*
X173042500Y-127250000D01*
X172497500Y-127250000D01*
X172473241Y-127248808D01*
X172449215Y-127245244D01*
X172425655Y-127239343D01*
X172402786Y-127231160D01*
X172380829Y-127220776D01*
X172359996Y-127208289D01*
X172340488Y-127193820D01*
X172322491Y-127177509D01*
X172306180Y-127159512D01*
X172291711Y-127140004D01*
X172279224Y-127119171D01*
X172268840Y-127097214D01*
X172260657Y-127074345D01*
X172254756Y-127050785D01*
X172251192Y-127026759D01*
X172250000Y-127002500D01*
X172250000Y-126507500D01*
X172251192Y-126483241D01*
X172254756Y-126459215D01*
X172260657Y-126435655D01*
X172268840Y-126412786D01*
X172279224Y-126390829D01*
X172291711Y-126369996D01*
X172306180Y-126350488D01*
X172322491Y-126332491D01*
X172340488Y-126316180D01*
X172359996Y-126301711D01*
X172380829Y-126289224D01*
X172402786Y-126278840D01*
X172425655Y-126270657D01*
X172449215Y-126264756D01*
X172473241Y-126261192D01*
X172497500Y-126260000D01*
X173042500Y-126260000D01*
X173066759Y-126261192D01*
X173066759Y-126261192D01*
G37*
D15*
X172770000Y-126755000D03*
D14*
G36*
X173066759Y-125291192D02*
X173090785Y-125294756D01*
X173114345Y-125300657D01*
X173137214Y-125308840D01*
X173159171Y-125319224D01*
X173180004Y-125331711D01*
X173199512Y-125346180D01*
X173217509Y-125362491D01*
X173233820Y-125380488D01*
X173248289Y-125399996D01*
X173260776Y-125420829D01*
X173271160Y-125442786D01*
X173279343Y-125465655D01*
X173285244Y-125489215D01*
X173288808Y-125513241D01*
X173290000Y-125537500D01*
X173290000Y-126032500D01*
X173288808Y-126056759D01*
X173285244Y-126080785D01*
X173279343Y-126104345D01*
X173271160Y-126127214D01*
X173260776Y-126149171D01*
X173248289Y-126170004D01*
X173233820Y-126189512D01*
X173217509Y-126207509D01*
X173199512Y-126223820D01*
X173180004Y-126238289D01*
X173159171Y-126250776D01*
X173137214Y-126261160D01*
X173114345Y-126269343D01*
X173090785Y-126275244D01*
X173066759Y-126278808D01*
X173042500Y-126280000D01*
X172497500Y-126280000D01*
X172473241Y-126278808D01*
X172449215Y-126275244D01*
X172425655Y-126269343D01*
X172402786Y-126261160D01*
X172380829Y-126250776D01*
X172359996Y-126238289D01*
X172340488Y-126223820D01*
X172322491Y-126207509D01*
X172306180Y-126189512D01*
X172291711Y-126170004D01*
X172279224Y-126149171D01*
X172268840Y-126127214D01*
X172260657Y-126104345D01*
X172254756Y-126080785D01*
X172251192Y-126056759D01*
X172250000Y-126032500D01*
X172250000Y-125537500D01*
X172251192Y-125513241D01*
X172254756Y-125489215D01*
X172260657Y-125465655D01*
X172268840Y-125442786D01*
X172279224Y-125420829D01*
X172291711Y-125399996D01*
X172306180Y-125380488D01*
X172322491Y-125362491D01*
X172340488Y-125346180D01*
X172359996Y-125331711D01*
X172380829Y-125319224D01*
X172402786Y-125308840D01*
X172425655Y-125300657D01*
X172449215Y-125294756D01*
X172473241Y-125291192D01*
X172497500Y-125290000D01*
X173042500Y-125290000D01*
X173066759Y-125291192D01*
X173066759Y-125291192D01*
G37*
D15*
X172770000Y-125785000D03*
G04 #@! TD*
D14*
G04 #@! TO.C,C7*
G36*
X178701759Y-115381192D02*
X178725785Y-115384756D01*
X178749345Y-115390657D01*
X178772214Y-115398840D01*
X178794171Y-115409224D01*
X178815004Y-115421711D01*
X178834512Y-115436180D01*
X178852509Y-115452491D01*
X178868820Y-115470488D01*
X178883289Y-115489996D01*
X178895776Y-115510829D01*
X178906160Y-115532786D01*
X178914343Y-115555655D01*
X178920244Y-115579215D01*
X178923808Y-115603241D01*
X178925000Y-115627500D01*
X178925000Y-116172500D01*
X178923808Y-116196759D01*
X178920244Y-116220785D01*
X178914343Y-116244345D01*
X178906160Y-116267214D01*
X178895776Y-116289171D01*
X178883289Y-116310004D01*
X178868820Y-116329512D01*
X178852509Y-116347509D01*
X178834512Y-116363820D01*
X178815004Y-116378289D01*
X178794171Y-116390776D01*
X178772214Y-116401160D01*
X178749345Y-116409343D01*
X178725785Y-116415244D01*
X178701759Y-116418808D01*
X178677500Y-116420000D01*
X178182500Y-116420000D01*
X178158241Y-116418808D01*
X178134215Y-116415244D01*
X178110655Y-116409343D01*
X178087786Y-116401160D01*
X178065829Y-116390776D01*
X178044996Y-116378289D01*
X178025488Y-116363820D01*
X178007491Y-116347509D01*
X177991180Y-116329512D01*
X177976711Y-116310004D01*
X177964224Y-116289171D01*
X177953840Y-116267214D01*
X177945657Y-116244345D01*
X177939756Y-116220785D01*
X177936192Y-116196759D01*
X177935000Y-116172500D01*
X177935000Y-115627500D01*
X177936192Y-115603241D01*
X177939756Y-115579215D01*
X177945657Y-115555655D01*
X177953840Y-115532786D01*
X177964224Y-115510829D01*
X177976711Y-115489996D01*
X177991180Y-115470488D01*
X178007491Y-115452491D01*
X178025488Y-115436180D01*
X178044996Y-115421711D01*
X178065829Y-115409224D01*
X178087786Y-115398840D01*
X178110655Y-115390657D01*
X178134215Y-115384756D01*
X178158241Y-115381192D01*
X178182500Y-115380000D01*
X178677500Y-115380000D01*
X178701759Y-115381192D01*
X178701759Y-115381192D01*
G37*
D15*
X178430000Y-115900000D03*
D14*
G36*
X179671759Y-115381192D02*
X179695785Y-115384756D01*
X179719345Y-115390657D01*
X179742214Y-115398840D01*
X179764171Y-115409224D01*
X179785004Y-115421711D01*
X179804512Y-115436180D01*
X179822509Y-115452491D01*
X179838820Y-115470488D01*
X179853289Y-115489996D01*
X179865776Y-115510829D01*
X179876160Y-115532786D01*
X179884343Y-115555655D01*
X179890244Y-115579215D01*
X179893808Y-115603241D01*
X179895000Y-115627500D01*
X179895000Y-116172500D01*
X179893808Y-116196759D01*
X179890244Y-116220785D01*
X179884343Y-116244345D01*
X179876160Y-116267214D01*
X179865776Y-116289171D01*
X179853289Y-116310004D01*
X179838820Y-116329512D01*
X179822509Y-116347509D01*
X179804512Y-116363820D01*
X179785004Y-116378289D01*
X179764171Y-116390776D01*
X179742214Y-116401160D01*
X179719345Y-116409343D01*
X179695785Y-116415244D01*
X179671759Y-116418808D01*
X179647500Y-116420000D01*
X179152500Y-116420000D01*
X179128241Y-116418808D01*
X179104215Y-116415244D01*
X179080655Y-116409343D01*
X179057786Y-116401160D01*
X179035829Y-116390776D01*
X179014996Y-116378289D01*
X178995488Y-116363820D01*
X178977491Y-116347509D01*
X178961180Y-116329512D01*
X178946711Y-116310004D01*
X178934224Y-116289171D01*
X178923840Y-116267214D01*
X178915657Y-116244345D01*
X178909756Y-116220785D01*
X178906192Y-116196759D01*
X178905000Y-116172500D01*
X178905000Y-115627500D01*
X178906192Y-115603241D01*
X178909756Y-115579215D01*
X178915657Y-115555655D01*
X178923840Y-115532786D01*
X178934224Y-115510829D01*
X178946711Y-115489996D01*
X178961180Y-115470488D01*
X178977491Y-115452491D01*
X178995488Y-115436180D01*
X179014996Y-115421711D01*
X179035829Y-115409224D01*
X179057786Y-115398840D01*
X179080655Y-115390657D01*
X179104215Y-115384756D01*
X179128241Y-115381192D01*
X179152500Y-115380000D01*
X179647500Y-115380000D01*
X179671759Y-115381192D01*
X179671759Y-115381192D01*
G37*
D15*
X179400000Y-115900000D03*
G04 #@! TD*
D14*
G04 #@! TO.C,C8*
G36*
X170796759Y-115771192D02*
X170820785Y-115774756D01*
X170844345Y-115780657D01*
X170867214Y-115788840D01*
X170889171Y-115799224D01*
X170910004Y-115811711D01*
X170929512Y-115826180D01*
X170947509Y-115842491D01*
X170963820Y-115860488D01*
X170978289Y-115879996D01*
X170990776Y-115900829D01*
X171001160Y-115922786D01*
X171009343Y-115945655D01*
X171015244Y-115969215D01*
X171018808Y-115993241D01*
X171020000Y-116017500D01*
X171020000Y-116512500D01*
X171018808Y-116536759D01*
X171015244Y-116560785D01*
X171009343Y-116584345D01*
X171001160Y-116607214D01*
X170990776Y-116629171D01*
X170978289Y-116650004D01*
X170963820Y-116669512D01*
X170947509Y-116687509D01*
X170929512Y-116703820D01*
X170910004Y-116718289D01*
X170889171Y-116730776D01*
X170867214Y-116741160D01*
X170844345Y-116749343D01*
X170820785Y-116755244D01*
X170796759Y-116758808D01*
X170772500Y-116760000D01*
X170227500Y-116760000D01*
X170203241Y-116758808D01*
X170179215Y-116755244D01*
X170155655Y-116749343D01*
X170132786Y-116741160D01*
X170110829Y-116730776D01*
X170089996Y-116718289D01*
X170070488Y-116703820D01*
X170052491Y-116687509D01*
X170036180Y-116669512D01*
X170021711Y-116650004D01*
X170009224Y-116629171D01*
X169998840Y-116607214D01*
X169990657Y-116584345D01*
X169984756Y-116560785D01*
X169981192Y-116536759D01*
X169980000Y-116512500D01*
X169980000Y-116017500D01*
X169981192Y-115993241D01*
X169984756Y-115969215D01*
X169990657Y-115945655D01*
X169998840Y-115922786D01*
X170009224Y-115900829D01*
X170021711Y-115879996D01*
X170036180Y-115860488D01*
X170052491Y-115842491D01*
X170070488Y-115826180D01*
X170089996Y-115811711D01*
X170110829Y-115799224D01*
X170132786Y-115788840D01*
X170155655Y-115780657D01*
X170179215Y-115774756D01*
X170203241Y-115771192D01*
X170227500Y-115770000D01*
X170772500Y-115770000D01*
X170796759Y-115771192D01*
X170796759Y-115771192D01*
G37*
D15*
X170500000Y-116265000D03*
D14*
G36*
X170796759Y-116741192D02*
X170820785Y-116744756D01*
X170844345Y-116750657D01*
X170867214Y-116758840D01*
X170889171Y-116769224D01*
X170910004Y-116781711D01*
X170929512Y-116796180D01*
X170947509Y-116812491D01*
X170963820Y-116830488D01*
X170978289Y-116849996D01*
X170990776Y-116870829D01*
X171001160Y-116892786D01*
X171009343Y-116915655D01*
X171015244Y-116939215D01*
X171018808Y-116963241D01*
X171020000Y-116987500D01*
X171020000Y-117482500D01*
X171018808Y-117506759D01*
X171015244Y-117530785D01*
X171009343Y-117554345D01*
X171001160Y-117577214D01*
X170990776Y-117599171D01*
X170978289Y-117620004D01*
X170963820Y-117639512D01*
X170947509Y-117657509D01*
X170929512Y-117673820D01*
X170910004Y-117688289D01*
X170889171Y-117700776D01*
X170867214Y-117711160D01*
X170844345Y-117719343D01*
X170820785Y-117725244D01*
X170796759Y-117728808D01*
X170772500Y-117730000D01*
X170227500Y-117730000D01*
X170203241Y-117728808D01*
X170179215Y-117725244D01*
X170155655Y-117719343D01*
X170132786Y-117711160D01*
X170110829Y-117700776D01*
X170089996Y-117688289D01*
X170070488Y-117673820D01*
X170052491Y-117657509D01*
X170036180Y-117639512D01*
X170021711Y-117620004D01*
X170009224Y-117599171D01*
X169998840Y-117577214D01*
X169990657Y-117554345D01*
X169984756Y-117530785D01*
X169981192Y-117506759D01*
X169980000Y-117482500D01*
X169980000Y-116987500D01*
X169981192Y-116963241D01*
X169984756Y-116939215D01*
X169990657Y-116915655D01*
X169998840Y-116892786D01*
X170009224Y-116870829D01*
X170021711Y-116849996D01*
X170036180Y-116830488D01*
X170052491Y-116812491D01*
X170070488Y-116796180D01*
X170089996Y-116781711D01*
X170110829Y-116769224D01*
X170132786Y-116758840D01*
X170155655Y-116750657D01*
X170179215Y-116744756D01*
X170203241Y-116741192D01*
X170227500Y-116740000D01*
X170772500Y-116740000D01*
X170796759Y-116741192D01*
X170796759Y-116741192D01*
G37*
D15*
X170500000Y-117235000D03*
G04 #@! TD*
D14*
G04 #@! TO.C,C9*
G36*
X174786759Y-120981192D02*
X174810785Y-120984756D01*
X174834345Y-120990657D01*
X174857214Y-120998840D01*
X174879171Y-121009224D01*
X174900004Y-121021711D01*
X174919512Y-121036180D01*
X174937509Y-121052491D01*
X174953820Y-121070488D01*
X174968289Y-121089996D01*
X174980776Y-121110829D01*
X174991160Y-121132786D01*
X174999343Y-121155655D01*
X175005244Y-121179215D01*
X175008808Y-121203241D01*
X175010000Y-121227500D01*
X175010000Y-121772500D01*
X175008808Y-121796759D01*
X175005244Y-121820785D01*
X174999343Y-121844345D01*
X174991160Y-121867214D01*
X174980776Y-121889171D01*
X174968289Y-121910004D01*
X174953820Y-121929512D01*
X174937509Y-121947509D01*
X174919512Y-121963820D01*
X174900004Y-121978289D01*
X174879171Y-121990776D01*
X174857214Y-122001160D01*
X174834345Y-122009343D01*
X174810785Y-122015244D01*
X174786759Y-122018808D01*
X174762500Y-122020000D01*
X174267500Y-122020000D01*
X174243241Y-122018808D01*
X174219215Y-122015244D01*
X174195655Y-122009343D01*
X174172786Y-122001160D01*
X174150829Y-121990776D01*
X174129996Y-121978289D01*
X174110488Y-121963820D01*
X174092491Y-121947509D01*
X174076180Y-121929512D01*
X174061711Y-121910004D01*
X174049224Y-121889171D01*
X174038840Y-121867214D01*
X174030657Y-121844345D01*
X174024756Y-121820785D01*
X174021192Y-121796759D01*
X174020000Y-121772500D01*
X174020000Y-121227500D01*
X174021192Y-121203241D01*
X174024756Y-121179215D01*
X174030657Y-121155655D01*
X174038840Y-121132786D01*
X174049224Y-121110829D01*
X174061711Y-121089996D01*
X174076180Y-121070488D01*
X174092491Y-121052491D01*
X174110488Y-121036180D01*
X174129996Y-121021711D01*
X174150829Y-121009224D01*
X174172786Y-120998840D01*
X174195655Y-120990657D01*
X174219215Y-120984756D01*
X174243241Y-120981192D01*
X174267500Y-120980000D01*
X174762500Y-120980000D01*
X174786759Y-120981192D01*
X174786759Y-120981192D01*
G37*
D15*
X174515000Y-121500000D03*
D14*
G36*
X175756759Y-120981192D02*
X175780785Y-120984756D01*
X175804345Y-120990657D01*
X175827214Y-120998840D01*
X175849171Y-121009224D01*
X175870004Y-121021711D01*
X175889512Y-121036180D01*
X175907509Y-121052491D01*
X175923820Y-121070488D01*
X175938289Y-121089996D01*
X175950776Y-121110829D01*
X175961160Y-121132786D01*
X175969343Y-121155655D01*
X175975244Y-121179215D01*
X175978808Y-121203241D01*
X175980000Y-121227500D01*
X175980000Y-121772500D01*
X175978808Y-121796759D01*
X175975244Y-121820785D01*
X175969343Y-121844345D01*
X175961160Y-121867214D01*
X175950776Y-121889171D01*
X175938289Y-121910004D01*
X175923820Y-121929512D01*
X175907509Y-121947509D01*
X175889512Y-121963820D01*
X175870004Y-121978289D01*
X175849171Y-121990776D01*
X175827214Y-122001160D01*
X175804345Y-122009343D01*
X175780785Y-122015244D01*
X175756759Y-122018808D01*
X175732500Y-122020000D01*
X175237500Y-122020000D01*
X175213241Y-122018808D01*
X175189215Y-122015244D01*
X175165655Y-122009343D01*
X175142786Y-122001160D01*
X175120829Y-121990776D01*
X175099996Y-121978289D01*
X175080488Y-121963820D01*
X175062491Y-121947509D01*
X175046180Y-121929512D01*
X175031711Y-121910004D01*
X175019224Y-121889171D01*
X175008840Y-121867214D01*
X175000657Y-121844345D01*
X174994756Y-121820785D01*
X174991192Y-121796759D01*
X174990000Y-121772500D01*
X174990000Y-121227500D01*
X174991192Y-121203241D01*
X174994756Y-121179215D01*
X175000657Y-121155655D01*
X175008840Y-121132786D01*
X175019224Y-121110829D01*
X175031711Y-121089996D01*
X175046180Y-121070488D01*
X175062491Y-121052491D01*
X175080488Y-121036180D01*
X175099996Y-121021711D01*
X175120829Y-121009224D01*
X175142786Y-120998840D01*
X175165655Y-120990657D01*
X175189215Y-120984756D01*
X175213241Y-120981192D01*
X175237500Y-120980000D01*
X175732500Y-120980000D01*
X175756759Y-120981192D01*
X175756759Y-120981192D01*
G37*
D15*
X175485000Y-121500000D03*
G04 #@! TD*
D14*
G04 #@! TO.C,C10*
G36*
X173756759Y-124181192D02*
X173780785Y-124184756D01*
X173804345Y-124190657D01*
X173827214Y-124198840D01*
X173849171Y-124209224D01*
X173870004Y-124221711D01*
X173889512Y-124236180D01*
X173907509Y-124252491D01*
X173923820Y-124270488D01*
X173938289Y-124289996D01*
X173950776Y-124310829D01*
X173961160Y-124332786D01*
X173969343Y-124355655D01*
X173975244Y-124379215D01*
X173978808Y-124403241D01*
X173980000Y-124427500D01*
X173980000Y-124972500D01*
X173978808Y-124996759D01*
X173975244Y-125020785D01*
X173969343Y-125044345D01*
X173961160Y-125067214D01*
X173950776Y-125089171D01*
X173938289Y-125110004D01*
X173923820Y-125129512D01*
X173907509Y-125147509D01*
X173889512Y-125163820D01*
X173870004Y-125178289D01*
X173849171Y-125190776D01*
X173827214Y-125201160D01*
X173804345Y-125209343D01*
X173780785Y-125215244D01*
X173756759Y-125218808D01*
X173732500Y-125220000D01*
X173237500Y-125220000D01*
X173213241Y-125218808D01*
X173189215Y-125215244D01*
X173165655Y-125209343D01*
X173142786Y-125201160D01*
X173120829Y-125190776D01*
X173099996Y-125178289D01*
X173080488Y-125163820D01*
X173062491Y-125147509D01*
X173046180Y-125129512D01*
X173031711Y-125110004D01*
X173019224Y-125089171D01*
X173008840Y-125067214D01*
X173000657Y-125044345D01*
X172994756Y-125020785D01*
X172991192Y-124996759D01*
X172990000Y-124972500D01*
X172990000Y-124427500D01*
X172991192Y-124403241D01*
X172994756Y-124379215D01*
X173000657Y-124355655D01*
X173008840Y-124332786D01*
X173019224Y-124310829D01*
X173031711Y-124289996D01*
X173046180Y-124270488D01*
X173062491Y-124252491D01*
X173080488Y-124236180D01*
X173099996Y-124221711D01*
X173120829Y-124209224D01*
X173142786Y-124198840D01*
X173165655Y-124190657D01*
X173189215Y-124184756D01*
X173213241Y-124181192D01*
X173237500Y-124180000D01*
X173732500Y-124180000D01*
X173756759Y-124181192D01*
X173756759Y-124181192D01*
G37*
D15*
X173485000Y-124700000D03*
D14*
G36*
X172786759Y-124181192D02*
X172810785Y-124184756D01*
X172834345Y-124190657D01*
X172857214Y-124198840D01*
X172879171Y-124209224D01*
X172900004Y-124221711D01*
X172919512Y-124236180D01*
X172937509Y-124252491D01*
X172953820Y-124270488D01*
X172968289Y-124289996D01*
X172980776Y-124310829D01*
X172991160Y-124332786D01*
X172999343Y-124355655D01*
X173005244Y-124379215D01*
X173008808Y-124403241D01*
X173010000Y-124427500D01*
X173010000Y-124972500D01*
X173008808Y-124996759D01*
X173005244Y-125020785D01*
X172999343Y-125044345D01*
X172991160Y-125067214D01*
X172980776Y-125089171D01*
X172968289Y-125110004D01*
X172953820Y-125129512D01*
X172937509Y-125147509D01*
X172919512Y-125163820D01*
X172900004Y-125178289D01*
X172879171Y-125190776D01*
X172857214Y-125201160D01*
X172834345Y-125209343D01*
X172810785Y-125215244D01*
X172786759Y-125218808D01*
X172762500Y-125220000D01*
X172267500Y-125220000D01*
X172243241Y-125218808D01*
X172219215Y-125215244D01*
X172195655Y-125209343D01*
X172172786Y-125201160D01*
X172150829Y-125190776D01*
X172129996Y-125178289D01*
X172110488Y-125163820D01*
X172092491Y-125147509D01*
X172076180Y-125129512D01*
X172061711Y-125110004D01*
X172049224Y-125089171D01*
X172038840Y-125067214D01*
X172030657Y-125044345D01*
X172024756Y-125020785D01*
X172021192Y-124996759D01*
X172020000Y-124972500D01*
X172020000Y-124427500D01*
X172021192Y-124403241D01*
X172024756Y-124379215D01*
X172030657Y-124355655D01*
X172038840Y-124332786D01*
X172049224Y-124310829D01*
X172061711Y-124289996D01*
X172076180Y-124270488D01*
X172092491Y-124252491D01*
X172110488Y-124236180D01*
X172129996Y-124221711D01*
X172150829Y-124209224D01*
X172172786Y-124198840D01*
X172195655Y-124190657D01*
X172219215Y-124184756D01*
X172243241Y-124181192D01*
X172267500Y-124180000D01*
X172762500Y-124180000D01*
X172786759Y-124181192D01*
X172786759Y-124181192D01*
G37*
D15*
X172515000Y-124700000D03*
G04 #@! TD*
D14*
G04 #@! TO.C,C11*
G36*
X174796759Y-116771192D02*
X174820785Y-116774756D01*
X174844345Y-116780657D01*
X174867214Y-116788840D01*
X174889171Y-116799224D01*
X174910004Y-116811711D01*
X174929512Y-116826180D01*
X174947509Y-116842491D01*
X174963820Y-116860488D01*
X174978289Y-116879996D01*
X174990776Y-116900829D01*
X175001160Y-116922786D01*
X175009343Y-116945655D01*
X175015244Y-116969215D01*
X175018808Y-116993241D01*
X175020000Y-117017500D01*
X175020000Y-117512500D01*
X175018808Y-117536759D01*
X175015244Y-117560785D01*
X175009343Y-117584345D01*
X175001160Y-117607214D01*
X174990776Y-117629171D01*
X174978289Y-117650004D01*
X174963820Y-117669512D01*
X174947509Y-117687509D01*
X174929512Y-117703820D01*
X174910004Y-117718289D01*
X174889171Y-117730776D01*
X174867214Y-117741160D01*
X174844345Y-117749343D01*
X174820785Y-117755244D01*
X174796759Y-117758808D01*
X174772500Y-117760000D01*
X174227500Y-117760000D01*
X174203241Y-117758808D01*
X174179215Y-117755244D01*
X174155655Y-117749343D01*
X174132786Y-117741160D01*
X174110829Y-117730776D01*
X174089996Y-117718289D01*
X174070488Y-117703820D01*
X174052491Y-117687509D01*
X174036180Y-117669512D01*
X174021711Y-117650004D01*
X174009224Y-117629171D01*
X173998840Y-117607214D01*
X173990657Y-117584345D01*
X173984756Y-117560785D01*
X173981192Y-117536759D01*
X173980000Y-117512500D01*
X173980000Y-117017500D01*
X173981192Y-116993241D01*
X173984756Y-116969215D01*
X173990657Y-116945655D01*
X173998840Y-116922786D01*
X174009224Y-116900829D01*
X174021711Y-116879996D01*
X174036180Y-116860488D01*
X174052491Y-116842491D01*
X174070488Y-116826180D01*
X174089996Y-116811711D01*
X174110829Y-116799224D01*
X174132786Y-116788840D01*
X174155655Y-116780657D01*
X174179215Y-116774756D01*
X174203241Y-116771192D01*
X174227500Y-116770000D01*
X174772500Y-116770000D01*
X174796759Y-116771192D01*
X174796759Y-116771192D01*
G37*
D15*
X174500000Y-117265000D03*
D14*
G36*
X174796759Y-117741192D02*
X174820785Y-117744756D01*
X174844345Y-117750657D01*
X174867214Y-117758840D01*
X174889171Y-117769224D01*
X174910004Y-117781711D01*
X174929512Y-117796180D01*
X174947509Y-117812491D01*
X174963820Y-117830488D01*
X174978289Y-117849996D01*
X174990776Y-117870829D01*
X175001160Y-117892786D01*
X175009343Y-117915655D01*
X175015244Y-117939215D01*
X175018808Y-117963241D01*
X175020000Y-117987500D01*
X175020000Y-118482500D01*
X175018808Y-118506759D01*
X175015244Y-118530785D01*
X175009343Y-118554345D01*
X175001160Y-118577214D01*
X174990776Y-118599171D01*
X174978289Y-118620004D01*
X174963820Y-118639512D01*
X174947509Y-118657509D01*
X174929512Y-118673820D01*
X174910004Y-118688289D01*
X174889171Y-118700776D01*
X174867214Y-118711160D01*
X174844345Y-118719343D01*
X174820785Y-118725244D01*
X174796759Y-118728808D01*
X174772500Y-118730000D01*
X174227500Y-118730000D01*
X174203241Y-118728808D01*
X174179215Y-118725244D01*
X174155655Y-118719343D01*
X174132786Y-118711160D01*
X174110829Y-118700776D01*
X174089996Y-118688289D01*
X174070488Y-118673820D01*
X174052491Y-118657509D01*
X174036180Y-118639512D01*
X174021711Y-118620004D01*
X174009224Y-118599171D01*
X173998840Y-118577214D01*
X173990657Y-118554345D01*
X173984756Y-118530785D01*
X173981192Y-118506759D01*
X173980000Y-118482500D01*
X173980000Y-117987500D01*
X173981192Y-117963241D01*
X173984756Y-117939215D01*
X173990657Y-117915655D01*
X173998840Y-117892786D01*
X174009224Y-117870829D01*
X174021711Y-117849996D01*
X174036180Y-117830488D01*
X174052491Y-117812491D01*
X174070488Y-117796180D01*
X174089996Y-117781711D01*
X174110829Y-117769224D01*
X174132786Y-117758840D01*
X174155655Y-117750657D01*
X174179215Y-117744756D01*
X174203241Y-117741192D01*
X174227500Y-117740000D01*
X174772500Y-117740000D01*
X174796759Y-117741192D01*
X174796759Y-117741192D01*
G37*
D15*
X174500000Y-118235000D03*
G04 #@! TD*
D16*
G04 #@! TO.C,D1*
X176500000Y-118900000D03*
X176500000Y-116100000D03*
G04 #@! TD*
D17*
G04 #@! TO.C,J7*
X176160000Y-113870000D03*
X175510000Y-113870000D03*
X174860000Y-113870000D03*
X174210000Y-113870000D03*
X173560000Y-113870000D03*
D18*
X177322500Y-113510000D03*
X172397500Y-113510000D03*
D19*
X177770000Y-111210000D03*
X171950000Y-111210000D03*
D20*
X175700000Y-111210000D03*
X174020000Y-111210000D03*
G04 #@! TD*
D14*
G04 #@! TO.C,L1*
G36*
X175756759Y-122231192D02*
X175780785Y-122234756D01*
X175804345Y-122240657D01*
X175827214Y-122248840D01*
X175849171Y-122259224D01*
X175870004Y-122271711D01*
X175889512Y-122286180D01*
X175907509Y-122302491D01*
X175923820Y-122320488D01*
X175938289Y-122339996D01*
X175950776Y-122360829D01*
X175961160Y-122382786D01*
X175969343Y-122405655D01*
X175975244Y-122429215D01*
X175978808Y-122453241D01*
X175980000Y-122477500D01*
X175980000Y-123022500D01*
X175978808Y-123046759D01*
X175975244Y-123070785D01*
X175969343Y-123094345D01*
X175961160Y-123117214D01*
X175950776Y-123139171D01*
X175938289Y-123160004D01*
X175923820Y-123179512D01*
X175907509Y-123197509D01*
X175889512Y-123213820D01*
X175870004Y-123228289D01*
X175849171Y-123240776D01*
X175827214Y-123251160D01*
X175804345Y-123259343D01*
X175780785Y-123265244D01*
X175756759Y-123268808D01*
X175732500Y-123270000D01*
X175237500Y-123270000D01*
X175213241Y-123268808D01*
X175189215Y-123265244D01*
X175165655Y-123259343D01*
X175142786Y-123251160D01*
X175120829Y-123240776D01*
X175099996Y-123228289D01*
X175080488Y-123213820D01*
X175062491Y-123197509D01*
X175046180Y-123179512D01*
X175031711Y-123160004D01*
X175019224Y-123139171D01*
X175008840Y-123117214D01*
X175000657Y-123094345D01*
X174994756Y-123070785D01*
X174991192Y-123046759D01*
X174990000Y-123022500D01*
X174990000Y-122477500D01*
X174991192Y-122453241D01*
X174994756Y-122429215D01*
X175000657Y-122405655D01*
X175008840Y-122382786D01*
X175019224Y-122360829D01*
X175031711Y-122339996D01*
X175046180Y-122320488D01*
X175062491Y-122302491D01*
X175080488Y-122286180D01*
X175099996Y-122271711D01*
X175120829Y-122259224D01*
X175142786Y-122248840D01*
X175165655Y-122240657D01*
X175189215Y-122234756D01*
X175213241Y-122231192D01*
X175237500Y-122230000D01*
X175732500Y-122230000D01*
X175756759Y-122231192D01*
X175756759Y-122231192D01*
G37*
D15*
X175485000Y-122750000D03*
D14*
G36*
X174786759Y-122231192D02*
X174810785Y-122234756D01*
X174834345Y-122240657D01*
X174857214Y-122248840D01*
X174879171Y-122259224D01*
X174900004Y-122271711D01*
X174919512Y-122286180D01*
X174937509Y-122302491D01*
X174953820Y-122320488D01*
X174968289Y-122339996D01*
X174980776Y-122360829D01*
X174991160Y-122382786D01*
X174999343Y-122405655D01*
X175005244Y-122429215D01*
X175008808Y-122453241D01*
X175010000Y-122477500D01*
X175010000Y-123022500D01*
X175008808Y-123046759D01*
X175005244Y-123070785D01*
X174999343Y-123094345D01*
X174991160Y-123117214D01*
X174980776Y-123139171D01*
X174968289Y-123160004D01*
X174953820Y-123179512D01*
X174937509Y-123197509D01*
X174919512Y-123213820D01*
X174900004Y-123228289D01*
X174879171Y-123240776D01*
X174857214Y-123251160D01*
X174834345Y-123259343D01*
X174810785Y-123265244D01*
X174786759Y-123268808D01*
X174762500Y-123270000D01*
X174267500Y-123270000D01*
X174243241Y-123268808D01*
X174219215Y-123265244D01*
X174195655Y-123259343D01*
X174172786Y-123251160D01*
X174150829Y-123240776D01*
X174129996Y-123228289D01*
X174110488Y-123213820D01*
X174092491Y-123197509D01*
X174076180Y-123179512D01*
X174061711Y-123160004D01*
X174049224Y-123139171D01*
X174038840Y-123117214D01*
X174030657Y-123094345D01*
X174024756Y-123070785D01*
X174021192Y-123046759D01*
X174020000Y-123022500D01*
X174020000Y-122477500D01*
X174021192Y-122453241D01*
X174024756Y-122429215D01*
X174030657Y-122405655D01*
X174038840Y-122382786D01*
X174049224Y-122360829D01*
X174061711Y-122339996D01*
X174076180Y-122320488D01*
X174092491Y-122302491D01*
X174110488Y-122286180D01*
X174129996Y-122271711D01*
X174150829Y-122259224D01*
X174172786Y-122248840D01*
X174195655Y-122240657D01*
X174219215Y-122234756D01*
X174243241Y-122231192D01*
X174267500Y-122230000D01*
X174762500Y-122230000D01*
X174786759Y-122231192D01*
X174786759Y-122231192D01*
G37*
D15*
X174515000Y-122750000D03*
G04 #@! TD*
D21*
G04 #@! TO.C,Q1*
X165200000Y-119400000D03*
X165200000Y-118100000D03*
X163300000Y-118750000D03*
X165200000Y-118750000D03*
X163300000Y-118100000D03*
X163300000Y-119400000D03*
G04 #@! TD*
D14*
G04 #@! TO.C,R1*
G36*
X118486759Y-127381192D02*
X118510785Y-127384756D01*
X118534345Y-127390657D01*
X118557214Y-127398840D01*
X118579171Y-127409224D01*
X118600004Y-127421711D01*
X118619512Y-127436180D01*
X118637509Y-127452491D01*
X118653820Y-127470488D01*
X118668289Y-127489996D01*
X118680776Y-127510829D01*
X118691160Y-127532786D01*
X118699343Y-127555655D01*
X118705244Y-127579215D01*
X118708808Y-127603241D01*
X118710000Y-127627500D01*
X118710000Y-128172500D01*
X118708808Y-128196759D01*
X118705244Y-128220785D01*
X118699343Y-128244345D01*
X118691160Y-128267214D01*
X118680776Y-128289171D01*
X118668289Y-128310004D01*
X118653820Y-128329512D01*
X118637509Y-128347509D01*
X118619512Y-128363820D01*
X118600004Y-128378289D01*
X118579171Y-128390776D01*
X118557214Y-128401160D01*
X118534345Y-128409343D01*
X118510785Y-128415244D01*
X118486759Y-128418808D01*
X118462500Y-128420000D01*
X117967500Y-128420000D01*
X117943241Y-128418808D01*
X117919215Y-128415244D01*
X117895655Y-128409343D01*
X117872786Y-128401160D01*
X117850829Y-128390776D01*
X117829996Y-128378289D01*
X117810488Y-128363820D01*
X117792491Y-128347509D01*
X117776180Y-128329512D01*
X117761711Y-128310004D01*
X117749224Y-128289171D01*
X117738840Y-128267214D01*
X117730657Y-128244345D01*
X117724756Y-128220785D01*
X117721192Y-128196759D01*
X117720000Y-128172500D01*
X117720000Y-127627500D01*
X117721192Y-127603241D01*
X117724756Y-127579215D01*
X117730657Y-127555655D01*
X117738840Y-127532786D01*
X117749224Y-127510829D01*
X117761711Y-127489996D01*
X117776180Y-127470488D01*
X117792491Y-127452491D01*
X117810488Y-127436180D01*
X117829996Y-127421711D01*
X117850829Y-127409224D01*
X117872786Y-127398840D01*
X117895655Y-127390657D01*
X117919215Y-127384756D01*
X117943241Y-127381192D01*
X117967500Y-127380000D01*
X118462500Y-127380000D01*
X118486759Y-127381192D01*
X118486759Y-127381192D01*
G37*
D15*
X118215000Y-127900000D03*
D14*
G36*
X119456759Y-127381192D02*
X119480785Y-127384756D01*
X119504345Y-127390657D01*
X119527214Y-127398840D01*
X119549171Y-127409224D01*
X119570004Y-127421711D01*
X119589512Y-127436180D01*
X119607509Y-127452491D01*
X119623820Y-127470488D01*
X119638289Y-127489996D01*
X119650776Y-127510829D01*
X119661160Y-127532786D01*
X119669343Y-127555655D01*
X119675244Y-127579215D01*
X119678808Y-127603241D01*
X119680000Y-127627500D01*
X119680000Y-128172500D01*
X119678808Y-128196759D01*
X119675244Y-128220785D01*
X119669343Y-128244345D01*
X119661160Y-128267214D01*
X119650776Y-128289171D01*
X119638289Y-128310004D01*
X119623820Y-128329512D01*
X119607509Y-128347509D01*
X119589512Y-128363820D01*
X119570004Y-128378289D01*
X119549171Y-128390776D01*
X119527214Y-128401160D01*
X119504345Y-128409343D01*
X119480785Y-128415244D01*
X119456759Y-128418808D01*
X119432500Y-128420000D01*
X118937500Y-128420000D01*
X118913241Y-128418808D01*
X118889215Y-128415244D01*
X118865655Y-128409343D01*
X118842786Y-128401160D01*
X118820829Y-128390776D01*
X118799996Y-128378289D01*
X118780488Y-128363820D01*
X118762491Y-128347509D01*
X118746180Y-128329512D01*
X118731711Y-128310004D01*
X118719224Y-128289171D01*
X118708840Y-128267214D01*
X118700657Y-128244345D01*
X118694756Y-128220785D01*
X118691192Y-128196759D01*
X118690000Y-128172500D01*
X118690000Y-127627500D01*
X118691192Y-127603241D01*
X118694756Y-127579215D01*
X118700657Y-127555655D01*
X118708840Y-127532786D01*
X118719224Y-127510829D01*
X118731711Y-127489996D01*
X118746180Y-127470488D01*
X118762491Y-127452491D01*
X118780488Y-127436180D01*
X118799996Y-127421711D01*
X118820829Y-127409224D01*
X118842786Y-127398840D01*
X118865655Y-127390657D01*
X118889215Y-127384756D01*
X118913241Y-127381192D01*
X118937500Y-127380000D01*
X119432500Y-127380000D01*
X119456759Y-127381192D01*
X119456759Y-127381192D01*
G37*
D15*
X119185000Y-127900000D03*
G04 #@! TD*
D14*
G04 #@! TO.C,R2*
G36*
X118486759Y-125181192D02*
X118510785Y-125184756D01*
X118534345Y-125190657D01*
X118557214Y-125198840D01*
X118579171Y-125209224D01*
X118600004Y-125221711D01*
X118619512Y-125236180D01*
X118637509Y-125252491D01*
X118653820Y-125270488D01*
X118668289Y-125289996D01*
X118680776Y-125310829D01*
X118691160Y-125332786D01*
X118699343Y-125355655D01*
X118705244Y-125379215D01*
X118708808Y-125403241D01*
X118710000Y-125427500D01*
X118710000Y-125972500D01*
X118708808Y-125996759D01*
X118705244Y-126020785D01*
X118699343Y-126044345D01*
X118691160Y-126067214D01*
X118680776Y-126089171D01*
X118668289Y-126110004D01*
X118653820Y-126129512D01*
X118637509Y-126147509D01*
X118619512Y-126163820D01*
X118600004Y-126178289D01*
X118579171Y-126190776D01*
X118557214Y-126201160D01*
X118534345Y-126209343D01*
X118510785Y-126215244D01*
X118486759Y-126218808D01*
X118462500Y-126220000D01*
X117967500Y-126220000D01*
X117943241Y-126218808D01*
X117919215Y-126215244D01*
X117895655Y-126209343D01*
X117872786Y-126201160D01*
X117850829Y-126190776D01*
X117829996Y-126178289D01*
X117810488Y-126163820D01*
X117792491Y-126147509D01*
X117776180Y-126129512D01*
X117761711Y-126110004D01*
X117749224Y-126089171D01*
X117738840Y-126067214D01*
X117730657Y-126044345D01*
X117724756Y-126020785D01*
X117721192Y-125996759D01*
X117720000Y-125972500D01*
X117720000Y-125427500D01*
X117721192Y-125403241D01*
X117724756Y-125379215D01*
X117730657Y-125355655D01*
X117738840Y-125332786D01*
X117749224Y-125310829D01*
X117761711Y-125289996D01*
X117776180Y-125270488D01*
X117792491Y-125252491D01*
X117810488Y-125236180D01*
X117829996Y-125221711D01*
X117850829Y-125209224D01*
X117872786Y-125198840D01*
X117895655Y-125190657D01*
X117919215Y-125184756D01*
X117943241Y-125181192D01*
X117967500Y-125180000D01*
X118462500Y-125180000D01*
X118486759Y-125181192D01*
X118486759Y-125181192D01*
G37*
D15*
X118215000Y-125700000D03*
D14*
G36*
X119456759Y-125181192D02*
X119480785Y-125184756D01*
X119504345Y-125190657D01*
X119527214Y-125198840D01*
X119549171Y-125209224D01*
X119570004Y-125221711D01*
X119589512Y-125236180D01*
X119607509Y-125252491D01*
X119623820Y-125270488D01*
X119638289Y-125289996D01*
X119650776Y-125310829D01*
X119661160Y-125332786D01*
X119669343Y-125355655D01*
X119675244Y-125379215D01*
X119678808Y-125403241D01*
X119680000Y-125427500D01*
X119680000Y-125972500D01*
X119678808Y-125996759D01*
X119675244Y-126020785D01*
X119669343Y-126044345D01*
X119661160Y-126067214D01*
X119650776Y-126089171D01*
X119638289Y-126110004D01*
X119623820Y-126129512D01*
X119607509Y-126147509D01*
X119589512Y-126163820D01*
X119570004Y-126178289D01*
X119549171Y-126190776D01*
X119527214Y-126201160D01*
X119504345Y-126209343D01*
X119480785Y-126215244D01*
X119456759Y-126218808D01*
X119432500Y-126220000D01*
X118937500Y-126220000D01*
X118913241Y-126218808D01*
X118889215Y-126215244D01*
X118865655Y-126209343D01*
X118842786Y-126201160D01*
X118820829Y-126190776D01*
X118799996Y-126178289D01*
X118780488Y-126163820D01*
X118762491Y-126147509D01*
X118746180Y-126129512D01*
X118731711Y-126110004D01*
X118719224Y-126089171D01*
X118708840Y-126067214D01*
X118700657Y-126044345D01*
X118694756Y-126020785D01*
X118691192Y-125996759D01*
X118690000Y-125972500D01*
X118690000Y-125427500D01*
X118691192Y-125403241D01*
X118694756Y-125379215D01*
X118700657Y-125355655D01*
X118708840Y-125332786D01*
X118719224Y-125310829D01*
X118731711Y-125289996D01*
X118746180Y-125270488D01*
X118762491Y-125252491D01*
X118780488Y-125236180D01*
X118799996Y-125221711D01*
X118820829Y-125209224D01*
X118842786Y-125198840D01*
X118865655Y-125190657D01*
X118889215Y-125184756D01*
X118913241Y-125181192D01*
X118937500Y-125180000D01*
X119432500Y-125180000D01*
X119456759Y-125181192D01*
X119456759Y-125181192D01*
G37*
D15*
X119185000Y-125700000D03*
G04 #@! TD*
D14*
G04 #@! TO.C,R3*
G36*
X119456759Y-123981192D02*
X119480785Y-123984756D01*
X119504345Y-123990657D01*
X119527214Y-123998840D01*
X119549171Y-124009224D01*
X119570004Y-124021711D01*
X119589512Y-124036180D01*
X119607509Y-124052491D01*
X119623820Y-124070488D01*
X119638289Y-124089996D01*
X119650776Y-124110829D01*
X119661160Y-124132786D01*
X119669343Y-124155655D01*
X119675244Y-124179215D01*
X119678808Y-124203241D01*
X119680000Y-124227500D01*
X119680000Y-124772500D01*
X119678808Y-124796759D01*
X119675244Y-124820785D01*
X119669343Y-124844345D01*
X119661160Y-124867214D01*
X119650776Y-124889171D01*
X119638289Y-124910004D01*
X119623820Y-124929512D01*
X119607509Y-124947509D01*
X119589512Y-124963820D01*
X119570004Y-124978289D01*
X119549171Y-124990776D01*
X119527214Y-125001160D01*
X119504345Y-125009343D01*
X119480785Y-125015244D01*
X119456759Y-125018808D01*
X119432500Y-125020000D01*
X118937500Y-125020000D01*
X118913241Y-125018808D01*
X118889215Y-125015244D01*
X118865655Y-125009343D01*
X118842786Y-125001160D01*
X118820829Y-124990776D01*
X118799996Y-124978289D01*
X118780488Y-124963820D01*
X118762491Y-124947509D01*
X118746180Y-124929512D01*
X118731711Y-124910004D01*
X118719224Y-124889171D01*
X118708840Y-124867214D01*
X118700657Y-124844345D01*
X118694756Y-124820785D01*
X118691192Y-124796759D01*
X118690000Y-124772500D01*
X118690000Y-124227500D01*
X118691192Y-124203241D01*
X118694756Y-124179215D01*
X118700657Y-124155655D01*
X118708840Y-124132786D01*
X118719224Y-124110829D01*
X118731711Y-124089996D01*
X118746180Y-124070488D01*
X118762491Y-124052491D01*
X118780488Y-124036180D01*
X118799996Y-124021711D01*
X118820829Y-124009224D01*
X118842786Y-123998840D01*
X118865655Y-123990657D01*
X118889215Y-123984756D01*
X118913241Y-123981192D01*
X118937500Y-123980000D01*
X119432500Y-123980000D01*
X119456759Y-123981192D01*
X119456759Y-123981192D01*
G37*
D15*
X119185000Y-124500000D03*
D14*
G36*
X118486759Y-123981192D02*
X118510785Y-123984756D01*
X118534345Y-123990657D01*
X118557214Y-123998840D01*
X118579171Y-124009224D01*
X118600004Y-124021711D01*
X118619512Y-124036180D01*
X118637509Y-124052491D01*
X118653820Y-124070488D01*
X118668289Y-124089996D01*
X118680776Y-124110829D01*
X118691160Y-124132786D01*
X118699343Y-124155655D01*
X118705244Y-124179215D01*
X118708808Y-124203241D01*
X118710000Y-124227500D01*
X118710000Y-124772500D01*
X118708808Y-124796759D01*
X118705244Y-124820785D01*
X118699343Y-124844345D01*
X118691160Y-124867214D01*
X118680776Y-124889171D01*
X118668289Y-124910004D01*
X118653820Y-124929512D01*
X118637509Y-124947509D01*
X118619512Y-124963820D01*
X118600004Y-124978289D01*
X118579171Y-124990776D01*
X118557214Y-125001160D01*
X118534345Y-125009343D01*
X118510785Y-125015244D01*
X118486759Y-125018808D01*
X118462500Y-125020000D01*
X117967500Y-125020000D01*
X117943241Y-125018808D01*
X117919215Y-125015244D01*
X117895655Y-125009343D01*
X117872786Y-125001160D01*
X117850829Y-124990776D01*
X117829996Y-124978289D01*
X117810488Y-124963820D01*
X117792491Y-124947509D01*
X117776180Y-124929512D01*
X117761711Y-124910004D01*
X117749224Y-124889171D01*
X117738840Y-124867214D01*
X117730657Y-124844345D01*
X117724756Y-124820785D01*
X117721192Y-124796759D01*
X117720000Y-124772500D01*
X117720000Y-124227500D01*
X117721192Y-124203241D01*
X117724756Y-124179215D01*
X117730657Y-124155655D01*
X117738840Y-124132786D01*
X117749224Y-124110829D01*
X117761711Y-124089996D01*
X117776180Y-124070488D01*
X117792491Y-124052491D01*
X117810488Y-124036180D01*
X117829996Y-124021711D01*
X117850829Y-124009224D01*
X117872786Y-123998840D01*
X117895655Y-123990657D01*
X117919215Y-123984756D01*
X117943241Y-123981192D01*
X117967500Y-123980000D01*
X118462500Y-123980000D01*
X118486759Y-123981192D01*
X118486759Y-123981192D01*
G37*
D15*
X118215000Y-124500000D03*
G04 #@! TD*
D14*
G04 #@! TO.C,R4*
G36*
X119456759Y-126281192D02*
X119480785Y-126284756D01*
X119504345Y-126290657D01*
X119527214Y-126298840D01*
X119549171Y-126309224D01*
X119570004Y-126321711D01*
X119589512Y-126336180D01*
X119607509Y-126352491D01*
X119623820Y-126370488D01*
X119638289Y-126389996D01*
X119650776Y-126410829D01*
X119661160Y-126432786D01*
X119669343Y-126455655D01*
X119675244Y-126479215D01*
X119678808Y-126503241D01*
X119680000Y-126527500D01*
X119680000Y-127072500D01*
X119678808Y-127096759D01*
X119675244Y-127120785D01*
X119669343Y-127144345D01*
X119661160Y-127167214D01*
X119650776Y-127189171D01*
X119638289Y-127210004D01*
X119623820Y-127229512D01*
X119607509Y-127247509D01*
X119589512Y-127263820D01*
X119570004Y-127278289D01*
X119549171Y-127290776D01*
X119527214Y-127301160D01*
X119504345Y-127309343D01*
X119480785Y-127315244D01*
X119456759Y-127318808D01*
X119432500Y-127320000D01*
X118937500Y-127320000D01*
X118913241Y-127318808D01*
X118889215Y-127315244D01*
X118865655Y-127309343D01*
X118842786Y-127301160D01*
X118820829Y-127290776D01*
X118799996Y-127278289D01*
X118780488Y-127263820D01*
X118762491Y-127247509D01*
X118746180Y-127229512D01*
X118731711Y-127210004D01*
X118719224Y-127189171D01*
X118708840Y-127167214D01*
X118700657Y-127144345D01*
X118694756Y-127120785D01*
X118691192Y-127096759D01*
X118690000Y-127072500D01*
X118690000Y-126527500D01*
X118691192Y-126503241D01*
X118694756Y-126479215D01*
X118700657Y-126455655D01*
X118708840Y-126432786D01*
X118719224Y-126410829D01*
X118731711Y-126389996D01*
X118746180Y-126370488D01*
X118762491Y-126352491D01*
X118780488Y-126336180D01*
X118799996Y-126321711D01*
X118820829Y-126309224D01*
X118842786Y-126298840D01*
X118865655Y-126290657D01*
X118889215Y-126284756D01*
X118913241Y-126281192D01*
X118937500Y-126280000D01*
X119432500Y-126280000D01*
X119456759Y-126281192D01*
X119456759Y-126281192D01*
G37*
D15*
X119185000Y-126800000D03*
D14*
G36*
X118486759Y-126281192D02*
X118510785Y-126284756D01*
X118534345Y-126290657D01*
X118557214Y-126298840D01*
X118579171Y-126309224D01*
X118600004Y-126321711D01*
X118619512Y-126336180D01*
X118637509Y-126352491D01*
X118653820Y-126370488D01*
X118668289Y-126389996D01*
X118680776Y-126410829D01*
X118691160Y-126432786D01*
X118699343Y-126455655D01*
X118705244Y-126479215D01*
X118708808Y-126503241D01*
X118710000Y-126527500D01*
X118710000Y-127072500D01*
X118708808Y-127096759D01*
X118705244Y-127120785D01*
X118699343Y-127144345D01*
X118691160Y-127167214D01*
X118680776Y-127189171D01*
X118668289Y-127210004D01*
X118653820Y-127229512D01*
X118637509Y-127247509D01*
X118619512Y-127263820D01*
X118600004Y-127278289D01*
X118579171Y-127290776D01*
X118557214Y-127301160D01*
X118534345Y-127309343D01*
X118510785Y-127315244D01*
X118486759Y-127318808D01*
X118462500Y-127320000D01*
X117967500Y-127320000D01*
X117943241Y-127318808D01*
X117919215Y-127315244D01*
X117895655Y-127309343D01*
X117872786Y-127301160D01*
X117850829Y-127290776D01*
X117829996Y-127278289D01*
X117810488Y-127263820D01*
X117792491Y-127247509D01*
X117776180Y-127229512D01*
X117761711Y-127210004D01*
X117749224Y-127189171D01*
X117738840Y-127167214D01*
X117730657Y-127144345D01*
X117724756Y-127120785D01*
X117721192Y-127096759D01*
X117720000Y-127072500D01*
X117720000Y-126527500D01*
X117721192Y-126503241D01*
X117724756Y-126479215D01*
X117730657Y-126455655D01*
X117738840Y-126432786D01*
X117749224Y-126410829D01*
X117761711Y-126389996D01*
X117776180Y-126370488D01*
X117792491Y-126352491D01*
X117810488Y-126336180D01*
X117829996Y-126321711D01*
X117850829Y-126309224D01*
X117872786Y-126298840D01*
X117895655Y-126290657D01*
X117919215Y-126284756D01*
X117943241Y-126281192D01*
X117967500Y-126280000D01*
X118462500Y-126280000D01*
X118486759Y-126281192D01*
X118486759Y-126281192D01*
G37*
D15*
X118215000Y-126800000D03*
G04 #@! TD*
D14*
G04 #@! TO.C,R5*
G36*
X118486759Y-128581192D02*
X118510785Y-128584756D01*
X118534345Y-128590657D01*
X118557214Y-128598840D01*
X118579171Y-128609224D01*
X118600004Y-128621711D01*
X118619512Y-128636180D01*
X118637509Y-128652491D01*
X118653820Y-128670488D01*
X118668289Y-128689996D01*
X118680776Y-128710829D01*
X118691160Y-128732786D01*
X118699343Y-128755655D01*
X118705244Y-128779215D01*
X118708808Y-128803241D01*
X118710000Y-128827500D01*
X118710000Y-129372500D01*
X118708808Y-129396759D01*
X118705244Y-129420785D01*
X118699343Y-129444345D01*
X118691160Y-129467214D01*
X118680776Y-129489171D01*
X118668289Y-129510004D01*
X118653820Y-129529512D01*
X118637509Y-129547509D01*
X118619512Y-129563820D01*
X118600004Y-129578289D01*
X118579171Y-129590776D01*
X118557214Y-129601160D01*
X118534345Y-129609343D01*
X118510785Y-129615244D01*
X118486759Y-129618808D01*
X118462500Y-129620000D01*
X117967500Y-129620000D01*
X117943241Y-129618808D01*
X117919215Y-129615244D01*
X117895655Y-129609343D01*
X117872786Y-129601160D01*
X117850829Y-129590776D01*
X117829996Y-129578289D01*
X117810488Y-129563820D01*
X117792491Y-129547509D01*
X117776180Y-129529512D01*
X117761711Y-129510004D01*
X117749224Y-129489171D01*
X117738840Y-129467214D01*
X117730657Y-129444345D01*
X117724756Y-129420785D01*
X117721192Y-129396759D01*
X117720000Y-129372500D01*
X117720000Y-128827500D01*
X117721192Y-128803241D01*
X117724756Y-128779215D01*
X117730657Y-128755655D01*
X117738840Y-128732786D01*
X117749224Y-128710829D01*
X117761711Y-128689996D01*
X117776180Y-128670488D01*
X117792491Y-128652491D01*
X117810488Y-128636180D01*
X117829996Y-128621711D01*
X117850829Y-128609224D01*
X117872786Y-128598840D01*
X117895655Y-128590657D01*
X117919215Y-128584756D01*
X117943241Y-128581192D01*
X117967500Y-128580000D01*
X118462500Y-128580000D01*
X118486759Y-128581192D01*
X118486759Y-128581192D01*
G37*
D15*
X118215000Y-129100000D03*
D14*
G36*
X119456759Y-128581192D02*
X119480785Y-128584756D01*
X119504345Y-128590657D01*
X119527214Y-128598840D01*
X119549171Y-128609224D01*
X119570004Y-128621711D01*
X119589512Y-128636180D01*
X119607509Y-128652491D01*
X119623820Y-128670488D01*
X119638289Y-128689996D01*
X119650776Y-128710829D01*
X119661160Y-128732786D01*
X119669343Y-128755655D01*
X119675244Y-128779215D01*
X119678808Y-128803241D01*
X119680000Y-128827500D01*
X119680000Y-129372500D01*
X119678808Y-129396759D01*
X119675244Y-129420785D01*
X119669343Y-129444345D01*
X119661160Y-129467214D01*
X119650776Y-129489171D01*
X119638289Y-129510004D01*
X119623820Y-129529512D01*
X119607509Y-129547509D01*
X119589512Y-129563820D01*
X119570004Y-129578289D01*
X119549171Y-129590776D01*
X119527214Y-129601160D01*
X119504345Y-129609343D01*
X119480785Y-129615244D01*
X119456759Y-129618808D01*
X119432500Y-129620000D01*
X118937500Y-129620000D01*
X118913241Y-129618808D01*
X118889215Y-129615244D01*
X118865655Y-129609343D01*
X118842786Y-129601160D01*
X118820829Y-129590776D01*
X118799996Y-129578289D01*
X118780488Y-129563820D01*
X118762491Y-129547509D01*
X118746180Y-129529512D01*
X118731711Y-129510004D01*
X118719224Y-129489171D01*
X118708840Y-129467214D01*
X118700657Y-129444345D01*
X118694756Y-129420785D01*
X118691192Y-129396759D01*
X118690000Y-129372500D01*
X118690000Y-128827500D01*
X118691192Y-128803241D01*
X118694756Y-128779215D01*
X118700657Y-128755655D01*
X118708840Y-128732786D01*
X118719224Y-128710829D01*
X118731711Y-128689996D01*
X118746180Y-128670488D01*
X118762491Y-128652491D01*
X118780488Y-128636180D01*
X118799996Y-128621711D01*
X118820829Y-128609224D01*
X118842786Y-128598840D01*
X118865655Y-128590657D01*
X118889215Y-128584756D01*
X118913241Y-128581192D01*
X118937500Y-128580000D01*
X119432500Y-128580000D01*
X119456759Y-128581192D01*
X119456759Y-128581192D01*
G37*
D15*
X119185000Y-129100000D03*
G04 #@! TD*
D14*
G04 #@! TO.C,R6*
G36*
X157796759Y-117291192D02*
X157820785Y-117294756D01*
X157844345Y-117300657D01*
X157867214Y-117308840D01*
X157889171Y-117319224D01*
X157910004Y-117331711D01*
X157929512Y-117346180D01*
X157947509Y-117362491D01*
X157963820Y-117380488D01*
X157978289Y-117399996D01*
X157990776Y-117420829D01*
X158001160Y-117442786D01*
X158009343Y-117465655D01*
X158015244Y-117489215D01*
X158018808Y-117513241D01*
X158020000Y-117537500D01*
X158020000Y-118032500D01*
X158018808Y-118056759D01*
X158015244Y-118080785D01*
X158009343Y-118104345D01*
X158001160Y-118127214D01*
X157990776Y-118149171D01*
X157978289Y-118170004D01*
X157963820Y-118189512D01*
X157947509Y-118207509D01*
X157929512Y-118223820D01*
X157910004Y-118238289D01*
X157889171Y-118250776D01*
X157867214Y-118261160D01*
X157844345Y-118269343D01*
X157820785Y-118275244D01*
X157796759Y-118278808D01*
X157772500Y-118280000D01*
X157227500Y-118280000D01*
X157203241Y-118278808D01*
X157179215Y-118275244D01*
X157155655Y-118269343D01*
X157132786Y-118261160D01*
X157110829Y-118250776D01*
X157089996Y-118238289D01*
X157070488Y-118223820D01*
X157052491Y-118207509D01*
X157036180Y-118189512D01*
X157021711Y-118170004D01*
X157009224Y-118149171D01*
X156998840Y-118127214D01*
X156990657Y-118104345D01*
X156984756Y-118080785D01*
X156981192Y-118056759D01*
X156980000Y-118032500D01*
X156980000Y-117537500D01*
X156981192Y-117513241D01*
X156984756Y-117489215D01*
X156990657Y-117465655D01*
X156998840Y-117442786D01*
X157009224Y-117420829D01*
X157021711Y-117399996D01*
X157036180Y-117380488D01*
X157052491Y-117362491D01*
X157070488Y-117346180D01*
X157089996Y-117331711D01*
X157110829Y-117319224D01*
X157132786Y-117308840D01*
X157155655Y-117300657D01*
X157179215Y-117294756D01*
X157203241Y-117291192D01*
X157227500Y-117290000D01*
X157772500Y-117290000D01*
X157796759Y-117291192D01*
X157796759Y-117291192D01*
G37*
D15*
X157500000Y-117785000D03*
D14*
G36*
X157796759Y-116321192D02*
X157820785Y-116324756D01*
X157844345Y-116330657D01*
X157867214Y-116338840D01*
X157889171Y-116349224D01*
X157910004Y-116361711D01*
X157929512Y-116376180D01*
X157947509Y-116392491D01*
X157963820Y-116410488D01*
X157978289Y-116429996D01*
X157990776Y-116450829D01*
X158001160Y-116472786D01*
X158009343Y-116495655D01*
X158015244Y-116519215D01*
X158018808Y-116543241D01*
X158020000Y-116567500D01*
X158020000Y-117062500D01*
X158018808Y-117086759D01*
X158015244Y-117110785D01*
X158009343Y-117134345D01*
X158001160Y-117157214D01*
X157990776Y-117179171D01*
X157978289Y-117200004D01*
X157963820Y-117219512D01*
X157947509Y-117237509D01*
X157929512Y-117253820D01*
X157910004Y-117268289D01*
X157889171Y-117280776D01*
X157867214Y-117291160D01*
X157844345Y-117299343D01*
X157820785Y-117305244D01*
X157796759Y-117308808D01*
X157772500Y-117310000D01*
X157227500Y-117310000D01*
X157203241Y-117308808D01*
X157179215Y-117305244D01*
X157155655Y-117299343D01*
X157132786Y-117291160D01*
X157110829Y-117280776D01*
X157089996Y-117268289D01*
X157070488Y-117253820D01*
X157052491Y-117237509D01*
X157036180Y-117219512D01*
X157021711Y-117200004D01*
X157009224Y-117179171D01*
X156998840Y-117157214D01*
X156990657Y-117134345D01*
X156984756Y-117110785D01*
X156981192Y-117086759D01*
X156980000Y-117062500D01*
X156980000Y-116567500D01*
X156981192Y-116543241D01*
X156984756Y-116519215D01*
X156990657Y-116495655D01*
X156998840Y-116472786D01*
X157009224Y-116450829D01*
X157021711Y-116429996D01*
X157036180Y-116410488D01*
X157052491Y-116392491D01*
X157070488Y-116376180D01*
X157089996Y-116361711D01*
X157110829Y-116349224D01*
X157132786Y-116338840D01*
X157155655Y-116330657D01*
X157179215Y-116324756D01*
X157203241Y-116321192D01*
X157227500Y-116320000D01*
X157772500Y-116320000D01*
X157796759Y-116321192D01*
X157796759Y-116321192D01*
G37*
D15*
X157500000Y-116815000D03*
G04 #@! TD*
D14*
G04 #@! TO.C,R7*
G36*
X156596759Y-116321192D02*
X156620785Y-116324756D01*
X156644345Y-116330657D01*
X156667214Y-116338840D01*
X156689171Y-116349224D01*
X156710004Y-116361711D01*
X156729512Y-116376180D01*
X156747509Y-116392491D01*
X156763820Y-116410488D01*
X156778289Y-116429996D01*
X156790776Y-116450829D01*
X156801160Y-116472786D01*
X156809343Y-116495655D01*
X156815244Y-116519215D01*
X156818808Y-116543241D01*
X156820000Y-116567500D01*
X156820000Y-117062500D01*
X156818808Y-117086759D01*
X156815244Y-117110785D01*
X156809343Y-117134345D01*
X156801160Y-117157214D01*
X156790776Y-117179171D01*
X156778289Y-117200004D01*
X156763820Y-117219512D01*
X156747509Y-117237509D01*
X156729512Y-117253820D01*
X156710004Y-117268289D01*
X156689171Y-117280776D01*
X156667214Y-117291160D01*
X156644345Y-117299343D01*
X156620785Y-117305244D01*
X156596759Y-117308808D01*
X156572500Y-117310000D01*
X156027500Y-117310000D01*
X156003241Y-117308808D01*
X155979215Y-117305244D01*
X155955655Y-117299343D01*
X155932786Y-117291160D01*
X155910829Y-117280776D01*
X155889996Y-117268289D01*
X155870488Y-117253820D01*
X155852491Y-117237509D01*
X155836180Y-117219512D01*
X155821711Y-117200004D01*
X155809224Y-117179171D01*
X155798840Y-117157214D01*
X155790657Y-117134345D01*
X155784756Y-117110785D01*
X155781192Y-117086759D01*
X155780000Y-117062500D01*
X155780000Y-116567500D01*
X155781192Y-116543241D01*
X155784756Y-116519215D01*
X155790657Y-116495655D01*
X155798840Y-116472786D01*
X155809224Y-116450829D01*
X155821711Y-116429996D01*
X155836180Y-116410488D01*
X155852491Y-116392491D01*
X155870488Y-116376180D01*
X155889996Y-116361711D01*
X155910829Y-116349224D01*
X155932786Y-116338840D01*
X155955655Y-116330657D01*
X155979215Y-116324756D01*
X156003241Y-116321192D01*
X156027500Y-116320000D01*
X156572500Y-116320000D01*
X156596759Y-116321192D01*
X156596759Y-116321192D01*
G37*
D15*
X156300000Y-116815000D03*
D14*
G36*
X156596759Y-117291192D02*
X156620785Y-117294756D01*
X156644345Y-117300657D01*
X156667214Y-117308840D01*
X156689171Y-117319224D01*
X156710004Y-117331711D01*
X156729512Y-117346180D01*
X156747509Y-117362491D01*
X156763820Y-117380488D01*
X156778289Y-117399996D01*
X156790776Y-117420829D01*
X156801160Y-117442786D01*
X156809343Y-117465655D01*
X156815244Y-117489215D01*
X156818808Y-117513241D01*
X156820000Y-117537500D01*
X156820000Y-118032500D01*
X156818808Y-118056759D01*
X156815244Y-118080785D01*
X156809343Y-118104345D01*
X156801160Y-118127214D01*
X156790776Y-118149171D01*
X156778289Y-118170004D01*
X156763820Y-118189512D01*
X156747509Y-118207509D01*
X156729512Y-118223820D01*
X156710004Y-118238289D01*
X156689171Y-118250776D01*
X156667214Y-118261160D01*
X156644345Y-118269343D01*
X156620785Y-118275244D01*
X156596759Y-118278808D01*
X156572500Y-118280000D01*
X156027500Y-118280000D01*
X156003241Y-118278808D01*
X155979215Y-118275244D01*
X155955655Y-118269343D01*
X155932786Y-118261160D01*
X155910829Y-118250776D01*
X155889996Y-118238289D01*
X155870488Y-118223820D01*
X155852491Y-118207509D01*
X155836180Y-118189512D01*
X155821711Y-118170004D01*
X155809224Y-118149171D01*
X155798840Y-118127214D01*
X155790657Y-118104345D01*
X155784756Y-118080785D01*
X155781192Y-118056759D01*
X155780000Y-118032500D01*
X155780000Y-117537500D01*
X155781192Y-117513241D01*
X155784756Y-117489215D01*
X155790657Y-117465655D01*
X155798840Y-117442786D01*
X155809224Y-117420829D01*
X155821711Y-117399996D01*
X155836180Y-117380488D01*
X155852491Y-117362491D01*
X155870488Y-117346180D01*
X155889996Y-117331711D01*
X155910829Y-117319224D01*
X155932786Y-117308840D01*
X155955655Y-117300657D01*
X155979215Y-117294756D01*
X156003241Y-117291192D01*
X156027500Y-117290000D01*
X156572500Y-117290000D01*
X156596759Y-117291192D01*
X156596759Y-117291192D01*
G37*
D15*
X156300000Y-117785000D03*
G04 #@! TD*
D14*
G04 #@! TO.C,R8*
G36*
X126896759Y-127291192D02*
X126920785Y-127294756D01*
X126944345Y-127300657D01*
X126967214Y-127308840D01*
X126989171Y-127319224D01*
X127010004Y-127331711D01*
X127029512Y-127346180D01*
X127047509Y-127362491D01*
X127063820Y-127380488D01*
X127078289Y-127399996D01*
X127090776Y-127420829D01*
X127101160Y-127442786D01*
X127109343Y-127465655D01*
X127115244Y-127489215D01*
X127118808Y-127513241D01*
X127120000Y-127537500D01*
X127120000Y-128032500D01*
X127118808Y-128056759D01*
X127115244Y-128080785D01*
X127109343Y-128104345D01*
X127101160Y-128127214D01*
X127090776Y-128149171D01*
X127078289Y-128170004D01*
X127063820Y-128189512D01*
X127047509Y-128207509D01*
X127029512Y-128223820D01*
X127010004Y-128238289D01*
X126989171Y-128250776D01*
X126967214Y-128261160D01*
X126944345Y-128269343D01*
X126920785Y-128275244D01*
X126896759Y-128278808D01*
X126872500Y-128280000D01*
X126327500Y-128280000D01*
X126303241Y-128278808D01*
X126279215Y-128275244D01*
X126255655Y-128269343D01*
X126232786Y-128261160D01*
X126210829Y-128250776D01*
X126189996Y-128238289D01*
X126170488Y-128223820D01*
X126152491Y-128207509D01*
X126136180Y-128189512D01*
X126121711Y-128170004D01*
X126109224Y-128149171D01*
X126098840Y-128127214D01*
X126090657Y-128104345D01*
X126084756Y-128080785D01*
X126081192Y-128056759D01*
X126080000Y-128032500D01*
X126080000Y-127537500D01*
X126081192Y-127513241D01*
X126084756Y-127489215D01*
X126090657Y-127465655D01*
X126098840Y-127442786D01*
X126109224Y-127420829D01*
X126121711Y-127399996D01*
X126136180Y-127380488D01*
X126152491Y-127362491D01*
X126170488Y-127346180D01*
X126189996Y-127331711D01*
X126210829Y-127319224D01*
X126232786Y-127308840D01*
X126255655Y-127300657D01*
X126279215Y-127294756D01*
X126303241Y-127291192D01*
X126327500Y-127290000D01*
X126872500Y-127290000D01*
X126896759Y-127291192D01*
X126896759Y-127291192D01*
G37*
D15*
X126600000Y-127785000D03*
D14*
G36*
X126896759Y-126321192D02*
X126920785Y-126324756D01*
X126944345Y-126330657D01*
X126967214Y-126338840D01*
X126989171Y-126349224D01*
X127010004Y-126361711D01*
X127029512Y-126376180D01*
X127047509Y-126392491D01*
X127063820Y-126410488D01*
X127078289Y-126429996D01*
X127090776Y-126450829D01*
X127101160Y-126472786D01*
X127109343Y-126495655D01*
X127115244Y-126519215D01*
X127118808Y-126543241D01*
X127120000Y-126567500D01*
X127120000Y-127062500D01*
X127118808Y-127086759D01*
X127115244Y-127110785D01*
X127109343Y-127134345D01*
X127101160Y-127157214D01*
X127090776Y-127179171D01*
X127078289Y-127200004D01*
X127063820Y-127219512D01*
X127047509Y-127237509D01*
X127029512Y-127253820D01*
X127010004Y-127268289D01*
X126989171Y-127280776D01*
X126967214Y-127291160D01*
X126944345Y-127299343D01*
X126920785Y-127305244D01*
X126896759Y-127308808D01*
X126872500Y-127310000D01*
X126327500Y-127310000D01*
X126303241Y-127308808D01*
X126279215Y-127305244D01*
X126255655Y-127299343D01*
X126232786Y-127291160D01*
X126210829Y-127280776D01*
X126189996Y-127268289D01*
X126170488Y-127253820D01*
X126152491Y-127237509D01*
X126136180Y-127219512D01*
X126121711Y-127200004D01*
X126109224Y-127179171D01*
X126098840Y-127157214D01*
X126090657Y-127134345D01*
X126084756Y-127110785D01*
X126081192Y-127086759D01*
X126080000Y-127062500D01*
X126080000Y-126567500D01*
X126081192Y-126543241D01*
X126084756Y-126519215D01*
X126090657Y-126495655D01*
X126098840Y-126472786D01*
X126109224Y-126450829D01*
X126121711Y-126429996D01*
X126136180Y-126410488D01*
X126152491Y-126392491D01*
X126170488Y-126376180D01*
X126189996Y-126361711D01*
X126210829Y-126349224D01*
X126232786Y-126338840D01*
X126255655Y-126330657D01*
X126279215Y-126324756D01*
X126303241Y-126321192D01*
X126327500Y-126320000D01*
X126872500Y-126320000D01*
X126896759Y-126321192D01*
X126896759Y-126321192D01*
G37*
D15*
X126600000Y-126815000D03*
G04 #@! TD*
D14*
G04 #@! TO.C,R9*
G36*
X175956759Y-133011192D02*
X175980785Y-133014756D01*
X176004345Y-133020657D01*
X176027214Y-133028840D01*
X176049171Y-133039224D01*
X176070004Y-133051711D01*
X176089512Y-133066180D01*
X176107509Y-133082491D01*
X176123820Y-133100488D01*
X176138289Y-133119996D01*
X176150776Y-133140829D01*
X176161160Y-133162786D01*
X176169343Y-133185655D01*
X176175244Y-133209215D01*
X176178808Y-133233241D01*
X176180000Y-133257500D01*
X176180000Y-133802500D01*
X176178808Y-133826759D01*
X176175244Y-133850785D01*
X176169343Y-133874345D01*
X176161160Y-133897214D01*
X176150776Y-133919171D01*
X176138289Y-133940004D01*
X176123820Y-133959512D01*
X176107509Y-133977509D01*
X176089512Y-133993820D01*
X176070004Y-134008289D01*
X176049171Y-134020776D01*
X176027214Y-134031160D01*
X176004345Y-134039343D01*
X175980785Y-134045244D01*
X175956759Y-134048808D01*
X175932500Y-134050000D01*
X175437500Y-134050000D01*
X175413241Y-134048808D01*
X175389215Y-134045244D01*
X175365655Y-134039343D01*
X175342786Y-134031160D01*
X175320829Y-134020776D01*
X175299996Y-134008289D01*
X175280488Y-133993820D01*
X175262491Y-133977509D01*
X175246180Y-133959512D01*
X175231711Y-133940004D01*
X175219224Y-133919171D01*
X175208840Y-133897214D01*
X175200657Y-133874345D01*
X175194756Y-133850785D01*
X175191192Y-133826759D01*
X175190000Y-133802500D01*
X175190000Y-133257500D01*
X175191192Y-133233241D01*
X175194756Y-133209215D01*
X175200657Y-133185655D01*
X175208840Y-133162786D01*
X175219224Y-133140829D01*
X175231711Y-133119996D01*
X175246180Y-133100488D01*
X175262491Y-133082491D01*
X175280488Y-133066180D01*
X175299996Y-133051711D01*
X175320829Y-133039224D01*
X175342786Y-133028840D01*
X175365655Y-133020657D01*
X175389215Y-133014756D01*
X175413241Y-133011192D01*
X175437500Y-133010000D01*
X175932500Y-133010000D01*
X175956759Y-133011192D01*
X175956759Y-133011192D01*
G37*
D15*
X175685000Y-133530000D03*
D14*
G36*
X176926759Y-133011192D02*
X176950785Y-133014756D01*
X176974345Y-133020657D01*
X176997214Y-133028840D01*
X177019171Y-133039224D01*
X177040004Y-133051711D01*
X177059512Y-133066180D01*
X177077509Y-133082491D01*
X177093820Y-133100488D01*
X177108289Y-133119996D01*
X177120776Y-133140829D01*
X177131160Y-133162786D01*
X177139343Y-133185655D01*
X177145244Y-133209215D01*
X177148808Y-133233241D01*
X177150000Y-133257500D01*
X177150000Y-133802500D01*
X177148808Y-133826759D01*
X177145244Y-133850785D01*
X177139343Y-133874345D01*
X177131160Y-133897214D01*
X177120776Y-133919171D01*
X177108289Y-133940004D01*
X177093820Y-133959512D01*
X177077509Y-133977509D01*
X177059512Y-133993820D01*
X177040004Y-134008289D01*
X177019171Y-134020776D01*
X176997214Y-134031160D01*
X176974345Y-134039343D01*
X176950785Y-134045244D01*
X176926759Y-134048808D01*
X176902500Y-134050000D01*
X176407500Y-134050000D01*
X176383241Y-134048808D01*
X176359215Y-134045244D01*
X176335655Y-134039343D01*
X176312786Y-134031160D01*
X176290829Y-134020776D01*
X176269996Y-134008289D01*
X176250488Y-133993820D01*
X176232491Y-133977509D01*
X176216180Y-133959512D01*
X176201711Y-133940004D01*
X176189224Y-133919171D01*
X176178840Y-133897214D01*
X176170657Y-133874345D01*
X176164756Y-133850785D01*
X176161192Y-133826759D01*
X176160000Y-133802500D01*
X176160000Y-133257500D01*
X176161192Y-133233241D01*
X176164756Y-133209215D01*
X176170657Y-133185655D01*
X176178840Y-133162786D01*
X176189224Y-133140829D01*
X176201711Y-133119996D01*
X176216180Y-133100488D01*
X176232491Y-133082491D01*
X176250488Y-133066180D01*
X176269996Y-133051711D01*
X176290829Y-133039224D01*
X176312786Y-133028840D01*
X176335655Y-133020657D01*
X176359215Y-133014756D01*
X176383241Y-133011192D01*
X176407500Y-133010000D01*
X176902500Y-133010000D01*
X176926759Y-133011192D01*
X176926759Y-133011192D01*
G37*
D15*
X176655000Y-133530000D03*
G04 #@! TD*
D14*
G04 #@! TO.C,R10*
G36*
X165006759Y-116231192D02*
X165030785Y-116234756D01*
X165054345Y-116240657D01*
X165077214Y-116248840D01*
X165099171Y-116259224D01*
X165120004Y-116271711D01*
X165139512Y-116286180D01*
X165157509Y-116302491D01*
X165173820Y-116320488D01*
X165188289Y-116339996D01*
X165200776Y-116360829D01*
X165211160Y-116382786D01*
X165219343Y-116405655D01*
X165225244Y-116429215D01*
X165228808Y-116453241D01*
X165230000Y-116477500D01*
X165230000Y-117022500D01*
X165228808Y-117046759D01*
X165225244Y-117070785D01*
X165219343Y-117094345D01*
X165211160Y-117117214D01*
X165200776Y-117139171D01*
X165188289Y-117160004D01*
X165173820Y-117179512D01*
X165157509Y-117197509D01*
X165139512Y-117213820D01*
X165120004Y-117228289D01*
X165099171Y-117240776D01*
X165077214Y-117251160D01*
X165054345Y-117259343D01*
X165030785Y-117265244D01*
X165006759Y-117268808D01*
X164982500Y-117270000D01*
X164487500Y-117270000D01*
X164463241Y-117268808D01*
X164439215Y-117265244D01*
X164415655Y-117259343D01*
X164392786Y-117251160D01*
X164370829Y-117240776D01*
X164349996Y-117228289D01*
X164330488Y-117213820D01*
X164312491Y-117197509D01*
X164296180Y-117179512D01*
X164281711Y-117160004D01*
X164269224Y-117139171D01*
X164258840Y-117117214D01*
X164250657Y-117094345D01*
X164244756Y-117070785D01*
X164241192Y-117046759D01*
X164240000Y-117022500D01*
X164240000Y-116477500D01*
X164241192Y-116453241D01*
X164244756Y-116429215D01*
X164250657Y-116405655D01*
X164258840Y-116382786D01*
X164269224Y-116360829D01*
X164281711Y-116339996D01*
X164296180Y-116320488D01*
X164312491Y-116302491D01*
X164330488Y-116286180D01*
X164349996Y-116271711D01*
X164370829Y-116259224D01*
X164392786Y-116248840D01*
X164415655Y-116240657D01*
X164439215Y-116234756D01*
X164463241Y-116231192D01*
X164487500Y-116230000D01*
X164982500Y-116230000D01*
X165006759Y-116231192D01*
X165006759Y-116231192D01*
G37*
D15*
X164735000Y-116750000D03*
D14*
G36*
X164036759Y-116231192D02*
X164060785Y-116234756D01*
X164084345Y-116240657D01*
X164107214Y-116248840D01*
X164129171Y-116259224D01*
X164150004Y-116271711D01*
X164169512Y-116286180D01*
X164187509Y-116302491D01*
X164203820Y-116320488D01*
X164218289Y-116339996D01*
X164230776Y-116360829D01*
X164241160Y-116382786D01*
X164249343Y-116405655D01*
X164255244Y-116429215D01*
X164258808Y-116453241D01*
X164260000Y-116477500D01*
X164260000Y-117022500D01*
X164258808Y-117046759D01*
X164255244Y-117070785D01*
X164249343Y-117094345D01*
X164241160Y-117117214D01*
X164230776Y-117139171D01*
X164218289Y-117160004D01*
X164203820Y-117179512D01*
X164187509Y-117197509D01*
X164169512Y-117213820D01*
X164150004Y-117228289D01*
X164129171Y-117240776D01*
X164107214Y-117251160D01*
X164084345Y-117259343D01*
X164060785Y-117265244D01*
X164036759Y-117268808D01*
X164012500Y-117270000D01*
X163517500Y-117270000D01*
X163493241Y-117268808D01*
X163469215Y-117265244D01*
X163445655Y-117259343D01*
X163422786Y-117251160D01*
X163400829Y-117240776D01*
X163379996Y-117228289D01*
X163360488Y-117213820D01*
X163342491Y-117197509D01*
X163326180Y-117179512D01*
X163311711Y-117160004D01*
X163299224Y-117139171D01*
X163288840Y-117117214D01*
X163280657Y-117094345D01*
X163274756Y-117070785D01*
X163271192Y-117046759D01*
X163270000Y-117022500D01*
X163270000Y-116477500D01*
X163271192Y-116453241D01*
X163274756Y-116429215D01*
X163280657Y-116405655D01*
X163288840Y-116382786D01*
X163299224Y-116360829D01*
X163311711Y-116339996D01*
X163326180Y-116320488D01*
X163342491Y-116302491D01*
X163360488Y-116286180D01*
X163379996Y-116271711D01*
X163400829Y-116259224D01*
X163422786Y-116248840D01*
X163445655Y-116240657D01*
X163469215Y-116234756D01*
X163493241Y-116231192D01*
X163517500Y-116230000D01*
X164012500Y-116230000D01*
X164036759Y-116231192D01*
X164036759Y-116231192D01*
G37*
D15*
X163765000Y-116750000D03*
G04 #@! TD*
D14*
G04 #@! TO.C,R11*
G36*
X165006759Y-120231192D02*
X165030785Y-120234756D01*
X165054345Y-120240657D01*
X165077214Y-120248840D01*
X165099171Y-120259224D01*
X165120004Y-120271711D01*
X165139512Y-120286180D01*
X165157509Y-120302491D01*
X165173820Y-120320488D01*
X165188289Y-120339996D01*
X165200776Y-120360829D01*
X165211160Y-120382786D01*
X165219343Y-120405655D01*
X165225244Y-120429215D01*
X165228808Y-120453241D01*
X165230000Y-120477500D01*
X165230000Y-121022500D01*
X165228808Y-121046759D01*
X165225244Y-121070785D01*
X165219343Y-121094345D01*
X165211160Y-121117214D01*
X165200776Y-121139171D01*
X165188289Y-121160004D01*
X165173820Y-121179512D01*
X165157509Y-121197509D01*
X165139512Y-121213820D01*
X165120004Y-121228289D01*
X165099171Y-121240776D01*
X165077214Y-121251160D01*
X165054345Y-121259343D01*
X165030785Y-121265244D01*
X165006759Y-121268808D01*
X164982500Y-121270000D01*
X164487500Y-121270000D01*
X164463241Y-121268808D01*
X164439215Y-121265244D01*
X164415655Y-121259343D01*
X164392786Y-121251160D01*
X164370829Y-121240776D01*
X164349996Y-121228289D01*
X164330488Y-121213820D01*
X164312491Y-121197509D01*
X164296180Y-121179512D01*
X164281711Y-121160004D01*
X164269224Y-121139171D01*
X164258840Y-121117214D01*
X164250657Y-121094345D01*
X164244756Y-121070785D01*
X164241192Y-121046759D01*
X164240000Y-121022500D01*
X164240000Y-120477500D01*
X164241192Y-120453241D01*
X164244756Y-120429215D01*
X164250657Y-120405655D01*
X164258840Y-120382786D01*
X164269224Y-120360829D01*
X164281711Y-120339996D01*
X164296180Y-120320488D01*
X164312491Y-120302491D01*
X164330488Y-120286180D01*
X164349996Y-120271711D01*
X164370829Y-120259224D01*
X164392786Y-120248840D01*
X164415655Y-120240657D01*
X164439215Y-120234756D01*
X164463241Y-120231192D01*
X164487500Y-120230000D01*
X164982500Y-120230000D01*
X165006759Y-120231192D01*
X165006759Y-120231192D01*
G37*
D15*
X164735000Y-120750000D03*
D14*
G36*
X164036759Y-120231192D02*
X164060785Y-120234756D01*
X164084345Y-120240657D01*
X164107214Y-120248840D01*
X164129171Y-120259224D01*
X164150004Y-120271711D01*
X164169512Y-120286180D01*
X164187509Y-120302491D01*
X164203820Y-120320488D01*
X164218289Y-120339996D01*
X164230776Y-120360829D01*
X164241160Y-120382786D01*
X164249343Y-120405655D01*
X164255244Y-120429215D01*
X164258808Y-120453241D01*
X164260000Y-120477500D01*
X164260000Y-121022500D01*
X164258808Y-121046759D01*
X164255244Y-121070785D01*
X164249343Y-121094345D01*
X164241160Y-121117214D01*
X164230776Y-121139171D01*
X164218289Y-121160004D01*
X164203820Y-121179512D01*
X164187509Y-121197509D01*
X164169512Y-121213820D01*
X164150004Y-121228289D01*
X164129171Y-121240776D01*
X164107214Y-121251160D01*
X164084345Y-121259343D01*
X164060785Y-121265244D01*
X164036759Y-121268808D01*
X164012500Y-121270000D01*
X163517500Y-121270000D01*
X163493241Y-121268808D01*
X163469215Y-121265244D01*
X163445655Y-121259343D01*
X163422786Y-121251160D01*
X163400829Y-121240776D01*
X163379996Y-121228289D01*
X163360488Y-121213820D01*
X163342491Y-121197509D01*
X163326180Y-121179512D01*
X163311711Y-121160004D01*
X163299224Y-121139171D01*
X163288840Y-121117214D01*
X163280657Y-121094345D01*
X163274756Y-121070785D01*
X163271192Y-121046759D01*
X163270000Y-121022500D01*
X163270000Y-120477500D01*
X163271192Y-120453241D01*
X163274756Y-120429215D01*
X163280657Y-120405655D01*
X163288840Y-120382786D01*
X163299224Y-120360829D01*
X163311711Y-120339996D01*
X163326180Y-120320488D01*
X163342491Y-120302491D01*
X163360488Y-120286180D01*
X163379996Y-120271711D01*
X163400829Y-120259224D01*
X163422786Y-120248840D01*
X163445655Y-120240657D01*
X163469215Y-120234756D01*
X163493241Y-120231192D01*
X163517500Y-120230000D01*
X164012500Y-120230000D01*
X164036759Y-120231192D01*
X164036759Y-120231192D01*
G37*
D15*
X163765000Y-120750000D03*
G04 #@! TD*
D14*
G04 #@! TO.C,R12*
G36*
X162296759Y-119021192D02*
X162320785Y-119024756D01*
X162344345Y-119030657D01*
X162367214Y-119038840D01*
X162389171Y-119049224D01*
X162410004Y-119061711D01*
X162429512Y-119076180D01*
X162447509Y-119092491D01*
X162463820Y-119110488D01*
X162478289Y-119129996D01*
X162490776Y-119150829D01*
X162501160Y-119172786D01*
X162509343Y-119195655D01*
X162515244Y-119219215D01*
X162518808Y-119243241D01*
X162520000Y-119267500D01*
X162520000Y-119762500D01*
X162518808Y-119786759D01*
X162515244Y-119810785D01*
X162509343Y-119834345D01*
X162501160Y-119857214D01*
X162490776Y-119879171D01*
X162478289Y-119900004D01*
X162463820Y-119919512D01*
X162447509Y-119937509D01*
X162429512Y-119953820D01*
X162410004Y-119968289D01*
X162389171Y-119980776D01*
X162367214Y-119991160D01*
X162344345Y-119999343D01*
X162320785Y-120005244D01*
X162296759Y-120008808D01*
X162272500Y-120010000D01*
X161727500Y-120010000D01*
X161703241Y-120008808D01*
X161679215Y-120005244D01*
X161655655Y-119999343D01*
X161632786Y-119991160D01*
X161610829Y-119980776D01*
X161589996Y-119968289D01*
X161570488Y-119953820D01*
X161552491Y-119937509D01*
X161536180Y-119919512D01*
X161521711Y-119900004D01*
X161509224Y-119879171D01*
X161498840Y-119857214D01*
X161490657Y-119834345D01*
X161484756Y-119810785D01*
X161481192Y-119786759D01*
X161480000Y-119762500D01*
X161480000Y-119267500D01*
X161481192Y-119243241D01*
X161484756Y-119219215D01*
X161490657Y-119195655D01*
X161498840Y-119172786D01*
X161509224Y-119150829D01*
X161521711Y-119129996D01*
X161536180Y-119110488D01*
X161552491Y-119092491D01*
X161570488Y-119076180D01*
X161589996Y-119061711D01*
X161610829Y-119049224D01*
X161632786Y-119038840D01*
X161655655Y-119030657D01*
X161679215Y-119024756D01*
X161703241Y-119021192D01*
X161727500Y-119020000D01*
X162272500Y-119020000D01*
X162296759Y-119021192D01*
X162296759Y-119021192D01*
G37*
D15*
X162000000Y-119515000D03*
D14*
G36*
X162296759Y-119991192D02*
X162320785Y-119994756D01*
X162344345Y-120000657D01*
X162367214Y-120008840D01*
X162389171Y-120019224D01*
X162410004Y-120031711D01*
X162429512Y-120046180D01*
X162447509Y-120062491D01*
X162463820Y-120080488D01*
X162478289Y-120099996D01*
X162490776Y-120120829D01*
X162501160Y-120142786D01*
X162509343Y-120165655D01*
X162515244Y-120189215D01*
X162518808Y-120213241D01*
X162520000Y-120237500D01*
X162520000Y-120732500D01*
X162518808Y-120756759D01*
X162515244Y-120780785D01*
X162509343Y-120804345D01*
X162501160Y-120827214D01*
X162490776Y-120849171D01*
X162478289Y-120870004D01*
X162463820Y-120889512D01*
X162447509Y-120907509D01*
X162429512Y-120923820D01*
X162410004Y-120938289D01*
X162389171Y-120950776D01*
X162367214Y-120961160D01*
X162344345Y-120969343D01*
X162320785Y-120975244D01*
X162296759Y-120978808D01*
X162272500Y-120980000D01*
X161727500Y-120980000D01*
X161703241Y-120978808D01*
X161679215Y-120975244D01*
X161655655Y-120969343D01*
X161632786Y-120961160D01*
X161610829Y-120950776D01*
X161589996Y-120938289D01*
X161570488Y-120923820D01*
X161552491Y-120907509D01*
X161536180Y-120889512D01*
X161521711Y-120870004D01*
X161509224Y-120849171D01*
X161498840Y-120827214D01*
X161490657Y-120804345D01*
X161484756Y-120780785D01*
X161481192Y-120756759D01*
X161480000Y-120732500D01*
X161480000Y-120237500D01*
X161481192Y-120213241D01*
X161484756Y-120189215D01*
X161490657Y-120165655D01*
X161498840Y-120142786D01*
X161509224Y-120120829D01*
X161521711Y-120099996D01*
X161536180Y-120080488D01*
X161552491Y-120062491D01*
X161570488Y-120046180D01*
X161589996Y-120031711D01*
X161610829Y-120019224D01*
X161632786Y-120008840D01*
X161655655Y-120000657D01*
X161679215Y-119994756D01*
X161703241Y-119991192D01*
X161727500Y-119990000D01*
X162272500Y-119990000D01*
X162296759Y-119991192D01*
X162296759Y-119991192D01*
G37*
D15*
X162000000Y-120485000D03*
G04 #@! TD*
D14*
G04 #@! TO.C,R13*
G36*
X166896759Y-116321192D02*
X166920785Y-116324756D01*
X166944345Y-116330657D01*
X166967214Y-116338840D01*
X166989171Y-116349224D01*
X167010004Y-116361711D01*
X167029512Y-116376180D01*
X167047509Y-116392491D01*
X167063820Y-116410488D01*
X167078289Y-116429996D01*
X167090776Y-116450829D01*
X167101160Y-116472786D01*
X167109343Y-116495655D01*
X167115244Y-116519215D01*
X167118808Y-116543241D01*
X167120000Y-116567500D01*
X167120000Y-117062500D01*
X167118808Y-117086759D01*
X167115244Y-117110785D01*
X167109343Y-117134345D01*
X167101160Y-117157214D01*
X167090776Y-117179171D01*
X167078289Y-117200004D01*
X167063820Y-117219512D01*
X167047509Y-117237509D01*
X167029512Y-117253820D01*
X167010004Y-117268289D01*
X166989171Y-117280776D01*
X166967214Y-117291160D01*
X166944345Y-117299343D01*
X166920785Y-117305244D01*
X166896759Y-117308808D01*
X166872500Y-117310000D01*
X166327500Y-117310000D01*
X166303241Y-117308808D01*
X166279215Y-117305244D01*
X166255655Y-117299343D01*
X166232786Y-117291160D01*
X166210829Y-117280776D01*
X166189996Y-117268289D01*
X166170488Y-117253820D01*
X166152491Y-117237509D01*
X166136180Y-117219512D01*
X166121711Y-117200004D01*
X166109224Y-117179171D01*
X166098840Y-117157214D01*
X166090657Y-117134345D01*
X166084756Y-117110785D01*
X166081192Y-117086759D01*
X166080000Y-117062500D01*
X166080000Y-116567500D01*
X166081192Y-116543241D01*
X166084756Y-116519215D01*
X166090657Y-116495655D01*
X166098840Y-116472786D01*
X166109224Y-116450829D01*
X166121711Y-116429996D01*
X166136180Y-116410488D01*
X166152491Y-116392491D01*
X166170488Y-116376180D01*
X166189996Y-116361711D01*
X166210829Y-116349224D01*
X166232786Y-116338840D01*
X166255655Y-116330657D01*
X166279215Y-116324756D01*
X166303241Y-116321192D01*
X166327500Y-116320000D01*
X166872500Y-116320000D01*
X166896759Y-116321192D01*
X166896759Y-116321192D01*
G37*
D15*
X166600000Y-116815000D03*
D14*
G36*
X166896759Y-117291192D02*
X166920785Y-117294756D01*
X166944345Y-117300657D01*
X166967214Y-117308840D01*
X166989171Y-117319224D01*
X167010004Y-117331711D01*
X167029512Y-117346180D01*
X167047509Y-117362491D01*
X167063820Y-117380488D01*
X167078289Y-117399996D01*
X167090776Y-117420829D01*
X167101160Y-117442786D01*
X167109343Y-117465655D01*
X167115244Y-117489215D01*
X167118808Y-117513241D01*
X167120000Y-117537500D01*
X167120000Y-118032500D01*
X167118808Y-118056759D01*
X167115244Y-118080785D01*
X167109343Y-118104345D01*
X167101160Y-118127214D01*
X167090776Y-118149171D01*
X167078289Y-118170004D01*
X167063820Y-118189512D01*
X167047509Y-118207509D01*
X167029512Y-118223820D01*
X167010004Y-118238289D01*
X166989171Y-118250776D01*
X166967214Y-118261160D01*
X166944345Y-118269343D01*
X166920785Y-118275244D01*
X166896759Y-118278808D01*
X166872500Y-118280000D01*
X166327500Y-118280000D01*
X166303241Y-118278808D01*
X166279215Y-118275244D01*
X166255655Y-118269343D01*
X166232786Y-118261160D01*
X166210829Y-118250776D01*
X166189996Y-118238289D01*
X166170488Y-118223820D01*
X166152491Y-118207509D01*
X166136180Y-118189512D01*
X166121711Y-118170004D01*
X166109224Y-118149171D01*
X166098840Y-118127214D01*
X166090657Y-118104345D01*
X166084756Y-118080785D01*
X166081192Y-118056759D01*
X166080000Y-118032500D01*
X166080000Y-117537500D01*
X166081192Y-117513241D01*
X166084756Y-117489215D01*
X166090657Y-117465655D01*
X166098840Y-117442786D01*
X166109224Y-117420829D01*
X166121711Y-117399996D01*
X166136180Y-117380488D01*
X166152491Y-117362491D01*
X166170488Y-117346180D01*
X166189996Y-117331711D01*
X166210829Y-117319224D01*
X166232786Y-117308840D01*
X166255655Y-117300657D01*
X166279215Y-117294756D01*
X166303241Y-117291192D01*
X166327500Y-117290000D01*
X166872500Y-117290000D01*
X166896759Y-117291192D01*
X166896759Y-117291192D01*
G37*
D15*
X166600000Y-117785000D03*
G04 #@! TD*
D14*
G04 #@! TO.C,R14*
G36*
X173446759Y-115766192D02*
X173470785Y-115769756D01*
X173494345Y-115775657D01*
X173517214Y-115783840D01*
X173539171Y-115794224D01*
X173560004Y-115806711D01*
X173579512Y-115821180D01*
X173597509Y-115837491D01*
X173613820Y-115855488D01*
X173628289Y-115874996D01*
X173640776Y-115895829D01*
X173651160Y-115917786D01*
X173659343Y-115940655D01*
X173665244Y-115964215D01*
X173668808Y-115988241D01*
X173670000Y-116012500D01*
X173670000Y-116507500D01*
X173668808Y-116531759D01*
X173665244Y-116555785D01*
X173659343Y-116579345D01*
X173651160Y-116602214D01*
X173640776Y-116624171D01*
X173628289Y-116645004D01*
X173613820Y-116664512D01*
X173597509Y-116682509D01*
X173579512Y-116698820D01*
X173560004Y-116713289D01*
X173539171Y-116725776D01*
X173517214Y-116736160D01*
X173494345Y-116744343D01*
X173470785Y-116750244D01*
X173446759Y-116753808D01*
X173422500Y-116755000D01*
X172877500Y-116755000D01*
X172853241Y-116753808D01*
X172829215Y-116750244D01*
X172805655Y-116744343D01*
X172782786Y-116736160D01*
X172760829Y-116725776D01*
X172739996Y-116713289D01*
X172720488Y-116698820D01*
X172702491Y-116682509D01*
X172686180Y-116664512D01*
X172671711Y-116645004D01*
X172659224Y-116624171D01*
X172648840Y-116602214D01*
X172640657Y-116579345D01*
X172634756Y-116555785D01*
X172631192Y-116531759D01*
X172630000Y-116507500D01*
X172630000Y-116012500D01*
X172631192Y-115988241D01*
X172634756Y-115964215D01*
X172640657Y-115940655D01*
X172648840Y-115917786D01*
X172659224Y-115895829D01*
X172671711Y-115874996D01*
X172686180Y-115855488D01*
X172702491Y-115837491D01*
X172720488Y-115821180D01*
X172739996Y-115806711D01*
X172760829Y-115794224D01*
X172782786Y-115783840D01*
X172805655Y-115775657D01*
X172829215Y-115769756D01*
X172853241Y-115766192D01*
X172877500Y-115765000D01*
X173422500Y-115765000D01*
X173446759Y-115766192D01*
X173446759Y-115766192D01*
G37*
D15*
X173150000Y-116260000D03*
D14*
G36*
X173446759Y-116736192D02*
X173470785Y-116739756D01*
X173494345Y-116745657D01*
X173517214Y-116753840D01*
X173539171Y-116764224D01*
X173560004Y-116776711D01*
X173579512Y-116791180D01*
X173597509Y-116807491D01*
X173613820Y-116825488D01*
X173628289Y-116844996D01*
X173640776Y-116865829D01*
X173651160Y-116887786D01*
X173659343Y-116910655D01*
X173665244Y-116934215D01*
X173668808Y-116958241D01*
X173670000Y-116982500D01*
X173670000Y-117477500D01*
X173668808Y-117501759D01*
X173665244Y-117525785D01*
X173659343Y-117549345D01*
X173651160Y-117572214D01*
X173640776Y-117594171D01*
X173628289Y-117615004D01*
X173613820Y-117634512D01*
X173597509Y-117652509D01*
X173579512Y-117668820D01*
X173560004Y-117683289D01*
X173539171Y-117695776D01*
X173517214Y-117706160D01*
X173494345Y-117714343D01*
X173470785Y-117720244D01*
X173446759Y-117723808D01*
X173422500Y-117725000D01*
X172877500Y-117725000D01*
X172853241Y-117723808D01*
X172829215Y-117720244D01*
X172805655Y-117714343D01*
X172782786Y-117706160D01*
X172760829Y-117695776D01*
X172739996Y-117683289D01*
X172720488Y-117668820D01*
X172702491Y-117652509D01*
X172686180Y-117634512D01*
X172671711Y-117615004D01*
X172659224Y-117594171D01*
X172648840Y-117572214D01*
X172640657Y-117549345D01*
X172634756Y-117525785D01*
X172631192Y-117501759D01*
X172630000Y-117477500D01*
X172630000Y-116982500D01*
X172631192Y-116958241D01*
X172634756Y-116934215D01*
X172640657Y-116910655D01*
X172648840Y-116887786D01*
X172659224Y-116865829D01*
X172671711Y-116844996D01*
X172686180Y-116825488D01*
X172702491Y-116807491D01*
X172720488Y-116791180D01*
X172739996Y-116776711D01*
X172760829Y-116764224D01*
X172782786Y-116753840D01*
X172805655Y-116745657D01*
X172829215Y-116739756D01*
X172853241Y-116736192D01*
X172877500Y-116735000D01*
X173422500Y-116735000D01*
X173446759Y-116736192D01*
X173446759Y-116736192D01*
G37*
D15*
X173150000Y-117230000D03*
G04 #@! TD*
D14*
G04 #@! TO.C,R15*
G36*
X172156759Y-116736192D02*
X172180785Y-116739756D01*
X172204345Y-116745657D01*
X172227214Y-116753840D01*
X172249171Y-116764224D01*
X172270004Y-116776711D01*
X172289512Y-116791180D01*
X172307509Y-116807491D01*
X172323820Y-116825488D01*
X172338289Y-116844996D01*
X172350776Y-116865829D01*
X172361160Y-116887786D01*
X172369343Y-116910655D01*
X172375244Y-116934215D01*
X172378808Y-116958241D01*
X172380000Y-116982500D01*
X172380000Y-117477500D01*
X172378808Y-117501759D01*
X172375244Y-117525785D01*
X172369343Y-117549345D01*
X172361160Y-117572214D01*
X172350776Y-117594171D01*
X172338289Y-117615004D01*
X172323820Y-117634512D01*
X172307509Y-117652509D01*
X172289512Y-117668820D01*
X172270004Y-117683289D01*
X172249171Y-117695776D01*
X172227214Y-117706160D01*
X172204345Y-117714343D01*
X172180785Y-117720244D01*
X172156759Y-117723808D01*
X172132500Y-117725000D01*
X171587500Y-117725000D01*
X171563241Y-117723808D01*
X171539215Y-117720244D01*
X171515655Y-117714343D01*
X171492786Y-117706160D01*
X171470829Y-117695776D01*
X171449996Y-117683289D01*
X171430488Y-117668820D01*
X171412491Y-117652509D01*
X171396180Y-117634512D01*
X171381711Y-117615004D01*
X171369224Y-117594171D01*
X171358840Y-117572214D01*
X171350657Y-117549345D01*
X171344756Y-117525785D01*
X171341192Y-117501759D01*
X171340000Y-117477500D01*
X171340000Y-116982500D01*
X171341192Y-116958241D01*
X171344756Y-116934215D01*
X171350657Y-116910655D01*
X171358840Y-116887786D01*
X171369224Y-116865829D01*
X171381711Y-116844996D01*
X171396180Y-116825488D01*
X171412491Y-116807491D01*
X171430488Y-116791180D01*
X171449996Y-116776711D01*
X171470829Y-116764224D01*
X171492786Y-116753840D01*
X171515655Y-116745657D01*
X171539215Y-116739756D01*
X171563241Y-116736192D01*
X171587500Y-116735000D01*
X172132500Y-116735000D01*
X172156759Y-116736192D01*
X172156759Y-116736192D01*
G37*
D15*
X171860000Y-117230000D03*
D14*
G36*
X172156759Y-115766192D02*
X172180785Y-115769756D01*
X172204345Y-115775657D01*
X172227214Y-115783840D01*
X172249171Y-115794224D01*
X172270004Y-115806711D01*
X172289512Y-115821180D01*
X172307509Y-115837491D01*
X172323820Y-115855488D01*
X172338289Y-115874996D01*
X172350776Y-115895829D01*
X172361160Y-115917786D01*
X172369343Y-115940655D01*
X172375244Y-115964215D01*
X172378808Y-115988241D01*
X172380000Y-116012500D01*
X172380000Y-116507500D01*
X172378808Y-116531759D01*
X172375244Y-116555785D01*
X172369343Y-116579345D01*
X172361160Y-116602214D01*
X172350776Y-116624171D01*
X172338289Y-116645004D01*
X172323820Y-116664512D01*
X172307509Y-116682509D01*
X172289512Y-116698820D01*
X172270004Y-116713289D01*
X172249171Y-116725776D01*
X172227214Y-116736160D01*
X172204345Y-116744343D01*
X172180785Y-116750244D01*
X172156759Y-116753808D01*
X172132500Y-116755000D01*
X171587500Y-116755000D01*
X171563241Y-116753808D01*
X171539215Y-116750244D01*
X171515655Y-116744343D01*
X171492786Y-116736160D01*
X171470829Y-116725776D01*
X171449996Y-116713289D01*
X171430488Y-116698820D01*
X171412491Y-116682509D01*
X171396180Y-116664512D01*
X171381711Y-116645004D01*
X171369224Y-116624171D01*
X171358840Y-116602214D01*
X171350657Y-116579345D01*
X171344756Y-116555785D01*
X171341192Y-116531759D01*
X171340000Y-116507500D01*
X171340000Y-116012500D01*
X171341192Y-115988241D01*
X171344756Y-115964215D01*
X171350657Y-115940655D01*
X171358840Y-115917786D01*
X171369224Y-115895829D01*
X171381711Y-115874996D01*
X171396180Y-115855488D01*
X171412491Y-115837491D01*
X171430488Y-115821180D01*
X171449996Y-115806711D01*
X171470829Y-115794224D01*
X171492786Y-115783840D01*
X171515655Y-115775657D01*
X171539215Y-115769756D01*
X171563241Y-115766192D01*
X171587500Y-115765000D01*
X172132500Y-115765000D01*
X172156759Y-115766192D01*
X172156759Y-115766192D01*
G37*
D15*
X171860000Y-116260000D03*
G04 #@! TD*
D22*
G04 #@! TO.C,U1*
X170010000Y-128250000D03*
X170010000Y-129200000D03*
X170010000Y-130150000D03*
X172690000Y-130150000D03*
X172690000Y-129200000D03*
X172690000Y-128250000D03*
D23*
X171775000Y-129850000D03*
X171775000Y-128550000D03*
X170925000Y-129850000D03*
X170925000Y-128550000D03*
G04 #@! TD*
D24*
G04 #@! TO.C,U2*
X128250000Y-128065000D03*
X130350000Y-128065000D03*
X130350000Y-126415000D03*
X128250000Y-126415000D03*
G04 #@! TD*
D25*
G04 #@! TO.C,U3*
X132440000Y-120690000D03*
X133240000Y-120690000D03*
X134040000Y-120690000D03*
X134840000Y-120690000D03*
X135640000Y-120690000D03*
X136440000Y-120690000D03*
X137240000Y-120690000D03*
X138040000Y-120690000D03*
X138840000Y-120690000D03*
X139640000Y-120690000D03*
X140440000Y-120690000D03*
X141240000Y-120690000D03*
X142040000Y-120690000D03*
X132440000Y-121490000D03*
X133240000Y-121490000D03*
X134040000Y-121490000D03*
X134840000Y-121490000D03*
X135640000Y-121490000D03*
X136440000Y-121490000D03*
X137240000Y-121490000D03*
X138040000Y-121490000D03*
X138840000Y-121490000D03*
X139640000Y-121490000D03*
X140440000Y-121490000D03*
X141240000Y-121490000D03*
X142040000Y-121490000D03*
X132440000Y-122290000D03*
X133240000Y-122290000D03*
X134040000Y-122290000D03*
X134840000Y-122290000D03*
X135640000Y-122290000D03*
X136440000Y-122290000D03*
X137240000Y-122290000D03*
X138040000Y-122290000D03*
X138840000Y-122290000D03*
X139640000Y-122290000D03*
X140440000Y-122290000D03*
X141240000Y-122290000D03*
X142040000Y-122290000D03*
X132440000Y-123090000D03*
X133240000Y-123090000D03*
X134040000Y-123090000D03*
X134840000Y-123090000D03*
X135640000Y-123090000D03*
X136440000Y-123090000D03*
X137240000Y-123090000D03*
X138040000Y-123090000D03*
X138840000Y-123090000D03*
X139640000Y-123090000D03*
X140440000Y-123090000D03*
X141240000Y-123090000D03*
X142040000Y-123090000D03*
X132440000Y-123890000D03*
X133240000Y-123890000D03*
X134040000Y-123890000D03*
X134840000Y-123890000D03*
X135640000Y-123890000D03*
X136440000Y-123890000D03*
X137240000Y-123890000D03*
X138040000Y-123890000D03*
X138840000Y-123890000D03*
X139640000Y-123890000D03*
X140440000Y-123890000D03*
X141240000Y-123890000D03*
X142040000Y-123890000D03*
X132440000Y-124690000D03*
X133240000Y-124690000D03*
X134040000Y-124690000D03*
X134840000Y-124690000D03*
X135640000Y-124690000D03*
X136440000Y-124690000D03*
X137240000Y-124690000D03*
X138040000Y-124690000D03*
X138840000Y-124690000D03*
X139640000Y-124690000D03*
X140440000Y-124690000D03*
X141240000Y-124690000D03*
X142040000Y-124690000D03*
X132440000Y-125490000D03*
X133240000Y-125490000D03*
X134040000Y-125490000D03*
X134840000Y-125490000D03*
X135640000Y-125490000D03*
X136440000Y-125490000D03*
X137240000Y-125490000D03*
X138040000Y-125490000D03*
X138840000Y-125490000D03*
X139640000Y-125490000D03*
X140440000Y-125490000D03*
X141240000Y-125490000D03*
X142040000Y-125490000D03*
X132440000Y-126290000D03*
X133240000Y-126290000D03*
X134040000Y-126290000D03*
X134840000Y-126290000D03*
X135640000Y-126290000D03*
X136440000Y-126290000D03*
X137240000Y-126290000D03*
X138040000Y-126290000D03*
X138840000Y-126290000D03*
X139640000Y-126290000D03*
X140440000Y-126290000D03*
X141240000Y-126290000D03*
X142040000Y-126290000D03*
X132440000Y-127090000D03*
X133240000Y-127090000D03*
X134040000Y-127090000D03*
X134840000Y-127090000D03*
X135640000Y-127090000D03*
X136440000Y-127090000D03*
X137240000Y-127090000D03*
X138040000Y-127090000D03*
X138840000Y-127090000D03*
X139640000Y-127090000D03*
X140440000Y-127090000D03*
X141240000Y-127090000D03*
X142040000Y-127090000D03*
X132440000Y-127890000D03*
X133240000Y-127890000D03*
X134040000Y-127890000D03*
X134840000Y-127890000D03*
X135640000Y-127890000D03*
X136440000Y-127890000D03*
X137240000Y-127890000D03*
X138040000Y-127890000D03*
X138840000Y-127890000D03*
X139640000Y-127890000D03*
X140440000Y-127890000D03*
X141240000Y-127890000D03*
X142040000Y-127890000D03*
X132440000Y-128690000D03*
X133240000Y-128690000D03*
X134040000Y-128690000D03*
X134840000Y-128690000D03*
X135640000Y-128690000D03*
X136440000Y-128690000D03*
X137240000Y-128690000D03*
X138040000Y-128690000D03*
X138840000Y-128690000D03*
X139640000Y-128690000D03*
X140440000Y-128690000D03*
X141240000Y-128690000D03*
X142040000Y-128690000D03*
X132440000Y-129490000D03*
X133240000Y-129490000D03*
X134040000Y-129490000D03*
X134840000Y-129490000D03*
X135640000Y-129490000D03*
X136440000Y-129490000D03*
X137240000Y-129490000D03*
X138040000Y-129490000D03*
X138840000Y-129490000D03*
X139640000Y-129490000D03*
X140440000Y-129490000D03*
X141240000Y-129490000D03*
X142040000Y-129490000D03*
X132440000Y-130290000D03*
X133240000Y-130290000D03*
X134040000Y-130290000D03*
X134840000Y-130290000D03*
X135640000Y-130290000D03*
X136440000Y-130290000D03*
X137240000Y-130290000D03*
X138040000Y-130290000D03*
X138840000Y-130290000D03*
X139640000Y-130290000D03*
X140440000Y-130290000D03*
X141240000Y-130290000D03*
X142040000Y-130290000D03*
G04 #@! TD*
D26*
G04 #@! TO.C,U5*
X169035000Y-120500000D03*
X169035000Y-121000000D03*
X169035000Y-121500000D03*
X169035000Y-122000000D03*
X169035000Y-122500000D03*
D27*
X170000000Y-123465000D03*
X170500000Y-123465000D03*
X171000000Y-123465000D03*
X171500000Y-123465000D03*
X172000000Y-123465000D03*
D26*
X172965000Y-122500000D03*
X172965000Y-122000000D03*
X172965000Y-121500000D03*
X172965000Y-121000000D03*
X172965000Y-120500000D03*
D27*
X172000000Y-119535000D03*
X171500000Y-119535000D03*
X171000000Y-119535000D03*
X170500000Y-119535000D03*
X170000000Y-119535000D03*
D28*
X171625000Y-122125000D03*
X171625000Y-120875000D03*
X170375000Y-122125000D03*
X170375000Y-120875000D03*
G04 #@! TD*
D12*
G04 #@! TO.C,J1*
X152510000Y-114250000D03*
D13*
X152510000Y-111710000D03*
X149970000Y-114250000D03*
X149970000Y-111710000D03*
X147430000Y-114250000D03*
X147430000Y-111710000D03*
X144890000Y-114250000D03*
X144890000Y-111710000D03*
X142350000Y-114250000D03*
X142350000Y-111710000D03*
X139810000Y-114250000D03*
X139810000Y-111710000D03*
X137270000Y-114250000D03*
X137270000Y-111710000D03*
X134730000Y-114250000D03*
X134730000Y-111710000D03*
X132190000Y-114250000D03*
X132190000Y-111710000D03*
X129650000Y-114250000D03*
X129650000Y-111710000D03*
X127110000Y-114250000D03*
X127110000Y-111710000D03*
X124570000Y-114250000D03*
X124570000Y-111710000D03*
X122030000Y-114250000D03*
X122030000Y-111710000D03*
X119490000Y-114250000D03*
X119490000Y-111710000D03*
X116950000Y-114250000D03*
X116950000Y-111710000D03*
X114410000Y-114250000D03*
X114410000Y-111710000D03*
G04 #@! TD*
G04 #@! TO.C,J2*
X114400000Y-137210000D03*
X114400000Y-139750000D03*
X116940000Y-137210000D03*
X116940000Y-139750000D03*
X119480000Y-137210000D03*
X119480000Y-139750000D03*
X122020000Y-137210000D03*
X122020000Y-139750000D03*
X124560000Y-137210000D03*
X124560000Y-139750000D03*
X127100000Y-137210000D03*
X127100000Y-139750000D03*
X129640000Y-137210000D03*
X129640000Y-139750000D03*
X132180000Y-137210000D03*
X132180000Y-139750000D03*
X134720000Y-137210000D03*
X134720000Y-139750000D03*
X137260000Y-137210000D03*
X137260000Y-139750000D03*
X139800000Y-137210000D03*
X139800000Y-139750000D03*
X142340000Y-137210000D03*
X142340000Y-139750000D03*
X144880000Y-137210000D03*
X144880000Y-139750000D03*
X147420000Y-137210000D03*
X147420000Y-139750000D03*
X149960000Y-137210000D03*
X149960000Y-139750000D03*
X152500000Y-137210000D03*
D12*
X152500000Y-139750000D03*
G04 #@! TD*
G04 #@! TO.C,J3*
X194750000Y-139760000D03*
D13*
X194750000Y-137220000D03*
X192210000Y-139760000D03*
X192210000Y-137220000D03*
X189670000Y-139760000D03*
X189670000Y-137220000D03*
X187130000Y-139760000D03*
X187130000Y-137220000D03*
X184590000Y-139760000D03*
X184590000Y-137220000D03*
X182050000Y-139760000D03*
X182050000Y-137220000D03*
X179510000Y-139760000D03*
X179510000Y-137220000D03*
X176970000Y-139760000D03*
X176970000Y-137220000D03*
X174430000Y-139760000D03*
X174430000Y-137220000D03*
X171890000Y-139760000D03*
X171890000Y-137220000D03*
X169350000Y-139760000D03*
X169350000Y-137220000D03*
X166810000Y-139760000D03*
X166810000Y-137220000D03*
X164270000Y-139760000D03*
X164270000Y-137220000D03*
X161730000Y-139760000D03*
X161730000Y-137220000D03*
X159190000Y-139760000D03*
X159190000Y-137220000D03*
X156650000Y-139760000D03*
X156650000Y-137220000D03*
G04 #@! TD*
D14*
G04 #@! TO.C,R16*
G36*
X158996759Y-116321192D02*
X159020785Y-116324756D01*
X159044345Y-116330657D01*
X159067214Y-116338840D01*
X159089171Y-116349224D01*
X159110004Y-116361711D01*
X159129512Y-116376180D01*
X159147509Y-116392491D01*
X159163820Y-116410488D01*
X159178289Y-116429996D01*
X159190776Y-116450829D01*
X159201160Y-116472786D01*
X159209343Y-116495655D01*
X159215244Y-116519215D01*
X159218808Y-116543241D01*
X159220000Y-116567500D01*
X159220000Y-117062500D01*
X159218808Y-117086759D01*
X159215244Y-117110785D01*
X159209343Y-117134345D01*
X159201160Y-117157214D01*
X159190776Y-117179171D01*
X159178289Y-117200004D01*
X159163820Y-117219512D01*
X159147509Y-117237509D01*
X159129512Y-117253820D01*
X159110004Y-117268289D01*
X159089171Y-117280776D01*
X159067214Y-117291160D01*
X159044345Y-117299343D01*
X159020785Y-117305244D01*
X158996759Y-117308808D01*
X158972500Y-117310000D01*
X158427500Y-117310000D01*
X158403241Y-117308808D01*
X158379215Y-117305244D01*
X158355655Y-117299343D01*
X158332786Y-117291160D01*
X158310829Y-117280776D01*
X158289996Y-117268289D01*
X158270488Y-117253820D01*
X158252491Y-117237509D01*
X158236180Y-117219512D01*
X158221711Y-117200004D01*
X158209224Y-117179171D01*
X158198840Y-117157214D01*
X158190657Y-117134345D01*
X158184756Y-117110785D01*
X158181192Y-117086759D01*
X158180000Y-117062500D01*
X158180000Y-116567500D01*
X158181192Y-116543241D01*
X158184756Y-116519215D01*
X158190657Y-116495655D01*
X158198840Y-116472786D01*
X158209224Y-116450829D01*
X158221711Y-116429996D01*
X158236180Y-116410488D01*
X158252491Y-116392491D01*
X158270488Y-116376180D01*
X158289996Y-116361711D01*
X158310829Y-116349224D01*
X158332786Y-116338840D01*
X158355655Y-116330657D01*
X158379215Y-116324756D01*
X158403241Y-116321192D01*
X158427500Y-116320000D01*
X158972500Y-116320000D01*
X158996759Y-116321192D01*
X158996759Y-116321192D01*
G37*
D15*
X158700000Y-116815000D03*
D14*
G36*
X158996759Y-117291192D02*
X159020785Y-117294756D01*
X159044345Y-117300657D01*
X159067214Y-117308840D01*
X159089171Y-117319224D01*
X159110004Y-117331711D01*
X159129512Y-117346180D01*
X159147509Y-117362491D01*
X159163820Y-117380488D01*
X159178289Y-117399996D01*
X159190776Y-117420829D01*
X159201160Y-117442786D01*
X159209343Y-117465655D01*
X159215244Y-117489215D01*
X159218808Y-117513241D01*
X159220000Y-117537500D01*
X159220000Y-118032500D01*
X159218808Y-118056759D01*
X159215244Y-118080785D01*
X159209343Y-118104345D01*
X159201160Y-118127214D01*
X159190776Y-118149171D01*
X159178289Y-118170004D01*
X159163820Y-118189512D01*
X159147509Y-118207509D01*
X159129512Y-118223820D01*
X159110004Y-118238289D01*
X159089171Y-118250776D01*
X159067214Y-118261160D01*
X159044345Y-118269343D01*
X159020785Y-118275244D01*
X158996759Y-118278808D01*
X158972500Y-118280000D01*
X158427500Y-118280000D01*
X158403241Y-118278808D01*
X158379215Y-118275244D01*
X158355655Y-118269343D01*
X158332786Y-118261160D01*
X158310829Y-118250776D01*
X158289996Y-118238289D01*
X158270488Y-118223820D01*
X158252491Y-118207509D01*
X158236180Y-118189512D01*
X158221711Y-118170004D01*
X158209224Y-118149171D01*
X158198840Y-118127214D01*
X158190657Y-118104345D01*
X158184756Y-118080785D01*
X158181192Y-118056759D01*
X158180000Y-118032500D01*
X158180000Y-117537500D01*
X158181192Y-117513241D01*
X158184756Y-117489215D01*
X158190657Y-117465655D01*
X158198840Y-117442786D01*
X158209224Y-117420829D01*
X158221711Y-117399996D01*
X158236180Y-117380488D01*
X158252491Y-117362491D01*
X158270488Y-117346180D01*
X158289996Y-117331711D01*
X158310829Y-117319224D01*
X158332786Y-117308840D01*
X158355655Y-117300657D01*
X158379215Y-117294756D01*
X158403241Y-117291192D01*
X158427500Y-117290000D01*
X158972500Y-117290000D01*
X158996759Y-117291192D01*
X158996759Y-117291192D01*
G37*
D15*
X158700000Y-117785000D03*
G04 #@! TD*
D14*
G04 #@! TO.C,R17*
G36*
X160196759Y-117291192D02*
X160220785Y-117294756D01*
X160244345Y-117300657D01*
X160267214Y-117308840D01*
X160289171Y-117319224D01*
X160310004Y-117331711D01*
X160329512Y-117346180D01*
X160347509Y-117362491D01*
X160363820Y-117380488D01*
X160378289Y-117399996D01*
X160390776Y-117420829D01*
X160401160Y-117442786D01*
X160409343Y-117465655D01*
X160415244Y-117489215D01*
X160418808Y-117513241D01*
X160420000Y-117537500D01*
X160420000Y-118032500D01*
X160418808Y-118056759D01*
X160415244Y-118080785D01*
X160409343Y-118104345D01*
X160401160Y-118127214D01*
X160390776Y-118149171D01*
X160378289Y-118170004D01*
X160363820Y-118189512D01*
X160347509Y-118207509D01*
X160329512Y-118223820D01*
X160310004Y-118238289D01*
X160289171Y-118250776D01*
X160267214Y-118261160D01*
X160244345Y-118269343D01*
X160220785Y-118275244D01*
X160196759Y-118278808D01*
X160172500Y-118280000D01*
X159627500Y-118280000D01*
X159603241Y-118278808D01*
X159579215Y-118275244D01*
X159555655Y-118269343D01*
X159532786Y-118261160D01*
X159510829Y-118250776D01*
X159489996Y-118238289D01*
X159470488Y-118223820D01*
X159452491Y-118207509D01*
X159436180Y-118189512D01*
X159421711Y-118170004D01*
X159409224Y-118149171D01*
X159398840Y-118127214D01*
X159390657Y-118104345D01*
X159384756Y-118080785D01*
X159381192Y-118056759D01*
X159380000Y-118032500D01*
X159380000Y-117537500D01*
X159381192Y-117513241D01*
X159384756Y-117489215D01*
X159390657Y-117465655D01*
X159398840Y-117442786D01*
X159409224Y-117420829D01*
X159421711Y-117399996D01*
X159436180Y-117380488D01*
X159452491Y-117362491D01*
X159470488Y-117346180D01*
X159489996Y-117331711D01*
X159510829Y-117319224D01*
X159532786Y-117308840D01*
X159555655Y-117300657D01*
X159579215Y-117294756D01*
X159603241Y-117291192D01*
X159627500Y-117290000D01*
X160172500Y-117290000D01*
X160196759Y-117291192D01*
X160196759Y-117291192D01*
G37*
D15*
X159900000Y-117785000D03*
D14*
G36*
X160196759Y-116321192D02*
X160220785Y-116324756D01*
X160244345Y-116330657D01*
X160267214Y-116338840D01*
X160289171Y-116349224D01*
X160310004Y-116361711D01*
X160329512Y-116376180D01*
X160347509Y-116392491D01*
X160363820Y-116410488D01*
X160378289Y-116429996D01*
X160390776Y-116450829D01*
X160401160Y-116472786D01*
X160409343Y-116495655D01*
X160415244Y-116519215D01*
X160418808Y-116543241D01*
X160420000Y-116567500D01*
X160420000Y-117062500D01*
X160418808Y-117086759D01*
X160415244Y-117110785D01*
X160409343Y-117134345D01*
X160401160Y-117157214D01*
X160390776Y-117179171D01*
X160378289Y-117200004D01*
X160363820Y-117219512D01*
X160347509Y-117237509D01*
X160329512Y-117253820D01*
X160310004Y-117268289D01*
X160289171Y-117280776D01*
X160267214Y-117291160D01*
X160244345Y-117299343D01*
X160220785Y-117305244D01*
X160196759Y-117308808D01*
X160172500Y-117310000D01*
X159627500Y-117310000D01*
X159603241Y-117308808D01*
X159579215Y-117305244D01*
X159555655Y-117299343D01*
X159532786Y-117291160D01*
X159510829Y-117280776D01*
X159489996Y-117268289D01*
X159470488Y-117253820D01*
X159452491Y-117237509D01*
X159436180Y-117219512D01*
X159421711Y-117200004D01*
X159409224Y-117179171D01*
X159398840Y-117157214D01*
X159390657Y-117134345D01*
X159384756Y-117110785D01*
X159381192Y-117086759D01*
X159380000Y-117062500D01*
X159380000Y-116567500D01*
X159381192Y-116543241D01*
X159384756Y-116519215D01*
X159390657Y-116495655D01*
X159398840Y-116472786D01*
X159409224Y-116450829D01*
X159421711Y-116429996D01*
X159436180Y-116410488D01*
X159452491Y-116392491D01*
X159470488Y-116376180D01*
X159489996Y-116361711D01*
X159510829Y-116349224D01*
X159532786Y-116338840D01*
X159555655Y-116330657D01*
X159579215Y-116324756D01*
X159603241Y-116321192D01*
X159627500Y-116320000D01*
X160172500Y-116320000D01*
X160196759Y-116321192D01*
X160196759Y-116321192D01*
G37*
D15*
X159900000Y-116815000D03*
G04 #@! TD*
D29*
G04 #@! TO.C,U4*
X193990000Y-118250000D03*
X191990000Y-118250000D03*
X189990000Y-118250000D03*
X187990000Y-118250000D03*
X185990000Y-118250000D03*
X183990000Y-118250000D03*
X181990000Y-118250000D03*
X179990000Y-118250000D03*
X179990000Y-133650000D03*
X181990000Y-133650000D03*
X183990000Y-133650000D03*
X185990000Y-133650000D03*
X187990000Y-133650000D03*
X189990000Y-133650000D03*
X191990000Y-133650000D03*
X193990000Y-133650000D03*
D30*
X178290000Y-120940000D03*
X178290000Y-122940000D03*
X178290000Y-124940000D03*
X178290000Y-126940000D03*
X178290000Y-128940000D03*
X178290000Y-130940000D03*
G04 #@! TD*
D14*
G04 #@! TO.C,R18*
G36*
X175699259Y-127090792D02*
X175723285Y-127094356D01*
X175746845Y-127100257D01*
X175769714Y-127108440D01*
X175791671Y-127118824D01*
X175812504Y-127131311D01*
X175832012Y-127145780D01*
X175850009Y-127162091D01*
X175866320Y-127180088D01*
X175880789Y-127199596D01*
X175893276Y-127220429D01*
X175903660Y-127242386D01*
X175911843Y-127265255D01*
X175917744Y-127288815D01*
X175921308Y-127312841D01*
X175922500Y-127337100D01*
X175922500Y-127882100D01*
X175921308Y-127906359D01*
X175917744Y-127930385D01*
X175911843Y-127953945D01*
X175903660Y-127976814D01*
X175893276Y-127998771D01*
X175880789Y-128019604D01*
X175866320Y-128039112D01*
X175850009Y-128057109D01*
X175832012Y-128073420D01*
X175812504Y-128087889D01*
X175791671Y-128100376D01*
X175769714Y-128110760D01*
X175746845Y-128118943D01*
X175723285Y-128124844D01*
X175699259Y-128128408D01*
X175675000Y-128129600D01*
X175180000Y-128129600D01*
X175155741Y-128128408D01*
X175131715Y-128124844D01*
X175108155Y-128118943D01*
X175085286Y-128110760D01*
X175063329Y-128100376D01*
X175042496Y-128087889D01*
X175022988Y-128073420D01*
X175004991Y-128057109D01*
X174988680Y-128039112D01*
X174974211Y-128019604D01*
X174961724Y-127998771D01*
X174951340Y-127976814D01*
X174943157Y-127953945D01*
X174937256Y-127930385D01*
X174933692Y-127906359D01*
X174932500Y-127882100D01*
X174932500Y-127337100D01*
X174933692Y-127312841D01*
X174937256Y-127288815D01*
X174943157Y-127265255D01*
X174951340Y-127242386D01*
X174961724Y-127220429D01*
X174974211Y-127199596D01*
X174988680Y-127180088D01*
X175004991Y-127162091D01*
X175022988Y-127145780D01*
X175042496Y-127131311D01*
X175063329Y-127118824D01*
X175085286Y-127108440D01*
X175108155Y-127100257D01*
X175131715Y-127094356D01*
X175155741Y-127090792D01*
X175180000Y-127089600D01*
X175675000Y-127089600D01*
X175699259Y-127090792D01*
X175699259Y-127090792D01*
G37*
D15*
X175427500Y-127609600D03*
D14*
G36*
X174729259Y-127090792D02*
X174753285Y-127094356D01*
X174776845Y-127100257D01*
X174799714Y-127108440D01*
X174821671Y-127118824D01*
X174842504Y-127131311D01*
X174862012Y-127145780D01*
X174880009Y-127162091D01*
X174896320Y-127180088D01*
X174910789Y-127199596D01*
X174923276Y-127220429D01*
X174933660Y-127242386D01*
X174941843Y-127265255D01*
X174947744Y-127288815D01*
X174951308Y-127312841D01*
X174952500Y-127337100D01*
X174952500Y-127882100D01*
X174951308Y-127906359D01*
X174947744Y-127930385D01*
X174941843Y-127953945D01*
X174933660Y-127976814D01*
X174923276Y-127998771D01*
X174910789Y-128019604D01*
X174896320Y-128039112D01*
X174880009Y-128057109D01*
X174862012Y-128073420D01*
X174842504Y-128087889D01*
X174821671Y-128100376D01*
X174799714Y-128110760D01*
X174776845Y-128118943D01*
X174753285Y-128124844D01*
X174729259Y-128128408D01*
X174705000Y-128129600D01*
X174210000Y-128129600D01*
X174185741Y-128128408D01*
X174161715Y-128124844D01*
X174138155Y-128118943D01*
X174115286Y-128110760D01*
X174093329Y-128100376D01*
X174072496Y-128087889D01*
X174052988Y-128073420D01*
X174034991Y-128057109D01*
X174018680Y-128039112D01*
X174004211Y-128019604D01*
X173991724Y-127998771D01*
X173981340Y-127976814D01*
X173973157Y-127953945D01*
X173967256Y-127930385D01*
X173963692Y-127906359D01*
X173962500Y-127882100D01*
X173962500Y-127337100D01*
X173963692Y-127312841D01*
X173967256Y-127288815D01*
X173973157Y-127265255D01*
X173981340Y-127242386D01*
X173991724Y-127220429D01*
X174004211Y-127199596D01*
X174018680Y-127180088D01*
X174034991Y-127162091D01*
X174052988Y-127145780D01*
X174072496Y-127131311D01*
X174093329Y-127118824D01*
X174115286Y-127108440D01*
X174138155Y-127100257D01*
X174161715Y-127094356D01*
X174185741Y-127090792D01*
X174210000Y-127089600D01*
X174705000Y-127089600D01*
X174729259Y-127090792D01*
X174729259Y-127090792D01*
G37*
D15*
X174457500Y-127609600D03*
G04 #@! TD*
D14*
G04 #@! TO.C,R19*
G36*
X174767359Y-128475092D02*
X174791385Y-128478656D01*
X174814945Y-128484557D01*
X174837814Y-128492740D01*
X174859771Y-128503124D01*
X174880604Y-128515611D01*
X174900112Y-128530080D01*
X174918109Y-128546391D01*
X174934420Y-128564388D01*
X174948889Y-128583896D01*
X174961376Y-128604729D01*
X174971760Y-128626686D01*
X174979943Y-128649555D01*
X174985844Y-128673115D01*
X174989408Y-128697141D01*
X174990600Y-128721400D01*
X174990600Y-129266400D01*
X174989408Y-129290659D01*
X174985844Y-129314685D01*
X174979943Y-129338245D01*
X174971760Y-129361114D01*
X174961376Y-129383071D01*
X174948889Y-129403904D01*
X174934420Y-129423412D01*
X174918109Y-129441409D01*
X174900112Y-129457720D01*
X174880604Y-129472189D01*
X174859771Y-129484676D01*
X174837814Y-129495060D01*
X174814945Y-129503243D01*
X174791385Y-129509144D01*
X174767359Y-129512708D01*
X174743100Y-129513900D01*
X174248100Y-129513900D01*
X174223841Y-129512708D01*
X174199815Y-129509144D01*
X174176255Y-129503243D01*
X174153386Y-129495060D01*
X174131429Y-129484676D01*
X174110596Y-129472189D01*
X174091088Y-129457720D01*
X174073091Y-129441409D01*
X174056780Y-129423412D01*
X174042311Y-129403904D01*
X174029824Y-129383071D01*
X174019440Y-129361114D01*
X174011257Y-129338245D01*
X174005356Y-129314685D01*
X174001792Y-129290659D01*
X174000600Y-129266400D01*
X174000600Y-128721400D01*
X174001792Y-128697141D01*
X174005356Y-128673115D01*
X174011257Y-128649555D01*
X174019440Y-128626686D01*
X174029824Y-128604729D01*
X174042311Y-128583896D01*
X174056780Y-128564388D01*
X174073091Y-128546391D01*
X174091088Y-128530080D01*
X174110596Y-128515611D01*
X174131429Y-128503124D01*
X174153386Y-128492740D01*
X174176255Y-128484557D01*
X174199815Y-128478656D01*
X174223841Y-128475092D01*
X174248100Y-128473900D01*
X174743100Y-128473900D01*
X174767359Y-128475092D01*
X174767359Y-128475092D01*
G37*
D15*
X174495600Y-128993900D03*
D14*
G36*
X175737359Y-128475092D02*
X175761385Y-128478656D01*
X175784945Y-128484557D01*
X175807814Y-128492740D01*
X175829771Y-128503124D01*
X175850604Y-128515611D01*
X175870112Y-128530080D01*
X175888109Y-128546391D01*
X175904420Y-128564388D01*
X175918889Y-128583896D01*
X175931376Y-128604729D01*
X175941760Y-128626686D01*
X175949943Y-128649555D01*
X175955844Y-128673115D01*
X175959408Y-128697141D01*
X175960600Y-128721400D01*
X175960600Y-129266400D01*
X175959408Y-129290659D01*
X175955844Y-129314685D01*
X175949943Y-129338245D01*
X175941760Y-129361114D01*
X175931376Y-129383071D01*
X175918889Y-129403904D01*
X175904420Y-129423412D01*
X175888109Y-129441409D01*
X175870112Y-129457720D01*
X175850604Y-129472189D01*
X175829771Y-129484676D01*
X175807814Y-129495060D01*
X175784945Y-129503243D01*
X175761385Y-129509144D01*
X175737359Y-129512708D01*
X175713100Y-129513900D01*
X175218100Y-129513900D01*
X175193841Y-129512708D01*
X175169815Y-129509144D01*
X175146255Y-129503243D01*
X175123386Y-129495060D01*
X175101429Y-129484676D01*
X175080596Y-129472189D01*
X175061088Y-129457720D01*
X175043091Y-129441409D01*
X175026780Y-129423412D01*
X175012311Y-129403904D01*
X174999824Y-129383071D01*
X174989440Y-129361114D01*
X174981257Y-129338245D01*
X174975356Y-129314685D01*
X174971792Y-129290659D01*
X174970600Y-129266400D01*
X174970600Y-128721400D01*
X174971792Y-128697141D01*
X174975356Y-128673115D01*
X174981257Y-128649555D01*
X174989440Y-128626686D01*
X174999824Y-128604729D01*
X175012311Y-128583896D01*
X175026780Y-128564388D01*
X175043091Y-128546391D01*
X175061088Y-128530080D01*
X175080596Y-128515611D01*
X175101429Y-128503124D01*
X175123386Y-128492740D01*
X175146255Y-128484557D01*
X175169815Y-128478656D01*
X175193841Y-128475092D01*
X175218100Y-128473900D01*
X175713100Y-128473900D01*
X175737359Y-128475092D01*
X175737359Y-128475092D01*
G37*
D15*
X175465600Y-128993900D03*
G04 #@! TD*
D14*
G04 #@! TO.C,D2*
G36*
X121228493Y-128866535D02*
X121259435Y-128871125D01*
X121289778Y-128878725D01*
X121319230Y-128889263D01*
X121347508Y-128902638D01*
X121374338Y-128918719D01*
X121399463Y-128937353D01*
X121422640Y-128958360D01*
X121443647Y-128981537D01*
X121462281Y-129006662D01*
X121478362Y-129033492D01*
X121491737Y-129061770D01*
X121502275Y-129091222D01*
X121509875Y-129121565D01*
X121514465Y-129152507D01*
X121516000Y-129183750D01*
X121516000Y-129896250D01*
X121514465Y-129927493D01*
X121509875Y-129958435D01*
X121502275Y-129988778D01*
X121491737Y-130018230D01*
X121478362Y-130046508D01*
X121462281Y-130073338D01*
X121443647Y-130098463D01*
X121422640Y-130121640D01*
X121399463Y-130142647D01*
X121374338Y-130161281D01*
X121347508Y-130177362D01*
X121319230Y-130190737D01*
X121289778Y-130201275D01*
X121259435Y-130208875D01*
X121228493Y-130213465D01*
X121197250Y-130215000D01*
X120559750Y-130215000D01*
X120528507Y-130213465D01*
X120497565Y-130208875D01*
X120467222Y-130201275D01*
X120437770Y-130190737D01*
X120409492Y-130177362D01*
X120382662Y-130161281D01*
X120357537Y-130142647D01*
X120334360Y-130121640D01*
X120313353Y-130098463D01*
X120294719Y-130073338D01*
X120278638Y-130046508D01*
X120265263Y-130018230D01*
X120254725Y-129988778D01*
X120247125Y-129958435D01*
X120242535Y-129927493D01*
X120241000Y-129896250D01*
X120241000Y-129183750D01*
X120242535Y-129152507D01*
X120247125Y-129121565D01*
X120254725Y-129091222D01*
X120265263Y-129061770D01*
X120278638Y-129033492D01*
X120294719Y-129006662D01*
X120313353Y-128981537D01*
X120334360Y-128958360D01*
X120357537Y-128937353D01*
X120382662Y-128918719D01*
X120409492Y-128902638D01*
X120437770Y-128889263D01*
X120467222Y-128878725D01*
X120497565Y-128871125D01*
X120528507Y-128866535D01*
X120559750Y-128865000D01*
X121197250Y-128865000D01*
X121228493Y-128866535D01*
X121228493Y-128866535D01*
G37*
D31*
X120878500Y-129540000D03*
D14*
G36*
X122803493Y-128866535D02*
X122834435Y-128871125D01*
X122864778Y-128878725D01*
X122894230Y-128889263D01*
X122922508Y-128902638D01*
X122949338Y-128918719D01*
X122974463Y-128937353D01*
X122997640Y-128958360D01*
X123018647Y-128981537D01*
X123037281Y-129006662D01*
X123053362Y-129033492D01*
X123066737Y-129061770D01*
X123077275Y-129091222D01*
X123084875Y-129121565D01*
X123089465Y-129152507D01*
X123091000Y-129183750D01*
X123091000Y-129896250D01*
X123089465Y-129927493D01*
X123084875Y-129958435D01*
X123077275Y-129988778D01*
X123066737Y-130018230D01*
X123053362Y-130046508D01*
X123037281Y-130073338D01*
X123018647Y-130098463D01*
X122997640Y-130121640D01*
X122974463Y-130142647D01*
X122949338Y-130161281D01*
X122922508Y-130177362D01*
X122894230Y-130190737D01*
X122864778Y-130201275D01*
X122834435Y-130208875D01*
X122803493Y-130213465D01*
X122772250Y-130215000D01*
X122134750Y-130215000D01*
X122103507Y-130213465D01*
X122072565Y-130208875D01*
X122042222Y-130201275D01*
X122012770Y-130190737D01*
X121984492Y-130177362D01*
X121957662Y-130161281D01*
X121932537Y-130142647D01*
X121909360Y-130121640D01*
X121888353Y-130098463D01*
X121869719Y-130073338D01*
X121853638Y-130046508D01*
X121840263Y-130018230D01*
X121829725Y-129988778D01*
X121822125Y-129958435D01*
X121817535Y-129927493D01*
X121816000Y-129896250D01*
X121816000Y-129183750D01*
X121817535Y-129152507D01*
X121822125Y-129121565D01*
X121829725Y-129091222D01*
X121840263Y-129061770D01*
X121853638Y-129033492D01*
X121869719Y-129006662D01*
X121888353Y-128981537D01*
X121909360Y-128958360D01*
X121932537Y-128937353D01*
X121957662Y-128918719D01*
X121984492Y-128902638D01*
X122012770Y-128889263D01*
X122042222Y-128878725D01*
X122072565Y-128871125D01*
X122103507Y-128866535D01*
X122134750Y-128865000D01*
X122772250Y-128865000D01*
X122803493Y-128866535D01*
X122803493Y-128866535D01*
G37*
D31*
X122453500Y-129540000D03*
G04 #@! TD*
D14*
G04 #@! TO.C,D4*
G36*
X165170493Y-123532535D02*
X165201435Y-123537125D01*
X165231778Y-123544725D01*
X165261230Y-123555263D01*
X165289508Y-123568638D01*
X165316338Y-123584719D01*
X165341463Y-123603353D01*
X165364640Y-123624360D01*
X165385647Y-123647537D01*
X165404281Y-123672662D01*
X165420362Y-123699492D01*
X165433737Y-123727770D01*
X165444275Y-123757222D01*
X165451875Y-123787565D01*
X165456465Y-123818507D01*
X165458000Y-123849750D01*
X165458000Y-124562250D01*
X165456465Y-124593493D01*
X165451875Y-124624435D01*
X165444275Y-124654778D01*
X165433737Y-124684230D01*
X165420362Y-124712508D01*
X165404281Y-124739338D01*
X165385647Y-124764463D01*
X165364640Y-124787640D01*
X165341463Y-124808647D01*
X165316338Y-124827281D01*
X165289508Y-124843362D01*
X165261230Y-124856737D01*
X165231778Y-124867275D01*
X165201435Y-124874875D01*
X165170493Y-124879465D01*
X165139250Y-124881000D01*
X164501750Y-124881000D01*
X164470507Y-124879465D01*
X164439565Y-124874875D01*
X164409222Y-124867275D01*
X164379770Y-124856737D01*
X164351492Y-124843362D01*
X164324662Y-124827281D01*
X164299537Y-124808647D01*
X164276360Y-124787640D01*
X164255353Y-124764463D01*
X164236719Y-124739338D01*
X164220638Y-124712508D01*
X164207263Y-124684230D01*
X164196725Y-124654778D01*
X164189125Y-124624435D01*
X164184535Y-124593493D01*
X164183000Y-124562250D01*
X164183000Y-123849750D01*
X164184535Y-123818507D01*
X164189125Y-123787565D01*
X164196725Y-123757222D01*
X164207263Y-123727770D01*
X164220638Y-123699492D01*
X164236719Y-123672662D01*
X164255353Y-123647537D01*
X164276360Y-123624360D01*
X164299537Y-123603353D01*
X164324662Y-123584719D01*
X164351492Y-123568638D01*
X164379770Y-123555263D01*
X164409222Y-123544725D01*
X164439565Y-123537125D01*
X164470507Y-123532535D01*
X164501750Y-123531000D01*
X165139250Y-123531000D01*
X165170493Y-123532535D01*
X165170493Y-123532535D01*
G37*
D31*
X164820500Y-124206000D03*
D14*
G36*
X166745493Y-123532535D02*
X166776435Y-123537125D01*
X166806778Y-123544725D01*
X166836230Y-123555263D01*
X166864508Y-123568638D01*
X166891338Y-123584719D01*
X166916463Y-123603353D01*
X166939640Y-123624360D01*
X166960647Y-123647537D01*
X166979281Y-123672662D01*
X166995362Y-123699492D01*
X167008737Y-123727770D01*
X167019275Y-123757222D01*
X167026875Y-123787565D01*
X167031465Y-123818507D01*
X167033000Y-123849750D01*
X167033000Y-124562250D01*
X167031465Y-124593493D01*
X167026875Y-124624435D01*
X167019275Y-124654778D01*
X167008737Y-124684230D01*
X166995362Y-124712508D01*
X166979281Y-124739338D01*
X166960647Y-124764463D01*
X166939640Y-124787640D01*
X166916463Y-124808647D01*
X166891338Y-124827281D01*
X166864508Y-124843362D01*
X166836230Y-124856737D01*
X166806778Y-124867275D01*
X166776435Y-124874875D01*
X166745493Y-124879465D01*
X166714250Y-124881000D01*
X166076750Y-124881000D01*
X166045507Y-124879465D01*
X166014565Y-124874875D01*
X165984222Y-124867275D01*
X165954770Y-124856737D01*
X165926492Y-124843362D01*
X165899662Y-124827281D01*
X165874537Y-124808647D01*
X165851360Y-124787640D01*
X165830353Y-124764463D01*
X165811719Y-124739338D01*
X165795638Y-124712508D01*
X165782263Y-124684230D01*
X165771725Y-124654778D01*
X165764125Y-124624435D01*
X165759535Y-124593493D01*
X165758000Y-124562250D01*
X165758000Y-123849750D01*
X165759535Y-123818507D01*
X165764125Y-123787565D01*
X165771725Y-123757222D01*
X165782263Y-123727770D01*
X165795638Y-123699492D01*
X165811719Y-123672662D01*
X165830353Y-123647537D01*
X165851360Y-123624360D01*
X165874537Y-123603353D01*
X165899662Y-123584719D01*
X165926492Y-123568638D01*
X165954770Y-123555263D01*
X165984222Y-123544725D01*
X166014565Y-123537125D01*
X166045507Y-123532535D01*
X166076750Y-123531000D01*
X166714250Y-123531000D01*
X166745493Y-123532535D01*
X166745493Y-123532535D01*
G37*
D31*
X166395500Y-124206000D03*
G04 #@! TD*
D14*
G04 #@! TO.C,D5*
G36*
X166745493Y-121754535D02*
X166776435Y-121759125D01*
X166806778Y-121766725D01*
X166836230Y-121777263D01*
X166864508Y-121790638D01*
X166891338Y-121806719D01*
X166916463Y-121825353D01*
X166939640Y-121846360D01*
X166960647Y-121869537D01*
X166979281Y-121894662D01*
X166995362Y-121921492D01*
X167008737Y-121949770D01*
X167019275Y-121979222D01*
X167026875Y-122009565D01*
X167031465Y-122040507D01*
X167033000Y-122071750D01*
X167033000Y-122784250D01*
X167031465Y-122815493D01*
X167026875Y-122846435D01*
X167019275Y-122876778D01*
X167008737Y-122906230D01*
X166995362Y-122934508D01*
X166979281Y-122961338D01*
X166960647Y-122986463D01*
X166939640Y-123009640D01*
X166916463Y-123030647D01*
X166891338Y-123049281D01*
X166864508Y-123065362D01*
X166836230Y-123078737D01*
X166806778Y-123089275D01*
X166776435Y-123096875D01*
X166745493Y-123101465D01*
X166714250Y-123103000D01*
X166076750Y-123103000D01*
X166045507Y-123101465D01*
X166014565Y-123096875D01*
X165984222Y-123089275D01*
X165954770Y-123078737D01*
X165926492Y-123065362D01*
X165899662Y-123049281D01*
X165874537Y-123030647D01*
X165851360Y-123009640D01*
X165830353Y-122986463D01*
X165811719Y-122961338D01*
X165795638Y-122934508D01*
X165782263Y-122906230D01*
X165771725Y-122876778D01*
X165764125Y-122846435D01*
X165759535Y-122815493D01*
X165758000Y-122784250D01*
X165758000Y-122071750D01*
X165759535Y-122040507D01*
X165764125Y-122009565D01*
X165771725Y-121979222D01*
X165782263Y-121949770D01*
X165795638Y-121921492D01*
X165811719Y-121894662D01*
X165830353Y-121869537D01*
X165851360Y-121846360D01*
X165874537Y-121825353D01*
X165899662Y-121806719D01*
X165926492Y-121790638D01*
X165954770Y-121777263D01*
X165984222Y-121766725D01*
X166014565Y-121759125D01*
X166045507Y-121754535D01*
X166076750Y-121753000D01*
X166714250Y-121753000D01*
X166745493Y-121754535D01*
X166745493Y-121754535D01*
G37*
D31*
X166395500Y-122428000D03*
D14*
G36*
X165170493Y-121754535D02*
X165201435Y-121759125D01*
X165231778Y-121766725D01*
X165261230Y-121777263D01*
X165289508Y-121790638D01*
X165316338Y-121806719D01*
X165341463Y-121825353D01*
X165364640Y-121846360D01*
X165385647Y-121869537D01*
X165404281Y-121894662D01*
X165420362Y-121921492D01*
X165433737Y-121949770D01*
X165444275Y-121979222D01*
X165451875Y-122009565D01*
X165456465Y-122040507D01*
X165458000Y-122071750D01*
X165458000Y-122784250D01*
X165456465Y-122815493D01*
X165451875Y-122846435D01*
X165444275Y-122876778D01*
X165433737Y-122906230D01*
X165420362Y-122934508D01*
X165404281Y-122961338D01*
X165385647Y-122986463D01*
X165364640Y-123009640D01*
X165341463Y-123030647D01*
X165316338Y-123049281D01*
X165289508Y-123065362D01*
X165261230Y-123078737D01*
X165231778Y-123089275D01*
X165201435Y-123096875D01*
X165170493Y-123101465D01*
X165139250Y-123103000D01*
X164501750Y-123103000D01*
X164470507Y-123101465D01*
X164439565Y-123096875D01*
X164409222Y-123089275D01*
X164379770Y-123078737D01*
X164351492Y-123065362D01*
X164324662Y-123049281D01*
X164299537Y-123030647D01*
X164276360Y-123009640D01*
X164255353Y-122986463D01*
X164236719Y-122961338D01*
X164220638Y-122934508D01*
X164207263Y-122906230D01*
X164196725Y-122876778D01*
X164189125Y-122846435D01*
X164184535Y-122815493D01*
X164183000Y-122784250D01*
X164183000Y-122071750D01*
X164184535Y-122040507D01*
X164189125Y-122009565D01*
X164196725Y-121979222D01*
X164207263Y-121949770D01*
X164220638Y-121921492D01*
X164236719Y-121894662D01*
X164255353Y-121869537D01*
X164276360Y-121846360D01*
X164299537Y-121825353D01*
X164324662Y-121806719D01*
X164351492Y-121790638D01*
X164379770Y-121777263D01*
X164409222Y-121766725D01*
X164439565Y-121759125D01*
X164470507Y-121754535D01*
X164501750Y-121753000D01*
X165139250Y-121753000D01*
X165170493Y-121754535D01*
X165170493Y-121754535D01*
G37*
D31*
X164820500Y-122428000D03*
G04 #@! TD*
D14*
G04 #@! TO.C,D6*
G36*
X169297493Y-115924535D02*
X169328435Y-115929125D01*
X169358778Y-115936725D01*
X169388230Y-115947263D01*
X169416508Y-115960638D01*
X169443338Y-115976719D01*
X169468463Y-115995353D01*
X169491640Y-116016360D01*
X169512647Y-116039537D01*
X169531281Y-116064662D01*
X169547362Y-116091492D01*
X169560737Y-116119770D01*
X169571275Y-116149222D01*
X169578875Y-116179565D01*
X169583465Y-116210507D01*
X169585000Y-116241750D01*
X169585000Y-116879250D01*
X169583465Y-116910493D01*
X169578875Y-116941435D01*
X169571275Y-116971778D01*
X169560737Y-117001230D01*
X169547362Y-117029508D01*
X169531281Y-117056338D01*
X169512647Y-117081463D01*
X169491640Y-117104640D01*
X169468463Y-117125647D01*
X169443338Y-117144281D01*
X169416508Y-117160362D01*
X169388230Y-117173737D01*
X169358778Y-117184275D01*
X169328435Y-117191875D01*
X169297493Y-117196465D01*
X169266250Y-117198000D01*
X168553750Y-117198000D01*
X168522507Y-117196465D01*
X168491565Y-117191875D01*
X168461222Y-117184275D01*
X168431770Y-117173737D01*
X168403492Y-117160362D01*
X168376662Y-117144281D01*
X168351537Y-117125647D01*
X168328360Y-117104640D01*
X168307353Y-117081463D01*
X168288719Y-117056338D01*
X168272638Y-117029508D01*
X168259263Y-117001230D01*
X168248725Y-116971778D01*
X168241125Y-116941435D01*
X168236535Y-116910493D01*
X168235000Y-116879250D01*
X168235000Y-116241750D01*
X168236535Y-116210507D01*
X168241125Y-116179565D01*
X168248725Y-116149222D01*
X168259263Y-116119770D01*
X168272638Y-116091492D01*
X168288719Y-116064662D01*
X168307353Y-116039537D01*
X168328360Y-116016360D01*
X168351537Y-115995353D01*
X168376662Y-115976719D01*
X168403492Y-115960638D01*
X168431770Y-115947263D01*
X168461222Y-115936725D01*
X168491565Y-115929125D01*
X168522507Y-115924535D01*
X168553750Y-115923000D01*
X169266250Y-115923000D01*
X169297493Y-115924535D01*
X169297493Y-115924535D01*
G37*
D31*
X168910000Y-116560500D03*
D14*
G36*
X169297493Y-117499535D02*
X169328435Y-117504125D01*
X169358778Y-117511725D01*
X169388230Y-117522263D01*
X169416508Y-117535638D01*
X169443338Y-117551719D01*
X169468463Y-117570353D01*
X169491640Y-117591360D01*
X169512647Y-117614537D01*
X169531281Y-117639662D01*
X169547362Y-117666492D01*
X169560737Y-117694770D01*
X169571275Y-117724222D01*
X169578875Y-117754565D01*
X169583465Y-117785507D01*
X169585000Y-117816750D01*
X169585000Y-118454250D01*
X169583465Y-118485493D01*
X169578875Y-118516435D01*
X169571275Y-118546778D01*
X169560737Y-118576230D01*
X169547362Y-118604508D01*
X169531281Y-118631338D01*
X169512647Y-118656463D01*
X169491640Y-118679640D01*
X169468463Y-118700647D01*
X169443338Y-118719281D01*
X169416508Y-118735362D01*
X169388230Y-118748737D01*
X169358778Y-118759275D01*
X169328435Y-118766875D01*
X169297493Y-118771465D01*
X169266250Y-118773000D01*
X168553750Y-118773000D01*
X168522507Y-118771465D01*
X168491565Y-118766875D01*
X168461222Y-118759275D01*
X168431770Y-118748737D01*
X168403492Y-118735362D01*
X168376662Y-118719281D01*
X168351537Y-118700647D01*
X168328360Y-118679640D01*
X168307353Y-118656463D01*
X168288719Y-118631338D01*
X168272638Y-118604508D01*
X168259263Y-118576230D01*
X168248725Y-118546778D01*
X168241125Y-118516435D01*
X168236535Y-118485493D01*
X168235000Y-118454250D01*
X168235000Y-117816750D01*
X168236535Y-117785507D01*
X168241125Y-117754565D01*
X168248725Y-117724222D01*
X168259263Y-117694770D01*
X168272638Y-117666492D01*
X168288719Y-117639662D01*
X168307353Y-117614537D01*
X168328360Y-117591360D01*
X168351537Y-117570353D01*
X168376662Y-117551719D01*
X168403492Y-117535638D01*
X168431770Y-117522263D01*
X168461222Y-117511725D01*
X168491565Y-117504125D01*
X168522507Y-117499535D01*
X168553750Y-117498000D01*
X169266250Y-117498000D01*
X169297493Y-117499535D01*
X169297493Y-117499535D01*
G37*
D31*
X168910000Y-118135500D03*
G04 #@! TD*
D14*
G04 #@! TO.C,R20*
G36*
X125216759Y-129275192D02*
X125240785Y-129278756D01*
X125264345Y-129284657D01*
X125287214Y-129292840D01*
X125309171Y-129303224D01*
X125330004Y-129315711D01*
X125349512Y-129330180D01*
X125367509Y-129346491D01*
X125383820Y-129364488D01*
X125398289Y-129383996D01*
X125410776Y-129404829D01*
X125421160Y-129426786D01*
X125429343Y-129449655D01*
X125435244Y-129473215D01*
X125438808Y-129497241D01*
X125440000Y-129521500D01*
X125440000Y-130066500D01*
X125438808Y-130090759D01*
X125435244Y-130114785D01*
X125429343Y-130138345D01*
X125421160Y-130161214D01*
X125410776Y-130183171D01*
X125398289Y-130204004D01*
X125383820Y-130223512D01*
X125367509Y-130241509D01*
X125349512Y-130257820D01*
X125330004Y-130272289D01*
X125309171Y-130284776D01*
X125287214Y-130295160D01*
X125264345Y-130303343D01*
X125240785Y-130309244D01*
X125216759Y-130312808D01*
X125192500Y-130314000D01*
X124697500Y-130314000D01*
X124673241Y-130312808D01*
X124649215Y-130309244D01*
X124625655Y-130303343D01*
X124602786Y-130295160D01*
X124580829Y-130284776D01*
X124559996Y-130272289D01*
X124540488Y-130257820D01*
X124522491Y-130241509D01*
X124506180Y-130223512D01*
X124491711Y-130204004D01*
X124479224Y-130183171D01*
X124468840Y-130161214D01*
X124460657Y-130138345D01*
X124454756Y-130114785D01*
X124451192Y-130090759D01*
X124450000Y-130066500D01*
X124450000Y-129521500D01*
X124451192Y-129497241D01*
X124454756Y-129473215D01*
X124460657Y-129449655D01*
X124468840Y-129426786D01*
X124479224Y-129404829D01*
X124491711Y-129383996D01*
X124506180Y-129364488D01*
X124522491Y-129346491D01*
X124540488Y-129330180D01*
X124559996Y-129315711D01*
X124580829Y-129303224D01*
X124602786Y-129292840D01*
X124625655Y-129284657D01*
X124649215Y-129278756D01*
X124673241Y-129275192D01*
X124697500Y-129274000D01*
X125192500Y-129274000D01*
X125216759Y-129275192D01*
X125216759Y-129275192D01*
G37*
D15*
X124945000Y-129794000D03*
D14*
G36*
X124246759Y-129275192D02*
X124270785Y-129278756D01*
X124294345Y-129284657D01*
X124317214Y-129292840D01*
X124339171Y-129303224D01*
X124360004Y-129315711D01*
X124379512Y-129330180D01*
X124397509Y-129346491D01*
X124413820Y-129364488D01*
X124428289Y-129383996D01*
X124440776Y-129404829D01*
X124451160Y-129426786D01*
X124459343Y-129449655D01*
X124465244Y-129473215D01*
X124468808Y-129497241D01*
X124470000Y-129521500D01*
X124470000Y-130066500D01*
X124468808Y-130090759D01*
X124465244Y-130114785D01*
X124459343Y-130138345D01*
X124451160Y-130161214D01*
X124440776Y-130183171D01*
X124428289Y-130204004D01*
X124413820Y-130223512D01*
X124397509Y-130241509D01*
X124379512Y-130257820D01*
X124360004Y-130272289D01*
X124339171Y-130284776D01*
X124317214Y-130295160D01*
X124294345Y-130303343D01*
X124270785Y-130309244D01*
X124246759Y-130312808D01*
X124222500Y-130314000D01*
X123727500Y-130314000D01*
X123703241Y-130312808D01*
X123679215Y-130309244D01*
X123655655Y-130303343D01*
X123632786Y-130295160D01*
X123610829Y-130284776D01*
X123589996Y-130272289D01*
X123570488Y-130257820D01*
X123552491Y-130241509D01*
X123536180Y-130223512D01*
X123521711Y-130204004D01*
X123509224Y-130183171D01*
X123498840Y-130161214D01*
X123490657Y-130138345D01*
X123484756Y-130114785D01*
X123481192Y-130090759D01*
X123480000Y-130066500D01*
X123480000Y-129521500D01*
X123481192Y-129497241D01*
X123484756Y-129473215D01*
X123490657Y-129449655D01*
X123498840Y-129426786D01*
X123509224Y-129404829D01*
X123521711Y-129383996D01*
X123536180Y-129364488D01*
X123552491Y-129346491D01*
X123570488Y-129330180D01*
X123589996Y-129315711D01*
X123610829Y-129303224D01*
X123632786Y-129292840D01*
X123655655Y-129284657D01*
X123679215Y-129278756D01*
X123703241Y-129275192D01*
X123727500Y-129274000D01*
X124222500Y-129274000D01*
X124246759Y-129275192D01*
X124246759Y-129275192D01*
G37*
D15*
X123975000Y-129794000D03*
G04 #@! TD*
D14*
G04 #@! TO.C,R22*
G36*
X163570759Y-123687192D02*
X163594785Y-123690756D01*
X163618345Y-123696657D01*
X163641214Y-123704840D01*
X163663171Y-123715224D01*
X163684004Y-123727711D01*
X163703512Y-123742180D01*
X163721509Y-123758491D01*
X163737820Y-123776488D01*
X163752289Y-123795996D01*
X163764776Y-123816829D01*
X163775160Y-123838786D01*
X163783343Y-123861655D01*
X163789244Y-123885215D01*
X163792808Y-123909241D01*
X163794000Y-123933500D01*
X163794000Y-124478500D01*
X163792808Y-124502759D01*
X163789244Y-124526785D01*
X163783343Y-124550345D01*
X163775160Y-124573214D01*
X163764776Y-124595171D01*
X163752289Y-124616004D01*
X163737820Y-124635512D01*
X163721509Y-124653509D01*
X163703512Y-124669820D01*
X163684004Y-124684289D01*
X163663171Y-124696776D01*
X163641214Y-124707160D01*
X163618345Y-124715343D01*
X163594785Y-124721244D01*
X163570759Y-124724808D01*
X163546500Y-124726000D01*
X163051500Y-124726000D01*
X163027241Y-124724808D01*
X163003215Y-124721244D01*
X162979655Y-124715343D01*
X162956786Y-124707160D01*
X162934829Y-124696776D01*
X162913996Y-124684289D01*
X162894488Y-124669820D01*
X162876491Y-124653509D01*
X162860180Y-124635512D01*
X162845711Y-124616004D01*
X162833224Y-124595171D01*
X162822840Y-124573214D01*
X162814657Y-124550345D01*
X162808756Y-124526785D01*
X162805192Y-124502759D01*
X162804000Y-124478500D01*
X162804000Y-123933500D01*
X162805192Y-123909241D01*
X162808756Y-123885215D01*
X162814657Y-123861655D01*
X162822840Y-123838786D01*
X162833224Y-123816829D01*
X162845711Y-123795996D01*
X162860180Y-123776488D01*
X162876491Y-123758491D01*
X162894488Y-123742180D01*
X162913996Y-123727711D01*
X162934829Y-123715224D01*
X162956786Y-123704840D01*
X162979655Y-123696657D01*
X163003215Y-123690756D01*
X163027241Y-123687192D01*
X163051500Y-123686000D01*
X163546500Y-123686000D01*
X163570759Y-123687192D01*
X163570759Y-123687192D01*
G37*
D15*
X163299000Y-124206000D03*
D14*
G36*
X162600759Y-123687192D02*
X162624785Y-123690756D01*
X162648345Y-123696657D01*
X162671214Y-123704840D01*
X162693171Y-123715224D01*
X162714004Y-123727711D01*
X162733512Y-123742180D01*
X162751509Y-123758491D01*
X162767820Y-123776488D01*
X162782289Y-123795996D01*
X162794776Y-123816829D01*
X162805160Y-123838786D01*
X162813343Y-123861655D01*
X162819244Y-123885215D01*
X162822808Y-123909241D01*
X162824000Y-123933500D01*
X162824000Y-124478500D01*
X162822808Y-124502759D01*
X162819244Y-124526785D01*
X162813343Y-124550345D01*
X162805160Y-124573214D01*
X162794776Y-124595171D01*
X162782289Y-124616004D01*
X162767820Y-124635512D01*
X162751509Y-124653509D01*
X162733512Y-124669820D01*
X162714004Y-124684289D01*
X162693171Y-124696776D01*
X162671214Y-124707160D01*
X162648345Y-124715343D01*
X162624785Y-124721244D01*
X162600759Y-124724808D01*
X162576500Y-124726000D01*
X162081500Y-124726000D01*
X162057241Y-124724808D01*
X162033215Y-124721244D01*
X162009655Y-124715343D01*
X161986786Y-124707160D01*
X161964829Y-124696776D01*
X161943996Y-124684289D01*
X161924488Y-124669820D01*
X161906491Y-124653509D01*
X161890180Y-124635512D01*
X161875711Y-124616004D01*
X161863224Y-124595171D01*
X161852840Y-124573214D01*
X161844657Y-124550345D01*
X161838756Y-124526785D01*
X161835192Y-124502759D01*
X161834000Y-124478500D01*
X161834000Y-123933500D01*
X161835192Y-123909241D01*
X161838756Y-123885215D01*
X161844657Y-123861655D01*
X161852840Y-123838786D01*
X161863224Y-123816829D01*
X161875711Y-123795996D01*
X161890180Y-123776488D01*
X161906491Y-123758491D01*
X161924488Y-123742180D01*
X161943996Y-123727711D01*
X161964829Y-123715224D01*
X161986786Y-123704840D01*
X162009655Y-123696657D01*
X162033215Y-123690756D01*
X162057241Y-123687192D01*
X162081500Y-123686000D01*
X162576500Y-123686000D01*
X162600759Y-123687192D01*
X162600759Y-123687192D01*
G37*
D15*
X162329000Y-124206000D03*
G04 #@! TD*
D14*
G04 #@! TO.C,R23*
G36*
X163570759Y-121909192D02*
X163594785Y-121912756D01*
X163618345Y-121918657D01*
X163641214Y-121926840D01*
X163663171Y-121937224D01*
X163684004Y-121949711D01*
X163703512Y-121964180D01*
X163721509Y-121980491D01*
X163737820Y-121998488D01*
X163752289Y-122017996D01*
X163764776Y-122038829D01*
X163775160Y-122060786D01*
X163783343Y-122083655D01*
X163789244Y-122107215D01*
X163792808Y-122131241D01*
X163794000Y-122155500D01*
X163794000Y-122700500D01*
X163792808Y-122724759D01*
X163789244Y-122748785D01*
X163783343Y-122772345D01*
X163775160Y-122795214D01*
X163764776Y-122817171D01*
X163752289Y-122838004D01*
X163737820Y-122857512D01*
X163721509Y-122875509D01*
X163703512Y-122891820D01*
X163684004Y-122906289D01*
X163663171Y-122918776D01*
X163641214Y-122929160D01*
X163618345Y-122937343D01*
X163594785Y-122943244D01*
X163570759Y-122946808D01*
X163546500Y-122948000D01*
X163051500Y-122948000D01*
X163027241Y-122946808D01*
X163003215Y-122943244D01*
X162979655Y-122937343D01*
X162956786Y-122929160D01*
X162934829Y-122918776D01*
X162913996Y-122906289D01*
X162894488Y-122891820D01*
X162876491Y-122875509D01*
X162860180Y-122857512D01*
X162845711Y-122838004D01*
X162833224Y-122817171D01*
X162822840Y-122795214D01*
X162814657Y-122772345D01*
X162808756Y-122748785D01*
X162805192Y-122724759D01*
X162804000Y-122700500D01*
X162804000Y-122155500D01*
X162805192Y-122131241D01*
X162808756Y-122107215D01*
X162814657Y-122083655D01*
X162822840Y-122060786D01*
X162833224Y-122038829D01*
X162845711Y-122017996D01*
X162860180Y-121998488D01*
X162876491Y-121980491D01*
X162894488Y-121964180D01*
X162913996Y-121949711D01*
X162934829Y-121937224D01*
X162956786Y-121926840D01*
X162979655Y-121918657D01*
X163003215Y-121912756D01*
X163027241Y-121909192D01*
X163051500Y-121908000D01*
X163546500Y-121908000D01*
X163570759Y-121909192D01*
X163570759Y-121909192D01*
G37*
D15*
X163299000Y-122428000D03*
D14*
G36*
X162600759Y-121909192D02*
X162624785Y-121912756D01*
X162648345Y-121918657D01*
X162671214Y-121926840D01*
X162693171Y-121937224D01*
X162714004Y-121949711D01*
X162733512Y-121964180D01*
X162751509Y-121980491D01*
X162767820Y-121998488D01*
X162782289Y-122017996D01*
X162794776Y-122038829D01*
X162805160Y-122060786D01*
X162813343Y-122083655D01*
X162819244Y-122107215D01*
X162822808Y-122131241D01*
X162824000Y-122155500D01*
X162824000Y-122700500D01*
X162822808Y-122724759D01*
X162819244Y-122748785D01*
X162813343Y-122772345D01*
X162805160Y-122795214D01*
X162794776Y-122817171D01*
X162782289Y-122838004D01*
X162767820Y-122857512D01*
X162751509Y-122875509D01*
X162733512Y-122891820D01*
X162714004Y-122906289D01*
X162693171Y-122918776D01*
X162671214Y-122929160D01*
X162648345Y-122937343D01*
X162624785Y-122943244D01*
X162600759Y-122946808D01*
X162576500Y-122948000D01*
X162081500Y-122948000D01*
X162057241Y-122946808D01*
X162033215Y-122943244D01*
X162009655Y-122937343D01*
X161986786Y-122929160D01*
X161964829Y-122918776D01*
X161943996Y-122906289D01*
X161924488Y-122891820D01*
X161906491Y-122875509D01*
X161890180Y-122857512D01*
X161875711Y-122838004D01*
X161863224Y-122817171D01*
X161852840Y-122795214D01*
X161844657Y-122772345D01*
X161838756Y-122748785D01*
X161835192Y-122724759D01*
X161834000Y-122700500D01*
X161834000Y-122155500D01*
X161835192Y-122131241D01*
X161838756Y-122107215D01*
X161844657Y-122083655D01*
X161852840Y-122060786D01*
X161863224Y-122038829D01*
X161875711Y-122017996D01*
X161890180Y-121998488D01*
X161906491Y-121980491D01*
X161924488Y-121964180D01*
X161943996Y-121949711D01*
X161964829Y-121937224D01*
X161986786Y-121926840D01*
X162009655Y-121918657D01*
X162033215Y-121912756D01*
X162057241Y-121909192D01*
X162081500Y-121908000D01*
X162576500Y-121908000D01*
X162600759Y-121909192D01*
X162600759Y-121909192D01*
G37*
D15*
X162329000Y-122428000D03*
G04 #@! TD*
D14*
G04 #@! TO.C,R24*
G36*
X167682759Y-119625192D02*
X167706785Y-119628756D01*
X167730345Y-119634657D01*
X167753214Y-119642840D01*
X167775171Y-119653224D01*
X167796004Y-119665711D01*
X167815512Y-119680180D01*
X167833509Y-119696491D01*
X167849820Y-119714488D01*
X167864289Y-119733996D01*
X167876776Y-119754829D01*
X167887160Y-119776786D01*
X167895343Y-119799655D01*
X167901244Y-119823215D01*
X167904808Y-119847241D01*
X167906000Y-119871500D01*
X167906000Y-120366500D01*
X167904808Y-120390759D01*
X167901244Y-120414785D01*
X167895343Y-120438345D01*
X167887160Y-120461214D01*
X167876776Y-120483171D01*
X167864289Y-120504004D01*
X167849820Y-120523512D01*
X167833509Y-120541509D01*
X167815512Y-120557820D01*
X167796004Y-120572289D01*
X167775171Y-120584776D01*
X167753214Y-120595160D01*
X167730345Y-120603343D01*
X167706785Y-120609244D01*
X167682759Y-120612808D01*
X167658500Y-120614000D01*
X167113500Y-120614000D01*
X167089241Y-120612808D01*
X167065215Y-120609244D01*
X167041655Y-120603343D01*
X167018786Y-120595160D01*
X166996829Y-120584776D01*
X166975996Y-120572289D01*
X166956488Y-120557820D01*
X166938491Y-120541509D01*
X166922180Y-120523512D01*
X166907711Y-120504004D01*
X166895224Y-120483171D01*
X166884840Y-120461214D01*
X166876657Y-120438345D01*
X166870756Y-120414785D01*
X166867192Y-120390759D01*
X166866000Y-120366500D01*
X166866000Y-119871500D01*
X166867192Y-119847241D01*
X166870756Y-119823215D01*
X166876657Y-119799655D01*
X166884840Y-119776786D01*
X166895224Y-119754829D01*
X166907711Y-119733996D01*
X166922180Y-119714488D01*
X166938491Y-119696491D01*
X166956488Y-119680180D01*
X166975996Y-119665711D01*
X166996829Y-119653224D01*
X167018786Y-119642840D01*
X167041655Y-119634657D01*
X167065215Y-119628756D01*
X167089241Y-119625192D01*
X167113500Y-119624000D01*
X167658500Y-119624000D01*
X167682759Y-119625192D01*
X167682759Y-119625192D01*
G37*
D15*
X167386000Y-120119000D03*
D14*
G36*
X167682759Y-118655192D02*
X167706785Y-118658756D01*
X167730345Y-118664657D01*
X167753214Y-118672840D01*
X167775171Y-118683224D01*
X167796004Y-118695711D01*
X167815512Y-118710180D01*
X167833509Y-118726491D01*
X167849820Y-118744488D01*
X167864289Y-118763996D01*
X167876776Y-118784829D01*
X167887160Y-118806786D01*
X167895343Y-118829655D01*
X167901244Y-118853215D01*
X167904808Y-118877241D01*
X167906000Y-118901500D01*
X167906000Y-119396500D01*
X167904808Y-119420759D01*
X167901244Y-119444785D01*
X167895343Y-119468345D01*
X167887160Y-119491214D01*
X167876776Y-119513171D01*
X167864289Y-119534004D01*
X167849820Y-119553512D01*
X167833509Y-119571509D01*
X167815512Y-119587820D01*
X167796004Y-119602289D01*
X167775171Y-119614776D01*
X167753214Y-119625160D01*
X167730345Y-119633343D01*
X167706785Y-119639244D01*
X167682759Y-119642808D01*
X167658500Y-119644000D01*
X167113500Y-119644000D01*
X167089241Y-119642808D01*
X167065215Y-119639244D01*
X167041655Y-119633343D01*
X167018786Y-119625160D01*
X166996829Y-119614776D01*
X166975996Y-119602289D01*
X166956488Y-119587820D01*
X166938491Y-119571509D01*
X166922180Y-119553512D01*
X166907711Y-119534004D01*
X166895224Y-119513171D01*
X166884840Y-119491214D01*
X166876657Y-119468345D01*
X166870756Y-119444785D01*
X166867192Y-119420759D01*
X166866000Y-119396500D01*
X166866000Y-118901500D01*
X166867192Y-118877241D01*
X166870756Y-118853215D01*
X166876657Y-118829655D01*
X166884840Y-118806786D01*
X166895224Y-118784829D01*
X166907711Y-118763996D01*
X166922180Y-118744488D01*
X166938491Y-118726491D01*
X166956488Y-118710180D01*
X166975996Y-118695711D01*
X166996829Y-118683224D01*
X167018786Y-118672840D01*
X167041655Y-118664657D01*
X167065215Y-118658756D01*
X167089241Y-118655192D01*
X167113500Y-118654000D01*
X167658500Y-118654000D01*
X167682759Y-118655192D01*
X167682759Y-118655192D01*
G37*
D15*
X167386000Y-119149000D03*
G04 #@! TD*
D14*
G04 #@! TO.C,D3*
G36*
X121228493Y-130644535D02*
X121259435Y-130649125D01*
X121289778Y-130656725D01*
X121319230Y-130667263D01*
X121347508Y-130680638D01*
X121374338Y-130696719D01*
X121399463Y-130715353D01*
X121422640Y-130736360D01*
X121443647Y-130759537D01*
X121462281Y-130784662D01*
X121478362Y-130811492D01*
X121491737Y-130839770D01*
X121502275Y-130869222D01*
X121509875Y-130899565D01*
X121514465Y-130930507D01*
X121516000Y-130961750D01*
X121516000Y-131674250D01*
X121514465Y-131705493D01*
X121509875Y-131736435D01*
X121502275Y-131766778D01*
X121491737Y-131796230D01*
X121478362Y-131824508D01*
X121462281Y-131851338D01*
X121443647Y-131876463D01*
X121422640Y-131899640D01*
X121399463Y-131920647D01*
X121374338Y-131939281D01*
X121347508Y-131955362D01*
X121319230Y-131968737D01*
X121289778Y-131979275D01*
X121259435Y-131986875D01*
X121228493Y-131991465D01*
X121197250Y-131993000D01*
X120559750Y-131993000D01*
X120528507Y-131991465D01*
X120497565Y-131986875D01*
X120467222Y-131979275D01*
X120437770Y-131968737D01*
X120409492Y-131955362D01*
X120382662Y-131939281D01*
X120357537Y-131920647D01*
X120334360Y-131899640D01*
X120313353Y-131876463D01*
X120294719Y-131851338D01*
X120278638Y-131824508D01*
X120265263Y-131796230D01*
X120254725Y-131766778D01*
X120247125Y-131736435D01*
X120242535Y-131705493D01*
X120241000Y-131674250D01*
X120241000Y-130961750D01*
X120242535Y-130930507D01*
X120247125Y-130899565D01*
X120254725Y-130869222D01*
X120265263Y-130839770D01*
X120278638Y-130811492D01*
X120294719Y-130784662D01*
X120313353Y-130759537D01*
X120334360Y-130736360D01*
X120357537Y-130715353D01*
X120382662Y-130696719D01*
X120409492Y-130680638D01*
X120437770Y-130667263D01*
X120467222Y-130656725D01*
X120497565Y-130649125D01*
X120528507Y-130644535D01*
X120559750Y-130643000D01*
X121197250Y-130643000D01*
X121228493Y-130644535D01*
X121228493Y-130644535D01*
G37*
D31*
X120878500Y-131318000D03*
D14*
G36*
X122803493Y-130644535D02*
X122834435Y-130649125D01*
X122864778Y-130656725D01*
X122894230Y-130667263D01*
X122922508Y-130680638D01*
X122949338Y-130696719D01*
X122974463Y-130715353D01*
X122997640Y-130736360D01*
X123018647Y-130759537D01*
X123037281Y-130784662D01*
X123053362Y-130811492D01*
X123066737Y-130839770D01*
X123077275Y-130869222D01*
X123084875Y-130899565D01*
X123089465Y-130930507D01*
X123091000Y-130961750D01*
X123091000Y-131674250D01*
X123089465Y-131705493D01*
X123084875Y-131736435D01*
X123077275Y-131766778D01*
X123066737Y-131796230D01*
X123053362Y-131824508D01*
X123037281Y-131851338D01*
X123018647Y-131876463D01*
X122997640Y-131899640D01*
X122974463Y-131920647D01*
X122949338Y-131939281D01*
X122922508Y-131955362D01*
X122894230Y-131968737D01*
X122864778Y-131979275D01*
X122834435Y-131986875D01*
X122803493Y-131991465D01*
X122772250Y-131993000D01*
X122134750Y-131993000D01*
X122103507Y-131991465D01*
X122072565Y-131986875D01*
X122042222Y-131979275D01*
X122012770Y-131968737D01*
X121984492Y-131955362D01*
X121957662Y-131939281D01*
X121932537Y-131920647D01*
X121909360Y-131899640D01*
X121888353Y-131876463D01*
X121869719Y-131851338D01*
X121853638Y-131824508D01*
X121840263Y-131796230D01*
X121829725Y-131766778D01*
X121822125Y-131736435D01*
X121817535Y-131705493D01*
X121816000Y-131674250D01*
X121816000Y-130961750D01*
X121817535Y-130930507D01*
X121822125Y-130899565D01*
X121829725Y-130869222D01*
X121840263Y-130839770D01*
X121853638Y-130811492D01*
X121869719Y-130784662D01*
X121888353Y-130759537D01*
X121909360Y-130736360D01*
X121932537Y-130715353D01*
X121957662Y-130696719D01*
X121984492Y-130680638D01*
X122012770Y-130667263D01*
X122042222Y-130656725D01*
X122072565Y-130649125D01*
X122103507Y-130644535D01*
X122134750Y-130643000D01*
X122772250Y-130643000D01*
X122803493Y-130644535D01*
X122803493Y-130644535D01*
G37*
D31*
X122453500Y-131318000D03*
G04 #@! TD*
D14*
G04 #@! TO.C,R21*
G36*
X125216759Y-130799192D02*
X125240785Y-130802756D01*
X125264345Y-130808657D01*
X125287214Y-130816840D01*
X125309171Y-130827224D01*
X125330004Y-130839711D01*
X125349512Y-130854180D01*
X125367509Y-130870491D01*
X125383820Y-130888488D01*
X125398289Y-130907996D01*
X125410776Y-130928829D01*
X125421160Y-130950786D01*
X125429343Y-130973655D01*
X125435244Y-130997215D01*
X125438808Y-131021241D01*
X125440000Y-131045500D01*
X125440000Y-131590500D01*
X125438808Y-131614759D01*
X125435244Y-131638785D01*
X125429343Y-131662345D01*
X125421160Y-131685214D01*
X125410776Y-131707171D01*
X125398289Y-131728004D01*
X125383820Y-131747512D01*
X125367509Y-131765509D01*
X125349512Y-131781820D01*
X125330004Y-131796289D01*
X125309171Y-131808776D01*
X125287214Y-131819160D01*
X125264345Y-131827343D01*
X125240785Y-131833244D01*
X125216759Y-131836808D01*
X125192500Y-131838000D01*
X124697500Y-131838000D01*
X124673241Y-131836808D01*
X124649215Y-131833244D01*
X124625655Y-131827343D01*
X124602786Y-131819160D01*
X124580829Y-131808776D01*
X124559996Y-131796289D01*
X124540488Y-131781820D01*
X124522491Y-131765509D01*
X124506180Y-131747512D01*
X124491711Y-131728004D01*
X124479224Y-131707171D01*
X124468840Y-131685214D01*
X124460657Y-131662345D01*
X124454756Y-131638785D01*
X124451192Y-131614759D01*
X124450000Y-131590500D01*
X124450000Y-131045500D01*
X124451192Y-131021241D01*
X124454756Y-130997215D01*
X124460657Y-130973655D01*
X124468840Y-130950786D01*
X124479224Y-130928829D01*
X124491711Y-130907996D01*
X124506180Y-130888488D01*
X124522491Y-130870491D01*
X124540488Y-130854180D01*
X124559996Y-130839711D01*
X124580829Y-130827224D01*
X124602786Y-130816840D01*
X124625655Y-130808657D01*
X124649215Y-130802756D01*
X124673241Y-130799192D01*
X124697500Y-130798000D01*
X125192500Y-130798000D01*
X125216759Y-130799192D01*
X125216759Y-130799192D01*
G37*
D15*
X124945000Y-131318000D03*
D14*
G36*
X124246759Y-130799192D02*
X124270785Y-130802756D01*
X124294345Y-130808657D01*
X124317214Y-130816840D01*
X124339171Y-130827224D01*
X124360004Y-130839711D01*
X124379512Y-130854180D01*
X124397509Y-130870491D01*
X124413820Y-130888488D01*
X124428289Y-130907996D01*
X124440776Y-130928829D01*
X124451160Y-130950786D01*
X124459343Y-130973655D01*
X124465244Y-130997215D01*
X124468808Y-131021241D01*
X124470000Y-131045500D01*
X124470000Y-131590500D01*
X124468808Y-131614759D01*
X124465244Y-131638785D01*
X124459343Y-131662345D01*
X124451160Y-131685214D01*
X124440776Y-131707171D01*
X124428289Y-131728004D01*
X124413820Y-131747512D01*
X124397509Y-131765509D01*
X124379512Y-131781820D01*
X124360004Y-131796289D01*
X124339171Y-131808776D01*
X124317214Y-131819160D01*
X124294345Y-131827343D01*
X124270785Y-131833244D01*
X124246759Y-131836808D01*
X124222500Y-131838000D01*
X123727500Y-131838000D01*
X123703241Y-131836808D01*
X123679215Y-131833244D01*
X123655655Y-131827343D01*
X123632786Y-131819160D01*
X123610829Y-131808776D01*
X123589996Y-131796289D01*
X123570488Y-131781820D01*
X123552491Y-131765509D01*
X123536180Y-131747512D01*
X123521711Y-131728004D01*
X123509224Y-131707171D01*
X123498840Y-131685214D01*
X123490657Y-131662345D01*
X123484756Y-131638785D01*
X123481192Y-131614759D01*
X123480000Y-131590500D01*
X123480000Y-131045500D01*
X123481192Y-131021241D01*
X123484756Y-130997215D01*
X123490657Y-130973655D01*
X123498840Y-130950786D01*
X123509224Y-130928829D01*
X123521711Y-130907996D01*
X123536180Y-130888488D01*
X123552491Y-130870491D01*
X123570488Y-130854180D01*
X123589996Y-130839711D01*
X123610829Y-130827224D01*
X123632786Y-130816840D01*
X123655655Y-130808657D01*
X123679215Y-130802756D01*
X123703241Y-130799192D01*
X123727500Y-130798000D01*
X124222500Y-130798000D01*
X124246759Y-130799192D01*
X124246759Y-130799192D01*
G37*
D15*
X123975000Y-131318000D03*
G04 #@! TD*
D32*
G04 #@! TO.C,SW1*
X114300000Y-127684000D03*
X114300000Y-124284000D03*
G04 #@! TD*
M02*
