G04 #@! TF.GenerationSoftware,KiCad,Pcbnew,5.0.0-rc3-unknown-14ce5182~65~ubuntu16.04.1*
G04 #@! TF.CreationDate,2018-08-12T21:53:15+02:00*
G04 #@! TF.ProjectId,roboy_sno,726F626F795F736E6F2E6B696361645F,rev?*
G04 #@! TF.SameCoordinates,Original*
G04 #@! TF.FileFunction,Copper,L2,Inr,Signal*
G04 #@! TF.FilePolarity,Positive*
%FSLAX46Y46*%
G04 Gerber Fmt 4.6, Leading zero omitted, Abs format (unit mm)*
G04 Created by KiCad (PCBNEW 5.0.0-rc3-unknown-14ce5182~65~ubuntu16.04.1) date Sun Aug 12 21:53:15 2018*
%MOMM*%
%LPD*%
G01*
G04 APERTURE LIST*
G04 #@! TA.AperFunction,ViaPad*
%ADD10R,1.700000X1.700000*%
G04 #@! TD*
G04 #@! TA.AperFunction,ViaPad*
%ADD11O,1.700000X1.700000*%
G04 #@! TD*
G04 #@! TA.AperFunction,ViaPad*
%ADD12C,0.301000*%
G04 #@! TD*
G04 #@! TA.AperFunction,Conductor*
%ADD13C,0.152400*%
G04 #@! TD*
G04 #@! TA.AperFunction,Conductor*
%ADD14C,0.254000*%
G04 #@! TD*
G04 APERTURE END LIST*
D10*
G04 #@! TO.N,/TDI*
G04 #@! TO.C,J4*
X147472400Y-120192800D03*
D11*
G04 #@! TO.N,GND*
X144932400Y-120192800D03*
G04 #@! TO.N,N/C*
X147472400Y-122732800D03*
X144932400Y-122732800D03*
G04 #@! TO.N,/TMS*
X147472400Y-125272800D03*
G04 #@! TO.N,N/C*
X144932400Y-125272800D03*
G04 #@! TO.N,/TDO*
X147472400Y-127812800D03*
G04 #@! TO.N,3.3V*
X144932400Y-127812800D03*
G04 #@! TO.N,/TCK*
X147472400Y-130352800D03*
G04 #@! TO.N,GND*
X144932400Y-130352800D03*
G04 #@! TD*
D10*
G04 #@! TO.N,GND*
G04 #@! TO.C,J5*
X114046000Y-119380000D03*
D11*
G04 #@! TO.N,VDD5V*
X114046000Y-116840000D03*
G04 #@! TD*
D12*
G04 #@! TO.N,/M7*
X134728599Y-129603500D03*
G04 #@! TO.N,GND*
X139522200Y-126466600D03*
X136321800Y-128828800D03*
X134721600Y-128828800D03*
X135534400Y-125628400D03*
X130759200Y-123977400D03*
X131521200Y-121615200D03*
X132334000Y-126441200D03*
X129891266Y-130500866D03*
X140385800Y-129667000D03*
X140436600Y-120116600D03*
X129768600Y-120675400D03*
X170637200Y-136321800D03*
X171323000Y-136398000D03*
X154660600Y-130225800D03*
X155651199Y-121183400D03*
X166446200Y-109702600D03*
X167309800Y-113563400D03*
X164896800Y-114630200D03*
X127736600Y-130352800D03*
X135839200Y-132638800D03*
X138728436Y-123248798D03*
X141909800Y-125831600D03*
X128625600Y-121615200D03*
X138252200Y-117195600D03*
X133922000Y-122377200D03*
X136296400Y-120827800D03*
X176199800Y-135382000D03*
G04 #@! TO.N,3.3V*
X133934200Y-128803400D03*
X131546600Y-128016000D03*
X135534400Y-126390400D03*
X132334000Y-122453400D03*
X135534400Y-121615200D03*
X137922000Y-123215400D03*
X138709400Y-124028200D03*
X131521200Y-124815200D03*
G04 #@! TO.N,GND*
X124866400Y-118008400D03*
X119710200Y-125412500D03*
X116509800Y-129857500D03*
X116509800Y-131406900D03*
X116852700Y-132308600D03*
X122491500Y-132321300D03*
X119430800Y-128143000D03*
X122694700Y-121500900D03*
G04 #@! TO.N,3.3V*
X159918400Y-137033000D03*
X157911800Y-137083800D03*
X155879800Y-137134600D03*
X153898600Y-137109200D03*
X151917400Y-137058400D03*
X149885400Y-137007600D03*
X147904200Y-136982200D03*
X145897600Y-137033000D03*
X143891000Y-137058400D03*
X141909800Y-137033000D03*
X133477000Y-137236200D03*
X131495800Y-137185400D03*
X129489200Y-137134600D03*
X127482600Y-137083800D03*
X125476000Y-137058400D03*
X123469400Y-137058400D03*
X121488200Y-137058400D03*
X119507000Y-137033000D03*
X117500400Y-137007600D03*
X115493800Y-137007600D03*
X116941600Y-111709200D03*
X118973600Y-111760000D03*
X120980200Y-111734600D03*
X122986800Y-111760000D03*
X124993400Y-111810800D03*
X126974600Y-111810800D03*
X128981200Y-111861600D03*
X131013200Y-111887000D03*
X133019800Y-111887000D03*
X135001000Y-111887000D03*
X150495000Y-117043200D03*
X152171400Y-117830600D03*
X143408400Y-111302800D03*
X145364200Y-111328200D03*
X147370800Y-111379000D03*
X149377400Y-111404400D03*
X151384000Y-111455200D03*
X153390600Y-111429800D03*
X155371800Y-111506000D03*
X157403800Y-111506000D03*
X159359600Y-111531400D03*
X161366200Y-111556800D03*
X169545000Y-107442000D03*
X149885400Y-129794000D03*
X133375400Y-132842000D03*
X136321800Y-127203200D03*
X138722100Y-125590300D03*
X126695200Y-120548400D03*
X136956800Y-119049800D03*
X116052600Y-125412500D03*
X124819000Y-119608600D03*
X123621800Y-117284500D03*
X123634500Y-118237000D03*
X115798600Y-130416300D03*
X125310900Y-131152900D03*
X114401600Y-134429500D03*
G04 #@! TO.N,VDD5V*
X174167800Y-135915400D03*
X166751000Y-114503200D03*
X164541200Y-113030000D03*
X119341900Y-117271800D03*
G04 #@! TO.N,Net-(C4-Pad2)*
X169418000Y-108737400D03*
X173609000Y-133680200D03*
G04 #@! TO.N,Net-(C6-Pad1)*
X167487600Y-109626400D03*
X171323000Y-113436400D03*
G04 #@! TO.N,Net-(C7-Pad2)*
X168884600Y-108737400D03*
X169976800Y-133629400D03*
G04 #@! TO.N,Net-(D5-Pad2)*
X168630600Y-135534400D03*
X176047400Y-137972800D03*
G04 #@! TO.N,GPIO0*
X168681400Y-118973600D03*
X172034200Y-107442000D03*
G04 #@! TO.N,RTS*
X170688000Y-114503200D03*
X175209200Y-114173000D03*
G04 #@! TO.N,Net-(Q1-Pad2)*
X175260000Y-111099600D03*
X174472600Y-108305600D03*
G04 #@! TO.N,RESET*
X171831000Y-108305600D03*
X173532800Y-110566200D03*
X168783000Y-115214400D03*
G04 #@! TO.N,DTR*
X170535600Y-115112800D03*
X172946799Y-112977399D03*
G04 #@! TO.N,Net-(R1-Pad1)*
X133146800Y-122402600D03*
X125653800Y-122936000D03*
G04 #@! TO.N,Net-(R2-Pad2)*
X135534400Y-124028200D03*
X125628400Y-125120400D03*
G04 #@! TO.N,Net-(R3-Pad1)*
X132308600Y-121564400D03*
X125679200Y-121843800D03*
G04 #@! TO.N,Net-(R4-Pad2)*
X134747000Y-123215400D03*
X125628400Y-124053600D03*
G04 #@! TO.N,RESET_N*
X136321800Y-121564400D03*
X125603000Y-120726200D03*
G04 #@! TO.N,ESP_EN*
X137109200Y-130429000D03*
X163728400Y-118592600D03*
G04 #@! TO.N,Net-(U2-Pad3)*
X134010400Y-125730000D03*
X128976101Y-126751099D03*
G04 #@! TO.N,SPI_MOSI*
X135483600Y-130479800D03*
X155651200Y-119176800D03*
G04 #@! TO.N,SPI_MISO*
X136347200Y-130479800D03*
X164155100Y-128879600D03*
G04 #@! TO.N,SPI_CSO*
X136321800Y-129616200D03*
X164541200Y-134594600D03*
X156006800Y-129946400D03*
X161747200Y-133934200D03*
G04 #@! TO.N,SPI_CLK*
X137134600Y-128828800D03*
X158750000Y-118694200D03*
G04 #@! TO.N,/D6*
X133934200Y-123215400D03*
X116515097Y-114523303D03*
G04 #@! TO.N,/E6*
X133934200Y-124002800D03*
X116001800Y-114579400D03*
G04 #@! TO.N,/TCK*
X130733800Y-124841000D03*
X146202400Y-126034800D03*
G04 #@! TO.N,/TDO*
X134696200Y-124028200D03*
X141986000Y-124866400D03*
G04 #@! TO.N,/TMS*
X129870200Y-125577600D03*
G04 #@! TO.N,/TDI*
X133934200Y-124790200D03*
G04 #@! TO.N,Net-(R9-Pad2)*
X133121400Y-124028200D03*
X128498600Y-119659400D03*
G04 #@! TO.N,/J7*
X135509000Y-127254000D03*
X133985000Y-134162800D03*
G04 #@! TO.N,/K7*
X134747000Y-128041400D03*
X122529600Y-134137400D03*
G04 #@! TO.N,/L5*
X133121400Y-128828800D03*
X128498600Y-134112000D03*
G04 #@! TO.N,/M3*
X131521200Y-129641600D03*
X127990600Y-134137400D03*
G04 #@! TO.N,/L3*
X131521200Y-128828800D03*
X125984000Y-134162800D03*
G04 #@! TO.N,/L4*
X132334000Y-128828800D03*
X126466600Y-134188200D03*
G04 #@! TO.N,/K6*
X133934200Y-128016000D03*
X121945400Y-134137400D03*
G04 #@! TO.N,/K2*
X130733800Y-128016000D03*
X119964200Y-134162800D03*
G04 #@! TO.N,/K5*
X133146800Y-128016000D03*
X120523000Y-134137400D03*
G04 #@! TO.N,/H3*
X131597400Y-125628400D03*
X116884565Y-134131165D03*
G04 #@! TO.N,/K1*
X129870200Y-127939800D03*
G04 #@! TO.N,/H2*
X130683000Y-125628400D03*
X129286000Y-124750801D03*
G04 #@! TO.N,/J9*
X137109200Y-127203200D03*
X144348200Y-134112000D03*
G04 #@! TO.N,/H9*
X137109200Y-126466600D03*
X146380200Y-134162800D03*
G04 #@! TO.N,/B2*
X130733800Y-120827800D03*
X124002800Y-114427000D03*
G04 #@! TO.N,/B3*
X131546600Y-120827800D03*
X125958600Y-114452400D03*
G04 #@! TO.N,/B4*
X132334000Y-120827800D03*
X127990600Y-114503200D03*
G04 #@! TO.N,/B5*
X133121400Y-120827800D03*
X130048000Y-114655600D03*
G04 #@! TO.N,/B6*
X133934200Y-120827800D03*
X132003800Y-114554000D03*
G04 #@! TO.N,/F4*
X132334000Y-124028200D03*
X126136400Y-117322600D03*
X125603000Y-116357400D03*
X118008400Y-114579400D03*
G04 #@! TO.N,/G9*
X137134600Y-125577600D03*
X150368000Y-134137400D03*
G04 #@! TO.N,/G10*
X137909300Y-125615700D03*
X150901400Y-134112000D03*
G04 #@! TO.N,/G12*
X139547600Y-125603000D03*
X160401000Y-134137400D03*
G04 #@! TO.N,/G13*
X140385800Y-125577600D03*
X160883600Y-134162800D03*
G04 #@! TO.N,/H10*
X137922000Y-126441200D03*
X146888200Y-134162800D03*
G04 #@! TO.N,/J5*
X133121400Y-126441200D03*
G04 #@! TO.N,/J6*
X133915824Y-127294601D03*
X122682000Y-122351800D03*
G04 #@! TO.N,/J10*
X137922000Y-127203200D03*
X144881600Y-134162800D03*
G04 #@! TO.N,/J12*
X158394400Y-134112000D03*
X139522200Y-127203200D03*
G04 #@! TO.N,/J13*
X156895800Y-134137400D03*
X140792200Y-127508000D03*
G04 #@! TO.N,/K10*
X137922000Y-128016000D03*
X148945600Y-134086600D03*
G04 #@! TO.N,/K11*
X138709400Y-128016000D03*
X150596600Y-132513700D03*
X154940000Y-134112000D03*
G04 #@! TO.N,/K12*
X139522200Y-128016000D03*
X156413200Y-134112000D03*
X151692599Y-132134599D03*
G04 #@! TO.N,/L11*
X138709400Y-128803400D03*
X158978600Y-134061200D03*
G04 #@! TO.N,/L12*
X139522200Y-128803400D03*
X149098000Y-132892800D03*
G04 #@! TO.N,/M10*
X137922000Y-129616200D03*
X142722600Y-134112000D03*
G04 #@! TO.N,/M12*
X139522200Y-129616200D03*
X148437600Y-134112000D03*
G04 #@! TO.N,/M13*
X140360400Y-128854200D03*
G04 #@! TO.N,/B12*
X139496800Y-120827800D03*
X148234400Y-114579400D03*
G04 #@! TO.N,/C9*
X137109200Y-121640600D03*
X144012535Y-114497735D03*
G04 #@! TO.N,/C10*
X137922000Y-121640600D03*
X145965035Y-114545235D03*
G04 #@! TO.N,/C11*
X138709400Y-121640600D03*
X149933535Y-114576735D03*
G04 #@! TO.N,/C12*
X139522200Y-121640600D03*
X152349200Y-114554000D03*
G04 #@! TO.N,/D8*
X135534400Y-122428000D03*
X121945400Y-114554000D03*
G04 #@! TO.N,/D9*
X136321800Y-122478800D03*
X122504200Y-114528600D03*
G04 #@! TO.N,/D11*
X138709400Y-122428000D03*
X148869400Y-114579400D03*
G04 #@! TO.N,/D12*
X139522200Y-122402600D03*
X154330400Y-114604800D03*
G04 #@! TO.N,/E8*
X135534400Y-123240800D03*
X120085018Y-114605527D03*
G04 #@! TO.N,/E9*
X136321800Y-123215400D03*
X120523000Y-114554000D03*
G04 #@! TO.N,/E10*
X137109200Y-123240800D03*
X158877000Y-114630200D03*
G04 #@! TO.N,/E12*
X139547600Y-123266200D03*
X158343600Y-114604800D03*
G04 #@! TO.N,/E13*
X140385800Y-123240800D03*
X156870400Y-114655600D03*
G04 #@! TO.N,/F8*
X136321800Y-124028200D03*
X152882600Y-114503200D03*
G04 #@! TO.N,/F9*
X137134600Y-124028200D03*
X154838400Y-114630200D03*
G04 #@! TO.N,/F10*
X137922000Y-124028200D03*
X156286200Y-114655600D03*
G04 #@! TO.N,/F12*
X139598400Y-124028200D03*
X160324800Y-114554000D03*
G04 #@! TO.N,/F13*
X140385800Y-124002800D03*
X153466800Y-114757200D03*
X160883600Y-114554000D03*
G04 #@! TO.N,/K8*
X134442200Y-134162800D03*
X135534400Y-127995300D03*
G04 #@! TO.N,/H4*
X132308600Y-125628400D03*
X116230400Y-126619000D03*
G04 #@! TO.N,/H5*
X133146800Y-125628400D03*
X114122200Y-127685800D03*
G04 #@! TO.N,/J1*
X129844800Y-127177800D03*
G04 #@! TO.N,/J2*
X130733800Y-127228600D03*
X118008400Y-134162800D03*
G04 #@! TO.N,/M1*
X129870200Y-129565400D03*
X122580400Y-128066800D03*
G04 #@! TO.N,/M2*
X130733800Y-129616200D03*
X122656600Y-127304800D03*
G04 #@! TO.N,/J5*
X122593100Y-124218700D03*
G04 #@! TO.N,/M4*
X132334000Y-129616200D03*
X129971800Y-134137400D03*
G04 #@! TO.N,/M5*
X133146800Y-129616200D03*
X130505200Y-134112000D03*
G04 #@! TO.N,Net-(D2-Pad2)*
X119202200Y-116382800D03*
X120103900Y-121018300D03*
G04 #@! TO.N,Net-(D4-Pad2)*
X119240300Y-118351300D03*
X119976900Y-123063000D03*
G04 #@! TO.N,/M7*
X118503700Y-126965700D03*
G04 #@! TO.N,/N6*
X133219518Y-133695401D03*
X117919500Y-127101600D03*
G04 #@! TO.N,/ESP8266-12E/GPIO4*
X121412000Y-128041400D03*
X161277300Y-133870700D03*
G04 #@! TO.N,/ESP8266-12E/GPIO5*
X121911154Y-128050246D03*
X162864800Y-133527800D03*
G04 #@! TO.N,Net-(R23-Pad2)*
X119951500Y-131495800D03*
X123151900Y-129349500D03*
G04 #@! TD*
D13*
G04 #@! TO.N,GND*
X140385800Y-129667000D02*
X140639800Y-129921000D01*
X139371701Y-126316101D02*
X139522200Y-126466600D01*
X139136101Y-126080501D02*
X139371701Y-126316101D01*
X139136101Y-123656463D02*
X139136101Y-126080501D01*
X138728436Y-123248798D02*
X139136101Y-123656463D01*
X134571101Y-128678301D02*
X134721600Y-128828800D01*
X134371099Y-128478299D02*
X134571101Y-128678301D01*
X134371099Y-127118358D02*
X134371099Y-128478299D01*
X132581404Y-126591699D02*
X132857605Y-126867900D01*
X132857605Y-126867900D02*
X134120641Y-126867900D01*
X132484499Y-126591699D02*
X132581404Y-126591699D01*
X132334000Y-126441200D02*
X132484499Y-126591699D01*
X131521200Y-121615200D02*
X128625600Y-121615200D01*
X134278141Y-127025400D02*
X134278141Y-127011659D01*
X134120641Y-126867900D02*
X134278141Y-127025400D01*
X134278141Y-127025400D02*
X134371099Y-127118358D01*
X134120641Y-126867900D02*
X134218700Y-126867900D01*
X134218700Y-126867900D02*
X134442200Y-126644400D01*
G04 #@! TO.N,3.3V*
X138558901Y-125758599D02*
X138709400Y-125608100D01*
X138313199Y-126004301D02*
X138558901Y-125758599D01*
X135920499Y-126004301D02*
X138313199Y-126004301D01*
X135534400Y-126390400D02*
X135920499Y-126004301D01*
X138709400Y-124028200D02*
X138709400Y-125608100D01*
X133172200Y-121615200D02*
X135534400Y-121615200D01*
X132334000Y-122453400D02*
X133172200Y-121615200D01*
G04 #@! TO.N,GPIO0*
X168356299Y-111119901D02*
X172034200Y-107442000D01*
X168356299Y-118648499D02*
X168356299Y-111119901D01*
X168681400Y-118973600D02*
X168356299Y-118648499D01*
G04 #@! TO.N,RESET*
X173431200Y-110566200D02*
X173532800Y-110566200D01*
X168783000Y-115214400D02*
X173431200Y-110566200D01*
G04 #@! TO.N,DTR*
X170811398Y-115112800D02*
X172946799Y-112977399D01*
X170535600Y-115112800D02*
X170811398Y-115112800D01*
G04 #@! TO.N,Net-(R1-Pad1)*
X132457518Y-122936000D02*
X125653800Y-122936000D01*
X132613400Y-122936000D02*
X132457518Y-122936000D01*
X133146800Y-122402600D02*
X132613400Y-122936000D01*
G04 #@! TO.N,Net-(R2-Pad2)*
X135534400Y-124028200D02*
X135107699Y-124454901D01*
X134179619Y-124454901D02*
X134108518Y-124383800D01*
X135107699Y-124454901D02*
X134179619Y-124454901D01*
X134108518Y-124383800D02*
X131318000Y-124383800D01*
X130984318Y-124383800D02*
X130938617Y-124429501D01*
X131318000Y-124383800D02*
X130984318Y-124383800D01*
X126344699Y-124404101D02*
X125628400Y-125120400D01*
X130964017Y-124404101D02*
X126344699Y-124404101D01*
X130984318Y-124383800D02*
X130964017Y-124404101D01*
G04 #@! TO.N,Net-(R3-Pad1)*
X125877301Y-122041901D02*
X125679200Y-121843800D01*
X131907299Y-122041901D02*
X125877301Y-122041901D01*
X132334000Y-121615200D02*
X131907299Y-122041901D01*
G04 #@! TO.N,Net-(R4-Pad2)*
X134747000Y-123215400D02*
X134467600Y-123494800D01*
X126119899Y-123562101D02*
X125628400Y-124053600D01*
X134400299Y-123562101D02*
X126119899Y-123562101D01*
X134467600Y-123494800D02*
X134400299Y-123562101D01*
G04 #@! TO.N,RESET_N*
X136321800Y-121615200D02*
X135966200Y-121259600D01*
X126065299Y-121188499D02*
X125603000Y-120726200D01*
X135895099Y-121188499D02*
X126065299Y-121188499D01*
X135966200Y-121259600D02*
X135895099Y-121188499D01*
G04 #@! TO.N,ESP_EN*
X137109200Y-130698782D02*
X141182818Y-134772400D01*
X137109200Y-130429000D02*
X137109200Y-130698782D01*
X141182818Y-136937536D02*
X141964082Y-137718800D01*
X141182818Y-134772400D02*
X141182818Y-136937536D01*
X141964082Y-137718800D02*
X160909000Y-137718800D01*
X163728400Y-134899400D02*
X163728400Y-118592600D01*
X160909000Y-137718800D02*
X163728400Y-134899400D01*
G04 #@! TO.N,SPI_MISO*
X136347200Y-130479800D02*
X140792200Y-134924800D01*
X140792200Y-137045300D02*
X141897500Y-138150600D01*
X140792200Y-134924800D02*
X140792200Y-137045300D01*
X141897500Y-138150600D02*
X160975583Y-138150600D01*
X160975583Y-138150600D02*
X164080810Y-135045373D01*
X164080810Y-135045373D02*
X164080810Y-128953890D01*
X164080810Y-128953890D02*
X164155100Y-128879600D01*
G04 #@! TO.N,/J7*
X135534400Y-127228600D02*
X135155299Y-127607701D01*
X135155299Y-127607701D02*
X135155299Y-130125783D01*
X135155299Y-130125783D02*
X133985000Y-131296082D01*
X133985000Y-131296082D02*
X133985000Y-134162800D01*
G04 #@! TO.N,/L5*
X131900301Y-129459631D02*
X131900301Y-131370699D01*
X132152031Y-129207901D02*
X131900301Y-129459631D01*
X132742299Y-129207901D02*
X132152031Y-129207901D01*
X133121400Y-128828800D02*
X132742299Y-129207901D01*
X129159000Y-134112000D02*
X128498600Y-134112000D01*
X131900301Y-131370699D02*
X129159000Y-134112000D01*
G04 #@! TO.N,/M3*
X131521200Y-129641600D02*
X131521200Y-131089400D01*
X131521200Y-131089400D02*
X129082800Y-133527800D01*
X127990600Y-134058930D02*
X127990600Y-134137400D01*
X128521730Y-133527800D02*
X127990600Y-134058930D01*
X129082800Y-133527800D02*
X128521730Y-133527800D01*
G04 #@! TO.N,/L3*
X130317967Y-129470963D02*
X130317967Y-131048033D01*
X130960130Y-128828800D02*
X130317967Y-129470963D01*
X131521200Y-128828800D02*
X130960130Y-128828800D01*
X130317967Y-131048033D02*
X128879600Y-132486400D01*
X128879600Y-132486400D02*
X128422400Y-132486400D01*
X128422400Y-132486400D02*
X128320800Y-132486400D01*
X125984000Y-134109730D02*
X125984000Y-134162800D01*
X127607330Y-132486400D02*
X125984000Y-134109730D01*
X128320800Y-132486400D02*
X127607330Y-132486400D01*
G04 #@! TO.N,/L4*
X131112901Y-129488829D02*
X131112901Y-130837299D01*
X132334000Y-128828800D02*
X132082270Y-128828800D01*
X132082270Y-128828800D02*
X131648571Y-129262499D01*
X131648571Y-129262499D02*
X131339231Y-129262499D01*
X131339231Y-129262499D02*
X131112901Y-129488829D01*
X131112901Y-130837299D02*
X129006600Y-132943600D01*
X129006600Y-132943600D02*
X128498600Y-132943600D01*
X127254000Y-134188200D02*
X126466600Y-134188200D01*
X128498600Y-132943600D02*
X127254000Y-134188200D01*
G04 #@! TO.N,/K2*
X129464565Y-129285235D02*
X129464565Y-131393435D01*
X130733800Y-128016000D02*
X129464565Y-129285235D01*
X129464565Y-131393435D02*
X128778000Y-132080000D01*
X128778000Y-132080000D02*
X127101600Y-132080000D01*
X127101600Y-132080000D02*
X125476000Y-133705600D01*
X119964200Y-134135130D02*
X119964200Y-134162800D01*
X120393730Y-133705600D02*
X119964200Y-134135130D01*
X125476000Y-133705600D02*
X120393730Y-133705600D01*
G04 #@! TO.N,/H3*
X130454029Y-126007501D02*
X129032000Y-127429530D01*
X131167499Y-126007501D02*
X130454029Y-126007501D01*
X131546600Y-125628400D02*
X131167499Y-126007501D01*
X129032000Y-127429530D02*
X128701800Y-127759730D01*
X128701800Y-127759730D02*
X128701800Y-131114800D01*
X128701800Y-131114800D02*
X127101600Y-131114800D01*
X127101600Y-131114800D02*
X125171200Y-133045200D01*
X117970530Y-133045200D02*
X116884565Y-134131165D01*
X125171200Y-133045200D02*
X117970530Y-133045200D01*
G04 #@! TO.N,/J9*
X137109200Y-128171882D02*
X138301101Y-129363783D01*
X138301101Y-129363783D02*
X138301101Y-130608699D01*
X137109200Y-127203200D02*
X137109200Y-128171882D01*
X139242800Y-131550398D02*
X139246598Y-131550398D01*
X138301101Y-130608699D02*
X139242800Y-131550398D01*
X139246598Y-131550398D02*
X141401800Y-133705600D01*
X143941800Y-133705600D02*
X144348200Y-134112000D01*
X141401800Y-133705600D02*
X143941800Y-133705600D01*
G04 #@! TO.N,/H9*
X146167361Y-134162800D02*
X145024361Y-133019800D01*
X146380200Y-134162800D02*
X146167361Y-134162800D01*
X137285099Y-126591699D02*
X137134600Y-126441200D01*
X137513701Y-126820301D02*
X137285099Y-126591699D01*
X138100171Y-126820301D02*
X137513701Y-126820301D01*
X139088501Y-127808631D02*
X138100171Y-126820301D01*
X139088501Y-128953901D02*
X139088501Y-127808631D01*
X139317101Y-129182501D02*
X139088501Y-128953901D01*
X139901301Y-129434231D02*
X139649571Y-129182501D01*
X139649571Y-129182501D02*
X139317101Y-129182501D01*
X139901301Y-130427101D02*
X139901301Y-129434231D01*
X142494000Y-133019800D02*
X139901301Y-130427101D01*
X145024361Y-133019800D02*
X142494000Y-133019800D01*
G04 #@! TO.N,/B2*
X124333000Y-114427000D02*
X124002800Y-114427000D01*
X130733800Y-120827800D02*
X124333000Y-114427000D01*
G04 #@! TO.N,/B3*
X131546600Y-120040400D02*
X125958600Y-114452400D01*
X131546600Y-120827800D02*
X131546600Y-120040400D01*
G04 #@! TO.N,/B4*
X132334000Y-120827800D02*
X132334000Y-117729000D01*
X129108200Y-114503200D02*
X127990600Y-114503200D01*
X132334000Y-117729000D02*
X129108200Y-114503200D01*
G04 #@! TO.N,/B5*
X133121400Y-120827800D02*
X133121400Y-117017800D01*
X130759200Y-114655600D02*
X130048000Y-114655600D01*
X133121400Y-117017800D02*
X130759200Y-114655600D01*
G04 #@! TO.N,/B6*
X133934200Y-120614961D02*
X133908800Y-120589561D01*
X133934200Y-120827800D02*
X133934200Y-120614961D01*
X133908800Y-116459000D02*
X132003800Y-114554000D01*
X133908800Y-120589561D02*
X133908800Y-116459000D01*
G04 #@! TO.N,/G12*
X159615870Y-134137400D02*
X159107870Y-133629400D01*
X160401000Y-134137400D02*
X159615870Y-134137400D01*
X159107870Y-133629400D02*
X157657800Y-133629400D01*
X157657800Y-133629400D02*
X156641800Y-132613400D01*
X156641800Y-132613400D02*
X154508200Y-132613400D01*
X154508200Y-132613400D02*
X152806400Y-130911600D01*
X152806400Y-130911600D02*
X152577800Y-130911600D01*
X152577800Y-130911600D02*
X148209000Y-126542800D01*
X140462000Y-126542800D02*
X139522200Y-125603000D01*
X148209000Y-126542800D02*
X140462000Y-126542800D01*
G04 #@! TO.N,/G13*
X160883600Y-133949961D02*
X160207439Y-133273800D01*
X160883600Y-134162800D02*
X160883600Y-133949961D01*
X160207439Y-133273800D02*
X157734000Y-133273800D01*
X157734000Y-133273800D02*
X156768800Y-132308600D01*
X156768800Y-132308600D02*
X154635200Y-132308600D01*
X154635200Y-132308600D02*
X149238067Y-126911467D01*
X149238067Y-126911467D02*
X149238067Y-124854067D01*
X149238067Y-124854067D02*
X148412200Y-124028200D01*
X141935200Y-124028200D02*
X140385800Y-125577600D01*
X148412200Y-124028200D02*
X141935200Y-124028200D01*
G04 #@! TO.N,/H10*
X146888200Y-133949961D02*
X145500839Y-132562600D01*
X146888200Y-134162800D02*
X146888200Y-133949961D01*
X139704169Y-127636899D02*
X139371699Y-127636899D01*
X144629870Y-132562600D02*
X139704169Y-127636899D01*
X145500839Y-132562600D02*
X144629870Y-132562600D01*
X138176000Y-126441200D02*
X137922000Y-126441200D01*
X139371699Y-127636899D02*
X138176000Y-126441200D01*
G04 #@! TO.N,/J10*
X138072499Y-127353699D02*
X137922000Y-127203200D01*
X144881600Y-134162800D02*
X144805400Y-134162800D01*
X138963400Y-130708400D02*
X138963400Y-129595016D01*
X144805400Y-134162800D02*
X144727301Y-134084701D01*
X144727301Y-133930031D02*
X144147270Y-133350000D01*
X141605000Y-133350000D02*
X138963400Y-130708400D01*
X144727301Y-134084701D02*
X144727301Y-133930031D01*
X138301101Y-127582301D02*
X138072499Y-127353699D01*
X144147270Y-133350000D02*
X141605000Y-133350000D01*
X138963400Y-129595016D02*
X138301101Y-128932717D01*
X138301101Y-128932717D02*
X138301101Y-127582301D01*
G04 #@! TO.N,/J13*
X156895800Y-133924561D02*
X156270439Y-133299200D01*
X156895800Y-134137400D02*
X156895800Y-133924561D01*
X156270439Y-133299200D02*
X154101800Y-133299200D01*
X152558098Y-131755498D02*
X151378302Y-131755498D01*
X154101800Y-133299200D02*
X152558098Y-131755498D01*
X151378302Y-131755498D02*
X151358600Y-131775200D01*
X140792200Y-127879378D02*
X140792200Y-127508000D01*
X144688022Y-131775200D02*
X140792200Y-127879378D01*
X151358600Y-131775200D02*
X144688022Y-131775200D01*
G04 #@! TO.N,/K11*
X150747099Y-132664199D02*
X150747099Y-132687699D01*
X150596600Y-132513700D02*
X150747099Y-132664199D01*
X152171400Y-134112000D02*
X154940000Y-134112000D01*
X150747099Y-132687699D02*
X152171400Y-134112000D01*
G04 #@! TO.N,/K12*
X156034099Y-133732899D02*
X156262701Y-133961501D01*
X156262701Y-133961501D02*
X156413200Y-134112000D01*
X153388701Y-133732899D02*
X156034099Y-133732899D01*
X151940900Y-132285098D02*
X153388701Y-133732899D01*
X151843098Y-132285098D02*
X151940900Y-132285098D01*
X151692599Y-132134599D02*
X151843098Y-132285098D01*
G04 #@! TO.N,/M10*
X137922000Y-129616200D02*
X137922000Y-131013200D01*
X141020800Y-134112000D02*
X142722600Y-134112000D01*
X137922000Y-131013200D02*
X141020800Y-134112000D01*
G04 #@! TO.N,/B12*
X139647299Y-120677301D02*
X139647299Y-120300545D01*
X139496800Y-120827800D02*
X139647299Y-120677301D01*
X139647299Y-120300545D02*
X140364644Y-119583200D01*
X140364644Y-119583200D02*
X140792200Y-119583200D01*
X140792200Y-119583200D02*
X145211800Y-115163600D01*
X145211800Y-115163600D02*
X146151600Y-115163600D01*
X146735800Y-114579400D02*
X148234400Y-114579400D01*
X146151600Y-115163600D02*
X146735800Y-114579400D01*
G04 #@! TO.N,/C9*
X137109200Y-121401070D02*
X144012535Y-114497735D01*
X137109200Y-121640600D02*
X137109200Y-121401070D01*
G04 #@! TO.N,/C10*
X145880070Y-114630200D02*
X145965035Y-114545235D01*
X144932400Y-114630200D02*
X145880070Y-114630200D01*
X137922000Y-121640600D02*
X144932400Y-114630200D01*
G04 #@! TO.N,/C12*
X139522200Y-121640600D02*
X143992600Y-117170200D01*
X143992600Y-117170200D02*
X145237200Y-115925600D01*
X145237200Y-115925600D02*
X145567400Y-115595400D01*
X145567400Y-115595400D02*
X146634200Y-115595400D01*
X146634200Y-115595400D02*
X147218400Y-115011200D01*
X151892000Y-115011200D02*
X152349200Y-114554000D01*
X147218400Y-115011200D02*
X151892000Y-115011200D01*
G04 #@! TO.N,/D12*
X139801600Y-122402600D02*
X139522200Y-122402600D01*
X145923000Y-116332000D02*
X139827000Y-122428000D01*
X154330400Y-114604800D02*
X153212800Y-115722400D01*
X139827000Y-122428000D02*
X139801600Y-122402600D01*
X153212800Y-115722400D02*
X147574000Y-115722400D01*
X147574000Y-115722400D02*
X146964400Y-116332000D01*
X146964400Y-116332000D02*
X145923000Y-116332000D01*
G04 #@! TO.N,/E12*
X139868901Y-123587501D02*
X139547600Y-123266200D01*
X154863800Y-115468400D02*
X153822400Y-116509800D01*
X153822400Y-116509800D02*
X148056600Y-116509800D01*
X141198600Y-122259822D02*
X141198600Y-122941118D01*
X157480000Y-115468400D02*
X154863800Y-115468400D01*
X158343600Y-114604800D02*
X157480000Y-115468400D01*
X146135822Y-117322600D02*
X141198600Y-122259822D01*
X148056600Y-116509800D02*
X147243800Y-117322600D01*
X141198600Y-122941118D02*
X140552217Y-123587501D01*
X147243800Y-117322600D02*
X146135822Y-117322600D01*
X140552217Y-123587501D02*
X139868901Y-123587501D01*
G04 #@! TO.N,/F8*
X152882600Y-114581670D02*
X152882600Y-114503200D01*
X152072070Y-115392200D02*
X152882600Y-114581670D01*
X137332682Y-122504200D02*
X137922000Y-122504200D01*
X136702800Y-123647200D02*
X136702800Y-123134082D01*
X136321800Y-124028200D02*
X136702800Y-123647200D01*
X145821400Y-115925600D02*
X146888200Y-115925600D01*
X138406499Y-122019701D02*
X139727299Y-122019701D01*
X139727299Y-122019701D02*
X145821400Y-115925600D01*
X136702800Y-123134082D02*
X137332682Y-122504200D01*
X146888200Y-115925600D02*
X147421600Y-115392200D01*
X137922000Y-122504200D02*
X138406499Y-122019701D01*
X147421600Y-115392200D02*
X152072070Y-115392200D01*
G04 #@! TO.N,/F9*
X139331381Y-122774701D02*
X140039099Y-122774701D01*
X140039099Y-122774701D02*
X145973800Y-116840000D01*
X145973800Y-116840000D02*
X147091400Y-116840000D01*
X147091400Y-116840000D02*
X147853400Y-116078000D01*
X147853400Y-116078000D02*
X153492200Y-116078000D01*
X154838400Y-114731800D02*
X154838400Y-114630200D01*
X153492200Y-116078000D02*
X154838400Y-114731800D01*
X139317383Y-122788699D02*
X137717183Y-122788699D01*
X139331381Y-122774701D02*
X139317383Y-122788699D01*
X137134600Y-124028200D02*
X137717183Y-122788699D01*
G04 #@! TO.N,/F12*
X140056340Y-124349501D02*
X140775699Y-124349501D01*
X139735039Y-124028200D02*
X140056340Y-124349501D01*
X139522200Y-124028200D02*
X139735039Y-124028200D01*
X140775699Y-124349501D02*
X143662400Y-121462800D01*
X143662400Y-121462800D02*
X148513800Y-121462800D01*
X148513800Y-121462800D02*
X149402800Y-120573800D01*
X149402800Y-120573800D02*
X149402800Y-119532400D01*
X149402800Y-119532400D02*
X152019000Y-116916200D01*
X152019000Y-116916200D02*
X154127200Y-116916200D01*
X154127200Y-116916200D02*
X155194000Y-115849400D01*
X159029400Y-115849400D02*
X160324800Y-114554000D01*
X155194000Y-115849400D02*
X159029400Y-115849400D01*
G04 #@! TO.N,/K8*
X134442200Y-132156200D02*
X134442200Y-134162800D01*
X135910301Y-130274983D02*
X135910301Y-130684617D01*
X135910301Y-130684617D02*
X135099118Y-131495800D01*
X135534400Y-129899082D02*
X135910301Y-130274983D01*
X135534400Y-127995300D02*
X135534400Y-129899082D01*
X135099118Y-131499282D02*
X134442200Y-132156200D01*
X135099118Y-131495800D02*
X135099118Y-131499282D01*
G04 #@! TO.N,/H4*
X130075017Y-125150899D02*
X126664701Y-125150899D01*
X130191819Y-125267701D02*
X130075017Y-125150899D01*
X131947901Y-125267701D02*
X130191819Y-125267701D01*
X132308600Y-125628400D02*
X131947901Y-125267701D01*
X125196600Y-126619000D02*
X116230400Y-126619000D01*
X126664701Y-125150899D02*
X125196600Y-126619000D01*
G04 #@! TO.N,/J2*
X129688231Y-127560699D02*
X129133600Y-128115330D01*
X130401701Y-127560699D02*
X129688231Y-127560699D01*
X130733800Y-127228600D02*
X130401701Y-127560699D01*
X129133600Y-128115330D02*
X129133600Y-131267200D01*
X128625610Y-131775190D02*
X126974590Y-131775190D01*
X129133600Y-131267200D02*
X128625610Y-131775190D01*
X126974590Y-131775190D02*
X125399780Y-133350000D01*
X118821200Y-133350000D02*
X118008400Y-134162800D01*
X125399780Y-133350000D02*
X118821200Y-133350000D01*
G04 #@! TO.N,/J12*
X140974169Y-127128899D02*
X139596501Y-127128899D01*
X141833600Y-127988330D02*
X140974169Y-127128899D01*
X157431101Y-133961501D02*
X156438600Y-132969000D01*
X139596501Y-127128899D02*
X139522200Y-127203200D01*
X158243901Y-133961501D02*
X157431101Y-133961501D01*
X150368000Y-131318000D02*
X148132800Y-129082800D01*
X156438600Y-132969000D02*
X154305000Y-132969000D01*
X158394400Y-134112000D02*
X158243901Y-133961501D01*
X154305000Y-132969000D02*
X152654000Y-131318000D01*
X141833600Y-128219200D02*
X141833600Y-127988330D01*
X152654000Y-131318000D02*
X150368000Y-131318000D01*
X148132800Y-129082800D02*
X142697200Y-129082800D01*
X142697200Y-129082800D02*
X141833600Y-128219200D01*
G04 #@! TO.N,/M4*
X132334000Y-129616200D02*
X132334000Y-131572000D01*
X129971800Y-133934200D02*
X129971800Y-134137400D01*
X132334000Y-131572000D02*
X129971800Y-133934200D01*
G04 #@! TO.N,/M5*
X133146800Y-131470400D02*
X130505200Y-134112000D01*
X133146800Y-129616200D02*
X133146800Y-131470400D01*
G04 #@! TD*
D14*
G04 #@! TO.N,GND*
G36*
X168879085Y-106997050D02*
X168759500Y-107285754D01*
X168759500Y-107598246D01*
X168879085Y-107886950D01*
X168944035Y-107951900D01*
X168728354Y-107951900D01*
X168439650Y-108071485D01*
X168218685Y-108292450D01*
X168099100Y-108581154D01*
X168099100Y-108893646D01*
X168218685Y-109182350D01*
X168439650Y-109403315D01*
X168728354Y-109522900D01*
X168947512Y-109522900D01*
X167902933Y-110567479D01*
X167843554Y-110607155D01*
X167803878Y-110666534D01*
X167803875Y-110666537D01*
X167686364Y-110842405D01*
X167631167Y-111119901D01*
X167645100Y-111189947D01*
X167645099Y-118578458D01*
X167631167Y-118648499D01*
X167645099Y-118718540D01*
X167645099Y-118718544D01*
X167686363Y-118925994D01*
X167686364Y-118925995D01*
X167803875Y-119101863D01*
X167803877Y-119101865D01*
X167843553Y-119161244D01*
X167902933Y-119200921D01*
X167941184Y-119239172D01*
X168015485Y-119418550D01*
X168236450Y-119639515D01*
X168525154Y-119759100D01*
X168837646Y-119759100D01*
X169126350Y-119639515D01*
X169347315Y-119418550D01*
X169466900Y-119129846D01*
X169466900Y-118817354D01*
X169347315Y-118528650D01*
X169126350Y-118307685D01*
X169067499Y-118283308D01*
X169067499Y-115946776D01*
X169227950Y-115880315D01*
X169448915Y-115659350D01*
X169522258Y-115482283D01*
X169639755Y-132918789D01*
X169531850Y-132963485D01*
X169310885Y-133184450D01*
X169191300Y-133473154D01*
X169191300Y-133785646D01*
X169310885Y-134074350D01*
X169531850Y-134295315D01*
X169820554Y-134414900D01*
X170133046Y-134414900D01*
X170421750Y-134295315D01*
X170642715Y-134074350D01*
X170649426Y-134058149D01*
X172912067Y-134050265D01*
X172943085Y-134125150D01*
X173164050Y-134346115D01*
X173452754Y-134465700D01*
X173765246Y-134465700D01*
X174053950Y-134346115D01*
X174274915Y-134125150D01*
X174307948Y-134045402D01*
X176582001Y-134037478D01*
X176582001Y-137396536D01*
X176492350Y-137306885D01*
X176203646Y-137187300D01*
X175891154Y-137187300D01*
X175602450Y-137306885D01*
X175381485Y-137527850D01*
X175261900Y-137816554D01*
X175261900Y-138129046D01*
X175381485Y-138417750D01*
X175602450Y-138638715D01*
X175891154Y-138758300D01*
X176203646Y-138758300D01*
X176492350Y-138638715D01*
X176582001Y-138549064D01*
X176582001Y-141530000D01*
X112470000Y-141530000D01*
X112470000Y-136851354D01*
X114708300Y-136851354D01*
X114708300Y-137163846D01*
X114827885Y-137452550D01*
X115048850Y-137673515D01*
X115337554Y-137793100D01*
X115650046Y-137793100D01*
X115938750Y-137673515D01*
X116159715Y-137452550D01*
X116279300Y-137163846D01*
X116279300Y-136851354D01*
X116714900Y-136851354D01*
X116714900Y-137163846D01*
X116834485Y-137452550D01*
X117055450Y-137673515D01*
X117344154Y-137793100D01*
X117656646Y-137793100D01*
X117945350Y-137673515D01*
X118166315Y-137452550D01*
X118285900Y-137163846D01*
X118285900Y-136876754D01*
X118721500Y-136876754D01*
X118721500Y-137189246D01*
X118841085Y-137477950D01*
X119062050Y-137698915D01*
X119350754Y-137818500D01*
X119663246Y-137818500D01*
X119951950Y-137698915D01*
X120172915Y-137477950D01*
X120292500Y-137189246D01*
X120292500Y-136902154D01*
X120702700Y-136902154D01*
X120702700Y-137214646D01*
X120822285Y-137503350D01*
X121043250Y-137724315D01*
X121331954Y-137843900D01*
X121644446Y-137843900D01*
X121933150Y-137724315D01*
X122154115Y-137503350D01*
X122273700Y-137214646D01*
X122273700Y-136902154D01*
X122683900Y-136902154D01*
X122683900Y-137214646D01*
X122803485Y-137503350D01*
X123024450Y-137724315D01*
X123313154Y-137843900D01*
X123625646Y-137843900D01*
X123914350Y-137724315D01*
X124135315Y-137503350D01*
X124254900Y-137214646D01*
X124254900Y-136902154D01*
X124690500Y-136902154D01*
X124690500Y-137214646D01*
X124810085Y-137503350D01*
X125031050Y-137724315D01*
X125319754Y-137843900D01*
X125632246Y-137843900D01*
X125920950Y-137724315D01*
X126141915Y-137503350D01*
X126261500Y-137214646D01*
X126261500Y-136927554D01*
X126697100Y-136927554D01*
X126697100Y-137240046D01*
X126816685Y-137528750D01*
X127037650Y-137749715D01*
X127326354Y-137869300D01*
X127638846Y-137869300D01*
X127927550Y-137749715D01*
X128148515Y-137528750D01*
X128268100Y-137240046D01*
X128268100Y-136978354D01*
X128703700Y-136978354D01*
X128703700Y-137290846D01*
X128823285Y-137579550D01*
X129044250Y-137800515D01*
X129332954Y-137920100D01*
X129645446Y-137920100D01*
X129934150Y-137800515D01*
X130155115Y-137579550D01*
X130274700Y-137290846D01*
X130274700Y-137029154D01*
X130710300Y-137029154D01*
X130710300Y-137341646D01*
X130829885Y-137630350D01*
X131050850Y-137851315D01*
X131339554Y-137970900D01*
X131652046Y-137970900D01*
X131940750Y-137851315D01*
X132161715Y-137630350D01*
X132281300Y-137341646D01*
X132281300Y-137079954D01*
X132691500Y-137079954D01*
X132691500Y-137392446D01*
X132811085Y-137681150D01*
X133032050Y-137902115D01*
X133320754Y-138021700D01*
X133633246Y-138021700D01*
X133921950Y-137902115D01*
X134142915Y-137681150D01*
X134262500Y-137392446D01*
X134262500Y-137079954D01*
X134142915Y-136791250D01*
X133921950Y-136570285D01*
X133633246Y-136450700D01*
X133320754Y-136450700D01*
X133032050Y-136570285D01*
X132811085Y-136791250D01*
X132691500Y-137079954D01*
X132281300Y-137079954D01*
X132281300Y-137029154D01*
X132161715Y-136740450D01*
X131940750Y-136519485D01*
X131652046Y-136399900D01*
X131339554Y-136399900D01*
X131050850Y-136519485D01*
X130829885Y-136740450D01*
X130710300Y-137029154D01*
X130274700Y-137029154D01*
X130274700Y-136978354D01*
X130155115Y-136689650D01*
X129934150Y-136468685D01*
X129645446Y-136349100D01*
X129332954Y-136349100D01*
X129044250Y-136468685D01*
X128823285Y-136689650D01*
X128703700Y-136978354D01*
X128268100Y-136978354D01*
X128268100Y-136927554D01*
X128148515Y-136638850D01*
X127927550Y-136417885D01*
X127638846Y-136298300D01*
X127326354Y-136298300D01*
X127037650Y-136417885D01*
X126816685Y-136638850D01*
X126697100Y-136927554D01*
X126261500Y-136927554D01*
X126261500Y-136902154D01*
X126141915Y-136613450D01*
X125920950Y-136392485D01*
X125632246Y-136272900D01*
X125319754Y-136272900D01*
X125031050Y-136392485D01*
X124810085Y-136613450D01*
X124690500Y-136902154D01*
X124254900Y-136902154D01*
X124135315Y-136613450D01*
X123914350Y-136392485D01*
X123625646Y-136272900D01*
X123313154Y-136272900D01*
X123024450Y-136392485D01*
X122803485Y-136613450D01*
X122683900Y-136902154D01*
X122273700Y-136902154D01*
X122154115Y-136613450D01*
X121933150Y-136392485D01*
X121644446Y-136272900D01*
X121331954Y-136272900D01*
X121043250Y-136392485D01*
X120822285Y-136613450D01*
X120702700Y-136902154D01*
X120292500Y-136902154D01*
X120292500Y-136876754D01*
X120172915Y-136588050D01*
X119951950Y-136367085D01*
X119663246Y-136247500D01*
X119350754Y-136247500D01*
X119062050Y-136367085D01*
X118841085Y-136588050D01*
X118721500Y-136876754D01*
X118285900Y-136876754D01*
X118285900Y-136851354D01*
X118166315Y-136562650D01*
X117945350Y-136341685D01*
X117656646Y-136222100D01*
X117344154Y-136222100D01*
X117055450Y-136341685D01*
X116834485Y-136562650D01*
X116714900Y-136851354D01*
X116279300Y-136851354D01*
X116159715Y-136562650D01*
X115938750Y-136341685D01*
X115650046Y-136222100D01*
X115337554Y-136222100D01*
X115048850Y-136341685D01*
X114827885Y-136562650D01*
X114708300Y-136851354D01*
X112470000Y-136851354D01*
X112470000Y-134273254D01*
X113616100Y-134273254D01*
X113616100Y-134585746D01*
X113735685Y-134874450D01*
X113956650Y-135095415D01*
X114245354Y-135215000D01*
X114557846Y-135215000D01*
X114846550Y-135095415D01*
X115067515Y-134874450D01*
X115187100Y-134585746D01*
X115187100Y-134273254D01*
X115067515Y-133984550D01*
X114846550Y-133763585D01*
X114557846Y-133644000D01*
X114245354Y-133644000D01*
X113956650Y-133763585D01*
X113735685Y-133984550D01*
X113616100Y-134273254D01*
X112470000Y-134273254D01*
X112470000Y-131339554D01*
X119166000Y-131339554D01*
X119166000Y-131652046D01*
X119285585Y-131940750D01*
X119506550Y-132161715D01*
X119795254Y-132281300D01*
X120107746Y-132281300D01*
X120396450Y-132161715D01*
X120617415Y-131940750D01*
X120737000Y-131652046D01*
X120737000Y-131339554D01*
X120617415Y-131050850D01*
X120396450Y-130829885D01*
X120107746Y-130710300D01*
X119795254Y-130710300D01*
X119506550Y-130829885D01*
X119285585Y-131050850D01*
X119166000Y-131339554D01*
X112470000Y-131339554D01*
X112470000Y-130260054D01*
X115013100Y-130260054D01*
X115013100Y-130572546D01*
X115132685Y-130861250D01*
X115353650Y-131082215D01*
X115642354Y-131201800D01*
X115954846Y-131201800D01*
X116243550Y-131082215D01*
X116464515Y-130861250D01*
X116584100Y-130572546D01*
X116584100Y-130260054D01*
X116464515Y-129971350D01*
X116243550Y-129750385D01*
X115954846Y-129630800D01*
X115642354Y-129630800D01*
X115353650Y-129750385D01*
X115132685Y-129971350D01*
X115013100Y-130260054D01*
X112470000Y-130260054D01*
X112470000Y-127529554D01*
X113336700Y-127529554D01*
X113336700Y-127842046D01*
X113456285Y-128130750D01*
X113677250Y-128351715D01*
X113965954Y-128471300D01*
X114278446Y-128471300D01*
X114567150Y-128351715D01*
X114788115Y-128130750D01*
X114907700Y-127842046D01*
X114907700Y-127529554D01*
X114788115Y-127240850D01*
X114567150Y-127019885D01*
X114278446Y-126900300D01*
X113965954Y-126900300D01*
X113677250Y-127019885D01*
X113456285Y-127240850D01*
X113336700Y-127529554D01*
X112470000Y-127529554D01*
X112470000Y-125256254D01*
X115267100Y-125256254D01*
X115267100Y-125568746D01*
X115386685Y-125857450D01*
X115607650Y-126078415D01*
X115644752Y-126093783D01*
X115564485Y-126174050D01*
X115444900Y-126462754D01*
X115444900Y-126775246D01*
X115564485Y-127063950D01*
X115785450Y-127284915D01*
X116074154Y-127404500D01*
X116386646Y-127404500D01*
X116566022Y-127330200D01*
X117163970Y-127330200D01*
X117253585Y-127546550D01*
X117474550Y-127767515D01*
X117763254Y-127887100D01*
X118075746Y-127887100D01*
X118364450Y-127767515D01*
X118380765Y-127751200D01*
X118659946Y-127751200D01*
X118948650Y-127631615D01*
X119169615Y-127410650D01*
X119202938Y-127330200D01*
X121076378Y-127330200D01*
X120967050Y-127375485D01*
X120746085Y-127596450D01*
X120626500Y-127885154D01*
X120626500Y-128197646D01*
X120746085Y-128486350D01*
X120967050Y-128707315D01*
X121255754Y-128826900D01*
X121568246Y-128826900D01*
X121650899Y-128792664D01*
X121754908Y-128835746D01*
X122067400Y-128835746D01*
X122225795Y-128770137D01*
X122424154Y-128852300D01*
X122538235Y-128852300D01*
X122485985Y-128904550D01*
X122366400Y-129193254D01*
X122366400Y-129505746D01*
X122485985Y-129794450D01*
X122706950Y-130015415D01*
X122995654Y-130135000D01*
X123308146Y-130135000D01*
X123596850Y-130015415D01*
X123817815Y-129794450D01*
X123937400Y-129505746D01*
X123937400Y-129193254D01*
X123817815Y-128904550D01*
X123596850Y-128683585D01*
X123308146Y-128564000D01*
X123194065Y-128564000D01*
X123246315Y-128511750D01*
X123365900Y-128223046D01*
X123365900Y-127910554D01*
X123306094Y-127766171D01*
X123322515Y-127749750D01*
X123442100Y-127461046D01*
X123442100Y-127330200D01*
X125126559Y-127330200D01*
X125196600Y-127344132D01*
X125266641Y-127330200D01*
X125266646Y-127330200D01*
X125474096Y-127288936D01*
X125709346Y-127131746D01*
X125749024Y-127072364D01*
X126959290Y-125862099D01*
X129137824Y-125862099D01*
X129190708Y-125989773D01*
X129132347Y-125965599D01*
X128819855Y-125965599D01*
X128531151Y-126085184D01*
X128310186Y-126306149D01*
X128190601Y-126594853D01*
X128190601Y-126907345D01*
X128295397Y-127160345D01*
X128248434Y-127207308D01*
X128189054Y-127246985D01*
X128149378Y-127306364D01*
X128149376Y-127306366D01*
X128093362Y-127390197D01*
X128031864Y-127482235D01*
X127990600Y-127689685D01*
X127990600Y-127689689D01*
X127976668Y-127759730D01*
X127990600Y-127829772D01*
X127990601Y-130403600D01*
X127171642Y-130403600D01*
X127101600Y-130389668D01*
X127031558Y-130403600D01*
X127031554Y-130403600D01*
X126824104Y-130444864D01*
X126824102Y-130444865D01*
X126824103Y-130444865D01*
X126648235Y-130562376D01*
X126648233Y-130562378D01*
X126588854Y-130602054D01*
X126549178Y-130661433D01*
X126096400Y-131114211D01*
X126096400Y-130996654D01*
X125976815Y-130707950D01*
X125755850Y-130486985D01*
X125467146Y-130367400D01*
X125154654Y-130367400D01*
X124865950Y-130486985D01*
X124644985Y-130707950D01*
X124525400Y-130996654D01*
X124525400Y-131309146D01*
X124644985Y-131597850D01*
X124865950Y-131818815D01*
X125154654Y-131938400D01*
X125272212Y-131938400D01*
X124876612Y-132334000D01*
X118040571Y-132334000D01*
X117970529Y-132320068D01*
X117900487Y-132334000D01*
X117900484Y-132334000D01*
X117693034Y-132375264D01*
X117693033Y-132375265D01*
X117693032Y-132375265D01*
X117517165Y-132492776D01*
X117517163Y-132492778D01*
X117457784Y-132532454D01*
X117418108Y-132591833D01*
X116618992Y-133390950D01*
X116439615Y-133465250D01*
X116218650Y-133686215D01*
X116099065Y-133974919D01*
X116099065Y-134287411D01*
X116218650Y-134576115D01*
X116439615Y-134797080D01*
X116728319Y-134916665D01*
X117040811Y-134916665D01*
X117329515Y-134797080D01*
X117430665Y-134695930D01*
X117563450Y-134828715D01*
X117852154Y-134948300D01*
X118164646Y-134948300D01*
X118453350Y-134828715D01*
X118674315Y-134607750D01*
X118748615Y-134428373D01*
X119115789Y-134061200D01*
X119178700Y-134061200D01*
X119178700Y-134319046D01*
X119298285Y-134607750D01*
X119519250Y-134828715D01*
X119807954Y-134948300D01*
X120120446Y-134948300D01*
X120274261Y-134884588D01*
X120366754Y-134922900D01*
X120679246Y-134922900D01*
X120967950Y-134803315D01*
X121188915Y-134582350D01*
X121234200Y-134473022D01*
X121279485Y-134582350D01*
X121500450Y-134803315D01*
X121789154Y-134922900D01*
X122101646Y-134922900D01*
X122237500Y-134866627D01*
X122373354Y-134922900D01*
X122685846Y-134922900D01*
X122974550Y-134803315D01*
X123195515Y-134582350D01*
X123264088Y-134416800D01*
X125238991Y-134416800D01*
X125318085Y-134607750D01*
X125539050Y-134828715D01*
X125827754Y-134948300D01*
X126140246Y-134948300D01*
X126194639Y-134925770D01*
X126310354Y-134973700D01*
X126622846Y-134973700D01*
X126802222Y-134899400D01*
X127183959Y-134899400D01*
X127254000Y-134913332D01*
X127324041Y-134899400D01*
X127324046Y-134899400D01*
X127531496Y-134858136D01*
X127587560Y-134820675D01*
X127834354Y-134922900D01*
X128146846Y-134922900D01*
X128275261Y-134869709D01*
X128342354Y-134897500D01*
X128654846Y-134897500D01*
X128834222Y-134823200D01*
X129088959Y-134823200D01*
X129159000Y-134837132D01*
X129229041Y-134823200D01*
X129229046Y-134823200D01*
X129436496Y-134781936D01*
X129477843Y-134754308D01*
X129526850Y-134803315D01*
X129815554Y-134922900D01*
X130128046Y-134922900D01*
X130269161Y-134864448D01*
X130348954Y-134897500D01*
X130661446Y-134897500D01*
X130950150Y-134777915D01*
X131171115Y-134556950D01*
X131245415Y-134377573D01*
X132600105Y-133022883D01*
X132653138Y-133150916D01*
X132553603Y-133250451D01*
X132434018Y-133539155D01*
X132434018Y-133851647D01*
X132553603Y-134140351D01*
X132774568Y-134361316D01*
X133063272Y-134480901D01*
X133266542Y-134480901D01*
X133319085Y-134607750D01*
X133540050Y-134828715D01*
X133828754Y-134948300D01*
X134141246Y-134948300D01*
X134213600Y-134918330D01*
X134285954Y-134948300D01*
X134598446Y-134948300D01*
X134887150Y-134828715D01*
X135108115Y-134607750D01*
X135227700Y-134319046D01*
X135227700Y-134006554D01*
X135153400Y-133827178D01*
X135153400Y-132450788D01*
X135552487Y-132051702D01*
X135611864Y-132012027D01*
X135651538Y-131952651D01*
X135651542Y-131952647D01*
X135658555Y-131942151D01*
X136231159Y-131369547D01*
X140081000Y-135219389D01*
X140081001Y-136975254D01*
X140067068Y-137045300D01*
X140122265Y-137322796D01*
X140239776Y-137498664D01*
X140239779Y-137498667D01*
X140279455Y-137558046D01*
X140338834Y-137597722D01*
X141345078Y-138603967D01*
X141384754Y-138663346D01*
X141444133Y-138703022D01*
X141444135Y-138703024D01*
X141620002Y-138820535D01*
X141620003Y-138820535D01*
X141620004Y-138820536D01*
X141827454Y-138861800D01*
X141827457Y-138861800D01*
X141897499Y-138875732D01*
X141967541Y-138861800D01*
X160905542Y-138861800D01*
X160975583Y-138875732D01*
X161045624Y-138861800D01*
X161045629Y-138861800D01*
X161253079Y-138820536D01*
X161488329Y-138663346D01*
X161528007Y-138603964D01*
X164534179Y-135597793D01*
X164593555Y-135558119D01*
X164633230Y-135498742D01*
X164633234Y-135498738D01*
X164713806Y-135378154D01*
X167845100Y-135378154D01*
X167845100Y-135690646D01*
X167964685Y-135979350D01*
X168185650Y-136200315D01*
X168474354Y-136319900D01*
X168786846Y-136319900D01*
X169075550Y-136200315D01*
X169296515Y-135979350D01*
X169387723Y-135759154D01*
X173382300Y-135759154D01*
X173382300Y-136071646D01*
X173501885Y-136360350D01*
X173722850Y-136581315D01*
X174011554Y-136700900D01*
X174324046Y-136700900D01*
X174612750Y-136581315D01*
X174833715Y-136360350D01*
X174953300Y-136071646D01*
X174953300Y-135759154D01*
X174833715Y-135470450D01*
X174612750Y-135249485D01*
X174324046Y-135129900D01*
X174011554Y-135129900D01*
X173722850Y-135249485D01*
X173501885Y-135470450D01*
X173382300Y-135759154D01*
X169387723Y-135759154D01*
X169416100Y-135690646D01*
X169416100Y-135378154D01*
X169296515Y-135089450D01*
X169075550Y-134868485D01*
X168786846Y-134748900D01*
X168474354Y-134748900D01*
X168185650Y-134868485D01*
X167964685Y-135089450D01*
X167845100Y-135378154D01*
X164713806Y-135378154D01*
X164718269Y-135371475D01*
X164986150Y-135260515D01*
X165207115Y-135039550D01*
X165326700Y-134750846D01*
X165326700Y-134438354D01*
X165207115Y-134149650D01*
X164986150Y-133928685D01*
X164792010Y-133848270D01*
X164792010Y-129353555D01*
X164821015Y-129324550D01*
X164940600Y-129035846D01*
X164940600Y-128723354D01*
X164821015Y-128434650D01*
X164600050Y-128213685D01*
X164439600Y-128147224D01*
X164439600Y-118928222D01*
X164513900Y-118748846D01*
X164513900Y-118436354D01*
X164394315Y-118147650D01*
X164173350Y-117926685D01*
X163884646Y-117807100D01*
X163572154Y-117807100D01*
X163283450Y-117926685D01*
X163062485Y-118147650D01*
X162942900Y-118436354D01*
X162942900Y-118748846D01*
X163017201Y-118928225D01*
X163017200Y-132742300D01*
X162708554Y-132742300D01*
X162419850Y-132861885D01*
X162198885Y-133082850D01*
X162132338Y-133243510D01*
X161903446Y-133148700D01*
X161590954Y-133148700D01*
X161588901Y-133149550D01*
X161433546Y-133085200D01*
X161121054Y-133085200D01*
X161052870Y-133113443D01*
X160759862Y-132820435D01*
X160720185Y-132761054D01*
X160484935Y-132603864D01*
X160277485Y-132562600D01*
X160277480Y-132562600D01*
X160207439Y-132548668D01*
X160137398Y-132562600D01*
X158028589Y-132562600D01*
X157321223Y-131855235D01*
X157281546Y-131795854D01*
X157046296Y-131638664D01*
X156838846Y-131597400D01*
X156838841Y-131597400D01*
X156768800Y-131583468D01*
X156698759Y-131597400D01*
X154929789Y-131597400D01*
X153122543Y-129790154D01*
X155221300Y-129790154D01*
X155221300Y-130102646D01*
X155340885Y-130391350D01*
X155561850Y-130612315D01*
X155850554Y-130731900D01*
X156163046Y-130731900D01*
X156451750Y-130612315D01*
X156672715Y-130391350D01*
X156792300Y-130102646D01*
X156792300Y-129790154D01*
X156672715Y-129501450D01*
X156451750Y-129280485D01*
X156163046Y-129160900D01*
X155850554Y-129160900D01*
X155561850Y-129280485D01*
X155340885Y-129501450D01*
X155221300Y-129790154D01*
X153122543Y-129790154D01*
X149949267Y-126616879D01*
X149949267Y-124924108D01*
X149963199Y-124854066D01*
X149949267Y-124784024D01*
X149949267Y-124784021D01*
X149908003Y-124576571D01*
X149901171Y-124566346D01*
X149790491Y-124400702D01*
X149790489Y-124400700D01*
X149750813Y-124341321D01*
X149691434Y-124301645D01*
X148964624Y-123574836D01*
X148924946Y-123515454D01*
X148793934Y-123427914D01*
X148871239Y-123312218D01*
X148986492Y-122732800D01*
X148871239Y-122153382D01*
X148837027Y-122102180D01*
X149026546Y-121975546D01*
X149066224Y-121916164D01*
X149856169Y-121126220D01*
X149915545Y-121086546D01*
X149955220Y-121027169D01*
X149955224Y-121027165D01*
X150063579Y-120865000D01*
X150072736Y-120851296D01*
X150114000Y-120643846D01*
X150114000Y-120643842D01*
X150127932Y-120573800D01*
X150114000Y-120503758D01*
X150114000Y-119826988D01*
X150920434Y-119020554D01*
X154865700Y-119020554D01*
X154865700Y-119333046D01*
X154985285Y-119621750D01*
X155206250Y-119842715D01*
X155494954Y-119962300D01*
X155807446Y-119962300D01*
X156096150Y-119842715D01*
X156317115Y-119621750D01*
X156436700Y-119333046D01*
X156436700Y-119020554D01*
X156317115Y-118731850D01*
X156123219Y-118537954D01*
X157964500Y-118537954D01*
X157964500Y-118850446D01*
X158084085Y-119139150D01*
X158305050Y-119360115D01*
X158593754Y-119479700D01*
X158906246Y-119479700D01*
X159194950Y-119360115D01*
X159415915Y-119139150D01*
X159535500Y-118850446D01*
X159535500Y-118537954D01*
X159415915Y-118249250D01*
X159194950Y-118028285D01*
X158906246Y-117908700D01*
X158593754Y-117908700D01*
X158305050Y-118028285D01*
X158084085Y-118249250D01*
X157964500Y-118537954D01*
X156123219Y-118537954D01*
X156096150Y-118510885D01*
X155807446Y-118391300D01*
X155494954Y-118391300D01*
X155206250Y-118510885D01*
X154985285Y-118731850D01*
X154865700Y-119020554D01*
X150920434Y-119020554D01*
X151585462Y-118355527D01*
X151726450Y-118496515D01*
X152015154Y-118616100D01*
X152327646Y-118616100D01*
X152616350Y-118496515D01*
X152837315Y-118275550D01*
X152956900Y-117986846D01*
X152956900Y-117674354D01*
X152937451Y-117627400D01*
X154057159Y-117627400D01*
X154127200Y-117641332D01*
X154197241Y-117627400D01*
X154197246Y-117627400D01*
X154404696Y-117586136D01*
X154639946Y-117428946D01*
X154679624Y-117369564D01*
X155488589Y-116560600D01*
X158959359Y-116560600D01*
X159029400Y-116574532D01*
X159099441Y-116560600D01*
X159099446Y-116560600D01*
X159306896Y-116519336D01*
X159542146Y-116362146D01*
X159581824Y-116302764D01*
X160590374Y-115294215D01*
X160604200Y-115288488D01*
X160727354Y-115339500D01*
X161039846Y-115339500D01*
X161328550Y-115219915D01*
X161549515Y-114998950D01*
X161669100Y-114710246D01*
X161669100Y-114397754D01*
X161648058Y-114346954D01*
X165965500Y-114346954D01*
X165965500Y-114659446D01*
X166085085Y-114948150D01*
X166306050Y-115169115D01*
X166594754Y-115288700D01*
X166907246Y-115288700D01*
X167195950Y-115169115D01*
X167416915Y-114948150D01*
X167536500Y-114659446D01*
X167536500Y-114346954D01*
X167416915Y-114058250D01*
X167195950Y-113837285D01*
X166907246Y-113717700D01*
X166594754Y-113717700D01*
X166306050Y-113837285D01*
X166085085Y-114058250D01*
X165965500Y-114346954D01*
X161648058Y-114346954D01*
X161549515Y-114109050D01*
X161328550Y-113888085D01*
X161039846Y-113768500D01*
X160727354Y-113768500D01*
X160604200Y-113819512D01*
X160481046Y-113768500D01*
X160168554Y-113768500D01*
X159879850Y-113888085D01*
X159658885Y-114109050D01*
X159585118Y-114287138D01*
X159542915Y-114185250D01*
X159321950Y-113964285D01*
X159033246Y-113844700D01*
X158720754Y-113844700D01*
X158640961Y-113877752D01*
X158499846Y-113819300D01*
X158187354Y-113819300D01*
X157898650Y-113938885D01*
X157677685Y-114159850D01*
X157603385Y-114339226D01*
X157593618Y-114348993D01*
X157536315Y-114210650D01*
X157315350Y-113989685D01*
X157026646Y-113870100D01*
X156714154Y-113870100D01*
X156578300Y-113926373D01*
X156442446Y-113870100D01*
X156129954Y-113870100D01*
X155841250Y-113989685D01*
X155620285Y-114210650D01*
X155567561Y-114337938D01*
X155504315Y-114185250D01*
X155283350Y-113964285D01*
X154994646Y-113844700D01*
X154682154Y-113844700D01*
X154615061Y-113872491D01*
X154486646Y-113819300D01*
X154174154Y-113819300D01*
X153885450Y-113938885D01*
X153785390Y-114038945D01*
X153623046Y-113971700D01*
X153461965Y-113971700D01*
X153327550Y-113837285D01*
X153038846Y-113717700D01*
X152726354Y-113717700D01*
X152554579Y-113788852D01*
X152505446Y-113768500D01*
X152192954Y-113768500D01*
X151904250Y-113888085D01*
X151683285Y-114109050D01*
X151608985Y-114288427D01*
X151597412Y-114300000D01*
X150669127Y-114300000D01*
X150599450Y-114131785D01*
X150378485Y-113910820D01*
X150089781Y-113791235D01*
X149777289Y-113791235D01*
X149488585Y-113910820D01*
X149400135Y-113999270D01*
X149314350Y-113913485D01*
X149025646Y-113793900D01*
X148713154Y-113793900D01*
X148551900Y-113860694D01*
X148390646Y-113793900D01*
X148078154Y-113793900D01*
X147898778Y-113868200D01*
X146805842Y-113868200D01*
X146735800Y-113854268D01*
X146665758Y-113868200D01*
X146665754Y-113868200D01*
X146458304Y-113909464D01*
X146447409Y-113916744D01*
X146409985Y-113879320D01*
X146121281Y-113759735D01*
X145808789Y-113759735D01*
X145520085Y-113879320D01*
X145480405Y-113919000D01*
X145002442Y-113919000D01*
X144932400Y-113905068D01*
X144862358Y-113919000D01*
X144862354Y-113919000D01*
X144654904Y-113960264D01*
X144616889Y-113985665D01*
X144613557Y-113987892D01*
X144457485Y-113831820D01*
X144168781Y-113712235D01*
X143856289Y-113712235D01*
X143567585Y-113831820D01*
X143346620Y-114052785D01*
X143272320Y-114232161D01*
X136655834Y-120848648D01*
X136652236Y-120851052D01*
X136500651Y-120788263D01*
X136447523Y-120735135D01*
X136407845Y-120675753D01*
X136172595Y-120518563D01*
X135965145Y-120477299D01*
X135965140Y-120477299D01*
X135895099Y-120463367D01*
X135825058Y-120477299D01*
X134639237Y-120477299D01*
X134625218Y-120443455D01*
X134620000Y-120417220D01*
X134620000Y-118893554D01*
X136171300Y-118893554D01*
X136171300Y-119206046D01*
X136290885Y-119494750D01*
X136511850Y-119715715D01*
X136800554Y-119835300D01*
X137113046Y-119835300D01*
X137401750Y-119715715D01*
X137622715Y-119494750D01*
X137742300Y-119206046D01*
X137742300Y-118893554D01*
X137622715Y-118604850D01*
X137401750Y-118383885D01*
X137113046Y-118264300D01*
X136800554Y-118264300D01*
X136511850Y-118383885D01*
X136290885Y-118604850D01*
X136171300Y-118893554D01*
X134620000Y-118893554D01*
X134620000Y-116529042D01*
X134633932Y-116459000D01*
X134620000Y-116388958D01*
X134620000Y-116388954D01*
X134578736Y-116181504D01*
X134534211Y-116114868D01*
X134461224Y-116005635D01*
X134461222Y-116005633D01*
X134421546Y-115946254D01*
X134362167Y-115906578D01*
X132744015Y-114288427D01*
X132669715Y-114109050D01*
X132448750Y-113888085D01*
X132160046Y-113768500D01*
X131847554Y-113768500D01*
X131558850Y-113888085D01*
X131337885Y-114109050D01*
X131304008Y-114190837D01*
X131271946Y-114142854D01*
X131036696Y-113985664D01*
X130829246Y-113944400D01*
X130829241Y-113944400D01*
X130759200Y-113930468D01*
X130689159Y-113944400D01*
X130383622Y-113944400D01*
X130204246Y-113870100D01*
X129891754Y-113870100D01*
X129613387Y-113985403D01*
X129385696Y-113833264D01*
X129178246Y-113792000D01*
X129178241Y-113792000D01*
X129108200Y-113778068D01*
X129038159Y-113792000D01*
X128326222Y-113792000D01*
X128146846Y-113717700D01*
X127834354Y-113717700D01*
X127545650Y-113837285D01*
X127324685Y-114058250D01*
X127205100Y-114346954D01*
X127205100Y-114659446D01*
X127228905Y-114716917D01*
X126698816Y-114186827D01*
X126624515Y-114007450D01*
X126403550Y-113786485D01*
X126114846Y-113666900D01*
X125802354Y-113666900D01*
X125513650Y-113786485D01*
X125292685Y-114007450D01*
X125183305Y-114271517D01*
X124885424Y-113973636D01*
X124845746Y-113914254D01*
X124610496Y-113757064D01*
X124403046Y-113715800D01*
X124403041Y-113715800D01*
X124333000Y-113701868D01*
X124313940Y-113705659D01*
X124159046Y-113641500D01*
X123846554Y-113641500D01*
X123557850Y-113761085D01*
X123336885Y-113982050D01*
X123232458Y-114234159D01*
X123170115Y-114083650D01*
X122949150Y-113862685D01*
X122660446Y-113743100D01*
X122347954Y-113743100D01*
X122194139Y-113806812D01*
X122101646Y-113768500D01*
X121789154Y-113768500D01*
X121500450Y-113888085D01*
X121279485Y-114109050D01*
X121234200Y-114218378D01*
X121188915Y-114109050D01*
X120967950Y-113888085D01*
X120679246Y-113768500D01*
X120366754Y-113768500D01*
X120241810Y-113820253D01*
X120241264Y-113820027D01*
X119928772Y-113820027D01*
X119640068Y-113939612D01*
X119419103Y-114160577D01*
X119299518Y-114449281D01*
X119299518Y-114761773D01*
X119419103Y-115050477D01*
X119640068Y-115271442D01*
X119928772Y-115391027D01*
X120241264Y-115391027D01*
X120366208Y-115339274D01*
X120366754Y-115339500D01*
X120679246Y-115339500D01*
X120967950Y-115219915D01*
X121188915Y-114998950D01*
X121234200Y-114889622D01*
X121279485Y-114998950D01*
X121500450Y-115219915D01*
X121789154Y-115339500D01*
X122101646Y-115339500D01*
X122255461Y-115275788D01*
X122347954Y-115314100D01*
X122660446Y-115314100D01*
X122949150Y-115194515D01*
X123170115Y-114973550D01*
X123274542Y-114721441D01*
X123336885Y-114871950D01*
X123557850Y-115092915D01*
X123846554Y-115212500D01*
X124112712Y-115212500D01*
X124900642Y-116000430D01*
X124817500Y-116201154D01*
X124817500Y-116513646D01*
X124937085Y-116802350D01*
X125158050Y-117023315D01*
X125373230Y-117112445D01*
X125350900Y-117166354D01*
X125350900Y-117478846D01*
X125470485Y-117767550D01*
X125691450Y-117988515D01*
X125980154Y-118108100D01*
X126292646Y-118108100D01*
X126581350Y-117988515D01*
X126735038Y-117834827D01*
X127973673Y-119073462D01*
X127832685Y-119214450D01*
X127713100Y-119503154D01*
X127713100Y-119815646D01*
X127832685Y-120104350D01*
X128053650Y-120325315D01*
X128342354Y-120444900D01*
X128654846Y-120444900D01*
X128943550Y-120325315D01*
X129084538Y-120184327D01*
X129377510Y-120477299D01*
X127480700Y-120477299D01*
X127480700Y-120392154D01*
X127361115Y-120103450D01*
X127140150Y-119882485D01*
X126851446Y-119762900D01*
X126538954Y-119762900D01*
X126250250Y-119882485D01*
X126060200Y-120072535D01*
X126047950Y-120060285D01*
X125759246Y-119940700D01*
X125531659Y-119940700D01*
X125604500Y-119764846D01*
X125604500Y-119452354D01*
X125484915Y-119163650D01*
X125263950Y-118942685D01*
X124975246Y-118823100D01*
X124662754Y-118823100D01*
X124374050Y-118942685D01*
X124153085Y-119163650D01*
X124033500Y-119452354D01*
X124033500Y-119764846D01*
X124153085Y-120053550D01*
X124374050Y-120274515D01*
X124662754Y-120394100D01*
X124890341Y-120394100D01*
X124817500Y-120569954D01*
X124817500Y-120882446D01*
X124937085Y-121171150D01*
X125089035Y-121323100D01*
X125013285Y-121398850D01*
X124893700Y-121687554D01*
X124893700Y-122000046D01*
X125013285Y-122288750D01*
X125101735Y-122377200D01*
X124987885Y-122491050D01*
X124868300Y-122779754D01*
X124868300Y-123092246D01*
X124987885Y-123380950D01*
X125089035Y-123482100D01*
X124962485Y-123608650D01*
X124842900Y-123897354D01*
X124842900Y-124209846D01*
X124962485Y-124498550D01*
X125050935Y-124587000D01*
X124962485Y-124675450D01*
X124842900Y-124964154D01*
X124842900Y-125276646D01*
X124962485Y-125565350D01*
X125103473Y-125706338D01*
X124902012Y-125907800D01*
X116668165Y-125907800D01*
X116718515Y-125857450D01*
X116838100Y-125568746D01*
X116838100Y-125256254D01*
X116718515Y-124967550D01*
X116497550Y-124746585D01*
X116208846Y-124627000D01*
X115896354Y-124627000D01*
X115607650Y-124746585D01*
X115386685Y-124967550D01*
X115267100Y-125256254D01*
X112470000Y-125256254D01*
X112470000Y-123548726D01*
X116617800Y-123548726D01*
X116617800Y-123960474D01*
X116775369Y-124340880D01*
X117066520Y-124632031D01*
X117446926Y-124789600D01*
X117858674Y-124789600D01*
X118239080Y-124632031D01*
X118530231Y-124340880D01*
X118645558Y-124062454D01*
X121807600Y-124062454D01*
X121807600Y-124374946D01*
X121927185Y-124663650D01*
X122148150Y-124884615D01*
X122436854Y-125004200D01*
X122749346Y-125004200D01*
X123038050Y-124884615D01*
X123259015Y-124663650D01*
X123378600Y-124374946D01*
X123378600Y-124062454D01*
X123259015Y-123773750D01*
X123038050Y-123552785D01*
X122749346Y-123433200D01*
X122436854Y-123433200D01*
X122148150Y-123552785D01*
X121927185Y-123773750D01*
X121807600Y-124062454D01*
X118645558Y-124062454D01*
X118687800Y-123960474D01*
X118687800Y-123548726D01*
X118530231Y-123168320D01*
X118268665Y-122906754D01*
X119191400Y-122906754D01*
X119191400Y-123219246D01*
X119310985Y-123507950D01*
X119531950Y-123728915D01*
X119820654Y-123848500D01*
X120133146Y-123848500D01*
X120421850Y-123728915D01*
X120642815Y-123507950D01*
X120762400Y-123219246D01*
X120762400Y-122906754D01*
X120642815Y-122618050D01*
X120421850Y-122397085D01*
X120133146Y-122277500D01*
X119820654Y-122277500D01*
X119531950Y-122397085D01*
X119310985Y-122618050D01*
X119191400Y-122906754D01*
X118268665Y-122906754D01*
X118239080Y-122877169D01*
X117858674Y-122719600D01*
X117446926Y-122719600D01*
X117066520Y-122877169D01*
X116775369Y-123168320D01*
X116617800Y-123548726D01*
X112470000Y-123548726D01*
X112470000Y-122195554D01*
X121896500Y-122195554D01*
X121896500Y-122508046D01*
X122016085Y-122796750D01*
X122237050Y-123017715D01*
X122525754Y-123137300D01*
X122838246Y-123137300D01*
X123126950Y-123017715D01*
X123347915Y-122796750D01*
X123467500Y-122508046D01*
X123467500Y-122195554D01*
X123347915Y-121906850D01*
X123126950Y-121685885D01*
X122838246Y-121566300D01*
X122525754Y-121566300D01*
X122237050Y-121685885D01*
X122016085Y-121906850D01*
X121896500Y-122195554D01*
X112470000Y-122195554D01*
X112470000Y-119665750D01*
X112561000Y-119665750D01*
X112561000Y-120356310D01*
X112657673Y-120589699D01*
X112836302Y-120768327D01*
X113069691Y-120865000D01*
X113760250Y-120865000D01*
X113919000Y-120706250D01*
X113919000Y-119507000D01*
X114173000Y-119507000D01*
X114173000Y-120706250D01*
X114331750Y-120865000D01*
X115022309Y-120865000D01*
X115029421Y-120862054D01*
X119318400Y-120862054D01*
X119318400Y-121174546D01*
X119437985Y-121463250D01*
X119658950Y-121684215D01*
X119947654Y-121803800D01*
X120260146Y-121803800D01*
X120548850Y-121684215D01*
X120769815Y-121463250D01*
X120889400Y-121174546D01*
X120889400Y-120862054D01*
X120769815Y-120573350D01*
X120548850Y-120352385D01*
X120260146Y-120232800D01*
X119947654Y-120232800D01*
X119658950Y-120352385D01*
X119437985Y-120573350D01*
X119318400Y-120862054D01*
X115029421Y-120862054D01*
X115255698Y-120768327D01*
X115434327Y-120589699D01*
X115531000Y-120356310D01*
X115531000Y-119665750D01*
X115372250Y-119507000D01*
X114173000Y-119507000D01*
X113919000Y-119507000D01*
X112719750Y-119507000D01*
X112561000Y-119665750D01*
X112470000Y-119665750D01*
X112470000Y-116840000D01*
X112531908Y-116840000D01*
X112647161Y-117419418D01*
X112975375Y-117910625D01*
X112997033Y-117925096D01*
X112836302Y-117991673D01*
X112657673Y-118170301D01*
X112561000Y-118403690D01*
X112561000Y-119094250D01*
X112719750Y-119253000D01*
X113919000Y-119253000D01*
X113919000Y-119233000D01*
X114173000Y-119233000D01*
X114173000Y-119253000D01*
X115372250Y-119253000D01*
X115531000Y-119094250D01*
X115531000Y-118403690D01*
X115434327Y-118170301D01*
X115255698Y-117991673D01*
X115094967Y-117925096D01*
X115116625Y-117910625D01*
X115444839Y-117419418D01*
X115560092Y-116840000D01*
X115444839Y-116260582D01*
X115422103Y-116226554D01*
X118416700Y-116226554D01*
X118416700Y-116539046D01*
X118536285Y-116827750D01*
X118634804Y-116926269D01*
X118556400Y-117115554D01*
X118556400Y-117428046D01*
X118675985Y-117716750D01*
X118719985Y-117760750D01*
X118574385Y-117906350D01*
X118454800Y-118195054D01*
X118454800Y-118507546D01*
X118574385Y-118796250D01*
X118795350Y-119017215D01*
X119084054Y-119136800D01*
X119396546Y-119136800D01*
X119685250Y-119017215D01*
X119906215Y-118796250D01*
X120025800Y-118507546D01*
X120025800Y-118195054D01*
X119906215Y-117906350D01*
X119862215Y-117862350D01*
X120007815Y-117716750D01*
X120127400Y-117428046D01*
X120127400Y-117128254D01*
X122836300Y-117128254D01*
X122836300Y-117440746D01*
X122955885Y-117729450D01*
X122993535Y-117767100D01*
X122968585Y-117792050D01*
X122849000Y-118080754D01*
X122849000Y-118393246D01*
X122968585Y-118681950D01*
X123189550Y-118902915D01*
X123478254Y-119022500D01*
X123790746Y-119022500D01*
X124079450Y-118902915D01*
X124300415Y-118681950D01*
X124420000Y-118393246D01*
X124420000Y-118080754D01*
X124300415Y-117792050D01*
X124262765Y-117754400D01*
X124287715Y-117729450D01*
X124407300Y-117440746D01*
X124407300Y-117128254D01*
X124287715Y-116839550D01*
X124066750Y-116618585D01*
X123778046Y-116499000D01*
X123465554Y-116499000D01*
X123176850Y-116618585D01*
X122955885Y-116839550D01*
X122836300Y-117128254D01*
X120127400Y-117128254D01*
X120127400Y-117115554D01*
X120007815Y-116826850D01*
X119909296Y-116728331D01*
X119987700Y-116539046D01*
X119987700Y-116226554D01*
X119868115Y-115937850D01*
X119647150Y-115716885D01*
X119358446Y-115597300D01*
X119045954Y-115597300D01*
X118757250Y-115716885D01*
X118536285Y-115937850D01*
X118416700Y-116226554D01*
X115422103Y-116226554D01*
X115116625Y-115769375D01*
X114625418Y-115441161D01*
X114192256Y-115355000D01*
X113899744Y-115355000D01*
X113466582Y-115441161D01*
X112975375Y-115769375D01*
X112647161Y-116260582D01*
X112531908Y-116840000D01*
X112470000Y-116840000D01*
X112470000Y-114423154D01*
X115216300Y-114423154D01*
X115216300Y-114735646D01*
X115335885Y-115024350D01*
X115556850Y-115245315D01*
X115845554Y-115364900D01*
X116158046Y-115364900D01*
X116326164Y-115295263D01*
X116358851Y-115308803D01*
X116671343Y-115308803D01*
X116960047Y-115189218D01*
X117181012Y-114968253D01*
X117250130Y-114801386D01*
X117342485Y-115024350D01*
X117563450Y-115245315D01*
X117852154Y-115364900D01*
X118164646Y-115364900D01*
X118453350Y-115245315D01*
X118674315Y-115024350D01*
X118793900Y-114735646D01*
X118793900Y-114423154D01*
X118674315Y-114134450D01*
X118453350Y-113913485D01*
X118164646Y-113793900D01*
X117852154Y-113793900D01*
X117563450Y-113913485D01*
X117342485Y-114134450D01*
X117273367Y-114301317D01*
X117181012Y-114078353D01*
X116960047Y-113857388D01*
X116671343Y-113737803D01*
X116358851Y-113737803D01*
X116190733Y-113807440D01*
X116158046Y-113793900D01*
X115845554Y-113793900D01*
X115556850Y-113913485D01*
X115335885Y-114134450D01*
X115216300Y-114423154D01*
X112470000Y-114423154D01*
X112470000Y-112873754D01*
X163755700Y-112873754D01*
X163755700Y-113186246D01*
X163875285Y-113474950D01*
X164096250Y-113695915D01*
X164384954Y-113815500D01*
X164697446Y-113815500D01*
X164986150Y-113695915D01*
X165207115Y-113474950D01*
X165326700Y-113186246D01*
X165326700Y-112873754D01*
X165207115Y-112585050D01*
X164986150Y-112364085D01*
X164697446Y-112244500D01*
X164384954Y-112244500D01*
X164096250Y-112364085D01*
X163875285Y-112585050D01*
X163755700Y-112873754D01*
X112470000Y-112873754D01*
X112470000Y-111552954D01*
X116156100Y-111552954D01*
X116156100Y-111865446D01*
X116275685Y-112154150D01*
X116496650Y-112375115D01*
X116785354Y-112494700D01*
X117097846Y-112494700D01*
X117386550Y-112375115D01*
X117607515Y-112154150D01*
X117727100Y-111865446D01*
X117727100Y-111603754D01*
X118188100Y-111603754D01*
X118188100Y-111916246D01*
X118307685Y-112204950D01*
X118528650Y-112425915D01*
X118817354Y-112545500D01*
X119129846Y-112545500D01*
X119418550Y-112425915D01*
X119639515Y-112204950D01*
X119759100Y-111916246D01*
X119759100Y-111603754D01*
X119748579Y-111578354D01*
X120194700Y-111578354D01*
X120194700Y-111890846D01*
X120314285Y-112179550D01*
X120535250Y-112400515D01*
X120823954Y-112520100D01*
X121136446Y-112520100D01*
X121425150Y-112400515D01*
X121646115Y-112179550D01*
X121765700Y-111890846D01*
X121765700Y-111603754D01*
X122201300Y-111603754D01*
X122201300Y-111916246D01*
X122320885Y-112204950D01*
X122541850Y-112425915D01*
X122830554Y-112545500D01*
X123143046Y-112545500D01*
X123431750Y-112425915D01*
X123652715Y-112204950D01*
X123772300Y-111916246D01*
X123772300Y-111654554D01*
X124207900Y-111654554D01*
X124207900Y-111967046D01*
X124327485Y-112255750D01*
X124548450Y-112476715D01*
X124837154Y-112596300D01*
X125149646Y-112596300D01*
X125438350Y-112476715D01*
X125659315Y-112255750D01*
X125778900Y-111967046D01*
X125778900Y-111654554D01*
X126189100Y-111654554D01*
X126189100Y-111967046D01*
X126308685Y-112255750D01*
X126529650Y-112476715D01*
X126818354Y-112596300D01*
X127130846Y-112596300D01*
X127419550Y-112476715D01*
X127640515Y-112255750D01*
X127760100Y-111967046D01*
X127760100Y-111705354D01*
X128195700Y-111705354D01*
X128195700Y-112017846D01*
X128315285Y-112306550D01*
X128536250Y-112527515D01*
X128824954Y-112647100D01*
X129137446Y-112647100D01*
X129426150Y-112527515D01*
X129647115Y-112306550D01*
X129766700Y-112017846D01*
X129766700Y-111730754D01*
X130227700Y-111730754D01*
X130227700Y-112043246D01*
X130347285Y-112331950D01*
X130568250Y-112552915D01*
X130856954Y-112672500D01*
X131169446Y-112672500D01*
X131458150Y-112552915D01*
X131679115Y-112331950D01*
X131798700Y-112043246D01*
X131798700Y-111730754D01*
X132234300Y-111730754D01*
X132234300Y-112043246D01*
X132353885Y-112331950D01*
X132574850Y-112552915D01*
X132863554Y-112672500D01*
X133176046Y-112672500D01*
X133464750Y-112552915D01*
X133685715Y-112331950D01*
X133805300Y-112043246D01*
X133805300Y-111730754D01*
X134215500Y-111730754D01*
X134215500Y-112043246D01*
X134335085Y-112331950D01*
X134556050Y-112552915D01*
X134844754Y-112672500D01*
X135157246Y-112672500D01*
X135445950Y-112552915D01*
X135666915Y-112331950D01*
X135786500Y-112043246D01*
X135786500Y-111730754D01*
X135666915Y-111442050D01*
X135445950Y-111221085D01*
X135266017Y-111146554D01*
X142622900Y-111146554D01*
X142622900Y-111459046D01*
X142742485Y-111747750D01*
X142963450Y-111968715D01*
X143252154Y-112088300D01*
X143564646Y-112088300D01*
X143853350Y-111968715D01*
X144074315Y-111747750D01*
X144193900Y-111459046D01*
X144193900Y-111171954D01*
X144578700Y-111171954D01*
X144578700Y-111484446D01*
X144698285Y-111773150D01*
X144919250Y-111994115D01*
X145207954Y-112113700D01*
X145520446Y-112113700D01*
X145809150Y-111994115D01*
X146030115Y-111773150D01*
X146149700Y-111484446D01*
X146149700Y-111222754D01*
X146585300Y-111222754D01*
X146585300Y-111535246D01*
X146704885Y-111823950D01*
X146925850Y-112044915D01*
X147214554Y-112164500D01*
X147527046Y-112164500D01*
X147815750Y-112044915D01*
X148036715Y-111823950D01*
X148156300Y-111535246D01*
X148156300Y-111248154D01*
X148591900Y-111248154D01*
X148591900Y-111560646D01*
X148711485Y-111849350D01*
X148932450Y-112070315D01*
X149221154Y-112189900D01*
X149533646Y-112189900D01*
X149822350Y-112070315D01*
X150043315Y-111849350D01*
X150162900Y-111560646D01*
X150162900Y-111298954D01*
X150598500Y-111298954D01*
X150598500Y-111611446D01*
X150718085Y-111900150D01*
X150939050Y-112121115D01*
X151227754Y-112240700D01*
X151540246Y-112240700D01*
X151828950Y-112121115D01*
X152049915Y-111900150D01*
X152169500Y-111611446D01*
X152169500Y-111298954D01*
X152158979Y-111273554D01*
X152605100Y-111273554D01*
X152605100Y-111586046D01*
X152724685Y-111874750D01*
X152945650Y-112095715D01*
X153234354Y-112215300D01*
X153546846Y-112215300D01*
X153835550Y-112095715D01*
X154056515Y-111874750D01*
X154176100Y-111586046D01*
X154176100Y-111349754D01*
X154586300Y-111349754D01*
X154586300Y-111662246D01*
X154705885Y-111950950D01*
X154926850Y-112171915D01*
X155215554Y-112291500D01*
X155528046Y-112291500D01*
X155816750Y-112171915D01*
X156037715Y-111950950D01*
X156157300Y-111662246D01*
X156157300Y-111349754D01*
X156618300Y-111349754D01*
X156618300Y-111662246D01*
X156737885Y-111950950D01*
X156958850Y-112171915D01*
X157247554Y-112291500D01*
X157560046Y-112291500D01*
X157848750Y-112171915D01*
X158069715Y-111950950D01*
X158189300Y-111662246D01*
X158189300Y-111375154D01*
X158574100Y-111375154D01*
X158574100Y-111687646D01*
X158693685Y-111976350D01*
X158914650Y-112197315D01*
X159203354Y-112316900D01*
X159515846Y-112316900D01*
X159804550Y-112197315D01*
X160025515Y-111976350D01*
X160145100Y-111687646D01*
X160145100Y-111400554D01*
X160580700Y-111400554D01*
X160580700Y-111713046D01*
X160700285Y-112001750D01*
X160921250Y-112222715D01*
X161209954Y-112342300D01*
X161522446Y-112342300D01*
X161811150Y-112222715D01*
X162032115Y-112001750D01*
X162151700Y-111713046D01*
X162151700Y-111400554D01*
X162032115Y-111111850D01*
X161811150Y-110890885D01*
X161522446Y-110771300D01*
X161209954Y-110771300D01*
X160921250Y-110890885D01*
X160700285Y-111111850D01*
X160580700Y-111400554D01*
X160145100Y-111400554D01*
X160145100Y-111375154D01*
X160025515Y-111086450D01*
X159804550Y-110865485D01*
X159515846Y-110745900D01*
X159203354Y-110745900D01*
X158914650Y-110865485D01*
X158693685Y-111086450D01*
X158574100Y-111375154D01*
X158189300Y-111375154D01*
X158189300Y-111349754D01*
X158069715Y-111061050D01*
X157848750Y-110840085D01*
X157560046Y-110720500D01*
X157247554Y-110720500D01*
X156958850Y-110840085D01*
X156737885Y-111061050D01*
X156618300Y-111349754D01*
X156157300Y-111349754D01*
X156037715Y-111061050D01*
X155816750Y-110840085D01*
X155528046Y-110720500D01*
X155215554Y-110720500D01*
X154926850Y-110840085D01*
X154705885Y-111061050D01*
X154586300Y-111349754D01*
X154176100Y-111349754D01*
X154176100Y-111273554D01*
X154056515Y-110984850D01*
X153835550Y-110763885D01*
X153546846Y-110644300D01*
X153234354Y-110644300D01*
X152945650Y-110763885D01*
X152724685Y-110984850D01*
X152605100Y-111273554D01*
X152158979Y-111273554D01*
X152049915Y-111010250D01*
X151828950Y-110789285D01*
X151540246Y-110669700D01*
X151227754Y-110669700D01*
X150939050Y-110789285D01*
X150718085Y-111010250D01*
X150598500Y-111298954D01*
X150162900Y-111298954D01*
X150162900Y-111248154D01*
X150043315Y-110959450D01*
X149822350Y-110738485D01*
X149533646Y-110618900D01*
X149221154Y-110618900D01*
X148932450Y-110738485D01*
X148711485Y-110959450D01*
X148591900Y-111248154D01*
X148156300Y-111248154D01*
X148156300Y-111222754D01*
X148036715Y-110934050D01*
X147815750Y-110713085D01*
X147527046Y-110593500D01*
X147214554Y-110593500D01*
X146925850Y-110713085D01*
X146704885Y-110934050D01*
X146585300Y-111222754D01*
X146149700Y-111222754D01*
X146149700Y-111171954D01*
X146030115Y-110883250D01*
X145809150Y-110662285D01*
X145520446Y-110542700D01*
X145207954Y-110542700D01*
X144919250Y-110662285D01*
X144698285Y-110883250D01*
X144578700Y-111171954D01*
X144193900Y-111171954D01*
X144193900Y-111146554D01*
X144074315Y-110857850D01*
X143853350Y-110636885D01*
X143564646Y-110517300D01*
X143252154Y-110517300D01*
X142963450Y-110636885D01*
X142742485Y-110857850D01*
X142622900Y-111146554D01*
X135266017Y-111146554D01*
X135157246Y-111101500D01*
X134844754Y-111101500D01*
X134556050Y-111221085D01*
X134335085Y-111442050D01*
X134215500Y-111730754D01*
X133805300Y-111730754D01*
X133685715Y-111442050D01*
X133464750Y-111221085D01*
X133176046Y-111101500D01*
X132863554Y-111101500D01*
X132574850Y-111221085D01*
X132353885Y-111442050D01*
X132234300Y-111730754D01*
X131798700Y-111730754D01*
X131679115Y-111442050D01*
X131458150Y-111221085D01*
X131169446Y-111101500D01*
X130856954Y-111101500D01*
X130568250Y-111221085D01*
X130347285Y-111442050D01*
X130227700Y-111730754D01*
X129766700Y-111730754D01*
X129766700Y-111705354D01*
X129647115Y-111416650D01*
X129426150Y-111195685D01*
X129137446Y-111076100D01*
X128824954Y-111076100D01*
X128536250Y-111195685D01*
X128315285Y-111416650D01*
X128195700Y-111705354D01*
X127760100Y-111705354D01*
X127760100Y-111654554D01*
X127640515Y-111365850D01*
X127419550Y-111144885D01*
X127130846Y-111025300D01*
X126818354Y-111025300D01*
X126529650Y-111144885D01*
X126308685Y-111365850D01*
X126189100Y-111654554D01*
X125778900Y-111654554D01*
X125659315Y-111365850D01*
X125438350Y-111144885D01*
X125149646Y-111025300D01*
X124837154Y-111025300D01*
X124548450Y-111144885D01*
X124327485Y-111365850D01*
X124207900Y-111654554D01*
X123772300Y-111654554D01*
X123772300Y-111603754D01*
X123652715Y-111315050D01*
X123431750Y-111094085D01*
X123143046Y-110974500D01*
X122830554Y-110974500D01*
X122541850Y-111094085D01*
X122320885Y-111315050D01*
X122201300Y-111603754D01*
X121765700Y-111603754D01*
X121765700Y-111578354D01*
X121646115Y-111289650D01*
X121425150Y-111068685D01*
X121136446Y-110949100D01*
X120823954Y-110949100D01*
X120535250Y-111068685D01*
X120314285Y-111289650D01*
X120194700Y-111578354D01*
X119748579Y-111578354D01*
X119639515Y-111315050D01*
X119418550Y-111094085D01*
X119129846Y-110974500D01*
X118817354Y-110974500D01*
X118528650Y-111094085D01*
X118307685Y-111315050D01*
X118188100Y-111603754D01*
X117727100Y-111603754D01*
X117727100Y-111552954D01*
X117607515Y-111264250D01*
X117386550Y-111043285D01*
X117097846Y-110923700D01*
X116785354Y-110923700D01*
X116496650Y-111043285D01*
X116275685Y-111264250D01*
X116156100Y-111552954D01*
X112470000Y-111552954D01*
X112470000Y-110460000D01*
X112569926Y-110460000D01*
X112777028Y-110418805D01*
X113011881Y-110261881D01*
X113168805Y-110027028D01*
X113223909Y-109750000D01*
X113168805Y-109472972D01*
X113166923Y-109470154D01*
X166702100Y-109470154D01*
X166702100Y-109782646D01*
X166821685Y-110071350D01*
X167042650Y-110292315D01*
X167331354Y-110411900D01*
X167643846Y-110411900D01*
X167932550Y-110292315D01*
X168153515Y-110071350D01*
X168273100Y-109782646D01*
X168273100Y-109470154D01*
X168153515Y-109181450D01*
X167932550Y-108960485D01*
X167643846Y-108840900D01*
X167331354Y-108840900D01*
X167042650Y-108960485D01*
X166821685Y-109181450D01*
X166702100Y-109470154D01*
X113166923Y-109470154D01*
X113011881Y-109238119D01*
X112777028Y-109081195D01*
X112569926Y-109040000D01*
X112470000Y-109040000D01*
X112470000Y-106882000D01*
X168994135Y-106882000D01*
X168879085Y-106997050D01*
X168879085Y-106997050D01*
G37*
X168879085Y-106997050D02*
X168759500Y-107285754D01*
X168759500Y-107598246D01*
X168879085Y-107886950D01*
X168944035Y-107951900D01*
X168728354Y-107951900D01*
X168439650Y-108071485D01*
X168218685Y-108292450D01*
X168099100Y-108581154D01*
X168099100Y-108893646D01*
X168218685Y-109182350D01*
X168439650Y-109403315D01*
X168728354Y-109522900D01*
X168947512Y-109522900D01*
X167902933Y-110567479D01*
X167843554Y-110607155D01*
X167803878Y-110666534D01*
X167803875Y-110666537D01*
X167686364Y-110842405D01*
X167631167Y-111119901D01*
X167645100Y-111189947D01*
X167645099Y-118578458D01*
X167631167Y-118648499D01*
X167645099Y-118718540D01*
X167645099Y-118718544D01*
X167686363Y-118925994D01*
X167686364Y-118925995D01*
X167803875Y-119101863D01*
X167803877Y-119101865D01*
X167843553Y-119161244D01*
X167902933Y-119200921D01*
X167941184Y-119239172D01*
X168015485Y-119418550D01*
X168236450Y-119639515D01*
X168525154Y-119759100D01*
X168837646Y-119759100D01*
X169126350Y-119639515D01*
X169347315Y-119418550D01*
X169466900Y-119129846D01*
X169466900Y-118817354D01*
X169347315Y-118528650D01*
X169126350Y-118307685D01*
X169067499Y-118283308D01*
X169067499Y-115946776D01*
X169227950Y-115880315D01*
X169448915Y-115659350D01*
X169522258Y-115482283D01*
X169639755Y-132918789D01*
X169531850Y-132963485D01*
X169310885Y-133184450D01*
X169191300Y-133473154D01*
X169191300Y-133785646D01*
X169310885Y-134074350D01*
X169531850Y-134295315D01*
X169820554Y-134414900D01*
X170133046Y-134414900D01*
X170421750Y-134295315D01*
X170642715Y-134074350D01*
X170649426Y-134058149D01*
X172912067Y-134050265D01*
X172943085Y-134125150D01*
X173164050Y-134346115D01*
X173452754Y-134465700D01*
X173765246Y-134465700D01*
X174053950Y-134346115D01*
X174274915Y-134125150D01*
X174307948Y-134045402D01*
X176582001Y-134037478D01*
X176582001Y-137396536D01*
X176492350Y-137306885D01*
X176203646Y-137187300D01*
X175891154Y-137187300D01*
X175602450Y-137306885D01*
X175381485Y-137527850D01*
X175261900Y-137816554D01*
X175261900Y-138129046D01*
X175381485Y-138417750D01*
X175602450Y-138638715D01*
X175891154Y-138758300D01*
X176203646Y-138758300D01*
X176492350Y-138638715D01*
X176582001Y-138549064D01*
X176582001Y-141530000D01*
X112470000Y-141530000D01*
X112470000Y-136851354D01*
X114708300Y-136851354D01*
X114708300Y-137163846D01*
X114827885Y-137452550D01*
X115048850Y-137673515D01*
X115337554Y-137793100D01*
X115650046Y-137793100D01*
X115938750Y-137673515D01*
X116159715Y-137452550D01*
X116279300Y-137163846D01*
X116279300Y-136851354D01*
X116714900Y-136851354D01*
X116714900Y-137163846D01*
X116834485Y-137452550D01*
X117055450Y-137673515D01*
X117344154Y-137793100D01*
X117656646Y-137793100D01*
X117945350Y-137673515D01*
X118166315Y-137452550D01*
X118285900Y-137163846D01*
X118285900Y-136876754D01*
X118721500Y-136876754D01*
X118721500Y-137189246D01*
X118841085Y-137477950D01*
X119062050Y-137698915D01*
X119350754Y-137818500D01*
X119663246Y-137818500D01*
X119951950Y-137698915D01*
X120172915Y-137477950D01*
X120292500Y-137189246D01*
X120292500Y-136902154D01*
X120702700Y-136902154D01*
X120702700Y-137214646D01*
X120822285Y-137503350D01*
X121043250Y-137724315D01*
X121331954Y-137843900D01*
X121644446Y-137843900D01*
X121933150Y-137724315D01*
X122154115Y-137503350D01*
X122273700Y-137214646D01*
X122273700Y-136902154D01*
X122683900Y-136902154D01*
X122683900Y-137214646D01*
X122803485Y-137503350D01*
X123024450Y-137724315D01*
X123313154Y-137843900D01*
X123625646Y-137843900D01*
X123914350Y-137724315D01*
X124135315Y-137503350D01*
X124254900Y-137214646D01*
X124254900Y-136902154D01*
X124690500Y-136902154D01*
X124690500Y-137214646D01*
X124810085Y-137503350D01*
X125031050Y-137724315D01*
X125319754Y-137843900D01*
X125632246Y-137843900D01*
X125920950Y-137724315D01*
X126141915Y-137503350D01*
X126261500Y-137214646D01*
X126261500Y-136927554D01*
X126697100Y-136927554D01*
X126697100Y-137240046D01*
X126816685Y-137528750D01*
X127037650Y-137749715D01*
X127326354Y-137869300D01*
X127638846Y-137869300D01*
X127927550Y-137749715D01*
X128148515Y-137528750D01*
X128268100Y-137240046D01*
X128268100Y-136978354D01*
X128703700Y-136978354D01*
X128703700Y-137290846D01*
X128823285Y-137579550D01*
X129044250Y-137800515D01*
X129332954Y-137920100D01*
X129645446Y-137920100D01*
X129934150Y-137800515D01*
X130155115Y-137579550D01*
X130274700Y-137290846D01*
X130274700Y-137029154D01*
X130710300Y-137029154D01*
X130710300Y-137341646D01*
X130829885Y-137630350D01*
X131050850Y-137851315D01*
X131339554Y-137970900D01*
X131652046Y-137970900D01*
X131940750Y-137851315D01*
X132161715Y-137630350D01*
X132281300Y-137341646D01*
X132281300Y-137079954D01*
X132691500Y-137079954D01*
X132691500Y-137392446D01*
X132811085Y-137681150D01*
X133032050Y-137902115D01*
X133320754Y-138021700D01*
X133633246Y-138021700D01*
X133921950Y-137902115D01*
X134142915Y-137681150D01*
X134262500Y-137392446D01*
X134262500Y-137079954D01*
X134142915Y-136791250D01*
X133921950Y-136570285D01*
X133633246Y-136450700D01*
X133320754Y-136450700D01*
X133032050Y-136570285D01*
X132811085Y-136791250D01*
X132691500Y-137079954D01*
X132281300Y-137079954D01*
X132281300Y-137029154D01*
X132161715Y-136740450D01*
X131940750Y-136519485D01*
X131652046Y-136399900D01*
X131339554Y-136399900D01*
X131050850Y-136519485D01*
X130829885Y-136740450D01*
X130710300Y-137029154D01*
X130274700Y-137029154D01*
X130274700Y-136978354D01*
X130155115Y-136689650D01*
X129934150Y-136468685D01*
X129645446Y-136349100D01*
X129332954Y-136349100D01*
X129044250Y-136468685D01*
X128823285Y-136689650D01*
X128703700Y-136978354D01*
X128268100Y-136978354D01*
X128268100Y-136927554D01*
X128148515Y-136638850D01*
X127927550Y-136417885D01*
X127638846Y-136298300D01*
X127326354Y-136298300D01*
X127037650Y-136417885D01*
X126816685Y-136638850D01*
X126697100Y-136927554D01*
X126261500Y-136927554D01*
X126261500Y-136902154D01*
X126141915Y-136613450D01*
X125920950Y-136392485D01*
X125632246Y-136272900D01*
X125319754Y-136272900D01*
X125031050Y-136392485D01*
X124810085Y-136613450D01*
X124690500Y-136902154D01*
X124254900Y-136902154D01*
X124135315Y-136613450D01*
X123914350Y-136392485D01*
X123625646Y-136272900D01*
X123313154Y-136272900D01*
X123024450Y-136392485D01*
X122803485Y-136613450D01*
X122683900Y-136902154D01*
X122273700Y-136902154D01*
X122154115Y-136613450D01*
X121933150Y-136392485D01*
X121644446Y-136272900D01*
X121331954Y-136272900D01*
X121043250Y-136392485D01*
X120822285Y-136613450D01*
X120702700Y-136902154D01*
X120292500Y-136902154D01*
X120292500Y-136876754D01*
X120172915Y-136588050D01*
X119951950Y-136367085D01*
X119663246Y-136247500D01*
X119350754Y-136247500D01*
X119062050Y-136367085D01*
X118841085Y-136588050D01*
X118721500Y-136876754D01*
X118285900Y-136876754D01*
X118285900Y-136851354D01*
X118166315Y-136562650D01*
X117945350Y-136341685D01*
X117656646Y-136222100D01*
X117344154Y-136222100D01*
X117055450Y-136341685D01*
X116834485Y-136562650D01*
X116714900Y-136851354D01*
X116279300Y-136851354D01*
X116159715Y-136562650D01*
X115938750Y-136341685D01*
X115650046Y-136222100D01*
X115337554Y-136222100D01*
X115048850Y-136341685D01*
X114827885Y-136562650D01*
X114708300Y-136851354D01*
X112470000Y-136851354D01*
X112470000Y-134273254D01*
X113616100Y-134273254D01*
X113616100Y-134585746D01*
X113735685Y-134874450D01*
X113956650Y-135095415D01*
X114245354Y-135215000D01*
X114557846Y-135215000D01*
X114846550Y-135095415D01*
X115067515Y-134874450D01*
X115187100Y-134585746D01*
X115187100Y-134273254D01*
X115067515Y-133984550D01*
X114846550Y-133763585D01*
X114557846Y-133644000D01*
X114245354Y-133644000D01*
X113956650Y-133763585D01*
X113735685Y-133984550D01*
X113616100Y-134273254D01*
X112470000Y-134273254D01*
X112470000Y-131339554D01*
X119166000Y-131339554D01*
X119166000Y-131652046D01*
X119285585Y-131940750D01*
X119506550Y-132161715D01*
X119795254Y-132281300D01*
X120107746Y-132281300D01*
X120396450Y-132161715D01*
X120617415Y-131940750D01*
X120737000Y-131652046D01*
X120737000Y-131339554D01*
X120617415Y-131050850D01*
X120396450Y-130829885D01*
X120107746Y-130710300D01*
X119795254Y-130710300D01*
X119506550Y-130829885D01*
X119285585Y-131050850D01*
X119166000Y-131339554D01*
X112470000Y-131339554D01*
X112470000Y-130260054D01*
X115013100Y-130260054D01*
X115013100Y-130572546D01*
X115132685Y-130861250D01*
X115353650Y-131082215D01*
X115642354Y-131201800D01*
X115954846Y-131201800D01*
X116243550Y-131082215D01*
X116464515Y-130861250D01*
X116584100Y-130572546D01*
X116584100Y-130260054D01*
X116464515Y-129971350D01*
X116243550Y-129750385D01*
X115954846Y-129630800D01*
X115642354Y-129630800D01*
X115353650Y-129750385D01*
X115132685Y-129971350D01*
X115013100Y-130260054D01*
X112470000Y-130260054D01*
X112470000Y-127529554D01*
X113336700Y-127529554D01*
X113336700Y-127842046D01*
X113456285Y-128130750D01*
X113677250Y-128351715D01*
X113965954Y-128471300D01*
X114278446Y-128471300D01*
X114567150Y-128351715D01*
X114788115Y-128130750D01*
X114907700Y-127842046D01*
X114907700Y-127529554D01*
X114788115Y-127240850D01*
X114567150Y-127019885D01*
X114278446Y-126900300D01*
X113965954Y-126900300D01*
X113677250Y-127019885D01*
X113456285Y-127240850D01*
X113336700Y-127529554D01*
X112470000Y-127529554D01*
X112470000Y-125256254D01*
X115267100Y-125256254D01*
X115267100Y-125568746D01*
X115386685Y-125857450D01*
X115607650Y-126078415D01*
X115644752Y-126093783D01*
X115564485Y-126174050D01*
X115444900Y-126462754D01*
X115444900Y-126775246D01*
X115564485Y-127063950D01*
X115785450Y-127284915D01*
X116074154Y-127404500D01*
X116386646Y-127404500D01*
X116566022Y-127330200D01*
X117163970Y-127330200D01*
X117253585Y-127546550D01*
X117474550Y-127767515D01*
X117763254Y-127887100D01*
X118075746Y-127887100D01*
X118364450Y-127767515D01*
X118380765Y-127751200D01*
X118659946Y-127751200D01*
X118948650Y-127631615D01*
X119169615Y-127410650D01*
X119202938Y-127330200D01*
X121076378Y-127330200D01*
X120967050Y-127375485D01*
X120746085Y-127596450D01*
X120626500Y-127885154D01*
X120626500Y-128197646D01*
X120746085Y-128486350D01*
X120967050Y-128707315D01*
X121255754Y-128826900D01*
X121568246Y-128826900D01*
X121650899Y-128792664D01*
X121754908Y-128835746D01*
X122067400Y-128835746D01*
X122225795Y-128770137D01*
X122424154Y-128852300D01*
X122538235Y-128852300D01*
X122485985Y-128904550D01*
X122366400Y-129193254D01*
X122366400Y-129505746D01*
X122485985Y-129794450D01*
X122706950Y-130015415D01*
X122995654Y-130135000D01*
X123308146Y-130135000D01*
X123596850Y-130015415D01*
X123817815Y-129794450D01*
X123937400Y-129505746D01*
X123937400Y-129193254D01*
X123817815Y-128904550D01*
X123596850Y-128683585D01*
X123308146Y-128564000D01*
X123194065Y-128564000D01*
X123246315Y-128511750D01*
X123365900Y-128223046D01*
X123365900Y-127910554D01*
X123306094Y-127766171D01*
X123322515Y-127749750D01*
X123442100Y-127461046D01*
X123442100Y-127330200D01*
X125126559Y-127330200D01*
X125196600Y-127344132D01*
X125266641Y-127330200D01*
X125266646Y-127330200D01*
X125474096Y-127288936D01*
X125709346Y-127131746D01*
X125749024Y-127072364D01*
X126959290Y-125862099D01*
X129137824Y-125862099D01*
X129190708Y-125989773D01*
X129132347Y-125965599D01*
X128819855Y-125965599D01*
X128531151Y-126085184D01*
X128310186Y-126306149D01*
X128190601Y-126594853D01*
X128190601Y-126907345D01*
X128295397Y-127160345D01*
X128248434Y-127207308D01*
X128189054Y-127246985D01*
X128149378Y-127306364D01*
X128149376Y-127306366D01*
X128093362Y-127390197D01*
X128031864Y-127482235D01*
X127990600Y-127689685D01*
X127990600Y-127689689D01*
X127976668Y-127759730D01*
X127990600Y-127829772D01*
X127990601Y-130403600D01*
X127171642Y-130403600D01*
X127101600Y-130389668D01*
X127031558Y-130403600D01*
X127031554Y-130403600D01*
X126824104Y-130444864D01*
X126824102Y-130444865D01*
X126824103Y-130444865D01*
X126648235Y-130562376D01*
X126648233Y-130562378D01*
X126588854Y-130602054D01*
X126549178Y-130661433D01*
X126096400Y-131114211D01*
X126096400Y-130996654D01*
X125976815Y-130707950D01*
X125755850Y-130486985D01*
X125467146Y-130367400D01*
X125154654Y-130367400D01*
X124865950Y-130486985D01*
X124644985Y-130707950D01*
X124525400Y-130996654D01*
X124525400Y-131309146D01*
X124644985Y-131597850D01*
X124865950Y-131818815D01*
X125154654Y-131938400D01*
X125272212Y-131938400D01*
X124876612Y-132334000D01*
X118040571Y-132334000D01*
X117970529Y-132320068D01*
X117900487Y-132334000D01*
X117900484Y-132334000D01*
X117693034Y-132375264D01*
X117693033Y-132375265D01*
X117693032Y-132375265D01*
X117517165Y-132492776D01*
X117517163Y-132492778D01*
X117457784Y-132532454D01*
X117418108Y-132591833D01*
X116618992Y-133390950D01*
X116439615Y-133465250D01*
X116218650Y-133686215D01*
X116099065Y-133974919D01*
X116099065Y-134287411D01*
X116218650Y-134576115D01*
X116439615Y-134797080D01*
X116728319Y-134916665D01*
X117040811Y-134916665D01*
X117329515Y-134797080D01*
X117430665Y-134695930D01*
X117563450Y-134828715D01*
X117852154Y-134948300D01*
X118164646Y-134948300D01*
X118453350Y-134828715D01*
X118674315Y-134607750D01*
X118748615Y-134428373D01*
X119115789Y-134061200D01*
X119178700Y-134061200D01*
X119178700Y-134319046D01*
X119298285Y-134607750D01*
X119519250Y-134828715D01*
X119807954Y-134948300D01*
X120120446Y-134948300D01*
X120274261Y-134884588D01*
X120366754Y-134922900D01*
X120679246Y-134922900D01*
X120967950Y-134803315D01*
X121188915Y-134582350D01*
X121234200Y-134473022D01*
X121279485Y-134582350D01*
X121500450Y-134803315D01*
X121789154Y-134922900D01*
X122101646Y-134922900D01*
X122237500Y-134866627D01*
X122373354Y-134922900D01*
X122685846Y-134922900D01*
X122974550Y-134803315D01*
X123195515Y-134582350D01*
X123264088Y-134416800D01*
X125238991Y-134416800D01*
X125318085Y-134607750D01*
X125539050Y-134828715D01*
X125827754Y-134948300D01*
X126140246Y-134948300D01*
X126194639Y-134925770D01*
X126310354Y-134973700D01*
X126622846Y-134973700D01*
X126802222Y-134899400D01*
X127183959Y-134899400D01*
X127254000Y-134913332D01*
X127324041Y-134899400D01*
X127324046Y-134899400D01*
X127531496Y-134858136D01*
X127587560Y-134820675D01*
X127834354Y-134922900D01*
X128146846Y-134922900D01*
X128275261Y-134869709D01*
X128342354Y-134897500D01*
X128654846Y-134897500D01*
X128834222Y-134823200D01*
X129088959Y-134823200D01*
X129159000Y-134837132D01*
X129229041Y-134823200D01*
X129229046Y-134823200D01*
X129436496Y-134781936D01*
X129477843Y-134754308D01*
X129526850Y-134803315D01*
X129815554Y-134922900D01*
X130128046Y-134922900D01*
X130269161Y-134864448D01*
X130348954Y-134897500D01*
X130661446Y-134897500D01*
X130950150Y-134777915D01*
X131171115Y-134556950D01*
X131245415Y-134377573D01*
X132600105Y-133022883D01*
X132653138Y-133150916D01*
X132553603Y-133250451D01*
X132434018Y-133539155D01*
X132434018Y-133851647D01*
X132553603Y-134140351D01*
X132774568Y-134361316D01*
X133063272Y-134480901D01*
X133266542Y-134480901D01*
X133319085Y-134607750D01*
X133540050Y-134828715D01*
X133828754Y-134948300D01*
X134141246Y-134948300D01*
X134213600Y-134918330D01*
X134285954Y-134948300D01*
X134598446Y-134948300D01*
X134887150Y-134828715D01*
X135108115Y-134607750D01*
X135227700Y-134319046D01*
X135227700Y-134006554D01*
X135153400Y-133827178D01*
X135153400Y-132450788D01*
X135552487Y-132051702D01*
X135611864Y-132012027D01*
X135651538Y-131952651D01*
X135651542Y-131952647D01*
X135658555Y-131942151D01*
X136231159Y-131369547D01*
X140081000Y-135219389D01*
X140081001Y-136975254D01*
X140067068Y-137045300D01*
X140122265Y-137322796D01*
X140239776Y-137498664D01*
X140239779Y-137498667D01*
X140279455Y-137558046D01*
X140338834Y-137597722D01*
X141345078Y-138603967D01*
X141384754Y-138663346D01*
X141444133Y-138703022D01*
X141444135Y-138703024D01*
X141620002Y-138820535D01*
X141620003Y-138820535D01*
X141620004Y-138820536D01*
X141827454Y-138861800D01*
X141827457Y-138861800D01*
X141897499Y-138875732D01*
X141967541Y-138861800D01*
X160905542Y-138861800D01*
X160975583Y-138875732D01*
X161045624Y-138861800D01*
X161045629Y-138861800D01*
X161253079Y-138820536D01*
X161488329Y-138663346D01*
X161528007Y-138603964D01*
X164534179Y-135597793D01*
X164593555Y-135558119D01*
X164633230Y-135498742D01*
X164633234Y-135498738D01*
X164713806Y-135378154D01*
X167845100Y-135378154D01*
X167845100Y-135690646D01*
X167964685Y-135979350D01*
X168185650Y-136200315D01*
X168474354Y-136319900D01*
X168786846Y-136319900D01*
X169075550Y-136200315D01*
X169296515Y-135979350D01*
X169387723Y-135759154D01*
X173382300Y-135759154D01*
X173382300Y-136071646D01*
X173501885Y-136360350D01*
X173722850Y-136581315D01*
X174011554Y-136700900D01*
X174324046Y-136700900D01*
X174612750Y-136581315D01*
X174833715Y-136360350D01*
X174953300Y-136071646D01*
X174953300Y-135759154D01*
X174833715Y-135470450D01*
X174612750Y-135249485D01*
X174324046Y-135129900D01*
X174011554Y-135129900D01*
X173722850Y-135249485D01*
X173501885Y-135470450D01*
X173382300Y-135759154D01*
X169387723Y-135759154D01*
X169416100Y-135690646D01*
X169416100Y-135378154D01*
X169296515Y-135089450D01*
X169075550Y-134868485D01*
X168786846Y-134748900D01*
X168474354Y-134748900D01*
X168185650Y-134868485D01*
X167964685Y-135089450D01*
X167845100Y-135378154D01*
X164713806Y-135378154D01*
X164718269Y-135371475D01*
X164986150Y-135260515D01*
X165207115Y-135039550D01*
X165326700Y-134750846D01*
X165326700Y-134438354D01*
X165207115Y-134149650D01*
X164986150Y-133928685D01*
X164792010Y-133848270D01*
X164792010Y-129353555D01*
X164821015Y-129324550D01*
X164940600Y-129035846D01*
X164940600Y-128723354D01*
X164821015Y-128434650D01*
X164600050Y-128213685D01*
X164439600Y-128147224D01*
X164439600Y-118928222D01*
X164513900Y-118748846D01*
X164513900Y-118436354D01*
X164394315Y-118147650D01*
X164173350Y-117926685D01*
X163884646Y-117807100D01*
X163572154Y-117807100D01*
X163283450Y-117926685D01*
X163062485Y-118147650D01*
X162942900Y-118436354D01*
X162942900Y-118748846D01*
X163017201Y-118928225D01*
X163017200Y-132742300D01*
X162708554Y-132742300D01*
X162419850Y-132861885D01*
X162198885Y-133082850D01*
X162132338Y-133243510D01*
X161903446Y-133148700D01*
X161590954Y-133148700D01*
X161588901Y-133149550D01*
X161433546Y-133085200D01*
X161121054Y-133085200D01*
X161052870Y-133113443D01*
X160759862Y-132820435D01*
X160720185Y-132761054D01*
X160484935Y-132603864D01*
X160277485Y-132562600D01*
X160277480Y-132562600D01*
X160207439Y-132548668D01*
X160137398Y-132562600D01*
X158028589Y-132562600D01*
X157321223Y-131855235D01*
X157281546Y-131795854D01*
X157046296Y-131638664D01*
X156838846Y-131597400D01*
X156838841Y-131597400D01*
X156768800Y-131583468D01*
X156698759Y-131597400D01*
X154929789Y-131597400D01*
X153122543Y-129790154D01*
X155221300Y-129790154D01*
X155221300Y-130102646D01*
X155340885Y-130391350D01*
X155561850Y-130612315D01*
X155850554Y-130731900D01*
X156163046Y-130731900D01*
X156451750Y-130612315D01*
X156672715Y-130391350D01*
X156792300Y-130102646D01*
X156792300Y-129790154D01*
X156672715Y-129501450D01*
X156451750Y-129280485D01*
X156163046Y-129160900D01*
X155850554Y-129160900D01*
X155561850Y-129280485D01*
X155340885Y-129501450D01*
X155221300Y-129790154D01*
X153122543Y-129790154D01*
X149949267Y-126616879D01*
X149949267Y-124924108D01*
X149963199Y-124854066D01*
X149949267Y-124784024D01*
X149949267Y-124784021D01*
X149908003Y-124576571D01*
X149901171Y-124566346D01*
X149790491Y-124400702D01*
X149790489Y-124400700D01*
X149750813Y-124341321D01*
X149691434Y-124301645D01*
X148964624Y-123574836D01*
X148924946Y-123515454D01*
X148793934Y-123427914D01*
X148871239Y-123312218D01*
X148986492Y-122732800D01*
X148871239Y-122153382D01*
X148837027Y-122102180D01*
X149026546Y-121975546D01*
X149066224Y-121916164D01*
X149856169Y-121126220D01*
X149915545Y-121086546D01*
X149955220Y-121027169D01*
X149955224Y-121027165D01*
X150063579Y-120865000D01*
X150072736Y-120851296D01*
X150114000Y-120643846D01*
X150114000Y-120643842D01*
X150127932Y-120573800D01*
X150114000Y-120503758D01*
X150114000Y-119826988D01*
X150920434Y-119020554D01*
X154865700Y-119020554D01*
X154865700Y-119333046D01*
X154985285Y-119621750D01*
X155206250Y-119842715D01*
X155494954Y-119962300D01*
X155807446Y-119962300D01*
X156096150Y-119842715D01*
X156317115Y-119621750D01*
X156436700Y-119333046D01*
X156436700Y-119020554D01*
X156317115Y-118731850D01*
X156123219Y-118537954D01*
X157964500Y-118537954D01*
X157964500Y-118850446D01*
X158084085Y-119139150D01*
X158305050Y-119360115D01*
X158593754Y-119479700D01*
X158906246Y-119479700D01*
X159194950Y-119360115D01*
X159415915Y-119139150D01*
X159535500Y-118850446D01*
X159535500Y-118537954D01*
X159415915Y-118249250D01*
X159194950Y-118028285D01*
X158906246Y-117908700D01*
X158593754Y-117908700D01*
X158305050Y-118028285D01*
X158084085Y-118249250D01*
X157964500Y-118537954D01*
X156123219Y-118537954D01*
X156096150Y-118510885D01*
X155807446Y-118391300D01*
X155494954Y-118391300D01*
X155206250Y-118510885D01*
X154985285Y-118731850D01*
X154865700Y-119020554D01*
X150920434Y-119020554D01*
X151585462Y-118355527D01*
X151726450Y-118496515D01*
X152015154Y-118616100D01*
X152327646Y-118616100D01*
X152616350Y-118496515D01*
X152837315Y-118275550D01*
X152956900Y-117986846D01*
X152956900Y-117674354D01*
X152937451Y-117627400D01*
X154057159Y-117627400D01*
X154127200Y-117641332D01*
X154197241Y-117627400D01*
X154197246Y-117627400D01*
X154404696Y-117586136D01*
X154639946Y-117428946D01*
X154679624Y-117369564D01*
X155488589Y-116560600D01*
X158959359Y-116560600D01*
X159029400Y-116574532D01*
X159099441Y-116560600D01*
X159099446Y-116560600D01*
X159306896Y-116519336D01*
X159542146Y-116362146D01*
X159581824Y-116302764D01*
X160590374Y-115294215D01*
X160604200Y-115288488D01*
X160727354Y-115339500D01*
X161039846Y-115339500D01*
X161328550Y-115219915D01*
X161549515Y-114998950D01*
X161669100Y-114710246D01*
X161669100Y-114397754D01*
X161648058Y-114346954D01*
X165965500Y-114346954D01*
X165965500Y-114659446D01*
X166085085Y-114948150D01*
X166306050Y-115169115D01*
X166594754Y-115288700D01*
X166907246Y-115288700D01*
X167195950Y-115169115D01*
X167416915Y-114948150D01*
X167536500Y-114659446D01*
X167536500Y-114346954D01*
X167416915Y-114058250D01*
X167195950Y-113837285D01*
X166907246Y-113717700D01*
X166594754Y-113717700D01*
X166306050Y-113837285D01*
X166085085Y-114058250D01*
X165965500Y-114346954D01*
X161648058Y-114346954D01*
X161549515Y-114109050D01*
X161328550Y-113888085D01*
X161039846Y-113768500D01*
X160727354Y-113768500D01*
X160604200Y-113819512D01*
X160481046Y-113768500D01*
X160168554Y-113768500D01*
X159879850Y-113888085D01*
X159658885Y-114109050D01*
X159585118Y-114287138D01*
X159542915Y-114185250D01*
X159321950Y-113964285D01*
X159033246Y-113844700D01*
X158720754Y-113844700D01*
X158640961Y-113877752D01*
X158499846Y-113819300D01*
X158187354Y-113819300D01*
X157898650Y-113938885D01*
X157677685Y-114159850D01*
X157603385Y-114339226D01*
X157593618Y-114348993D01*
X157536315Y-114210650D01*
X157315350Y-113989685D01*
X157026646Y-113870100D01*
X156714154Y-113870100D01*
X156578300Y-113926373D01*
X156442446Y-113870100D01*
X156129954Y-113870100D01*
X155841250Y-113989685D01*
X155620285Y-114210650D01*
X155567561Y-114337938D01*
X155504315Y-114185250D01*
X155283350Y-113964285D01*
X154994646Y-113844700D01*
X154682154Y-113844700D01*
X154615061Y-113872491D01*
X154486646Y-113819300D01*
X154174154Y-113819300D01*
X153885450Y-113938885D01*
X153785390Y-114038945D01*
X153623046Y-113971700D01*
X153461965Y-113971700D01*
X153327550Y-113837285D01*
X153038846Y-113717700D01*
X152726354Y-113717700D01*
X152554579Y-113788852D01*
X152505446Y-113768500D01*
X152192954Y-113768500D01*
X151904250Y-113888085D01*
X151683285Y-114109050D01*
X151608985Y-114288427D01*
X151597412Y-114300000D01*
X150669127Y-114300000D01*
X150599450Y-114131785D01*
X150378485Y-113910820D01*
X150089781Y-113791235D01*
X149777289Y-113791235D01*
X149488585Y-113910820D01*
X149400135Y-113999270D01*
X149314350Y-113913485D01*
X149025646Y-113793900D01*
X148713154Y-113793900D01*
X148551900Y-113860694D01*
X148390646Y-113793900D01*
X148078154Y-113793900D01*
X147898778Y-113868200D01*
X146805842Y-113868200D01*
X146735800Y-113854268D01*
X146665758Y-113868200D01*
X146665754Y-113868200D01*
X146458304Y-113909464D01*
X146447409Y-113916744D01*
X146409985Y-113879320D01*
X146121281Y-113759735D01*
X145808789Y-113759735D01*
X145520085Y-113879320D01*
X145480405Y-113919000D01*
X145002442Y-113919000D01*
X144932400Y-113905068D01*
X144862358Y-113919000D01*
X144862354Y-113919000D01*
X144654904Y-113960264D01*
X144616889Y-113985665D01*
X144613557Y-113987892D01*
X144457485Y-113831820D01*
X144168781Y-113712235D01*
X143856289Y-113712235D01*
X143567585Y-113831820D01*
X143346620Y-114052785D01*
X143272320Y-114232161D01*
X136655834Y-120848648D01*
X136652236Y-120851052D01*
X136500651Y-120788263D01*
X136447523Y-120735135D01*
X136407845Y-120675753D01*
X136172595Y-120518563D01*
X135965145Y-120477299D01*
X135965140Y-120477299D01*
X135895099Y-120463367D01*
X135825058Y-120477299D01*
X134639237Y-120477299D01*
X134625218Y-120443455D01*
X134620000Y-120417220D01*
X134620000Y-118893554D01*
X136171300Y-118893554D01*
X136171300Y-119206046D01*
X136290885Y-119494750D01*
X136511850Y-119715715D01*
X136800554Y-119835300D01*
X137113046Y-119835300D01*
X137401750Y-119715715D01*
X137622715Y-119494750D01*
X137742300Y-119206046D01*
X137742300Y-118893554D01*
X137622715Y-118604850D01*
X137401750Y-118383885D01*
X137113046Y-118264300D01*
X136800554Y-118264300D01*
X136511850Y-118383885D01*
X136290885Y-118604850D01*
X136171300Y-118893554D01*
X134620000Y-118893554D01*
X134620000Y-116529042D01*
X134633932Y-116459000D01*
X134620000Y-116388958D01*
X134620000Y-116388954D01*
X134578736Y-116181504D01*
X134534211Y-116114868D01*
X134461224Y-116005635D01*
X134461222Y-116005633D01*
X134421546Y-115946254D01*
X134362167Y-115906578D01*
X132744015Y-114288427D01*
X132669715Y-114109050D01*
X132448750Y-113888085D01*
X132160046Y-113768500D01*
X131847554Y-113768500D01*
X131558850Y-113888085D01*
X131337885Y-114109050D01*
X131304008Y-114190837D01*
X131271946Y-114142854D01*
X131036696Y-113985664D01*
X130829246Y-113944400D01*
X130829241Y-113944400D01*
X130759200Y-113930468D01*
X130689159Y-113944400D01*
X130383622Y-113944400D01*
X130204246Y-113870100D01*
X129891754Y-113870100D01*
X129613387Y-113985403D01*
X129385696Y-113833264D01*
X129178246Y-113792000D01*
X129178241Y-113792000D01*
X129108200Y-113778068D01*
X129038159Y-113792000D01*
X128326222Y-113792000D01*
X128146846Y-113717700D01*
X127834354Y-113717700D01*
X127545650Y-113837285D01*
X127324685Y-114058250D01*
X127205100Y-114346954D01*
X127205100Y-114659446D01*
X127228905Y-114716917D01*
X126698816Y-114186827D01*
X126624515Y-114007450D01*
X126403550Y-113786485D01*
X126114846Y-113666900D01*
X125802354Y-113666900D01*
X125513650Y-113786485D01*
X125292685Y-114007450D01*
X125183305Y-114271517D01*
X124885424Y-113973636D01*
X124845746Y-113914254D01*
X124610496Y-113757064D01*
X124403046Y-113715800D01*
X124403041Y-113715800D01*
X124333000Y-113701868D01*
X124313940Y-113705659D01*
X124159046Y-113641500D01*
X123846554Y-113641500D01*
X123557850Y-113761085D01*
X123336885Y-113982050D01*
X123232458Y-114234159D01*
X123170115Y-114083650D01*
X122949150Y-113862685D01*
X122660446Y-113743100D01*
X122347954Y-113743100D01*
X122194139Y-113806812D01*
X122101646Y-113768500D01*
X121789154Y-113768500D01*
X121500450Y-113888085D01*
X121279485Y-114109050D01*
X121234200Y-114218378D01*
X121188915Y-114109050D01*
X120967950Y-113888085D01*
X120679246Y-113768500D01*
X120366754Y-113768500D01*
X120241810Y-113820253D01*
X120241264Y-113820027D01*
X119928772Y-113820027D01*
X119640068Y-113939612D01*
X119419103Y-114160577D01*
X119299518Y-114449281D01*
X119299518Y-114761773D01*
X119419103Y-115050477D01*
X119640068Y-115271442D01*
X119928772Y-115391027D01*
X120241264Y-115391027D01*
X120366208Y-115339274D01*
X120366754Y-115339500D01*
X120679246Y-115339500D01*
X120967950Y-115219915D01*
X121188915Y-114998950D01*
X121234200Y-114889622D01*
X121279485Y-114998950D01*
X121500450Y-115219915D01*
X121789154Y-115339500D01*
X122101646Y-115339500D01*
X122255461Y-115275788D01*
X122347954Y-115314100D01*
X122660446Y-115314100D01*
X122949150Y-115194515D01*
X123170115Y-114973550D01*
X123274542Y-114721441D01*
X123336885Y-114871950D01*
X123557850Y-115092915D01*
X123846554Y-115212500D01*
X124112712Y-115212500D01*
X124900642Y-116000430D01*
X124817500Y-116201154D01*
X124817500Y-116513646D01*
X124937085Y-116802350D01*
X125158050Y-117023315D01*
X125373230Y-117112445D01*
X125350900Y-117166354D01*
X125350900Y-117478846D01*
X125470485Y-117767550D01*
X125691450Y-117988515D01*
X125980154Y-118108100D01*
X126292646Y-118108100D01*
X126581350Y-117988515D01*
X126735038Y-117834827D01*
X127973673Y-119073462D01*
X127832685Y-119214450D01*
X127713100Y-119503154D01*
X127713100Y-119815646D01*
X127832685Y-120104350D01*
X128053650Y-120325315D01*
X128342354Y-120444900D01*
X128654846Y-120444900D01*
X128943550Y-120325315D01*
X129084538Y-120184327D01*
X129377510Y-120477299D01*
X127480700Y-120477299D01*
X127480700Y-120392154D01*
X127361115Y-120103450D01*
X127140150Y-119882485D01*
X126851446Y-119762900D01*
X126538954Y-119762900D01*
X126250250Y-119882485D01*
X126060200Y-120072535D01*
X126047950Y-120060285D01*
X125759246Y-119940700D01*
X125531659Y-119940700D01*
X125604500Y-119764846D01*
X125604500Y-119452354D01*
X125484915Y-119163650D01*
X125263950Y-118942685D01*
X124975246Y-118823100D01*
X124662754Y-118823100D01*
X124374050Y-118942685D01*
X124153085Y-119163650D01*
X124033500Y-119452354D01*
X124033500Y-119764846D01*
X124153085Y-120053550D01*
X124374050Y-120274515D01*
X124662754Y-120394100D01*
X124890341Y-120394100D01*
X124817500Y-120569954D01*
X124817500Y-120882446D01*
X124937085Y-121171150D01*
X125089035Y-121323100D01*
X125013285Y-121398850D01*
X124893700Y-121687554D01*
X124893700Y-122000046D01*
X125013285Y-122288750D01*
X125101735Y-122377200D01*
X124987885Y-122491050D01*
X124868300Y-122779754D01*
X124868300Y-123092246D01*
X124987885Y-123380950D01*
X125089035Y-123482100D01*
X124962485Y-123608650D01*
X124842900Y-123897354D01*
X124842900Y-124209846D01*
X124962485Y-124498550D01*
X125050935Y-124587000D01*
X124962485Y-124675450D01*
X124842900Y-124964154D01*
X124842900Y-125276646D01*
X124962485Y-125565350D01*
X125103473Y-125706338D01*
X124902012Y-125907800D01*
X116668165Y-125907800D01*
X116718515Y-125857450D01*
X116838100Y-125568746D01*
X116838100Y-125256254D01*
X116718515Y-124967550D01*
X116497550Y-124746585D01*
X116208846Y-124627000D01*
X115896354Y-124627000D01*
X115607650Y-124746585D01*
X115386685Y-124967550D01*
X115267100Y-125256254D01*
X112470000Y-125256254D01*
X112470000Y-123548726D01*
X116617800Y-123548726D01*
X116617800Y-123960474D01*
X116775369Y-124340880D01*
X117066520Y-124632031D01*
X117446926Y-124789600D01*
X117858674Y-124789600D01*
X118239080Y-124632031D01*
X118530231Y-124340880D01*
X118645558Y-124062454D01*
X121807600Y-124062454D01*
X121807600Y-124374946D01*
X121927185Y-124663650D01*
X122148150Y-124884615D01*
X122436854Y-125004200D01*
X122749346Y-125004200D01*
X123038050Y-124884615D01*
X123259015Y-124663650D01*
X123378600Y-124374946D01*
X123378600Y-124062454D01*
X123259015Y-123773750D01*
X123038050Y-123552785D01*
X122749346Y-123433200D01*
X122436854Y-123433200D01*
X122148150Y-123552785D01*
X121927185Y-123773750D01*
X121807600Y-124062454D01*
X118645558Y-124062454D01*
X118687800Y-123960474D01*
X118687800Y-123548726D01*
X118530231Y-123168320D01*
X118268665Y-122906754D01*
X119191400Y-122906754D01*
X119191400Y-123219246D01*
X119310985Y-123507950D01*
X119531950Y-123728915D01*
X119820654Y-123848500D01*
X120133146Y-123848500D01*
X120421850Y-123728915D01*
X120642815Y-123507950D01*
X120762400Y-123219246D01*
X120762400Y-122906754D01*
X120642815Y-122618050D01*
X120421850Y-122397085D01*
X120133146Y-122277500D01*
X119820654Y-122277500D01*
X119531950Y-122397085D01*
X119310985Y-122618050D01*
X119191400Y-122906754D01*
X118268665Y-122906754D01*
X118239080Y-122877169D01*
X117858674Y-122719600D01*
X117446926Y-122719600D01*
X117066520Y-122877169D01*
X116775369Y-123168320D01*
X116617800Y-123548726D01*
X112470000Y-123548726D01*
X112470000Y-122195554D01*
X121896500Y-122195554D01*
X121896500Y-122508046D01*
X122016085Y-122796750D01*
X122237050Y-123017715D01*
X122525754Y-123137300D01*
X122838246Y-123137300D01*
X123126950Y-123017715D01*
X123347915Y-122796750D01*
X123467500Y-122508046D01*
X123467500Y-122195554D01*
X123347915Y-121906850D01*
X123126950Y-121685885D01*
X122838246Y-121566300D01*
X122525754Y-121566300D01*
X122237050Y-121685885D01*
X122016085Y-121906850D01*
X121896500Y-122195554D01*
X112470000Y-122195554D01*
X112470000Y-119665750D01*
X112561000Y-119665750D01*
X112561000Y-120356310D01*
X112657673Y-120589699D01*
X112836302Y-120768327D01*
X113069691Y-120865000D01*
X113760250Y-120865000D01*
X113919000Y-120706250D01*
X113919000Y-119507000D01*
X114173000Y-119507000D01*
X114173000Y-120706250D01*
X114331750Y-120865000D01*
X115022309Y-120865000D01*
X115029421Y-120862054D01*
X119318400Y-120862054D01*
X119318400Y-121174546D01*
X119437985Y-121463250D01*
X119658950Y-121684215D01*
X119947654Y-121803800D01*
X120260146Y-121803800D01*
X120548850Y-121684215D01*
X120769815Y-121463250D01*
X120889400Y-121174546D01*
X120889400Y-120862054D01*
X120769815Y-120573350D01*
X120548850Y-120352385D01*
X120260146Y-120232800D01*
X119947654Y-120232800D01*
X119658950Y-120352385D01*
X119437985Y-120573350D01*
X119318400Y-120862054D01*
X115029421Y-120862054D01*
X115255698Y-120768327D01*
X115434327Y-120589699D01*
X115531000Y-120356310D01*
X115531000Y-119665750D01*
X115372250Y-119507000D01*
X114173000Y-119507000D01*
X113919000Y-119507000D01*
X112719750Y-119507000D01*
X112561000Y-119665750D01*
X112470000Y-119665750D01*
X112470000Y-116840000D01*
X112531908Y-116840000D01*
X112647161Y-117419418D01*
X112975375Y-117910625D01*
X112997033Y-117925096D01*
X112836302Y-117991673D01*
X112657673Y-118170301D01*
X112561000Y-118403690D01*
X112561000Y-119094250D01*
X112719750Y-119253000D01*
X113919000Y-119253000D01*
X113919000Y-119233000D01*
X114173000Y-119233000D01*
X114173000Y-119253000D01*
X115372250Y-119253000D01*
X115531000Y-119094250D01*
X115531000Y-118403690D01*
X115434327Y-118170301D01*
X115255698Y-117991673D01*
X115094967Y-117925096D01*
X115116625Y-117910625D01*
X115444839Y-117419418D01*
X115560092Y-116840000D01*
X115444839Y-116260582D01*
X115422103Y-116226554D01*
X118416700Y-116226554D01*
X118416700Y-116539046D01*
X118536285Y-116827750D01*
X118634804Y-116926269D01*
X118556400Y-117115554D01*
X118556400Y-117428046D01*
X118675985Y-117716750D01*
X118719985Y-117760750D01*
X118574385Y-117906350D01*
X118454800Y-118195054D01*
X118454800Y-118507546D01*
X118574385Y-118796250D01*
X118795350Y-119017215D01*
X119084054Y-119136800D01*
X119396546Y-119136800D01*
X119685250Y-119017215D01*
X119906215Y-118796250D01*
X120025800Y-118507546D01*
X120025800Y-118195054D01*
X119906215Y-117906350D01*
X119862215Y-117862350D01*
X120007815Y-117716750D01*
X120127400Y-117428046D01*
X120127400Y-117128254D01*
X122836300Y-117128254D01*
X122836300Y-117440746D01*
X122955885Y-117729450D01*
X122993535Y-117767100D01*
X122968585Y-117792050D01*
X122849000Y-118080754D01*
X122849000Y-118393246D01*
X122968585Y-118681950D01*
X123189550Y-118902915D01*
X123478254Y-119022500D01*
X123790746Y-119022500D01*
X124079450Y-118902915D01*
X124300415Y-118681950D01*
X124420000Y-118393246D01*
X124420000Y-118080754D01*
X124300415Y-117792050D01*
X124262765Y-117754400D01*
X124287715Y-117729450D01*
X124407300Y-117440746D01*
X124407300Y-117128254D01*
X124287715Y-116839550D01*
X124066750Y-116618585D01*
X123778046Y-116499000D01*
X123465554Y-116499000D01*
X123176850Y-116618585D01*
X122955885Y-116839550D01*
X122836300Y-117128254D01*
X120127400Y-117128254D01*
X120127400Y-117115554D01*
X120007815Y-116826850D01*
X119909296Y-116728331D01*
X119987700Y-116539046D01*
X119987700Y-116226554D01*
X119868115Y-115937850D01*
X119647150Y-115716885D01*
X119358446Y-115597300D01*
X119045954Y-115597300D01*
X118757250Y-115716885D01*
X118536285Y-115937850D01*
X118416700Y-116226554D01*
X115422103Y-116226554D01*
X115116625Y-115769375D01*
X114625418Y-115441161D01*
X114192256Y-115355000D01*
X113899744Y-115355000D01*
X113466582Y-115441161D01*
X112975375Y-115769375D01*
X112647161Y-116260582D01*
X112531908Y-116840000D01*
X112470000Y-116840000D01*
X112470000Y-114423154D01*
X115216300Y-114423154D01*
X115216300Y-114735646D01*
X115335885Y-115024350D01*
X115556850Y-115245315D01*
X115845554Y-115364900D01*
X116158046Y-115364900D01*
X116326164Y-115295263D01*
X116358851Y-115308803D01*
X116671343Y-115308803D01*
X116960047Y-115189218D01*
X117181012Y-114968253D01*
X117250130Y-114801386D01*
X117342485Y-115024350D01*
X117563450Y-115245315D01*
X117852154Y-115364900D01*
X118164646Y-115364900D01*
X118453350Y-115245315D01*
X118674315Y-115024350D01*
X118793900Y-114735646D01*
X118793900Y-114423154D01*
X118674315Y-114134450D01*
X118453350Y-113913485D01*
X118164646Y-113793900D01*
X117852154Y-113793900D01*
X117563450Y-113913485D01*
X117342485Y-114134450D01*
X117273367Y-114301317D01*
X117181012Y-114078353D01*
X116960047Y-113857388D01*
X116671343Y-113737803D01*
X116358851Y-113737803D01*
X116190733Y-113807440D01*
X116158046Y-113793900D01*
X115845554Y-113793900D01*
X115556850Y-113913485D01*
X115335885Y-114134450D01*
X115216300Y-114423154D01*
X112470000Y-114423154D01*
X112470000Y-112873754D01*
X163755700Y-112873754D01*
X163755700Y-113186246D01*
X163875285Y-113474950D01*
X164096250Y-113695915D01*
X164384954Y-113815500D01*
X164697446Y-113815500D01*
X164986150Y-113695915D01*
X165207115Y-113474950D01*
X165326700Y-113186246D01*
X165326700Y-112873754D01*
X165207115Y-112585050D01*
X164986150Y-112364085D01*
X164697446Y-112244500D01*
X164384954Y-112244500D01*
X164096250Y-112364085D01*
X163875285Y-112585050D01*
X163755700Y-112873754D01*
X112470000Y-112873754D01*
X112470000Y-111552954D01*
X116156100Y-111552954D01*
X116156100Y-111865446D01*
X116275685Y-112154150D01*
X116496650Y-112375115D01*
X116785354Y-112494700D01*
X117097846Y-112494700D01*
X117386550Y-112375115D01*
X117607515Y-112154150D01*
X117727100Y-111865446D01*
X117727100Y-111603754D01*
X118188100Y-111603754D01*
X118188100Y-111916246D01*
X118307685Y-112204950D01*
X118528650Y-112425915D01*
X118817354Y-112545500D01*
X119129846Y-112545500D01*
X119418550Y-112425915D01*
X119639515Y-112204950D01*
X119759100Y-111916246D01*
X119759100Y-111603754D01*
X119748579Y-111578354D01*
X120194700Y-111578354D01*
X120194700Y-111890846D01*
X120314285Y-112179550D01*
X120535250Y-112400515D01*
X120823954Y-112520100D01*
X121136446Y-112520100D01*
X121425150Y-112400515D01*
X121646115Y-112179550D01*
X121765700Y-111890846D01*
X121765700Y-111603754D01*
X122201300Y-111603754D01*
X122201300Y-111916246D01*
X122320885Y-112204950D01*
X122541850Y-112425915D01*
X122830554Y-112545500D01*
X123143046Y-112545500D01*
X123431750Y-112425915D01*
X123652715Y-112204950D01*
X123772300Y-111916246D01*
X123772300Y-111654554D01*
X124207900Y-111654554D01*
X124207900Y-111967046D01*
X124327485Y-112255750D01*
X124548450Y-112476715D01*
X124837154Y-112596300D01*
X125149646Y-112596300D01*
X125438350Y-112476715D01*
X125659315Y-112255750D01*
X125778900Y-111967046D01*
X125778900Y-111654554D01*
X126189100Y-111654554D01*
X126189100Y-111967046D01*
X126308685Y-112255750D01*
X126529650Y-112476715D01*
X126818354Y-112596300D01*
X127130846Y-112596300D01*
X127419550Y-112476715D01*
X127640515Y-112255750D01*
X127760100Y-111967046D01*
X127760100Y-111705354D01*
X128195700Y-111705354D01*
X128195700Y-112017846D01*
X128315285Y-112306550D01*
X128536250Y-112527515D01*
X128824954Y-112647100D01*
X129137446Y-112647100D01*
X129426150Y-112527515D01*
X129647115Y-112306550D01*
X129766700Y-112017846D01*
X129766700Y-111730754D01*
X130227700Y-111730754D01*
X130227700Y-112043246D01*
X130347285Y-112331950D01*
X130568250Y-112552915D01*
X130856954Y-112672500D01*
X131169446Y-112672500D01*
X131458150Y-112552915D01*
X131679115Y-112331950D01*
X131798700Y-112043246D01*
X131798700Y-111730754D01*
X132234300Y-111730754D01*
X132234300Y-112043246D01*
X132353885Y-112331950D01*
X132574850Y-112552915D01*
X132863554Y-112672500D01*
X133176046Y-112672500D01*
X133464750Y-112552915D01*
X133685715Y-112331950D01*
X133805300Y-112043246D01*
X133805300Y-111730754D01*
X134215500Y-111730754D01*
X134215500Y-112043246D01*
X134335085Y-112331950D01*
X134556050Y-112552915D01*
X134844754Y-112672500D01*
X135157246Y-112672500D01*
X135445950Y-112552915D01*
X135666915Y-112331950D01*
X135786500Y-112043246D01*
X135786500Y-111730754D01*
X135666915Y-111442050D01*
X135445950Y-111221085D01*
X135266017Y-111146554D01*
X142622900Y-111146554D01*
X142622900Y-111459046D01*
X142742485Y-111747750D01*
X142963450Y-111968715D01*
X143252154Y-112088300D01*
X143564646Y-112088300D01*
X143853350Y-111968715D01*
X144074315Y-111747750D01*
X144193900Y-111459046D01*
X144193900Y-111171954D01*
X144578700Y-111171954D01*
X144578700Y-111484446D01*
X144698285Y-111773150D01*
X144919250Y-111994115D01*
X145207954Y-112113700D01*
X145520446Y-112113700D01*
X145809150Y-111994115D01*
X146030115Y-111773150D01*
X146149700Y-111484446D01*
X146149700Y-111222754D01*
X146585300Y-111222754D01*
X146585300Y-111535246D01*
X146704885Y-111823950D01*
X146925850Y-112044915D01*
X147214554Y-112164500D01*
X147527046Y-112164500D01*
X147815750Y-112044915D01*
X148036715Y-111823950D01*
X148156300Y-111535246D01*
X148156300Y-111248154D01*
X148591900Y-111248154D01*
X148591900Y-111560646D01*
X148711485Y-111849350D01*
X148932450Y-112070315D01*
X149221154Y-112189900D01*
X149533646Y-112189900D01*
X149822350Y-112070315D01*
X150043315Y-111849350D01*
X150162900Y-111560646D01*
X150162900Y-111298954D01*
X150598500Y-111298954D01*
X150598500Y-111611446D01*
X150718085Y-111900150D01*
X150939050Y-112121115D01*
X151227754Y-112240700D01*
X151540246Y-112240700D01*
X151828950Y-112121115D01*
X152049915Y-111900150D01*
X152169500Y-111611446D01*
X152169500Y-111298954D01*
X152158979Y-111273554D01*
X152605100Y-111273554D01*
X152605100Y-111586046D01*
X152724685Y-111874750D01*
X152945650Y-112095715D01*
X153234354Y-112215300D01*
X153546846Y-112215300D01*
X153835550Y-112095715D01*
X154056515Y-111874750D01*
X154176100Y-111586046D01*
X154176100Y-111349754D01*
X154586300Y-111349754D01*
X154586300Y-111662246D01*
X154705885Y-111950950D01*
X154926850Y-112171915D01*
X155215554Y-112291500D01*
X155528046Y-112291500D01*
X155816750Y-112171915D01*
X156037715Y-111950950D01*
X156157300Y-111662246D01*
X156157300Y-111349754D01*
X156618300Y-111349754D01*
X156618300Y-111662246D01*
X156737885Y-111950950D01*
X156958850Y-112171915D01*
X157247554Y-112291500D01*
X157560046Y-112291500D01*
X157848750Y-112171915D01*
X158069715Y-111950950D01*
X158189300Y-111662246D01*
X158189300Y-111375154D01*
X158574100Y-111375154D01*
X158574100Y-111687646D01*
X158693685Y-111976350D01*
X158914650Y-112197315D01*
X159203354Y-112316900D01*
X159515846Y-112316900D01*
X159804550Y-112197315D01*
X160025515Y-111976350D01*
X160145100Y-111687646D01*
X160145100Y-111400554D01*
X160580700Y-111400554D01*
X160580700Y-111713046D01*
X160700285Y-112001750D01*
X160921250Y-112222715D01*
X161209954Y-112342300D01*
X161522446Y-112342300D01*
X161811150Y-112222715D01*
X162032115Y-112001750D01*
X162151700Y-111713046D01*
X162151700Y-111400554D01*
X162032115Y-111111850D01*
X161811150Y-110890885D01*
X161522446Y-110771300D01*
X161209954Y-110771300D01*
X160921250Y-110890885D01*
X160700285Y-111111850D01*
X160580700Y-111400554D01*
X160145100Y-111400554D01*
X160145100Y-111375154D01*
X160025515Y-111086450D01*
X159804550Y-110865485D01*
X159515846Y-110745900D01*
X159203354Y-110745900D01*
X158914650Y-110865485D01*
X158693685Y-111086450D01*
X158574100Y-111375154D01*
X158189300Y-111375154D01*
X158189300Y-111349754D01*
X158069715Y-111061050D01*
X157848750Y-110840085D01*
X157560046Y-110720500D01*
X157247554Y-110720500D01*
X156958850Y-110840085D01*
X156737885Y-111061050D01*
X156618300Y-111349754D01*
X156157300Y-111349754D01*
X156037715Y-111061050D01*
X155816750Y-110840085D01*
X155528046Y-110720500D01*
X155215554Y-110720500D01*
X154926850Y-110840085D01*
X154705885Y-111061050D01*
X154586300Y-111349754D01*
X154176100Y-111349754D01*
X154176100Y-111273554D01*
X154056515Y-110984850D01*
X153835550Y-110763885D01*
X153546846Y-110644300D01*
X153234354Y-110644300D01*
X152945650Y-110763885D01*
X152724685Y-110984850D01*
X152605100Y-111273554D01*
X152158979Y-111273554D01*
X152049915Y-111010250D01*
X151828950Y-110789285D01*
X151540246Y-110669700D01*
X151227754Y-110669700D01*
X150939050Y-110789285D01*
X150718085Y-111010250D01*
X150598500Y-111298954D01*
X150162900Y-111298954D01*
X150162900Y-111248154D01*
X150043315Y-110959450D01*
X149822350Y-110738485D01*
X149533646Y-110618900D01*
X149221154Y-110618900D01*
X148932450Y-110738485D01*
X148711485Y-110959450D01*
X148591900Y-111248154D01*
X148156300Y-111248154D01*
X148156300Y-111222754D01*
X148036715Y-110934050D01*
X147815750Y-110713085D01*
X147527046Y-110593500D01*
X147214554Y-110593500D01*
X146925850Y-110713085D01*
X146704885Y-110934050D01*
X146585300Y-111222754D01*
X146149700Y-111222754D01*
X146149700Y-111171954D01*
X146030115Y-110883250D01*
X145809150Y-110662285D01*
X145520446Y-110542700D01*
X145207954Y-110542700D01*
X144919250Y-110662285D01*
X144698285Y-110883250D01*
X144578700Y-111171954D01*
X144193900Y-111171954D01*
X144193900Y-111146554D01*
X144074315Y-110857850D01*
X143853350Y-110636885D01*
X143564646Y-110517300D01*
X143252154Y-110517300D01*
X142963450Y-110636885D01*
X142742485Y-110857850D01*
X142622900Y-111146554D01*
X135266017Y-111146554D01*
X135157246Y-111101500D01*
X134844754Y-111101500D01*
X134556050Y-111221085D01*
X134335085Y-111442050D01*
X134215500Y-111730754D01*
X133805300Y-111730754D01*
X133685715Y-111442050D01*
X133464750Y-111221085D01*
X133176046Y-111101500D01*
X132863554Y-111101500D01*
X132574850Y-111221085D01*
X132353885Y-111442050D01*
X132234300Y-111730754D01*
X131798700Y-111730754D01*
X131679115Y-111442050D01*
X131458150Y-111221085D01*
X131169446Y-111101500D01*
X130856954Y-111101500D01*
X130568250Y-111221085D01*
X130347285Y-111442050D01*
X130227700Y-111730754D01*
X129766700Y-111730754D01*
X129766700Y-111705354D01*
X129647115Y-111416650D01*
X129426150Y-111195685D01*
X129137446Y-111076100D01*
X128824954Y-111076100D01*
X128536250Y-111195685D01*
X128315285Y-111416650D01*
X128195700Y-111705354D01*
X127760100Y-111705354D01*
X127760100Y-111654554D01*
X127640515Y-111365850D01*
X127419550Y-111144885D01*
X127130846Y-111025300D01*
X126818354Y-111025300D01*
X126529650Y-111144885D01*
X126308685Y-111365850D01*
X126189100Y-111654554D01*
X125778900Y-111654554D01*
X125659315Y-111365850D01*
X125438350Y-111144885D01*
X125149646Y-111025300D01*
X124837154Y-111025300D01*
X124548450Y-111144885D01*
X124327485Y-111365850D01*
X124207900Y-111654554D01*
X123772300Y-111654554D01*
X123772300Y-111603754D01*
X123652715Y-111315050D01*
X123431750Y-111094085D01*
X123143046Y-110974500D01*
X122830554Y-110974500D01*
X122541850Y-111094085D01*
X122320885Y-111315050D01*
X122201300Y-111603754D01*
X121765700Y-111603754D01*
X121765700Y-111578354D01*
X121646115Y-111289650D01*
X121425150Y-111068685D01*
X121136446Y-110949100D01*
X120823954Y-110949100D01*
X120535250Y-111068685D01*
X120314285Y-111289650D01*
X120194700Y-111578354D01*
X119748579Y-111578354D01*
X119639515Y-111315050D01*
X119418550Y-111094085D01*
X119129846Y-110974500D01*
X118817354Y-110974500D01*
X118528650Y-111094085D01*
X118307685Y-111315050D01*
X118188100Y-111603754D01*
X117727100Y-111603754D01*
X117727100Y-111552954D01*
X117607515Y-111264250D01*
X117386550Y-111043285D01*
X117097846Y-110923700D01*
X116785354Y-110923700D01*
X116496650Y-111043285D01*
X116275685Y-111264250D01*
X116156100Y-111552954D01*
X112470000Y-111552954D01*
X112470000Y-110460000D01*
X112569926Y-110460000D01*
X112777028Y-110418805D01*
X113011881Y-110261881D01*
X113168805Y-110027028D01*
X113223909Y-109750000D01*
X113168805Y-109472972D01*
X113166923Y-109470154D01*
X166702100Y-109470154D01*
X166702100Y-109782646D01*
X166821685Y-110071350D01*
X167042650Y-110292315D01*
X167331354Y-110411900D01*
X167643846Y-110411900D01*
X167932550Y-110292315D01*
X168153515Y-110071350D01*
X168273100Y-109782646D01*
X168273100Y-109470154D01*
X168153515Y-109181450D01*
X167932550Y-108960485D01*
X167643846Y-108840900D01*
X167331354Y-108840900D01*
X167042650Y-108960485D01*
X166821685Y-109181450D01*
X166702100Y-109470154D01*
X113166923Y-109470154D01*
X113011881Y-109238119D01*
X112777028Y-109081195D01*
X112569926Y-109040000D01*
X112470000Y-109040000D01*
X112470000Y-106882000D01*
X168994135Y-106882000D01*
X168879085Y-106997050D01*
G36*
X143370081Y-132308600D02*
X142788589Y-132308600D01*
X140612501Y-130132513D01*
X140612501Y-129599996D01*
X140647132Y-129585651D01*
X143370081Y-132308600D01*
X143370081Y-132308600D01*
G37*
X143370081Y-132308600D02*
X142788589Y-132308600D01*
X140612501Y-130132513D01*
X140612501Y-129599996D01*
X140647132Y-129585651D01*
X143370081Y-132308600D01*
G36*
X145059400Y-130225800D02*
X145079400Y-130225800D01*
X145079400Y-130479800D01*
X145059400Y-130479800D01*
X145059400Y-130499800D01*
X144805400Y-130499800D01*
X144805400Y-130479800D01*
X144785400Y-130479800D01*
X144785400Y-130225800D01*
X144805400Y-130225800D01*
X144805400Y-130205800D01*
X145059400Y-130205800D01*
X145059400Y-130225800D01*
X145059400Y-130225800D01*
G37*
X145059400Y-130225800D02*
X145079400Y-130225800D01*
X145079400Y-130479800D01*
X145059400Y-130479800D01*
X145059400Y-130499800D01*
X144805400Y-130499800D01*
X144805400Y-130479800D01*
X144785400Y-130479800D01*
X144785400Y-130225800D01*
X144805400Y-130225800D01*
X144805400Y-130205800D01*
X145059400Y-130205800D01*
X145059400Y-130225800D01*
G36*
X136398001Y-128101836D02*
X136384068Y-128171882D01*
X136439265Y-128449378D01*
X136440671Y-128451482D01*
X136349100Y-128672554D01*
X136349100Y-128830700D01*
X136245600Y-128830700D01*
X136245600Y-128330922D01*
X136319900Y-128151546D01*
X136319900Y-127988700D01*
X136398001Y-127988700D01*
X136398001Y-128101836D01*
X136398001Y-128101836D01*
G37*
X136398001Y-128101836D02*
X136384068Y-128171882D01*
X136439265Y-128449378D01*
X136440671Y-128451482D01*
X136349100Y-128672554D01*
X136349100Y-128830700D01*
X136245600Y-128830700D01*
X136245600Y-128330922D01*
X136319900Y-128151546D01*
X136319900Y-127988700D01*
X136398001Y-127988700D01*
X136398001Y-128101836D01*
G36*
X132152354Y-126413900D02*
X132335900Y-126413900D01*
X132335900Y-126597446D01*
X132455485Y-126886150D01*
X132676450Y-127107115D01*
X132965154Y-127226700D01*
X133130324Y-127226700D01*
X133130324Y-127230500D01*
X132990554Y-127230500D01*
X132701850Y-127350085D01*
X132480885Y-127571050D01*
X132361300Y-127859754D01*
X132361300Y-128043300D01*
X132332100Y-128043300D01*
X132332100Y-127859754D01*
X132212515Y-127571050D01*
X131991550Y-127350085D01*
X131702846Y-127230500D01*
X131519300Y-127230500D01*
X131519300Y-127072354D01*
X131399715Y-126783650D01*
X131318636Y-126702571D01*
X131444995Y-126677437D01*
X131680245Y-126520247D01*
X131719923Y-126460865D01*
X131776251Y-126404537D01*
X131953000Y-126331325D01*
X132152354Y-126413900D01*
X132152354Y-126413900D01*
G37*
X132152354Y-126413900D02*
X132335900Y-126413900D01*
X132335900Y-126597446D01*
X132455485Y-126886150D01*
X132676450Y-127107115D01*
X132965154Y-127226700D01*
X133130324Y-127226700D01*
X133130324Y-127230500D01*
X132990554Y-127230500D01*
X132701850Y-127350085D01*
X132480885Y-127571050D01*
X132361300Y-127859754D01*
X132361300Y-128043300D01*
X132332100Y-128043300D01*
X132332100Y-127859754D01*
X132212515Y-127571050D01*
X131991550Y-127350085D01*
X131702846Y-127230500D01*
X131519300Y-127230500D01*
X131519300Y-127072354D01*
X131399715Y-126783650D01*
X131318636Y-126702571D01*
X131444995Y-126677437D01*
X131680245Y-126520247D01*
X131719923Y-126460865D01*
X131776251Y-126404537D01*
X131953000Y-126331325D01*
X132152354Y-126413900D01*
G36*
X136952280Y-124802900D02*
X136689650Y-124911685D01*
X136468685Y-125132650D01*
X136402224Y-125293101D01*
X135990540Y-125293101D01*
X135920498Y-125279169D01*
X135850456Y-125293101D01*
X135850453Y-125293101D01*
X135643003Y-125334365D01*
X135643002Y-125334366D01*
X135643001Y-125334366D01*
X135502278Y-125428395D01*
X135407753Y-125491555D01*
X135368075Y-125550937D01*
X135268828Y-125650184D01*
X135089450Y-125724485D01*
X134868485Y-125945450D01*
X134748900Y-126234154D01*
X134748900Y-126546646D01*
X134853342Y-126798793D01*
X134843085Y-126809050D01*
X134768784Y-126988428D01*
X134701933Y-127055279D01*
X134674504Y-127073607D01*
X134581739Y-126849651D01*
X134360774Y-126628686D01*
X134087519Y-126515500D01*
X134166646Y-126515500D01*
X134455350Y-126395915D01*
X134676315Y-126174950D01*
X134795900Y-125886246D01*
X134795900Y-125573754D01*
X134676315Y-125285050D01*
X134607818Y-125216553D01*
X134628716Y-125166101D01*
X135037658Y-125166101D01*
X135107699Y-125180033D01*
X135177740Y-125166101D01*
X135177745Y-125166101D01*
X135385195Y-125124837D01*
X135620445Y-124967647D01*
X135660123Y-124908265D01*
X135799972Y-124768416D01*
X135928100Y-124715343D01*
X136165554Y-124813700D01*
X136478046Y-124813700D01*
X136728200Y-124710083D01*
X136952280Y-124802900D01*
X136952280Y-124802900D01*
G37*
X136952280Y-124802900D02*
X136689650Y-124911685D01*
X136468685Y-125132650D01*
X136402224Y-125293101D01*
X135990540Y-125293101D01*
X135920498Y-125279169D01*
X135850456Y-125293101D01*
X135850453Y-125293101D01*
X135643003Y-125334365D01*
X135643002Y-125334366D01*
X135643001Y-125334366D01*
X135502278Y-125428395D01*
X135407753Y-125491555D01*
X135368075Y-125550937D01*
X135268828Y-125650184D01*
X135089450Y-125724485D01*
X134868485Y-125945450D01*
X134748900Y-126234154D01*
X134748900Y-126546646D01*
X134853342Y-126798793D01*
X134843085Y-126809050D01*
X134768784Y-126988428D01*
X134701933Y-127055279D01*
X134674504Y-127073607D01*
X134581739Y-126849651D01*
X134360774Y-126628686D01*
X134087519Y-126515500D01*
X134166646Y-126515500D01*
X134455350Y-126395915D01*
X134676315Y-126174950D01*
X134795900Y-125886246D01*
X134795900Y-125573754D01*
X134676315Y-125285050D01*
X134607818Y-125216553D01*
X134628716Y-125166101D01*
X135037658Y-125166101D01*
X135107699Y-125180033D01*
X135177740Y-125166101D01*
X135177745Y-125166101D01*
X135385195Y-125124837D01*
X135620445Y-124967647D01*
X135660123Y-124908265D01*
X135799972Y-124768416D01*
X135928100Y-124715343D01*
X136165554Y-124813700D01*
X136478046Y-124813700D01*
X136728200Y-124710083D01*
X136952280Y-124802900D01*
G36*
X139238667Y-126325255D02*
X139341317Y-126427905D01*
X139219112Y-126478524D01*
X139046667Y-126306079D01*
X139119520Y-126275903D01*
X139238667Y-126325255D01*
X139238667Y-126325255D01*
G37*
X139238667Y-126325255D02*
X139341317Y-126427905D01*
X139219112Y-126478524D01*
X139046667Y-126306079D01*
X139119520Y-126275903D01*
X139238667Y-126325255D01*
G36*
X143418308Y-125272800D02*
X143529460Y-125831600D01*
X141137588Y-125831600D01*
X141488962Y-125480227D01*
X141541050Y-125532315D01*
X141829754Y-125651900D01*
X142142246Y-125651900D01*
X142430950Y-125532315D01*
X142651915Y-125311350D01*
X142771500Y-125022646D01*
X142771500Y-124739400D01*
X143524407Y-124739400D01*
X143418308Y-125272800D01*
X143418308Y-125272800D01*
G37*
X143418308Y-125272800D02*
X143529460Y-125831600D01*
X141137588Y-125831600D01*
X141488962Y-125480227D01*
X141541050Y-125532315D01*
X141829754Y-125651900D01*
X142142246Y-125651900D01*
X142430950Y-125532315D01*
X142651915Y-125311350D01*
X142771500Y-125022646D01*
X142771500Y-124739400D01*
X143524407Y-124739400D01*
X143418308Y-125272800D01*
G36*
X134748900Y-122429900D02*
X134590754Y-122429900D01*
X134340600Y-122533517D01*
X134090446Y-122429900D01*
X133932300Y-122429900D01*
X133932300Y-122326400D01*
X134748900Y-122326400D01*
X134748900Y-122429900D01*
X134748900Y-122429900D01*
G37*
X134748900Y-122429900D02*
X134590754Y-122429900D01*
X134340600Y-122533517D01*
X134090446Y-122429900D01*
X133932300Y-122429900D01*
X133932300Y-122326400D01*
X134748900Y-122326400D01*
X134748900Y-122429900D01*
G36*
X145059400Y-120065800D02*
X145079400Y-120065800D01*
X145079400Y-120319800D01*
X145059400Y-120319800D01*
X145059400Y-120339800D01*
X144805400Y-120339800D01*
X144805400Y-120319800D01*
X144785400Y-120319800D01*
X144785400Y-120065800D01*
X144805400Y-120065800D01*
X144805400Y-120045800D01*
X145059400Y-120045800D01*
X145059400Y-120065800D01*
X145059400Y-120065800D01*
G37*
X145059400Y-120065800D02*
X145079400Y-120065800D01*
X145079400Y-120319800D01*
X145059400Y-120319800D01*
X145059400Y-120339800D01*
X144805400Y-120339800D01*
X144805400Y-120319800D01*
X144785400Y-120319800D01*
X144785400Y-120065800D01*
X144805400Y-120065800D01*
X144805400Y-120045800D01*
X145059400Y-120045800D01*
X145059400Y-120065800D01*
G04 #@! TD*
M02*
