M48
;DRILL file {KiCad 5.0.0-rc3-unknown-101b68b~65~ubuntu16.04.1} date Thu Jul  5 16:56:38 2018
;FORMAT={-:-/ absolute / inch / decimal}
FMAT,2
INCH,TZ
T1C0.0118
T2C0.0394
%
G90
G05
M72
T1
X4.6087Y-4.8909
X4.6535Y-5.1185
X4.6547Y-4.863
X4.724Y-4.8941
X4.7374Y-5.0327
X4.8165Y-5.0626
X4.8173Y-5.0433
X4.824Y-4.6705
X4.8524Y-4.6528
X4.9224Y-5.0134
X4.9417Y-5.1996
X4.9469Y-4.5819
X4.9516Y-5.3232
X4.9961Y-5.2866
X5.048Y-4.928
X5.0772Y-5.3248
X5.0827Y-4.8457
X5.0839Y-5.1118
X5.1213Y-4.7063
X5.1406Y-5.5658
X5.1508Y-5.2697
X5.1511Y-4.7028
X5.1661Y-4.7287
X5.1751Y-4.8461
X5.1799Y-4.9752
X5.1807Y-5.1587
X5.1843Y-5.0918
X5.1906Y-5.052
X5.1937Y-5.111
X5.2291Y-4.8937
X5.2295Y-4.7677
X5.261Y-4.989
X5.2614Y-4.7673
X5.2614Y-4.861
X5.2614Y-4.9563
X5.2614Y-5.023
X5.2614Y-5.0508
X5.2618Y-5.113
X5.2622Y-4.8295
X5.2917Y-5.113
X5.2921Y-4.926
X5.2925Y-5.0823
X5.2929Y-4.798
X5.2929Y-4.9874
X5.2933Y-4.7669
X5.2933Y-4.8937
X5.2941Y-5.0177
X5.3165Y-4.7165
X5.3224Y-5.05
X5.3236Y-4.8307
X5.324Y-5.1138
X5.3244Y-4.7673
X5.3244Y-4.798
X5.3244Y-4.8933
X5.3244Y-5.0827
X5.3248Y-4.9563
X5.3252Y-4.861
X5.3551Y-5.1142
X5.3559Y-4.861
X5.3559Y-5.0185
X5.3559Y-5.0504
X5.3559Y-5.0819
X5.3563Y-4.8303
X5.3563Y-4.9563
X5.3587Y-5.239
X5.3689Y-5.2126
X5.3701Y-4.565
X5.374Y-4.702
X5.3858Y-5.1476
X5.3862Y-5.0819
X5.3866Y-4.7681
X5.3866Y-4.8941
X5.3874Y-4.7984
X5.3874Y-4.8303
X5.3874Y-4.8626
X5.3874Y-4.9555
X5.3874Y-5.0189
X5.3874Y-5.0508
X5.4181Y-5.1122
X5.4185Y-4.8303
X5.4185Y-4.8614
X5.4185Y-4.8929
X5.4185Y-4.9882
X5.4189Y-4.7984
X5.4189Y-5.0193
X5.4189Y-5.0504
X5.4228Y-4.6433
X5.4484Y-5.1492
X5.4488Y-5.2457
X5.45Y-4.9563
X5.4504Y-4.8299
X5.4504Y-4.8626
X5.4504Y-4.9878
X5.4504Y-5.0193
X5.4504Y-5.1134
X5.4508Y-5.0827
X5.4512Y-4.8933
X5.4614Y-5.1654
X5.4654Y-4.6772
X5.4669Y-5.2606
X5.4815Y-4.9567
X5.4815Y-5.0185
X5.4819Y-4.7988
X5.4819Y-4.8299
X5.4819Y-4.8933
X5.4819Y-4.9248
X5.4819Y-5.0504
X5.4819Y-5.1134
X5.4823Y-4.8618
X5.4827Y-5.3295
X5.5079Y-5.1508
X5.5122Y-5.0496
X5.5126Y-4.9248
X5.513Y-4.7669
X5.513Y-4.861
X5.513Y-4.8937
X5.513Y-5.0819
X5.5134Y-4.7988
X5.5134Y-4.8303
X5.5134Y-4.9571
X5.5134Y-5.0189
X5.5134Y-5.1134
X5.5161Y-4.9874
X5.5441Y-5.05
X5.5441Y-5.0815
X5.5441Y-5.1126
X5.5445Y-4.9559
X5.5449Y-4.7984
X5.5449Y-4.8618
X5.5453Y-4.7669
X5.5453Y-4.8307
X5.5732Y-4.613
X5.5732Y-4.7303
X5.576Y-4.7665
X5.576Y-4.8614
X5.576Y-4.9244
X5.576Y-5.05
X5.576Y-5.0815
X5.576Y-5.113
X5.5764Y-4.8937
X5.5764Y-5.0189
X5.5807Y-4.637
X5.5937Y-4.6575
X5.5937Y-5.1799
X5.6161Y-4.7004
X5.6189Y-4.8587
X5.6513Y-4.8785
X5.6677Y-4.9874
X5.7374Y-5.0543
X5.761Y-4.6366
X5.9177Y-5.1705
X5.9709Y-5.3063
X6.0567Y-5.1768
X6.0795Y-4.7516
X6.1039Y-5.3173
X6.1535Y-4.5646
X6.2079Y-4.9559
X6.2165Y-5.4319
X6.224Y-4.5602
X6.2445Y-4.6728
X6.2563Y-4.5602
X6.339Y-4.5553
X6.3858Y-4.6693
X6.3917Y-4.9539
X6.4134Y-4.748
X6.5189Y-5.4807
X6.5209Y-5.191
X6.5236Y-4.5984
X6.5417Y-5.191
X6.5472Y-4.7008
X6.5673Y-5.1886
X6.598Y-4.7843
X6.5984Y-4.6378
X6.6043Y-5.1614
X6.6067Y-5.3252
X6.6339Y-4.7165
X6.6583Y-5.087
X6.6587Y-5.0035
X6.6594Y-5.0508
X6.6614Y-4.7126
X6.6673Y-4.9138
X6.6972Y-5.1906
X6.7244Y-4.6654
X6.7323Y-4.9016
X6.7323Y-4.9921
X6.752Y-4.9016
X6.7587Y-4.9398
X6.7618Y-4.6555
X6.7645Y-4.674
X6.7815Y-4.6555
X6.7972Y-5.3323
X6.8031Y-4.8583
X6.8354Y-5.3201
X6.8358Y-5.2433
X6.8472Y-5.2209
X6.8551Y-5.2606
X6.8614Y-4.4374
X6.8678Y-4.7275
X6.9449Y-5.0709
X6.9449Y-5.1575
X7.0276Y-4.7047
X7.0307Y-5.4539
X7.035Y-4.6157
X7.1024Y-4.5748
X7.1024Y-4.9961
X7.1063Y-4.8346
X7.1181Y-4.7362
X7.122Y-5.0394
X7.124Y-5.2776
X7.1642Y-5.1177
X7.1732Y-5.1457
X7.2602Y-4.9398
X7.3189Y-5.1811
X7.3516Y-5.3461
X7.3646Y-5.1917
X7.376Y-5.3343
X7.4724Y-4.7441
X7.4768Y-5.1783
X7.685Y-4.6614
X7.7079Y-5.3354
T2
X4.5043Y-4.398
X4.5043Y-4.498
X4.6043Y-4.398
X4.6043Y-4.498
X4.7043Y-4.398
X4.7043Y-4.498
X4.8043Y-4.398
X4.8043Y-4.498
X4.9043Y-4.398
X4.9043Y-4.498
X5.0043Y-4.398
X5.0043Y-4.498
X5.1043Y-4.398
X5.1043Y-4.498
X5.2043Y-4.398
X5.2043Y-4.498
X5.3043Y-4.398
X5.3043Y-4.498
X5.4043Y-4.398
X5.4043Y-4.498
X5.5043Y-4.398
X5.5043Y-4.498
X5.6043Y-4.398
X5.6043Y-4.498
X5.7043Y-4.398
X5.7043Y-4.498
X5.8043Y-4.398
X5.8043Y-4.498
X5.9043Y-4.398
X5.9043Y-4.498
X6.0043Y-4.398
X6.0043Y-4.498
X6.1673Y-5.4024
X6.1673Y-5.5024
X6.2673Y-5.4024
X6.2673Y-5.5024
X6.3673Y-5.4024
X6.3673Y-5.5024
X6.4673Y-5.4024
X6.4673Y-5.5024
X6.5673Y-5.4024
X6.5673Y-5.5024
X6.6673Y-5.4024
X6.6673Y-5.5024
X6.7673Y-5.4024
X6.7673Y-5.5024
X6.8673Y-5.4024
X6.8673Y-5.5024
X6.9673Y-5.4024
X6.9673Y-5.5024
X7.0673Y-5.4024
X7.0673Y-5.5024
X7.1673Y-5.4024
X7.1673Y-5.5024
X7.2673Y-5.4024
X7.2673Y-5.5024
X7.3673Y-5.4024
X7.3673Y-5.5024
X7.4673Y-5.4024
X7.4673Y-5.5024
X7.5673Y-5.4024
X7.5673Y-5.5024
X7.6673Y-5.4024
X7.6673Y-5.5024
X4.5039Y-5.402
X4.5039Y-5.502
X4.6039Y-5.402
X4.6039Y-5.502
X4.7039Y-5.402
X4.7039Y-5.502
X4.8039Y-5.402
X4.8039Y-5.502
X4.9039Y-5.402
X4.9039Y-5.502
X5.0039Y-5.402
X5.0039Y-5.502
X5.1039Y-5.402
X5.1039Y-5.502
X5.2039Y-5.402
X5.2039Y-5.502
X5.3039Y-5.402
X5.3039Y-5.502
X5.4039Y-5.402
X5.4039Y-5.502
X5.5039Y-5.402
X5.5039Y-5.502
X5.6039Y-5.402
X5.6039Y-5.502
X5.7039Y-5.402
X5.7039Y-5.502
X5.8039Y-5.402
X5.8039Y-5.502
X5.9039Y-5.402
X5.9039Y-5.502
X6.0039Y-5.402
X6.0039Y-5.502
X6.1815Y-4.3953
X6.1815Y-4.4953
X6.2815Y-4.3953
X6.2815Y-4.4953
X6.3815Y-4.3953
X6.3815Y-4.4953
X6.4815Y-4.3953
X6.4815Y-4.4953
X6.5815Y-4.3953
X6.5815Y-4.4953
X7.1673Y-4.398
X7.1673Y-4.498
X7.2673Y-4.398
X7.2673Y-4.498
X7.3673Y-4.398
X7.3673Y-4.498
X7.4673Y-4.398
X7.4673Y-4.498
X7.5673Y-4.398
X7.5673Y-4.498
X7.6673Y-4.398
X7.6673Y-4.498
T0
M30
