G04 #@! TF.GenerationSoftware,KiCad,Pcbnew,5.0.0-rc3-unknown-14ce5182~65~ubuntu16.04.1*
G04 #@! TF.CreationDate,2018-08-12T21:53:15+02:00*
G04 #@! TF.ProjectId,roboy_sno,726F626F795F736E6F2E6B696361645F,rev?*
G04 #@! TF.SameCoordinates,Original*
G04 #@! TF.FileFunction,Legend,Top*
G04 #@! TF.FilePolarity,Positive*
%FSLAX46Y46*%
G04 Gerber Fmt 4.6, Leading zero omitted, Abs format (unit mm)*
G04 Created by KiCad (PCBNEW 5.0.0-rc3-unknown-14ce5182~65~ubuntu16.04.1) date Sun Aug 12 21:53:15 2018*
%MOMM*%
%LPD*%
G01*
G04 APERTURE LIST*
%ADD10C,0.150000*%
%ADD11C,0.250000*%
%ADD12C,0.300000*%
%ADD13C,0.120000*%
%ADD14C,0.100000*%
%ADD15C,0.127000*%
%ADD16C,0.152400*%
G04 APERTURE END LIST*
D10*
G36*
X112268000Y-118084600D02*
X115849400Y-118084600D01*
X115849400Y-121132600D01*
X112268000Y-121132600D01*
X112268000Y-118084600D01*
G37*
X112268000Y-118084600D02*
X115849400Y-118084600D01*
X115849400Y-121132600D01*
X112268000Y-121132600D01*
X112268000Y-118084600D01*
D11*
X113817423Y-114387380D02*
X113341233Y-114387380D01*
X113293614Y-114863571D01*
X113341233Y-114815952D01*
X113436471Y-114768333D01*
X113674566Y-114768333D01*
X113769804Y-114815952D01*
X113817423Y-114863571D01*
X113865042Y-114958809D01*
X113865042Y-115196904D01*
X113817423Y-115292142D01*
X113769804Y-115339761D01*
X113674566Y-115387380D01*
X113436471Y-115387380D01*
X113341233Y-115339761D01*
X113293614Y-115292142D01*
X114150757Y-114387380D02*
X114484090Y-115387380D01*
X114817423Y-114387380D01*
D10*
X157237752Y-124515571D02*
X157571085Y-124515571D01*
X157713942Y-125039380D02*
X157237752Y-125039380D01*
X157237752Y-124039380D01*
X157713942Y-124039380D01*
X158094895Y-124991761D02*
X158237752Y-125039380D01*
X158475847Y-125039380D01*
X158571085Y-124991761D01*
X158618704Y-124944142D01*
X158666323Y-124848904D01*
X158666323Y-124753666D01*
X158618704Y-124658428D01*
X158571085Y-124610809D01*
X158475847Y-124563190D01*
X158285371Y-124515571D01*
X158190133Y-124467952D01*
X158142514Y-124420333D01*
X158094895Y-124325095D01*
X158094895Y-124229857D01*
X158142514Y-124134619D01*
X158190133Y-124087000D01*
X158285371Y-124039380D01*
X158523466Y-124039380D01*
X158666323Y-124087000D01*
X159094895Y-125039380D02*
X159094895Y-124039380D01*
X159475847Y-124039380D01*
X159571085Y-124087000D01*
X159618704Y-124134619D01*
X159666323Y-124229857D01*
X159666323Y-124372714D01*
X159618704Y-124467952D01*
X159571085Y-124515571D01*
X159475847Y-124563190D01*
X159094895Y-124563190D01*
X160237752Y-124467952D02*
X160142514Y-124420333D01*
X160094895Y-124372714D01*
X160047276Y-124277476D01*
X160047276Y-124229857D01*
X160094895Y-124134619D01*
X160142514Y-124087000D01*
X160237752Y-124039380D01*
X160428228Y-124039380D01*
X160523466Y-124087000D01*
X160571085Y-124134619D01*
X160618704Y-124229857D01*
X160618704Y-124277476D01*
X160571085Y-124372714D01*
X160523466Y-124420333D01*
X160428228Y-124467952D01*
X160237752Y-124467952D01*
X160142514Y-124515571D01*
X160094895Y-124563190D01*
X160047276Y-124658428D01*
X160047276Y-124848904D01*
X160094895Y-124944142D01*
X160142514Y-124991761D01*
X160237752Y-125039380D01*
X160428228Y-125039380D01*
X160523466Y-124991761D01*
X160571085Y-124944142D01*
X160618704Y-124848904D01*
X160618704Y-124658428D01*
X160571085Y-124563190D01*
X160523466Y-124515571D01*
X160428228Y-124467952D01*
X160999657Y-124134619D02*
X161047276Y-124087000D01*
X161142514Y-124039380D01*
X161380609Y-124039380D01*
X161475847Y-124087000D01*
X161523466Y-124134619D01*
X161571085Y-124229857D01*
X161571085Y-124325095D01*
X161523466Y-124467952D01*
X160952038Y-125039380D01*
X161571085Y-125039380D01*
X162428228Y-124039380D02*
X162237752Y-124039380D01*
X162142514Y-124087000D01*
X162094895Y-124134619D01*
X161999657Y-124277476D01*
X161952038Y-124467952D01*
X161952038Y-124848904D01*
X161999657Y-124944142D01*
X162047276Y-124991761D01*
X162142514Y-125039380D01*
X162332990Y-125039380D01*
X162428228Y-124991761D01*
X162475847Y-124944142D01*
X162523466Y-124848904D01*
X162523466Y-124610809D01*
X162475847Y-124515571D01*
X162428228Y-124467952D01*
X162332990Y-124420333D01*
X162142514Y-124420333D01*
X162047276Y-124467952D01*
X161999657Y-124515571D01*
X161952038Y-124610809D01*
X163380609Y-124039380D02*
X163190133Y-124039380D01*
X163094895Y-124087000D01*
X163047276Y-124134619D01*
X162952038Y-124277476D01*
X162904419Y-124467952D01*
X162904419Y-124848904D01*
X162952038Y-124944142D01*
X162999657Y-124991761D01*
X163094895Y-125039380D01*
X163285371Y-125039380D01*
X163380609Y-124991761D01*
X163428228Y-124944142D01*
X163475847Y-124848904D01*
X163475847Y-124610809D01*
X163428228Y-124515571D01*
X163380609Y-124467952D01*
X163285371Y-124420333D01*
X163094895Y-124420333D01*
X162999657Y-124467952D01*
X162952038Y-124515571D01*
X162904419Y-124610809D01*
X163904419Y-124658428D02*
X164666323Y-124658428D01*
X165666323Y-125039380D02*
X165094895Y-125039380D01*
X165380609Y-125039380D02*
X165380609Y-124039380D01*
X165285371Y-124182238D01*
X165190133Y-124277476D01*
X165094895Y-124325095D01*
X166047276Y-124134619D02*
X166094895Y-124087000D01*
X166190133Y-124039380D01*
X166428228Y-124039380D01*
X166523466Y-124087000D01*
X166571085Y-124134619D01*
X166618704Y-124229857D01*
X166618704Y-124325095D01*
X166571085Y-124467952D01*
X165999657Y-125039380D01*
X166618704Y-125039380D01*
X167047276Y-124515571D02*
X167380609Y-124515571D01*
X167523466Y-125039380D02*
X167047276Y-125039380D01*
X167047276Y-124039380D01*
X167523466Y-124039380D01*
D12*
X125345371Y-117823371D02*
X124488228Y-117823371D01*
X124916800Y-117823371D02*
X124916800Y-116323371D01*
X124773942Y-116537657D01*
X124631085Y-116680514D01*
X124488228Y-116751942D01*
X126273942Y-116323371D02*
X126416800Y-116323371D01*
X126559657Y-116394800D01*
X126631085Y-116466228D01*
X126702514Y-116609085D01*
X126773942Y-116894800D01*
X126773942Y-117251942D01*
X126702514Y-117537657D01*
X126631085Y-117680514D01*
X126559657Y-117751942D01*
X126416800Y-117823371D01*
X126273942Y-117823371D01*
X126131085Y-117751942D01*
X126059657Y-117680514D01*
X125988228Y-117537657D01*
X125916800Y-117251942D01*
X125916800Y-116894800D01*
X125988228Y-116609085D01*
X126059657Y-116466228D01*
X126131085Y-116394800D01*
X126273942Y-116323371D01*
X127416800Y-117823371D02*
X127416800Y-116323371D01*
X127916800Y-117394800D01*
X128416800Y-116323371D01*
X128416800Y-117823371D01*
X129916800Y-117823371D02*
X129059657Y-117823371D01*
X129488228Y-117823371D02*
X129488228Y-116323371D01*
X129345371Y-116537657D01*
X129202514Y-116680514D01*
X129059657Y-116751942D01*
X131202514Y-116323371D02*
X130916800Y-116323371D01*
X130773942Y-116394800D01*
X130702514Y-116466228D01*
X130559657Y-116680514D01*
X130488228Y-116966228D01*
X130488228Y-117537657D01*
X130559657Y-117680514D01*
X130631085Y-117751942D01*
X130773942Y-117823371D01*
X131059657Y-117823371D01*
X131202514Y-117751942D01*
X131273942Y-117680514D01*
X131345371Y-117537657D01*
X131345371Y-117180514D01*
X131273942Y-117037657D01*
X131202514Y-116966228D01*
X131059657Y-116894800D01*
X130773942Y-116894800D01*
X130631085Y-116966228D01*
X130559657Y-117037657D01*
X130488228Y-117180514D01*
X131916800Y-117751942D02*
X132131085Y-117823371D01*
X132488228Y-117823371D01*
X132631085Y-117751942D01*
X132702514Y-117680514D01*
X132773942Y-117537657D01*
X132773942Y-117394800D01*
X132702514Y-117251942D01*
X132631085Y-117180514D01*
X132488228Y-117109085D01*
X132202514Y-117037657D01*
X132059657Y-116966228D01*
X131988228Y-116894800D01*
X131916800Y-116751942D01*
X131916800Y-116609085D01*
X131988228Y-116466228D01*
X132059657Y-116394800D01*
X132202514Y-116323371D01*
X132559657Y-116323371D01*
X132773942Y-116394800D01*
X133345371Y-117394800D02*
X134059657Y-117394800D01*
X133202514Y-117823371D02*
X133702514Y-116323371D01*
X134202514Y-117823371D01*
X134702514Y-116323371D02*
X134702514Y-117537657D01*
X134773942Y-117680514D01*
X134845371Y-117751942D01*
X134988228Y-117823371D01*
X135273942Y-117823371D01*
X135416800Y-117751942D01*
X135488228Y-117680514D01*
X135559657Y-117537657D01*
X135559657Y-116323371D01*
X137059657Y-117823371D02*
X136202514Y-117823371D01*
X136631085Y-117823371D02*
X136631085Y-116323371D01*
X136488228Y-116537657D01*
X136345371Y-116680514D01*
X136202514Y-116751942D01*
X138345371Y-116323371D02*
X138059657Y-116323371D01*
X137916800Y-116394800D01*
X137845371Y-116466228D01*
X137702514Y-116680514D01*
X137631085Y-116966228D01*
X137631085Y-117537657D01*
X137702514Y-117680514D01*
X137773942Y-117751942D01*
X137916800Y-117823371D01*
X138202514Y-117823371D01*
X138345371Y-117751942D01*
X138416800Y-117680514D01*
X138488228Y-117537657D01*
X138488228Y-117180514D01*
X138416800Y-117037657D01*
X138345371Y-116966228D01*
X138202514Y-116894800D01*
X137916800Y-116894800D01*
X137773942Y-116966228D01*
X137702514Y-117037657D01*
X137631085Y-117180514D01*
X139202514Y-117823371D02*
X139488228Y-117823371D01*
X139631085Y-117751942D01*
X139702514Y-117680514D01*
X139845371Y-117466228D01*
X139916800Y-117180514D01*
X139916800Y-116609085D01*
X139845371Y-116466228D01*
X139773942Y-116394800D01*
X139631085Y-116323371D01*
X139345371Y-116323371D01*
X139202514Y-116394800D01*
X139131085Y-116466228D01*
X139059657Y-116609085D01*
X139059657Y-116966228D01*
X139131085Y-117109085D01*
X139202514Y-117180514D01*
X139345371Y-117251942D01*
X139631085Y-117251942D01*
X139773942Y-117180514D01*
X139845371Y-117109085D01*
X139916800Y-116966228D01*
X141416800Y-117680514D02*
X141345371Y-117751942D01*
X141131085Y-117823371D01*
X140988228Y-117823371D01*
X140773942Y-117751942D01*
X140631085Y-117609085D01*
X140559657Y-117466228D01*
X140488228Y-117180514D01*
X140488228Y-116966228D01*
X140559657Y-116680514D01*
X140631085Y-116537657D01*
X140773942Y-116394800D01*
X140988228Y-116323371D01*
X141131085Y-116323371D01*
X141345371Y-116394800D01*
X141416800Y-116466228D01*
X142273942Y-116966228D02*
X142131085Y-116894800D01*
X142059657Y-116823371D01*
X141988228Y-116680514D01*
X141988228Y-116609085D01*
X142059657Y-116466228D01*
X142131085Y-116394800D01*
X142273942Y-116323371D01*
X142559657Y-116323371D01*
X142702514Y-116394800D01*
X142773942Y-116466228D01*
X142845371Y-116609085D01*
X142845371Y-116680514D01*
X142773942Y-116823371D01*
X142702514Y-116894800D01*
X142559657Y-116966228D01*
X142273942Y-116966228D01*
X142131085Y-117037657D01*
X142059657Y-117109085D01*
X141988228Y-117251942D01*
X141988228Y-117537657D01*
X142059657Y-117680514D01*
X142131085Y-117751942D01*
X142273942Y-117823371D01*
X142559657Y-117823371D01*
X142702514Y-117751942D01*
X142773942Y-117680514D01*
X142845371Y-117537657D01*
X142845371Y-117251942D01*
X142773942Y-117109085D01*
X142702514Y-117037657D01*
X142559657Y-116966228D01*
X144273942Y-116394800D02*
X144131085Y-116323371D01*
X143916800Y-116323371D01*
X143702514Y-116394800D01*
X143559657Y-116537657D01*
X143488228Y-116680514D01*
X143416800Y-116966228D01*
X143416800Y-117180514D01*
X143488228Y-117466228D01*
X143559657Y-117609085D01*
X143702514Y-117751942D01*
X143916800Y-117823371D01*
X144059657Y-117823371D01*
X144273942Y-117751942D01*
X144345371Y-117680514D01*
X144345371Y-117180514D01*
X144059657Y-117180514D01*
D10*
G36*
X148422425Y-123543153D02*
X148422425Y-127861153D01*
X149057425Y-127861153D01*
X149057425Y-123543153D01*
X148422425Y-123543153D01*
G37*
X148422425Y-123543153D02*
X148422425Y-127861153D01*
X149057425Y-127861153D01*
X149057425Y-123543153D01*
X148422425Y-123543153D01*
D13*
G04 #@! TO.C,J7*
X173761400Y-137736000D02*
X173381400Y-137736000D01*
X173761400Y-141786000D02*
X173761400Y-142046000D01*
X173761400Y-137736000D02*
X173761400Y-139506000D01*
X166141400Y-137736000D02*
X166521400Y-137736000D01*
X166141400Y-139506000D02*
X166141400Y-137736000D01*
X166141400Y-142046000D02*
X166141400Y-141786000D01*
G04 #@! TO.C,J4*
X143602400Y-118862800D02*
X146202400Y-118862800D01*
X143602400Y-118862800D02*
X143602400Y-131682800D01*
X143602400Y-131682800D02*
X148802400Y-131682800D01*
X148802400Y-121462800D02*
X148802400Y-131682800D01*
X146202400Y-121462800D02*
X148802400Y-121462800D01*
X146202400Y-118862800D02*
X146202400Y-121462800D01*
X148802400Y-118862800D02*
X148802400Y-120192800D01*
X147472400Y-118862800D02*
X148802400Y-118862800D01*
G04 #@! TO.C,Q1*
X175198000Y-107806000D02*
X173298000Y-107806000D01*
X173798000Y-110126000D02*
X175198000Y-110126000D01*
D10*
G04 #@! TO.C,U1*
X122448597Y-115625160D02*
X120398597Y-115625160D01*
X123153597Y-118925160D02*
X120398597Y-118925160D01*
D13*
G04 #@! TO.C,U2*
X124352000Y-126173000D02*
X124352000Y-129323000D01*
X124352000Y-129323000D02*
X128152000Y-129323000D01*
D14*
G04 #@! TO.C,U3*
X129303000Y-119697000D02*
G75*
G03X129303000Y-119697000I-200000J0D01*
G01*
D15*
X140628000Y-130722000D02*
X129628000Y-130722000D01*
X140628000Y-119722000D02*
X129628000Y-119722000D01*
X140628000Y-130722000D02*
X140628000Y-119722000D01*
X129628000Y-130722000D02*
X129628000Y-119722000D01*
D10*
G04 #@! TO.C,U5*
X167268000Y-113656000D02*
X167268000Y-112881000D01*
X171568000Y-109356000D02*
X171568000Y-110131000D01*
X167268000Y-109356000D02*
X167268000Y-110131000D01*
X171568000Y-113656000D02*
X170793000Y-113656000D01*
X171568000Y-109356000D02*
X170793000Y-109356000D01*
X167268000Y-109356000D02*
X168043000Y-109356000D01*
X167268000Y-113656000D02*
X168043000Y-113656000D01*
D16*
G04 #@! TO.C,U4*
X152781000Y-116332000D02*
X152019000Y-116332000D01*
X152019000Y-116332000D02*
X152019000Y-132334000D01*
X152019000Y-132334000D02*
X152781000Y-132334000D01*
D13*
G04 #@! TO.C,D2*
X118224200Y-115495400D02*
X115939200Y-115495400D01*
X115939200Y-115495400D02*
X115939200Y-116965400D01*
X115939200Y-116965400D02*
X118224200Y-116965400D01*
G04 #@! TO.C,SW2*
X114765000Y-131875800D02*
X115065000Y-131875800D01*
X115065000Y-131875800D02*
X115065000Y-128575800D01*
X115065000Y-128575800D02*
X114765000Y-128575800D01*
X112565000Y-131875800D02*
X112265000Y-131875800D01*
X112265000Y-131875800D02*
X112265000Y-128575800D01*
X112265000Y-128575800D02*
X112565000Y-128575800D01*
G04 #@! TO.C,D3*
X116002700Y-121816800D02*
X118287700Y-121816800D01*
X116002700Y-120346800D02*
X116002700Y-121816800D01*
X118287700Y-120346800D02*
X116002700Y-120346800D01*
G04 #@! TO.C,J1*
X115062000Y-135860000D02*
X115062000Y-134660000D01*
X136872000Y-141660000D02*
X136872000Y-139920000D01*
X113572000Y-141660000D02*
X136872000Y-141660000D01*
X113572000Y-139920000D02*
X113572000Y-141660000D01*
X136872000Y-135860000D02*
X136872000Y-137200000D01*
X135382000Y-135860000D02*
X136872000Y-135860000D01*
X113572000Y-135860000D02*
X113572000Y-137200000D01*
X115062000Y-135860000D02*
X113572000Y-135860000D01*
G04 #@! TO.C,J2*
X141478000Y-135860000D02*
X139988000Y-135860000D01*
X139988000Y-135860000D02*
X139988000Y-137200000D01*
X161798000Y-135860000D02*
X163288000Y-135860000D01*
X163288000Y-135860000D02*
X163288000Y-137200000D01*
X139988000Y-139920000D02*
X139988000Y-141660000D01*
X139988000Y-141660000D02*
X163288000Y-141660000D01*
X163288000Y-141660000D02*
X163288000Y-139920000D01*
X141478000Y-135860000D02*
X141478000Y-134660000D01*
G04 #@! TO.C,J3*
X135382000Y-112806000D02*
X135382000Y-114006000D01*
X113572000Y-107006000D02*
X113572000Y-108746000D01*
X136872000Y-107006000D02*
X113572000Y-107006000D01*
X136872000Y-108746000D02*
X136872000Y-107006000D01*
X113572000Y-112806000D02*
X113572000Y-111466000D01*
X115062000Y-112806000D02*
X113572000Y-112806000D01*
X136872000Y-112806000D02*
X136872000Y-111466000D01*
X135382000Y-112806000D02*
X136872000Y-112806000D01*
G04 #@! TO.C,J6*
X161798000Y-112806000D02*
X163288000Y-112806000D01*
X163288000Y-112806000D02*
X163288000Y-111466000D01*
X141478000Y-112806000D02*
X139988000Y-112806000D01*
X139988000Y-112806000D02*
X139988000Y-111466000D01*
X163288000Y-108746000D02*
X163288000Y-107006000D01*
X163288000Y-107006000D02*
X139988000Y-107006000D01*
X139988000Y-107006000D02*
X139988000Y-108746000D01*
X161798000Y-112806000D02*
X161798000Y-114006000D01*
G04 #@! TO.C,SW1*
X112552300Y-122771900D02*
X112252300Y-122771900D01*
X112252300Y-122771900D02*
X112252300Y-126071900D01*
X112252300Y-126071900D02*
X112552300Y-126071900D01*
X114752300Y-122771900D02*
X115052300Y-122771900D01*
X115052300Y-122771900D02*
X115052300Y-126071900D01*
X115052300Y-126071900D02*
X114752300Y-126071900D01*
G04 #@! TO.C,J5*
X115376000Y-115510000D02*
X112716000Y-115510000D01*
X115376000Y-118110000D02*
X115376000Y-115510000D01*
X112716000Y-118110000D02*
X112716000Y-115510000D01*
X115376000Y-118110000D02*
X112716000Y-118110000D01*
X115376000Y-119380000D02*
X115376000Y-120710000D01*
X115376000Y-120710000D02*
X114046000Y-120710000D01*
G04 #@! TO.C,D1*
X118287700Y-118695800D02*
X116002700Y-118695800D01*
X116002700Y-118695800D02*
X116002700Y-120165800D01*
X116002700Y-120165800D02*
X118287700Y-120165800D01*
G04 #@! TO.C,D4*
X115964600Y-118591000D02*
X118249600Y-118591000D01*
X115964600Y-117121000D02*
X115964600Y-118591000D01*
X118249600Y-117121000D02*
X115964600Y-117121000D01*
G04 #@! TO.C,D5*
X176958500Y-135823600D02*
X174958500Y-135823600D01*
X174958500Y-135823600D02*
X174958500Y-139673600D01*
X176958500Y-135823600D02*
X176958500Y-139673600D01*
D10*
G04 #@! TO.C,U6*
X115852800Y-126734600D02*
X115852800Y-126234600D01*
X116352800Y-126734600D02*
X115852800Y-126734600D01*
X115852800Y-122134600D02*
X115852800Y-122634600D01*
X115852800Y-122134600D02*
X116352800Y-122134600D01*
X119452800Y-122134600D02*
X118952800Y-122134600D01*
X119452800Y-122134600D02*
X119452800Y-122634600D01*
X119452800Y-126734600D02*
X119452800Y-126234600D01*
X119452800Y-126734600D02*
X118952800Y-126734600D01*
X116352800Y-126734600D02*
X115852800Y-126234600D01*
D13*
G04 #@! TO.C,U7*
X122382100Y-128622200D02*
X122382100Y-128882200D01*
X122382100Y-128622200D02*
X122122100Y-128622200D01*
X122382100Y-132642200D02*
X122382100Y-132382200D01*
X122382100Y-132642200D02*
X122122100Y-132642200D01*
X116962100Y-128622200D02*
X117222100Y-128622200D01*
X116962100Y-132642200D02*
X116962100Y-132382200D01*
X116962100Y-132642200D02*
X117222100Y-132642200D01*
G04 #@! TO.C,J2*
D10*
X151304666Y-132912380D02*
X151304666Y-133626666D01*
X151257047Y-133769523D01*
X151161809Y-133864761D01*
X151018952Y-133912380D01*
X150923714Y-133912380D01*
X151733238Y-133007619D02*
X151780857Y-132960000D01*
X151876095Y-132912380D01*
X152114190Y-132912380D01*
X152209428Y-132960000D01*
X152257047Y-133007619D01*
X152304666Y-133102857D01*
X152304666Y-133198095D01*
X152257047Y-133340952D01*
X151685619Y-133912380D01*
X152304666Y-133912380D01*
G04 #@! TO.C,J6*
X151304666Y-114658380D02*
X151304666Y-115372666D01*
X151257047Y-115515523D01*
X151161809Y-115610761D01*
X151018952Y-115658380D01*
X150923714Y-115658380D01*
X152209428Y-114658380D02*
X152018952Y-114658380D01*
X151923714Y-114706000D01*
X151876095Y-114753619D01*
X151780857Y-114896476D01*
X151733238Y-115086952D01*
X151733238Y-115467904D01*
X151780857Y-115563142D01*
X151828476Y-115610761D01*
X151923714Y-115658380D01*
X152114190Y-115658380D01*
X152209428Y-115610761D01*
X152257047Y-115563142D01*
X152304666Y-115467904D01*
X152304666Y-115229809D01*
X152257047Y-115134571D01*
X152209428Y-115086952D01*
X152114190Y-115039333D01*
X151923714Y-115039333D01*
X151828476Y-115086952D01*
X151780857Y-115134571D01*
X151733238Y-115229809D01*
G04 #@! TD*
M02*
