G04 #@! TF.GenerationSoftware,KiCad,Pcbnew,6.0.0-rc1-unknown-994a9c5~65~ubuntu16.04.1*
G04 #@! TF.CreationDate,2018-07-26T22:21:31+02:00*
G04 #@! TF.ProjectId,roboy_sno,726F626F795F736E6F2E6B696361645F,rev?*
G04 #@! TF.SameCoordinates,Original*
G04 #@! TF.FileFunction,Copper,L3,Inr,Signal*
G04 #@! TF.FilePolarity,Positive*
%FSLAX46Y46*%
G04 Gerber Fmt 4.6, Leading zero omitted, Abs format (unit mm)*
G04 Created by KiCad (PCBNEW 6.0.0-rc1-unknown-994a9c5~65~ubuntu16.04.1) date Thu Jul 26 22:21:31 2018*
%MOMM*%
%LPD*%
G01*
G04 APERTURE LIST*
G04 #@! TA.AperFunction,ViaPad*
%ADD10R,1.700000X1.700000*%
G04 #@! TD*
G04 #@! TA.AperFunction,ViaPad*
%ADD11O,1.700000X1.700000*%
G04 #@! TD*
G04 #@! TA.AperFunction,ViaPad*
%ADD12C,0.301000*%
G04 #@! TD*
G04 #@! TA.AperFunction,Conductor*
%ADD13C,0.152400*%
G04 #@! TD*
G04 #@! TA.AperFunction,Conductor*
%ADD14C,0.254000*%
G04 #@! TD*
G04 APERTURE END LIST*
D10*
G04 #@! TO.N,/TDI*
G04 #@! TO.C,J4*
X157010000Y-111640000D03*
D11*
G04 #@! TO.N,GND*
X157010000Y-114180000D03*
G04 #@! TO.N,Net-(J4-Pad3)*
X159550000Y-111640000D03*
G04 #@! TO.N,Net-(J4-Pad4)*
X159550000Y-114180000D03*
G04 #@! TO.N,/TMS*
X162090000Y-111640000D03*
G04 #@! TO.N,Net-(J4-Pad6)*
X162090000Y-114180000D03*
G04 #@! TO.N,/TDO*
X164630000Y-111640000D03*
G04 #@! TO.N,3.3V*
X164630000Y-114180000D03*
G04 #@! TO.N,/TCK*
X167170000Y-111640000D03*
G04 #@! TO.N,GND*
X167170000Y-114180000D03*
G04 #@! TD*
D10*
G04 #@! TO.N,/ESP8266-12E/ADC*
G04 #@! TO.C,J5*
X194750000Y-114250000D03*
D11*
G04 #@! TO.N,/ESP8266-12E/GPIO2*
X194750000Y-111710000D03*
G04 #@! TO.N,/ESP8266-12E/GPIO16*
X192210000Y-114250000D03*
G04 #@! TO.N,/ESP8266-12E/GPIO4*
X192210000Y-111710000D03*
G04 #@! TO.N,/ESP8266-12E/GPIO15*
X189670000Y-114250000D03*
G04 #@! TO.N,/ESP8266-12E/GPIO5*
X189670000Y-111710000D03*
G04 #@! TO.N,/ESP8266-12E/GPIO14*
X187130000Y-114250000D03*
G04 #@! TO.N,/ESP8266-12E/GPIO9*
X187130000Y-111710000D03*
G04 #@! TO.N,/ESP8266-12E/GPIO13*
X184590000Y-114250000D03*
G04 #@! TO.N,/ESP8266-12E/GPIO10*
X184590000Y-111710000D03*
G04 #@! TO.N,Net-(J5-Pad11)*
X182050000Y-114250000D03*
G04 #@! TO.N,/ESP8266-12E/GPIO12*
X182050000Y-111710000D03*
G04 #@! TD*
D10*
G04 #@! TO.N,/D0*
G04 #@! TO.C,J1*
X152510000Y-114250000D03*
D11*
G04 #@! TO.N,/E0*
X152510000Y-111710000D03*
G04 #@! TO.N,/D1*
X149970000Y-114250000D03*
G04 #@! TO.N,/E1*
X149970000Y-111710000D03*
G04 #@! TO.N,/D2*
X147430000Y-114250000D03*
G04 #@! TO.N,/E2*
X147430000Y-111710000D03*
G04 #@! TO.N,/D3*
X144890000Y-114250000D03*
G04 #@! TO.N,/E3*
X144890000Y-111710000D03*
G04 #@! TO.N,/D4*
X142350000Y-114250000D03*
G04 #@! TO.N,/E4*
X142350000Y-111710000D03*
G04 #@! TO.N,/D5*
X139810000Y-114250000D03*
G04 #@! TO.N,/E5*
X139810000Y-111710000D03*
G04 #@! TO.N,/D6*
X137270000Y-114250000D03*
G04 #@! TO.N,/E6*
X137270000Y-111710000D03*
G04 #@! TO.N,/D7*
X134730000Y-114250000D03*
G04 #@! TO.N,/E7*
X134730000Y-111710000D03*
G04 #@! TO.N,/D8*
X132190000Y-114250000D03*
G04 #@! TO.N,/E8*
X132190000Y-111710000D03*
G04 #@! TO.N,/D9*
X129650000Y-114250000D03*
G04 #@! TO.N,/E9*
X129650000Y-111710000D03*
G04 #@! TO.N,/D10*
X127110000Y-114250000D03*
G04 #@! TO.N,/E10*
X127110000Y-111710000D03*
G04 #@! TO.N,/D11*
X124570000Y-114250000D03*
G04 #@! TO.N,/E11*
X124570000Y-111710000D03*
G04 #@! TO.N,/D12*
X122030000Y-114250000D03*
G04 #@! TO.N,/E12*
X122030000Y-111710000D03*
G04 #@! TO.N,/D13*
X119490000Y-114250000D03*
G04 #@! TO.N,/E13*
X119490000Y-111710000D03*
G04 #@! TO.N,/D14*
X116950000Y-114250000D03*
G04 #@! TO.N,/E14*
X116950000Y-111710000D03*
G04 #@! TO.N,/D15*
X114410000Y-114250000D03*
G04 #@! TO.N,/E15*
X114410000Y-111710000D03*
G04 #@! TD*
G04 #@! TO.N,3.3V*
G04 #@! TO.C,J2*
X114400000Y-137210000D03*
G04 #@! TO.N,GND*
X114400000Y-139750000D03*
G04 #@! TO.N,3.3V*
X116940000Y-137210000D03*
G04 #@! TO.N,GND*
X116940000Y-139750000D03*
G04 #@! TO.N,3.3V*
X119480000Y-137210000D03*
G04 #@! TO.N,GND*
X119480000Y-139750000D03*
G04 #@! TO.N,3.3V*
X122020000Y-137210000D03*
G04 #@! TO.N,GND*
X122020000Y-139750000D03*
G04 #@! TO.N,3.3V*
X124560000Y-137210000D03*
G04 #@! TO.N,GND*
X124560000Y-139750000D03*
G04 #@! TO.N,/E42*
X127100000Y-137210000D03*
G04 #@! TO.N,/D42*
X127100000Y-139750000D03*
G04 #@! TO.N,/E41*
X129640000Y-137210000D03*
G04 #@! TO.N,/D41*
X129640000Y-139750000D03*
G04 #@! TO.N,/E40*
X132180000Y-137210000D03*
G04 #@! TO.N,/D40*
X132180000Y-139750000D03*
G04 #@! TO.N,/E39*
X134720000Y-137210000D03*
G04 #@! TO.N,/D39*
X134720000Y-139750000D03*
G04 #@! TO.N,/E38*
X137260000Y-137210000D03*
G04 #@! TO.N,/D38*
X137260000Y-139750000D03*
G04 #@! TO.N,/E37*
X139800000Y-137210000D03*
G04 #@! TO.N,/D37*
X139800000Y-139750000D03*
G04 #@! TO.N,/E36*
X142340000Y-137210000D03*
G04 #@! TO.N,/D36*
X142340000Y-139750000D03*
G04 #@! TO.N,/E35*
X144880000Y-137210000D03*
G04 #@! TO.N,/D35*
X144880000Y-139750000D03*
G04 #@! TO.N,/E34*
X147420000Y-137210000D03*
G04 #@! TO.N,/D34*
X147420000Y-139750000D03*
G04 #@! TO.N,/E33*
X149960000Y-137210000D03*
G04 #@! TO.N,/D33*
X149960000Y-139750000D03*
G04 #@! TO.N,/E32*
X152500000Y-137210000D03*
D10*
G04 #@! TO.N,/D32*
X152500000Y-139750000D03*
G04 #@! TD*
G04 #@! TO.N,/D16*
G04 #@! TO.C,J3*
X194750000Y-139760000D03*
D11*
G04 #@! TO.N,/E16*
X194750000Y-137220000D03*
G04 #@! TO.N,/D17*
X192210000Y-139760000D03*
G04 #@! TO.N,/E17*
X192210000Y-137220000D03*
G04 #@! TO.N,/D18*
X189670000Y-139760000D03*
G04 #@! TO.N,/E18*
X189670000Y-137220000D03*
G04 #@! TO.N,/D19*
X187130000Y-139760000D03*
G04 #@! TO.N,/E19*
X187130000Y-137220000D03*
G04 #@! TO.N,/D20*
X184590000Y-139760000D03*
G04 #@! TO.N,/E20*
X184590000Y-137220000D03*
G04 #@! TO.N,/D21*
X182050000Y-139760000D03*
G04 #@! TO.N,/E21*
X182050000Y-137220000D03*
G04 #@! TO.N,/D22*
X179510000Y-139760000D03*
G04 #@! TO.N,/E22*
X179510000Y-137220000D03*
G04 #@! TO.N,/D23*
X176970000Y-139760000D03*
G04 #@! TO.N,/E23*
X176970000Y-137220000D03*
G04 #@! TO.N,/D24*
X174430000Y-139760000D03*
G04 #@! TO.N,/E24*
X174430000Y-137220000D03*
G04 #@! TO.N,/D25*
X171890000Y-139760000D03*
G04 #@! TO.N,/E25*
X171890000Y-137220000D03*
G04 #@! TO.N,/D26*
X169350000Y-139760000D03*
G04 #@! TO.N,/E26*
X169350000Y-137220000D03*
G04 #@! TO.N,/D27*
X166810000Y-139760000D03*
G04 #@! TO.N,/E27*
X166810000Y-137220000D03*
G04 #@! TO.N,/D28*
X164270000Y-139760000D03*
G04 #@! TO.N,/E28*
X164270000Y-137220000D03*
G04 #@! TO.N,/D29*
X161730000Y-139760000D03*
G04 #@! TO.N,/E29*
X161730000Y-137220000D03*
G04 #@! TO.N,/D30*
X159190000Y-139760000D03*
G04 #@! TO.N,/E30*
X159190000Y-137220000D03*
G04 #@! TO.N,/D31*
X156650000Y-139760000D03*
G04 #@! TO.N,/E31*
X156650000Y-137220000D03*
G04 #@! TD*
D12*
G04 #@! TO.N,GND*
X133654800Y-122682000D03*
X137642600Y-121881900D03*
X135242300Y-123482100D03*
X140840000Y-123490000D03*
X140830000Y-125895100D03*
X136842500Y-125882400D03*
X134442200Y-127495300D03*
X139240000Y-128280000D03*
X136842500Y-129082800D03*
X131590000Y-131030000D03*
X134450000Y-124300000D03*
X174441935Y-120078065D03*
X174280000Y-112710000D03*
X167590000Y-121520000D03*
X171670000Y-125470000D03*
X131448601Y-123090901D03*
X129100000Y-123080000D03*
X125770000Y-135210000D03*
X129130000Y-129840000D03*
X139260000Y-135370000D03*
X125520000Y-132070000D03*
X157680000Y-125880001D03*
X162350000Y-125830000D03*
X150310000Y-131330000D03*
X157900000Y-137970000D03*
X195780000Y-135520000D03*
X142650000Y-119390000D03*
X178690000Y-117240000D03*
X174548800Y-129984500D03*
X181025800Y-131381500D03*
X149910800Y-121221500D03*
G04 #@! TO.N,3.3V*
X180400000Y-116200000D03*
X171000000Y-126800000D03*
X180800000Y-120300000D03*
X165700000Y-116800000D03*
X162900000Y-120600000D03*
X136842500Y-121881900D03*
X135255000Y-122694700D03*
X135242300Y-128295400D03*
X137630000Y-126682500D03*
X138450000Y-129100000D03*
X169130000Y-127090000D03*
X169150000Y-128290000D03*
X169120000Y-129210000D03*
X118230000Y-123520000D03*
X118200000Y-130010000D03*
X125030000Y-127340000D03*
X156300000Y-115940000D03*
X158610000Y-118690000D03*
X134442200Y-125095000D03*
X132842000Y-124282200D03*
X128220000Y-125170000D03*
X133629400Y-127495300D03*
X131680000Y-129331452D03*
X130838201Y-119450000D03*
X140042900Y-126695200D03*
X143960000Y-126680000D03*
X145730000Y-128380000D03*
X151660000Y-134780000D03*
X167750000Y-131100000D03*
X128960000Y-135250000D03*
X126900000Y-134280000D03*
X174409100Y-126593600D03*
X140042900Y-123494800D03*
X117017800Y-120624600D03*
G04 #@! TO.N,VDD5V*
X160782000Y-123444000D03*
X173795000Y-125730000D03*
G04 #@! TO.N,Net-(C8-Pad2)*
X171750000Y-118250000D03*
X171000000Y-124500000D03*
G04 #@! TO.N,Net-(C10-Pad1)*
X169200000Y-119700000D03*
X172800000Y-123400000D03*
G04 #@! TO.N,Net-(C11-Pad2)*
X172250000Y-118250000D03*
X171500000Y-124500000D03*
G04 #@! TO.N,/ESP8266-12E/GPIO9*
X181775100Y-122999500D03*
G04 #@! TO.N,/ESP8266-12E/GPIO10*
X181483000Y-121500900D03*
G04 #@! TO.N,/ESP8266-12E/GPIO15*
X181127400Y-130810000D03*
G04 #@! TO.N,Net-(L1-Pad2)*
X174244000Y-123698000D03*
X166370000Y-120396000D03*
G04 #@! TO.N,GPIO0*
X162200000Y-118600000D03*
X183057800Y-125920500D03*
G04 #@! TO.N,RESET*
X167970200Y-117830600D03*
X182740300Y-116230400D03*
X194627500Y-116395500D03*
G04 #@! TO.N,DTR*
X166300000Y-119400000D03*
X170800000Y-118500000D03*
G04 #@! TO.N,Net-(R1-Pad1)*
X135242300Y-121881900D03*
X120330000Y-127830000D03*
G04 #@! TO.N,Net-(R2-Pad2)*
X137642600Y-123494800D03*
X122360000Y-128100000D03*
X133642100Y-123482100D03*
G04 #@! TO.N,Net-(R3-Pad1)*
X134442200Y-121881900D03*
X119990000Y-124310000D03*
G04 #@! TO.N,Net-(R4-Pad2)*
X136840000Y-122690000D03*
X122340000Y-128590000D03*
G04 #@! TO.N,RESET_N*
X138820000Y-118800000D03*
X137740000Y-117940000D03*
X136400000Y-115950000D03*
X125650000Y-116380000D03*
X117060000Y-124230000D03*
G04 #@! TO.N,Net-(R9-Pad2)*
X177774600Y-132651500D03*
X189941200Y-120116600D03*
G04 #@! TO.N,Net-(U2-Pad3)*
X136042400Y-125890000D03*
X131570000Y-126370000D03*
G04 #@! TO.N,SPI_MOSI*
X173630000Y-133180000D03*
X138400000Y-133240000D03*
X135242300Y-129890000D03*
X176542700Y-129133600D03*
G04 #@! TO.N,SPI_MISO*
X136042400Y-129900000D03*
X138860000Y-133619100D03*
X174120000Y-133620000D03*
X180950000Y-134050000D03*
X182321200Y-126720600D03*
X180047900Y-123977400D03*
G04 #@! TO.N,SPI_CSO*
X180467000Y-130911600D03*
X180111400Y-121081800D03*
G04 #@! TO.N,SPI_CLK*
X173920000Y-132610000D03*
X176428400Y-131229100D03*
G04 #@! TO.N,Net-(U4-Pad21)*
X173164500Y-118910100D03*
X191871600Y-131356100D03*
G04 #@! TO.N,Net-(U4-Pad22)*
X168500000Y-119800000D03*
X193840100Y-131838700D03*
G04 #@! TO.N,/D0*
X139240000Y-121890000D03*
X148932900Y-115976400D03*
G04 #@! TO.N,/E0*
X139242800Y-122694700D03*
G04 #@! TO.N,/D1*
X141560000Y-117170000D03*
G04 #@! TO.N,/E1*
X141750000Y-117780000D03*
G04 #@! TO.N,/D2*
X142080000Y-118300000D03*
G04 #@! TO.N,/D3*
X137642600Y-122690000D03*
G04 #@! TO.N,/E3*
X138440000Y-123494800D03*
G04 #@! TO.N,/D5*
X136842500Y-121094500D03*
G04 #@! TO.N,/E5*
X135240000Y-121090000D03*
G04 #@! TO.N,/D7*
X136842500Y-123494800D03*
G04 #@! TO.N,/E7*
X136050000Y-122690000D03*
X136500000Y-119430000D03*
G04 #@! TO.N,/D8*
X133640000Y-121090000D03*
G04 #@! TO.N,/E8*
X134442200Y-121094500D03*
G04 #@! TO.N,/E9*
X132842000Y-121100000D03*
G04 #@! TO.N,/D10*
X140040000Y-122690000D03*
G04 #@! TO.N,/E10*
X140830300Y-122694700D03*
G04 #@! TO.N,/D11*
X130080000Y-119540000D03*
X138440000Y-122682000D03*
G04 #@! TO.N,/E11*
X139242800Y-123482100D03*
G04 #@! TO.N,/D12*
X141560000Y-120150000D03*
G04 #@! TO.N,/E12*
X141630400Y-121081800D03*
G04 #@! TO.N,/D13*
X140042900Y-121881900D03*
X122530000Y-118630000D03*
G04 #@! TO.N,/E13*
X140840000Y-121894600D03*
X123250000Y-118180000D03*
G04 #@! TO.N,/D14*
X140042900Y-121094500D03*
G04 #@! TO.N,/E14*
X140850000Y-121081800D03*
G04 #@! TO.N,/D15*
X138442700Y-124290000D03*
G04 #@! TO.N,/E15*
X137630000Y-124280000D03*
G04 #@! TO.N,/D16*
X140042900Y-124282200D03*
X186730000Y-135790000D03*
G04 #@! TO.N,/E16*
X139240000Y-124290000D03*
X170110000Y-131840000D03*
G04 #@! TO.N,/D17*
X141643100Y-123482100D03*
G04 #@! TO.N,/E17*
X141630400Y-124282200D03*
X187350000Y-135490000D03*
G04 #@! TO.N,/D18*
X143543065Y-123913065D03*
G04 #@! TO.N,/E18*
X171488100Y-126136400D03*
G04 #@! TO.N,/D19*
X140042900Y-125090000D03*
G04 #@! TO.N,/E19*
X139240000Y-125090000D03*
G04 #@! TO.N,/D20*
X140042900Y-127495300D03*
G04 #@! TO.N,/E20*
X140030200Y-128295400D03*
X178580000Y-138530000D03*
G04 #@! TO.N,/D21*
X141630000Y-129082800D03*
X155040000Y-135060000D03*
G04 #@! TO.N,/E21*
X140830300Y-128282700D03*
G04 #@! TO.N,/D22*
X141630400Y-127495300D03*
X173620000Y-135130000D03*
G04 #@! TO.N,/E22*
X141630400Y-128295400D03*
G04 #@! TO.N,/D23*
X140042900Y-125882400D03*
X172650000Y-135440000D03*
G04 #@! TO.N,/E23*
X139242800Y-127482600D03*
G04 #@! TO.N,/D24*
X166160000Y-131851799D03*
G04 #@! TO.N,/E24*
X165630000Y-131851799D03*
G04 #@! TO.N,/D25*
X138430000Y-125882400D03*
G04 #@! TO.N,/E25*
X139230100Y-125895100D03*
G04 #@! TO.N,/D26*
X141643100Y-125095000D03*
X167810000Y-135260000D03*
G04 #@! TO.N,/E26*
X166810000Y-131790000D03*
G04 #@! TO.N,/D27*
X140030000Y-129080000D03*
G04 #@! TO.N,/E27*
X140040000Y-129880000D03*
X165580000Y-139210000D03*
G04 #@! TO.N,/D28*
X138442700Y-127482600D03*
G04 #@! TO.N,/E28*
X138440000Y-126690000D03*
G04 #@! TO.N,/D29*
X140830300Y-129095500D03*
G04 #@! TO.N,/E29*
X140830300Y-129882900D03*
G04 #@! TO.N,/D30*
X141630400Y-129895600D03*
G04 #@! TO.N,/E30*
X153840000Y-131490000D03*
G04 #@! TO.N,/D31*
X142080000Y-131570000D03*
X137640000Y-128295400D03*
G04 #@! TO.N,/E31*
X137629900Y-127482600D03*
G04 #@! TO.N,/D32*
X136840000Y-128290000D03*
G04 #@! TO.N,/E32*
X136840000Y-127482600D03*
G04 #@! TO.N,/D33*
X137642600Y-129882900D03*
G04 #@! TO.N,/E33*
X136800000Y-130750000D03*
G04 #@! TO.N,/D34*
X136040000Y-127482600D03*
G04 #@! TO.N,/E34*
X136042400Y-128295400D03*
X136110000Y-133070000D03*
G04 #@! TO.N,/D35*
X135240000Y-129100000D03*
G04 #@! TO.N,/E35*
X136029700Y-129095500D03*
X136370000Y-132400000D03*
G04 #@! TO.N,/D36*
X138390000Y-130790000D03*
G04 #@! TO.N,/E36*
X139900000Y-130830000D03*
G04 #@! TO.N,/D37*
X139240000Y-129880000D03*
X138720000Y-131200000D03*
G04 #@! TO.N,/E37*
X138440000Y-129880000D03*
G04 #@! TO.N,/D38*
X133640000Y-128290000D03*
G04 #@! TO.N,/E38*
X131840000Y-128320000D03*
G04 #@! TO.N,/E42*
X135250000Y-125890000D03*
G04 #@! TO.N,/D42*
X134442200Y-126695200D03*
G04 #@! TO.N,/E41*
X131920000Y-129820000D03*
G04 #@! TO.N,/D41*
X133642100Y-129882900D03*
G04 #@! TO.N,/E39*
X134442200Y-129882900D03*
G04 #@! TO.N,/D39*
X134430000Y-129090000D03*
G04 #@! TO.N,/TCK*
X133640000Y-125890000D03*
X158088601Y-115830000D03*
G04 #@! TO.N,/TDO*
X136842500Y-124282200D03*
G04 #@! TO.N,/TMS*
X161011399Y-115703601D03*
X135040000Y-119800000D03*
X131220000Y-120110000D03*
G04 #@! TO.N,/TDI*
X135240000Y-124290000D03*
G04 #@! TO.N,Net-(R7-Pad2)*
X136040000Y-123482100D03*
X146330000Y-117770000D03*
G04 #@! TO.N,Net-(D5-Pad1)*
X167132000Y-121158000D03*
X173736000Y-120904000D03*
G04 #@! TO.N,Net-(SW1-Pad2)*
X128016000Y-119380000D03*
X134620000Y-119380000D03*
G04 #@! TD*
D13*
G04 #@! TO.N,GND*
X134682839Y-127450000D02*
X134470000Y-127450000D01*
X135051070Y-127450000D02*
X134682839Y-127450000D01*
X136480571Y-126020499D02*
X135051070Y-127450000D01*
X136689501Y-126020499D02*
X136480571Y-126020499D01*
X136840000Y-125870000D02*
X136689501Y-126020499D01*
X131764809Y-127205191D02*
X129130000Y-129840000D01*
X134470000Y-127450000D02*
X134225191Y-127205191D01*
X134225191Y-127205191D02*
X131764809Y-127205191D01*
X131590000Y-131030000D02*
X126560000Y-131030000D01*
X126560000Y-131030000D02*
X125520000Y-132070000D01*
X141178930Y-119390000D02*
X142650000Y-119390000D01*
X137640000Y-121880000D02*
X140130000Y-119390000D01*
X140130000Y-119390000D02*
X141178930Y-119390000D01*
X137411070Y-129080000D02*
X137022839Y-129080000D01*
X137022839Y-129080000D02*
X136810000Y-129080000D01*
X137810171Y-129479101D02*
X137411070Y-129080000D01*
X138631969Y-129479101D02*
X137810171Y-129479101D01*
X139089501Y-129021569D02*
X138631969Y-129479101D01*
X139089501Y-128430499D02*
X139089501Y-129021569D01*
X139240000Y-128280000D02*
X139089501Y-128430499D01*
X136810000Y-129080000D02*
X136379101Y-129510899D01*
X134850899Y-129990171D02*
X130991070Y-133850000D01*
X135048031Y-129510899D02*
X134850899Y-129708031D01*
X136379101Y-129510899D02*
X135048031Y-129510899D01*
X134850899Y-129708031D02*
X134850899Y-129990171D01*
X130991070Y-133850000D02*
X130830000Y-133850000D01*
X125638601Y-138671399D02*
X125409999Y-138900001D01*
X127234931Y-138671399D02*
X125638601Y-138671399D01*
X125409999Y-138900001D02*
X124560000Y-139750000D01*
X128178601Y-137727729D02*
X127234931Y-138671399D01*
X128178601Y-136592469D02*
X128178601Y-137727729D01*
X130830000Y-133941070D02*
X128178601Y-136592469D01*
X130830000Y-133850000D02*
X130830000Y-133941070D01*
G04 #@! TO.N,3.3V*
X135039501Y-128119501D02*
X134109501Y-128119501D01*
X135190000Y-128270000D02*
X135039501Y-128119501D01*
X134109501Y-128119501D02*
X133500000Y-127510000D01*
X134251070Y-122700000D02*
X133030171Y-121479101D01*
X135220000Y-122700000D02*
X134251070Y-122700000D01*
X133030171Y-121479101D02*
X132648031Y-121479101D01*
X131121070Y-119450000D02*
X130838201Y-119450000D01*
X132648031Y-121479101D02*
X131599101Y-120430171D01*
X131599101Y-120430171D02*
X131599101Y-119928031D01*
X131599101Y-119928031D02*
X131121070Y-119450000D01*
X136840000Y-121880000D02*
X137580000Y-121140000D01*
X137580000Y-121140000D02*
X137580000Y-120820000D01*
X135589101Y-128669101D02*
X135340499Y-128420499D01*
X137630000Y-126700000D02*
X138040899Y-127110899D01*
X138040899Y-127110899D02*
X138621969Y-127110899D01*
X138819101Y-128080899D02*
X138230899Y-128669101D01*
X138621969Y-127110899D02*
X138819101Y-127308031D01*
X138819101Y-127308031D02*
X138819101Y-128080899D01*
X135340499Y-128420499D02*
X135190000Y-128270000D01*
X134688930Y-128270000D02*
X132930000Y-130028930D01*
X135190000Y-128270000D02*
X134688930Y-128270000D01*
X132930000Y-130028930D02*
X132930000Y-130760000D01*
X145730000Y-128380000D02*
X145730000Y-128850000D01*
X145730000Y-128850000D02*
X151660000Y-134780000D01*
X152200000Y-134240000D02*
X165170000Y-134240000D01*
X151660000Y-134780000D02*
X152200000Y-134240000D01*
X165170000Y-134240000D02*
X167750000Y-131660000D01*
X167750000Y-131660000D02*
X167750000Y-131100000D01*
X128960000Y-135158930D02*
X128960000Y-135250000D01*
X132930000Y-130760000D02*
X132930000Y-131188930D01*
X132930000Y-131188930D02*
X128960000Y-135158930D01*
X138299501Y-128828602D02*
X138140000Y-128669101D01*
X138299501Y-128949501D02*
X138299501Y-128828602D01*
X138450000Y-129100000D02*
X138299501Y-128949501D01*
X138230899Y-128669101D02*
X138140000Y-128669101D01*
X138140000Y-128669101D02*
X135589101Y-128669101D01*
X137580000Y-120601070D02*
X140716000Y-117465070D01*
X137580000Y-120820000D02*
X137580000Y-120601070D01*
X140716000Y-117465070D02*
X140716000Y-116878100D01*
X140919200Y-116674900D02*
X153873200Y-116674900D01*
X140716000Y-116878100D02*
X140919200Y-116674900D01*
X153873200Y-116674900D02*
X154228800Y-117030500D01*
G04 #@! TO.N,/ESP8266-12E/GPIO15*
X184590000Y-127134561D02*
X184590000Y-119330000D01*
X181127400Y-130597161D02*
X184590000Y-127134561D01*
X184590000Y-119330000D02*
X189670000Y-114250000D01*
X181127400Y-130810000D02*
X181127400Y-130597161D01*
G04 #@! TO.N,GPIO0*
X162200000Y-118600000D02*
X166400000Y-122800000D01*
X166400000Y-122800000D02*
X175738930Y-122800000D01*
X178859430Y-125920500D02*
X175738930Y-122800000D01*
X183057800Y-125920500D02*
X178859430Y-125920500D01*
G04 #@! TO.N,RESET_N*
X137740000Y-117940000D02*
X137740000Y-117290000D01*
X137740000Y-117290000D02*
X136400000Y-115950000D01*
G04 #@! TO.N,SPI_MOSI*
X138400000Y-133060000D02*
X138400000Y-133240000D01*
X135230000Y-129890000D02*
X138400000Y-133060000D01*
G04 #@! TO.N,SPI_MISO*
X138860000Y-132248930D02*
X138860000Y-133619100D01*
X136020000Y-129900000D02*
X136511070Y-129900000D01*
X136511070Y-129900000D02*
X138860000Y-132248930D01*
G04 #@! TO.N,/E7*
X135579999Y-112559999D02*
X134730000Y-111710000D01*
X135726201Y-112706201D02*
X135579999Y-112559999D01*
X135726201Y-118656201D02*
X135726201Y-112706201D01*
X136500000Y-119430000D02*
X135726201Y-118656201D01*
G04 #@! TO.N,/D10*
X140190499Y-122840499D02*
X140040000Y-122690000D01*
X140409101Y-123059101D02*
X140190499Y-122840499D01*
X140409101Y-123651969D02*
X140409101Y-123059101D01*
X140201969Y-123859101D02*
X140409101Y-123651969D01*
X136749983Y-123859101D02*
X140201969Y-123859101D01*
X136162417Y-122986701D02*
X136543299Y-123367583D01*
X136543299Y-123652417D02*
X136749983Y-123859101D01*
X135753299Y-122832417D02*
X135907583Y-122986701D01*
X136543299Y-123367583D02*
X136543299Y-123652417D01*
X135753299Y-122547583D02*
X135753299Y-122832417D01*
X135058031Y-122249101D02*
X135454817Y-122249101D01*
X134860899Y-122051969D02*
X135058031Y-122249101D01*
X134860899Y-121688031D02*
X134860899Y-122051969D01*
X134549569Y-121376701D02*
X134860899Y-121688031D01*
X135907583Y-122986701D02*
X136162417Y-122986701D01*
X135454817Y-122249101D02*
X135753299Y-122547583D01*
X134307583Y-121376701D02*
X134549569Y-121376701D01*
X134153299Y-121222417D02*
X134307583Y-121376701D01*
X134153299Y-120937583D02*
X134153299Y-121222417D01*
X128315715Y-115099999D02*
X134153299Y-120937583D01*
X127959999Y-115099999D02*
X128315715Y-115099999D01*
X127110000Y-114250000D02*
X127959999Y-115099999D01*
G04 #@! TO.N,/E10*
X140699501Y-122549501D02*
X140850000Y-122700000D01*
X136460899Y-122113767D02*
X136658031Y-122310899D01*
X131193799Y-116604681D02*
X136460899Y-121871781D01*
X140460899Y-122310899D02*
X140699501Y-122549501D01*
X131193799Y-114319421D02*
X131193799Y-116604681D01*
X136658031Y-122310899D02*
X140460899Y-122310899D01*
X130128177Y-113253799D02*
X131193799Y-114319421D01*
X128653799Y-113253799D02*
X130128177Y-113253799D01*
X136460899Y-121871781D02*
X136460899Y-122113767D01*
X127110000Y-111710000D02*
X128653799Y-113253799D01*
G04 #@! TO.N,/D11*
X124570000Y-114250000D02*
X129860000Y-119540000D01*
X129860000Y-119540000D02*
X130080000Y-119540000D01*
G04 #@! TO.N,/E11*
X138829101Y-123069101D02*
X139099501Y-123339501D01*
X136658031Y-123069101D02*
X138829101Y-123069101D01*
X136460899Y-122871969D02*
X136658031Y-123069101D01*
X139099501Y-123339501D02*
X139250000Y-123490000D01*
X135419298Y-121386701D02*
X136460899Y-122428302D01*
X135097583Y-121386701D02*
X135419298Y-121386701D01*
X134943299Y-121232417D02*
X135097583Y-121386701D01*
X134943299Y-121017677D02*
X134943299Y-121232417D01*
X128653799Y-114728177D02*
X134943299Y-121017677D01*
X128653799Y-114163799D02*
X128653799Y-114728177D01*
X127196201Y-112706201D02*
X128653799Y-114163799D01*
X125566201Y-112706201D02*
X127196201Y-112706201D01*
X136460899Y-122428302D02*
X136460899Y-122871969D01*
X124570000Y-111710000D02*
X125566201Y-112706201D01*
G04 #@! TO.N,/D16*
X140030000Y-124300000D02*
X140960000Y-124300000D01*
X141443299Y-124783299D02*
X144806701Y-124783299D01*
X140960000Y-124300000D02*
X141443299Y-124783299D01*
X144806701Y-124783299D02*
X144810000Y-124780000D01*
X144806701Y-124783299D02*
X165203299Y-124783299D01*
X170686365Y-128830899D02*
X177135466Y-135280000D01*
X169129829Y-128830899D02*
X170686365Y-128830899D01*
X165203299Y-124783299D02*
X165203299Y-124904369D01*
X165203299Y-124904369D02*
X169129829Y-128830899D01*
X177135466Y-135280000D02*
X185380000Y-135280000D01*
X185380000Y-135280000D02*
X185890000Y-135790000D01*
X185890000Y-135790000D02*
X186730000Y-135790000D01*
G04 #@! TO.N,/E16*
X139240000Y-124290000D02*
X138780000Y-124750000D01*
X138780000Y-125889118D02*
X139260882Y-126370000D01*
X138780000Y-124750000D02*
X138780000Y-125889118D01*
X139260882Y-126370000D02*
X139260882Y-126471952D01*
X139878930Y-127090000D02*
X164790000Y-127090000D01*
X164790000Y-127090000D02*
X169540000Y-131840000D01*
X169540000Y-131840000D02*
X170110000Y-131840000D01*
X139260882Y-126471952D02*
X139878930Y-127090000D01*
G04 #@! TO.N,/D17*
X166165634Y-122996700D02*
X176728934Y-133560000D01*
X141630000Y-123480000D02*
X142113300Y-122996700D01*
X142113300Y-122996700D02*
X166165634Y-122996700D01*
X191360001Y-138910001D02*
X192210000Y-139760000D01*
X191213799Y-137289421D02*
X191213799Y-138763799D01*
X191213799Y-138763799D02*
X191360001Y-138910001D01*
X187484378Y-133560000D02*
X191213799Y-137289421D01*
X176728934Y-133560000D02*
X187484378Y-133560000D01*
G04 #@! TO.N,/E17*
X141640000Y-124300000D02*
X142717012Y-124300000D01*
X187137161Y-135490000D02*
X186507161Y-134860000D01*
X187350000Y-135490000D02*
X187137161Y-135490000D01*
X186507161Y-134860000D02*
X177030000Y-134860000D01*
X177030000Y-134860000D02*
X169870000Y-127700000D01*
X169178930Y-127700000D02*
X165898930Y-124420000D01*
X169870000Y-127700000D02*
X169178930Y-127700000D01*
X142837012Y-124420000D02*
X142717012Y-124300000D01*
X165898930Y-124420000D02*
X142837012Y-124420000D01*
G04 #@! TO.N,/D18*
X177019101Y-134429101D02*
X187410899Y-134429101D01*
X143543065Y-123913065D02*
X166503065Y-123913065D01*
X166503065Y-123913065D02*
X177019101Y-134429101D01*
X187410899Y-134429101D02*
X188420000Y-135438202D01*
X188420000Y-138510000D02*
X189670000Y-139760000D01*
X188420000Y-135438202D02*
X188420000Y-138510000D01*
G04 #@! TO.N,/E18*
X190666201Y-139690579D02*
X190666201Y-138216201D01*
X191731823Y-140756201D02*
X190666201Y-139690579D01*
X192688177Y-140756201D02*
X191731823Y-140756201D01*
X193206201Y-140238177D02*
X192688177Y-140756201D01*
X193206201Y-136741823D02*
X193206201Y-140238177D01*
X189801968Y-133337590D02*
X193206201Y-136741823D01*
X182331920Y-133337590D02*
X189801968Y-133337590D01*
X178507031Y-129512701D02*
X182331920Y-133337590D01*
X190519999Y-138069999D02*
X189670000Y-137220000D01*
X174864401Y-129512701D02*
X178507031Y-129512701D01*
X190666201Y-138216201D02*
X190519999Y-138069999D01*
X171488100Y-126136400D02*
X174864401Y-129512701D01*
G04 #@! TO.N,/D19*
X141487583Y-125376701D02*
X163863299Y-125376701D01*
X140020000Y-125090000D02*
X141200882Y-125090000D01*
X141200882Y-125090000D02*
X141487583Y-125376701D01*
X163863299Y-125376701D02*
X169746598Y-131260000D01*
X169746598Y-131260000D02*
X170800000Y-131260000D01*
X170800000Y-131260000D02*
X175180000Y-135640000D01*
X186280001Y-138910001D02*
X187130000Y-139760000D01*
X186133799Y-138763799D02*
X186280001Y-138910001D01*
X185425466Y-135640000D02*
X186133799Y-136348333D01*
X186133799Y-136348333D02*
X186133799Y-138763799D01*
X175180000Y-135640000D02*
X185425466Y-135640000D01*
G04 #@! TO.N,/E20*
X148963799Y-137688177D02*
X149805622Y-138530000D01*
X149805622Y-138530000D02*
X178580000Y-138530000D01*
X148963799Y-136731823D02*
X148963799Y-137688177D01*
X141598677Y-129366701D02*
X148963799Y-136731823D01*
X140316701Y-128566701D02*
X140802167Y-128566701D01*
X141333299Y-129097833D02*
X141333299Y-129212417D01*
X140010000Y-128260000D02*
X140316701Y-128566701D01*
X141487583Y-129366701D02*
X141598677Y-129366701D01*
X140802167Y-128566701D02*
X141333299Y-129097833D01*
X141333299Y-129212417D02*
X141487583Y-129366701D01*
G04 #@! TO.N,/E21*
X181200001Y-138069999D02*
X182050000Y-137220000D01*
X181053799Y-138216201D02*
X181200001Y-138069999D01*
X178060285Y-137244663D02*
X179031823Y-138216201D01*
X178060285Y-136084819D02*
X178060285Y-137244663D01*
X149130284Y-136084819D02*
X178060285Y-136084819D01*
X179031823Y-138216201D02*
X181053799Y-138216201D01*
X141612167Y-128566701D02*
X149130284Y-136084819D01*
X141116701Y-128566701D02*
X141612167Y-128566701D01*
X140820000Y-128270000D02*
X141116701Y-128566701D01*
G04 #@! TO.N,/D22*
X172515466Y-135130000D02*
X173620000Y-135130000D01*
X141640000Y-127480000D02*
X164865466Y-127480000D01*
X164865466Y-127480000D02*
X172515466Y-135130000D01*
G04 #@! TO.N,/E22*
X178660001Y-136370001D02*
X179510000Y-137220000D01*
X178152409Y-135862409D02*
X178660001Y-136370001D01*
X149222409Y-135862409D02*
X178152409Y-135862409D01*
X141630000Y-128270000D02*
X149222409Y-135862409D01*
G04 #@! TO.N,/E27*
X140326701Y-130166701D02*
X142084143Y-130166701D01*
X140040000Y-129880000D02*
X140326701Y-130166701D01*
X149713497Y-138752410D02*
X165122410Y-138752410D01*
X142084143Y-130166701D02*
X148741389Y-136823947D01*
X165122410Y-138752410D02*
X165580000Y-139210000D01*
X148741389Y-136823947D02*
X148741389Y-137780302D01*
X148741389Y-137780302D02*
X149713497Y-138752410D01*
G04 #@! TO.N,/D37*
X138720000Y-138670000D02*
X138720000Y-134980000D01*
X139800000Y-139750000D02*
X138720000Y-138670000D01*
X139239101Y-131719101D02*
X138720000Y-131200000D01*
X138720000Y-134980000D02*
X139239101Y-134460899D01*
X139239101Y-134460899D02*
X139239101Y-131719101D01*
G04 #@! TO.N,/E37*
X139800000Y-131240000D02*
X138440000Y-129880000D01*
X139800000Y-137210000D02*
X139800000Y-131240000D01*
G04 #@! TO.N,/TMS*
X135049101Y-119809101D02*
X135040000Y-119800000D01*
X136681969Y-119809101D02*
X135049101Y-119809101D01*
X141040171Y-115450899D02*
X136681969Y-119809101D01*
X161011399Y-115703601D02*
X160758697Y-115450899D01*
X160758697Y-115450899D02*
X141040171Y-115450899D01*
G04 #@! TO.N,/TDI*
X123491399Y-112610527D02*
X123491399Y-111192271D01*
X124052271Y-113171399D02*
X123491399Y-112610527D01*
X125087729Y-113171399D02*
X124052271Y-113171399D01*
X125648601Y-113732271D02*
X125087729Y-113171399D01*
X123491399Y-111192271D02*
X124122271Y-110561399D01*
X125648601Y-114384931D02*
X125648601Y-113732271D01*
X130459101Y-119195431D02*
X125648601Y-114384931D01*
X130459101Y-120091970D02*
X130459101Y-119195431D01*
X133458031Y-123090900D02*
X130459101Y-120091970D01*
X134030900Y-123090900D02*
X133458031Y-123090900D01*
X135230000Y-124290000D02*
X134030900Y-123090900D01*
X156007600Y-111640000D02*
X157010000Y-111640000D01*
X154928999Y-110561399D02*
X156007600Y-111640000D01*
X124122271Y-110561399D02*
X154928999Y-110561399D01*
G04 #@! TO.N,Net-(D5-Pad1)*
X167386000Y-120904000D02*
X167644930Y-120904000D01*
X167644930Y-120904000D02*
X173736000Y-120904000D01*
X167132000Y-121158000D02*
X167386000Y-120904000D01*
G04 #@! TD*
D14*
G04 #@! TO.N,3.3V*
G36*
X113011161Y-114829418D02*
X113339375Y-115320625D01*
X113830582Y-115648839D01*
X114263744Y-115735000D01*
X114556256Y-115735000D01*
X114989418Y-115648839D01*
X115480625Y-115320625D01*
X115680000Y-115022239D01*
X115879375Y-115320625D01*
X116370582Y-115648839D01*
X116803744Y-115735000D01*
X117096256Y-115735000D01*
X117529418Y-115648839D01*
X118020625Y-115320625D01*
X118220000Y-115022239D01*
X118419375Y-115320625D01*
X118910582Y-115648839D01*
X119343744Y-115735000D01*
X119636256Y-115735000D01*
X120069418Y-115648839D01*
X120560625Y-115320625D01*
X120760000Y-115022239D01*
X120959375Y-115320625D01*
X121450582Y-115648839D01*
X121883744Y-115735000D01*
X122176256Y-115735000D01*
X122609418Y-115648839D01*
X123100625Y-115320625D01*
X123300000Y-115022239D01*
X123499375Y-115320625D01*
X123990582Y-115648839D01*
X124423744Y-115735000D01*
X124716256Y-115735000D01*
X124993971Y-115679759D01*
X125116673Y-115802462D01*
X124984085Y-115935050D01*
X124864500Y-116223754D01*
X124864500Y-116536246D01*
X124984085Y-116824950D01*
X125205050Y-117045915D01*
X125493754Y-117165500D01*
X125806246Y-117165500D01*
X126094950Y-117045915D01*
X126227538Y-116913327D01*
X127908711Y-118594500D01*
X127859754Y-118594500D01*
X127571050Y-118714085D01*
X127350085Y-118935050D01*
X127230500Y-119223754D01*
X127230500Y-119536246D01*
X127350085Y-119824950D01*
X127571050Y-120045915D01*
X127859754Y-120165500D01*
X128172246Y-120165500D01*
X128460950Y-120045915D01*
X128681915Y-119824950D01*
X128801500Y-119536246D01*
X128801500Y-119487289D01*
X129307578Y-119993367D01*
X129347254Y-120052746D01*
X129406633Y-120092422D01*
X129406635Y-120092424D01*
X129510786Y-120162015D01*
X129582504Y-120209936D01*
X129702271Y-120233759D01*
X129767550Y-120260798D01*
X129789165Y-120369465D01*
X129789166Y-120369466D01*
X129906677Y-120545334D01*
X129906679Y-120545336D01*
X129946355Y-120604715D01*
X130005735Y-120644392D01*
X131710511Y-122349168D01*
X131604847Y-122305401D01*
X131292355Y-122305401D01*
X131003651Y-122424986D01*
X130782686Y-122645951D01*
X130663101Y-122934655D01*
X130663101Y-123247147D01*
X130782686Y-123535851D01*
X131003651Y-123756816D01*
X131292355Y-123876401D01*
X131604847Y-123876401D01*
X131893551Y-123756816D01*
X132114516Y-123535851D01*
X132234101Y-123247147D01*
X132234101Y-122934655D01*
X132190334Y-122828992D01*
X132856600Y-123495258D01*
X132856600Y-123638346D01*
X132976185Y-123927050D01*
X133197150Y-124148015D01*
X133485854Y-124267600D01*
X133664500Y-124267600D01*
X133664500Y-124456246D01*
X133784085Y-124744950D01*
X134005050Y-124965915D01*
X134293754Y-125085500D01*
X134606246Y-125085500D01*
X134857071Y-124981605D01*
X135083754Y-125075500D01*
X135396246Y-125075500D01*
X135684950Y-124955915D01*
X135905915Y-124734950D01*
X136025500Y-124446246D01*
X136025500Y-124267600D01*
X136057000Y-124267600D01*
X136057000Y-124438446D01*
X136176585Y-124727150D01*
X136397550Y-124948115D01*
X136686254Y-125067700D01*
X136998746Y-125067700D01*
X137238906Y-124968223D01*
X137473754Y-125065500D01*
X137786246Y-125065500D01*
X138024279Y-124966904D01*
X138068800Y-124985345D01*
X138068800Y-125181794D01*
X137985050Y-125216485D01*
X137764085Y-125437450D01*
X137644500Y-125726154D01*
X137644500Y-126038646D01*
X137752040Y-126298271D01*
X137654500Y-126533754D01*
X137654500Y-126697100D01*
X137473654Y-126697100D01*
X137234950Y-126795974D01*
X136996246Y-126697100D01*
X136933489Y-126697100D01*
X136966997Y-126690435D01*
X137003947Y-126665746D01*
X137287450Y-126548315D01*
X137508415Y-126327350D01*
X137628000Y-126038646D01*
X137628000Y-125726154D01*
X137508415Y-125437450D01*
X137287450Y-125216485D01*
X136998746Y-125096900D01*
X136686254Y-125096900D01*
X136433276Y-125201687D01*
X136198646Y-125104500D01*
X135886154Y-125104500D01*
X135646200Y-125203892D01*
X135406246Y-125104500D01*
X135093754Y-125104500D01*
X134805050Y-125224085D01*
X134584085Y-125445050D01*
X134464500Y-125733754D01*
X134464500Y-125909700D01*
X134425500Y-125909700D01*
X134425500Y-125733754D01*
X134305915Y-125445050D01*
X134084950Y-125224085D01*
X133796246Y-125104500D01*
X133483754Y-125104500D01*
X133195050Y-125224085D01*
X132974085Y-125445050D01*
X132854500Y-125733754D01*
X132854500Y-126046246D01*
X132974085Y-126334950D01*
X133133126Y-126493991D01*
X132355500Y-126493991D01*
X132355500Y-126213754D01*
X132235915Y-125925050D01*
X132014950Y-125704085D01*
X131726246Y-125584500D01*
X131413754Y-125584500D01*
X131125050Y-125704085D01*
X130904085Y-125925050D01*
X130784500Y-126213754D01*
X130784500Y-126526246D01*
X130904085Y-126814950D01*
X131026673Y-126937538D01*
X128864427Y-129099785D01*
X128685050Y-129174085D01*
X128464085Y-129395050D01*
X128344500Y-129683754D01*
X128344500Y-129996246D01*
X128464085Y-130284950D01*
X128497935Y-130318800D01*
X126630041Y-130318800D01*
X126559999Y-130304868D01*
X126489957Y-130318800D01*
X126489954Y-130318800D01*
X126282504Y-130360064D01*
X126282503Y-130360065D01*
X126282502Y-130360065D01*
X126106635Y-130477576D01*
X126106633Y-130477578D01*
X126047254Y-130517254D01*
X126007578Y-130576633D01*
X125254427Y-131329785D01*
X125075050Y-131404085D01*
X124854085Y-131625050D01*
X124734500Y-131913754D01*
X124734500Y-132226246D01*
X124854085Y-132514950D01*
X125075050Y-132735915D01*
X125363754Y-132855500D01*
X125676246Y-132855500D01*
X125964950Y-132735915D01*
X126185915Y-132514950D01*
X126260215Y-132335573D01*
X126854589Y-131741200D01*
X131254378Y-131741200D01*
X131433754Y-131815500D01*
X131746246Y-131815500D01*
X132034950Y-131695915D01*
X132255915Y-131474950D01*
X132375500Y-131186246D01*
X132375500Y-130873754D01*
X132255915Y-130585050D01*
X132217752Y-130546887D01*
X132364950Y-130485915D01*
X132585915Y-130264950D01*
X132705500Y-129976246D01*
X132705500Y-129663754D01*
X132585915Y-129375050D01*
X132364950Y-129154085D01*
X132121951Y-129053431D01*
X132284950Y-128985915D01*
X132505915Y-128764950D01*
X132625500Y-128476246D01*
X132625500Y-128163754D01*
X132523039Y-127916391D01*
X132944535Y-127916391D01*
X132854500Y-128133754D01*
X132854500Y-128446246D01*
X132974085Y-128734950D01*
X133195050Y-128955915D01*
X133483754Y-129075500D01*
X133644500Y-129075500D01*
X133644500Y-129097400D01*
X133485854Y-129097400D01*
X133197150Y-129216985D01*
X132976185Y-129437950D01*
X132856600Y-129726654D01*
X132856600Y-130039146D01*
X132976185Y-130327850D01*
X133197150Y-130548815D01*
X133260306Y-130574975D01*
X130680722Y-133154560D01*
X130552504Y-133180064D01*
X130317254Y-133337254D01*
X130160064Y-133572504D01*
X130151941Y-133613340D01*
X127844090Y-135921192D01*
X127679418Y-135811161D01*
X127246256Y-135725000D01*
X126953744Y-135725000D01*
X126520582Y-135811161D01*
X126029375Y-136139375D01*
X125816157Y-136458478D01*
X125755183Y-136328642D01*
X125326924Y-135938355D01*
X124916890Y-135768524D01*
X124687000Y-135889845D01*
X124687000Y-137083000D01*
X124707000Y-137083000D01*
X124707000Y-137337000D01*
X124687000Y-137337000D01*
X124687000Y-137357000D01*
X124433000Y-137357000D01*
X124433000Y-137337000D01*
X122147000Y-137337000D01*
X122147000Y-137357000D01*
X121893000Y-137357000D01*
X121893000Y-137337000D01*
X119607000Y-137337000D01*
X119607000Y-137357000D01*
X119353000Y-137357000D01*
X119353000Y-137337000D01*
X117067000Y-137337000D01*
X117067000Y-137357000D01*
X116813000Y-137357000D01*
X116813000Y-137337000D01*
X114527000Y-137337000D01*
X114527000Y-137357000D01*
X114273000Y-137357000D01*
X114273000Y-137337000D01*
X114253000Y-137337000D01*
X114253000Y-137083000D01*
X114273000Y-137083000D01*
X114273000Y-135889845D01*
X114527000Y-135889845D01*
X114527000Y-137083000D01*
X116813000Y-137083000D01*
X116813000Y-135889845D01*
X117067000Y-135889845D01*
X117067000Y-137083000D01*
X119353000Y-137083000D01*
X119353000Y-135889845D01*
X119607000Y-135889845D01*
X119607000Y-137083000D01*
X121893000Y-137083000D01*
X121893000Y-135889845D01*
X122147000Y-135889845D01*
X122147000Y-137083000D01*
X124433000Y-137083000D01*
X124433000Y-135889845D01*
X124203110Y-135768524D01*
X123793076Y-135938355D01*
X123364817Y-136328642D01*
X123290000Y-136487954D01*
X123215183Y-136328642D01*
X122786924Y-135938355D01*
X122376890Y-135768524D01*
X122147000Y-135889845D01*
X121893000Y-135889845D01*
X121663110Y-135768524D01*
X121253076Y-135938355D01*
X120824817Y-136328642D01*
X120750000Y-136487954D01*
X120675183Y-136328642D01*
X120246924Y-135938355D01*
X119836890Y-135768524D01*
X119607000Y-135889845D01*
X119353000Y-135889845D01*
X119123110Y-135768524D01*
X118713076Y-135938355D01*
X118284817Y-136328642D01*
X118210000Y-136487954D01*
X118135183Y-136328642D01*
X117706924Y-135938355D01*
X117296890Y-135768524D01*
X117067000Y-135889845D01*
X116813000Y-135889845D01*
X116583110Y-135768524D01*
X116173076Y-135938355D01*
X115744817Y-136328642D01*
X115670000Y-136487954D01*
X115595183Y-136328642D01*
X115166924Y-135938355D01*
X114756890Y-135768524D01*
X114527000Y-135889845D01*
X114273000Y-135889845D01*
X114043110Y-135768524D01*
X113633076Y-135938355D01*
X113204817Y-136328642D01*
X112960000Y-136849944D01*
X112960000Y-135053754D01*
X124984500Y-135053754D01*
X124984500Y-135366246D01*
X125104085Y-135654950D01*
X125325050Y-135875915D01*
X125613754Y-135995500D01*
X125926246Y-135995500D01*
X126214950Y-135875915D01*
X126435915Y-135654950D01*
X126555500Y-135366246D01*
X126555500Y-135053754D01*
X126435915Y-134765050D01*
X126214950Y-134544085D01*
X125926246Y-134424500D01*
X125613754Y-134424500D01*
X125325050Y-134544085D01*
X125104085Y-134765050D01*
X124984500Y-135053754D01*
X112960000Y-135053754D01*
X112960000Y-127673754D01*
X119544500Y-127673754D01*
X119544500Y-127986246D01*
X119664085Y-128274950D01*
X119885050Y-128495915D01*
X120173754Y-128615500D01*
X120486246Y-128615500D01*
X120774950Y-128495915D01*
X120837111Y-128433754D01*
X121554500Y-128433754D01*
X121554500Y-128746246D01*
X121674085Y-129034950D01*
X121895050Y-129255915D01*
X122183754Y-129375500D01*
X122496246Y-129375500D01*
X122784950Y-129255915D01*
X123005915Y-129034950D01*
X123125500Y-128746246D01*
X123125500Y-128433754D01*
X123098737Y-128369142D01*
X123145500Y-128256246D01*
X123145500Y-127943754D01*
X123025915Y-127655050D01*
X122804950Y-127434085D01*
X122516246Y-127314500D01*
X122203754Y-127314500D01*
X121915050Y-127434085D01*
X121694085Y-127655050D01*
X121574500Y-127943754D01*
X121574500Y-128256246D01*
X121601263Y-128320858D01*
X121554500Y-128433754D01*
X120837111Y-128433754D01*
X120995915Y-128274950D01*
X121115500Y-127986246D01*
X121115500Y-127673754D01*
X120995915Y-127385050D01*
X120774950Y-127164085D01*
X120486246Y-127044500D01*
X120173754Y-127044500D01*
X119885050Y-127164085D01*
X119664085Y-127385050D01*
X119544500Y-127673754D01*
X112960000Y-127673754D01*
X112960000Y-124073754D01*
X116274500Y-124073754D01*
X116274500Y-124386246D01*
X116394085Y-124674950D01*
X116615050Y-124895915D01*
X116903754Y-125015500D01*
X117216246Y-125015500D01*
X117504950Y-124895915D01*
X117725915Y-124674950D01*
X117845500Y-124386246D01*
X117845500Y-124153754D01*
X119204500Y-124153754D01*
X119204500Y-124466246D01*
X119324085Y-124754950D01*
X119545050Y-124975915D01*
X119833754Y-125095500D01*
X120146246Y-125095500D01*
X120434950Y-124975915D01*
X120655915Y-124754950D01*
X120775500Y-124466246D01*
X120775500Y-124153754D01*
X120655915Y-123865050D01*
X120434950Y-123644085D01*
X120146246Y-123524500D01*
X119833754Y-123524500D01*
X119545050Y-123644085D01*
X119324085Y-123865050D01*
X119204500Y-124153754D01*
X117845500Y-124153754D01*
X117845500Y-124073754D01*
X117725915Y-123785050D01*
X117504950Y-123564085D01*
X117216246Y-123444500D01*
X116903754Y-123444500D01*
X116615050Y-123564085D01*
X116394085Y-123785050D01*
X116274500Y-124073754D01*
X112960000Y-124073754D01*
X112960000Y-122923754D01*
X128314500Y-122923754D01*
X128314500Y-123236246D01*
X128434085Y-123524950D01*
X128655050Y-123745915D01*
X128943754Y-123865500D01*
X129256246Y-123865500D01*
X129544950Y-123745915D01*
X129765915Y-123524950D01*
X129885500Y-123236246D01*
X129885500Y-122923754D01*
X129765915Y-122635050D01*
X129544950Y-122414085D01*
X129256246Y-122294500D01*
X128943754Y-122294500D01*
X128655050Y-122414085D01*
X128434085Y-122635050D01*
X128314500Y-122923754D01*
X112960000Y-122923754D01*
X112960000Y-118473754D01*
X121744500Y-118473754D01*
X121744500Y-118786246D01*
X121864085Y-119074950D01*
X122085050Y-119295915D01*
X122373754Y-119415500D01*
X122686246Y-119415500D01*
X122974950Y-119295915D01*
X123195915Y-119074950D01*
X123241251Y-118965500D01*
X123406246Y-118965500D01*
X123694950Y-118845915D01*
X123915915Y-118624950D01*
X124035500Y-118336246D01*
X124035500Y-118023754D01*
X123915915Y-117735050D01*
X123694950Y-117514085D01*
X123406246Y-117394500D01*
X123093754Y-117394500D01*
X122805050Y-117514085D01*
X122584085Y-117735050D01*
X122538749Y-117844500D01*
X122373754Y-117844500D01*
X122085050Y-117964085D01*
X121864085Y-118185050D01*
X121744500Y-118473754D01*
X112960000Y-118473754D01*
X112960000Y-114572213D01*
X113011161Y-114829418D01*
X113011161Y-114829418D01*
G37*
X113011161Y-114829418D02*
X113339375Y-115320625D01*
X113830582Y-115648839D01*
X114263744Y-115735000D01*
X114556256Y-115735000D01*
X114989418Y-115648839D01*
X115480625Y-115320625D01*
X115680000Y-115022239D01*
X115879375Y-115320625D01*
X116370582Y-115648839D01*
X116803744Y-115735000D01*
X117096256Y-115735000D01*
X117529418Y-115648839D01*
X118020625Y-115320625D01*
X118220000Y-115022239D01*
X118419375Y-115320625D01*
X118910582Y-115648839D01*
X119343744Y-115735000D01*
X119636256Y-115735000D01*
X120069418Y-115648839D01*
X120560625Y-115320625D01*
X120760000Y-115022239D01*
X120959375Y-115320625D01*
X121450582Y-115648839D01*
X121883744Y-115735000D01*
X122176256Y-115735000D01*
X122609418Y-115648839D01*
X123100625Y-115320625D01*
X123300000Y-115022239D01*
X123499375Y-115320625D01*
X123990582Y-115648839D01*
X124423744Y-115735000D01*
X124716256Y-115735000D01*
X124993971Y-115679759D01*
X125116673Y-115802462D01*
X124984085Y-115935050D01*
X124864500Y-116223754D01*
X124864500Y-116536246D01*
X124984085Y-116824950D01*
X125205050Y-117045915D01*
X125493754Y-117165500D01*
X125806246Y-117165500D01*
X126094950Y-117045915D01*
X126227538Y-116913327D01*
X127908711Y-118594500D01*
X127859754Y-118594500D01*
X127571050Y-118714085D01*
X127350085Y-118935050D01*
X127230500Y-119223754D01*
X127230500Y-119536246D01*
X127350085Y-119824950D01*
X127571050Y-120045915D01*
X127859754Y-120165500D01*
X128172246Y-120165500D01*
X128460950Y-120045915D01*
X128681915Y-119824950D01*
X128801500Y-119536246D01*
X128801500Y-119487289D01*
X129307578Y-119993367D01*
X129347254Y-120052746D01*
X129406633Y-120092422D01*
X129406635Y-120092424D01*
X129510786Y-120162015D01*
X129582504Y-120209936D01*
X129702271Y-120233759D01*
X129767550Y-120260798D01*
X129789165Y-120369465D01*
X129789166Y-120369466D01*
X129906677Y-120545334D01*
X129906679Y-120545336D01*
X129946355Y-120604715D01*
X130005735Y-120644392D01*
X131710511Y-122349168D01*
X131604847Y-122305401D01*
X131292355Y-122305401D01*
X131003651Y-122424986D01*
X130782686Y-122645951D01*
X130663101Y-122934655D01*
X130663101Y-123247147D01*
X130782686Y-123535851D01*
X131003651Y-123756816D01*
X131292355Y-123876401D01*
X131604847Y-123876401D01*
X131893551Y-123756816D01*
X132114516Y-123535851D01*
X132234101Y-123247147D01*
X132234101Y-122934655D01*
X132190334Y-122828992D01*
X132856600Y-123495258D01*
X132856600Y-123638346D01*
X132976185Y-123927050D01*
X133197150Y-124148015D01*
X133485854Y-124267600D01*
X133664500Y-124267600D01*
X133664500Y-124456246D01*
X133784085Y-124744950D01*
X134005050Y-124965915D01*
X134293754Y-125085500D01*
X134606246Y-125085500D01*
X134857071Y-124981605D01*
X135083754Y-125075500D01*
X135396246Y-125075500D01*
X135684950Y-124955915D01*
X135905915Y-124734950D01*
X136025500Y-124446246D01*
X136025500Y-124267600D01*
X136057000Y-124267600D01*
X136057000Y-124438446D01*
X136176585Y-124727150D01*
X136397550Y-124948115D01*
X136686254Y-125067700D01*
X136998746Y-125067700D01*
X137238906Y-124968223D01*
X137473754Y-125065500D01*
X137786246Y-125065500D01*
X138024279Y-124966904D01*
X138068800Y-124985345D01*
X138068800Y-125181794D01*
X137985050Y-125216485D01*
X137764085Y-125437450D01*
X137644500Y-125726154D01*
X137644500Y-126038646D01*
X137752040Y-126298271D01*
X137654500Y-126533754D01*
X137654500Y-126697100D01*
X137473654Y-126697100D01*
X137234950Y-126795974D01*
X136996246Y-126697100D01*
X136933489Y-126697100D01*
X136966997Y-126690435D01*
X137003947Y-126665746D01*
X137287450Y-126548315D01*
X137508415Y-126327350D01*
X137628000Y-126038646D01*
X137628000Y-125726154D01*
X137508415Y-125437450D01*
X137287450Y-125216485D01*
X136998746Y-125096900D01*
X136686254Y-125096900D01*
X136433276Y-125201687D01*
X136198646Y-125104500D01*
X135886154Y-125104500D01*
X135646200Y-125203892D01*
X135406246Y-125104500D01*
X135093754Y-125104500D01*
X134805050Y-125224085D01*
X134584085Y-125445050D01*
X134464500Y-125733754D01*
X134464500Y-125909700D01*
X134425500Y-125909700D01*
X134425500Y-125733754D01*
X134305915Y-125445050D01*
X134084950Y-125224085D01*
X133796246Y-125104500D01*
X133483754Y-125104500D01*
X133195050Y-125224085D01*
X132974085Y-125445050D01*
X132854500Y-125733754D01*
X132854500Y-126046246D01*
X132974085Y-126334950D01*
X133133126Y-126493991D01*
X132355500Y-126493991D01*
X132355500Y-126213754D01*
X132235915Y-125925050D01*
X132014950Y-125704085D01*
X131726246Y-125584500D01*
X131413754Y-125584500D01*
X131125050Y-125704085D01*
X130904085Y-125925050D01*
X130784500Y-126213754D01*
X130784500Y-126526246D01*
X130904085Y-126814950D01*
X131026673Y-126937538D01*
X128864427Y-129099785D01*
X128685050Y-129174085D01*
X128464085Y-129395050D01*
X128344500Y-129683754D01*
X128344500Y-129996246D01*
X128464085Y-130284950D01*
X128497935Y-130318800D01*
X126630041Y-130318800D01*
X126559999Y-130304868D01*
X126489957Y-130318800D01*
X126489954Y-130318800D01*
X126282504Y-130360064D01*
X126282503Y-130360065D01*
X126282502Y-130360065D01*
X126106635Y-130477576D01*
X126106633Y-130477578D01*
X126047254Y-130517254D01*
X126007578Y-130576633D01*
X125254427Y-131329785D01*
X125075050Y-131404085D01*
X124854085Y-131625050D01*
X124734500Y-131913754D01*
X124734500Y-132226246D01*
X124854085Y-132514950D01*
X125075050Y-132735915D01*
X125363754Y-132855500D01*
X125676246Y-132855500D01*
X125964950Y-132735915D01*
X126185915Y-132514950D01*
X126260215Y-132335573D01*
X126854589Y-131741200D01*
X131254378Y-131741200D01*
X131433754Y-131815500D01*
X131746246Y-131815500D01*
X132034950Y-131695915D01*
X132255915Y-131474950D01*
X132375500Y-131186246D01*
X132375500Y-130873754D01*
X132255915Y-130585050D01*
X132217752Y-130546887D01*
X132364950Y-130485915D01*
X132585915Y-130264950D01*
X132705500Y-129976246D01*
X132705500Y-129663754D01*
X132585915Y-129375050D01*
X132364950Y-129154085D01*
X132121951Y-129053431D01*
X132284950Y-128985915D01*
X132505915Y-128764950D01*
X132625500Y-128476246D01*
X132625500Y-128163754D01*
X132523039Y-127916391D01*
X132944535Y-127916391D01*
X132854500Y-128133754D01*
X132854500Y-128446246D01*
X132974085Y-128734950D01*
X133195050Y-128955915D01*
X133483754Y-129075500D01*
X133644500Y-129075500D01*
X133644500Y-129097400D01*
X133485854Y-129097400D01*
X133197150Y-129216985D01*
X132976185Y-129437950D01*
X132856600Y-129726654D01*
X132856600Y-130039146D01*
X132976185Y-130327850D01*
X133197150Y-130548815D01*
X133260306Y-130574975D01*
X130680722Y-133154560D01*
X130552504Y-133180064D01*
X130317254Y-133337254D01*
X130160064Y-133572504D01*
X130151941Y-133613340D01*
X127844090Y-135921192D01*
X127679418Y-135811161D01*
X127246256Y-135725000D01*
X126953744Y-135725000D01*
X126520582Y-135811161D01*
X126029375Y-136139375D01*
X125816157Y-136458478D01*
X125755183Y-136328642D01*
X125326924Y-135938355D01*
X124916890Y-135768524D01*
X124687000Y-135889845D01*
X124687000Y-137083000D01*
X124707000Y-137083000D01*
X124707000Y-137337000D01*
X124687000Y-137337000D01*
X124687000Y-137357000D01*
X124433000Y-137357000D01*
X124433000Y-137337000D01*
X122147000Y-137337000D01*
X122147000Y-137357000D01*
X121893000Y-137357000D01*
X121893000Y-137337000D01*
X119607000Y-137337000D01*
X119607000Y-137357000D01*
X119353000Y-137357000D01*
X119353000Y-137337000D01*
X117067000Y-137337000D01*
X117067000Y-137357000D01*
X116813000Y-137357000D01*
X116813000Y-137337000D01*
X114527000Y-137337000D01*
X114527000Y-137357000D01*
X114273000Y-137357000D01*
X114273000Y-137337000D01*
X114253000Y-137337000D01*
X114253000Y-137083000D01*
X114273000Y-137083000D01*
X114273000Y-135889845D01*
X114527000Y-135889845D01*
X114527000Y-137083000D01*
X116813000Y-137083000D01*
X116813000Y-135889845D01*
X117067000Y-135889845D01*
X117067000Y-137083000D01*
X119353000Y-137083000D01*
X119353000Y-135889845D01*
X119607000Y-135889845D01*
X119607000Y-137083000D01*
X121893000Y-137083000D01*
X121893000Y-135889845D01*
X122147000Y-135889845D01*
X122147000Y-137083000D01*
X124433000Y-137083000D01*
X124433000Y-135889845D01*
X124203110Y-135768524D01*
X123793076Y-135938355D01*
X123364817Y-136328642D01*
X123290000Y-136487954D01*
X123215183Y-136328642D01*
X122786924Y-135938355D01*
X122376890Y-135768524D01*
X122147000Y-135889845D01*
X121893000Y-135889845D01*
X121663110Y-135768524D01*
X121253076Y-135938355D01*
X120824817Y-136328642D01*
X120750000Y-136487954D01*
X120675183Y-136328642D01*
X120246924Y-135938355D01*
X119836890Y-135768524D01*
X119607000Y-135889845D01*
X119353000Y-135889845D01*
X119123110Y-135768524D01*
X118713076Y-135938355D01*
X118284817Y-136328642D01*
X118210000Y-136487954D01*
X118135183Y-136328642D01*
X117706924Y-135938355D01*
X117296890Y-135768524D01*
X117067000Y-135889845D01*
X116813000Y-135889845D01*
X116583110Y-135768524D01*
X116173076Y-135938355D01*
X115744817Y-136328642D01*
X115670000Y-136487954D01*
X115595183Y-136328642D01*
X115166924Y-135938355D01*
X114756890Y-135768524D01*
X114527000Y-135889845D01*
X114273000Y-135889845D01*
X114043110Y-135768524D01*
X113633076Y-135938355D01*
X113204817Y-136328642D01*
X112960000Y-136849944D01*
X112960000Y-135053754D01*
X124984500Y-135053754D01*
X124984500Y-135366246D01*
X125104085Y-135654950D01*
X125325050Y-135875915D01*
X125613754Y-135995500D01*
X125926246Y-135995500D01*
X126214950Y-135875915D01*
X126435915Y-135654950D01*
X126555500Y-135366246D01*
X126555500Y-135053754D01*
X126435915Y-134765050D01*
X126214950Y-134544085D01*
X125926246Y-134424500D01*
X125613754Y-134424500D01*
X125325050Y-134544085D01*
X125104085Y-134765050D01*
X124984500Y-135053754D01*
X112960000Y-135053754D01*
X112960000Y-127673754D01*
X119544500Y-127673754D01*
X119544500Y-127986246D01*
X119664085Y-128274950D01*
X119885050Y-128495915D01*
X120173754Y-128615500D01*
X120486246Y-128615500D01*
X120774950Y-128495915D01*
X120837111Y-128433754D01*
X121554500Y-128433754D01*
X121554500Y-128746246D01*
X121674085Y-129034950D01*
X121895050Y-129255915D01*
X122183754Y-129375500D01*
X122496246Y-129375500D01*
X122784950Y-129255915D01*
X123005915Y-129034950D01*
X123125500Y-128746246D01*
X123125500Y-128433754D01*
X123098737Y-128369142D01*
X123145500Y-128256246D01*
X123145500Y-127943754D01*
X123025915Y-127655050D01*
X122804950Y-127434085D01*
X122516246Y-127314500D01*
X122203754Y-127314500D01*
X121915050Y-127434085D01*
X121694085Y-127655050D01*
X121574500Y-127943754D01*
X121574500Y-128256246D01*
X121601263Y-128320858D01*
X121554500Y-128433754D01*
X120837111Y-128433754D01*
X120995915Y-128274950D01*
X121115500Y-127986246D01*
X121115500Y-127673754D01*
X120995915Y-127385050D01*
X120774950Y-127164085D01*
X120486246Y-127044500D01*
X120173754Y-127044500D01*
X119885050Y-127164085D01*
X119664085Y-127385050D01*
X119544500Y-127673754D01*
X112960000Y-127673754D01*
X112960000Y-124073754D01*
X116274500Y-124073754D01*
X116274500Y-124386246D01*
X116394085Y-124674950D01*
X116615050Y-124895915D01*
X116903754Y-125015500D01*
X117216246Y-125015500D01*
X117504950Y-124895915D01*
X117725915Y-124674950D01*
X117845500Y-124386246D01*
X117845500Y-124153754D01*
X119204500Y-124153754D01*
X119204500Y-124466246D01*
X119324085Y-124754950D01*
X119545050Y-124975915D01*
X119833754Y-125095500D01*
X120146246Y-125095500D01*
X120434950Y-124975915D01*
X120655915Y-124754950D01*
X120775500Y-124466246D01*
X120775500Y-124153754D01*
X120655915Y-123865050D01*
X120434950Y-123644085D01*
X120146246Y-123524500D01*
X119833754Y-123524500D01*
X119545050Y-123644085D01*
X119324085Y-123865050D01*
X119204500Y-124153754D01*
X117845500Y-124153754D01*
X117845500Y-124073754D01*
X117725915Y-123785050D01*
X117504950Y-123564085D01*
X117216246Y-123444500D01*
X116903754Y-123444500D01*
X116615050Y-123564085D01*
X116394085Y-123785050D01*
X116274500Y-124073754D01*
X112960000Y-124073754D01*
X112960000Y-122923754D01*
X128314500Y-122923754D01*
X128314500Y-123236246D01*
X128434085Y-123524950D01*
X128655050Y-123745915D01*
X128943754Y-123865500D01*
X129256246Y-123865500D01*
X129544950Y-123745915D01*
X129765915Y-123524950D01*
X129885500Y-123236246D01*
X129885500Y-122923754D01*
X129765915Y-122635050D01*
X129544950Y-122414085D01*
X129256246Y-122294500D01*
X128943754Y-122294500D01*
X128655050Y-122414085D01*
X128434085Y-122635050D01*
X128314500Y-122923754D01*
X112960000Y-122923754D01*
X112960000Y-118473754D01*
X121744500Y-118473754D01*
X121744500Y-118786246D01*
X121864085Y-119074950D01*
X122085050Y-119295915D01*
X122373754Y-119415500D01*
X122686246Y-119415500D01*
X122974950Y-119295915D01*
X123195915Y-119074950D01*
X123241251Y-118965500D01*
X123406246Y-118965500D01*
X123694950Y-118845915D01*
X123915915Y-118624950D01*
X124035500Y-118336246D01*
X124035500Y-118023754D01*
X123915915Y-117735050D01*
X123694950Y-117514085D01*
X123406246Y-117394500D01*
X123093754Y-117394500D01*
X122805050Y-117514085D01*
X122584085Y-117735050D01*
X122538749Y-117844500D01*
X122373754Y-117844500D01*
X122085050Y-117964085D01*
X121864085Y-118185050D01*
X121744500Y-118473754D01*
X112960000Y-118473754D01*
X112960000Y-114572213D01*
X113011161Y-114829418D01*
G36*
X171530886Y-135151209D02*
X168595500Y-135151209D01*
X168595500Y-135103754D01*
X168475915Y-134815050D01*
X168254950Y-134594085D01*
X167966246Y-134474500D01*
X167653754Y-134474500D01*
X167365050Y-134594085D01*
X167144085Y-134815050D01*
X167024500Y-135103754D01*
X167024500Y-135151209D01*
X155825500Y-135151209D01*
X155825500Y-134903754D01*
X155705915Y-134615050D01*
X155484950Y-134394085D01*
X155196246Y-134274500D01*
X154883754Y-134274500D01*
X154595050Y-134394085D01*
X154374085Y-134615050D01*
X154254500Y-134903754D01*
X154254500Y-135151209D01*
X149516998Y-135151209D01*
X145539543Y-131173754D01*
X149524500Y-131173754D01*
X149524500Y-131486246D01*
X149644085Y-131774950D01*
X149865050Y-131995915D01*
X150153754Y-132115500D01*
X150466246Y-132115500D01*
X150754950Y-131995915D01*
X150975915Y-131774950D01*
X151095500Y-131486246D01*
X151095500Y-131333754D01*
X153054500Y-131333754D01*
X153054500Y-131646246D01*
X153174085Y-131934950D01*
X153395050Y-132155915D01*
X153683754Y-132275500D01*
X153996246Y-132275500D01*
X154284950Y-132155915D01*
X154505915Y-131934950D01*
X154605076Y-131695553D01*
X164844500Y-131695553D01*
X164844500Y-132008045D01*
X164964085Y-132296749D01*
X165185050Y-132517714D01*
X165473754Y-132637299D01*
X165786246Y-132637299D01*
X165895000Y-132592252D01*
X166003754Y-132637299D01*
X166316246Y-132637299D01*
X166559598Y-132536499D01*
X166653754Y-132575500D01*
X166966246Y-132575500D01*
X167254950Y-132455915D01*
X167475915Y-132234950D01*
X167595500Y-131946246D01*
X167595500Y-131633754D01*
X167475915Y-131345050D01*
X167254950Y-131124085D01*
X166966246Y-131004500D01*
X166653754Y-131004500D01*
X166410402Y-131105300D01*
X166316246Y-131066299D01*
X166003754Y-131066299D01*
X165895000Y-131111346D01*
X165786246Y-131066299D01*
X165473754Y-131066299D01*
X165185050Y-131185884D01*
X164964085Y-131406849D01*
X164844500Y-131695553D01*
X154605076Y-131695553D01*
X154625500Y-131646246D01*
X154625500Y-131333754D01*
X154505915Y-131045050D01*
X154284950Y-130824085D01*
X153996246Y-130704500D01*
X153683754Y-130704500D01*
X153395050Y-130824085D01*
X153174085Y-131045050D01*
X153054500Y-131333754D01*
X151095500Y-131333754D01*
X151095500Y-131173754D01*
X150975915Y-130885050D01*
X150754950Y-130664085D01*
X150466246Y-130544500D01*
X150153754Y-130544500D01*
X149865050Y-130664085D01*
X149644085Y-130885050D01*
X149524500Y-131173754D01*
X145539543Y-131173754D01*
X142556988Y-128191200D01*
X164570878Y-128191200D01*
X171530886Y-135151209D01*
X171530886Y-135151209D01*
G37*
X171530886Y-135151209D02*
X168595500Y-135151209D01*
X168595500Y-135103754D01*
X168475915Y-134815050D01*
X168254950Y-134594085D01*
X167966246Y-134474500D01*
X167653754Y-134474500D01*
X167365050Y-134594085D01*
X167144085Y-134815050D01*
X167024500Y-135103754D01*
X167024500Y-135151209D01*
X155825500Y-135151209D01*
X155825500Y-134903754D01*
X155705915Y-134615050D01*
X155484950Y-134394085D01*
X155196246Y-134274500D01*
X154883754Y-134274500D01*
X154595050Y-134394085D01*
X154374085Y-134615050D01*
X154254500Y-134903754D01*
X154254500Y-135151209D01*
X149516998Y-135151209D01*
X145539543Y-131173754D01*
X149524500Y-131173754D01*
X149524500Y-131486246D01*
X149644085Y-131774950D01*
X149865050Y-131995915D01*
X150153754Y-132115500D01*
X150466246Y-132115500D01*
X150754950Y-131995915D01*
X150975915Y-131774950D01*
X151095500Y-131486246D01*
X151095500Y-131333754D01*
X153054500Y-131333754D01*
X153054500Y-131646246D01*
X153174085Y-131934950D01*
X153395050Y-132155915D01*
X153683754Y-132275500D01*
X153996246Y-132275500D01*
X154284950Y-132155915D01*
X154505915Y-131934950D01*
X154605076Y-131695553D01*
X164844500Y-131695553D01*
X164844500Y-132008045D01*
X164964085Y-132296749D01*
X165185050Y-132517714D01*
X165473754Y-132637299D01*
X165786246Y-132637299D01*
X165895000Y-132592252D01*
X166003754Y-132637299D01*
X166316246Y-132637299D01*
X166559598Y-132536499D01*
X166653754Y-132575500D01*
X166966246Y-132575500D01*
X167254950Y-132455915D01*
X167475915Y-132234950D01*
X167595500Y-131946246D01*
X167595500Y-131633754D01*
X167475915Y-131345050D01*
X167254950Y-131124085D01*
X166966246Y-131004500D01*
X166653754Y-131004500D01*
X166410402Y-131105300D01*
X166316246Y-131066299D01*
X166003754Y-131066299D01*
X165895000Y-131111346D01*
X165786246Y-131066299D01*
X165473754Y-131066299D01*
X165185050Y-131185884D01*
X164964085Y-131406849D01*
X164844500Y-131695553D01*
X154605076Y-131695553D01*
X154625500Y-131646246D01*
X154625500Y-131333754D01*
X154505915Y-131045050D01*
X154284950Y-130824085D01*
X153996246Y-130704500D01*
X153683754Y-130704500D01*
X153395050Y-130824085D01*
X153174085Y-131045050D01*
X153054500Y-131333754D01*
X151095500Y-131333754D01*
X151095500Y-131173754D01*
X150975915Y-130885050D01*
X150754950Y-130664085D01*
X150466246Y-130544500D01*
X150153754Y-130544500D01*
X149865050Y-130664085D01*
X149644085Y-130885050D01*
X149524500Y-131173754D01*
X145539543Y-131173754D01*
X142556988Y-128191200D01*
X164570878Y-128191200D01*
X171530886Y-135151209D01*
G36*
X131395050Y-128985915D02*
X131638049Y-129086569D01*
X131475050Y-129154085D01*
X131254085Y-129375050D01*
X131134500Y-129663754D01*
X131134500Y-129976246D01*
X131254085Y-130264950D01*
X131292248Y-130303113D01*
X131254378Y-130318800D01*
X129762065Y-130318800D01*
X129795915Y-130284950D01*
X129870215Y-130105573D01*
X131192462Y-128783327D01*
X131395050Y-128985915D01*
X131395050Y-128985915D01*
G37*
X131395050Y-128985915D02*
X131638049Y-129086569D01*
X131475050Y-129154085D01*
X131254085Y-129375050D01*
X131134500Y-129663754D01*
X131134500Y-129976246D01*
X131254085Y-130264950D01*
X131292248Y-130303113D01*
X131254378Y-130318800D01*
X129762065Y-130318800D01*
X129795915Y-130284950D01*
X129870215Y-130105573D01*
X131192462Y-128783327D01*
X131395050Y-128985915D01*
G36*
X180979375Y-110639375D02*
X180651161Y-111130582D01*
X180535908Y-111710000D01*
X180651161Y-112289418D01*
X180979375Y-112780625D01*
X181277761Y-112980000D01*
X180979375Y-113179375D01*
X180651161Y-113670582D01*
X180535908Y-114250000D01*
X180651161Y-114829418D01*
X180979375Y-115320625D01*
X181470582Y-115648839D01*
X181903744Y-115735000D01*
X182124835Y-115735000D01*
X182074385Y-115785450D01*
X181954800Y-116074154D01*
X181954800Y-116386646D01*
X182074385Y-116675350D01*
X182295350Y-116896315D01*
X182584054Y-117015900D01*
X182896546Y-117015900D01*
X183185250Y-116896315D01*
X183406215Y-116675350D01*
X183525800Y-116386646D01*
X183525800Y-116074154D01*
X183406215Y-115785450D01*
X183185250Y-115564485D01*
X182920059Y-115454639D01*
X183120625Y-115320625D01*
X183320000Y-115022239D01*
X183519375Y-115320625D01*
X184010582Y-115648839D01*
X184443744Y-115735000D01*
X184736256Y-115735000D01*
X185169418Y-115648839D01*
X185660625Y-115320625D01*
X185860000Y-115022239D01*
X186059375Y-115320625D01*
X186550582Y-115648839D01*
X186983744Y-115735000D01*
X187179211Y-115735000D01*
X184136634Y-118777578D01*
X184077255Y-118817254D01*
X184037579Y-118876633D01*
X184037576Y-118876636D01*
X183920065Y-119052504D01*
X183864868Y-119330000D01*
X183878801Y-119400046D01*
X183878800Y-126839972D01*
X180674034Y-130044739D01*
X180614655Y-130084415D01*
X180586802Y-130126100D01*
X180310754Y-130126100D01*
X180180268Y-130180149D01*
X179059454Y-129059336D01*
X179019777Y-128999955D01*
X178784527Y-128842765D01*
X178577077Y-128801501D01*
X178577072Y-128801501D01*
X178507031Y-128787569D01*
X178436990Y-128801501D01*
X177255359Y-128801501D01*
X177208615Y-128688650D01*
X176987650Y-128467685D01*
X176698946Y-128348100D01*
X176386454Y-128348100D01*
X176097750Y-128467685D01*
X175876785Y-128688650D01*
X175830041Y-128801501D01*
X175158990Y-128801501D01*
X172304177Y-125946688D01*
X172335915Y-125914950D01*
X172455500Y-125626246D01*
X172455500Y-125573754D01*
X173009500Y-125573754D01*
X173009500Y-125886246D01*
X173129085Y-126174950D01*
X173350050Y-126395915D01*
X173638754Y-126515500D01*
X173951246Y-126515500D01*
X174239950Y-126395915D01*
X174460915Y-126174950D01*
X174580500Y-125886246D01*
X174580500Y-125573754D01*
X174460915Y-125285050D01*
X174239950Y-125064085D01*
X173951246Y-124944500D01*
X173638754Y-124944500D01*
X173350050Y-125064085D01*
X173129085Y-125285050D01*
X173009500Y-125573754D01*
X172455500Y-125573754D01*
X172455500Y-125313754D01*
X172335915Y-125025050D01*
X172192246Y-124881381D01*
X172285500Y-124656246D01*
X172285500Y-124343754D01*
X172165915Y-124055050D01*
X171944950Y-123834085D01*
X171656246Y-123714500D01*
X171343754Y-123714500D01*
X171250000Y-123753334D01*
X171156246Y-123714500D01*
X170843754Y-123714500D01*
X170555050Y-123834085D01*
X170334085Y-124055050D01*
X170214500Y-124343754D01*
X170214500Y-124656246D01*
X170334085Y-124944950D01*
X170555050Y-125165915D01*
X170843754Y-125285500D01*
X170896203Y-125285500D01*
X170884500Y-125313754D01*
X170884500Y-125626246D01*
X170885346Y-125628289D01*
X170822185Y-125691450D01*
X170702600Y-125980154D01*
X170702600Y-126292646D01*
X170822185Y-126581350D01*
X171043150Y-126802315D01*
X171222527Y-126876615D01*
X173884173Y-129538262D01*
X173882885Y-129539550D01*
X173833500Y-129658777D01*
X167685922Y-123511200D01*
X172014500Y-123511200D01*
X172014500Y-123556246D01*
X172134085Y-123844950D01*
X172355050Y-124065915D01*
X172643754Y-124185500D01*
X172956246Y-124185500D01*
X173244950Y-124065915D01*
X173458500Y-123852365D01*
X173458500Y-123854246D01*
X173578085Y-124142950D01*
X173799050Y-124363915D01*
X174087754Y-124483500D01*
X174400246Y-124483500D01*
X174688950Y-124363915D01*
X174909915Y-124142950D01*
X175029500Y-123854246D01*
X175029500Y-123541754D01*
X175016844Y-123511200D01*
X175444342Y-123511200D01*
X178307008Y-126373867D01*
X178346684Y-126433246D01*
X178406063Y-126472922D01*
X178406065Y-126472924D01*
X178581932Y-126590435D01*
X178581933Y-126590435D01*
X178581934Y-126590436D01*
X178789384Y-126631700D01*
X178789387Y-126631700D01*
X178859429Y-126645632D01*
X178929471Y-126631700D01*
X181535700Y-126631700D01*
X181535700Y-126876846D01*
X181655285Y-127165550D01*
X181876250Y-127386515D01*
X182164954Y-127506100D01*
X182477446Y-127506100D01*
X182766150Y-127386515D01*
X182987115Y-127165550D01*
X183106700Y-126876846D01*
X183106700Y-126706000D01*
X183214046Y-126706000D01*
X183502750Y-126586415D01*
X183723715Y-126365450D01*
X183843300Y-126076746D01*
X183843300Y-125764254D01*
X183723715Y-125475550D01*
X183502750Y-125254585D01*
X183214046Y-125135000D01*
X182901554Y-125135000D01*
X182722178Y-125209300D01*
X179154019Y-125209300D01*
X177765873Y-123821154D01*
X179262400Y-123821154D01*
X179262400Y-124133646D01*
X179381985Y-124422350D01*
X179602950Y-124643315D01*
X179891654Y-124762900D01*
X180204146Y-124762900D01*
X180492850Y-124643315D01*
X180713815Y-124422350D01*
X180833400Y-124133646D01*
X180833400Y-123821154D01*
X180713815Y-123532450D01*
X180492850Y-123311485D01*
X180204146Y-123191900D01*
X179891654Y-123191900D01*
X179602950Y-123311485D01*
X179381985Y-123532450D01*
X179262400Y-123821154D01*
X177765873Y-123821154D01*
X176291353Y-122346635D01*
X176251676Y-122287254D01*
X176016426Y-122130064D01*
X175808976Y-122088800D01*
X175808971Y-122088800D01*
X175738930Y-122074868D01*
X175668889Y-122088800D01*
X168132065Y-122088800D01*
X168255915Y-121964950D01*
X168375500Y-121676246D01*
X168375500Y-121615200D01*
X173400378Y-121615200D01*
X173579754Y-121689500D01*
X173892246Y-121689500D01*
X174180950Y-121569915D01*
X174401915Y-121348950D01*
X174521500Y-121060246D01*
X174521500Y-120925554D01*
X179325900Y-120925554D01*
X179325900Y-121238046D01*
X179445485Y-121526750D01*
X179666450Y-121747715D01*
X179955154Y-121867300D01*
X180267646Y-121867300D01*
X180556350Y-121747715D01*
X180697500Y-121606565D01*
X180697500Y-121657146D01*
X180817085Y-121945850D01*
X181038050Y-122166815D01*
X181326754Y-122286400D01*
X181444065Y-122286400D01*
X181330150Y-122333585D01*
X181109185Y-122554550D01*
X180989600Y-122843254D01*
X180989600Y-123155746D01*
X181109185Y-123444450D01*
X181330150Y-123665415D01*
X181618854Y-123785000D01*
X181931346Y-123785000D01*
X182220050Y-123665415D01*
X182441015Y-123444450D01*
X182560600Y-123155746D01*
X182560600Y-122843254D01*
X182441015Y-122554550D01*
X182220050Y-122333585D01*
X181931346Y-122214000D01*
X181814035Y-122214000D01*
X181927950Y-122166815D01*
X182148915Y-121945850D01*
X182268500Y-121657146D01*
X182268500Y-121344654D01*
X182148915Y-121055950D01*
X181927950Y-120834985D01*
X181639246Y-120715400D01*
X181326754Y-120715400D01*
X181038050Y-120834985D01*
X180896900Y-120976135D01*
X180896900Y-120925554D01*
X180777315Y-120636850D01*
X180556350Y-120415885D01*
X180267646Y-120296300D01*
X179955154Y-120296300D01*
X179666450Y-120415885D01*
X179445485Y-120636850D01*
X179325900Y-120925554D01*
X174521500Y-120925554D01*
X174521500Y-120863565D01*
X174598181Y-120863565D01*
X174886885Y-120743980D01*
X175107850Y-120523015D01*
X175227435Y-120234311D01*
X175227435Y-119921819D01*
X175107850Y-119633115D01*
X174886885Y-119412150D01*
X174598181Y-119292565D01*
X174285689Y-119292565D01*
X173996985Y-119412150D01*
X173776020Y-119633115D01*
X173656435Y-119921819D01*
X173656435Y-120118500D01*
X173579754Y-120118500D01*
X173400378Y-120192800D01*
X169818065Y-120192800D01*
X169865915Y-120144950D01*
X169985500Y-119856246D01*
X169985500Y-119543754D01*
X169865915Y-119255050D01*
X169644950Y-119034085D01*
X169356246Y-118914500D01*
X169043754Y-118914500D01*
X168755050Y-119034085D01*
X168739960Y-119049175D01*
X168656246Y-119014500D01*
X168343754Y-119014500D01*
X168055050Y-119134085D01*
X167834085Y-119355050D01*
X167714500Y-119643754D01*
X167714500Y-119956246D01*
X167812484Y-120192800D01*
X167456041Y-120192800D01*
X167385999Y-120178868D01*
X167315958Y-120192800D01*
X167315954Y-120192800D01*
X167149745Y-120225861D01*
X167035915Y-119951050D01*
X166947865Y-119863000D01*
X166965915Y-119844950D01*
X167085500Y-119556246D01*
X167085500Y-119243754D01*
X166965915Y-118955050D01*
X166744950Y-118734085D01*
X166456246Y-118614500D01*
X166143754Y-118614500D01*
X165855050Y-118734085D01*
X165634085Y-118955050D01*
X165514500Y-119243754D01*
X165514500Y-119556246D01*
X165634085Y-119844950D01*
X165722135Y-119933000D01*
X165704085Y-119951050D01*
X165584500Y-120239754D01*
X165584500Y-120552246D01*
X165704085Y-120840950D01*
X165925050Y-121061915D01*
X166213754Y-121181500D01*
X166346500Y-121181500D01*
X166346500Y-121314246D01*
X166466085Y-121602950D01*
X166687050Y-121823915D01*
X166902659Y-121913223D01*
X166924085Y-121964950D01*
X167047935Y-122088800D01*
X166694589Y-122088800D01*
X162940215Y-118334427D01*
X162865915Y-118155050D01*
X162644950Y-117934085D01*
X162356246Y-117814500D01*
X162043754Y-117814500D01*
X161755050Y-117934085D01*
X161534085Y-118155050D01*
X161414500Y-118443754D01*
X161414500Y-118756246D01*
X161534085Y-119044950D01*
X161755050Y-119265915D01*
X161934427Y-119340215D01*
X164879711Y-122285500D01*
X142183341Y-122285500D01*
X142113299Y-122271568D01*
X142043257Y-122285500D01*
X142043254Y-122285500D01*
X141835804Y-122326764D01*
X141835803Y-122326765D01*
X141835802Y-122326765D01*
X141659935Y-122444276D01*
X141659933Y-122444278D01*
X141600554Y-122483954D01*
X141596030Y-122490725D01*
X141519663Y-122306359D01*
X141625500Y-122050846D01*
X141625500Y-121867300D01*
X141786646Y-121867300D01*
X142075350Y-121747715D01*
X142296315Y-121526750D01*
X142415900Y-121238046D01*
X142415900Y-121065254D01*
X149125300Y-121065254D01*
X149125300Y-121377746D01*
X149244885Y-121666450D01*
X149465850Y-121887415D01*
X149754554Y-122007000D01*
X150067046Y-122007000D01*
X150355750Y-121887415D01*
X150576715Y-121666450D01*
X150696300Y-121377746D01*
X150696300Y-121065254D01*
X150576715Y-120776550D01*
X150355750Y-120555585D01*
X150067046Y-120436000D01*
X149754554Y-120436000D01*
X149465850Y-120555585D01*
X149244885Y-120776550D01*
X149125300Y-121065254D01*
X142415900Y-121065254D01*
X142415900Y-120925554D01*
X142296315Y-120636850D01*
X142234262Y-120574797D01*
X142345500Y-120306246D01*
X142345500Y-120114091D01*
X142493754Y-120175500D01*
X142806246Y-120175500D01*
X143094950Y-120055915D01*
X143315915Y-119834950D01*
X143435500Y-119546246D01*
X143435500Y-119233754D01*
X143315915Y-118945050D01*
X143094950Y-118724085D01*
X142806246Y-118604500D01*
X142804091Y-118604500D01*
X142865500Y-118456246D01*
X142865500Y-118143754D01*
X142745915Y-117855050D01*
X142535500Y-117644635D01*
X142535500Y-117623754D01*
X142531358Y-117613754D01*
X145544500Y-117613754D01*
X145544500Y-117926246D01*
X145664085Y-118214950D01*
X145885050Y-118435915D01*
X146173754Y-118555500D01*
X146486246Y-118555500D01*
X146774950Y-118435915D01*
X146995915Y-118214950D01*
X147115500Y-117926246D01*
X147115500Y-117674354D01*
X167184700Y-117674354D01*
X167184700Y-117986846D01*
X167304285Y-118275550D01*
X167525250Y-118496515D01*
X167813954Y-118616100D01*
X168126446Y-118616100D01*
X168415150Y-118496515D01*
X168567911Y-118343754D01*
X170014500Y-118343754D01*
X170014500Y-118656246D01*
X170134085Y-118944950D01*
X170355050Y-119165915D01*
X170643754Y-119285500D01*
X170956246Y-119285500D01*
X171244950Y-119165915D01*
X171439330Y-118971535D01*
X171593754Y-119035500D01*
X171906246Y-119035500D01*
X172000000Y-118996666D01*
X172093754Y-119035500D01*
X172379000Y-119035500D01*
X172379000Y-119066346D01*
X172498585Y-119355050D01*
X172719550Y-119576015D01*
X173008254Y-119695600D01*
X173320746Y-119695600D01*
X173609450Y-119576015D01*
X173830415Y-119355050D01*
X173950000Y-119066346D01*
X173950000Y-118753854D01*
X173830415Y-118465150D01*
X173609450Y-118244185D01*
X173320746Y-118124600D01*
X173035500Y-118124600D01*
X173035500Y-118093754D01*
X172915915Y-117805050D01*
X172694950Y-117584085D01*
X172406246Y-117464500D01*
X172093754Y-117464500D01*
X172000000Y-117503334D01*
X171906246Y-117464500D01*
X171593754Y-117464500D01*
X171305050Y-117584085D01*
X171110670Y-117778465D01*
X170956246Y-117714500D01*
X170643754Y-117714500D01*
X170355050Y-117834085D01*
X170134085Y-118055050D01*
X170014500Y-118343754D01*
X168567911Y-118343754D01*
X168636115Y-118275550D01*
X168755700Y-117986846D01*
X168755700Y-117674354D01*
X168636115Y-117385650D01*
X168415150Y-117164685D01*
X168219766Y-117083754D01*
X177904500Y-117083754D01*
X177904500Y-117396246D01*
X178024085Y-117684950D01*
X178245050Y-117905915D01*
X178533754Y-118025500D01*
X178846246Y-118025500D01*
X179134950Y-117905915D01*
X179355915Y-117684950D01*
X179475500Y-117396246D01*
X179475500Y-117083754D01*
X179355915Y-116795050D01*
X179134950Y-116574085D01*
X178846246Y-116454500D01*
X178533754Y-116454500D01*
X178245050Y-116574085D01*
X178024085Y-116795050D01*
X177904500Y-117083754D01*
X168219766Y-117083754D01*
X168126446Y-117045100D01*
X167813954Y-117045100D01*
X167525250Y-117164685D01*
X167304285Y-117385650D01*
X167184700Y-117674354D01*
X147115500Y-117674354D01*
X147115500Y-117613754D01*
X146995915Y-117325050D01*
X146774950Y-117104085D01*
X146486246Y-116984500D01*
X146173754Y-116984500D01*
X145885050Y-117104085D01*
X145664085Y-117325050D01*
X145544500Y-117613754D01*
X142531358Y-117613754D01*
X142415915Y-117335050D01*
X142345500Y-117264635D01*
X142345500Y-117013754D01*
X142225915Y-116725050D01*
X142004950Y-116504085D01*
X141716246Y-116384500D01*
X141403754Y-116384500D01*
X141115050Y-116504085D01*
X140894085Y-116725050D01*
X140774500Y-117013754D01*
X140774500Y-117326246D01*
X140894085Y-117614950D01*
X140964500Y-117685365D01*
X140964500Y-117936246D01*
X141084085Y-118224950D01*
X141294500Y-118435365D01*
X141294500Y-118456246D01*
X141386685Y-118678800D01*
X140200042Y-118678800D01*
X140130000Y-118664868D01*
X140059958Y-118678800D01*
X140059954Y-118678800D01*
X139852504Y-118720064D01*
X139819576Y-118742066D01*
X139676635Y-118837576D01*
X139676633Y-118837578D01*
X139617254Y-118877254D01*
X139605500Y-118894845D01*
X139605500Y-118643754D01*
X139485915Y-118355050D01*
X139313862Y-118182997D01*
X141334760Y-116162099D01*
X148159600Y-116162099D01*
X148266985Y-116421350D01*
X148487950Y-116642315D01*
X148776654Y-116761900D01*
X149089146Y-116761900D01*
X149377850Y-116642315D01*
X149598815Y-116421350D01*
X149706200Y-116162099D01*
X157375942Y-116162099D01*
X157422686Y-116274950D01*
X157643651Y-116495915D01*
X157932355Y-116615500D01*
X158244847Y-116615500D01*
X158533551Y-116495915D01*
X158754516Y-116274950D01*
X158801260Y-116162099D01*
X160359032Y-116162099D01*
X160566449Y-116369516D01*
X160855153Y-116489101D01*
X161167645Y-116489101D01*
X161456349Y-116369516D01*
X161677314Y-116148551D01*
X161796899Y-115859847D01*
X161796899Y-115635791D01*
X161943744Y-115665000D01*
X162236256Y-115665000D01*
X162669418Y-115578839D01*
X163160625Y-115250625D01*
X163373843Y-114931522D01*
X163434817Y-115061358D01*
X163863076Y-115451645D01*
X164273110Y-115621476D01*
X164503000Y-115500155D01*
X164503000Y-114307000D01*
X164483000Y-114307000D01*
X164483000Y-114053000D01*
X164503000Y-114053000D01*
X164503000Y-114033000D01*
X164757000Y-114033000D01*
X164757000Y-114053000D01*
X164777000Y-114053000D01*
X164777000Y-114307000D01*
X164757000Y-114307000D01*
X164757000Y-115500155D01*
X164986890Y-115621476D01*
X165396924Y-115451645D01*
X165825183Y-115061358D01*
X165886157Y-114931522D01*
X166099375Y-115250625D01*
X166590582Y-115578839D01*
X167023744Y-115665000D01*
X167316256Y-115665000D01*
X167749418Y-115578839D01*
X168240625Y-115250625D01*
X168568839Y-114759418D01*
X168684092Y-114180000D01*
X168568839Y-113600582D01*
X168240625Y-113109375D01*
X167942239Y-112910000D01*
X168240625Y-112710625D01*
X168345442Y-112553754D01*
X173494500Y-112553754D01*
X173494500Y-112866246D01*
X173614085Y-113154950D01*
X173835050Y-113375915D01*
X174123754Y-113495500D01*
X174436246Y-113495500D01*
X174724950Y-113375915D01*
X174945915Y-113154950D01*
X175065500Y-112866246D01*
X175065500Y-112553754D01*
X174945915Y-112265050D01*
X174724950Y-112044085D01*
X174436246Y-111924500D01*
X174123754Y-111924500D01*
X173835050Y-112044085D01*
X173614085Y-112265050D01*
X173494500Y-112553754D01*
X168345442Y-112553754D01*
X168568839Y-112219418D01*
X168684092Y-111640000D01*
X168568839Y-111060582D01*
X168240625Y-110569375D01*
X168076934Y-110460000D01*
X181247829Y-110460000D01*
X180979375Y-110639375D01*
X180979375Y-110639375D01*
G37*
X180979375Y-110639375D02*
X180651161Y-111130582D01*
X180535908Y-111710000D01*
X180651161Y-112289418D01*
X180979375Y-112780625D01*
X181277761Y-112980000D01*
X180979375Y-113179375D01*
X180651161Y-113670582D01*
X180535908Y-114250000D01*
X180651161Y-114829418D01*
X180979375Y-115320625D01*
X181470582Y-115648839D01*
X181903744Y-115735000D01*
X182124835Y-115735000D01*
X182074385Y-115785450D01*
X181954800Y-116074154D01*
X181954800Y-116386646D01*
X182074385Y-116675350D01*
X182295350Y-116896315D01*
X182584054Y-117015900D01*
X182896546Y-117015900D01*
X183185250Y-116896315D01*
X183406215Y-116675350D01*
X183525800Y-116386646D01*
X183525800Y-116074154D01*
X183406215Y-115785450D01*
X183185250Y-115564485D01*
X182920059Y-115454639D01*
X183120625Y-115320625D01*
X183320000Y-115022239D01*
X183519375Y-115320625D01*
X184010582Y-115648839D01*
X184443744Y-115735000D01*
X184736256Y-115735000D01*
X185169418Y-115648839D01*
X185660625Y-115320625D01*
X185860000Y-115022239D01*
X186059375Y-115320625D01*
X186550582Y-115648839D01*
X186983744Y-115735000D01*
X187179211Y-115735000D01*
X184136634Y-118777578D01*
X184077255Y-118817254D01*
X184037579Y-118876633D01*
X184037576Y-118876636D01*
X183920065Y-119052504D01*
X183864868Y-119330000D01*
X183878801Y-119400046D01*
X183878800Y-126839972D01*
X180674034Y-130044739D01*
X180614655Y-130084415D01*
X180586802Y-130126100D01*
X180310754Y-130126100D01*
X180180268Y-130180149D01*
X179059454Y-129059336D01*
X179019777Y-128999955D01*
X178784527Y-128842765D01*
X178577077Y-128801501D01*
X178577072Y-128801501D01*
X178507031Y-128787569D01*
X178436990Y-128801501D01*
X177255359Y-128801501D01*
X177208615Y-128688650D01*
X176987650Y-128467685D01*
X176698946Y-128348100D01*
X176386454Y-128348100D01*
X176097750Y-128467685D01*
X175876785Y-128688650D01*
X175830041Y-128801501D01*
X175158990Y-128801501D01*
X172304177Y-125946688D01*
X172335915Y-125914950D01*
X172455500Y-125626246D01*
X172455500Y-125573754D01*
X173009500Y-125573754D01*
X173009500Y-125886246D01*
X173129085Y-126174950D01*
X173350050Y-126395915D01*
X173638754Y-126515500D01*
X173951246Y-126515500D01*
X174239950Y-126395915D01*
X174460915Y-126174950D01*
X174580500Y-125886246D01*
X174580500Y-125573754D01*
X174460915Y-125285050D01*
X174239950Y-125064085D01*
X173951246Y-124944500D01*
X173638754Y-124944500D01*
X173350050Y-125064085D01*
X173129085Y-125285050D01*
X173009500Y-125573754D01*
X172455500Y-125573754D01*
X172455500Y-125313754D01*
X172335915Y-125025050D01*
X172192246Y-124881381D01*
X172285500Y-124656246D01*
X172285500Y-124343754D01*
X172165915Y-124055050D01*
X171944950Y-123834085D01*
X171656246Y-123714500D01*
X171343754Y-123714500D01*
X171250000Y-123753334D01*
X171156246Y-123714500D01*
X170843754Y-123714500D01*
X170555050Y-123834085D01*
X170334085Y-124055050D01*
X170214500Y-124343754D01*
X170214500Y-124656246D01*
X170334085Y-124944950D01*
X170555050Y-125165915D01*
X170843754Y-125285500D01*
X170896203Y-125285500D01*
X170884500Y-125313754D01*
X170884500Y-125626246D01*
X170885346Y-125628289D01*
X170822185Y-125691450D01*
X170702600Y-125980154D01*
X170702600Y-126292646D01*
X170822185Y-126581350D01*
X171043150Y-126802315D01*
X171222527Y-126876615D01*
X173884173Y-129538262D01*
X173882885Y-129539550D01*
X173833500Y-129658777D01*
X167685922Y-123511200D01*
X172014500Y-123511200D01*
X172014500Y-123556246D01*
X172134085Y-123844950D01*
X172355050Y-124065915D01*
X172643754Y-124185500D01*
X172956246Y-124185500D01*
X173244950Y-124065915D01*
X173458500Y-123852365D01*
X173458500Y-123854246D01*
X173578085Y-124142950D01*
X173799050Y-124363915D01*
X174087754Y-124483500D01*
X174400246Y-124483500D01*
X174688950Y-124363915D01*
X174909915Y-124142950D01*
X175029500Y-123854246D01*
X175029500Y-123541754D01*
X175016844Y-123511200D01*
X175444342Y-123511200D01*
X178307008Y-126373867D01*
X178346684Y-126433246D01*
X178406063Y-126472922D01*
X178406065Y-126472924D01*
X178581932Y-126590435D01*
X178581933Y-126590435D01*
X178581934Y-126590436D01*
X178789384Y-126631700D01*
X178789387Y-126631700D01*
X178859429Y-126645632D01*
X178929471Y-126631700D01*
X181535700Y-126631700D01*
X181535700Y-126876846D01*
X181655285Y-127165550D01*
X181876250Y-127386515D01*
X182164954Y-127506100D01*
X182477446Y-127506100D01*
X182766150Y-127386515D01*
X182987115Y-127165550D01*
X183106700Y-126876846D01*
X183106700Y-126706000D01*
X183214046Y-126706000D01*
X183502750Y-126586415D01*
X183723715Y-126365450D01*
X183843300Y-126076746D01*
X183843300Y-125764254D01*
X183723715Y-125475550D01*
X183502750Y-125254585D01*
X183214046Y-125135000D01*
X182901554Y-125135000D01*
X182722178Y-125209300D01*
X179154019Y-125209300D01*
X177765873Y-123821154D01*
X179262400Y-123821154D01*
X179262400Y-124133646D01*
X179381985Y-124422350D01*
X179602950Y-124643315D01*
X179891654Y-124762900D01*
X180204146Y-124762900D01*
X180492850Y-124643315D01*
X180713815Y-124422350D01*
X180833400Y-124133646D01*
X180833400Y-123821154D01*
X180713815Y-123532450D01*
X180492850Y-123311485D01*
X180204146Y-123191900D01*
X179891654Y-123191900D01*
X179602950Y-123311485D01*
X179381985Y-123532450D01*
X179262400Y-123821154D01*
X177765873Y-123821154D01*
X176291353Y-122346635D01*
X176251676Y-122287254D01*
X176016426Y-122130064D01*
X175808976Y-122088800D01*
X175808971Y-122088800D01*
X175738930Y-122074868D01*
X175668889Y-122088800D01*
X168132065Y-122088800D01*
X168255915Y-121964950D01*
X168375500Y-121676246D01*
X168375500Y-121615200D01*
X173400378Y-121615200D01*
X173579754Y-121689500D01*
X173892246Y-121689500D01*
X174180950Y-121569915D01*
X174401915Y-121348950D01*
X174521500Y-121060246D01*
X174521500Y-120925554D01*
X179325900Y-120925554D01*
X179325900Y-121238046D01*
X179445485Y-121526750D01*
X179666450Y-121747715D01*
X179955154Y-121867300D01*
X180267646Y-121867300D01*
X180556350Y-121747715D01*
X180697500Y-121606565D01*
X180697500Y-121657146D01*
X180817085Y-121945850D01*
X181038050Y-122166815D01*
X181326754Y-122286400D01*
X181444065Y-122286400D01*
X181330150Y-122333585D01*
X181109185Y-122554550D01*
X180989600Y-122843254D01*
X180989600Y-123155746D01*
X181109185Y-123444450D01*
X181330150Y-123665415D01*
X181618854Y-123785000D01*
X181931346Y-123785000D01*
X182220050Y-123665415D01*
X182441015Y-123444450D01*
X182560600Y-123155746D01*
X182560600Y-122843254D01*
X182441015Y-122554550D01*
X182220050Y-122333585D01*
X181931346Y-122214000D01*
X181814035Y-122214000D01*
X181927950Y-122166815D01*
X182148915Y-121945850D01*
X182268500Y-121657146D01*
X182268500Y-121344654D01*
X182148915Y-121055950D01*
X181927950Y-120834985D01*
X181639246Y-120715400D01*
X181326754Y-120715400D01*
X181038050Y-120834985D01*
X180896900Y-120976135D01*
X180896900Y-120925554D01*
X180777315Y-120636850D01*
X180556350Y-120415885D01*
X180267646Y-120296300D01*
X179955154Y-120296300D01*
X179666450Y-120415885D01*
X179445485Y-120636850D01*
X179325900Y-120925554D01*
X174521500Y-120925554D01*
X174521500Y-120863565D01*
X174598181Y-120863565D01*
X174886885Y-120743980D01*
X175107850Y-120523015D01*
X175227435Y-120234311D01*
X175227435Y-119921819D01*
X175107850Y-119633115D01*
X174886885Y-119412150D01*
X174598181Y-119292565D01*
X174285689Y-119292565D01*
X173996985Y-119412150D01*
X173776020Y-119633115D01*
X173656435Y-119921819D01*
X173656435Y-120118500D01*
X173579754Y-120118500D01*
X173400378Y-120192800D01*
X169818065Y-120192800D01*
X169865915Y-120144950D01*
X169985500Y-119856246D01*
X169985500Y-119543754D01*
X169865915Y-119255050D01*
X169644950Y-119034085D01*
X169356246Y-118914500D01*
X169043754Y-118914500D01*
X168755050Y-119034085D01*
X168739960Y-119049175D01*
X168656246Y-119014500D01*
X168343754Y-119014500D01*
X168055050Y-119134085D01*
X167834085Y-119355050D01*
X167714500Y-119643754D01*
X167714500Y-119956246D01*
X167812484Y-120192800D01*
X167456041Y-120192800D01*
X167385999Y-120178868D01*
X167315958Y-120192800D01*
X167315954Y-120192800D01*
X167149745Y-120225861D01*
X167035915Y-119951050D01*
X166947865Y-119863000D01*
X166965915Y-119844950D01*
X167085500Y-119556246D01*
X167085500Y-119243754D01*
X166965915Y-118955050D01*
X166744950Y-118734085D01*
X166456246Y-118614500D01*
X166143754Y-118614500D01*
X165855050Y-118734085D01*
X165634085Y-118955050D01*
X165514500Y-119243754D01*
X165514500Y-119556246D01*
X165634085Y-119844950D01*
X165722135Y-119933000D01*
X165704085Y-119951050D01*
X165584500Y-120239754D01*
X165584500Y-120552246D01*
X165704085Y-120840950D01*
X165925050Y-121061915D01*
X166213754Y-121181500D01*
X166346500Y-121181500D01*
X166346500Y-121314246D01*
X166466085Y-121602950D01*
X166687050Y-121823915D01*
X166902659Y-121913223D01*
X166924085Y-121964950D01*
X167047935Y-122088800D01*
X166694589Y-122088800D01*
X162940215Y-118334427D01*
X162865915Y-118155050D01*
X162644950Y-117934085D01*
X162356246Y-117814500D01*
X162043754Y-117814500D01*
X161755050Y-117934085D01*
X161534085Y-118155050D01*
X161414500Y-118443754D01*
X161414500Y-118756246D01*
X161534085Y-119044950D01*
X161755050Y-119265915D01*
X161934427Y-119340215D01*
X164879711Y-122285500D01*
X142183341Y-122285500D01*
X142113299Y-122271568D01*
X142043257Y-122285500D01*
X142043254Y-122285500D01*
X141835804Y-122326764D01*
X141835803Y-122326765D01*
X141835802Y-122326765D01*
X141659935Y-122444276D01*
X141659933Y-122444278D01*
X141600554Y-122483954D01*
X141596030Y-122490725D01*
X141519663Y-122306359D01*
X141625500Y-122050846D01*
X141625500Y-121867300D01*
X141786646Y-121867300D01*
X142075350Y-121747715D01*
X142296315Y-121526750D01*
X142415900Y-121238046D01*
X142415900Y-121065254D01*
X149125300Y-121065254D01*
X149125300Y-121377746D01*
X149244885Y-121666450D01*
X149465850Y-121887415D01*
X149754554Y-122007000D01*
X150067046Y-122007000D01*
X150355750Y-121887415D01*
X150576715Y-121666450D01*
X150696300Y-121377746D01*
X150696300Y-121065254D01*
X150576715Y-120776550D01*
X150355750Y-120555585D01*
X150067046Y-120436000D01*
X149754554Y-120436000D01*
X149465850Y-120555585D01*
X149244885Y-120776550D01*
X149125300Y-121065254D01*
X142415900Y-121065254D01*
X142415900Y-120925554D01*
X142296315Y-120636850D01*
X142234262Y-120574797D01*
X142345500Y-120306246D01*
X142345500Y-120114091D01*
X142493754Y-120175500D01*
X142806246Y-120175500D01*
X143094950Y-120055915D01*
X143315915Y-119834950D01*
X143435500Y-119546246D01*
X143435500Y-119233754D01*
X143315915Y-118945050D01*
X143094950Y-118724085D01*
X142806246Y-118604500D01*
X142804091Y-118604500D01*
X142865500Y-118456246D01*
X142865500Y-118143754D01*
X142745915Y-117855050D01*
X142535500Y-117644635D01*
X142535500Y-117623754D01*
X142531358Y-117613754D01*
X145544500Y-117613754D01*
X145544500Y-117926246D01*
X145664085Y-118214950D01*
X145885050Y-118435915D01*
X146173754Y-118555500D01*
X146486246Y-118555500D01*
X146774950Y-118435915D01*
X146995915Y-118214950D01*
X147115500Y-117926246D01*
X147115500Y-117674354D01*
X167184700Y-117674354D01*
X167184700Y-117986846D01*
X167304285Y-118275550D01*
X167525250Y-118496515D01*
X167813954Y-118616100D01*
X168126446Y-118616100D01*
X168415150Y-118496515D01*
X168567911Y-118343754D01*
X170014500Y-118343754D01*
X170014500Y-118656246D01*
X170134085Y-118944950D01*
X170355050Y-119165915D01*
X170643754Y-119285500D01*
X170956246Y-119285500D01*
X171244950Y-119165915D01*
X171439330Y-118971535D01*
X171593754Y-119035500D01*
X171906246Y-119035500D01*
X172000000Y-118996666D01*
X172093754Y-119035500D01*
X172379000Y-119035500D01*
X172379000Y-119066346D01*
X172498585Y-119355050D01*
X172719550Y-119576015D01*
X173008254Y-119695600D01*
X173320746Y-119695600D01*
X173609450Y-119576015D01*
X173830415Y-119355050D01*
X173950000Y-119066346D01*
X173950000Y-118753854D01*
X173830415Y-118465150D01*
X173609450Y-118244185D01*
X173320746Y-118124600D01*
X173035500Y-118124600D01*
X173035500Y-118093754D01*
X172915915Y-117805050D01*
X172694950Y-117584085D01*
X172406246Y-117464500D01*
X172093754Y-117464500D01*
X172000000Y-117503334D01*
X171906246Y-117464500D01*
X171593754Y-117464500D01*
X171305050Y-117584085D01*
X171110670Y-117778465D01*
X170956246Y-117714500D01*
X170643754Y-117714500D01*
X170355050Y-117834085D01*
X170134085Y-118055050D01*
X170014500Y-118343754D01*
X168567911Y-118343754D01*
X168636115Y-118275550D01*
X168755700Y-117986846D01*
X168755700Y-117674354D01*
X168636115Y-117385650D01*
X168415150Y-117164685D01*
X168219766Y-117083754D01*
X177904500Y-117083754D01*
X177904500Y-117396246D01*
X178024085Y-117684950D01*
X178245050Y-117905915D01*
X178533754Y-118025500D01*
X178846246Y-118025500D01*
X179134950Y-117905915D01*
X179355915Y-117684950D01*
X179475500Y-117396246D01*
X179475500Y-117083754D01*
X179355915Y-116795050D01*
X179134950Y-116574085D01*
X178846246Y-116454500D01*
X178533754Y-116454500D01*
X178245050Y-116574085D01*
X178024085Y-116795050D01*
X177904500Y-117083754D01*
X168219766Y-117083754D01*
X168126446Y-117045100D01*
X167813954Y-117045100D01*
X167525250Y-117164685D01*
X167304285Y-117385650D01*
X167184700Y-117674354D01*
X147115500Y-117674354D01*
X147115500Y-117613754D01*
X146995915Y-117325050D01*
X146774950Y-117104085D01*
X146486246Y-116984500D01*
X146173754Y-116984500D01*
X145885050Y-117104085D01*
X145664085Y-117325050D01*
X145544500Y-117613754D01*
X142531358Y-117613754D01*
X142415915Y-117335050D01*
X142345500Y-117264635D01*
X142345500Y-117013754D01*
X142225915Y-116725050D01*
X142004950Y-116504085D01*
X141716246Y-116384500D01*
X141403754Y-116384500D01*
X141115050Y-116504085D01*
X140894085Y-116725050D01*
X140774500Y-117013754D01*
X140774500Y-117326246D01*
X140894085Y-117614950D01*
X140964500Y-117685365D01*
X140964500Y-117936246D01*
X141084085Y-118224950D01*
X141294500Y-118435365D01*
X141294500Y-118456246D01*
X141386685Y-118678800D01*
X140200042Y-118678800D01*
X140130000Y-118664868D01*
X140059958Y-118678800D01*
X140059954Y-118678800D01*
X139852504Y-118720064D01*
X139819576Y-118742066D01*
X139676635Y-118837576D01*
X139676633Y-118837578D01*
X139617254Y-118877254D01*
X139605500Y-118894845D01*
X139605500Y-118643754D01*
X139485915Y-118355050D01*
X139313862Y-118182997D01*
X141334760Y-116162099D01*
X148159600Y-116162099D01*
X148266985Y-116421350D01*
X148487950Y-116642315D01*
X148776654Y-116761900D01*
X149089146Y-116761900D01*
X149377850Y-116642315D01*
X149598815Y-116421350D01*
X149706200Y-116162099D01*
X157375942Y-116162099D01*
X157422686Y-116274950D01*
X157643651Y-116495915D01*
X157932355Y-116615500D01*
X158244847Y-116615500D01*
X158533551Y-116495915D01*
X158754516Y-116274950D01*
X158801260Y-116162099D01*
X160359032Y-116162099D01*
X160566449Y-116369516D01*
X160855153Y-116489101D01*
X161167645Y-116489101D01*
X161456349Y-116369516D01*
X161677314Y-116148551D01*
X161796899Y-115859847D01*
X161796899Y-115635791D01*
X161943744Y-115665000D01*
X162236256Y-115665000D01*
X162669418Y-115578839D01*
X163160625Y-115250625D01*
X163373843Y-114931522D01*
X163434817Y-115061358D01*
X163863076Y-115451645D01*
X164273110Y-115621476D01*
X164503000Y-115500155D01*
X164503000Y-114307000D01*
X164483000Y-114307000D01*
X164483000Y-114053000D01*
X164503000Y-114053000D01*
X164503000Y-114033000D01*
X164757000Y-114033000D01*
X164757000Y-114053000D01*
X164777000Y-114053000D01*
X164777000Y-114307000D01*
X164757000Y-114307000D01*
X164757000Y-115500155D01*
X164986890Y-115621476D01*
X165396924Y-115451645D01*
X165825183Y-115061358D01*
X165886157Y-114931522D01*
X166099375Y-115250625D01*
X166590582Y-115578839D01*
X167023744Y-115665000D01*
X167316256Y-115665000D01*
X167749418Y-115578839D01*
X168240625Y-115250625D01*
X168568839Y-114759418D01*
X168684092Y-114180000D01*
X168568839Y-113600582D01*
X168240625Y-113109375D01*
X167942239Y-112910000D01*
X168240625Y-112710625D01*
X168345442Y-112553754D01*
X173494500Y-112553754D01*
X173494500Y-112866246D01*
X173614085Y-113154950D01*
X173835050Y-113375915D01*
X174123754Y-113495500D01*
X174436246Y-113495500D01*
X174724950Y-113375915D01*
X174945915Y-113154950D01*
X175065500Y-112866246D01*
X175065500Y-112553754D01*
X174945915Y-112265050D01*
X174724950Y-112044085D01*
X174436246Y-111924500D01*
X174123754Y-111924500D01*
X173835050Y-112044085D01*
X173614085Y-112265050D01*
X173494500Y-112553754D01*
X168345442Y-112553754D01*
X168568839Y-112219418D01*
X168684092Y-111640000D01*
X168568839Y-111060582D01*
X168240625Y-110569375D01*
X168076934Y-110460000D01*
X181247829Y-110460000D01*
X180979375Y-110639375D01*
G36*
X138378301Y-128726980D02*
X138337381Y-128767901D01*
X138278364Y-128767901D01*
X138305915Y-128740350D01*
X138378301Y-128565595D01*
X138378301Y-128726980D01*
X138378301Y-128726980D01*
G37*
X138378301Y-128726980D02*
X138337381Y-128767901D01*
X138278364Y-128767901D01*
X138305915Y-128740350D01*
X138378301Y-128565595D01*
X138378301Y-128726980D01*
G36*
X135256900Y-128139154D02*
X135256900Y-128314500D01*
X135083754Y-128314500D01*
X134847071Y-128412537D01*
X134586246Y-128304500D01*
X134425500Y-128304500D01*
X134425500Y-128280800D01*
X134598446Y-128280800D01*
X134887150Y-128161215D01*
X134887165Y-128161200D01*
X134981029Y-128161200D01*
X135051070Y-128175132D01*
X135121111Y-128161200D01*
X135121116Y-128161200D01*
X135259140Y-128133746D01*
X135256900Y-128139154D01*
X135256900Y-128139154D01*
G37*
X135256900Y-128139154D02*
X135256900Y-128314500D01*
X135083754Y-128314500D01*
X134847071Y-128412537D01*
X134586246Y-128304500D01*
X134425500Y-128304500D01*
X134425500Y-128280800D01*
X134598446Y-128280800D01*
X134887150Y-128161215D01*
X134887165Y-128161200D01*
X134981029Y-128161200D01*
X135051070Y-128175132D01*
X135121111Y-128161200D01*
X135121116Y-128161200D01*
X135259140Y-128133746D01*
X135256900Y-128139154D01*
G36*
X138375050Y-119465915D02*
X138663754Y-119585500D01*
X138928711Y-119585500D01*
X137612757Y-120901455D01*
X137508415Y-120649550D01*
X137287450Y-120428585D01*
X137131590Y-120364026D01*
X137194715Y-120321847D01*
X137234393Y-120262465D01*
X138202997Y-119293862D01*
X138375050Y-119465915D01*
X138375050Y-119465915D01*
G37*
X138375050Y-119465915D02*
X138663754Y-119585500D01*
X138928711Y-119585500D01*
X137612757Y-120901455D01*
X137508415Y-120649550D01*
X137287450Y-120428585D01*
X137131590Y-120364026D01*
X137194715Y-120321847D01*
X137234393Y-120262465D01*
X138202997Y-119293862D01*
X138375050Y-119465915D01*
G36*
X131646278Y-119436351D02*
X131376246Y-119324500D01*
X131170301Y-119324500D01*
X131170301Y-119265472D01*
X131184233Y-119195430D01*
X131170301Y-119125388D01*
X131170301Y-119125385D01*
X131129329Y-118919401D01*
X131646278Y-119436351D01*
X131646278Y-119436351D01*
G37*
X131646278Y-119436351D02*
X131376246Y-119324500D01*
X131170301Y-119324500D01*
X131170301Y-119265472D01*
X131184233Y-119195430D01*
X131170301Y-119125388D01*
X131170301Y-119125385D01*
X131129329Y-118919401D01*
X131646278Y-119436351D01*
G04 #@! TD*
M02*
