G04 #@! TF.GenerationSoftware,KiCad,Pcbnew,5.0.0-rc3-unknown-14ce5182~65~ubuntu16.04.1*
G04 #@! TF.CreationDate,2018-08-12T21:53:15+02:00*
G04 #@! TF.ProjectId,roboy_sno,726F626F795F736E6F2E6B696361645F,rev?*
G04 #@! TF.SameCoordinates,Original*
G04 #@! TF.FileFunction,Soldermask,Top*
G04 #@! TF.FilePolarity,Negative*
%FSLAX46Y46*%
G04 Gerber Fmt 4.6, Leading zero omitted, Abs format (unit mm)*
G04 Created by KiCad (PCBNEW 5.0.0-rc3-unknown-14ce5182~65~ubuntu16.04.1) date Sun Aug 12 21:53:15 2018*
%MOMM*%
%LPD*%
G01*
G04 APERTURE LIST*
%ADD10C,0.450000*%
%ADD11R,0.850000X1.780000*%
%ADD12R,1.875000X2.500000*%
%ADD13R,2.775000X2.300000*%
%ADD14R,1.575000X2.300000*%
%ADD15R,2.100000X2.100000*%
%ADD16O,2.100000X2.100000*%
%ADD17C,0.100000*%
%ADD18C,0.990000*%
%ADD19R,1.050000X0.800000*%
%ADD20R,1.030000X0.850000*%
%ADD21R,1.250000X1.700000*%
%ADD22R,1.700000X1.500000*%
%ADD23C,0.720000*%
%ADD24R,1.130000X0.700000*%
%ADD25R,0.700000X1.130000*%
%ADD26R,1.650000X1.650000*%
%ADD27R,1.500000X2.900000*%
%ADD28R,2.900000X1.500000*%
%ADD29C,1.275000*%
%ADD30R,2.100000X1.300000*%
%ADD31R,0.700000X1.700000*%
%ADD32R,2.200000X2.600000*%
%ADD33R,1.500000X1.500000*%
%ADD34R,1.150000X0.850000*%
%ADD35R,1.075000X0.654000*%
%ADD36R,0.654000X1.075000*%
G04 APERTURE END LIST*
D10*
G04 #@! TO.C,U6*
X118457800Y-123754600D02*
G75*
G03X118457800Y-123754600I-805000J0D01*
G01*
G04 #@! TD*
D11*
G04 #@! TO.C,J7*
X168651400Y-137986000D03*
X169301400Y-137986000D03*
X169951400Y-137986000D03*
X170601400Y-137986000D03*
X171251400Y-137986000D03*
D12*
X167488900Y-138346000D03*
X172413900Y-138346000D03*
D13*
X167041400Y-140646000D03*
X172861400Y-140646000D03*
D14*
X169111400Y-140646000D03*
X170791400Y-140646000D03*
G04 #@! TD*
D15*
G04 #@! TO.C,J4*
X147472400Y-120192800D03*
D16*
X144932400Y-120192800D03*
X147472400Y-122732800D03*
X144932400Y-122732800D03*
X147472400Y-125272800D03*
X144932400Y-125272800D03*
X147472400Y-127812800D03*
X144932400Y-127812800D03*
X147472400Y-130352800D03*
X144932400Y-130352800D03*
G04 #@! TD*
D17*
G04 #@! TO.C,C2*
G36*
X122813659Y-120158592D02*
X122837685Y-120162156D01*
X122861245Y-120168057D01*
X122884114Y-120176240D01*
X122906071Y-120186624D01*
X122926904Y-120199111D01*
X122946412Y-120213580D01*
X122964409Y-120229891D01*
X122980720Y-120247888D01*
X122995189Y-120267396D01*
X123007676Y-120288229D01*
X123018060Y-120310186D01*
X123026243Y-120333055D01*
X123032144Y-120356615D01*
X123035708Y-120380641D01*
X123036900Y-120404900D01*
X123036900Y-120899900D01*
X123035708Y-120924159D01*
X123032144Y-120948185D01*
X123026243Y-120971745D01*
X123018060Y-120994614D01*
X123007676Y-121016571D01*
X122995189Y-121037404D01*
X122980720Y-121056912D01*
X122964409Y-121074909D01*
X122946412Y-121091220D01*
X122926904Y-121105689D01*
X122906071Y-121118176D01*
X122884114Y-121128560D01*
X122861245Y-121136743D01*
X122837685Y-121142644D01*
X122813659Y-121146208D01*
X122789400Y-121147400D01*
X122244400Y-121147400D01*
X122220141Y-121146208D01*
X122196115Y-121142644D01*
X122172555Y-121136743D01*
X122149686Y-121128560D01*
X122127729Y-121118176D01*
X122106896Y-121105689D01*
X122087388Y-121091220D01*
X122069391Y-121074909D01*
X122053080Y-121056912D01*
X122038611Y-121037404D01*
X122026124Y-121016571D01*
X122015740Y-120994614D01*
X122007557Y-120971745D01*
X122001656Y-120948185D01*
X121998092Y-120924159D01*
X121996900Y-120899900D01*
X121996900Y-120404900D01*
X121998092Y-120380641D01*
X122001656Y-120356615D01*
X122007557Y-120333055D01*
X122015740Y-120310186D01*
X122026124Y-120288229D01*
X122038611Y-120267396D01*
X122053080Y-120247888D01*
X122069391Y-120229891D01*
X122087388Y-120213580D01*
X122106896Y-120199111D01*
X122127729Y-120186624D01*
X122149686Y-120176240D01*
X122172555Y-120168057D01*
X122196115Y-120162156D01*
X122220141Y-120158592D01*
X122244400Y-120157400D01*
X122789400Y-120157400D01*
X122813659Y-120158592D01*
X122813659Y-120158592D01*
G37*
D18*
X122516900Y-120652400D03*
D17*
G36*
X122813659Y-119188592D02*
X122837685Y-119192156D01*
X122861245Y-119198057D01*
X122884114Y-119206240D01*
X122906071Y-119216624D01*
X122926904Y-119229111D01*
X122946412Y-119243580D01*
X122964409Y-119259891D01*
X122980720Y-119277888D01*
X122995189Y-119297396D01*
X123007676Y-119318229D01*
X123018060Y-119340186D01*
X123026243Y-119363055D01*
X123032144Y-119386615D01*
X123035708Y-119410641D01*
X123036900Y-119434900D01*
X123036900Y-119929900D01*
X123035708Y-119954159D01*
X123032144Y-119978185D01*
X123026243Y-120001745D01*
X123018060Y-120024614D01*
X123007676Y-120046571D01*
X122995189Y-120067404D01*
X122980720Y-120086912D01*
X122964409Y-120104909D01*
X122946412Y-120121220D01*
X122926904Y-120135689D01*
X122906071Y-120148176D01*
X122884114Y-120158560D01*
X122861245Y-120166743D01*
X122837685Y-120172644D01*
X122813659Y-120176208D01*
X122789400Y-120177400D01*
X122244400Y-120177400D01*
X122220141Y-120176208D01*
X122196115Y-120172644D01*
X122172555Y-120166743D01*
X122149686Y-120158560D01*
X122127729Y-120148176D01*
X122106896Y-120135689D01*
X122087388Y-120121220D01*
X122069391Y-120104909D01*
X122053080Y-120086912D01*
X122038611Y-120067404D01*
X122026124Y-120046571D01*
X122015740Y-120024614D01*
X122007557Y-120001745D01*
X122001656Y-119978185D01*
X121998092Y-119954159D01*
X121996900Y-119929900D01*
X121996900Y-119434900D01*
X121998092Y-119410641D01*
X122001656Y-119386615D01*
X122007557Y-119363055D01*
X122015740Y-119340186D01*
X122026124Y-119318229D01*
X122038611Y-119297396D01*
X122053080Y-119277888D01*
X122069391Y-119259891D01*
X122087388Y-119243580D01*
X122106896Y-119229111D01*
X122127729Y-119216624D01*
X122149686Y-119206240D01*
X122172555Y-119198057D01*
X122196115Y-119192156D01*
X122220141Y-119188592D01*
X122244400Y-119187400D01*
X122789400Y-119187400D01*
X122813659Y-119188592D01*
X122813659Y-119188592D01*
G37*
D18*
X122516900Y-119682400D03*
G04 #@! TD*
D17*
G04 #@! TO.C,C3*
G36*
X121340459Y-119201292D02*
X121364485Y-119204856D01*
X121388045Y-119210757D01*
X121410914Y-119218940D01*
X121432871Y-119229324D01*
X121453704Y-119241811D01*
X121473212Y-119256280D01*
X121491209Y-119272591D01*
X121507520Y-119290588D01*
X121521989Y-119310096D01*
X121534476Y-119330929D01*
X121544860Y-119352886D01*
X121553043Y-119375755D01*
X121558944Y-119399315D01*
X121562508Y-119423341D01*
X121563700Y-119447600D01*
X121563700Y-119942600D01*
X121562508Y-119966859D01*
X121558944Y-119990885D01*
X121553043Y-120014445D01*
X121544860Y-120037314D01*
X121534476Y-120059271D01*
X121521989Y-120080104D01*
X121507520Y-120099612D01*
X121491209Y-120117609D01*
X121473212Y-120133920D01*
X121453704Y-120148389D01*
X121432871Y-120160876D01*
X121410914Y-120171260D01*
X121388045Y-120179443D01*
X121364485Y-120185344D01*
X121340459Y-120188908D01*
X121316200Y-120190100D01*
X120771200Y-120190100D01*
X120746941Y-120188908D01*
X120722915Y-120185344D01*
X120699355Y-120179443D01*
X120676486Y-120171260D01*
X120654529Y-120160876D01*
X120633696Y-120148389D01*
X120614188Y-120133920D01*
X120596191Y-120117609D01*
X120579880Y-120099612D01*
X120565411Y-120080104D01*
X120552924Y-120059271D01*
X120542540Y-120037314D01*
X120534357Y-120014445D01*
X120528456Y-119990885D01*
X120524892Y-119966859D01*
X120523700Y-119942600D01*
X120523700Y-119447600D01*
X120524892Y-119423341D01*
X120528456Y-119399315D01*
X120534357Y-119375755D01*
X120542540Y-119352886D01*
X120552924Y-119330929D01*
X120565411Y-119310096D01*
X120579880Y-119290588D01*
X120596191Y-119272591D01*
X120614188Y-119256280D01*
X120633696Y-119241811D01*
X120654529Y-119229324D01*
X120676486Y-119218940D01*
X120699355Y-119210757D01*
X120722915Y-119204856D01*
X120746941Y-119201292D01*
X120771200Y-119200100D01*
X121316200Y-119200100D01*
X121340459Y-119201292D01*
X121340459Y-119201292D01*
G37*
D18*
X121043700Y-119695100D03*
D17*
G36*
X121340459Y-120171292D02*
X121364485Y-120174856D01*
X121388045Y-120180757D01*
X121410914Y-120188940D01*
X121432871Y-120199324D01*
X121453704Y-120211811D01*
X121473212Y-120226280D01*
X121491209Y-120242591D01*
X121507520Y-120260588D01*
X121521989Y-120280096D01*
X121534476Y-120300929D01*
X121544860Y-120322886D01*
X121553043Y-120345755D01*
X121558944Y-120369315D01*
X121562508Y-120393341D01*
X121563700Y-120417600D01*
X121563700Y-120912600D01*
X121562508Y-120936859D01*
X121558944Y-120960885D01*
X121553043Y-120984445D01*
X121544860Y-121007314D01*
X121534476Y-121029271D01*
X121521989Y-121050104D01*
X121507520Y-121069612D01*
X121491209Y-121087609D01*
X121473212Y-121103920D01*
X121453704Y-121118389D01*
X121432871Y-121130876D01*
X121410914Y-121141260D01*
X121388045Y-121149443D01*
X121364485Y-121155344D01*
X121340459Y-121158908D01*
X121316200Y-121160100D01*
X120771200Y-121160100D01*
X120746941Y-121158908D01*
X120722915Y-121155344D01*
X120699355Y-121149443D01*
X120676486Y-121141260D01*
X120654529Y-121130876D01*
X120633696Y-121118389D01*
X120614188Y-121103920D01*
X120596191Y-121087609D01*
X120579880Y-121069612D01*
X120565411Y-121050104D01*
X120552924Y-121029271D01*
X120542540Y-121007314D01*
X120534357Y-120984445D01*
X120528456Y-120960885D01*
X120524892Y-120936859D01*
X120523700Y-120912600D01*
X120523700Y-120417600D01*
X120524892Y-120393341D01*
X120528456Y-120369315D01*
X120534357Y-120345755D01*
X120542540Y-120322886D01*
X120552924Y-120300929D01*
X120565411Y-120280096D01*
X120579880Y-120260588D01*
X120596191Y-120242591D01*
X120614188Y-120226280D01*
X120633696Y-120211811D01*
X120654529Y-120199324D01*
X120676486Y-120188940D01*
X120699355Y-120180757D01*
X120722915Y-120174856D01*
X120746941Y-120171292D01*
X120771200Y-120170100D01*
X121316200Y-120170100D01*
X121340459Y-120171292D01*
X121340459Y-120171292D01*
G37*
D18*
X121043700Y-120665100D03*
G04 #@! TD*
D17*
G04 #@! TO.C,C4*
G36*
X176524759Y-134101192D02*
X176548785Y-134104756D01*
X176572345Y-134110657D01*
X176595214Y-134118840D01*
X176617171Y-134129224D01*
X176638004Y-134141711D01*
X176657512Y-134156180D01*
X176675509Y-134172491D01*
X176691820Y-134190488D01*
X176706289Y-134209996D01*
X176718776Y-134230829D01*
X176729160Y-134252786D01*
X176737343Y-134275655D01*
X176743244Y-134299215D01*
X176746808Y-134323241D01*
X176748000Y-134347500D01*
X176748000Y-134892500D01*
X176746808Y-134916759D01*
X176743244Y-134940785D01*
X176737343Y-134964345D01*
X176729160Y-134987214D01*
X176718776Y-135009171D01*
X176706289Y-135030004D01*
X176691820Y-135049512D01*
X176675509Y-135067509D01*
X176657512Y-135083820D01*
X176638004Y-135098289D01*
X176617171Y-135110776D01*
X176595214Y-135121160D01*
X176572345Y-135129343D01*
X176548785Y-135135244D01*
X176524759Y-135138808D01*
X176500500Y-135140000D01*
X176005500Y-135140000D01*
X175981241Y-135138808D01*
X175957215Y-135135244D01*
X175933655Y-135129343D01*
X175910786Y-135121160D01*
X175888829Y-135110776D01*
X175867996Y-135098289D01*
X175848488Y-135083820D01*
X175830491Y-135067509D01*
X175814180Y-135049512D01*
X175799711Y-135030004D01*
X175787224Y-135009171D01*
X175776840Y-134987214D01*
X175768657Y-134964345D01*
X175762756Y-134940785D01*
X175759192Y-134916759D01*
X175758000Y-134892500D01*
X175758000Y-134347500D01*
X175759192Y-134323241D01*
X175762756Y-134299215D01*
X175768657Y-134275655D01*
X175776840Y-134252786D01*
X175787224Y-134230829D01*
X175799711Y-134209996D01*
X175814180Y-134190488D01*
X175830491Y-134172491D01*
X175848488Y-134156180D01*
X175867996Y-134141711D01*
X175888829Y-134129224D01*
X175910786Y-134118840D01*
X175933655Y-134110657D01*
X175957215Y-134104756D01*
X175981241Y-134101192D01*
X176005500Y-134100000D01*
X176500500Y-134100000D01*
X176524759Y-134101192D01*
X176524759Y-134101192D01*
G37*
D18*
X176253000Y-134620000D03*
D17*
G36*
X175554759Y-134101192D02*
X175578785Y-134104756D01*
X175602345Y-134110657D01*
X175625214Y-134118840D01*
X175647171Y-134129224D01*
X175668004Y-134141711D01*
X175687512Y-134156180D01*
X175705509Y-134172491D01*
X175721820Y-134190488D01*
X175736289Y-134209996D01*
X175748776Y-134230829D01*
X175759160Y-134252786D01*
X175767343Y-134275655D01*
X175773244Y-134299215D01*
X175776808Y-134323241D01*
X175778000Y-134347500D01*
X175778000Y-134892500D01*
X175776808Y-134916759D01*
X175773244Y-134940785D01*
X175767343Y-134964345D01*
X175759160Y-134987214D01*
X175748776Y-135009171D01*
X175736289Y-135030004D01*
X175721820Y-135049512D01*
X175705509Y-135067509D01*
X175687512Y-135083820D01*
X175668004Y-135098289D01*
X175647171Y-135110776D01*
X175625214Y-135121160D01*
X175602345Y-135129343D01*
X175578785Y-135135244D01*
X175554759Y-135138808D01*
X175530500Y-135140000D01*
X175035500Y-135140000D01*
X175011241Y-135138808D01*
X174987215Y-135135244D01*
X174963655Y-135129343D01*
X174940786Y-135121160D01*
X174918829Y-135110776D01*
X174897996Y-135098289D01*
X174878488Y-135083820D01*
X174860491Y-135067509D01*
X174844180Y-135049512D01*
X174829711Y-135030004D01*
X174817224Y-135009171D01*
X174806840Y-134987214D01*
X174798657Y-134964345D01*
X174792756Y-134940785D01*
X174789192Y-134916759D01*
X174788000Y-134892500D01*
X174788000Y-134347500D01*
X174789192Y-134323241D01*
X174792756Y-134299215D01*
X174798657Y-134275655D01*
X174806840Y-134252786D01*
X174817224Y-134230829D01*
X174829711Y-134209996D01*
X174844180Y-134190488D01*
X174860491Y-134172491D01*
X174878488Y-134156180D01*
X174897996Y-134141711D01*
X174918829Y-134129224D01*
X174940786Y-134118840D01*
X174963655Y-134110657D01*
X174987215Y-134104756D01*
X175011241Y-134101192D01*
X175035500Y-134100000D01*
X175530500Y-134100000D01*
X175554759Y-134101192D01*
X175554759Y-134101192D01*
G37*
D18*
X175283000Y-134620000D03*
G04 #@! TD*
D17*
G04 #@! TO.C,C5*
G36*
X165904759Y-113529192D02*
X165928785Y-113532756D01*
X165952345Y-113538657D01*
X165975214Y-113546840D01*
X165997171Y-113557224D01*
X166018004Y-113569711D01*
X166037512Y-113584180D01*
X166055509Y-113600491D01*
X166071820Y-113618488D01*
X166086289Y-113637996D01*
X166098776Y-113658829D01*
X166109160Y-113680786D01*
X166117343Y-113703655D01*
X166123244Y-113727215D01*
X166126808Y-113751241D01*
X166128000Y-113775500D01*
X166128000Y-114270500D01*
X166126808Y-114294759D01*
X166123244Y-114318785D01*
X166117343Y-114342345D01*
X166109160Y-114365214D01*
X166098776Y-114387171D01*
X166086289Y-114408004D01*
X166071820Y-114427512D01*
X166055509Y-114445509D01*
X166037512Y-114461820D01*
X166018004Y-114476289D01*
X165997171Y-114488776D01*
X165975214Y-114499160D01*
X165952345Y-114507343D01*
X165928785Y-114513244D01*
X165904759Y-114516808D01*
X165880500Y-114518000D01*
X165335500Y-114518000D01*
X165311241Y-114516808D01*
X165287215Y-114513244D01*
X165263655Y-114507343D01*
X165240786Y-114499160D01*
X165218829Y-114488776D01*
X165197996Y-114476289D01*
X165178488Y-114461820D01*
X165160491Y-114445509D01*
X165144180Y-114427512D01*
X165129711Y-114408004D01*
X165117224Y-114387171D01*
X165106840Y-114365214D01*
X165098657Y-114342345D01*
X165092756Y-114318785D01*
X165089192Y-114294759D01*
X165088000Y-114270500D01*
X165088000Y-113775500D01*
X165089192Y-113751241D01*
X165092756Y-113727215D01*
X165098657Y-113703655D01*
X165106840Y-113680786D01*
X165117224Y-113658829D01*
X165129711Y-113637996D01*
X165144180Y-113618488D01*
X165160491Y-113600491D01*
X165178488Y-113584180D01*
X165197996Y-113569711D01*
X165218829Y-113557224D01*
X165240786Y-113546840D01*
X165263655Y-113538657D01*
X165287215Y-113532756D01*
X165311241Y-113529192D01*
X165335500Y-113528000D01*
X165880500Y-113528000D01*
X165904759Y-113529192D01*
X165904759Y-113529192D01*
G37*
D18*
X165608000Y-114023000D03*
D17*
G36*
X165904759Y-112559192D02*
X165928785Y-112562756D01*
X165952345Y-112568657D01*
X165975214Y-112576840D01*
X165997171Y-112587224D01*
X166018004Y-112599711D01*
X166037512Y-112614180D01*
X166055509Y-112630491D01*
X166071820Y-112648488D01*
X166086289Y-112667996D01*
X166098776Y-112688829D01*
X166109160Y-112710786D01*
X166117343Y-112733655D01*
X166123244Y-112757215D01*
X166126808Y-112781241D01*
X166128000Y-112805500D01*
X166128000Y-113300500D01*
X166126808Y-113324759D01*
X166123244Y-113348785D01*
X166117343Y-113372345D01*
X166109160Y-113395214D01*
X166098776Y-113417171D01*
X166086289Y-113438004D01*
X166071820Y-113457512D01*
X166055509Y-113475509D01*
X166037512Y-113491820D01*
X166018004Y-113506289D01*
X165997171Y-113518776D01*
X165975214Y-113529160D01*
X165952345Y-113537343D01*
X165928785Y-113543244D01*
X165904759Y-113546808D01*
X165880500Y-113548000D01*
X165335500Y-113548000D01*
X165311241Y-113546808D01*
X165287215Y-113543244D01*
X165263655Y-113537343D01*
X165240786Y-113529160D01*
X165218829Y-113518776D01*
X165197996Y-113506289D01*
X165178488Y-113491820D01*
X165160491Y-113475509D01*
X165144180Y-113457512D01*
X165129711Y-113438004D01*
X165117224Y-113417171D01*
X165106840Y-113395214D01*
X165098657Y-113372345D01*
X165092756Y-113348785D01*
X165089192Y-113324759D01*
X165088000Y-113300500D01*
X165088000Y-112805500D01*
X165089192Y-112781241D01*
X165092756Y-112757215D01*
X165098657Y-112733655D01*
X165106840Y-112710786D01*
X165117224Y-112688829D01*
X165129711Y-112667996D01*
X165144180Y-112648488D01*
X165160491Y-112630491D01*
X165178488Y-112614180D01*
X165197996Y-112599711D01*
X165218829Y-112587224D01*
X165240786Y-112576840D01*
X165263655Y-112568657D01*
X165287215Y-112562756D01*
X165311241Y-112559192D01*
X165335500Y-112558000D01*
X165880500Y-112558000D01*
X165904759Y-112559192D01*
X165904759Y-112559192D01*
G37*
D18*
X165608000Y-113053000D03*
G04 #@! TD*
D17*
G04 #@! TO.C,C6*
G36*
X165904759Y-107987192D02*
X165928785Y-107990756D01*
X165952345Y-107996657D01*
X165975214Y-108004840D01*
X165997171Y-108015224D01*
X166018004Y-108027711D01*
X166037512Y-108042180D01*
X166055509Y-108058491D01*
X166071820Y-108076488D01*
X166086289Y-108095996D01*
X166098776Y-108116829D01*
X166109160Y-108138786D01*
X166117343Y-108161655D01*
X166123244Y-108185215D01*
X166126808Y-108209241D01*
X166128000Y-108233500D01*
X166128000Y-108728500D01*
X166126808Y-108752759D01*
X166123244Y-108776785D01*
X166117343Y-108800345D01*
X166109160Y-108823214D01*
X166098776Y-108845171D01*
X166086289Y-108866004D01*
X166071820Y-108885512D01*
X166055509Y-108903509D01*
X166037512Y-108919820D01*
X166018004Y-108934289D01*
X165997171Y-108946776D01*
X165975214Y-108957160D01*
X165952345Y-108965343D01*
X165928785Y-108971244D01*
X165904759Y-108974808D01*
X165880500Y-108976000D01*
X165335500Y-108976000D01*
X165311241Y-108974808D01*
X165287215Y-108971244D01*
X165263655Y-108965343D01*
X165240786Y-108957160D01*
X165218829Y-108946776D01*
X165197996Y-108934289D01*
X165178488Y-108919820D01*
X165160491Y-108903509D01*
X165144180Y-108885512D01*
X165129711Y-108866004D01*
X165117224Y-108845171D01*
X165106840Y-108823214D01*
X165098657Y-108800345D01*
X165092756Y-108776785D01*
X165089192Y-108752759D01*
X165088000Y-108728500D01*
X165088000Y-108233500D01*
X165089192Y-108209241D01*
X165092756Y-108185215D01*
X165098657Y-108161655D01*
X165106840Y-108138786D01*
X165117224Y-108116829D01*
X165129711Y-108095996D01*
X165144180Y-108076488D01*
X165160491Y-108058491D01*
X165178488Y-108042180D01*
X165197996Y-108027711D01*
X165218829Y-108015224D01*
X165240786Y-108004840D01*
X165263655Y-107996657D01*
X165287215Y-107990756D01*
X165311241Y-107987192D01*
X165335500Y-107986000D01*
X165880500Y-107986000D01*
X165904759Y-107987192D01*
X165904759Y-107987192D01*
G37*
D18*
X165608000Y-108481000D03*
D17*
G36*
X165904759Y-108957192D02*
X165928785Y-108960756D01*
X165952345Y-108966657D01*
X165975214Y-108974840D01*
X165997171Y-108985224D01*
X166018004Y-108997711D01*
X166037512Y-109012180D01*
X166055509Y-109028491D01*
X166071820Y-109046488D01*
X166086289Y-109065996D01*
X166098776Y-109086829D01*
X166109160Y-109108786D01*
X166117343Y-109131655D01*
X166123244Y-109155215D01*
X166126808Y-109179241D01*
X166128000Y-109203500D01*
X166128000Y-109698500D01*
X166126808Y-109722759D01*
X166123244Y-109746785D01*
X166117343Y-109770345D01*
X166109160Y-109793214D01*
X166098776Y-109815171D01*
X166086289Y-109836004D01*
X166071820Y-109855512D01*
X166055509Y-109873509D01*
X166037512Y-109889820D01*
X166018004Y-109904289D01*
X165997171Y-109916776D01*
X165975214Y-109927160D01*
X165952345Y-109935343D01*
X165928785Y-109941244D01*
X165904759Y-109944808D01*
X165880500Y-109946000D01*
X165335500Y-109946000D01*
X165311241Y-109944808D01*
X165287215Y-109941244D01*
X165263655Y-109935343D01*
X165240786Y-109927160D01*
X165218829Y-109916776D01*
X165197996Y-109904289D01*
X165178488Y-109889820D01*
X165160491Y-109873509D01*
X165144180Y-109855512D01*
X165129711Y-109836004D01*
X165117224Y-109815171D01*
X165106840Y-109793214D01*
X165098657Y-109770345D01*
X165092756Y-109746785D01*
X165089192Y-109722759D01*
X165088000Y-109698500D01*
X165088000Y-109203500D01*
X165089192Y-109179241D01*
X165092756Y-109155215D01*
X165098657Y-109131655D01*
X165106840Y-109108786D01*
X165117224Y-109086829D01*
X165129711Y-109065996D01*
X165144180Y-109046488D01*
X165160491Y-109028491D01*
X165178488Y-109012180D01*
X165197996Y-108997711D01*
X165218829Y-108985224D01*
X165240786Y-108974840D01*
X165263655Y-108966657D01*
X165287215Y-108960756D01*
X165311241Y-108957192D01*
X165335500Y-108956000D01*
X165880500Y-108956000D01*
X165904759Y-108957192D01*
X165904759Y-108957192D01*
G37*
D18*
X165608000Y-109451000D03*
G04 #@! TD*
D17*
G04 #@! TO.C,C7*
G36*
X169158759Y-134101192D02*
X169182785Y-134104756D01*
X169206345Y-134110657D01*
X169229214Y-134118840D01*
X169251171Y-134129224D01*
X169272004Y-134141711D01*
X169291512Y-134156180D01*
X169309509Y-134172491D01*
X169325820Y-134190488D01*
X169340289Y-134209996D01*
X169352776Y-134230829D01*
X169363160Y-134252786D01*
X169371343Y-134275655D01*
X169377244Y-134299215D01*
X169380808Y-134323241D01*
X169382000Y-134347500D01*
X169382000Y-134892500D01*
X169380808Y-134916759D01*
X169377244Y-134940785D01*
X169371343Y-134964345D01*
X169363160Y-134987214D01*
X169352776Y-135009171D01*
X169340289Y-135030004D01*
X169325820Y-135049512D01*
X169309509Y-135067509D01*
X169291512Y-135083820D01*
X169272004Y-135098289D01*
X169251171Y-135110776D01*
X169229214Y-135121160D01*
X169206345Y-135129343D01*
X169182785Y-135135244D01*
X169158759Y-135138808D01*
X169134500Y-135140000D01*
X168639500Y-135140000D01*
X168615241Y-135138808D01*
X168591215Y-135135244D01*
X168567655Y-135129343D01*
X168544786Y-135121160D01*
X168522829Y-135110776D01*
X168501996Y-135098289D01*
X168482488Y-135083820D01*
X168464491Y-135067509D01*
X168448180Y-135049512D01*
X168433711Y-135030004D01*
X168421224Y-135009171D01*
X168410840Y-134987214D01*
X168402657Y-134964345D01*
X168396756Y-134940785D01*
X168393192Y-134916759D01*
X168392000Y-134892500D01*
X168392000Y-134347500D01*
X168393192Y-134323241D01*
X168396756Y-134299215D01*
X168402657Y-134275655D01*
X168410840Y-134252786D01*
X168421224Y-134230829D01*
X168433711Y-134209996D01*
X168448180Y-134190488D01*
X168464491Y-134172491D01*
X168482488Y-134156180D01*
X168501996Y-134141711D01*
X168522829Y-134129224D01*
X168544786Y-134118840D01*
X168567655Y-134110657D01*
X168591215Y-134104756D01*
X168615241Y-134101192D01*
X168639500Y-134100000D01*
X169134500Y-134100000D01*
X169158759Y-134101192D01*
X169158759Y-134101192D01*
G37*
D18*
X168887000Y-134620000D03*
D17*
G36*
X168188759Y-134101192D02*
X168212785Y-134104756D01*
X168236345Y-134110657D01*
X168259214Y-134118840D01*
X168281171Y-134129224D01*
X168302004Y-134141711D01*
X168321512Y-134156180D01*
X168339509Y-134172491D01*
X168355820Y-134190488D01*
X168370289Y-134209996D01*
X168382776Y-134230829D01*
X168393160Y-134252786D01*
X168401343Y-134275655D01*
X168407244Y-134299215D01*
X168410808Y-134323241D01*
X168412000Y-134347500D01*
X168412000Y-134892500D01*
X168410808Y-134916759D01*
X168407244Y-134940785D01*
X168401343Y-134964345D01*
X168393160Y-134987214D01*
X168382776Y-135009171D01*
X168370289Y-135030004D01*
X168355820Y-135049512D01*
X168339509Y-135067509D01*
X168321512Y-135083820D01*
X168302004Y-135098289D01*
X168281171Y-135110776D01*
X168259214Y-135121160D01*
X168236345Y-135129343D01*
X168212785Y-135135244D01*
X168188759Y-135138808D01*
X168164500Y-135140000D01*
X167669500Y-135140000D01*
X167645241Y-135138808D01*
X167621215Y-135135244D01*
X167597655Y-135129343D01*
X167574786Y-135121160D01*
X167552829Y-135110776D01*
X167531996Y-135098289D01*
X167512488Y-135083820D01*
X167494491Y-135067509D01*
X167478180Y-135049512D01*
X167463711Y-135030004D01*
X167451224Y-135009171D01*
X167440840Y-134987214D01*
X167432657Y-134964345D01*
X167426756Y-134940785D01*
X167423192Y-134916759D01*
X167422000Y-134892500D01*
X167422000Y-134347500D01*
X167423192Y-134323241D01*
X167426756Y-134299215D01*
X167432657Y-134275655D01*
X167440840Y-134252786D01*
X167451224Y-134230829D01*
X167463711Y-134209996D01*
X167478180Y-134190488D01*
X167494491Y-134172491D01*
X167512488Y-134156180D01*
X167531996Y-134141711D01*
X167552829Y-134129224D01*
X167574786Y-134118840D01*
X167597655Y-134110657D01*
X167621215Y-134104756D01*
X167645241Y-134101192D01*
X167669500Y-134100000D01*
X168164500Y-134100000D01*
X168188759Y-134101192D01*
X168188759Y-134101192D01*
G37*
D18*
X167917000Y-134620000D03*
G04 #@! TD*
D17*
G04 #@! TO.C,L1*
G36*
X165904759Y-111243192D02*
X165928785Y-111246756D01*
X165952345Y-111252657D01*
X165975214Y-111260840D01*
X165997171Y-111271224D01*
X166018004Y-111283711D01*
X166037512Y-111298180D01*
X166055509Y-111314491D01*
X166071820Y-111332488D01*
X166086289Y-111351996D01*
X166098776Y-111372829D01*
X166109160Y-111394786D01*
X166117343Y-111417655D01*
X166123244Y-111441215D01*
X166126808Y-111465241D01*
X166128000Y-111489500D01*
X166128000Y-111984500D01*
X166126808Y-112008759D01*
X166123244Y-112032785D01*
X166117343Y-112056345D01*
X166109160Y-112079214D01*
X166098776Y-112101171D01*
X166086289Y-112122004D01*
X166071820Y-112141512D01*
X166055509Y-112159509D01*
X166037512Y-112175820D01*
X166018004Y-112190289D01*
X165997171Y-112202776D01*
X165975214Y-112213160D01*
X165952345Y-112221343D01*
X165928785Y-112227244D01*
X165904759Y-112230808D01*
X165880500Y-112232000D01*
X165335500Y-112232000D01*
X165311241Y-112230808D01*
X165287215Y-112227244D01*
X165263655Y-112221343D01*
X165240786Y-112213160D01*
X165218829Y-112202776D01*
X165197996Y-112190289D01*
X165178488Y-112175820D01*
X165160491Y-112159509D01*
X165144180Y-112141512D01*
X165129711Y-112122004D01*
X165117224Y-112101171D01*
X165106840Y-112079214D01*
X165098657Y-112056345D01*
X165092756Y-112032785D01*
X165089192Y-112008759D01*
X165088000Y-111984500D01*
X165088000Y-111489500D01*
X165089192Y-111465241D01*
X165092756Y-111441215D01*
X165098657Y-111417655D01*
X165106840Y-111394786D01*
X165117224Y-111372829D01*
X165129711Y-111351996D01*
X165144180Y-111332488D01*
X165160491Y-111314491D01*
X165178488Y-111298180D01*
X165197996Y-111283711D01*
X165218829Y-111271224D01*
X165240786Y-111260840D01*
X165263655Y-111252657D01*
X165287215Y-111246756D01*
X165311241Y-111243192D01*
X165335500Y-111242000D01*
X165880500Y-111242000D01*
X165904759Y-111243192D01*
X165904759Y-111243192D01*
G37*
D18*
X165608000Y-111737000D03*
D17*
G36*
X165904759Y-110273192D02*
X165928785Y-110276756D01*
X165952345Y-110282657D01*
X165975214Y-110290840D01*
X165997171Y-110301224D01*
X166018004Y-110313711D01*
X166037512Y-110328180D01*
X166055509Y-110344491D01*
X166071820Y-110362488D01*
X166086289Y-110381996D01*
X166098776Y-110402829D01*
X166109160Y-110424786D01*
X166117343Y-110447655D01*
X166123244Y-110471215D01*
X166126808Y-110495241D01*
X166128000Y-110519500D01*
X166128000Y-111014500D01*
X166126808Y-111038759D01*
X166123244Y-111062785D01*
X166117343Y-111086345D01*
X166109160Y-111109214D01*
X166098776Y-111131171D01*
X166086289Y-111152004D01*
X166071820Y-111171512D01*
X166055509Y-111189509D01*
X166037512Y-111205820D01*
X166018004Y-111220289D01*
X165997171Y-111232776D01*
X165975214Y-111243160D01*
X165952345Y-111251343D01*
X165928785Y-111257244D01*
X165904759Y-111260808D01*
X165880500Y-111262000D01*
X165335500Y-111262000D01*
X165311241Y-111260808D01*
X165287215Y-111257244D01*
X165263655Y-111251343D01*
X165240786Y-111243160D01*
X165218829Y-111232776D01*
X165197996Y-111220289D01*
X165178488Y-111205820D01*
X165160491Y-111189509D01*
X165144180Y-111171512D01*
X165129711Y-111152004D01*
X165117224Y-111131171D01*
X165106840Y-111109214D01*
X165098657Y-111086345D01*
X165092756Y-111062785D01*
X165089192Y-111038759D01*
X165088000Y-111014500D01*
X165088000Y-110519500D01*
X165089192Y-110495241D01*
X165092756Y-110471215D01*
X165098657Y-110447655D01*
X165106840Y-110424786D01*
X165117224Y-110402829D01*
X165129711Y-110381996D01*
X165144180Y-110362488D01*
X165160491Y-110344491D01*
X165178488Y-110328180D01*
X165197996Y-110313711D01*
X165218829Y-110301224D01*
X165240786Y-110290840D01*
X165263655Y-110282657D01*
X165287215Y-110276756D01*
X165311241Y-110273192D01*
X165335500Y-110272000D01*
X165880500Y-110272000D01*
X165904759Y-110273192D01*
X165904759Y-110273192D01*
G37*
D18*
X165608000Y-110767000D03*
G04 #@! TD*
D19*
G04 #@! TO.C,Q1*
X173548000Y-108316000D03*
X173548000Y-109616000D03*
X175448000Y-108966000D03*
X173548000Y-108966000D03*
X175448000Y-109616000D03*
X175448000Y-108316000D03*
G04 #@! TD*
D17*
G04 #@! TO.C,R1*
G36*
X124043559Y-122366392D02*
X124067585Y-122369956D01*
X124091145Y-122375857D01*
X124114014Y-122384040D01*
X124135971Y-122394424D01*
X124156804Y-122406911D01*
X124176312Y-122421380D01*
X124194309Y-122437691D01*
X124210620Y-122455688D01*
X124225089Y-122475196D01*
X124237576Y-122496029D01*
X124247960Y-122517986D01*
X124256143Y-122540855D01*
X124262044Y-122564415D01*
X124265608Y-122588441D01*
X124266800Y-122612700D01*
X124266800Y-123157700D01*
X124265608Y-123181959D01*
X124262044Y-123205985D01*
X124256143Y-123229545D01*
X124247960Y-123252414D01*
X124237576Y-123274371D01*
X124225089Y-123295204D01*
X124210620Y-123314712D01*
X124194309Y-123332709D01*
X124176312Y-123349020D01*
X124156804Y-123363489D01*
X124135971Y-123375976D01*
X124114014Y-123386360D01*
X124091145Y-123394543D01*
X124067585Y-123400444D01*
X124043559Y-123404008D01*
X124019300Y-123405200D01*
X123524300Y-123405200D01*
X123500041Y-123404008D01*
X123476015Y-123400444D01*
X123452455Y-123394543D01*
X123429586Y-123386360D01*
X123407629Y-123375976D01*
X123386796Y-123363489D01*
X123367288Y-123349020D01*
X123349291Y-123332709D01*
X123332980Y-123314712D01*
X123318511Y-123295204D01*
X123306024Y-123274371D01*
X123295640Y-123252414D01*
X123287457Y-123229545D01*
X123281556Y-123205985D01*
X123277992Y-123181959D01*
X123276800Y-123157700D01*
X123276800Y-122612700D01*
X123277992Y-122588441D01*
X123281556Y-122564415D01*
X123287457Y-122540855D01*
X123295640Y-122517986D01*
X123306024Y-122496029D01*
X123318511Y-122475196D01*
X123332980Y-122455688D01*
X123349291Y-122437691D01*
X123367288Y-122421380D01*
X123386796Y-122406911D01*
X123407629Y-122394424D01*
X123429586Y-122384040D01*
X123452455Y-122375857D01*
X123476015Y-122369956D01*
X123500041Y-122366392D01*
X123524300Y-122365200D01*
X124019300Y-122365200D01*
X124043559Y-122366392D01*
X124043559Y-122366392D01*
G37*
D18*
X123771800Y-122885200D03*
D17*
G36*
X125013559Y-122366392D02*
X125037585Y-122369956D01*
X125061145Y-122375857D01*
X125084014Y-122384040D01*
X125105971Y-122394424D01*
X125126804Y-122406911D01*
X125146312Y-122421380D01*
X125164309Y-122437691D01*
X125180620Y-122455688D01*
X125195089Y-122475196D01*
X125207576Y-122496029D01*
X125217960Y-122517986D01*
X125226143Y-122540855D01*
X125232044Y-122564415D01*
X125235608Y-122588441D01*
X125236800Y-122612700D01*
X125236800Y-123157700D01*
X125235608Y-123181959D01*
X125232044Y-123205985D01*
X125226143Y-123229545D01*
X125217960Y-123252414D01*
X125207576Y-123274371D01*
X125195089Y-123295204D01*
X125180620Y-123314712D01*
X125164309Y-123332709D01*
X125146312Y-123349020D01*
X125126804Y-123363489D01*
X125105971Y-123375976D01*
X125084014Y-123386360D01*
X125061145Y-123394543D01*
X125037585Y-123400444D01*
X125013559Y-123404008D01*
X124989300Y-123405200D01*
X124494300Y-123405200D01*
X124470041Y-123404008D01*
X124446015Y-123400444D01*
X124422455Y-123394543D01*
X124399586Y-123386360D01*
X124377629Y-123375976D01*
X124356796Y-123363489D01*
X124337288Y-123349020D01*
X124319291Y-123332709D01*
X124302980Y-123314712D01*
X124288511Y-123295204D01*
X124276024Y-123274371D01*
X124265640Y-123252414D01*
X124257457Y-123229545D01*
X124251556Y-123205985D01*
X124247992Y-123181959D01*
X124246800Y-123157700D01*
X124246800Y-122612700D01*
X124247992Y-122588441D01*
X124251556Y-122564415D01*
X124257457Y-122540855D01*
X124265640Y-122517986D01*
X124276024Y-122496029D01*
X124288511Y-122475196D01*
X124302980Y-122455688D01*
X124319291Y-122437691D01*
X124337288Y-122421380D01*
X124356796Y-122406911D01*
X124377629Y-122394424D01*
X124399586Y-122384040D01*
X124422455Y-122375857D01*
X124446015Y-122369956D01*
X124470041Y-122366392D01*
X124494300Y-122365200D01*
X124989300Y-122365200D01*
X125013559Y-122366392D01*
X125013559Y-122366392D01*
G37*
D18*
X124741800Y-122885200D03*
G04 #@! TD*
D17*
G04 #@! TO.C,R2*
G36*
X123992759Y-124626992D02*
X124016785Y-124630556D01*
X124040345Y-124636457D01*
X124063214Y-124644640D01*
X124085171Y-124655024D01*
X124106004Y-124667511D01*
X124125512Y-124681980D01*
X124143509Y-124698291D01*
X124159820Y-124716288D01*
X124174289Y-124735796D01*
X124186776Y-124756629D01*
X124197160Y-124778586D01*
X124205343Y-124801455D01*
X124211244Y-124825015D01*
X124214808Y-124849041D01*
X124216000Y-124873300D01*
X124216000Y-125418300D01*
X124214808Y-125442559D01*
X124211244Y-125466585D01*
X124205343Y-125490145D01*
X124197160Y-125513014D01*
X124186776Y-125534971D01*
X124174289Y-125555804D01*
X124159820Y-125575312D01*
X124143509Y-125593309D01*
X124125512Y-125609620D01*
X124106004Y-125624089D01*
X124085171Y-125636576D01*
X124063214Y-125646960D01*
X124040345Y-125655143D01*
X124016785Y-125661044D01*
X123992759Y-125664608D01*
X123968500Y-125665800D01*
X123473500Y-125665800D01*
X123449241Y-125664608D01*
X123425215Y-125661044D01*
X123401655Y-125655143D01*
X123378786Y-125646960D01*
X123356829Y-125636576D01*
X123335996Y-125624089D01*
X123316488Y-125609620D01*
X123298491Y-125593309D01*
X123282180Y-125575312D01*
X123267711Y-125555804D01*
X123255224Y-125534971D01*
X123244840Y-125513014D01*
X123236657Y-125490145D01*
X123230756Y-125466585D01*
X123227192Y-125442559D01*
X123226000Y-125418300D01*
X123226000Y-124873300D01*
X123227192Y-124849041D01*
X123230756Y-124825015D01*
X123236657Y-124801455D01*
X123244840Y-124778586D01*
X123255224Y-124756629D01*
X123267711Y-124735796D01*
X123282180Y-124716288D01*
X123298491Y-124698291D01*
X123316488Y-124681980D01*
X123335996Y-124667511D01*
X123356829Y-124655024D01*
X123378786Y-124644640D01*
X123401655Y-124636457D01*
X123425215Y-124630556D01*
X123449241Y-124626992D01*
X123473500Y-124625800D01*
X123968500Y-124625800D01*
X123992759Y-124626992D01*
X123992759Y-124626992D01*
G37*
D18*
X123721000Y-125145800D03*
D17*
G36*
X124962759Y-124626992D02*
X124986785Y-124630556D01*
X125010345Y-124636457D01*
X125033214Y-124644640D01*
X125055171Y-124655024D01*
X125076004Y-124667511D01*
X125095512Y-124681980D01*
X125113509Y-124698291D01*
X125129820Y-124716288D01*
X125144289Y-124735796D01*
X125156776Y-124756629D01*
X125167160Y-124778586D01*
X125175343Y-124801455D01*
X125181244Y-124825015D01*
X125184808Y-124849041D01*
X125186000Y-124873300D01*
X125186000Y-125418300D01*
X125184808Y-125442559D01*
X125181244Y-125466585D01*
X125175343Y-125490145D01*
X125167160Y-125513014D01*
X125156776Y-125534971D01*
X125144289Y-125555804D01*
X125129820Y-125575312D01*
X125113509Y-125593309D01*
X125095512Y-125609620D01*
X125076004Y-125624089D01*
X125055171Y-125636576D01*
X125033214Y-125646960D01*
X125010345Y-125655143D01*
X124986785Y-125661044D01*
X124962759Y-125664608D01*
X124938500Y-125665800D01*
X124443500Y-125665800D01*
X124419241Y-125664608D01*
X124395215Y-125661044D01*
X124371655Y-125655143D01*
X124348786Y-125646960D01*
X124326829Y-125636576D01*
X124305996Y-125624089D01*
X124286488Y-125609620D01*
X124268491Y-125593309D01*
X124252180Y-125575312D01*
X124237711Y-125555804D01*
X124225224Y-125534971D01*
X124214840Y-125513014D01*
X124206657Y-125490145D01*
X124200756Y-125466585D01*
X124197192Y-125442559D01*
X124196000Y-125418300D01*
X124196000Y-124873300D01*
X124197192Y-124849041D01*
X124200756Y-124825015D01*
X124206657Y-124801455D01*
X124214840Y-124778586D01*
X124225224Y-124756629D01*
X124237711Y-124735796D01*
X124252180Y-124716288D01*
X124268491Y-124698291D01*
X124286488Y-124681980D01*
X124305996Y-124667511D01*
X124326829Y-124655024D01*
X124348786Y-124644640D01*
X124371655Y-124636457D01*
X124395215Y-124630556D01*
X124419241Y-124626992D01*
X124443500Y-124625800D01*
X124938500Y-124625800D01*
X124962759Y-124626992D01*
X124962759Y-124626992D01*
G37*
D18*
X124691000Y-125145800D03*
G04 #@! TD*
D17*
G04 #@! TO.C,R3*
G36*
X124993959Y-121237992D02*
X125017985Y-121241556D01*
X125041545Y-121247457D01*
X125064414Y-121255640D01*
X125086371Y-121266024D01*
X125107204Y-121278511D01*
X125126712Y-121292980D01*
X125144709Y-121309291D01*
X125161020Y-121327288D01*
X125175489Y-121346796D01*
X125187976Y-121367629D01*
X125198360Y-121389586D01*
X125206543Y-121412455D01*
X125212444Y-121436015D01*
X125216008Y-121460041D01*
X125217200Y-121484300D01*
X125217200Y-122029300D01*
X125216008Y-122053559D01*
X125212444Y-122077585D01*
X125206543Y-122101145D01*
X125198360Y-122124014D01*
X125187976Y-122145971D01*
X125175489Y-122166804D01*
X125161020Y-122186312D01*
X125144709Y-122204309D01*
X125126712Y-122220620D01*
X125107204Y-122235089D01*
X125086371Y-122247576D01*
X125064414Y-122257960D01*
X125041545Y-122266143D01*
X125017985Y-122272044D01*
X124993959Y-122275608D01*
X124969700Y-122276800D01*
X124474700Y-122276800D01*
X124450441Y-122275608D01*
X124426415Y-122272044D01*
X124402855Y-122266143D01*
X124379986Y-122257960D01*
X124358029Y-122247576D01*
X124337196Y-122235089D01*
X124317688Y-122220620D01*
X124299691Y-122204309D01*
X124283380Y-122186312D01*
X124268911Y-122166804D01*
X124256424Y-122145971D01*
X124246040Y-122124014D01*
X124237857Y-122101145D01*
X124231956Y-122077585D01*
X124228392Y-122053559D01*
X124227200Y-122029300D01*
X124227200Y-121484300D01*
X124228392Y-121460041D01*
X124231956Y-121436015D01*
X124237857Y-121412455D01*
X124246040Y-121389586D01*
X124256424Y-121367629D01*
X124268911Y-121346796D01*
X124283380Y-121327288D01*
X124299691Y-121309291D01*
X124317688Y-121292980D01*
X124337196Y-121278511D01*
X124358029Y-121266024D01*
X124379986Y-121255640D01*
X124402855Y-121247457D01*
X124426415Y-121241556D01*
X124450441Y-121237992D01*
X124474700Y-121236800D01*
X124969700Y-121236800D01*
X124993959Y-121237992D01*
X124993959Y-121237992D01*
G37*
D18*
X124722200Y-121756800D03*
D17*
G36*
X124023959Y-121237992D02*
X124047985Y-121241556D01*
X124071545Y-121247457D01*
X124094414Y-121255640D01*
X124116371Y-121266024D01*
X124137204Y-121278511D01*
X124156712Y-121292980D01*
X124174709Y-121309291D01*
X124191020Y-121327288D01*
X124205489Y-121346796D01*
X124217976Y-121367629D01*
X124228360Y-121389586D01*
X124236543Y-121412455D01*
X124242444Y-121436015D01*
X124246008Y-121460041D01*
X124247200Y-121484300D01*
X124247200Y-122029300D01*
X124246008Y-122053559D01*
X124242444Y-122077585D01*
X124236543Y-122101145D01*
X124228360Y-122124014D01*
X124217976Y-122145971D01*
X124205489Y-122166804D01*
X124191020Y-122186312D01*
X124174709Y-122204309D01*
X124156712Y-122220620D01*
X124137204Y-122235089D01*
X124116371Y-122247576D01*
X124094414Y-122257960D01*
X124071545Y-122266143D01*
X124047985Y-122272044D01*
X124023959Y-122275608D01*
X123999700Y-122276800D01*
X123504700Y-122276800D01*
X123480441Y-122275608D01*
X123456415Y-122272044D01*
X123432855Y-122266143D01*
X123409986Y-122257960D01*
X123388029Y-122247576D01*
X123367196Y-122235089D01*
X123347688Y-122220620D01*
X123329691Y-122204309D01*
X123313380Y-122186312D01*
X123298911Y-122166804D01*
X123286424Y-122145971D01*
X123276040Y-122124014D01*
X123267857Y-122101145D01*
X123261956Y-122077585D01*
X123258392Y-122053559D01*
X123257200Y-122029300D01*
X123257200Y-121484300D01*
X123258392Y-121460041D01*
X123261956Y-121436015D01*
X123267857Y-121412455D01*
X123276040Y-121389586D01*
X123286424Y-121367629D01*
X123298911Y-121346796D01*
X123313380Y-121327288D01*
X123329691Y-121309291D01*
X123347688Y-121292980D01*
X123367196Y-121278511D01*
X123388029Y-121266024D01*
X123409986Y-121255640D01*
X123432855Y-121247457D01*
X123456415Y-121241556D01*
X123480441Y-121237992D01*
X123504700Y-121236800D01*
X123999700Y-121236800D01*
X124023959Y-121237992D01*
X124023959Y-121237992D01*
G37*
D18*
X123752200Y-121756800D03*
G04 #@! TD*
D17*
G04 #@! TO.C,R4*
G36*
X124988159Y-123509392D02*
X125012185Y-123512956D01*
X125035745Y-123518857D01*
X125058614Y-123527040D01*
X125080571Y-123537424D01*
X125101404Y-123549911D01*
X125120912Y-123564380D01*
X125138909Y-123580691D01*
X125155220Y-123598688D01*
X125169689Y-123618196D01*
X125182176Y-123639029D01*
X125192560Y-123660986D01*
X125200743Y-123683855D01*
X125206644Y-123707415D01*
X125210208Y-123731441D01*
X125211400Y-123755700D01*
X125211400Y-124300700D01*
X125210208Y-124324959D01*
X125206644Y-124348985D01*
X125200743Y-124372545D01*
X125192560Y-124395414D01*
X125182176Y-124417371D01*
X125169689Y-124438204D01*
X125155220Y-124457712D01*
X125138909Y-124475709D01*
X125120912Y-124492020D01*
X125101404Y-124506489D01*
X125080571Y-124518976D01*
X125058614Y-124529360D01*
X125035745Y-124537543D01*
X125012185Y-124543444D01*
X124988159Y-124547008D01*
X124963900Y-124548200D01*
X124468900Y-124548200D01*
X124444641Y-124547008D01*
X124420615Y-124543444D01*
X124397055Y-124537543D01*
X124374186Y-124529360D01*
X124352229Y-124518976D01*
X124331396Y-124506489D01*
X124311888Y-124492020D01*
X124293891Y-124475709D01*
X124277580Y-124457712D01*
X124263111Y-124438204D01*
X124250624Y-124417371D01*
X124240240Y-124395414D01*
X124232057Y-124372545D01*
X124226156Y-124348985D01*
X124222592Y-124324959D01*
X124221400Y-124300700D01*
X124221400Y-123755700D01*
X124222592Y-123731441D01*
X124226156Y-123707415D01*
X124232057Y-123683855D01*
X124240240Y-123660986D01*
X124250624Y-123639029D01*
X124263111Y-123618196D01*
X124277580Y-123598688D01*
X124293891Y-123580691D01*
X124311888Y-123564380D01*
X124331396Y-123549911D01*
X124352229Y-123537424D01*
X124374186Y-123527040D01*
X124397055Y-123518857D01*
X124420615Y-123512956D01*
X124444641Y-123509392D01*
X124468900Y-123508200D01*
X124963900Y-123508200D01*
X124988159Y-123509392D01*
X124988159Y-123509392D01*
G37*
D18*
X124716400Y-124028200D03*
D17*
G36*
X124018159Y-123509392D02*
X124042185Y-123512956D01*
X124065745Y-123518857D01*
X124088614Y-123527040D01*
X124110571Y-123537424D01*
X124131404Y-123549911D01*
X124150912Y-123564380D01*
X124168909Y-123580691D01*
X124185220Y-123598688D01*
X124199689Y-123618196D01*
X124212176Y-123639029D01*
X124222560Y-123660986D01*
X124230743Y-123683855D01*
X124236644Y-123707415D01*
X124240208Y-123731441D01*
X124241400Y-123755700D01*
X124241400Y-124300700D01*
X124240208Y-124324959D01*
X124236644Y-124348985D01*
X124230743Y-124372545D01*
X124222560Y-124395414D01*
X124212176Y-124417371D01*
X124199689Y-124438204D01*
X124185220Y-124457712D01*
X124168909Y-124475709D01*
X124150912Y-124492020D01*
X124131404Y-124506489D01*
X124110571Y-124518976D01*
X124088614Y-124529360D01*
X124065745Y-124537543D01*
X124042185Y-124543444D01*
X124018159Y-124547008D01*
X123993900Y-124548200D01*
X123498900Y-124548200D01*
X123474641Y-124547008D01*
X123450615Y-124543444D01*
X123427055Y-124537543D01*
X123404186Y-124529360D01*
X123382229Y-124518976D01*
X123361396Y-124506489D01*
X123341888Y-124492020D01*
X123323891Y-124475709D01*
X123307580Y-124457712D01*
X123293111Y-124438204D01*
X123280624Y-124417371D01*
X123270240Y-124395414D01*
X123262057Y-124372545D01*
X123256156Y-124348985D01*
X123252592Y-124324959D01*
X123251400Y-124300700D01*
X123251400Y-123755700D01*
X123252592Y-123731441D01*
X123256156Y-123707415D01*
X123262057Y-123683855D01*
X123270240Y-123660986D01*
X123280624Y-123639029D01*
X123293111Y-123618196D01*
X123307580Y-123598688D01*
X123323891Y-123580691D01*
X123341888Y-123564380D01*
X123361396Y-123549911D01*
X123382229Y-123537424D01*
X123404186Y-123527040D01*
X123427055Y-123518857D01*
X123450615Y-123512956D01*
X123474641Y-123509392D01*
X123498900Y-123508200D01*
X123993900Y-123508200D01*
X124018159Y-123509392D01*
X124018159Y-123509392D01*
G37*
D18*
X123746400Y-124028200D03*
G04 #@! TD*
D17*
G04 #@! TO.C,R5*
G36*
X124023959Y-120156592D02*
X124047985Y-120160156D01*
X124071545Y-120166057D01*
X124094414Y-120174240D01*
X124116371Y-120184624D01*
X124137204Y-120197111D01*
X124156712Y-120211580D01*
X124174709Y-120227891D01*
X124191020Y-120245888D01*
X124205489Y-120265396D01*
X124217976Y-120286229D01*
X124228360Y-120308186D01*
X124236543Y-120331055D01*
X124242444Y-120354615D01*
X124246008Y-120378641D01*
X124247200Y-120402900D01*
X124247200Y-120947900D01*
X124246008Y-120972159D01*
X124242444Y-120996185D01*
X124236543Y-121019745D01*
X124228360Y-121042614D01*
X124217976Y-121064571D01*
X124205489Y-121085404D01*
X124191020Y-121104912D01*
X124174709Y-121122909D01*
X124156712Y-121139220D01*
X124137204Y-121153689D01*
X124116371Y-121166176D01*
X124094414Y-121176560D01*
X124071545Y-121184743D01*
X124047985Y-121190644D01*
X124023959Y-121194208D01*
X123999700Y-121195400D01*
X123504700Y-121195400D01*
X123480441Y-121194208D01*
X123456415Y-121190644D01*
X123432855Y-121184743D01*
X123409986Y-121176560D01*
X123388029Y-121166176D01*
X123367196Y-121153689D01*
X123347688Y-121139220D01*
X123329691Y-121122909D01*
X123313380Y-121104912D01*
X123298911Y-121085404D01*
X123286424Y-121064571D01*
X123276040Y-121042614D01*
X123267857Y-121019745D01*
X123261956Y-120996185D01*
X123258392Y-120972159D01*
X123257200Y-120947900D01*
X123257200Y-120402900D01*
X123258392Y-120378641D01*
X123261956Y-120354615D01*
X123267857Y-120331055D01*
X123276040Y-120308186D01*
X123286424Y-120286229D01*
X123298911Y-120265396D01*
X123313380Y-120245888D01*
X123329691Y-120227891D01*
X123347688Y-120211580D01*
X123367196Y-120197111D01*
X123388029Y-120184624D01*
X123409986Y-120174240D01*
X123432855Y-120166057D01*
X123456415Y-120160156D01*
X123480441Y-120156592D01*
X123504700Y-120155400D01*
X123999700Y-120155400D01*
X124023959Y-120156592D01*
X124023959Y-120156592D01*
G37*
D18*
X123752200Y-120675400D03*
D17*
G36*
X124993959Y-120156592D02*
X125017985Y-120160156D01*
X125041545Y-120166057D01*
X125064414Y-120174240D01*
X125086371Y-120184624D01*
X125107204Y-120197111D01*
X125126712Y-120211580D01*
X125144709Y-120227891D01*
X125161020Y-120245888D01*
X125175489Y-120265396D01*
X125187976Y-120286229D01*
X125198360Y-120308186D01*
X125206543Y-120331055D01*
X125212444Y-120354615D01*
X125216008Y-120378641D01*
X125217200Y-120402900D01*
X125217200Y-120947900D01*
X125216008Y-120972159D01*
X125212444Y-120996185D01*
X125206543Y-121019745D01*
X125198360Y-121042614D01*
X125187976Y-121064571D01*
X125175489Y-121085404D01*
X125161020Y-121104912D01*
X125144709Y-121122909D01*
X125126712Y-121139220D01*
X125107204Y-121153689D01*
X125086371Y-121166176D01*
X125064414Y-121176560D01*
X125041545Y-121184743D01*
X125017985Y-121190644D01*
X124993959Y-121194208D01*
X124969700Y-121195400D01*
X124474700Y-121195400D01*
X124450441Y-121194208D01*
X124426415Y-121190644D01*
X124402855Y-121184743D01*
X124379986Y-121176560D01*
X124358029Y-121166176D01*
X124337196Y-121153689D01*
X124317688Y-121139220D01*
X124299691Y-121122909D01*
X124283380Y-121104912D01*
X124268911Y-121085404D01*
X124256424Y-121064571D01*
X124246040Y-121042614D01*
X124237857Y-121019745D01*
X124231956Y-120996185D01*
X124228392Y-120972159D01*
X124227200Y-120947900D01*
X124227200Y-120402900D01*
X124228392Y-120378641D01*
X124231956Y-120354615D01*
X124237857Y-120331055D01*
X124246040Y-120308186D01*
X124256424Y-120286229D01*
X124268911Y-120265396D01*
X124283380Y-120245888D01*
X124299691Y-120227891D01*
X124317688Y-120211580D01*
X124337196Y-120197111D01*
X124358029Y-120184624D01*
X124379986Y-120174240D01*
X124402855Y-120166057D01*
X124426415Y-120160156D01*
X124450441Y-120156592D01*
X124474700Y-120155400D01*
X124969700Y-120155400D01*
X124993959Y-120156592D01*
X124993959Y-120156592D01*
G37*
D18*
X124722200Y-120675400D03*
G04 #@! TD*
D17*
G04 #@! TO.C,R10*
G36*
X147439286Y-116189971D02*
X147463312Y-116193535D01*
X147486872Y-116199436D01*
X147509741Y-116207619D01*
X147531698Y-116218003D01*
X147552531Y-116230490D01*
X147572039Y-116244959D01*
X147590036Y-116261270D01*
X147606347Y-116279267D01*
X147620816Y-116298775D01*
X147633303Y-116319608D01*
X147643687Y-116341565D01*
X147651870Y-116364434D01*
X147657771Y-116387994D01*
X147661335Y-116412020D01*
X147662527Y-116436279D01*
X147662527Y-116931279D01*
X147661335Y-116955538D01*
X147657771Y-116979564D01*
X147651870Y-117003124D01*
X147643687Y-117025993D01*
X147633303Y-117047950D01*
X147620816Y-117068783D01*
X147606347Y-117088291D01*
X147590036Y-117106288D01*
X147572039Y-117122599D01*
X147552531Y-117137068D01*
X147531698Y-117149555D01*
X147509741Y-117159939D01*
X147486872Y-117168122D01*
X147463312Y-117174023D01*
X147439286Y-117177587D01*
X147415027Y-117178779D01*
X146870027Y-117178779D01*
X146845768Y-117177587D01*
X146821742Y-117174023D01*
X146798182Y-117168122D01*
X146775313Y-117159939D01*
X146753356Y-117149555D01*
X146732523Y-117137068D01*
X146713015Y-117122599D01*
X146695018Y-117106288D01*
X146678707Y-117088291D01*
X146664238Y-117068783D01*
X146651751Y-117047950D01*
X146641367Y-117025993D01*
X146633184Y-117003124D01*
X146627283Y-116979564D01*
X146623719Y-116955538D01*
X146622527Y-116931279D01*
X146622527Y-116436279D01*
X146623719Y-116412020D01*
X146627283Y-116387994D01*
X146633184Y-116364434D01*
X146641367Y-116341565D01*
X146651751Y-116319608D01*
X146664238Y-116298775D01*
X146678707Y-116279267D01*
X146695018Y-116261270D01*
X146713015Y-116244959D01*
X146732523Y-116230490D01*
X146753356Y-116218003D01*
X146775313Y-116207619D01*
X146798182Y-116199436D01*
X146821742Y-116193535D01*
X146845768Y-116189971D01*
X146870027Y-116188779D01*
X147415027Y-116188779D01*
X147439286Y-116189971D01*
X147439286Y-116189971D01*
G37*
D18*
X147142527Y-116683779D03*
D17*
G36*
X147439286Y-117159971D02*
X147463312Y-117163535D01*
X147486872Y-117169436D01*
X147509741Y-117177619D01*
X147531698Y-117188003D01*
X147552531Y-117200490D01*
X147572039Y-117214959D01*
X147590036Y-117231270D01*
X147606347Y-117249267D01*
X147620816Y-117268775D01*
X147633303Y-117289608D01*
X147643687Y-117311565D01*
X147651870Y-117334434D01*
X147657771Y-117357994D01*
X147661335Y-117382020D01*
X147662527Y-117406279D01*
X147662527Y-117901279D01*
X147661335Y-117925538D01*
X147657771Y-117949564D01*
X147651870Y-117973124D01*
X147643687Y-117995993D01*
X147633303Y-118017950D01*
X147620816Y-118038783D01*
X147606347Y-118058291D01*
X147590036Y-118076288D01*
X147572039Y-118092599D01*
X147552531Y-118107068D01*
X147531698Y-118119555D01*
X147509741Y-118129939D01*
X147486872Y-118138122D01*
X147463312Y-118144023D01*
X147439286Y-118147587D01*
X147415027Y-118148779D01*
X146870027Y-118148779D01*
X146845768Y-118147587D01*
X146821742Y-118144023D01*
X146798182Y-118138122D01*
X146775313Y-118129939D01*
X146753356Y-118119555D01*
X146732523Y-118107068D01*
X146713015Y-118092599D01*
X146695018Y-118076288D01*
X146678707Y-118058291D01*
X146664238Y-118038783D01*
X146651751Y-118017950D01*
X146641367Y-117995993D01*
X146633184Y-117973124D01*
X146627283Y-117949564D01*
X146623719Y-117925538D01*
X146622527Y-117901279D01*
X146622527Y-117406279D01*
X146623719Y-117382020D01*
X146627283Y-117357994D01*
X146633184Y-117334434D01*
X146641367Y-117311565D01*
X146651751Y-117289608D01*
X146664238Y-117268775D01*
X146678707Y-117249267D01*
X146695018Y-117231270D01*
X146713015Y-117214959D01*
X146732523Y-117200490D01*
X146753356Y-117188003D01*
X146775313Y-117177619D01*
X146798182Y-117169436D01*
X146821742Y-117163535D01*
X146845768Y-117159971D01*
X146870027Y-117158779D01*
X147415027Y-117158779D01*
X147439286Y-117159971D01*
X147439286Y-117159971D01*
G37*
D18*
X147142527Y-117653779D03*
G04 #@! TD*
D17*
G04 #@! TO.C,R9*
G36*
X126964559Y-119089792D02*
X126988585Y-119093356D01*
X127012145Y-119099257D01*
X127035014Y-119107440D01*
X127056971Y-119117824D01*
X127077804Y-119130311D01*
X127097312Y-119144780D01*
X127115309Y-119161091D01*
X127131620Y-119179088D01*
X127146089Y-119198596D01*
X127158576Y-119219429D01*
X127168960Y-119241386D01*
X127177143Y-119264255D01*
X127183044Y-119287815D01*
X127186608Y-119311841D01*
X127187800Y-119336100D01*
X127187800Y-119881100D01*
X127186608Y-119905359D01*
X127183044Y-119929385D01*
X127177143Y-119952945D01*
X127168960Y-119975814D01*
X127158576Y-119997771D01*
X127146089Y-120018604D01*
X127131620Y-120038112D01*
X127115309Y-120056109D01*
X127097312Y-120072420D01*
X127077804Y-120086889D01*
X127056971Y-120099376D01*
X127035014Y-120109760D01*
X127012145Y-120117943D01*
X126988585Y-120123844D01*
X126964559Y-120127408D01*
X126940300Y-120128600D01*
X126445300Y-120128600D01*
X126421041Y-120127408D01*
X126397015Y-120123844D01*
X126373455Y-120117943D01*
X126350586Y-120109760D01*
X126328629Y-120099376D01*
X126307796Y-120086889D01*
X126288288Y-120072420D01*
X126270291Y-120056109D01*
X126253980Y-120038112D01*
X126239511Y-120018604D01*
X126227024Y-119997771D01*
X126216640Y-119975814D01*
X126208457Y-119952945D01*
X126202556Y-119929385D01*
X126198992Y-119905359D01*
X126197800Y-119881100D01*
X126197800Y-119336100D01*
X126198992Y-119311841D01*
X126202556Y-119287815D01*
X126208457Y-119264255D01*
X126216640Y-119241386D01*
X126227024Y-119219429D01*
X126239511Y-119198596D01*
X126253980Y-119179088D01*
X126270291Y-119161091D01*
X126288288Y-119144780D01*
X126307796Y-119130311D01*
X126328629Y-119117824D01*
X126350586Y-119107440D01*
X126373455Y-119099257D01*
X126397015Y-119093356D01*
X126421041Y-119089792D01*
X126445300Y-119088600D01*
X126940300Y-119088600D01*
X126964559Y-119089792D01*
X126964559Y-119089792D01*
G37*
D18*
X126692800Y-119608600D03*
D17*
G36*
X127934559Y-119089792D02*
X127958585Y-119093356D01*
X127982145Y-119099257D01*
X128005014Y-119107440D01*
X128026971Y-119117824D01*
X128047804Y-119130311D01*
X128067312Y-119144780D01*
X128085309Y-119161091D01*
X128101620Y-119179088D01*
X128116089Y-119198596D01*
X128128576Y-119219429D01*
X128138960Y-119241386D01*
X128147143Y-119264255D01*
X128153044Y-119287815D01*
X128156608Y-119311841D01*
X128157800Y-119336100D01*
X128157800Y-119881100D01*
X128156608Y-119905359D01*
X128153044Y-119929385D01*
X128147143Y-119952945D01*
X128138960Y-119975814D01*
X128128576Y-119997771D01*
X128116089Y-120018604D01*
X128101620Y-120038112D01*
X128085309Y-120056109D01*
X128067312Y-120072420D01*
X128047804Y-120086889D01*
X128026971Y-120099376D01*
X128005014Y-120109760D01*
X127982145Y-120117943D01*
X127958585Y-120123844D01*
X127934559Y-120127408D01*
X127910300Y-120128600D01*
X127415300Y-120128600D01*
X127391041Y-120127408D01*
X127367015Y-120123844D01*
X127343455Y-120117943D01*
X127320586Y-120109760D01*
X127298629Y-120099376D01*
X127277796Y-120086889D01*
X127258288Y-120072420D01*
X127240291Y-120056109D01*
X127223980Y-120038112D01*
X127209511Y-120018604D01*
X127197024Y-119997771D01*
X127186640Y-119975814D01*
X127178457Y-119952945D01*
X127172556Y-119929385D01*
X127168992Y-119905359D01*
X127167800Y-119881100D01*
X127167800Y-119336100D01*
X127168992Y-119311841D01*
X127172556Y-119287815D01*
X127178457Y-119264255D01*
X127186640Y-119241386D01*
X127197024Y-119219429D01*
X127209511Y-119198596D01*
X127223980Y-119179088D01*
X127240291Y-119161091D01*
X127258288Y-119144780D01*
X127277796Y-119130311D01*
X127298629Y-119117824D01*
X127320586Y-119107440D01*
X127343455Y-119099257D01*
X127367015Y-119093356D01*
X127391041Y-119089792D01*
X127415300Y-119088600D01*
X127910300Y-119088600D01*
X127934559Y-119089792D01*
X127934559Y-119089792D01*
G37*
D18*
X127662800Y-119608600D03*
G04 #@! TD*
D17*
G04 #@! TO.C,R8*
G36*
X123848759Y-127799192D02*
X123872785Y-127802756D01*
X123896345Y-127808657D01*
X123919214Y-127816840D01*
X123941171Y-127827224D01*
X123962004Y-127839711D01*
X123981512Y-127854180D01*
X123999509Y-127870491D01*
X124015820Y-127888488D01*
X124030289Y-127907996D01*
X124042776Y-127928829D01*
X124053160Y-127950786D01*
X124061343Y-127973655D01*
X124067244Y-127997215D01*
X124070808Y-128021241D01*
X124072000Y-128045500D01*
X124072000Y-128540500D01*
X124070808Y-128564759D01*
X124067244Y-128588785D01*
X124061343Y-128612345D01*
X124053160Y-128635214D01*
X124042776Y-128657171D01*
X124030289Y-128678004D01*
X124015820Y-128697512D01*
X123999509Y-128715509D01*
X123981512Y-128731820D01*
X123962004Y-128746289D01*
X123941171Y-128758776D01*
X123919214Y-128769160D01*
X123896345Y-128777343D01*
X123872785Y-128783244D01*
X123848759Y-128786808D01*
X123824500Y-128788000D01*
X123279500Y-128788000D01*
X123255241Y-128786808D01*
X123231215Y-128783244D01*
X123207655Y-128777343D01*
X123184786Y-128769160D01*
X123162829Y-128758776D01*
X123141996Y-128746289D01*
X123122488Y-128731820D01*
X123104491Y-128715509D01*
X123088180Y-128697512D01*
X123073711Y-128678004D01*
X123061224Y-128657171D01*
X123050840Y-128635214D01*
X123042657Y-128612345D01*
X123036756Y-128588785D01*
X123033192Y-128564759D01*
X123032000Y-128540500D01*
X123032000Y-128045500D01*
X123033192Y-128021241D01*
X123036756Y-127997215D01*
X123042657Y-127973655D01*
X123050840Y-127950786D01*
X123061224Y-127928829D01*
X123073711Y-127907996D01*
X123088180Y-127888488D01*
X123104491Y-127870491D01*
X123122488Y-127854180D01*
X123141996Y-127839711D01*
X123162829Y-127827224D01*
X123184786Y-127816840D01*
X123207655Y-127808657D01*
X123231215Y-127802756D01*
X123255241Y-127799192D01*
X123279500Y-127798000D01*
X123824500Y-127798000D01*
X123848759Y-127799192D01*
X123848759Y-127799192D01*
G37*
D18*
X123552000Y-128293000D03*
D17*
G36*
X123848759Y-126829192D02*
X123872785Y-126832756D01*
X123896345Y-126838657D01*
X123919214Y-126846840D01*
X123941171Y-126857224D01*
X123962004Y-126869711D01*
X123981512Y-126884180D01*
X123999509Y-126900491D01*
X124015820Y-126918488D01*
X124030289Y-126937996D01*
X124042776Y-126958829D01*
X124053160Y-126980786D01*
X124061343Y-127003655D01*
X124067244Y-127027215D01*
X124070808Y-127051241D01*
X124072000Y-127075500D01*
X124072000Y-127570500D01*
X124070808Y-127594759D01*
X124067244Y-127618785D01*
X124061343Y-127642345D01*
X124053160Y-127665214D01*
X124042776Y-127687171D01*
X124030289Y-127708004D01*
X124015820Y-127727512D01*
X123999509Y-127745509D01*
X123981512Y-127761820D01*
X123962004Y-127776289D01*
X123941171Y-127788776D01*
X123919214Y-127799160D01*
X123896345Y-127807343D01*
X123872785Y-127813244D01*
X123848759Y-127816808D01*
X123824500Y-127818000D01*
X123279500Y-127818000D01*
X123255241Y-127816808D01*
X123231215Y-127813244D01*
X123207655Y-127807343D01*
X123184786Y-127799160D01*
X123162829Y-127788776D01*
X123141996Y-127776289D01*
X123122488Y-127761820D01*
X123104491Y-127745509D01*
X123088180Y-127727512D01*
X123073711Y-127708004D01*
X123061224Y-127687171D01*
X123050840Y-127665214D01*
X123042657Y-127642345D01*
X123036756Y-127618785D01*
X123033192Y-127594759D01*
X123032000Y-127570500D01*
X123032000Y-127075500D01*
X123033192Y-127051241D01*
X123036756Y-127027215D01*
X123042657Y-127003655D01*
X123050840Y-126980786D01*
X123061224Y-126958829D01*
X123073711Y-126937996D01*
X123088180Y-126918488D01*
X123104491Y-126900491D01*
X123122488Y-126884180D01*
X123141996Y-126869711D01*
X123162829Y-126857224D01*
X123184786Y-126846840D01*
X123207655Y-126838657D01*
X123231215Y-126832756D01*
X123255241Y-126829192D01*
X123279500Y-126828000D01*
X123824500Y-126828000D01*
X123848759Y-126829192D01*
X123848759Y-126829192D01*
G37*
D18*
X123552000Y-127323000D03*
G04 #@! TD*
D17*
G04 #@! TO.C,R15*
G36*
X175607559Y-111720992D02*
X175631585Y-111724556D01*
X175655145Y-111730457D01*
X175678014Y-111738640D01*
X175699971Y-111749024D01*
X175720804Y-111761511D01*
X175740312Y-111775980D01*
X175758309Y-111792291D01*
X175774620Y-111810288D01*
X175789089Y-111829796D01*
X175801576Y-111850629D01*
X175811960Y-111872586D01*
X175820143Y-111895455D01*
X175826044Y-111919015D01*
X175829608Y-111943041D01*
X175830800Y-111967300D01*
X175830800Y-112462300D01*
X175829608Y-112486559D01*
X175826044Y-112510585D01*
X175820143Y-112534145D01*
X175811960Y-112557014D01*
X175801576Y-112578971D01*
X175789089Y-112599804D01*
X175774620Y-112619312D01*
X175758309Y-112637309D01*
X175740312Y-112653620D01*
X175720804Y-112668089D01*
X175699971Y-112680576D01*
X175678014Y-112690960D01*
X175655145Y-112699143D01*
X175631585Y-112705044D01*
X175607559Y-112708608D01*
X175583300Y-112709800D01*
X175038300Y-112709800D01*
X175014041Y-112708608D01*
X174990015Y-112705044D01*
X174966455Y-112699143D01*
X174943586Y-112690960D01*
X174921629Y-112680576D01*
X174900796Y-112668089D01*
X174881288Y-112653620D01*
X174863291Y-112637309D01*
X174846980Y-112619312D01*
X174832511Y-112599804D01*
X174820024Y-112578971D01*
X174809640Y-112557014D01*
X174801457Y-112534145D01*
X174795556Y-112510585D01*
X174791992Y-112486559D01*
X174790800Y-112462300D01*
X174790800Y-111967300D01*
X174791992Y-111943041D01*
X174795556Y-111919015D01*
X174801457Y-111895455D01*
X174809640Y-111872586D01*
X174820024Y-111850629D01*
X174832511Y-111829796D01*
X174846980Y-111810288D01*
X174863291Y-111792291D01*
X174881288Y-111775980D01*
X174900796Y-111761511D01*
X174921629Y-111749024D01*
X174943586Y-111738640D01*
X174966455Y-111730457D01*
X174990015Y-111724556D01*
X175014041Y-111720992D01*
X175038300Y-111719800D01*
X175583300Y-111719800D01*
X175607559Y-111720992D01*
X175607559Y-111720992D01*
G37*
D18*
X175310800Y-112214800D03*
D17*
G36*
X175607559Y-112690992D02*
X175631585Y-112694556D01*
X175655145Y-112700457D01*
X175678014Y-112708640D01*
X175699971Y-112719024D01*
X175720804Y-112731511D01*
X175740312Y-112745980D01*
X175758309Y-112762291D01*
X175774620Y-112780288D01*
X175789089Y-112799796D01*
X175801576Y-112820629D01*
X175811960Y-112842586D01*
X175820143Y-112865455D01*
X175826044Y-112889015D01*
X175829608Y-112913041D01*
X175830800Y-112937300D01*
X175830800Y-113432300D01*
X175829608Y-113456559D01*
X175826044Y-113480585D01*
X175820143Y-113504145D01*
X175811960Y-113527014D01*
X175801576Y-113548971D01*
X175789089Y-113569804D01*
X175774620Y-113589312D01*
X175758309Y-113607309D01*
X175740312Y-113623620D01*
X175720804Y-113638089D01*
X175699971Y-113650576D01*
X175678014Y-113660960D01*
X175655145Y-113669143D01*
X175631585Y-113675044D01*
X175607559Y-113678608D01*
X175583300Y-113679800D01*
X175038300Y-113679800D01*
X175014041Y-113678608D01*
X174990015Y-113675044D01*
X174966455Y-113669143D01*
X174943586Y-113660960D01*
X174921629Y-113650576D01*
X174900796Y-113638089D01*
X174881288Y-113623620D01*
X174863291Y-113607309D01*
X174846980Y-113589312D01*
X174832511Y-113569804D01*
X174820024Y-113548971D01*
X174809640Y-113527014D01*
X174801457Y-113504145D01*
X174795556Y-113480585D01*
X174791992Y-113456559D01*
X174790800Y-113432300D01*
X174790800Y-112937300D01*
X174791992Y-112913041D01*
X174795556Y-112889015D01*
X174801457Y-112865455D01*
X174809640Y-112842586D01*
X174820024Y-112820629D01*
X174832511Y-112799796D01*
X174846980Y-112780288D01*
X174863291Y-112762291D01*
X174881288Y-112745980D01*
X174900796Y-112731511D01*
X174921629Y-112719024D01*
X174943586Y-112708640D01*
X174966455Y-112700457D01*
X174990015Y-112694556D01*
X175014041Y-112690992D01*
X175038300Y-112689800D01*
X175583300Y-112689800D01*
X175607559Y-112690992D01*
X175607559Y-112690992D01*
G37*
D18*
X175310800Y-113184800D03*
G04 #@! TD*
D17*
G04 #@! TO.C,R16*
G36*
X174134359Y-112665592D02*
X174158385Y-112669156D01*
X174181945Y-112675057D01*
X174204814Y-112683240D01*
X174226771Y-112693624D01*
X174247604Y-112706111D01*
X174267112Y-112720580D01*
X174285109Y-112736891D01*
X174301420Y-112754888D01*
X174315889Y-112774396D01*
X174328376Y-112795229D01*
X174338760Y-112817186D01*
X174346943Y-112840055D01*
X174352844Y-112863615D01*
X174356408Y-112887641D01*
X174357600Y-112911900D01*
X174357600Y-113406900D01*
X174356408Y-113431159D01*
X174352844Y-113455185D01*
X174346943Y-113478745D01*
X174338760Y-113501614D01*
X174328376Y-113523571D01*
X174315889Y-113544404D01*
X174301420Y-113563912D01*
X174285109Y-113581909D01*
X174267112Y-113598220D01*
X174247604Y-113612689D01*
X174226771Y-113625176D01*
X174204814Y-113635560D01*
X174181945Y-113643743D01*
X174158385Y-113649644D01*
X174134359Y-113653208D01*
X174110100Y-113654400D01*
X173565100Y-113654400D01*
X173540841Y-113653208D01*
X173516815Y-113649644D01*
X173493255Y-113643743D01*
X173470386Y-113635560D01*
X173448429Y-113625176D01*
X173427596Y-113612689D01*
X173408088Y-113598220D01*
X173390091Y-113581909D01*
X173373780Y-113563912D01*
X173359311Y-113544404D01*
X173346824Y-113523571D01*
X173336440Y-113501614D01*
X173328257Y-113478745D01*
X173322356Y-113455185D01*
X173318792Y-113431159D01*
X173317600Y-113406900D01*
X173317600Y-112911900D01*
X173318792Y-112887641D01*
X173322356Y-112863615D01*
X173328257Y-112840055D01*
X173336440Y-112817186D01*
X173346824Y-112795229D01*
X173359311Y-112774396D01*
X173373780Y-112754888D01*
X173390091Y-112736891D01*
X173408088Y-112720580D01*
X173427596Y-112706111D01*
X173448429Y-112693624D01*
X173470386Y-112683240D01*
X173493255Y-112675057D01*
X173516815Y-112669156D01*
X173540841Y-112665592D01*
X173565100Y-112664400D01*
X174110100Y-112664400D01*
X174134359Y-112665592D01*
X174134359Y-112665592D01*
G37*
D18*
X173837600Y-113159400D03*
D17*
G36*
X174134359Y-111695592D02*
X174158385Y-111699156D01*
X174181945Y-111705057D01*
X174204814Y-111713240D01*
X174226771Y-111723624D01*
X174247604Y-111736111D01*
X174267112Y-111750580D01*
X174285109Y-111766891D01*
X174301420Y-111784888D01*
X174315889Y-111804396D01*
X174328376Y-111825229D01*
X174338760Y-111847186D01*
X174346943Y-111870055D01*
X174352844Y-111893615D01*
X174356408Y-111917641D01*
X174357600Y-111941900D01*
X174357600Y-112436900D01*
X174356408Y-112461159D01*
X174352844Y-112485185D01*
X174346943Y-112508745D01*
X174338760Y-112531614D01*
X174328376Y-112553571D01*
X174315889Y-112574404D01*
X174301420Y-112593912D01*
X174285109Y-112611909D01*
X174267112Y-112628220D01*
X174247604Y-112642689D01*
X174226771Y-112655176D01*
X174204814Y-112665560D01*
X174181945Y-112673743D01*
X174158385Y-112679644D01*
X174134359Y-112683208D01*
X174110100Y-112684400D01*
X173565100Y-112684400D01*
X173540841Y-112683208D01*
X173516815Y-112679644D01*
X173493255Y-112673743D01*
X173470386Y-112665560D01*
X173448429Y-112655176D01*
X173427596Y-112642689D01*
X173408088Y-112628220D01*
X173390091Y-112611909D01*
X173373780Y-112593912D01*
X173359311Y-112574404D01*
X173346824Y-112553571D01*
X173336440Y-112531614D01*
X173328257Y-112508745D01*
X173322356Y-112485185D01*
X173318792Y-112461159D01*
X173317600Y-112436900D01*
X173317600Y-111941900D01*
X173318792Y-111917641D01*
X173322356Y-111893615D01*
X173328257Y-111870055D01*
X173336440Y-111847186D01*
X173346824Y-111825229D01*
X173359311Y-111804396D01*
X173373780Y-111784888D01*
X173390091Y-111766891D01*
X173408088Y-111750580D01*
X173427596Y-111736111D01*
X173448429Y-111723624D01*
X173470386Y-111713240D01*
X173493255Y-111705057D01*
X173516815Y-111699156D01*
X173540841Y-111695592D01*
X173565100Y-111694400D01*
X174110100Y-111694400D01*
X174134359Y-111695592D01*
X174134359Y-111695592D01*
G37*
D18*
X173837600Y-112189400D03*
G04 #@! TD*
D17*
G04 #@! TO.C,R17*
G36*
X171444759Y-106923192D02*
X171468785Y-106926756D01*
X171492345Y-106932657D01*
X171515214Y-106940840D01*
X171537171Y-106951224D01*
X171558004Y-106963711D01*
X171577512Y-106978180D01*
X171595509Y-106994491D01*
X171611820Y-107012488D01*
X171626289Y-107031996D01*
X171638776Y-107052829D01*
X171649160Y-107074786D01*
X171657343Y-107097655D01*
X171663244Y-107121215D01*
X171666808Y-107145241D01*
X171668000Y-107169500D01*
X171668000Y-107714500D01*
X171666808Y-107738759D01*
X171663244Y-107762785D01*
X171657343Y-107786345D01*
X171649160Y-107809214D01*
X171638776Y-107831171D01*
X171626289Y-107852004D01*
X171611820Y-107871512D01*
X171595509Y-107889509D01*
X171577512Y-107905820D01*
X171558004Y-107920289D01*
X171537171Y-107932776D01*
X171515214Y-107943160D01*
X171492345Y-107951343D01*
X171468785Y-107957244D01*
X171444759Y-107960808D01*
X171420500Y-107962000D01*
X170925500Y-107962000D01*
X170901241Y-107960808D01*
X170877215Y-107957244D01*
X170853655Y-107951343D01*
X170830786Y-107943160D01*
X170808829Y-107932776D01*
X170787996Y-107920289D01*
X170768488Y-107905820D01*
X170750491Y-107889509D01*
X170734180Y-107871512D01*
X170719711Y-107852004D01*
X170707224Y-107831171D01*
X170696840Y-107809214D01*
X170688657Y-107786345D01*
X170682756Y-107762785D01*
X170679192Y-107738759D01*
X170678000Y-107714500D01*
X170678000Y-107169500D01*
X170679192Y-107145241D01*
X170682756Y-107121215D01*
X170688657Y-107097655D01*
X170696840Y-107074786D01*
X170707224Y-107052829D01*
X170719711Y-107031996D01*
X170734180Y-107012488D01*
X170750491Y-106994491D01*
X170768488Y-106978180D01*
X170787996Y-106963711D01*
X170808829Y-106951224D01*
X170830786Y-106940840D01*
X170853655Y-106932657D01*
X170877215Y-106926756D01*
X170901241Y-106923192D01*
X170925500Y-106922000D01*
X171420500Y-106922000D01*
X171444759Y-106923192D01*
X171444759Y-106923192D01*
G37*
D18*
X171173000Y-107442000D03*
D17*
G36*
X170474759Y-106923192D02*
X170498785Y-106926756D01*
X170522345Y-106932657D01*
X170545214Y-106940840D01*
X170567171Y-106951224D01*
X170588004Y-106963711D01*
X170607512Y-106978180D01*
X170625509Y-106994491D01*
X170641820Y-107012488D01*
X170656289Y-107031996D01*
X170668776Y-107052829D01*
X170679160Y-107074786D01*
X170687343Y-107097655D01*
X170693244Y-107121215D01*
X170696808Y-107145241D01*
X170698000Y-107169500D01*
X170698000Y-107714500D01*
X170696808Y-107738759D01*
X170693244Y-107762785D01*
X170687343Y-107786345D01*
X170679160Y-107809214D01*
X170668776Y-107831171D01*
X170656289Y-107852004D01*
X170641820Y-107871512D01*
X170625509Y-107889509D01*
X170607512Y-107905820D01*
X170588004Y-107920289D01*
X170567171Y-107932776D01*
X170545214Y-107943160D01*
X170522345Y-107951343D01*
X170498785Y-107957244D01*
X170474759Y-107960808D01*
X170450500Y-107962000D01*
X169955500Y-107962000D01*
X169931241Y-107960808D01*
X169907215Y-107957244D01*
X169883655Y-107951343D01*
X169860786Y-107943160D01*
X169838829Y-107932776D01*
X169817996Y-107920289D01*
X169798488Y-107905820D01*
X169780491Y-107889509D01*
X169764180Y-107871512D01*
X169749711Y-107852004D01*
X169737224Y-107831171D01*
X169726840Y-107809214D01*
X169718657Y-107786345D01*
X169712756Y-107762785D01*
X169709192Y-107738759D01*
X169708000Y-107714500D01*
X169708000Y-107169500D01*
X169709192Y-107145241D01*
X169712756Y-107121215D01*
X169718657Y-107097655D01*
X169726840Y-107074786D01*
X169737224Y-107052829D01*
X169749711Y-107031996D01*
X169764180Y-107012488D01*
X169780491Y-106994491D01*
X169798488Y-106978180D01*
X169817996Y-106963711D01*
X169838829Y-106951224D01*
X169860786Y-106940840D01*
X169883655Y-106932657D01*
X169907215Y-106926756D01*
X169931241Y-106923192D01*
X169955500Y-106922000D01*
X170450500Y-106922000D01*
X170474759Y-106923192D01*
X170474759Y-106923192D01*
G37*
D18*
X170203000Y-107442000D03*
G04 #@! TD*
D17*
G04 #@! TO.C,R18*
G36*
X169158759Y-106923192D02*
X169182785Y-106926756D01*
X169206345Y-106932657D01*
X169229214Y-106940840D01*
X169251171Y-106951224D01*
X169272004Y-106963711D01*
X169291512Y-106978180D01*
X169309509Y-106994491D01*
X169325820Y-107012488D01*
X169340289Y-107031996D01*
X169352776Y-107052829D01*
X169363160Y-107074786D01*
X169371343Y-107097655D01*
X169377244Y-107121215D01*
X169380808Y-107145241D01*
X169382000Y-107169500D01*
X169382000Y-107714500D01*
X169380808Y-107738759D01*
X169377244Y-107762785D01*
X169371343Y-107786345D01*
X169363160Y-107809214D01*
X169352776Y-107831171D01*
X169340289Y-107852004D01*
X169325820Y-107871512D01*
X169309509Y-107889509D01*
X169291512Y-107905820D01*
X169272004Y-107920289D01*
X169251171Y-107932776D01*
X169229214Y-107943160D01*
X169206345Y-107951343D01*
X169182785Y-107957244D01*
X169158759Y-107960808D01*
X169134500Y-107962000D01*
X168639500Y-107962000D01*
X168615241Y-107960808D01*
X168591215Y-107957244D01*
X168567655Y-107951343D01*
X168544786Y-107943160D01*
X168522829Y-107932776D01*
X168501996Y-107920289D01*
X168482488Y-107905820D01*
X168464491Y-107889509D01*
X168448180Y-107871512D01*
X168433711Y-107852004D01*
X168421224Y-107831171D01*
X168410840Y-107809214D01*
X168402657Y-107786345D01*
X168396756Y-107762785D01*
X168393192Y-107738759D01*
X168392000Y-107714500D01*
X168392000Y-107169500D01*
X168393192Y-107145241D01*
X168396756Y-107121215D01*
X168402657Y-107097655D01*
X168410840Y-107074786D01*
X168421224Y-107052829D01*
X168433711Y-107031996D01*
X168448180Y-107012488D01*
X168464491Y-106994491D01*
X168482488Y-106978180D01*
X168501996Y-106963711D01*
X168522829Y-106951224D01*
X168544786Y-106940840D01*
X168567655Y-106932657D01*
X168591215Y-106926756D01*
X168615241Y-106923192D01*
X168639500Y-106922000D01*
X169134500Y-106922000D01*
X169158759Y-106923192D01*
X169158759Y-106923192D01*
G37*
D18*
X168887000Y-107442000D03*
D17*
G36*
X168188759Y-106923192D02*
X168212785Y-106926756D01*
X168236345Y-106932657D01*
X168259214Y-106940840D01*
X168281171Y-106951224D01*
X168302004Y-106963711D01*
X168321512Y-106978180D01*
X168339509Y-106994491D01*
X168355820Y-107012488D01*
X168370289Y-107031996D01*
X168382776Y-107052829D01*
X168393160Y-107074786D01*
X168401343Y-107097655D01*
X168407244Y-107121215D01*
X168410808Y-107145241D01*
X168412000Y-107169500D01*
X168412000Y-107714500D01*
X168410808Y-107738759D01*
X168407244Y-107762785D01*
X168401343Y-107786345D01*
X168393160Y-107809214D01*
X168382776Y-107831171D01*
X168370289Y-107852004D01*
X168355820Y-107871512D01*
X168339509Y-107889509D01*
X168321512Y-107905820D01*
X168302004Y-107920289D01*
X168281171Y-107932776D01*
X168259214Y-107943160D01*
X168236345Y-107951343D01*
X168212785Y-107957244D01*
X168188759Y-107960808D01*
X168164500Y-107962000D01*
X167669500Y-107962000D01*
X167645241Y-107960808D01*
X167621215Y-107957244D01*
X167597655Y-107951343D01*
X167574786Y-107943160D01*
X167552829Y-107932776D01*
X167531996Y-107920289D01*
X167512488Y-107905820D01*
X167494491Y-107889509D01*
X167478180Y-107871512D01*
X167463711Y-107852004D01*
X167451224Y-107831171D01*
X167440840Y-107809214D01*
X167432657Y-107786345D01*
X167426756Y-107762785D01*
X167423192Y-107738759D01*
X167422000Y-107714500D01*
X167422000Y-107169500D01*
X167423192Y-107145241D01*
X167426756Y-107121215D01*
X167432657Y-107097655D01*
X167440840Y-107074786D01*
X167451224Y-107052829D01*
X167463711Y-107031996D01*
X167478180Y-107012488D01*
X167494491Y-106994491D01*
X167512488Y-106978180D01*
X167531996Y-106963711D01*
X167552829Y-106951224D01*
X167574786Y-106940840D01*
X167597655Y-106932657D01*
X167621215Y-106926756D01*
X167645241Y-106923192D01*
X167669500Y-106922000D01*
X168164500Y-106922000D01*
X168188759Y-106923192D01*
X168188759Y-106923192D01*
G37*
D18*
X167917000Y-107442000D03*
G04 #@! TD*
D17*
G04 #@! TO.C,R21*
G36*
X171673359Y-134101192D02*
X171697385Y-134104756D01*
X171720945Y-134110657D01*
X171743814Y-134118840D01*
X171765771Y-134129224D01*
X171786604Y-134141711D01*
X171806112Y-134156180D01*
X171824109Y-134172491D01*
X171840420Y-134190488D01*
X171854889Y-134209996D01*
X171867376Y-134230829D01*
X171877760Y-134252786D01*
X171885943Y-134275655D01*
X171891844Y-134299215D01*
X171895408Y-134323241D01*
X171896600Y-134347500D01*
X171896600Y-134892500D01*
X171895408Y-134916759D01*
X171891844Y-134940785D01*
X171885943Y-134964345D01*
X171877760Y-134987214D01*
X171867376Y-135009171D01*
X171854889Y-135030004D01*
X171840420Y-135049512D01*
X171824109Y-135067509D01*
X171806112Y-135083820D01*
X171786604Y-135098289D01*
X171765771Y-135110776D01*
X171743814Y-135121160D01*
X171720945Y-135129343D01*
X171697385Y-135135244D01*
X171673359Y-135138808D01*
X171649100Y-135140000D01*
X171154100Y-135140000D01*
X171129841Y-135138808D01*
X171105815Y-135135244D01*
X171082255Y-135129343D01*
X171059386Y-135121160D01*
X171037429Y-135110776D01*
X171016596Y-135098289D01*
X170997088Y-135083820D01*
X170979091Y-135067509D01*
X170962780Y-135049512D01*
X170948311Y-135030004D01*
X170935824Y-135009171D01*
X170925440Y-134987214D01*
X170917257Y-134964345D01*
X170911356Y-134940785D01*
X170907792Y-134916759D01*
X170906600Y-134892500D01*
X170906600Y-134347500D01*
X170907792Y-134323241D01*
X170911356Y-134299215D01*
X170917257Y-134275655D01*
X170925440Y-134252786D01*
X170935824Y-134230829D01*
X170948311Y-134209996D01*
X170962780Y-134190488D01*
X170979091Y-134172491D01*
X170997088Y-134156180D01*
X171016596Y-134141711D01*
X171037429Y-134129224D01*
X171059386Y-134118840D01*
X171082255Y-134110657D01*
X171105815Y-134104756D01*
X171129841Y-134101192D01*
X171154100Y-134100000D01*
X171649100Y-134100000D01*
X171673359Y-134101192D01*
X171673359Y-134101192D01*
G37*
D18*
X171401600Y-134620000D03*
D17*
G36*
X170703359Y-134101192D02*
X170727385Y-134104756D01*
X170750945Y-134110657D01*
X170773814Y-134118840D01*
X170795771Y-134129224D01*
X170816604Y-134141711D01*
X170836112Y-134156180D01*
X170854109Y-134172491D01*
X170870420Y-134190488D01*
X170884889Y-134209996D01*
X170897376Y-134230829D01*
X170907760Y-134252786D01*
X170915943Y-134275655D01*
X170921844Y-134299215D01*
X170925408Y-134323241D01*
X170926600Y-134347500D01*
X170926600Y-134892500D01*
X170925408Y-134916759D01*
X170921844Y-134940785D01*
X170915943Y-134964345D01*
X170907760Y-134987214D01*
X170897376Y-135009171D01*
X170884889Y-135030004D01*
X170870420Y-135049512D01*
X170854109Y-135067509D01*
X170836112Y-135083820D01*
X170816604Y-135098289D01*
X170795771Y-135110776D01*
X170773814Y-135121160D01*
X170750945Y-135129343D01*
X170727385Y-135135244D01*
X170703359Y-135138808D01*
X170679100Y-135140000D01*
X170184100Y-135140000D01*
X170159841Y-135138808D01*
X170135815Y-135135244D01*
X170112255Y-135129343D01*
X170089386Y-135121160D01*
X170067429Y-135110776D01*
X170046596Y-135098289D01*
X170027088Y-135083820D01*
X170009091Y-135067509D01*
X169992780Y-135049512D01*
X169978311Y-135030004D01*
X169965824Y-135009171D01*
X169955440Y-134987214D01*
X169947257Y-134964345D01*
X169941356Y-134940785D01*
X169937792Y-134916759D01*
X169936600Y-134892500D01*
X169936600Y-134347500D01*
X169937792Y-134323241D01*
X169941356Y-134299215D01*
X169947257Y-134275655D01*
X169955440Y-134252786D01*
X169965824Y-134230829D01*
X169978311Y-134209996D01*
X169992780Y-134190488D01*
X170009091Y-134172491D01*
X170027088Y-134156180D01*
X170046596Y-134141711D01*
X170067429Y-134129224D01*
X170089386Y-134118840D01*
X170112255Y-134110657D01*
X170135815Y-134104756D01*
X170159841Y-134101192D01*
X170184100Y-134100000D01*
X170679100Y-134100000D01*
X170703359Y-134101192D01*
X170703359Y-134101192D01*
G37*
D18*
X170431600Y-134620000D03*
G04 #@! TD*
D17*
G04 #@! TO.C,R22*
G36*
X174007759Y-134101192D02*
X174031785Y-134104756D01*
X174055345Y-134110657D01*
X174078214Y-134118840D01*
X174100171Y-134129224D01*
X174121004Y-134141711D01*
X174140512Y-134156180D01*
X174158509Y-134172491D01*
X174174820Y-134190488D01*
X174189289Y-134209996D01*
X174201776Y-134230829D01*
X174212160Y-134252786D01*
X174220343Y-134275655D01*
X174226244Y-134299215D01*
X174229808Y-134323241D01*
X174231000Y-134347500D01*
X174231000Y-134892500D01*
X174229808Y-134916759D01*
X174226244Y-134940785D01*
X174220343Y-134964345D01*
X174212160Y-134987214D01*
X174201776Y-135009171D01*
X174189289Y-135030004D01*
X174174820Y-135049512D01*
X174158509Y-135067509D01*
X174140512Y-135083820D01*
X174121004Y-135098289D01*
X174100171Y-135110776D01*
X174078214Y-135121160D01*
X174055345Y-135129343D01*
X174031785Y-135135244D01*
X174007759Y-135138808D01*
X173983500Y-135140000D01*
X173488500Y-135140000D01*
X173464241Y-135138808D01*
X173440215Y-135135244D01*
X173416655Y-135129343D01*
X173393786Y-135121160D01*
X173371829Y-135110776D01*
X173350996Y-135098289D01*
X173331488Y-135083820D01*
X173313491Y-135067509D01*
X173297180Y-135049512D01*
X173282711Y-135030004D01*
X173270224Y-135009171D01*
X173259840Y-134987214D01*
X173251657Y-134964345D01*
X173245756Y-134940785D01*
X173242192Y-134916759D01*
X173241000Y-134892500D01*
X173241000Y-134347500D01*
X173242192Y-134323241D01*
X173245756Y-134299215D01*
X173251657Y-134275655D01*
X173259840Y-134252786D01*
X173270224Y-134230829D01*
X173282711Y-134209996D01*
X173297180Y-134190488D01*
X173313491Y-134172491D01*
X173331488Y-134156180D01*
X173350996Y-134141711D01*
X173371829Y-134129224D01*
X173393786Y-134118840D01*
X173416655Y-134110657D01*
X173440215Y-134104756D01*
X173464241Y-134101192D01*
X173488500Y-134100000D01*
X173983500Y-134100000D01*
X174007759Y-134101192D01*
X174007759Y-134101192D01*
G37*
D18*
X173736000Y-134620000D03*
D17*
G36*
X173037759Y-134101192D02*
X173061785Y-134104756D01*
X173085345Y-134110657D01*
X173108214Y-134118840D01*
X173130171Y-134129224D01*
X173151004Y-134141711D01*
X173170512Y-134156180D01*
X173188509Y-134172491D01*
X173204820Y-134190488D01*
X173219289Y-134209996D01*
X173231776Y-134230829D01*
X173242160Y-134252786D01*
X173250343Y-134275655D01*
X173256244Y-134299215D01*
X173259808Y-134323241D01*
X173261000Y-134347500D01*
X173261000Y-134892500D01*
X173259808Y-134916759D01*
X173256244Y-134940785D01*
X173250343Y-134964345D01*
X173242160Y-134987214D01*
X173231776Y-135009171D01*
X173219289Y-135030004D01*
X173204820Y-135049512D01*
X173188509Y-135067509D01*
X173170512Y-135083820D01*
X173151004Y-135098289D01*
X173130171Y-135110776D01*
X173108214Y-135121160D01*
X173085345Y-135129343D01*
X173061785Y-135135244D01*
X173037759Y-135138808D01*
X173013500Y-135140000D01*
X172518500Y-135140000D01*
X172494241Y-135138808D01*
X172470215Y-135135244D01*
X172446655Y-135129343D01*
X172423786Y-135121160D01*
X172401829Y-135110776D01*
X172380996Y-135098289D01*
X172361488Y-135083820D01*
X172343491Y-135067509D01*
X172327180Y-135049512D01*
X172312711Y-135030004D01*
X172300224Y-135009171D01*
X172289840Y-134987214D01*
X172281657Y-134964345D01*
X172275756Y-134940785D01*
X172272192Y-134916759D01*
X172271000Y-134892500D01*
X172271000Y-134347500D01*
X172272192Y-134323241D01*
X172275756Y-134299215D01*
X172281657Y-134275655D01*
X172289840Y-134252786D01*
X172300224Y-134230829D01*
X172312711Y-134209996D01*
X172327180Y-134190488D01*
X172343491Y-134172491D01*
X172361488Y-134156180D01*
X172380996Y-134141711D01*
X172401829Y-134129224D01*
X172423786Y-134118840D01*
X172446655Y-134110657D01*
X172470215Y-134104756D01*
X172494241Y-134101192D01*
X172518500Y-134100000D01*
X173013500Y-134100000D01*
X173037759Y-134101192D01*
X173037759Y-134101192D01*
G37*
D18*
X172766000Y-134620000D03*
G04 #@! TD*
D20*
G04 #@! TO.C,U1*
X122763597Y-118225160D03*
X122763597Y-117275160D03*
X122763597Y-116325160D03*
X120083597Y-116325160D03*
X120083597Y-117275160D03*
X120083597Y-118225160D03*
D21*
X120998597Y-116625160D03*
X120998597Y-117925160D03*
X121848597Y-116625160D03*
X121848597Y-117925160D03*
G04 #@! TD*
D22*
G04 #@! TO.C,U2*
X125202000Y-128573000D03*
X127302000Y-128573000D03*
X127302000Y-126923000D03*
X125202000Y-126923000D03*
G04 #@! TD*
D23*
G04 #@! TO.C,U3*
X130328000Y-120422000D03*
X131128000Y-120422000D03*
X131928000Y-120422000D03*
X132728000Y-120422000D03*
X133528000Y-120422000D03*
X134328000Y-120422000D03*
X135128000Y-120422000D03*
X135928000Y-120422000D03*
X136728000Y-120422000D03*
X137528000Y-120422000D03*
X138328000Y-120422000D03*
X139128000Y-120422000D03*
X139928000Y-120422000D03*
X130328000Y-121222000D03*
X131128000Y-121222000D03*
X131928000Y-121222000D03*
X132728000Y-121222000D03*
X133528000Y-121222000D03*
X134328000Y-121222000D03*
X135128000Y-121222000D03*
X135928000Y-121222000D03*
X136728000Y-121222000D03*
X137528000Y-121222000D03*
X138328000Y-121222000D03*
X139128000Y-121222000D03*
X139928000Y-121222000D03*
X130328000Y-122022000D03*
X131128000Y-122022000D03*
X131928000Y-122022000D03*
X132728000Y-122022000D03*
X133528000Y-122022000D03*
X134328000Y-122022000D03*
X135128000Y-122022000D03*
X135928000Y-122022000D03*
X136728000Y-122022000D03*
X137528000Y-122022000D03*
X138328000Y-122022000D03*
X139128000Y-122022000D03*
X139928000Y-122022000D03*
X130328000Y-122822000D03*
X131128000Y-122822000D03*
X131928000Y-122822000D03*
X132728000Y-122822000D03*
X133528000Y-122822000D03*
X134328000Y-122822000D03*
X135128000Y-122822000D03*
X135928000Y-122822000D03*
X136728000Y-122822000D03*
X137528000Y-122822000D03*
X138328000Y-122822000D03*
X139128000Y-122822000D03*
X139928000Y-122822000D03*
X130328000Y-123622000D03*
X131128000Y-123622000D03*
X131928000Y-123622000D03*
X132728000Y-123622000D03*
X133528000Y-123622000D03*
X134328000Y-123622000D03*
X135128000Y-123622000D03*
X135928000Y-123622000D03*
X136728000Y-123622000D03*
X137528000Y-123622000D03*
X138328000Y-123622000D03*
X139128000Y-123622000D03*
X139928000Y-123622000D03*
X130328000Y-124422000D03*
X131128000Y-124422000D03*
X131928000Y-124422000D03*
X132728000Y-124422000D03*
X133528000Y-124422000D03*
X134328000Y-124422000D03*
X135128000Y-124422000D03*
X135928000Y-124422000D03*
X136728000Y-124422000D03*
X137528000Y-124422000D03*
X138328000Y-124422000D03*
X139128000Y-124422000D03*
X139928000Y-124422000D03*
X130328000Y-125222000D03*
X131128000Y-125222000D03*
X131928000Y-125222000D03*
X132728000Y-125222000D03*
X133528000Y-125222000D03*
X134328000Y-125222000D03*
X135128000Y-125222000D03*
X135928000Y-125222000D03*
X136728000Y-125222000D03*
X137528000Y-125222000D03*
X138328000Y-125222000D03*
X139128000Y-125222000D03*
X139928000Y-125222000D03*
X130328000Y-126022000D03*
X131128000Y-126022000D03*
X131928000Y-126022000D03*
X132728000Y-126022000D03*
X133528000Y-126022000D03*
X134328000Y-126022000D03*
X135128000Y-126022000D03*
X135928000Y-126022000D03*
X136728000Y-126022000D03*
X137528000Y-126022000D03*
X138328000Y-126022000D03*
X139128000Y-126022000D03*
X139928000Y-126022000D03*
X130328000Y-126822000D03*
X131128000Y-126822000D03*
X131928000Y-126822000D03*
X132728000Y-126822000D03*
X133528000Y-126822000D03*
X134328000Y-126822000D03*
X135128000Y-126822000D03*
X135928000Y-126822000D03*
X136728000Y-126822000D03*
X137528000Y-126822000D03*
X138328000Y-126822000D03*
X139128000Y-126822000D03*
X139928000Y-126822000D03*
X130328000Y-127622000D03*
X131128000Y-127622000D03*
X131928000Y-127622000D03*
X132728000Y-127622000D03*
X133528000Y-127622000D03*
X134328000Y-127622000D03*
X135128000Y-127622000D03*
X135928000Y-127622000D03*
X136728000Y-127622000D03*
X137528000Y-127622000D03*
X138328000Y-127622000D03*
X139128000Y-127622000D03*
X139928000Y-127622000D03*
X130328000Y-128422000D03*
X131128000Y-128422000D03*
X131928000Y-128422000D03*
X132728000Y-128422000D03*
X133528000Y-128422000D03*
X134328000Y-128422000D03*
X135128000Y-128422000D03*
X135928000Y-128422000D03*
X136728000Y-128422000D03*
X137528000Y-128422000D03*
X138328000Y-128422000D03*
X139128000Y-128422000D03*
X139928000Y-128422000D03*
X130328000Y-129222000D03*
X131128000Y-129222000D03*
X131928000Y-129222000D03*
X132728000Y-129222000D03*
X133528000Y-129222000D03*
X134328000Y-129222000D03*
X135128000Y-129222000D03*
X135928000Y-129222000D03*
X136728000Y-129222000D03*
X137528000Y-129222000D03*
X138328000Y-129222000D03*
X139128000Y-129222000D03*
X139928000Y-129222000D03*
X130328000Y-130022000D03*
X131128000Y-130022000D03*
X131928000Y-130022000D03*
X132728000Y-130022000D03*
X133528000Y-130022000D03*
X134328000Y-130022000D03*
X135128000Y-130022000D03*
X135928000Y-130022000D03*
X136728000Y-130022000D03*
X137528000Y-130022000D03*
X138328000Y-130022000D03*
X139128000Y-130022000D03*
X139928000Y-130022000D03*
G04 #@! TD*
D24*
G04 #@! TO.C,U5*
X171383000Y-112506000D03*
X171383000Y-112006000D03*
X171383000Y-111506000D03*
X171383000Y-111006000D03*
X171383000Y-110506000D03*
D25*
X170418000Y-109541000D03*
X169918000Y-109541000D03*
X169418000Y-109541000D03*
X168918000Y-109541000D03*
X168418000Y-109541000D03*
D24*
X167453000Y-110506000D03*
X167453000Y-111006000D03*
X167453000Y-111506000D03*
X167453000Y-112006000D03*
X167453000Y-112506000D03*
D25*
X168418000Y-113471000D03*
X168918000Y-113471000D03*
X169418000Y-113471000D03*
X169918000Y-113471000D03*
X170418000Y-113471000D03*
D26*
X168793000Y-110881000D03*
X168793000Y-112131000D03*
X170043000Y-110881000D03*
X170043000Y-112131000D03*
G04 #@! TD*
D17*
G04 #@! TO.C,R6*
G36*
X148639286Y-117159971D02*
X148663312Y-117163535D01*
X148686872Y-117169436D01*
X148709741Y-117177619D01*
X148731698Y-117188003D01*
X148752531Y-117200490D01*
X148772039Y-117214959D01*
X148790036Y-117231270D01*
X148806347Y-117249267D01*
X148820816Y-117268775D01*
X148833303Y-117289608D01*
X148843687Y-117311565D01*
X148851870Y-117334434D01*
X148857771Y-117357994D01*
X148861335Y-117382020D01*
X148862527Y-117406279D01*
X148862527Y-117901279D01*
X148861335Y-117925538D01*
X148857771Y-117949564D01*
X148851870Y-117973124D01*
X148843687Y-117995993D01*
X148833303Y-118017950D01*
X148820816Y-118038783D01*
X148806347Y-118058291D01*
X148790036Y-118076288D01*
X148772039Y-118092599D01*
X148752531Y-118107068D01*
X148731698Y-118119555D01*
X148709741Y-118129939D01*
X148686872Y-118138122D01*
X148663312Y-118144023D01*
X148639286Y-118147587D01*
X148615027Y-118148779D01*
X148070027Y-118148779D01*
X148045768Y-118147587D01*
X148021742Y-118144023D01*
X147998182Y-118138122D01*
X147975313Y-118129939D01*
X147953356Y-118119555D01*
X147932523Y-118107068D01*
X147913015Y-118092599D01*
X147895018Y-118076288D01*
X147878707Y-118058291D01*
X147864238Y-118038783D01*
X147851751Y-118017950D01*
X147841367Y-117995993D01*
X147833184Y-117973124D01*
X147827283Y-117949564D01*
X147823719Y-117925538D01*
X147822527Y-117901279D01*
X147822527Y-117406279D01*
X147823719Y-117382020D01*
X147827283Y-117357994D01*
X147833184Y-117334434D01*
X147841367Y-117311565D01*
X147851751Y-117289608D01*
X147864238Y-117268775D01*
X147878707Y-117249267D01*
X147895018Y-117231270D01*
X147913015Y-117214959D01*
X147932523Y-117200490D01*
X147953356Y-117188003D01*
X147975313Y-117177619D01*
X147998182Y-117169436D01*
X148021742Y-117163535D01*
X148045768Y-117159971D01*
X148070027Y-117158779D01*
X148615027Y-117158779D01*
X148639286Y-117159971D01*
X148639286Y-117159971D01*
G37*
D18*
X148342527Y-117653779D03*
D17*
G36*
X148639286Y-116189971D02*
X148663312Y-116193535D01*
X148686872Y-116199436D01*
X148709741Y-116207619D01*
X148731698Y-116218003D01*
X148752531Y-116230490D01*
X148772039Y-116244959D01*
X148790036Y-116261270D01*
X148806347Y-116279267D01*
X148820816Y-116298775D01*
X148833303Y-116319608D01*
X148843687Y-116341565D01*
X148851870Y-116364434D01*
X148857771Y-116387994D01*
X148861335Y-116412020D01*
X148862527Y-116436279D01*
X148862527Y-116931279D01*
X148861335Y-116955538D01*
X148857771Y-116979564D01*
X148851870Y-117003124D01*
X148843687Y-117025993D01*
X148833303Y-117047950D01*
X148820816Y-117068783D01*
X148806347Y-117088291D01*
X148790036Y-117106288D01*
X148772039Y-117122599D01*
X148752531Y-117137068D01*
X148731698Y-117149555D01*
X148709741Y-117159939D01*
X148686872Y-117168122D01*
X148663312Y-117174023D01*
X148639286Y-117177587D01*
X148615027Y-117178779D01*
X148070027Y-117178779D01*
X148045768Y-117177587D01*
X148021742Y-117174023D01*
X147998182Y-117168122D01*
X147975313Y-117159939D01*
X147953356Y-117149555D01*
X147932523Y-117137068D01*
X147913015Y-117122599D01*
X147895018Y-117106288D01*
X147878707Y-117088291D01*
X147864238Y-117068783D01*
X147851751Y-117047950D01*
X147841367Y-117025993D01*
X147833184Y-117003124D01*
X147827283Y-116979564D01*
X147823719Y-116955538D01*
X147822527Y-116931279D01*
X147822527Y-116436279D01*
X147823719Y-116412020D01*
X147827283Y-116387994D01*
X147833184Y-116364434D01*
X147841367Y-116341565D01*
X147851751Y-116319608D01*
X147864238Y-116298775D01*
X147878707Y-116279267D01*
X147895018Y-116261270D01*
X147913015Y-116244959D01*
X147932523Y-116230490D01*
X147953356Y-116218003D01*
X147975313Y-116207619D01*
X147998182Y-116199436D01*
X148021742Y-116193535D01*
X148045768Y-116189971D01*
X148070027Y-116188779D01*
X148615027Y-116188779D01*
X148639286Y-116189971D01*
X148639286Y-116189971D01*
G37*
D18*
X148342527Y-116683779D03*
G04 #@! TD*
D17*
G04 #@! TO.C,R7*
G36*
X149839286Y-116189971D02*
X149863312Y-116193535D01*
X149886872Y-116199436D01*
X149909741Y-116207619D01*
X149931698Y-116218003D01*
X149952531Y-116230490D01*
X149972039Y-116244959D01*
X149990036Y-116261270D01*
X150006347Y-116279267D01*
X150020816Y-116298775D01*
X150033303Y-116319608D01*
X150043687Y-116341565D01*
X150051870Y-116364434D01*
X150057771Y-116387994D01*
X150061335Y-116412020D01*
X150062527Y-116436279D01*
X150062527Y-116931279D01*
X150061335Y-116955538D01*
X150057771Y-116979564D01*
X150051870Y-117003124D01*
X150043687Y-117025993D01*
X150033303Y-117047950D01*
X150020816Y-117068783D01*
X150006347Y-117088291D01*
X149990036Y-117106288D01*
X149972039Y-117122599D01*
X149952531Y-117137068D01*
X149931698Y-117149555D01*
X149909741Y-117159939D01*
X149886872Y-117168122D01*
X149863312Y-117174023D01*
X149839286Y-117177587D01*
X149815027Y-117178779D01*
X149270027Y-117178779D01*
X149245768Y-117177587D01*
X149221742Y-117174023D01*
X149198182Y-117168122D01*
X149175313Y-117159939D01*
X149153356Y-117149555D01*
X149132523Y-117137068D01*
X149113015Y-117122599D01*
X149095018Y-117106288D01*
X149078707Y-117088291D01*
X149064238Y-117068783D01*
X149051751Y-117047950D01*
X149041367Y-117025993D01*
X149033184Y-117003124D01*
X149027283Y-116979564D01*
X149023719Y-116955538D01*
X149022527Y-116931279D01*
X149022527Y-116436279D01*
X149023719Y-116412020D01*
X149027283Y-116387994D01*
X149033184Y-116364434D01*
X149041367Y-116341565D01*
X149051751Y-116319608D01*
X149064238Y-116298775D01*
X149078707Y-116279267D01*
X149095018Y-116261270D01*
X149113015Y-116244959D01*
X149132523Y-116230490D01*
X149153356Y-116218003D01*
X149175313Y-116207619D01*
X149198182Y-116199436D01*
X149221742Y-116193535D01*
X149245768Y-116189971D01*
X149270027Y-116188779D01*
X149815027Y-116188779D01*
X149839286Y-116189971D01*
X149839286Y-116189971D01*
G37*
D18*
X149542527Y-116683779D03*
D17*
G36*
X149839286Y-117159971D02*
X149863312Y-117163535D01*
X149886872Y-117169436D01*
X149909741Y-117177619D01*
X149931698Y-117188003D01*
X149952531Y-117200490D01*
X149972039Y-117214959D01*
X149990036Y-117231270D01*
X150006347Y-117249267D01*
X150020816Y-117268775D01*
X150033303Y-117289608D01*
X150043687Y-117311565D01*
X150051870Y-117334434D01*
X150057771Y-117357994D01*
X150061335Y-117382020D01*
X150062527Y-117406279D01*
X150062527Y-117901279D01*
X150061335Y-117925538D01*
X150057771Y-117949564D01*
X150051870Y-117973124D01*
X150043687Y-117995993D01*
X150033303Y-118017950D01*
X150020816Y-118038783D01*
X150006347Y-118058291D01*
X149990036Y-118076288D01*
X149972039Y-118092599D01*
X149952531Y-118107068D01*
X149931698Y-118119555D01*
X149909741Y-118129939D01*
X149886872Y-118138122D01*
X149863312Y-118144023D01*
X149839286Y-118147587D01*
X149815027Y-118148779D01*
X149270027Y-118148779D01*
X149245768Y-118147587D01*
X149221742Y-118144023D01*
X149198182Y-118138122D01*
X149175313Y-118129939D01*
X149153356Y-118119555D01*
X149132523Y-118107068D01*
X149113015Y-118092599D01*
X149095018Y-118076288D01*
X149078707Y-118058291D01*
X149064238Y-118038783D01*
X149051751Y-118017950D01*
X149041367Y-117995993D01*
X149033184Y-117973124D01*
X149027283Y-117949564D01*
X149023719Y-117925538D01*
X149022527Y-117901279D01*
X149022527Y-117406279D01*
X149023719Y-117382020D01*
X149027283Y-117357994D01*
X149033184Y-117334434D01*
X149041367Y-117311565D01*
X149051751Y-117289608D01*
X149064238Y-117268775D01*
X149078707Y-117249267D01*
X149095018Y-117231270D01*
X149113015Y-117214959D01*
X149132523Y-117200490D01*
X149153356Y-117188003D01*
X149175313Y-117177619D01*
X149198182Y-117169436D01*
X149221742Y-117163535D01*
X149245768Y-117159971D01*
X149270027Y-117158779D01*
X149815027Y-117158779D01*
X149839286Y-117159971D01*
X149839286Y-117159971D01*
G37*
D18*
X149542527Y-117653779D03*
G04 #@! TD*
D27*
G04 #@! TO.C,U4*
X167640000Y-116648000D03*
X165640000Y-116648000D03*
X163640000Y-116648000D03*
X161640000Y-116648000D03*
X159640000Y-116648000D03*
X157640000Y-116648000D03*
X155640000Y-116648000D03*
X153640000Y-116648000D03*
X153640000Y-132048000D03*
X155640000Y-132048000D03*
X157640000Y-132048000D03*
X159640000Y-132048000D03*
X161640000Y-132048000D03*
X163640000Y-132048000D03*
X165640000Y-132048000D03*
X167640000Y-132048000D03*
D28*
X151940000Y-119338000D03*
X151940000Y-121338000D03*
X151940000Y-123338000D03*
X151940000Y-125338000D03*
X151940000Y-127338000D03*
X151940000Y-129338000D03*
G04 #@! TD*
D17*
G04 #@! TO.C,R19*
G36*
X151226359Y-130849992D02*
X151250385Y-130853556D01*
X151273945Y-130859457D01*
X151296814Y-130867640D01*
X151318771Y-130878024D01*
X151339604Y-130890511D01*
X151359112Y-130904980D01*
X151377109Y-130921291D01*
X151393420Y-130939288D01*
X151407889Y-130958796D01*
X151420376Y-130979629D01*
X151430760Y-131001586D01*
X151438943Y-131024455D01*
X151444844Y-131048015D01*
X151448408Y-131072041D01*
X151449600Y-131096300D01*
X151449600Y-131641300D01*
X151448408Y-131665559D01*
X151444844Y-131689585D01*
X151438943Y-131713145D01*
X151430760Y-131736014D01*
X151420376Y-131757971D01*
X151407889Y-131778804D01*
X151393420Y-131798312D01*
X151377109Y-131816309D01*
X151359112Y-131832620D01*
X151339604Y-131847089D01*
X151318771Y-131859576D01*
X151296814Y-131869960D01*
X151273945Y-131878143D01*
X151250385Y-131884044D01*
X151226359Y-131887608D01*
X151202100Y-131888800D01*
X150707100Y-131888800D01*
X150682841Y-131887608D01*
X150658815Y-131884044D01*
X150635255Y-131878143D01*
X150612386Y-131869960D01*
X150590429Y-131859576D01*
X150569596Y-131847089D01*
X150550088Y-131832620D01*
X150532091Y-131816309D01*
X150515780Y-131798312D01*
X150501311Y-131778804D01*
X150488824Y-131757971D01*
X150478440Y-131736014D01*
X150470257Y-131713145D01*
X150464356Y-131689585D01*
X150460792Y-131665559D01*
X150459600Y-131641300D01*
X150459600Y-131096300D01*
X150460792Y-131072041D01*
X150464356Y-131048015D01*
X150470257Y-131024455D01*
X150478440Y-131001586D01*
X150488824Y-130979629D01*
X150501311Y-130958796D01*
X150515780Y-130939288D01*
X150532091Y-130921291D01*
X150550088Y-130904980D01*
X150569596Y-130890511D01*
X150590429Y-130878024D01*
X150612386Y-130867640D01*
X150635255Y-130859457D01*
X150658815Y-130853556D01*
X150682841Y-130849992D01*
X150707100Y-130848800D01*
X151202100Y-130848800D01*
X151226359Y-130849992D01*
X151226359Y-130849992D01*
G37*
D18*
X150954600Y-131368800D03*
D17*
G36*
X150256359Y-130849992D02*
X150280385Y-130853556D01*
X150303945Y-130859457D01*
X150326814Y-130867640D01*
X150348771Y-130878024D01*
X150369604Y-130890511D01*
X150389112Y-130904980D01*
X150407109Y-130921291D01*
X150423420Y-130939288D01*
X150437889Y-130958796D01*
X150450376Y-130979629D01*
X150460760Y-131001586D01*
X150468943Y-131024455D01*
X150474844Y-131048015D01*
X150478408Y-131072041D01*
X150479600Y-131096300D01*
X150479600Y-131641300D01*
X150478408Y-131665559D01*
X150474844Y-131689585D01*
X150468943Y-131713145D01*
X150460760Y-131736014D01*
X150450376Y-131757971D01*
X150437889Y-131778804D01*
X150423420Y-131798312D01*
X150407109Y-131816309D01*
X150389112Y-131832620D01*
X150369604Y-131847089D01*
X150348771Y-131859576D01*
X150326814Y-131869960D01*
X150303945Y-131878143D01*
X150280385Y-131884044D01*
X150256359Y-131887608D01*
X150232100Y-131888800D01*
X149737100Y-131888800D01*
X149712841Y-131887608D01*
X149688815Y-131884044D01*
X149665255Y-131878143D01*
X149642386Y-131869960D01*
X149620429Y-131859576D01*
X149599596Y-131847089D01*
X149580088Y-131832620D01*
X149562091Y-131816309D01*
X149545780Y-131798312D01*
X149531311Y-131778804D01*
X149518824Y-131757971D01*
X149508440Y-131736014D01*
X149500257Y-131713145D01*
X149494356Y-131689585D01*
X149490792Y-131665559D01*
X149489600Y-131641300D01*
X149489600Y-131096300D01*
X149490792Y-131072041D01*
X149494356Y-131048015D01*
X149500257Y-131024455D01*
X149508440Y-131001586D01*
X149518824Y-130979629D01*
X149531311Y-130958796D01*
X149545780Y-130939288D01*
X149562091Y-130921291D01*
X149580088Y-130904980D01*
X149599596Y-130890511D01*
X149620429Y-130878024D01*
X149642386Y-130867640D01*
X149665255Y-130859457D01*
X149688815Y-130853556D01*
X149712841Y-130849992D01*
X149737100Y-130848800D01*
X150232100Y-130848800D01*
X150256359Y-130849992D01*
X150256359Y-130849992D01*
G37*
D18*
X149984600Y-131368800D03*
G04 #@! TD*
D17*
G04 #@! TO.C,R20*
G36*
X166771159Y-134101192D02*
X166795185Y-134104756D01*
X166818745Y-134110657D01*
X166841614Y-134118840D01*
X166863571Y-134129224D01*
X166884404Y-134141711D01*
X166903912Y-134156180D01*
X166921909Y-134172491D01*
X166938220Y-134190488D01*
X166952689Y-134209996D01*
X166965176Y-134230829D01*
X166975560Y-134252786D01*
X166983743Y-134275655D01*
X166989644Y-134299215D01*
X166993208Y-134323241D01*
X166994400Y-134347500D01*
X166994400Y-134892500D01*
X166993208Y-134916759D01*
X166989644Y-134940785D01*
X166983743Y-134964345D01*
X166975560Y-134987214D01*
X166965176Y-135009171D01*
X166952689Y-135030004D01*
X166938220Y-135049512D01*
X166921909Y-135067509D01*
X166903912Y-135083820D01*
X166884404Y-135098289D01*
X166863571Y-135110776D01*
X166841614Y-135121160D01*
X166818745Y-135129343D01*
X166795185Y-135135244D01*
X166771159Y-135138808D01*
X166746900Y-135140000D01*
X166251900Y-135140000D01*
X166227641Y-135138808D01*
X166203615Y-135135244D01*
X166180055Y-135129343D01*
X166157186Y-135121160D01*
X166135229Y-135110776D01*
X166114396Y-135098289D01*
X166094888Y-135083820D01*
X166076891Y-135067509D01*
X166060580Y-135049512D01*
X166046111Y-135030004D01*
X166033624Y-135009171D01*
X166023240Y-134987214D01*
X166015057Y-134964345D01*
X166009156Y-134940785D01*
X166005592Y-134916759D01*
X166004400Y-134892500D01*
X166004400Y-134347500D01*
X166005592Y-134323241D01*
X166009156Y-134299215D01*
X166015057Y-134275655D01*
X166023240Y-134252786D01*
X166033624Y-134230829D01*
X166046111Y-134209996D01*
X166060580Y-134190488D01*
X166076891Y-134172491D01*
X166094888Y-134156180D01*
X166114396Y-134141711D01*
X166135229Y-134129224D01*
X166157186Y-134118840D01*
X166180055Y-134110657D01*
X166203615Y-134104756D01*
X166227641Y-134101192D01*
X166251900Y-134100000D01*
X166746900Y-134100000D01*
X166771159Y-134101192D01*
X166771159Y-134101192D01*
G37*
D18*
X166499400Y-134620000D03*
D17*
G36*
X165801159Y-134101192D02*
X165825185Y-134104756D01*
X165848745Y-134110657D01*
X165871614Y-134118840D01*
X165893571Y-134129224D01*
X165914404Y-134141711D01*
X165933912Y-134156180D01*
X165951909Y-134172491D01*
X165968220Y-134190488D01*
X165982689Y-134209996D01*
X165995176Y-134230829D01*
X166005560Y-134252786D01*
X166013743Y-134275655D01*
X166019644Y-134299215D01*
X166023208Y-134323241D01*
X166024400Y-134347500D01*
X166024400Y-134892500D01*
X166023208Y-134916759D01*
X166019644Y-134940785D01*
X166013743Y-134964345D01*
X166005560Y-134987214D01*
X165995176Y-135009171D01*
X165982689Y-135030004D01*
X165968220Y-135049512D01*
X165951909Y-135067509D01*
X165933912Y-135083820D01*
X165914404Y-135098289D01*
X165893571Y-135110776D01*
X165871614Y-135121160D01*
X165848745Y-135129343D01*
X165825185Y-135135244D01*
X165801159Y-135138808D01*
X165776900Y-135140000D01*
X165281900Y-135140000D01*
X165257641Y-135138808D01*
X165233615Y-135135244D01*
X165210055Y-135129343D01*
X165187186Y-135121160D01*
X165165229Y-135110776D01*
X165144396Y-135098289D01*
X165124888Y-135083820D01*
X165106891Y-135067509D01*
X165090580Y-135049512D01*
X165076111Y-135030004D01*
X165063624Y-135009171D01*
X165053240Y-134987214D01*
X165045057Y-134964345D01*
X165039156Y-134940785D01*
X165035592Y-134916759D01*
X165034400Y-134892500D01*
X165034400Y-134347500D01*
X165035592Y-134323241D01*
X165039156Y-134299215D01*
X165045057Y-134275655D01*
X165053240Y-134252786D01*
X165063624Y-134230829D01*
X165076111Y-134209996D01*
X165090580Y-134190488D01*
X165106891Y-134172491D01*
X165124888Y-134156180D01*
X165144396Y-134141711D01*
X165165229Y-134129224D01*
X165187186Y-134118840D01*
X165210055Y-134110657D01*
X165233615Y-134104756D01*
X165257641Y-134101192D01*
X165281900Y-134100000D01*
X165776900Y-134100000D01*
X165801159Y-134101192D01*
X165801159Y-134101192D01*
G37*
D18*
X165529400Y-134620000D03*
G04 #@! TD*
D17*
G04 #@! TO.C,D2*
G36*
X116986693Y-115556935D02*
X117017635Y-115561525D01*
X117047978Y-115569125D01*
X117077430Y-115579663D01*
X117105708Y-115593038D01*
X117132538Y-115609119D01*
X117157663Y-115627753D01*
X117180840Y-115648760D01*
X117201847Y-115671937D01*
X117220481Y-115697062D01*
X117236562Y-115723892D01*
X117249937Y-115752170D01*
X117260475Y-115781622D01*
X117268075Y-115811965D01*
X117272665Y-115842907D01*
X117274200Y-115874150D01*
X117274200Y-116586650D01*
X117272665Y-116617893D01*
X117268075Y-116648835D01*
X117260475Y-116679178D01*
X117249937Y-116708630D01*
X117236562Y-116736908D01*
X117220481Y-116763738D01*
X117201847Y-116788863D01*
X117180840Y-116812040D01*
X117157663Y-116833047D01*
X117132538Y-116851681D01*
X117105708Y-116867762D01*
X117077430Y-116881137D01*
X117047978Y-116891675D01*
X117017635Y-116899275D01*
X116986693Y-116903865D01*
X116955450Y-116905400D01*
X116317950Y-116905400D01*
X116286707Y-116903865D01*
X116255765Y-116899275D01*
X116225422Y-116891675D01*
X116195970Y-116881137D01*
X116167692Y-116867762D01*
X116140862Y-116851681D01*
X116115737Y-116833047D01*
X116092560Y-116812040D01*
X116071553Y-116788863D01*
X116052919Y-116763738D01*
X116036838Y-116736908D01*
X116023463Y-116708630D01*
X116012925Y-116679178D01*
X116005325Y-116648835D01*
X116000735Y-116617893D01*
X115999200Y-116586650D01*
X115999200Y-115874150D01*
X116000735Y-115842907D01*
X116005325Y-115811965D01*
X116012925Y-115781622D01*
X116023463Y-115752170D01*
X116036838Y-115723892D01*
X116052919Y-115697062D01*
X116071553Y-115671937D01*
X116092560Y-115648760D01*
X116115737Y-115627753D01*
X116140862Y-115609119D01*
X116167692Y-115593038D01*
X116195970Y-115579663D01*
X116225422Y-115569125D01*
X116255765Y-115561525D01*
X116286707Y-115556935D01*
X116317950Y-115555400D01*
X116955450Y-115555400D01*
X116986693Y-115556935D01*
X116986693Y-115556935D01*
G37*
D29*
X116636700Y-116230400D03*
D17*
G36*
X118561693Y-115556935D02*
X118592635Y-115561525D01*
X118622978Y-115569125D01*
X118652430Y-115579663D01*
X118680708Y-115593038D01*
X118707538Y-115609119D01*
X118732663Y-115627753D01*
X118755840Y-115648760D01*
X118776847Y-115671937D01*
X118795481Y-115697062D01*
X118811562Y-115723892D01*
X118824937Y-115752170D01*
X118835475Y-115781622D01*
X118843075Y-115811965D01*
X118847665Y-115842907D01*
X118849200Y-115874150D01*
X118849200Y-116586650D01*
X118847665Y-116617893D01*
X118843075Y-116648835D01*
X118835475Y-116679178D01*
X118824937Y-116708630D01*
X118811562Y-116736908D01*
X118795481Y-116763738D01*
X118776847Y-116788863D01*
X118755840Y-116812040D01*
X118732663Y-116833047D01*
X118707538Y-116851681D01*
X118680708Y-116867762D01*
X118652430Y-116881137D01*
X118622978Y-116891675D01*
X118592635Y-116899275D01*
X118561693Y-116903865D01*
X118530450Y-116905400D01*
X117892950Y-116905400D01*
X117861707Y-116903865D01*
X117830765Y-116899275D01*
X117800422Y-116891675D01*
X117770970Y-116881137D01*
X117742692Y-116867762D01*
X117715862Y-116851681D01*
X117690737Y-116833047D01*
X117667560Y-116812040D01*
X117646553Y-116788863D01*
X117627919Y-116763738D01*
X117611838Y-116736908D01*
X117598463Y-116708630D01*
X117587925Y-116679178D01*
X117580325Y-116648835D01*
X117575735Y-116617893D01*
X117574200Y-116586650D01*
X117574200Y-115874150D01*
X117575735Y-115842907D01*
X117580325Y-115811965D01*
X117587925Y-115781622D01*
X117598463Y-115752170D01*
X117611838Y-115723892D01*
X117627919Y-115697062D01*
X117646553Y-115671937D01*
X117667560Y-115648760D01*
X117690737Y-115627753D01*
X117715862Y-115609119D01*
X117742692Y-115593038D01*
X117770970Y-115579663D01*
X117800422Y-115569125D01*
X117830765Y-115561525D01*
X117861707Y-115556935D01*
X117892950Y-115555400D01*
X118530450Y-115555400D01*
X118561693Y-115556935D01*
X118561693Y-115556935D01*
G37*
D29*
X118211700Y-116230400D03*
G04 #@! TD*
D17*
G04 #@! TO.C,R14*
G36*
X121008259Y-122531492D02*
X121032285Y-122535056D01*
X121055845Y-122540957D01*
X121078714Y-122549140D01*
X121100671Y-122559524D01*
X121121504Y-122572011D01*
X121141012Y-122586480D01*
X121159009Y-122602791D01*
X121175320Y-122620788D01*
X121189789Y-122640296D01*
X121202276Y-122661129D01*
X121212660Y-122683086D01*
X121220843Y-122705955D01*
X121226744Y-122729515D01*
X121230308Y-122753541D01*
X121231500Y-122777800D01*
X121231500Y-123322800D01*
X121230308Y-123347059D01*
X121226744Y-123371085D01*
X121220843Y-123394645D01*
X121212660Y-123417514D01*
X121202276Y-123439471D01*
X121189789Y-123460304D01*
X121175320Y-123479812D01*
X121159009Y-123497809D01*
X121141012Y-123514120D01*
X121121504Y-123528589D01*
X121100671Y-123541076D01*
X121078714Y-123551460D01*
X121055845Y-123559643D01*
X121032285Y-123565544D01*
X121008259Y-123569108D01*
X120984000Y-123570300D01*
X120489000Y-123570300D01*
X120464741Y-123569108D01*
X120440715Y-123565544D01*
X120417155Y-123559643D01*
X120394286Y-123551460D01*
X120372329Y-123541076D01*
X120351496Y-123528589D01*
X120331988Y-123514120D01*
X120313991Y-123497809D01*
X120297680Y-123479812D01*
X120283211Y-123460304D01*
X120270724Y-123439471D01*
X120260340Y-123417514D01*
X120252157Y-123394645D01*
X120246256Y-123371085D01*
X120242692Y-123347059D01*
X120241500Y-123322800D01*
X120241500Y-122777800D01*
X120242692Y-122753541D01*
X120246256Y-122729515D01*
X120252157Y-122705955D01*
X120260340Y-122683086D01*
X120270724Y-122661129D01*
X120283211Y-122640296D01*
X120297680Y-122620788D01*
X120313991Y-122602791D01*
X120331988Y-122586480D01*
X120351496Y-122572011D01*
X120372329Y-122559524D01*
X120394286Y-122549140D01*
X120417155Y-122540957D01*
X120440715Y-122535056D01*
X120464741Y-122531492D01*
X120489000Y-122530300D01*
X120984000Y-122530300D01*
X121008259Y-122531492D01*
X121008259Y-122531492D01*
G37*
D18*
X120736500Y-123050300D03*
D17*
G36*
X121978259Y-122531492D02*
X122002285Y-122535056D01*
X122025845Y-122540957D01*
X122048714Y-122549140D01*
X122070671Y-122559524D01*
X122091504Y-122572011D01*
X122111012Y-122586480D01*
X122129009Y-122602791D01*
X122145320Y-122620788D01*
X122159789Y-122640296D01*
X122172276Y-122661129D01*
X122182660Y-122683086D01*
X122190843Y-122705955D01*
X122196744Y-122729515D01*
X122200308Y-122753541D01*
X122201500Y-122777800D01*
X122201500Y-123322800D01*
X122200308Y-123347059D01*
X122196744Y-123371085D01*
X122190843Y-123394645D01*
X122182660Y-123417514D01*
X122172276Y-123439471D01*
X122159789Y-123460304D01*
X122145320Y-123479812D01*
X122129009Y-123497809D01*
X122111012Y-123514120D01*
X122091504Y-123528589D01*
X122070671Y-123541076D01*
X122048714Y-123551460D01*
X122025845Y-123559643D01*
X122002285Y-123565544D01*
X121978259Y-123569108D01*
X121954000Y-123570300D01*
X121459000Y-123570300D01*
X121434741Y-123569108D01*
X121410715Y-123565544D01*
X121387155Y-123559643D01*
X121364286Y-123551460D01*
X121342329Y-123541076D01*
X121321496Y-123528589D01*
X121301988Y-123514120D01*
X121283991Y-123497809D01*
X121267680Y-123479812D01*
X121253211Y-123460304D01*
X121240724Y-123439471D01*
X121230340Y-123417514D01*
X121222157Y-123394645D01*
X121216256Y-123371085D01*
X121212692Y-123347059D01*
X121211500Y-123322800D01*
X121211500Y-122777800D01*
X121212692Y-122753541D01*
X121216256Y-122729515D01*
X121222157Y-122705955D01*
X121230340Y-122683086D01*
X121240724Y-122661129D01*
X121253211Y-122640296D01*
X121267680Y-122620788D01*
X121283991Y-122602791D01*
X121301988Y-122586480D01*
X121321496Y-122572011D01*
X121342329Y-122559524D01*
X121364286Y-122549140D01*
X121387155Y-122540957D01*
X121410715Y-122535056D01*
X121434741Y-122531492D01*
X121459000Y-122530300D01*
X121954000Y-122530300D01*
X121978259Y-122531492D01*
X121978259Y-122531492D01*
G37*
D18*
X121706500Y-123050300D03*
G04 #@! TD*
D30*
G04 #@! TO.C,SW2*
X113665000Y-131925800D03*
X113665000Y-128525800D03*
G04 #@! TD*
D17*
G04 #@! TO.C,D3*
G36*
X118625193Y-120408335D02*
X118656135Y-120412925D01*
X118686478Y-120420525D01*
X118715930Y-120431063D01*
X118744208Y-120444438D01*
X118771038Y-120460519D01*
X118796163Y-120479153D01*
X118819340Y-120500160D01*
X118840347Y-120523337D01*
X118858981Y-120548462D01*
X118875062Y-120575292D01*
X118888437Y-120603570D01*
X118898975Y-120633022D01*
X118906575Y-120663365D01*
X118911165Y-120694307D01*
X118912700Y-120725550D01*
X118912700Y-121438050D01*
X118911165Y-121469293D01*
X118906575Y-121500235D01*
X118898975Y-121530578D01*
X118888437Y-121560030D01*
X118875062Y-121588308D01*
X118858981Y-121615138D01*
X118840347Y-121640263D01*
X118819340Y-121663440D01*
X118796163Y-121684447D01*
X118771038Y-121703081D01*
X118744208Y-121719162D01*
X118715930Y-121732537D01*
X118686478Y-121743075D01*
X118656135Y-121750675D01*
X118625193Y-121755265D01*
X118593950Y-121756800D01*
X117956450Y-121756800D01*
X117925207Y-121755265D01*
X117894265Y-121750675D01*
X117863922Y-121743075D01*
X117834470Y-121732537D01*
X117806192Y-121719162D01*
X117779362Y-121703081D01*
X117754237Y-121684447D01*
X117731060Y-121663440D01*
X117710053Y-121640263D01*
X117691419Y-121615138D01*
X117675338Y-121588308D01*
X117661963Y-121560030D01*
X117651425Y-121530578D01*
X117643825Y-121500235D01*
X117639235Y-121469293D01*
X117637700Y-121438050D01*
X117637700Y-120725550D01*
X117639235Y-120694307D01*
X117643825Y-120663365D01*
X117651425Y-120633022D01*
X117661963Y-120603570D01*
X117675338Y-120575292D01*
X117691419Y-120548462D01*
X117710053Y-120523337D01*
X117731060Y-120500160D01*
X117754237Y-120479153D01*
X117779362Y-120460519D01*
X117806192Y-120444438D01*
X117834470Y-120431063D01*
X117863922Y-120420525D01*
X117894265Y-120412925D01*
X117925207Y-120408335D01*
X117956450Y-120406800D01*
X118593950Y-120406800D01*
X118625193Y-120408335D01*
X118625193Y-120408335D01*
G37*
D29*
X118275200Y-121081800D03*
D17*
G36*
X117050193Y-120408335D02*
X117081135Y-120412925D01*
X117111478Y-120420525D01*
X117140930Y-120431063D01*
X117169208Y-120444438D01*
X117196038Y-120460519D01*
X117221163Y-120479153D01*
X117244340Y-120500160D01*
X117265347Y-120523337D01*
X117283981Y-120548462D01*
X117300062Y-120575292D01*
X117313437Y-120603570D01*
X117323975Y-120633022D01*
X117331575Y-120663365D01*
X117336165Y-120694307D01*
X117337700Y-120725550D01*
X117337700Y-121438050D01*
X117336165Y-121469293D01*
X117331575Y-121500235D01*
X117323975Y-121530578D01*
X117313437Y-121560030D01*
X117300062Y-121588308D01*
X117283981Y-121615138D01*
X117265347Y-121640263D01*
X117244340Y-121663440D01*
X117221163Y-121684447D01*
X117196038Y-121703081D01*
X117169208Y-121719162D01*
X117140930Y-121732537D01*
X117111478Y-121743075D01*
X117081135Y-121750675D01*
X117050193Y-121755265D01*
X117018950Y-121756800D01*
X116381450Y-121756800D01*
X116350207Y-121755265D01*
X116319265Y-121750675D01*
X116288922Y-121743075D01*
X116259470Y-121732537D01*
X116231192Y-121719162D01*
X116204362Y-121703081D01*
X116179237Y-121684447D01*
X116156060Y-121663440D01*
X116135053Y-121640263D01*
X116116419Y-121615138D01*
X116100338Y-121588308D01*
X116086963Y-121560030D01*
X116076425Y-121530578D01*
X116068825Y-121500235D01*
X116064235Y-121469293D01*
X116062700Y-121438050D01*
X116062700Y-120725550D01*
X116064235Y-120694307D01*
X116068825Y-120663365D01*
X116076425Y-120633022D01*
X116086963Y-120603570D01*
X116100338Y-120575292D01*
X116116419Y-120548462D01*
X116135053Y-120523337D01*
X116156060Y-120500160D01*
X116179237Y-120479153D01*
X116204362Y-120460519D01*
X116231192Y-120444438D01*
X116259470Y-120431063D01*
X116288922Y-120420525D01*
X116319265Y-120412925D01*
X116350207Y-120408335D01*
X116381450Y-120406800D01*
X117018950Y-120406800D01*
X117050193Y-120408335D01*
X117050193Y-120408335D01*
G37*
D29*
X116700200Y-121081800D03*
G04 #@! TD*
D31*
G04 #@! TO.C,J1*
X134972000Y-135310000D03*
X134472000Y-135310000D03*
X133972000Y-135310000D03*
X133472000Y-135310000D03*
X132972000Y-135310000D03*
X132472000Y-135310000D03*
X131972000Y-135310000D03*
X131472000Y-135310000D03*
X130972000Y-135310000D03*
X130472000Y-135310000D03*
X129972000Y-135310000D03*
X129472000Y-135310000D03*
X128972000Y-135310000D03*
X128472000Y-135310000D03*
X127972000Y-135310000D03*
X127472000Y-135310000D03*
X126972000Y-135310000D03*
X126472000Y-135310000D03*
X125972000Y-135310000D03*
X125472000Y-135310000D03*
X124972000Y-135310000D03*
X124472000Y-135310000D03*
X123972000Y-135310000D03*
X123472000Y-135310000D03*
X122972000Y-135310000D03*
X122472000Y-135310000D03*
X121972000Y-135310000D03*
X121472000Y-135310000D03*
X120972000Y-135310000D03*
X120472000Y-135310000D03*
X119972000Y-135310000D03*
X119472000Y-135310000D03*
X118972000Y-135310000D03*
X118472000Y-135310000D03*
X117972000Y-135310000D03*
X117472000Y-135310000D03*
X116972000Y-135310000D03*
X116472000Y-135310000D03*
X115972000Y-135310000D03*
X115472000Y-135310000D03*
D32*
X113572000Y-138560000D03*
X136872000Y-138560000D03*
G04 #@! TD*
G04 #@! TO.C,J2*
X163288000Y-138560000D03*
X139988000Y-138560000D03*
D31*
X141888000Y-135310000D03*
X142388000Y-135310000D03*
X142888000Y-135310000D03*
X143388000Y-135310000D03*
X143888000Y-135310000D03*
X144388000Y-135310000D03*
X144888000Y-135310000D03*
X145388000Y-135310000D03*
X145888000Y-135310000D03*
X146388000Y-135310000D03*
X146888000Y-135310000D03*
X147388000Y-135310000D03*
X147888000Y-135310000D03*
X148388000Y-135310000D03*
X148888000Y-135310000D03*
X149388000Y-135310000D03*
X149888000Y-135310000D03*
X150388000Y-135310000D03*
X150888000Y-135310000D03*
X151388000Y-135310000D03*
X151888000Y-135310000D03*
X152388000Y-135310000D03*
X152888000Y-135310000D03*
X153388000Y-135310000D03*
X153888000Y-135310000D03*
X154388000Y-135310000D03*
X154888000Y-135310000D03*
X155388000Y-135310000D03*
X155888000Y-135310000D03*
X156388000Y-135310000D03*
X156888000Y-135310000D03*
X157388000Y-135310000D03*
X157888000Y-135310000D03*
X158388000Y-135310000D03*
X158888000Y-135310000D03*
X159388000Y-135310000D03*
X159888000Y-135310000D03*
X160388000Y-135310000D03*
X160888000Y-135310000D03*
X161388000Y-135310000D03*
G04 #@! TD*
G04 #@! TO.C,J3*
X115472000Y-113356000D03*
X115972000Y-113356000D03*
X116472000Y-113356000D03*
X116972000Y-113356000D03*
X117472000Y-113356000D03*
X117972000Y-113356000D03*
X118472000Y-113356000D03*
X118972000Y-113356000D03*
X119472000Y-113356000D03*
X119972000Y-113356000D03*
X120472000Y-113356000D03*
X120972000Y-113356000D03*
X121472000Y-113356000D03*
X121972000Y-113356000D03*
X122472000Y-113356000D03*
X122972000Y-113356000D03*
X123472000Y-113356000D03*
X123972000Y-113356000D03*
X124472000Y-113356000D03*
X124972000Y-113356000D03*
X125472000Y-113356000D03*
X125972000Y-113356000D03*
X126472000Y-113356000D03*
X126972000Y-113356000D03*
X127472000Y-113356000D03*
X127972000Y-113356000D03*
X128472000Y-113356000D03*
X128972000Y-113356000D03*
X129472000Y-113356000D03*
X129972000Y-113356000D03*
X130472000Y-113356000D03*
X130972000Y-113356000D03*
X131472000Y-113356000D03*
X131972000Y-113356000D03*
X132472000Y-113356000D03*
X132972000Y-113356000D03*
X133472000Y-113356000D03*
X133972000Y-113356000D03*
X134472000Y-113356000D03*
X134972000Y-113356000D03*
D32*
X136872000Y-110106000D03*
X113572000Y-110106000D03*
G04 #@! TD*
G04 #@! TO.C,J6*
X139988000Y-110106000D03*
X163288000Y-110106000D03*
D31*
X161388000Y-113356000D03*
X160888000Y-113356000D03*
X160388000Y-113356000D03*
X159888000Y-113356000D03*
X159388000Y-113356000D03*
X158888000Y-113356000D03*
X158388000Y-113356000D03*
X157888000Y-113356000D03*
X157388000Y-113356000D03*
X156888000Y-113356000D03*
X156388000Y-113356000D03*
X155888000Y-113356000D03*
X155388000Y-113356000D03*
X154888000Y-113356000D03*
X154388000Y-113356000D03*
X153888000Y-113356000D03*
X153388000Y-113356000D03*
X152888000Y-113356000D03*
X152388000Y-113356000D03*
X151888000Y-113356000D03*
X151388000Y-113356000D03*
X150888000Y-113356000D03*
X150388000Y-113356000D03*
X149888000Y-113356000D03*
X149388000Y-113356000D03*
X148888000Y-113356000D03*
X148388000Y-113356000D03*
X147888000Y-113356000D03*
X147388000Y-113356000D03*
X146888000Y-113356000D03*
X146388000Y-113356000D03*
X145888000Y-113356000D03*
X145388000Y-113356000D03*
X144888000Y-113356000D03*
X144388000Y-113356000D03*
X143888000Y-113356000D03*
X143388000Y-113356000D03*
X142888000Y-113356000D03*
X142388000Y-113356000D03*
X141888000Y-113356000D03*
G04 #@! TD*
D17*
G04 #@! TO.C,R13*
G36*
X121978259Y-124715892D02*
X122002285Y-124719456D01*
X122025845Y-124725357D01*
X122048714Y-124733540D01*
X122070671Y-124743924D01*
X122091504Y-124756411D01*
X122111012Y-124770880D01*
X122129009Y-124787191D01*
X122145320Y-124805188D01*
X122159789Y-124824696D01*
X122172276Y-124845529D01*
X122182660Y-124867486D01*
X122190843Y-124890355D01*
X122196744Y-124913915D01*
X122200308Y-124937941D01*
X122201500Y-124962200D01*
X122201500Y-125507200D01*
X122200308Y-125531459D01*
X122196744Y-125555485D01*
X122190843Y-125579045D01*
X122182660Y-125601914D01*
X122172276Y-125623871D01*
X122159789Y-125644704D01*
X122145320Y-125664212D01*
X122129009Y-125682209D01*
X122111012Y-125698520D01*
X122091504Y-125712989D01*
X122070671Y-125725476D01*
X122048714Y-125735860D01*
X122025845Y-125744043D01*
X122002285Y-125749944D01*
X121978259Y-125753508D01*
X121954000Y-125754700D01*
X121459000Y-125754700D01*
X121434741Y-125753508D01*
X121410715Y-125749944D01*
X121387155Y-125744043D01*
X121364286Y-125735860D01*
X121342329Y-125725476D01*
X121321496Y-125712989D01*
X121301988Y-125698520D01*
X121283991Y-125682209D01*
X121267680Y-125664212D01*
X121253211Y-125644704D01*
X121240724Y-125623871D01*
X121230340Y-125601914D01*
X121222157Y-125579045D01*
X121216256Y-125555485D01*
X121212692Y-125531459D01*
X121211500Y-125507200D01*
X121211500Y-124962200D01*
X121212692Y-124937941D01*
X121216256Y-124913915D01*
X121222157Y-124890355D01*
X121230340Y-124867486D01*
X121240724Y-124845529D01*
X121253211Y-124824696D01*
X121267680Y-124805188D01*
X121283991Y-124787191D01*
X121301988Y-124770880D01*
X121321496Y-124756411D01*
X121342329Y-124743924D01*
X121364286Y-124733540D01*
X121387155Y-124725357D01*
X121410715Y-124719456D01*
X121434741Y-124715892D01*
X121459000Y-124714700D01*
X121954000Y-124714700D01*
X121978259Y-124715892D01*
X121978259Y-124715892D01*
G37*
D18*
X121706500Y-125234700D03*
D17*
G36*
X121008259Y-124715892D02*
X121032285Y-124719456D01*
X121055845Y-124725357D01*
X121078714Y-124733540D01*
X121100671Y-124743924D01*
X121121504Y-124756411D01*
X121141012Y-124770880D01*
X121159009Y-124787191D01*
X121175320Y-124805188D01*
X121189789Y-124824696D01*
X121202276Y-124845529D01*
X121212660Y-124867486D01*
X121220843Y-124890355D01*
X121226744Y-124913915D01*
X121230308Y-124937941D01*
X121231500Y-124962200D01*
X121231500Y-125507200D01*
X121230308Y-125531459D01*
X121226744Y-125555485D01*
X121220843Y-125579045D01*
X121212660Y-125601914D01*
X121202276Y-125623871D01*
X121189789Y-125644704D01*
X121175320Y-125664212D01*
X121159009Y-125682209D01*
X121141012Y-125698520D01*
X121121504Y-125712989D01*
X121100671Y-125725476D01*
X121078714Y-125735860D01*
X121055845Y-125744043D01*
X121032285Y-125749944D01*
X121008259Y-125753508D01*
X120984000Y-125754700D01*
X120489000Y-125754700D01*
X120464741Y-125753508D01*
X120440715Y-125749944D01*
X120417155Y-125744043D01*
X120394286Y-125735860D01*
X120372329Y-125725476D01*
X120351496Y-125712989D01*
X120331988Y-125698520D01*
X120313991Y-125682209D01*
X120297680Y-125664212D01*
X120283211Y-125644704D01*
X120270724Y-125623871D01*
X120260340Y-125601914D01*
X120252157Y-125579045D01*
X120246256Y-125555485D01*
X120242692Y-125531459D01*
X120241500Y-125507200D01*
X120241500Y-124962200D01*
X120242692Y-124937941D01*
X120246256Y-124913915D01*
X120252157Y-124890355D01*
X120260340Y-124867486D01*
X120270724Y-124845529D01*
X120283211Y-124824696D01*
X120297680Y-124805188D01*
X120313991Y-124787191D01*
X120331988Y-124770880D01*
X120351496Y-124756411D01*
X120372329Y-124743924D01*
X120394286Y-124733540D01*
X120417155Y-124725357D01*
X120440715Y-124719456D01*
X120464741Y-124715892D01*
X120489000Y-124714700D01*
X120984000Y-124714700D01*
X121008259Y-124715892D01*
X121008259Y-124715892D01*
G37*
D18*
X120736500Y-125234700D03*
G04 #@! TD*
D17*
G04 #@! TO.C,R12*
G36*
X120995559Y-121439292D02*
X121019585Y-121442856D01*
X121043145Y-121448757D01*
X121066014Y-121456940D01*
X121087971Y-121467324D01*
X121108804Y-121479811D01*
X121128312Y-121494280D01*
X121146309Y-121510591D01*
X121162620Y-121528588D01*
X121177089Y-121548096D01*
X121189576Y-121568929D01*
X121199960Y-121590886D01*
X121208143Y-121613755D01*
X121214044Y-121637315D01*
X121217608Y-121661341D01*
X121218800Y-121685600D01*
X121218800Y-122230600D01*
X121217608Y-122254859D01*
X121214044Y-122278885D01*
X121208143Y-122302445D01*
X121199960Y-122325314D01*
X121189576Y-122347271D01*
X121177089Y-122368104D01*
X121162620Y-122387612D01*
X121146309Y-122405609D01*
X121128312Y-122421920D01*
X121108804Y-122436389D01*
X121087971Y-122448876D01*
X121066014Y-122459260D01*
X121043145Y-122467443D01*
X121019585Y-122473344D01*
X120995559Y-122476908D01*
X120971300Y-122478100D01*
X120476300Y-122478100D01*
X120452041Y-122476908D01*
X120428015Y-122473344D01*
X120404455Y-122467443D01*
X120381586Y-122459260D01*
X120359629Y-122448876D01*
X120338796Y-122436389D01*
X120319288Y-122421920D01*
X120301291Y-122405609D01*
X120284980Y-122387612D01*
X120270511Y-122368104D01*
X120258024Y-122347271D01*
X120247640Y-122325314D01*
X120239457Y-122302445D01*
X120233556Y-122278885D01*
X120229992Y-122254859D01*
X120228800Y-122230600D01*
X120228800Y-121685600D01*
X120229992Y-121661341D01*
X120233556Y-121637315D01*
X120239457Y-121613755D01*
X120247640Y-121590886D01*
X120258024Y-121568929D01*
X120270511Y-121548096D01*
X120284980Y-121528588D01*
X120301291Y-121510591D01*
X120319288Y-121494280D01*
X120338796Y-121479811D01*
X120359629Y-121467324D01*
X120381586Y-121456940D01*
X120404455Y-121448757D01*
X120428015Y-121442856D01*
X120452041Y-121439292D01*
X120476300Y-121438100D01*
X120971300Y-121438100D01*
X120995559Y-121439292D01*
X120995559Y-121439292D01*
G37*
D18*
X120723800Y-121958100D03*
D17*
G36*
X121965559Y-121439292D02*
X121989585Y-121442856D01*
X122013145Y-121448757D01*
X122036014Y-121456940D01*
X122057971Y-121467324D01*
X122078804Y-121479811D01*
X122098312Y-121494280D01*
X122116309Y-121510591D01*
X122132620Y-121528588D01*
X122147089Y-121548096D01*
X122159576Y-121568929D01*
X122169960Y-121590886D01*
X122178143Y-121613755D01*
X122184044Y-121637315D01*
X122187608Y-121661341D01*
X122188800Y-121685600D01*
X122188800Y-122230600D01*
X122187608Y-122254859D01*
X122184044Y-122278885D01*
X122178143Y-122302445D01*
X122169960Y-122325314D01*
X122159576Y-122347271D01*
X122147089Y-122368104D01*
X122132620Y-122387612D01*
X122116309Y-122405609D01*
X122098312Y-122421920D01*
X122078804Y-122436389D01*
X122057971Y-122448876D01*
X122036014Y-122459260D01*
X122013145Y-122467443D01*
X121989585Y-122473344D01*
X121965559Y-122476908D01*
X121941300Y-122478100D01*
X121446300Y-122478100D01*
X121422041Y-122476908D01*
X121398015Y-122473344D01*
X121374455Y-122467443D01*
X121351586Y-122459260D01*
X121329629Y-122448876D01*
X121308796Y-122436389D01*
X121289288Y-122421920D01*
X121271291Y-122405609D01*
X121254980Y-122387612D01*
X121240511Y-122368104D01*
X121228024Y-122347271D01*
X121217640Y-122325314D01*
X121209457Y-122302445D01*
X121203556Y-122278885D01*
X121199992Y-122254859D01*
X121198800Y-122230600D01*
X121198800Y-121685600D01*
X121199992Y-121661341D01*
X121203556Y-121637315D01*
X121209457Y-121613755D01*
X121217640Y-121590886D01*
X121228024Y-121568929D01*
X121240511Y-121548096D01*
X121254980Y-121528588D01*
X121271291Y-121510591D01*
X121289288Y-121494280D01*
X121308796Y-121479811D01*
X121329629Y-121467324D01*
X121351586Y-121456940D01*
X121374455Y-121448757D01*
X121398015Y-121442856D01*
X121422041Y-121439292D01*
X121446300Y-121438100D01*
X121941300Y-121438100D01*
X121965559Y-121439292D01*
X121965559Y-121439292D01*
G37*
D18*
X121693800Y-121958100D03*
G04 #@! TD*
D17*
G04 #@! TO.C,R11*
G36*
X121978259Y-123610992D02*
X122002285Y-123614556D01*
X122025845Y-123620457D01*
X122048714Y-123628640D01*
X122070671Y-123639024D01*
X122091504Y-123651511D01*
X122111012Y-123665980D01*
X122129009Y-123682291D01*
X122145320Y-123700288D01*
X122159789Y-123719796D01*
X122172276Y-123740629D01*
X122182660Y-123762586D01*
X122190843Y-123785455D01*
X122196744Y-123809015D01*
X122200308Y-123833041D01*
X122201500Y-123857300D01*
X122201500Y-124402300D01*
X122200308Y-124426559D01*
X122196744Y-124450585D01*
X122190843Y-124474145D01*
X122182660Y-124497014D01*
X122172276Y-124518971D01*
X122159789Y-124539804D01*
X122145320Y-124559312D01*
X122129009Y-124577309D01*
X122111012Y-124593620D01*
X122091504Y-124608089D01*
X122070671Y-124620576D01*
X122048714Y-124630960D01*
X122025845Y-124639143D01*
X122002285Y-124645044D01*
X121978259Y-124648608D01*
X121954000Y-124649800D01*
X121459000Y-124649800D01*
X121434741Y-124648608D01*
X121410715Y-124645044D01*
X121387155Y-124639143D01*
X121364286Y-124630960D01*
X121342329Y-124620576D01*
X121321496Y-124608089D01*
X121301988Y-124593620D01*
X121283991Y-124577309D01*
X121267680Y-124559312D01*
X121253211Y-124539804D01*
X121240724Y-124518971D01*
X121230340Y-124497014D01*
X121222157Y-124474145D01*
X121216256Y-124450585D01*
X121212692Y-124426559D01*
X121211500Y-124402300D01*
X121211500Y-123857300D01*
X121212692Y-123833041D01*
X121216256Y-123809015D01*
X121222157Y-123785455D01*
X121230340Y-123762586D01*
X121240724Y-123740629D01*
X121253211Y-123719796D01*
X121267680Y-123700288D01*
X121283991Y-123682291D01*
X121301988Y-123665980D01*
X121321496Y-123651511D01*
X121342329Y-123639024D01*
X121364286Y-123628640D01*
X121387155Y-123620457D01*
X121410715Y-123614556D01*
X121434741Y-123610992D01*
X121459000Y-123609800D01*
X121954000Y-123609800D01*
X121978259Y-123610992D01*
X121978259Y-123610992D01*
G37*
D18*
X121706500Y-124129800D03*
D17*
G36*
X121008259Y-123610992D02*
X121032285Y-123614556D01*
X121055845Y-123620457D01*
X121078714Y-123628640D01*
X121100671Y-123639024D01*
X121121504Y-123651511D01*
X121141012Y-123665980D01*
X121159009Y-123682291D01*
X121175320Y-123700288D01*
X121189789Y-123719796D01*
X121202276Y-123740629D01*
X121212660Y-123762586D01*
X121220843Y-123785455D01*
X121226744Y-123809015D01*
X121230308Y-123833041D01*
X121231500Y-123857300D01*
X121231500Y-124402300D01*
X121230308Y-124426559D01*
X121226744Y-124450585D01*
X121220843Y-124474145D01*
X121212660Y-124497014D01*
X121202276Y-124518971D01*
X121189789Y-124539804D01*
X121175320Y-124559312D01*
X121159009Y-124577309D01*
X121141012Y-124593620D01*
X121121504Y-124608089D01*
X121100671Y-124620576D01*
X121078714Y-124630960D01*
X121055845Y-124639143D01*
X121032285Y-124645044D01*
X121008259Y-124648608D01*
X120984000Y-124649800D01*
X120489000Y-124649800D01*
X120464741Y-124648608D01*
X120440715Y-124645044D01*
X120417155Y-124639143D01*
X120394286Y-124630960D01*
X120372329Y-124620576D01*
X120351496Y-124608089D01*
X120331988Y-124593620D01*
X120313991Y-124577309D01*
X120297680Y-124559312D01*
X120283211Y-124539804D01*
X120270724Y-124518971D01*
X120260340Y-124497014D01*
X120252157Y-124474145D01*
X120246256Y-124450585D01*
X120242692Y-124426559D01*
X120241500Y-124402300D01*
X120241500Y-123857300D01*
X120242692Y-123833041D01*
X120246256Y-123809015D01*
X120252157Y-123785455D01*
X120260340Y-123762586D01*
X120270724Y-123740629D01*
X120283211Y-123719796D01*
X120297680Y-123700288D01*
X120313991Y-123682291D01*
X120331988Y-123665980D01*
X120351496Y-123651511D01*
X120372329Y-123639024D01*
X120394286Y-123628640D01*
X120417155Y-123620457D01*
X120440715Y-123614556D01*
X120464741Y-123610992D01*
X120489000Y-123609800D01*
X120984000Y-123609800D01*
X121008259Y-123610992D01*
X121008259Y-123610992D01*
G37*
D18*
X120736500Y-124129800D03*
G04 #@! TD*
D30*
G04 #@! TO.C,SW1*
X113652300Y-122721900D03*
X113652300Y-126121900D03*
G04 #@! TD*
D15*
G04 #@! TO.C,J5*
X114046000Y-119380000D03*
D16*
X114046000Y-116840000D03*
G04 #@! TD*
D17*
G04 #@! TO.C,D1*
G36*
X117050193Y-118757335D02*
X117081135Y-118761925D01*
X117111478Y-118769525D01*
X117140930Y-118780063D01*
X117169208Y-118793438D01*
X117196038Y-118809519D01*
X117221163Y-118828153D01*
X117244340Y-118849160D01*
X117265347Y-118872337D01*
X117283981Y-118897462D01*
X117300062Y-118924292D01*
X117313437Y-118952570D01*
X117323975Y-118982022D01*
X117331575Y-119012365D01*
X117336165Y-119043307D01*
X117337700Y-119074550D01*
X117337700Y-119787050D01*
X117336165Y-119818293D01*
X117331575Y-119849235D01*
X117323975Y-119879578D01*
X117313437Y-119909030D01*
X117300062Y-119937308D01*
X117283981Y-119964138D01*
X117265347Y-119989263D01*
X117244340Y-120012440D01*
X117221163Y-120033447D01*
X117196038Y-120052081D01*
X117169208Y-120068162D01*
X117140930Y-120081537D01*
X117111478Y-120092075D01*
X117081135Y-120099675D01*
X117050193Y-120104265D01*
X117018950Y-120105800D01*
X116381450Y-120105800D01*
X116350207Y-120104265D01*
X116319265Y-120099675D01*
X116288922Y-120092075D01*
X116259470Y-120081537D01*
X116231192Y-120068162D01*
X116204362Y-120052081D01*
X116179237Y-120033447D01*
X116156060Y-120012440D01*
X116135053Y-119989263D01*
X116116419Y-119964138D01*
X116100338Y-119937308D01*
X116086963Y-119909030D01*
X116076425Y-119879578D01*
X116068825Y-119849235D01*
X116064235Y-119818293D01*
X116062700Y-119787050D01*
X116062700Y-119074550D01*
X116064235Y-119043307D01*
X116068825Y-119012365D01*
X116076425Y-118982022D01*
X116086963Y-118952570D01*
X116100338Y-118924292D01*
X116116419Y-118897462D01*
X116135053Y-118872337D01*
X116156060Y-118849160D01*
X116179237Y-118828153D01*
X116204362Y-118809519D01*
X116231192Y-118793438D01*
X116259470Y-118780063D01*
X116288922Y-118769525D01*
X116319265Y-118761925D01*
X116350207Y-118757335D01*
X116381450Y-118755800D01*
X117018950Y-118755800D01*
X117050193Y-118757335D01*
X117050193Y-118757335D01*
G37*
D29*
X116700200Y-119430800D03*
D17*
G36*
X118625193Y-118757335D02*
X118656135Y-118761925D01*
X118686478Y-118769525D01*
X118715930Y-118780063D01*
X118744208Y-118793438D01*
X118771038Y-118809519D01*
X118796163Y-118828153D01*
X118819340Y-118849160D01*
X118840347Y-118872337D01*
X118858981Y-118897462D01*
X118875062Y-118924292D01*
X118888437Y-118952570D01*
X118898975Y-118982022D01*
X118906575Y-119012365D01*
X118911165Y-119043307D01*
X118912700Y-119074550D01*
X118912700Y-119787050D01*
X118911165Y-119818293D01*
X118906575Y-119849235D01*
X118898975Y-119879578D01*
X118888437Y-119909030D01*
X118875062Y-119937308D01*
X118858981Y-119964138D01*
X118840347Y-119989263D01*
X118819340Y-120012440D01*
X118796163Y-120033447D01*
X118771038Y-120052081D01*
X118744208Y-120068162D01*
X118715930Y-120081537D01*
X118686478Y-120092075D01*
X118656135Y-120099675D01*
X118625193Y-120104265D01*
X118593950Y-120105800D01*
X117956450Y-120105800D01*
X117925207Y-120104265D01*
X117894265Y-120099675D01*
X117863922Y-120092075D01*
X117834470Y-120081537D01*
X117806192Y-120068162D01*
X117779362Y-120052081D01*
X117754237Y-120033447D01*
X117731060Y-120012440D01*
X117710053Y-119989263D01*
X117691419Y-119964138D01*
X117675338Y-119937308D01*
X117661963Y-119909030D01*
X117651425Y-119879578D01*
X117643825Y-119849235D01*
X117639235Y-119818293D01*
X117637700Y-119787050D01*
X117637700Y-119074550D01*
X117639235Y-119043307D01*
X117643825Y-119012365D01*
X117651425Y-118982022D01*
X117661963Y-118952570D01*
X117675338Y-118924292D01*
X117691419Y-118897462D01*
X117710053Y-118872337D01*
X117731060Y-118849160D01*
X117754237Y-118828153D01*
X117779362Y-118809519D01*
X117806192Y-118793438D01*
X117834470Y-118780063D01*
X117863922Y-118769525D01*
X117894265Y-118761925D01*
X117925207Y-118757335D01*
X117956450Y-118755800D01*
X118593950Y-118755800D01*
X118625193Y-118757335D01*
X118625193Y-118757335D01*
G37*
D29*
X118275200Y-119430800D03*
G04 #@! TD*
D17*
G04 #@! TO.C,D4*
G36*
X118587093Y-117182535D02*
X118618035Y-117187125D01*
X118648378Y-117194725D01*
X118677830Y-117205263D01*
X118706108Y-117218638D01*
X118732938Y-117234719D01*
X118758063Y-117253353D01*
X118781240Y-117274360D01*
X118802247Y-117297537D01*
X118820881Y-117322662D01*
X118836962Y-117349492D01*
X118850337Y-117377770D01*
X118860875Y-117407222D01*
X118868475Y-117437565D01*
X118873065Y-117468507D01*
X118874600Y-117499750D01*
X118874600Y-118212250D01*
X118873065Y-118243493D01*
X118868475Y-118274435D01*
X118860875Y-118304778D01*
X118850337Y-118334230D01*
X118836962Y-118362508D01*
X118820881Y-118389338D01*
X118802247Y-118414463D01*
X118781240Y-118437640D01*
X118758063Y-118458647D01*
X118732938Y-118477281D01*
X118706108Y-118493362D01*
X118677830Y-118506737D01*
X118648378Y-118517275D01*
X118618035Y-118524875D01*
X118587093Y-118529465D01*
X118555850Y-118531000D01*
X117918350Y-118531000D01*
X117887107Y-118529465D01*
X117856165Y-118524875D01*
X117825822Y-118517275D01*
X117796370Y-118506737D01*
X117768092Y-118493362D01*
X117741262Y-118477281D01*
X117716137Y-118458647D01*
X117692960Y-118437640D01*
X117671953Y-118414463D01*
X117653319Y-118389338D01*
X117637238Y-118362508D01*
X117623863Y-118334230D01*
X117613325Y-118304778D01*
X117605725Y-118274435D01*
X117601135Y-118243493D01*
X117599600Y-118212250D01*
X117599600Y-117499750D01*
X117601135Y-117468507D01*
X117605725Y-117437565D01*
X117613325Y-117407222D01*
X117623863Y-117377770D01*
X117637238Y-117349492D01*
X117653319Y-117322662D01*
X117671953Y-117297537D01*
X117692960Y-117274360D01*
X117716137Y-117253353D01*
X117741262Y-117234719D01*
X117768092Y-117218638D01*
X117796370Y-117205263D01*
X117825822Y-117194725D01*
X117856165Y-117187125D01*
X117887107Y-117182535D01*
X117918350Y-117181000D01*
X118555850Y-117181000D01*
X118587093Y-117182535D01*
X118587093Y-117182535D01*
G37*
D29*
X118237100Y-117856000D03*
D17*
G36*
X117012093Y-117182535D02*
X117043035Y-117187125D01*
X117073378Y-117194725D01*
X117102830Y-117205263D01*
X117131108Y-117218638D01*
X117157938Y-117234719D01*
X117183063Y-117253353D01*
X117206240Y-117274360D01*
X117227247Y-117297537D01*
X117245881Y-117322662D01*
X117261962Y-117349492D01*
X117275337Y-117377770D01*
X117285875Y-117407222D01*
X117293475Y-117437565D01*
X117298065Y-117468507D01*
X117299600Y-117499750D01*
X117299600Y-118212250D01*
X117298065Y-118243493D01*
X117293475Y-118274435D01*
X117285875Y-118304778D01*
X117275337Y-118334230D01*
X117261962Y-118362508D01*
X117245881Y-118389338D01*
X117227247Y-118414463D01*
X117206240Y-118437640D01*
X117183063Y-118458647D01*
X117157938Y-118477281D01*
X117131108Y-118493362D01*
X117102830Y-118506737D01*
X117073378Y-118517275D01*
X117043035Y-118524875D01*
X117012093Y-118529465D01*
X116980850Y-118531000D01*
X116343350Y-118531000D01*
X116312107Y-118529465D01*
X116281165Y-118524875D01*
X116250822Y-118517275D01*
X116221370Y-118506737D01*
X116193092Y-118493362D01*
X116166262Y-118477281D01*
X116141137Y-118458647D01*
X116117960Y-118437640D01*
X116096953Y-118414463D01*
X116078319Y-118389338D01*
X116062238Y-118362508D01*
X116048863Y-118334230D01*
X116038325Y-118304778D01*
X116030725Y-118274435D01*
X116026135Y-118243493D01*
X116024600Y-118212250D01*
X116024600Y-117499750D01*
X116026135Y-117468507D01*
X116030725Y-117437565D01*
X116038325Y-117407222D01*
X116048863Y-117377770D01*
X116062238Y-117349492D01*
X116078319Y-117322662D01*
X116096953Y-117297537D01*
X116117960Y-117274360D01*
X116141137Y-117253353D01*
X116166262Y-117234719D01*
X116193092Y-117218638D01*
X116221370Y-117205263D01*
X116250822Y-117194725D01*
X116281165Y-117187125D01*
X116312107Y-117182535D01*
X116343350Y-117181000D01*
X116980850Y-117181000D01*
X117012093Y-117182535D01*
X117012093Y-117182535D01*
G37*
D29*
X116662100Y-117856000D03*
G04 #@! TD*
D33*
G04 #@! TO.C,D5*
X175958500Y-136623600D03*
X175958500Y-139423600D03*
G04 #@! TD*
D34*
G04 #@! TO.C,U6*
X116802800Y-125934600D03*
X118502800Y-125934600D03*
X118502800Y-125234600D03*
X116802800Y-125234600D03*
G04 #@! TD*
D17*
G04 #@! TO.C,C1*
G36*
X115983859Y-133072492D02*
X116007885Y-133076056D01*
X116031445Y-133081957D01*
X116054314Y-133090140D01*
X116076271Y-133100524D01*
X116097104Y-133113011D01*
X116116612Y-133127480D01*
X116134609Y-133143791D01*
X116150920Y-133161788D01*
X116165389Y-133181296D01*
X116177876Y-133202129D01*
X116188260Y-133224086D01*
X116196443Y-133246955D01*
X116202344Y-133270515D01*
X116205908Y-133294541D01*
X116207100Y-133318800D01*
X116207100Y-133863800D01*
X116205908Y-133888059D01*
X116202344Y-133912085D01*
X116196443Y-133935645D01*
X116188260Y-133958514D01*
X116177876Y-133980471D01*
X116165389Y-134001304D01*
X116150920Y-134020812D01*
X116134609Y-134038809D01*
X116116612Y-134055120D01*
X116097104Y-134069589D01*
X116076271Y-134082076D01*
X116054314Y-134092460D01*
X116031445Y-134100643D01*
X116007885Y-134106544D01*
X115983859Y-134110108D01*
X115959600Y-134111300D01*
X115464600Y-134111300D01*
X115440341Y-134110108D01*
X115416315Y-134106544D01*
X115392755Y-134100643D01*
X115369886Y-134092460D01*
X115347929Y-134082076D01*
X115327096Y-134069589D01*
X115307588Y-134055120D01*
X115289591Y-134038809D01*
X115273280Y-134020812D01*
X115258811Y-134001304D01*
X115246324Y-133980471D01*
X115235940Y-133958514D01*
X115227757Y-133935645D01*
X115221856Y-133912085D01*
X115218292Y-133888059D01*
X115217100Y-133863800D01*
X115217100Y-133318800D01*
X115218292Y-133294541D01*
X115221856Y-133270515D01*
X115227757Y-133246955D01*
X115235940Y-133224086D01*
X115246324Y-133202129D01*
X115258811Y-133181296D01*
X115273280Y-133161788D01*
X115289591Y-133143791D01*
X115307588Y-133127480D01*
X115327096Y-133113011D01*
X115347929Y-133100524D01*
X115369886Y-133090140D01*
X115392755Y-133081957D01*
X115416315Y-133076056D01*
X115440341Y-133072492D01*
X115464600Y-133071300D01*
X115959600Y-133071300D01*
X115983859Y-133072492D01*
X115983859Y-133072492D01*
G37*
D18*
X115712100Y-133591300D03*
D17*
G36*
X115013859Y-133072492D02*
X115037885Y-133076056D01*
X115061445Y-133081957D01*
X115084314Y-133090140D01*
X115106271Y-133100524D01*
X115127104Y-133113011D01*
X115146612Y-133127480D01*
X115164609Y-133143791D01*
X115180920Y-133161788D01*
X115195389Y-133181296D01*
X115207876Y-133202129D01*
X115218260Y-133224086D01*
X115226443Y-133246955D01*
X115232344Y-133270515D01*
X115235908Y-133294541D01*
X115237100Y-133318800D01*
X115237100Y-133863800D01*
X115235908Y-133888059D01*
X115232344Y-133912085D01*
X115226443Y-133935645D01*
X115218260Y-133958514D01*
X115207876Y-133980471D01*
X115195389Y-134001304D01*
X115180920Y-134020812D01*
X115164609Y-134038809D01*
X115146612Y-134055120D01*
X115127104Y-134069589D01*
X115106271Y-134082076D01*
X115084314Y-134092460D01*
X115061445Y-134100643D01*
X115037885Y-134106544D01*
X115013859Y-134110108D01*
X114989600Y-134111300D01*
X114494600Y-134111300D01*
X114470341Y-134110108D01*
X114446315Y-134106544D01*
X114422755Y-134100643D01*
X114399886Y-134092460D01*
X114377929Y-134082076D01*
X114357096Y-134069589D01*
X114337588Y-134055120D01*
X114319591Y-134038809D01*
X114303280Y-134020812D01*
X114288811Y-134001304D01*
X114276324Y-133980471D01*
X114265940Y-133958514D01*
X114257757Y-133935645D01*
X114251856Y-133912085D01*
X114248292Y-133888059D01*
X114247100Y-133863800D01*
X114247100Y-133318800D01*
X114248292Y-133294541D01*
X114251856Y-133270515D01*
X114257757Y-133246955D01*
X114265940Y-133224086D01*
X114276324Y-133202129D01*
X114288811Y-133181296D01*
X114303280Y-133161788D01*
X114319591Y-133143791D01*
X114337588Y-133127480D01*
X114357096Y-133113011D01*
X114377929Y-133100524D01*
X114399886Y-133090140D01*
X114422755Y-133081957D01*
X114446315Y-133076056D01*
X114470341Y-133072492D01*
X114494600Y-133071300D01*
X114989600Y-133071300D01*
X115013859Y-133072492D01*
X115013859Y-133072492D01*
G37*
D18*
X114742100Y-133591300D03*
G04 #@! TD*
D17*
G04 #@! TO.C,C8*
G36*
X113901059Y-133072492D02*
X113925085Y-133076056D01*
X113948645Y-133081957D01*
X113971514Y-133090140D01*
X113993471Y-133100524D01*
X114014304Y-133113011D01*
X114033812Y-133127480D01*
X114051809Y-133143791D01*
X114068120Y-133161788D01*
X114082589Y-133181296D01*
X114095076Y-133202129D01*
X114105460Y-133224086D01*
X114113643Y-133246955D01*
X114119544Y-133270515D01*
X114123108Y-133294541D01*
X114124300Y-133318800D01*
X114124300Y-133863800D01*
X114123108Y-133888059D01*
X114119544Y-133912085D01*
X114113643Y-133935645D01*
X114105460Y-133958514D01*
X114095076Y-133980471D01*
X114082589Y-134001304D01*
X114068120Y-134020812D01*
X114051809Y-134038809D01*
X114033812Y-134055120D01*
X114014304Y-134069589D01*
X113993471Y-134082076D01*
X113971514Y-134092460D01*
X113948645Y-134100643D01*
X113925085Y-134106544D01*
X113901059Y-134110108D01*
X113876800Y-134111300D01*
X113381800Y-134111300D01*
X113357541Y-134110108D01*
X113333515Y-134106544D01*
X113309955Y-134100643D01*
X113287086Y-134092460D01*
X113265129Y-134082076D01*
X113244296Y-134069589D01*
X113224788Y-134055120D01*
X113206791Y-134038809D01*
X113190480Y-134020812D01*
X113176011Y-134001304D01*
X113163524Y-133980471D01*
X113153140Y-133958514D01*
X113144957Y-133935645D01*
X113139056Y-133912085D01*
X113135492Y-133888059D01*
X113134300Y-133863800D01*
X113134300Y-133318800D01*
X113135492Y-133294541D01*
X113139056Y-133270515D01*
X113144957Y-133246955D01*
X113153140Y-133224086D01*
X113163524Y-133202129D01*
X113176011Y-133181296D01*
X113190480Y-133161788D01*
X113206791Y-133143791D01*
X113224788Y-133127480D01*
X113244296Y-133113011D01*
X113265129Y-133100524D01*
X113287086Y-133090140D01*
X113309955Y-133081957D01*
X113333515Y-133076056D01*
X113357541Y-133072492D01*
X113381800Y-133071300D01*
X113876800Y-133071300D01*
X113901059Y-133072492D01*
X113901059Y-133072492D01*
G37*
D18*
X113629300Y-133591300D03*
D17*
G36*
X112931059Y-133072492D02*
X112955085Y-133076056D01*
X112978645Y-133081957D01*
X113001514Y-133090140D01*
X113023471Y-133100524D01*
X113044304Y-133113011D01*
X113063812Y-133127480D01*
X113081809Y-133143791D01*
X113098120Y-133161788D01*
X113112589Y-133181296D01*
X113125076Y-133202129D01*
X113135460Y-133224086D01*
X113143643Y-133246955D01*
X113149544Y-133270515D01*
X113153108Y-133294541D01*
X113154300Y-133318800D01*
X113154300Y-133863800D01*
X113153108Y-133888059D01*
X113149544Y-133912085D01*
X113143643Y-133935645D01*
X113135460Y-133958514D01*
X113125076Y-133980471D01*
X113112589Y-134001304D01*
X113098120Y-134020812D01*
X113081809Y-134038809D01*
X113063812Y-134055120D01*
X113044304Y-134069589D01*
X113023471Y-134082076D01*
X113001514Y-134092460D01*
X112978645Y-134100643D01*
X112955085Y-134106544D01*
X112931059Y-134110108D01*
X112906800Y-134111300D01*
X112411800Y-134111300D01*
X112387541Y-134110108D01*
X112363515Y-134106544D01*
X112339955Y-134100643D01*
X112317086Y-134092460D01*
X112295129Y-134082076D01*
X112274296Y-134069589D01*
X112254788Y-134055120D01*
X112236791Y-134038809D01*
X112220480Y-134020812D01*
X112206011Y-134001304D01*
X112193524Y-133980471D01*
X112183140Y-133958514D01*
X112174957Y-133935645D01*
X112169056Y-133912085D01*
X112165492Y-133888059D01*
X112164300Y-133863800D01*
X112164300Y-133318800D01*
X112165492Y-133294541D01*
X112169056Y-133270515D01*
X112174957Y-133246955D01*
X112183140Y-133224086D01*
X112193524Y-133202129D01*
X112206011Y-133181296D01*
X112220480Y-133161788D01*
X112236791Y-133143791D01*
X112254788Y-133127480D01*
X112274296Y-133113011D01*
X112295129Y-133100524D01*
X112317086Y-133090140D01*
X112339955Y-133081957D01*
X112363515Y-133076056D01*
X112387541Y-133072492D01*
X112411800Y-133071300D01*
X112906800Y-133071300D01*
X112931059Y-133072492D01*
X112931059Y-133072492D01*
G37*
D18*
X112659300Y-133591300D03*
G04 #@! TD*
D17*
G04 #@! TO.C,C9*
G36*
X126816959Y-129706992D02*
X126840985Y-129710556D01*
X126864545Y-129716457D01*
X126887414Y-129724640D01*
X126909371Y-129735024D01*
X126930204Y-129747511D01*
X126949712Y-129761980D01*
X126967709Y-129778291D01*
X126984020Y-129796288D01*
X126998489Y-129815796D01*
X127010976Y-129836629D01*
X127021360Y-129858586D01*
X127029543Y-129881455D01*
X127035444Y-129905015D01*
X127039008Y-129929041D01*
X127040200Y-129953300D01*
X127040200Y-130498300D01*
X127039008Y-130522559D01*
X127035444Y-130546585D01*
X127029543Y-130570145D01*
X127021360Y-130593014D01*
X127010976Y-130614971D01*
X126998489Y-130635804D01*
X126984020Y-130655312D01*
X126967709Y-130673309D01*
X126949712Y-130689620D01*
X126930204Y-130704089D01*
X126909371Y-130716576D01*
X126887414Y-130726960D01*
X126864545Y-130735143D01*
X126840985Y-130741044D01*
X126816959Y-130744608D01*
X126792700Y-130745800D01*
X126297700Y-130745800D01*
X126273441Y-130744608D01*
X126249415Y-130741044D01*
X126225855Y-130735143D01*
X126202986Y-130726960D01*
X126181029Y-130716576D01*
X126160196Y-130704089D01*
X126140688Y-130689620D01*
X126122691Y-130673309D01*
X126106380Y-130655312D01*
X126091911Y-130635804D01*
X126079424Y-130614971D01*
X126069040Y-130593014D01*
X126060857Y-130570145D01*
X126054956Y-130546585D01*
X126051392Y-130522559D01*
X126050200Y-130498300D01*
X126050200Y-129953300D01*
X126051392Y-129929041D01*
X126054956Y-129905015D01*
X126060857Y-129881455D01*
X126069040Y-129858586D01*
X126079424Y-129836629D01*
X126091911Y-129815796D01*
X126106380Y-129796288D01*
X126122691Y-129778291D01*
X126140688Y-129761980D01*
X126160196Y-129747511D01*
X126181029Y-129735024D01*
X126202986Y-129724640D01*
X126225855Y-129716457D01*
X126249415Y-129710556D01*
X126273441Y-129706992D01*
X126297700Y-129705800D01*
X126792700Y-129705800D01*
X126816959Y-129706992D01*
X126816959Y-129706992D01*
G37*
D18*
X126545200Y-130225800D03*
D17*
G36*
X125846959Y-129706992D02*
X125870985Y-129710556D01*
X125894545Y-129716457D01*
X125917414Y-129724640D01*
X125939371Y-129735024D01*
X125960204Y-129747511D01*
X125979712Y-129761980D01*
X125997709Y-129778291D01*
X126014020Y-129796288D01*
X126028489Y-129815796D01*
X126040976Y-129836629D01*
X126051360Y-129858586D01*
X126059543Y-129881455D01*
X126065444Y-129905015D01*
X126069008Y-129929041D01*
X126070200Y-129953300D01*
X126070200Y-130498300D01*
X126069008Y-130522559D01*
X126065444Y-130546585D01*
X126059543Y-130570145D01*
X126051360Y-130593014D01*
X126040976Y-130614971D01*
X126028489Y-130635804D01*
X126014020Y-130655312D01*
X125997709Y-130673309D01*
X125979712Y-130689620D01*
X125960204Y-130704089D01*
X125939371Y-130716576D01*
X125917414Y-130726960D01*
X125894545Y-130735143D01*
X125870985Y-130741044D01*
X125846959Y-130744608D01*
X125822700Y-130745800D01*
X125327700Y-130745800D01*
X125303441Y-130744608D01*
X125279415Y-130741044D01*
X125255855Y-130735143D01*
X125232986Y-130726960D01*
X125211029Y-130716576D01*
X125190196Y-130704089D01*
X125170688Y-130689620D01*
X125152691Y-130673309D01*
X125136380Y-130655312D01*
X125121911Y-130635804D01*
X125109424Y-130614971D01*
X125099040Y-130593014D01*
X125090857Y-130570145D01*
X125084956Y-130546585D01*
X125081392Y-130522559D01*
X125080200Y-130498300D01*
X125080200Y-129953300D01*
X125081392Y-129929041D01*
X125084956Y-129905015D01*
X125090857Y-129881455D01*
X125099040Y-129858586D01*
X125109424Y-129836629D01*
X125121911Y-129815796D01*
X125136380Y-129796288D01*
X125152691Y-129778291D01*
X125170688Y-129761980D01*
X125190196Y-129747511D01*
X125211029Y-129735024D01*
X125232986Y-129724640D01*
X125255855Y-129716457D01*
X125279415Y-129710556D01*
X125303441Y-129706992D01*
X125327700Y-129705800D01*
X125822700Y-129705800D01*
X125846959Y-129706992D01*
X125846959Y-129706992D01*
G37*
D18*
X125575200Y-130225800D03*
G04 #@! TD*
D17*
G04 #@! TO.C,C10*
G36*
X117353059Y-127090792D02*
X117377085Y-127094356D01*
X117400645Y-127100257D01*
X117423514Y-127108440D01*
X117445471Y-127118824D01*
X117466304Y-127131311D01*
X117485812Y-127145780D01*
X117503809Y-127162091D01*
X117520120Y-127180088D01*
X117534589Y-127199596D01*
X117547076Y-127220429D01*
X117557460Y-127242386D01*
X117565643Y-127265255D01*
X117571544Y-127288815D01*
X117575108Y-127312841D01*
X117576300Y-127337100D01*
X117576300Y-127882100D01*
X117575108Y-127906359D01*
X117571544Y-127930385D01*
X117565643Y-127953945D01*
X117557460Y-127976814D01*
X117547076Y-127998771D01*
X117534589Y-128019604D01*
X117520120Y-128039112D01*
X117503809Y-128057109D01*
X117485812Y-128073420D01*
X117466304Y-128087889D01*
X117445471Y-128100376D01*
X117423514Y-128110760D01*
X117400645Y-128118943D01*
X117377085Y-128124844D01*
X117353059Y-128128408D01*
X117328800Y-128129600D01*
X116833800Y-128129600D01*
X116809541Y-128128408D01*
X116785515Y-128124844D01*
X116761955Y-128118943D01*
X116739086Y-128110760D01*
X116717129Y-128100376D01*
X116696296Y-128087889D01*
X116676788Y-128073420D01*
X116658791Y-128057109D01*
X116642480Y-128039112D01*
X116628011Y-128019604D01*
X116615524Y-127998771D01*
X116605140Y-127976814D01*
X116596957Y-127953945D01*
X116591056Y-127930385D01*
X116587492Y-127906359D01*
X116586300Y-127882100D01*
X116586300Y-127337100D01*
X116587492Y-127312841D01*
X116591056Y-127288815D01*
X116596957Y-127265255D01*
X116605140Y-127242386D01*
X116615524Y-127220429D01*
X116628011Y-127199596D01*
X116642480Y-127180088D01*
X116658791Y-127162091D01*
X116676788Y-127145780D01*
X116696296Y-127131311D01*
X116717129Y-127118824D01*
X116739086Y-127108440D01*
X116761955Y-127100257D01*
X116785515Y-127094356D01*
X116809541Y-127090792D01*
X116833800Y-127089600D01*
X117328800Y-127089600D01*
X117353059Y-127090792D01*
X117353059Y-127090792D01*
G37*
D18*
X117081300Y-127609600D03*
D17*
G36*
X116383059Y-127090792D02*
X116407085Y-127094356D01*
X116430645Y-127100257D01*
X116453514Y-127108440D01*
X116475471Y-127118824D01*
X116496304Y-127131311D01*
X116515812Y-127145780D01*
X116533809Y-127162091D01*
X116550120Y-127180088D01*
X116564589Y-127199596D01*
X116577076Y-127220429D01*
X116587460Y-127242386D01*
X116595643Y-127265255D01*
X116601544Y-127288815D01*
X116605108Y-127312841D01*
X116606300Y-127337100D01*
X116606300Y-127882100D01*
X116605108Y-127906359D01*
X116601544Y-127930385D01*
X116595643Y-127953945D01*
X116587460Y-127976814D01*
X116577076Y-127998771D01*
X116564589Y-128019604D01*
X116550120Y-128039112D01*
X116533809Y-128057109D01*
X116515812Y-128073420D01*
X116496304Y-128087889D01*
X116475471Y-128100376D01*
X116453514Y-128110760D01*
X116430645Y-128118943D01*
X116407085Y-128124844D01*
X116383059Y-128128408D01*
X116358800Y-128129600D01*
X115863800Y-128129600D01*
X115839541Y-128128408D01*
X115815515Y-128124844D01*
X115791955Y-128118943D01*
X115769086Y-128110760D01*
X115747129Y-128100376D01*
X115726296Y-128087889D01*
X115706788Y-128073420D01*
X115688791Y-128057109D01*
X115672480Y-128039112D01*
X115658011Y-128019604D01*
X115645524Y-127998771D01*
X115635140Y-127976814D01*
X115626957Y-127953945D01*
X115621056Y-127930385D01*
X115617492Y-127906359D01*
X115616300Y-127882100D01*
X115616300Y-127337100D01*
X115617492Y-127312841D01*
X115621056Y-127288815D01*
X115626957Y-127265255D01*
X115635140Y-127242386D01*
X115645524Y-127220429D01*
X115658011Y-127199596D01*
X115672480Y-127180088D01*
X115688791Y-127162091D01*
X115706788Y-127145780D01*
X115726296Y-127131311D01*
X115747129Y-127118824D01*
X115769086Y-127108440D01*
X115791955Y-127100257D01*
X115815515Y-127094356D01*
X115839541Y-127090792D01*
X115863800Y-127089600D01*
X116358800Y-127089600D01*
X116383059Y-127090792D01*
X116383059Y-127090792D01*
G37*
D18*
X116111300Y-127609600D03*
G04 #@! TD*
D17*
G04 #@! TO.C,R23*
G36*
X124670659Y-129719692D02*
X124694685Y-129723256D01*
X124718245Y-129729157D01*
X124741114Y-129737340D01*
X124763071Y-129747724D01*
X124783904Y-129760211D01*
X124803412Y-129774680D01*
X124821409Y-129790991D01*
X124837720Y-129808988D01*
X124852189Y-129828496D01*
X124864676Y-129849329D01*
X124875060Y-129871286D01*
X124883243Y-129894155D01*
X124889144Y-129917715D01*
X124892708Y-129941741D01*
X124893900Y-129966000D01*
X124893900Y-130511000D01*
X124892708Y-130535259D01*
X124889144Y-130559285D01*
X124883243Y-130582845D01*
X124875060Y-130605714D01*
X124864676Y-130627671D01*
X124852189Y-130648504D01*
X124837720Y-130668012D01*
X124821409Y-130686009D01*
X124803412Y-130702320D01*
X124783904Y-130716789D01*
X124763071Y-130729276D01*
X124741114Y-130739660D01*
X124718245Y-130747843D01*
X124694685Y-130753744D01*
X124670659Y-130757308D01*
X124646400Y-130758500D01*
X124151400Y-130758500D01*
X124127141Y-130757308D01*
X124103115Y-130753744D01*
X124079555Y-130747843D01*
X124056686Y-130739660D01*
X124034729Y-130729276D01*
X124013896Y-130716789D01*
X123994388Y-130702320D01*
X123976391Y-130686009D01*
X123960080Y-130668012D01*
X123945611Y-130648504D01*
X123933124Y-130627671D01*
X123922740Y-130605714D01*
X123914557Y-130582845D01*
X123908656Y-130559285D01*
X123905092Y-130535259D01*
X123903900Y-130511000D01*
X123903900Y-129966000D01*
X123905092Y-129941741D01*
X123908656Y-129917715D01*
X123914557Y-129894155D01*
X123922740Y-129871286D01*
X123933124Y-129849329D01*
X123945611Y-129828496D01*
X123960080Y-129808988D01*
X123976391Y-129790991D01*
X123994388Y-129774680D01*
X124013896Y-129760211D01*
X124034729Y-129747724D01*
X124056686Y-129737340D01*
X124079555Y-129729157D01*
X124103115Y-129723256D01*
X124127141Y-129719692D01*
X124151400Y-129718500D01*
X124646400Y-129718500D01*
X124670659Y-129719692D01*
X124670659Y-129719692D01*
G37*
D18*
X124398900Y-130238500D03*
D17*
G36*
X123700659Y-129719692D02*
X123724685Y-129723256D01*
X123748245Y-129729157D01*
X123771114Y-129737340D01*
X123793071Y-129747724D01*
X123813904Y-129760211D01*
X123833412Y-129774680D01*
X123851409Y-129790991D01*
X123867720Y-129808988D01*
X123882189Y-129828496D01*
X123894676Y-129849329D01*
X123905060Y-129871286D01*
X123913243Y-129894155D01*
X123919144Y-129917715D01*
X123922708Y-129941741D01*
X123923900Y-129966000D01*
X123923900Y-130511000D01*
X123922708Y-130535259D01*
X123919144Y-130559285D01*
X123913243Y-130582845D01*
X123905060Y-130605714D01*
X123894676Y-130627671D01*
X123882189Y-130648504D01*
X123867720Y-130668012D01*
X123851409Y-130686009D01*
X123833412Y-130702320D01*
X123813904Y-130716789D01*
X123793071Y-130729276D01*
X123771114Y-130739660D01*
X123748245Y-130747843D01*
X123724685Y-130753744D01*
X123700659Y-130757308D01*
X123676400Y-130758500D01*
X123181400Y-130758500D01*
X123157141Y-130757308D01*
X123133115Y-130753744D01*
X123109555Y-130747843D01*
X123086686Y-130739660D01*
X123064729Y-130729276D01*
X123043896Y-130716789D01*
X123024388Y-130702320D01*
X123006391Y-130686009D01*
X122990080Y-130668012D01*
X122975611Y-130648504D01*
X122963124Y-130627671D01*
X122952740Y-130605714D01*
X122944557Y-130582845D01*
X122938656Y-130559285D01*
X122935092Y-130535259D01*
X122933900Y-130511000D01*
X122933900Y-129966000D01*
X122935092Y-129941741D01*
X122938656Y-129917715D01*
X122944557Y-129894155D01*
X122952740Y-129871286D01*
X122963124Y-129849329D01*
X122975611Y-129828496D01*
X122990080Y-129808988D01*
X123006391Y-129790991D01*
X123024388Y-129774680D01*
X123043896Y-129760211D01*
X123064729Y-129747724D01*
X123086686Y-129737340D01*
X123109555Y-129729157D01*
X123133115Y-129723256D01*
X123157141Y-129719692D01*
X123181400Y-129718500D01*
X123676400Y-129718500D01*
X123700659Y-129719692D01*
X123700659Y-129719692D01*
G37*
D18*
X123428900Y-130238500D03*
G04 #@! TD*
D17*
G04 #@! TO.C,R24*
G36*
X123700659Y-130900792D02*
X123724685Y-130904356D01*
X123748245Y-130910257D01*
X123771114Y-130918440D01*
X123793071Y-130928824D01*
X123813904Y-130941311D01*
X123833412Y-130955780D01*
X123851409Y-130972091D01*
X123867720Y-130990088D01*
X123882189Y-131009596D01*
X123894676Y-131030429D01*
X123905060Y-131052386D01*
X123913243Y-131075255D01*
X123919144Y-131098815D01*
X123922708Y-131122841D01*
X123923900Y-131147100D01*
X123923900Y-131692100D01*
X123922708Y-131716359D01*
X123919144Y-131740385D01*
X123913243Y-131763945D01*
X123905060Y-131786814D01*
X123894676Y-131808771D01*
X123882189Y-131829604D01*
X123867720Y-131849112D01*
X123851409Y-131867109D01*
X123833412Y-131883420D01*
X123813904Y-131897889D01*
X123793071Y-131910376D01*
X123771114Y-131920760D01*
X123748245Y-131928943D01*
X123724685Y-131934844D01*
X123700659Y-131938408D01*
X123676400Y-131939600D01*
X123181400Y-131939600D01*
X123157141Y-131938408D01*
X123133115Y-131934844D01*
X123109555Y-131928943D01*
X123086686Y-131920760D01*
X123064729Y-131910376D01*
X123043896Y-131897889D01*
X123024388Y-131883420D01*
X123006391Y-131867109D01*
X122990080Y-131849112D01*
X122975611Y-131829604D01*
X122963124Y-131808771D01*
X122952740Y-131786814D01*
X122944557Y-131763945D01*
X122938656Y-131740385D01*
X122935092Y-131716359D01*
X122933900Y-131692100D01*
X122933900Y-131147100D01*
X122935092Y-131122841D01*
X122938656Y-131098815D01*
X122944557Y-131075255D01*
X122952740Y-131052386D01*
X122963124Y-131030429D01*
X122975611Y-131009596D01*
X122990080Y-130990088D01*
X123006391Y-130972091D01*
X123024388Y-130955780D01*
X123043896Y-130941311D01*
X123064729Y-130928824D01*
X123086686Y-130918440D01*
X123109555Y-130910257D01*
X123133115Y-130904356D01*
X123157141Y-130900792D01*
X123181400Y-130899600D01*
X123676400Y-130899600D01*
X123700659Y-130900792D01*
X123700659Y-130900792D01*
G37*
D18*
X123428900Y-131419600D03*
D17*
G36*
X124670659Y-130900792D02*
X124694685Y-130904356D01*
X124718245Y-130910257D01*
X124741114Y-130918440D01*
X124763071Y-130928824D01*
X124783904Y-130941311D01*
X124803412Y-130955780D01*
X124821409Y-130972091D01*
X124837720Y-130990088D01*
X124852189Y-131009596D01*
X124864676Y-131030429D01*
X124875060Y-131052386D01*
X124883243Y-131075255D01*
X124889144Y-131098815D01*
X124892708Y-131122841D01*
X124893900Y-131147100D01*
X124893900Y-131692100D01*
X124892708Y-131716359D01*
X124889144Y-131740385D01*
X124883243Y-131763945D01*
X124875060Y-131786814D01*
X124864676Y-131808771D01*
X124852189Y-131829604D01*
X124837720Y-131849112D01*
X124821409Y-131867109D01*
X124803412Y-131883420D01*
X124783904Y-131897889D01*
X124763071Y-131910376D01*
X124741114Y-131920760D01*
X124718245Y-131928943D01*
X124694685Y-131934844D01*
X124670659Y-131938408D01*
X124646400Y-131939600D01*
X124151400Y-131939600D01*
X124127141Y-131938408D01*
X124103115Y-131934844D01*
X124079555Y-131928943D01*
X124056686Y-131920760D01*
X124034729Y-131910376D01*
X124013896Y-131897889D01*
X123994388Y-131883420D01*
X123976391Y-131867109D01*
X123960080Y-131849112D01*
X123945611Y-131829604D01*
X123933124Y-131808771D01*
X123922740Y-131786814D01*
X123914557Y-131763945D01*
X123908656Y-131740385D01*
X123905092Y-131716359D01*
X123903900Y-131692100D01*
X123903900Y-131147100D01*
X123905092Y-131122841D01*
X123908656Y-131098815D01*
X123914557Y-131075255D01*
X123922740Y-131052386D01*
X123933124Y-131030429D01*
X123945611Y-131009596D01*
X123960080Y-130990088D01*
X123976391Y-130972091D01*
X123994388Y-130955780D01*
X124013896Y-130941311D01*
X124034729Y-130928824D01*
X124056686Y-130918440D01*
X124079555Y-130910257D01*
X124103115Y-130904356D01*
X124127141Y-130900792D01*
X124151400Y-130899600D01*
X124646400Y-130899600D01*
X124670659Y-130900792D01*
X124670659Y-130900792D01*
G37*
D18*
X124398900Y-131419600D03*
G04 #@! TD*
D35*
G04 #@! TO.C,U7*
X122059600Y-129882200D03*
D36*
X117422100Y-132294700D03*
D35*
X117284600Y-129882200D03*
D36*
X117422100Y-128969700D03*
D35*
X117284600Y-130382200D03*
X117284600Y-130882200D03*
X117284600Y-131382200D03*
D36*
X117922100Y-128969700D03*
X118422100Y-128969700D03*
X118922100Y-128969700D03*
X119422100Y-128969700D03*
X119922100Y-128969700D03*
X120422100Y-128969700D03*
X120922100Y-128969700D03*
X121422100Y-128969700D03*
X121922100Y-128969700D03*
X117922100Y-132294700D03*
X118422100Y-132294700D03*
X118922100Y-132294700D03*
X119422100Y-132294700D03*
X119922100Y-132294700D03*
X120422100Y-132294700D03*
X120922100Y-132294700D03*
X121422100Y-132294700D03*
X121922100Y-132294700D03*
D35*
X122059600Y-130382200D03*
X122059600Y-130882200D03*
X122059600Y-131382200D03*
G04 #@! TD*
M02*
