G04 #@! TF.GenerationSoftware,KiCad,Pcbnew,6.0.0-rc1-unknown-994a9c5~65~ubuntu16.04.1*
G04 #@! TF.CreationDate,2018-07-26T22:21:31+02:00*
G04 #@! TF.ProjectId,roboy_sno,726F626F795F736E6F2E6B696361645F,rev?*
G04 #@! TF.SameCoordinates,Original*
G04 #@! TF.FileFunction,Copper,L2,Inr,Signal*
G04 #@! TF.FilePolarity,Positive*
%FSLAX46Y46*%
G04 Gerber Fmt 4.6, Leading zero omitted, Abs format (unit mm)*
G04 Created by KiCad (PCBNEW 6.0.0-rc1-unknown-994a9c5~65~ubuntu16.04.1) date Thu Jul 26 22:21:31 2018*
%MOMM*%
%LPD*%
G01*
G04 APERTURE LIST*
G04 #@! TA.AperFunction,ViaPad*
%ADD10R,1.700000X1.700000*%
G04 #@! TD*
G04 #@! TA.AperFunction,ViaPad*
%ADD11O,1.700000X1.700000*%
G04 #@! TD*
G04 #@! TA.AperFunction,ViaPad*
%ADD12C,0.301000*%
G04 #@! TD*
G04 #@! TA.AperFunction,Conductor*
%ADD13C,0.152400*%
G04 #@! TD*
G04 #@! TA.AperFunction,Conductor*
%ADD14C,0.300000*%
G04 #@! TD*
G04 #@! TA.AperFunction,Conductor*
%ADD15C,0.254000*%
G04 #@! TD*
G04 APERTURE END LIST*
D10*
G04 #@! TO.N,/TDI*
G04 #@! TO.C,J4*
X157010000Y-111640000D03*
D11*
G04 #@! TO.N,GND*
X157010000Y-114180000D03*
G04 #@! TO.N,Net-(J4-Pad3)*
X159550000Y-111640000D03*
G04 #@! TO.N,Net-(J4-Pad4)*
X159550000Y-114180000D03*
G04 #@! TO.N,/TMS*
X162090000Y-111640000D03*
G04 #@! TO.N,Net-(J4-Pad6)*
X162090000Y-114180000D03*
G04 #@! TO.N,/TDO*
X164630000Y-111640000D03*
G04 #@! TO.N,3.3V*
X164630000Y-114180000D03*
G04 #@! TO.N,/TCK*
X167170000Y-111640000D03*
G04 #@! TO.N,GND*
X167170000Y-114180000D03*
G04 #@! TD*
D10*
G04 #@! TO.N,/ESP8266-12E/ADC*
G04 #@! TO.C,J5*
X194750000Y-114250000D03*
D11*
G04 #@! TO.N,/ESP8266-12E/GPIO2*
X194750000Y-111710000D03*
G04 #@! TO.N,/ESP8266-12E/GPIO16*
X192210000Y-114250000D03*
G04 #@! TO.N,/ESP8266-12E/GPIO4*
X192210000Y-111710000D03*
G04 #@! TO.N,/ESP8266-12E/GPIO15*
X189670000Y-114250000D03*
G04 #@! TO.N,/ESP8266-12E/GPIO5*
X189670000Y-111710000D03*
G04 #@! TO.N,/ESP8266-12E/GPIO14*
X187130000Y-114250000D03*
G04 #@! TO.N,/ESP8266-12E/GPIO9*
X187130000Y-111710000D03*
G04 #@! TO.N,/ESP8266-12E/GPIO13*
X184590000Y-114250000D03*
G04 #@! TO.N,/ESP8266-12E/GPIO10*
X184590000Y-111710000D03*
G04 #@! TO.N,Net-(J5-Pad11)*
X182050000Y-114250000D03*
G04 #@! TO.N,/ESP8266-12E/GPIO12*
X182050000Y-111710000D03*
G04 #@! TD*
D10*
G04 #@! TO.N,/D0*
G04 #@! TO.C,J1*
X152510000Y-114250000D03*
D11*
G04 #@! TO.N,/E0*
X152510000Y-111710000D03*
G04 #@! TO.N,/D1*
X149970000Y-114250000D03*
G04 #@! TO.N,/E1*
X149970000Y-111710000D03*
G04 #@! TO.N,/D2*
X147430000Y-114250000D03*
G04 #@! TO.N,/E2*
X147430000Y-111710000D03*
G04 #@! TO.N,/D3*
X144890000Y-114250000D03*
G04 #@! TO.N,/E3*
X144890000Y-111710000D03*
G04 #@! TO.N,/D4*
X142350000Y-114250000D03*
G04 #@! TO.N,/E4*
X142350000Y-111710000D03*
G04 #@! TO.N,/D5*
X139810000Y-114250000D03*
G04 #@! TO.N,/E5*
X139810000Y-111710000D03*
G04 #@! TO.N,/D6*
X137270000Y-114250000D03*
G04 #@! TO.N,/E6*
X137270000Y-111710000D03*
G04 #@! TO.N,/D7*
X134730000Y-114250000D03*
G04 #@! TO.N,/E7*
X134730000Y-111710000D03*
G04 #@! TO.N,/D8*
X132190000Y-114250000D03*
G04 #@! TO.N,/E8*
X132190000Y-111710000D03*
G04 #@! TO.N,/D9*
X129650000Y-114250000D03*
G04 #@! TO.N,/E9*
X129650000Y-111710000D03*
G04 #@! TO.N,/D10*
X127110000Y-114250000D03*
G04 #@! TO.N,/E10*
X127110000Y-111710000D03*
G04 #@! TO.N,/D11*
X124570000Y-114250000D03*
G04 #@! TO.N,/E11*
X124570000Y-111710000D03*
G04 #@! TO.N,/D12*
X122030000Y-114250000D03*
G04 #@! TO.N,/E12*
X122030000Y-111710000D03*
G04 #@! TO.N,/D13*
X119490000Y-114250000D03*
G04 #@! TO.N,/E13*
X119490000Y-111710000D03*
G04 #@! TO.N,/D14*
X116950000Y-114250000D03*
G04 #@! TO.N,/E14*
X116950000Y-111710000D03*
G04 #@! TO.N,/D15*
X114410000Y-114250000D03*
G04 #@! TO.N,/E15*
X114410000Y-111710000D03*
G04 #@! TD*
G04 #@! TO.N,3.3V*
G04 #@! TO.C,J2*
X114400000Y-137210000D03*
G04 #@! TO.N,GND*
X114400000Y-139750000D03*
G04 #@! TO.N,3.3V*
X116940000Y-137210000D03*
G04 #@! TO.N,GND*
X116940000Y-139750000D03*
G04 #@! TO.N,3.3V*
X119480000Y-137210000D03*
G04 #@! TO.N,GND*
X119480000Y-139750000D03*
G04 #@! TO.N,3.3V*
X122020000Y-137210000D03*
G04 #@! TO.N,GND*
X122020000Y-139750000D03*
G04 #@! TO.N,3.3V*
X124560000Y-137210000D03*
G04 #@! TO.N,GND*
X124560000Y-139750000D03*
G04 #@! TO.N,/E42*
X127100000Y-137210000D03*
G04 #@! TO.N,/D42*
X127100000Y-139750000D03*
G04 #@! TO.N,/E41*
X129640000Y-137210000D03*
G04 #@! TO.N,/D41*
X129640000Y-139750000D03*
G04 #@! TO.N,/E40*
X132180000Y-137210000D03*
G04 #@! TO.N,/D40*
X132180000Y-139750000D03*
G04 #@! TO.N,/E39*
X134720000Y-137210000D03*
G04 #@! TO.N,/D39*
X134720000Y-139750000D03*
G04 #@! TO.N,/E38*
X137260000Y-137210000D03*
G04 #@! TO.N,/D38*
X137260000Y-139750000D03*
G04 #@! TO.N,/E37*
X139800000Y-137210000D03*
G04 #@! TO.N,/D37*
X139800000Y-139750000D03*
G04 #@! TO.N,/E36*
X142340000Y-137210000D03*
G04 #@! TO.N,/D36*
X142340000Y-139750000D03*
G04 #@! TO.N,/E35*
X144880000Y-137210000D03*
G04 #@! TO.N,/D35*
X144880000Y-139750000D03*
G04 #@! TO.N,/E34*
X147420000Y-137210000D03*
G04 #@! TO.N,/D34*
X147420000Y-139750000D03*
G04 #@! TO.N,/E33*
X149960000Y-137210000D03*
G04 #@! TO.N,/D33*
X149960000Y-139750000D03*
G04 #@! TO.N,/E32*
X152500000Y-137210000D03*
D10*
G04 #@! TO.N,/D32*
X152500000Y-139750000D03*
G04 #@! TD*
G04 #@! TO.N,/D16*
G04 #@! TO.C,J3*
X194750000Y-139760000D03*
D11*
G04 #@! TO.N,/E16*
X194750000Y-137220000D03*
G04 #@! TO.N,/D17*
X192210000Y-139760000D03*
G04 #@! TO.N,/E17*
X192210000Y-137220000D03*
G04 #@! TO.N,/D18*
X189670000Y-139760000D03*
G04 #@! TO.N,/E18*
X189670000Y-137220000D03*
G04 #@! TO.N,/D19*
X187130000Y-139760000D03*
G04 #@! TO.N,/E19*
X187130000Y-137220000D03*
G04 #@! TO.N,/D20*
X184590000Y-139760000D03*
G04 #@! TO.N,/E20*
X184590000Y-137220000D03*
G04 #@! TO.N,/D21*
X182050000Y-139760000D03*
G04 #@! TO.N,/E21*
X182050000Y-137220000D03*
G04 #@! TO.N,/D22*
X179510000Y-139760000D03*
G04 #@! TO.N,/E22*
X179510000Y-137220000D03*
G04 #@! TO.N,/D23*
X176970000Y-139760000D03*
G04 #@! TO.N,/E23*
X176970000Y-137220000D03*
G04 #@! TO.N,/D24*
X174430000Y-139760000D03*
G04 #@! TO.N,/E24*
X174430000Y-137220000D03*
G04 #@! TO.N,/D25*
X171890000Y-139760000D03*
G04 #@! TO.N,/E25*
X171890000Y-137220000D03*
G04 #@! TO.N,/D26*
X169350000Y-139760000D03*
G04 #@! TO.N,/E26*
X169350000Y-137220000D03*
G04 #@! TO.N,/D27*
X166810000Y-139760000D03*
G04 #@! TO.N,/E27*
X166810000Y-137220000D03*
G04 #@! TO.N,/D28*
X164270000Y-139760000D03*
G04 #@! TO.N,/E28*
X164270000Y-137220000D03*
G04 #@! TO.N,/D29*
X161730000Y-139760000D03*
G04 #@! TO.N,/E29*
X161730000Y-137220000D03*
G04 #@! TO.N,/D30*
X159190000Y-139760000D03*
G04 #@! TO.N,/E30*
X159190000Y-137220000D03*
G04 #@! TO.N,/D31*
X156650000Y-139760000D03*
G04 #@! TO.N,/E31*
X156650000Y-137220000D03*
G04 #@! TD*
D12*
G04 #@! TO.N,GND*
X133654800Y-122682000D03*
X137642600Y-121881900D03*
X135242300Y-123482100D03*
X140840000Y-123490000D03*
X140830000Y-125895100D03*
X136842500Y-125882400D03*
X134442200Y-127495300D03*
X139240000Y-128280000D03*
X136842500Y-129082800D03*
X131590000Y-131030000D03*
X134450000Y-124300000D03*
X174441935Y-120078065D03*
X174280000Y-112710000D03*
X167590000Y-121520000D03*
X171670000Y-125470000D03*
X131448601Y-123090901D03*
X129100000Y-123080000D03*
X125770000Y-135210000D03*
X129130000Y-129840000D03*
X139260000Y-135370000D03*
X125520000Y-132070000D03*
X157680000Y-125880001D03*
X162350000Y-125830000D03*
X150310000Y-131330000D03*
X157900000Y-137970000D03*
X195780000Y-135520000D03*
X142650000Y-119390000D03*
X178690000Y-117240000D03*
X174548800Y-129984500D03*
X181025800Y-131381500D03*
X149910800Y-121221500D03*
G04 #@! TO.N,3.3V*
X180400000Y-116200000D03*
X171000000Y-126800000D03*
X180800000Y-120300000D03*
X165700000Y-116800000D03*
X162900000Y-120600000D03*
X136842500Y-121881900D03*
X135255000Y-122694700D03*
X135242300Y-128295400D03*
X137630000Y-126682500D03*
X138450000Y-129100000D03*
X169130000Y-127090000D03*
X169150000Y-128290000D03*
X169120000Y-129210000D03*
X118230000Y-123520000D03*
X118200000Y-130010000D03*
X125030000Y-127340000D03*
X156300000Y-115940000D03*
X158610000Y-118690000D03*
X134442200Y-125095000D03*
X132842000Y-124282200D03*
X128220000Y-125170000D03*
X133629400Y-127495300D03*
X131680000Y-129331452D03*
X130838201Y-119450000D03*
X140042900Y-126695200D03*
X143960000Y-126680000D03*
X145730000Y-128380000D03*
X151660000Y-134780000D03*
X167750000Y-131100000D03*
X128960000Y-135250000D03*
X126900000Y-134280000D03*
X174409100Y-126593600D03*
X140042900Y-123494800D03*
X117017800Y-120624600D03*
G04 #@! TO.N,VDD5V*
X160782000Y-123444000D03*
X173795000Y-125730000D03*
G04 #@! TO.N,Net-(C8-Pad2)*
X171750000Y-118250000D03*
X171000000Y-124500000D03*
G04 #@! TO.N,Net-(C10-Pad1)*
X169200000Y-119700000D03*
X172800000Y-123400000D03*
G04 #@! TO.N,Net-(C11-Pad2)*
X172250000Y-118250000D03*
X171500000Y-124500000D03*
G04 #@! TO.N,/ESP8266-12E/GPIO9*
X181775100Y-122999500D03*
G04 #@! TO.N,/ESP8266-12E/GPIO10*
X181483000Y-121500900D03*
G04 #@! TO.N,/ESP8266-12E/GPIO15*
X181127400Y-130810000D03*
G04 #@! TO.N,Net-(L1-Pad2)*
X174244000Y-123698000D03*
X166370000Y-120396000D03*
G04 #@! TO.N,GPIO0*
X162200000Y-118600000D03*
X183057800Y-125920500D03*
G04 #@! TO.N,RESET*
X167970200Y-117830600D03*
X182740300Y-116230400D03*
X194627500Y-116395500D03*
G04 #@! TO.N,DTR*
X166300000Y-119400000D03*
X170800000Y-118500000D03*
G04 #@! TO.N,Net-(R1-Pad1)*
X135242300Y-121881900D03*
X120330000Y-127830000D03*
G04 #@! TO.N,Net-(R2-Pad2)*
X137642600Y-123494800D03*
X122360000Y-128100000D03*
X133642100Y-123482100D03*
G04 #@! TO.N,Net-(R3-Pad1)*
X134442200Y-121881900D03*
X119990000Y-124310000D03*
G04 #@! TO.N,Net-(R4-Pad2)*
X136840000Y-122690000D03*
X122340000Y-128590000D03*
G04 #@! TO.N,RESET_N*
X138820000Y-118800000D03*
X137740000Y-117940000D03*
X136400000Y-115950000D03*
X125650000Y-116380000D03*
X117060000Y-124230000D03*
G04 #@! TO.N,Net-(R9-Pad2)*
X177774600Y-132651500D03*
X189941200Y-120116600D03*
G04 #@! TO.N,Net-(U2-Pad3)*
X136042400Y-125890000D03*
X131570000Y-126370000D03*
G04 #@! TO.N,SPI_MOSI*
X173630000Y-133180000D03*
X138400000Y-133240000D03*
X135242300Y-129890000D03*
X176542700Y-129133600D03*
G04 #@! TO.N,SPI_MISO*
X136042400Y-129900000D03*
X138860000Y-133619100D03*
X174120000Y-133620000D03*
X180950000Y-134050000D03*
X182321200Y-126720600D03*
X180047900Y-123977400D03*
G04 #@! TO.N,SPI_CSO*
X180467000Y-130911600D03*
X180111400Y-121081800D03*
G04 #@! TO.N,SPI_CLK*
X173920000Y-132610000D03*
X176428400Y-131229100D03*
G04 #@! TO.N,Net-(U4-Pad21)*
X173164500Y-118910100D03*
X191871600Y-131356100D03*
G04 #@! TO.N,Net-(U4-Pad22)*
X168500000Y-119800000D03*
X193840100Y-131838700D03*
G04 #@! TO.N,/D0*
X139240000Y-121890000D03*
X148932900Y-115976400D03*
G04 #@! TO.N,/E0*
X139242800Y-122694700D03*
G04 #@! TO.N,/D1*
X141560000Y-117170000D03*
G04 #@! TO.N,/E1*
X141750000Y-117780000D03*
G04 #@! TO.N,/D2*
X142080000Y-118300000D03*
G04 #@! TO.N,/D3*
X137642600Y-122690000D03*
G04 #@! TO.N,/E3*
X138440000Y-123494800D03*
G04 #@! TO.N,/D5*
X136842500Y-121094500D03*
G04 #@! TO.N,/E5*
X135240000Y-121090000D03*
G04 #@! TO.N,/D7*
X136842500Y-123494800D03*
G04 #@! TO.N,/E7*
X136050000Y-122690000D03*
X136500000Y-119430000D03*
G04 #@! TO.N,/D8*
X133640000Y-121090000D03*
G04 #@! TO.N,/E8*
X134442200Y-121094500D03*
G04 #@! TO.N,/E9*
X132842000Y-121100000D03*
G04 #@! TO.N,/D10*
X140040000Y-122690000D03*
G04 #@! TO.N,/E10*
X140830300Y-122694700D03*
G04 #@! TO.N,/D11*
X130080000Y-119540000D03*
X138440000Y-122682000D03*
G04 #@! TO.N,/E11*
X139242800Y-123482100D03*
G04 #@! TO.N,/D12*
X141560000Y-120150000D03*
G04 #@! TO.N,/E12*
X141630400Y-121081800D03*
G04 #@! TO.N,/D13*
X140042900Y-121881900D03*
X122530000Y-118630000D03*
G04 #@! TO.N,/E13*
X140840000Y-121894600D03*
X123250000Y-118180000D03*
G04 #@! TO.N,/D14*
X140042900Y-121094500D03*
G04 #@! TO.N,/E14*
X140850000Y-121081800D03*
G04 #@! TO.N,/D15*
X138442700Y-124290000D03*
G04 #@! TO.N,/E15*
X137630000Y-124280000D03*
G04 #@! TO.N,/D16*
X140042900Y-124282200D03*
X186730000Y-135790000D03*
G04 #@! TO.N,/E16*
X139240000Y-124290000D03*
X170110000Y-131840000D03*
G04 #@! TO.N,/D17*
X141643100Y-123482100D03*
G04 #@! TO.N,/E17*
X141630400Y-124282200D03*
X187350000Y-135490000D03*
G04 #@! TO.N,/D18*
X143543065Y-123913065D03*
G04 #@! TO.N,/E18*
X171488100Y-126136400D03*
G04 #@! TO.N,/D19*
X140042900Y-125090000D03*
G04 #@! TO.N,/E19*
X139240000Y-125090000D03*
G04 #@! TO.N,/D20*
X140042900Y-127495300D03*
G04 #@! TO.N,/E20*
X140030200Y-128295400D03*
X178580000Y-138530000D03*
G04 #@! TO.N,/D21*
X141630000Y-129082800D03*
X155040000Y-135060000D03*
G04 #@! TO.N,/E21*
X140830300Y-128282700D03*
G04 #@! TO.N,/D22*
X141630400Y-127495300D03*
X173620000Y-135130000D03*
G04 #@! TO.N,/E22*
X141630400Y-128295400D03*
G04 #@! TO.N,/D23*
X140042900Y-125882400D03*
X172650000Y-135440000D03*
G04 #@! TO.N,/E23*
X139242800Y-127482600D03*
G04 #@! TO.N,/D24*
X166160000Y-131851799D03*
G04 #@! TO.N,/E24*
X165630000Y-131851799D03*
G04 #@! TO.N,/D25*
X138430000Y-125882400D03*
G04 #@! TO.N,/E25*
X139230100Y-125895100D03*
G04 #@! TO.N,/D26*
X141643100Y-125095000D03*
X167810000Y-135260000D03*
G04 #@! TO.N,/E26*
X166810000Y-131790000D03*
G04 #@! TO.N,/D27*
X140030000Y-129080000D03*
G04 #@! TO.N,/E27*
X140040000Y-129880000D03*
X165580000Y-139210000D03*
G04 #@! TO.N,/D28*
X138442700Y-127482600D03*
G04 #@! TO.N,/E28*
X138440000Y-126690000D03*
G04 #@! TO.N,/D29*
X140830300Y-129095500D03*
G04 #@! TO.N,/E29*
X140830300Y-129882900D03*
G04 #@! TO.N,/D30*
X141630400Y-129895600D03*
G04 #@! TO.N,/E30*
X153840000Y-131490000D03*
G04 #@! TO.N,/D31*
X142080000Y-131570000D03*
X137640000Y-128295400D03*
G04 #@! TO.N,/E31*
X137629900Y-127482600D03*
G04 #@! TO.N,/D32*
X136840000Y-128290000D03*
G04 #@! TO.N,/E32*
X136840000Y-127482600D03*
G04 #@! TO.N,/D33*
X137642600Y-129882900D03*
G04 #@! TO.N,/E33*
X136800000Y-130750000D03*
G04 #@! TO.N,/D34*
X136040000Y-127482600D03*
G04 #@! TO.N,/E34*
X136042400Y-128295400D03*
X136110000Y-133070000D03*
G04 #@! TO.N,/D35*
X135240000Y-129100000D03*
G04 #@! TO.N,/E35*
X136029700Y-129095500D03*
X136370000Y-132400000D03*
G04 #@! TO.N,/D36*
X138390000Y-130790000D03*
G04 #@! TO.N,/E36*
X139900000Y-130830000D03*
G04 #@! TO.N,/D37*
X139240000Y-129880000D03*
X138720000Y-131200000D03*
G04 #@! TO.N,/E37*
X138440000Y-129880000D03*
G04 #@! TO.N,/D38*
X133640000Y-128290000D03*
G04 #@! TO.N,/E38*
X131840000Y-128320000D03*
G04 #@! TO.N,/E42*
X135250000Y-125890000D03*
G04 #@! TO.N,/D42*
X134442200Y-126695200D03*
G04 #@! TO.N,/E41*
X131920000Y-129820000D03*
G04 #@! TO.N,/D41*
X133642100Y-129882900D03*
G04 #@! TO.N,/E39*
X134442200Y-129882900D03*
G04 #@! TO.N,/D39*
X134430000Y-129090000D03*
G04 #@! TO.N,/TCK*
X133640000Y-125890000D03*
X158088601Y-115830000D03*
G04 #@! TO.N,/TDO*
X136842500Y-124282200D03*
G04 #@! TO.N,/TMS*
X161011399Y-115703601D03*
X135040000Y-119800000D03*
X131220000Y-120110000D03*
G04 #@! TO.N,/TDI*
X135240000Y-124290000D03*
G04 #@! TO.N,Net-(R7-Pad2)*
X136040000Y-123482100D03*
X146330000Y-117770000D03*
G04 #@! TO.N,Net-(D5-Pad1)*
X167132000Y-121158000D03*
X173736000Y-120904000D03*
G04 #@! TO.N,Net-(SW1-Pad2)*
X128016000Y-119380000D03*
X134620000Y-119380000D03*
G04 #@! TD*
D13*
G04 #@! TO.N,GND*
X131448601Y-123090901D02*
X129110901Y-123090901D01*
X129110901Y-123090901D02*
X129100000Y-123080000D01*
X139260000Y-133458030D02*
X139260000Y-135370000D01*
X137179101Y-131377131D02*
X139260000Y-133458030D01*
X136810000Y-129080000D02*
X137179101Y-129449101D01*
X137179101Y-129449101D02*
X137179101Y-131377131D01*
X157680000Y-125880001D02*
X162299999Y-125880001D01*
X162299999Y-125880001D02*
X162350000Y-125830000D01*
X157900000Y-137970000D02*
X157900000Y-140066330D01*
X158894681Y-141061011D02*
X196098989Y-141061011D01*
X157900000Y-140066330D02*
X158894681Y-141061011D01*
X196098989Y-141061011D02*
X196300000Y-140860000D01*
X196300000Y-140860000D02*
X196300000Y-136040000D01*
X196300000Y-136040000D02*
X195780000Y-135520000D01*
X174548800Y-129984500D02*
X174548800Y-129425700D01*
X174117000Y-128993900D02*
X173672500Y-128993900D01*
X174548800Y-129425700D02*
X174117000Y-128993900D01*
X173672500Y-127472500D02*
X171670000Y-125470000D01*
X173672500Y-128993900D02*
X173672500Y-127472500D01*
X181267469Y-131231001D02*
X182486300Y-130012170D01*
X181176299Y-131231001D02*
X181267469Y-131231001D01*
X181025800Y-131381500D02*
X181176299Y-131231001D01*
X182486300Y-130012170D02*
X182486300Y-129578100D01*
G04 #@! TO.N,3.3V*
X140110000Y-126680001D02*
X140322840Y-126680000D01*
X140322840Y-126680000D02*
X143960000Y-126680000D01*
X138890601Y-127110899D02*
X138040899Y-127110899D01*
X138040899Y-127110899D02*
X137630000Y-126700000D01*
X139321499Y-126680001D02*
X138890601Y-127110899D01*
X140110000Y-126680001D02*
X139321499Y-126680001D01*
D14*
G04 #@! TO.N,VDD5V*
X171659499Y-123594499D02*
X173795000Y-125730000D01*
X160932499Y-123594499D02*
X171659499Y-123594499D01*
X160782000Y-123444000D02*
X160932499Y-123594499D01*
D13*
G04 #@! TO.N,Net-(C10-Pad1)*
X169200000Y-119700000D02*
X172800000Y-123300000D01*
X172800000Y-123300000D02*
X172800000Y-123400000D01*
G04 #@! TO.N,/ESP8266-12E/GPIO9*
X186280001Y-112559999D02*
X187130000Y-111710000D01*
X186051399Y-112788601D02*
X186280001Y-112559999D01*
X186051399Y-118723201D02*
X186051399Y-112788601D01*
X181775100Y-122999500D02*
X186051399Y-118723201D01*
G04 #@! TO.N,/ESP8266-12E/GPIO10*
X183740001Y-112559999D02*
X184590000Y-111710000D01*
X183128601Y-119855299D02*
X183128601Y-113171399D01*
X183128601Y-113171399D02*
X183740001Y-112559999D01*
X181483000Y-121500900D02*
X183128601Y-119855299D01*
G04 #@! TO.N,Net-(L1-Pad2)*
X174244000Y-123698000D02*
X173736000Y-123698000D01*
X167445101Y-119320899D02*
X166370000Y-120396000D01*
X169358899Y-119320899D02*
X167445101Y-119320899D01*
X173736000Y-123698000D02*
X169358899Y-119320899D01*
G04 #@! TO.N,RESET*
X181140100Y-117830600D02*
X182740300Y-116230400D01*
X167970200Y-117830600D02*
X181140100Y-117830600D01*
G04 #@! TO.N,Net-(R2-Pad2)*
X134019102Y-123090899D02*
X133640000Y-123470001D01*
X137630000Y-123480000D02*
X137240899Y-123090899D01*
X137240899Y-123090899D02*
X134019102Y-123090899D01*
G04 #@! TO.N,RESET_N*
X136400000Y-115950000D02*
X126080000Y-115950000D01*
X126080000Y-115950000D02*
X125650000Y-116380000D01*
G04 #@! TO.N,Net-(U2-Pad3)*
X131670899Y-126269101D02*
X131570000Y-126370000D01*
X136050000Y-125890000D02*
X135670899Y-126269101D01*
X135670899Y-126269101D02*
X131670899Y-126269101D01*
G04 #@! TO.N,SPI_MISO*
X182321200Y-126250700D02*
X180047900Y-123977400D01*
X182321200Y-126720600D02*
X182321200Y-126250700D01*
G04 #@! TO.N,Net-(U4-Pad22)*
X168500000Y-119800000D02*
X168500000Y-123100000D01*
X180677630Y-131838700D02*
X193840100Y-131838700D01*
X171938930Y-123100000D02*
X180677630Y-131838700D01*
X168500000Y-123100000D02*
X171938930Y-123100000D01*
G04 #@! TO.N,/D3*
X138339983Y-123849101D02*
X138143299Y-123652417D01*
X138143299Y-123203299D02*
X137630000Y-122690000D01*
X144890000Y-119099118D02*
X140992417Y-122996701D01*
X140409101Y-123651969D02*
X140211969Y-123849101D01*
X144890000Y-114250000D02*
X144890000Y-119099118D01*
X138143299Y-123652417D02*
X138143299Y-123203299D01*
X140211969Y-123849101D02*
X138339983Y-123849101D01*
X140992417Y-122996701D02*
X140700431Y-122996701D01*
X140700431Y-122996701D02*
X140409101Y-123288031D01*
X140409101Y-123288031D02*
X140409101Y-123651969D01*
G04 #@! TO.N,/E3*
X138590499Y-123359501D02*
X138440000Y-123510000D01*
X138859101Y-123090899D02*
X138590499Y-123359501D01*
X140078219Y-123090899D02*
X138859101Y-123090899D01*
X140336701Y-122774181D02*
X140336701Y-122832417D01*
X140707583Y-122403299D02*
X140336701Y-122774181D01*
X140755819Y-122403299D02*
X140707583Y-122403299D01*
X143346201Y-119812917D02*
X140755819Y-122403299D01*
X140336701Y-122832417D02*
X140078219Y-123090899D01*
X143346201Y-113253799D02*
X143346201Y-119812917D01*
X144890000Y-111710000D02*
X143346201Y-113253799D01*
G04 #@! TO.N,/D11*
X138019101Y-122259101D02*
X138440000Y-122680000D01*
X130080000Y-119540000D02*
X132799101Y-122259101D01*
X132799101Y-122259101D02*
X138019101Y-122259101D01*
G04 #@! TO.N,/D12*
X141409501Y-119999501D02*
X141409501Y-119909501D01*
X141560000Y-120150000D02*
X141409501Y-119999501D01*
X141409501Y-119909501D02*
X138600000Y-117100000D01*
X124880000Y-117100000D02*
X122030000Y-114250000D01*
X138600000Y-117100000D02*
X124880000Y-117100000D01*
G04 #@! TO.N,/E12*
X141856701Y-120843299D02*
X141856701Y-119916701D01*
X141630000Y-121070000D02*
X141856701Y-120843299D01*
X141856701Y-119916701D02*
X138750000Y-116810000D01*
X138750000Y-116810000D02*
X125190000Y-116810000D01*
X122879999Y-112559999D02*
X122030000Y-111710000D01*
X123026201Y-112706201D02*
X122879999Y-112559999D01*
X123026201Y-114646201D02*
X123026201Y-112706201D01*
X125190000Y-116810000D02*
X123026201Y-114646201D01*
G04 #@! TO.N,/D13*
X139679118Y-121890000D02*
X136419118Y-118630000D01*
X140040000Y-121890000D02*
X139679118Y-121890000D01*
X136419118Y-118630000D02*
X122530000Y-118630000D01*
G04 #@! TO.N,/E13*
X139897583Y-121593299D02*
X136484284Y-118180000D01*
X136484284Y-118180000D02*
X123250000Y-118180000D01*
X140840000Y-121880000D02*
X140553299Y-121593299D01*
X140553299Y-121593299D02*
X139897583Y-121593299D01*
G04 #@! TO.N,/D14*
X140030000Y-120867161D02*
X137002839Y-117840000D01*
X140030000Y-121080000D02*
X140030000Y-120867161D01*
X120540000Y-117840000D02*
X116950000Y-114250000D01*
X137002839Y-117840000D02*
X120540000Y-117840000D01*
G04 #@! TO.N,/E14*
X140850000Y-121080000D02*
X140850000Y-119870000D01*
X140850000Y-119870000D02*
X138450000Y-117470000D01*
X138450000Y-117470000D02*
X123460000Y-117470000D01*
X120486201Y-114496201D02*
X120486201Y-113266201D01*
X123460000Y-117470000D02*
X120486201Y-114496201D01*
X117946201Y-112706201D02*
X117799999Y-112559999D01*
X119926201Y-112706201D02*
X117946201Y-112706201D01*
X117799999Y-112559999D02*
X116950000Y-111710000D01*
X120486201Y-113266201D02*
X119926201Y-112706201D01*
G04 #@! TO.N,/D15*
X138309501Y-124440499D02*
X138460000Y-124290000D01*
X138060899Y-124689101D02*
X138309501Y-124440499D01*
X124849101Y-124689101D02*
X138060899Y-124689101D01*
X114410000Y-114250000D02*
X124849101Y-124689101D01*
G04 #@! TO.N,/E15*
X115406201Y-114180579D02*
X122535622Y-121310000D01*
X114410000Y-111710000D02*
X115406201Y-112706201D01*
X115406201Y-112706201D02*
X115406201Y-114180579D01*
X122535622Y-121310000D02*
X130480000Y-121310000D01*
X137479501Y-124129501D02*
X137630000Y-124280000D01*
X137199101Y-123849101D02*
X137479501Y-124129501D01*
X133019101Y-123849101D02*
X137199101Y-123849101D01*
X130480000Y-121310000D02*
X133019101Y-123849101D01*
G04 #@! TO.N,/E19*
X186133799Y-136223799D02*
X186280001Y-136370001D01*
X179862729Y-136223799D02*
X186133799Y-136223799D01*
X169025631Y-125386701D02*
X179862729Y-136223799D01*
X186280001Y-136370001D02*
X187130000Y-137220000D01*
X139536701Y-125386701D02*
X169025631Y-125386701D01*
X139240000Y-125090000D02*
X139536701Y-125386701D01*
G04 #@! TO.N,/D20*
X139848031Y-127059101D02*
X163169101Y-127059101D01*
X183593799Y-138763799D02*
X183740001Y-138910001D01*
X179579421Y-138763799D02*
X183593799Y-138763799D01*
X178513799Y-137698177D02*
X179579421Y-138763799D01*
X178513799Y-136741823D02*
X178513799Y-137698177D01*
X172111389Y-136001389D02*
X177773365Y-136001389D01*
X183740001Y-138910001D02*
X184590000Y-139760000D01*
X177773365Y-136001389D02*
X178513799Y-136741823D01*
X163169101Y-127059101D02*
X172111389Y-136001389D01*
X140040000Y-127267161D02*
X139848031Y-127075192D01*
X139848031Y-127075192D02*
X139848031Y-127059101D01*
X140040000Y-127480000D02*
X140040000Y-127267161D01*
G04 #@! TO.N,/D23*
X163469101Y-126259101D02*
X172650000Y-135440000D01*
X140040000Y-125910000D02*
X140389101Y-126259101D01*
X140389101Y-126259101D02*
X163469101Y-126259101D01*
G04 #@! TO.N,/E23*
X141209101Y-128251781D02*
X141487583Y-127973299D01*
X141209101Y-128320017D02*
X141209101Y-128251781D01*
X139230000Y-127470000D02*
X139230000Y-127682839D01*
X139713299Y-128166138D02*
X139713299Y-128402417D01*
X141487583Y-127973299D02*
X163563299Y-127973299D01*
X139877583Y-128566701D02*
X140962417Y-128566701D01*
X139713299Y-128402417D02*
X139877583Y-128566701D01*
X139230000Y-127682839D02*
X139713299Y-128166138D01*
X140962417Y-128566701D02*
X141209101Y-128320017D01*
X175973799Y-136223799D02*
X176120001Y-136370001D01*
X171813799Y-136223799D02*
X175973799Y-136223799D01*
X176120001Y-136370001D02*
X176970000Y-137220000D01*
X163563299Y-127973299D02*
X171813799Y-136223799D01*
G04 #@! TO.N,/D24*
X173580001Y-138910001D02*
X174430000Y-139760000D01*
X173433799Y-138763799D02*
X173580001Y-138910001D01*
X169419421Y-138763799D02*
X173433799Y-138763799D01*
X168353799Y-137698177D02*
X169419421Y-138763799D01*
X168353799Y-134045598D02*
X168353799Y-137698177D01*
X166160000Y-131851799D02*
X168353799Y-134045598D01*
G04 #@! TO.N,/E26*
X166810000Y-131790000D02*
X169970000Y-134950000D01*
X169970000Y-134950000D02*
X170070000Y-134950000D01*
X169350000Y-135670000D02*
X169350000Y-137220000D01*
X170070000Y-134950000D02*
X169350000Y-135670000D01*
G04 #@! TO.N,/D27*
X165813799Y-138763799D02*
X165960001Y-138910001D01*
X165960001Y-138910001D02*
X166810000Y-139760000D01*
X140316701Y-129366701D02*
X160431079Y-129366701D01*
X165813799Y-134749421D02*
X165813799Y-138763799D01*
X160431079Y-129366701D02*
X165813799Y-134749421D01*
X140030000Y-129080000D02*
X140316701Y-129366701D01*
G04 #@! TO.N,/D29*
X162579999Y-140609999D02*
X161730000Y-139760000D01*
X167288177Y-140756201D02*
X162726201Y-140756201D01*
X167806201Y-140238177D02*
X167288177Y-140756201D01*
X167806201Y-136427288D02*
X167806201Y-140238177D01*
X160152212Y-128773299D02*
X167806201Y-136427288D01*
X141116701Y-128773299D02*
X160152212Y-128773299D01*
X162726201Y-140756201D02*
X162579999Y-140609999D01*
X140820000Y-129070000D02*
X141116701Y-128773299D01*
G04 #@! TO.N,/E29*
X142310000Y-131350000D02*
X142610000Y-131350000D01*
X140820000Y-129860000D02*
X142310000Y-131350000D01*
X145170000Y-133910000D02*
X145170000Y-134070000D01*
X142610000Y-131350000D02*
X145170000Y-133910000D01*
X158580000Y-134070000D02*
X161730000Y-137220000D01*
X145170000Y-134070000D02*
X158580000Y-134070000D01*
G04 #@! TO.N,/D30*
X141630000Y-129870000D02*
X145490000Y-133730000D01*
X160039999Y-138910001D02*
X159190000Y-139760000D01*
X160186201Y-138763799D02*
X160039999Y-138910001D01*
X161660579Y-138763799D02*
X160186201Y-138763799D01*
X162726201Y-136741823D02*
X162726201Y-137698177D01*
X162726201Y-137698177D02*
X161660579Y-138763799D01*
X159714378Y-133730000D02*
X162726201Y-136741823D01*
X145490000Y-133730000D02*
X159714378Y-133730000D01*
G04 #@! TO.N,/D31*
X156650000Y-139760000D02*
X152450000Y-135560000D01*
X152450000Y-135560000D02*
X146070000Y-135560000D01*
X146070000Y-135560000D02*
X142080000Y-131570000D01*
G04 #@! TO.N,/D32*
X138143299Y-129593299D02*
X136840000Y-128290000D01*
X138143299Y-130022417D02*
X138143299Y-129593299D01*
X151497600Y-139750000D02*
X150278989Y-138531389D01*
X145876201Y-136367083D02*
X139685819Y-130176701D01*
X138297583Y-130176701D02*
X138143299Y-130022417D01*
X150278989Y-138531389D02*
X147081389Y-138531389D01*
X152500000Y-139750000D02*
X151497600Y-139750000D01*
X147081389Y-138531389D02*
X145876201Y-137326201D01*
X139685819Y-130176701D02*
X138297583Y-130176701D01*
X145876201Y-137326201D02*
X145876201Y-136367083D01*
G04 #@! TO.N,/E32*
X152500000Y-137210000D02*
X151200000Y-135910000D01*
X151200000Y-135910000D02*
X145960000Y-135910000D01*
X136990499Y-127630499D02*
X136840000Y-127480000D01*
X137146701Y-127786701D02*
X136990499Y-127630499D01*
X139494369Y-129583299D02*
X137697771Y-127786701D01*
X140182417Y-129583299D02*
X139494369Y-129583299D01*
X140336701Y-129737583D02*
X140182417Y-129583299D01*
X137697771Y-127786701D02*
X137146701Y-127786701D01*
X140336701Y-130286701D02*
X140336701Y-129737583D01*
X145960000Y-135910000D02*
X140336701Y-130286701D01*
G04 #@! TO.N,/D33*
X141314225Y-140746201D02*
X140796201Y-140228177D01*
X148963799Y-138753799D02*
X146941823Y-138753799D01*
X149960000Y-139750000D02*
X148963799Y-138753799D01*
X140796201Y-140228177D02*
X140796201Y-134536201D01*
X146423799Y-139750000D02*
X145427598Y-140746201D01*
X146423799Y-139271823D02*
X146423799Y-139750000D01*
X146941823Y-138753799D02*
X146423799Y-139271823D01*
X145427598Y-140746201D02*
X141314225Y-140746201D01*
X137620000Y-131360000D02*
X137620000Y-129850000D01*
X140796201Y-134536201D02*
X137620000Y-131360000D01*
G04 #@! TO.N,/D34*
X136399101Y-131800171D02*
X136399101Y-127829101D01*
X136190499Y-127620499D02*
X136040000Y-127470000D01*
X138256201Y-133657271D02*
X136399101Y-131800171D01*
X138256201Y-139680579D02*
X138256201Y-133657271D01*
X140022012Y-141446390D02*
X138256201Y-139680579D01*
X145723610Y-141446390D02*
X140022012Y-141446390D01*
X136399101Y-127829101D02*
X136190499Y-127620499D01*
X147420000Y-139750000D02*
X145723610Y-141446390D01*
G04 #@! TO.N,/E34*
X135889501Y-128430499D02*
X136040000Y-128280000D01*
X135640899Y-128679101D02*
X135889501Y-128430499D01*
X135640899Y-132388060D02*
X135640899Y-128679101D01*
X136110000Y-132857161D02*
X135640899Y-132388060D01*
X136110000Y-133070000D02*
X136110000Y-132857161D01*
G04 #@! TO.N,/D36*
X138390000Y-131785622D02*
X138390000Y-130790000D01*
X141343799Y-134739421D02*
X138390000Y-131785622D01*
X141343799Y-138753799D02*
X141343799Y-134739421D01*
X142340000Y-139750000D02*
X141343799Y-138753799D01*
G04 #@! TO.N,/E36*
X142340000Y-135421088D02*
X139530000Y-132611088D01*
X142340000Y-137210000D02*
X142340000Y-135421088D01*
X139530000Y-132611088D02*
X139530000Y-131200000D01*
X139530000Y-131200000D02*
X139900000Y-130830000D01*
G04 #@! TO.N,/D42*
X127949999Y-138900001D02*
X127100000Y-139750000D01*
X134090899Y-127029101D02*
X134090899Y-128829101D01*
X134440000Y-126680000D02*
X134090899Y-127029101D01*
X132469101Y-130450899D02*
X132469101Y-135230899D01*
X134090899Y-128829101D02*
X132469101Y-130450899D01*
X128096201Y-138753799D02*
X127949999Y-138900001D01*
X129570579Y-138753799D02*
X128096201Y-138753799D01*
X130636201Y-137688177D02*
X129570579Y-138753799D01*
X130636201Y-137063799D02*
X130636201Y-137688177D01*
X132469101Y-135230899D02*
X130636201Y-137063799D01*
G04 #@! TO.N,/E41*
X129640000Y-132312839D02*
X129640000Y-136007919D01*
X131920000Y-130032839D02*
X129640000Y-132312839D01*
X129640000Y-136007919D02*
X129640000Y-137210000D01*
X131920000Y-129820000D02*
X131920000Y-130032839D01*
G04 #@! TO.N,/D41*
X130489999Y-138900001D02*
X129640000Y-139750000D01*
X130636201Y-138753799D02*
X130489999Y-138900001D01*
X132110579Y-138753799D02*
X130636201Y-138753799D01*
X133176201Y-137688177D02*
X132110579Y-138753799D01*
X133176201Y-136731823D02*
X133176201Y-137688177D01*
X132750000Y-136305622D02*
X133176201Y-136731823D01*
X132750000Y-130982839D02*
X132750000Y-136305622D01*
X133650000Y-130082839D02*
X132750000Y-130982839D01*
X133650000Y-129870000D02*
X133650000Y-130082839D01*
G04 #@! TO.N,/E39*
X134410000Y-136900000D02*
X134720000Y-137210000D01*
X134410000Y-129870000D02*
X134410000Y-136900000D01*
G04 #@! TO.N,/D39*
X135569999Y-138900001D02*
X134720000Y-139750000D01*
X135716201Y-136731823D02*
X135716201Y-138753799D01*
X134706701Y-135722323D02*
X135716201Y-136731823D01*
X134706701Y-129366701D02*
X134706701Y-135722323D01*
X135716201Y-138753799D02*
X135569999Y-138900001D01*
X134430000Y-129090000D02*
X134706701Y-129366701D01*
G04 #@! TO.N,/TCK*
X158088601Y-115830000D02*
X155418601Y-118500000D01*
X140181070Y-124710000D02*
X138471066Y-124710000D01*
X141219101Y-123671969D02*
X140181070Y-124710000D01*
X155418601Y-118500000D02*
X146048930Y-118500000D01*
X138471066Y-124710000D02*
X138101066Y-125080000D01*
X141219101Y-123329829D02*
X141219101Y-123671969D01*
X146048930Y-118500000D02*
X141219101Y-123329829D01*
X138101066Y-125080000D02*
X135270000Y-125080000D01*
X134460000Y-125890000D02*
X133640000Y-125890000D01*
X135270000Y-125080000D02*
X134460000Y-125890000D01*
X166320001Y-112489999D02*
X167170000Y-111640000D01*
X166091399Y-114314931D02*
X166091399Y-112718601D01*
X165147729Y-115258601D02*
X166091399Y-114314931D01*
X166091399Y-112718601D02*
X166320001Y-112489999D01*
X158660000Y-115258601D02*
X165147729Y-115258601D01*
X158088601Y-115830000D02*
X158660000Y-115258601D01*
G04 #@! TO.N,/TMS*
X135040000Y-119800000D02*
X131530000Y-119800000D01*
X131530000Y-119800000D02*
X131220000Y-120110000D01*
G04 #@! TO.N,Net-(SW1-Pad2)*
X128166499Y-119229501D02*
X128016000Y-119380000D01*
X128325101Y-119070899D02*
X128166499Y-119229501D01*
X134310899Y-119070899D02*
X128325101Y-119070899D01*
X134620000Y-119380000D02*
X134310899Y-119070899D01*
G04 #@! TD*
D15*
G04 #@! TO.N,GND*
G36*
X114527000Y-139623000D02*
X116813000Y-139623000D01*
X116813000Y-139603000D01*
X117067000Y-139603000D01*
X117067000Y-139623000D01*
X119353000Y-139623000D01*
X119353000Y-139603000D01*
X119607000Y-139603000D01*
X119607000Y-139623000D01*
X121893000Y-139623000D01*
X121893000Y-139603000D01*
X122147000Y-139603000D01*
X122147000Y-139623000D01*
X124433000Y-139623000D01*
X124433000Y-139603000D01*
X124687000Y-139603000D01*
X124687000Y-139623000D01*
X124707000Y-139623000D01*
X124707000Y-139877000D01*
X124687000Y-139877000D01*
X124687000Y-139897000D01*
X124433000Y-139897000D01*
X124433000Y-139877000D01*
X122147000Y-139877000D01*
X122147000Y-139897000D01*
X121893000Y-139897000D01*
X121893000Y-139877000D01*
X119607000Y-139877000D01*
X119607000Y-139897000D01*
X119353000Y-139897000D01*
X119353000Y-139877000D01*
X117067000Y-139877000D01*
X117067000Y-139897000D01*
X116813000Y-139897000D01*
X116813000Y-139877000D01*
X114527000Y-139877000D01*
X114527000Y-139897000D01*
X114273000Y-139897000D01*
X114273000Y-139877000D01*
X114253000Y-139877000D01*
X114253000Y-139623000D01*
X114273000Y-139623000D01*
X114273000Y-139603000D01*
X114527000Y-139603000D01*
X114527000Y-139623000D01*
X114527000Y-139623000D01*
G37*
X114527000Y-139623000D02*
X116813000Y-139623000D01*
X116813000Y-139603000D01*
X117067000Y-139603000D01*
X117067000Y-139623000D01*
X119353000Y-139623000D01*
X119353000Y-139603000D01*
X119607000Y-139603000D01*
X119607000Y-139623000D01*
X121893000Y-139623000D01*
X121893000Y-139603000D01*
X122147000Y-139603000D01*
X122147000Y-139623000D01*
X124433000Y-139623000D01*
X124433000Y-139603000D01*
X124687000Y-139603000D01*
X124687000Y-139623000D01*
X124707000Y-139623000D01*
X124707000Y-139877000D01*
X124687000Y-139877000D01*
X124687000Y-139897000D01*
X124433000Y-139897000D01*
X124433000Y-139877000D01*
X122147000Y-139877000D01*
X122147000Y-139897000D01*
X121893000Y-139897000D01*
X121893000Y-139877000D01*
X119607000Y-139877000D01*
X119607000Y-139897000D01*
X119353000Y-139897000D01*
X119353000Y-139877000D01*
X117067000Y-139877000D01*
X117067000Y-139897000D01*
X116813000Y-139897000D01*
X116813000Y-139877000D01*
X114527000Y-139877000D01*
X114527000Y-139897000D01*
X114273000Y-139897000D01*
X114273000Y-139877000D01*
X114253000Y-139877000D01*
X114253000Y-139623000D01*
X114273000Y-139623000D01*
X114273000Y-139603000D01*
X114527000Y-139603000D01*
X114527000Y-139623000D01*
G36*
X158119375Y-138290625D02*
X158417761Y-138490000D01*
X158119375Y-138689375D01*
X157920000Y-138987761D01*
X157720625Y-138689375D01*
X157422239Y-138490000D01*
X157720625Y-138290625D01*
X157920000Y-137992239D01*
X158119375Y-138290625D01*
X158119375Y-138290625D01*
G37*
X158119375Y-138290625D02*
X158417761Y-138490000D01*
X158119375Y-138689375D01*
X157920000Y-138987761D01*
X157720625Y-138689375D01*
X157422239Y-138490000D01*
X157720625Y-138290625D01*
X157920000Y-137992239D01*
X158119375Y-138290625D01*
G36*
X113011161Y-114829418D02*
X113339375Y-115320625D01*
X113830582Y-115648839D01*
X114263744Y-115735000D01*
X114556256Y-115735000D01*
X114833971Y-115679759D01*
X124296679Y-125142468D01*
X124336355Y-125201847D01*
X124395734Y-125241523D01*
X124395736Y-125241525D01*
X124571603Y-125359036D01*
X124571604Y-125359036D01*
X124571605Y-125359037D01*
X124779055Y-125400301D01*
X124779058Y-125400301D01*
X124849100Y-125414233D01*
X124919142Y-125400301D01*
X127465175Y-125400301D01*
X127554085Y-125614950D01*
X127775050Y-125835915D01*
X128063754Y-125955500D01*
X128376246Y-125955500D01*
X128664950Y-125835915D01*
X128885915Y-125614950D01*
X128974825Y-125400301D01*
X133018834Y-125400301D01*
X132974085Y-125445050D01*
X132927341Y-125557901D01*
X131740941Y-125557901D01*
X131670899Y-125543969D01*
X131600858Y-125557901D01*
X131600853Y-125557901D01*
X131467130Y-125584500D01*
X131413754Y-125584500D01*
X131125050Y-125704085D01*
X130904085Y-125925050D01*
X130784500Y-126213754D01*
X130784500Y-126526246D01*
X130904085Y-126814950D01*
X131125050Y-127035915D01*
X131413754Y-127155500D01*
X131726246Y-127155500D01*
X132014950Y-127035915D01*
X132070564Y-126980301D01*
X133033534Y-126980301D01*
X132963485Y-127050350D01*
X132843900Y-127339054D01*
X132843900Y-127651546D01*
X132949068Y-127905445D01*
X132854500Y-128133754D01*
X132854500Y-128446246D01*
X132974085Y-128734950D01*
X133076673Y-128837538D01*
X132562538Y-129351673D01*
X132465500Y-129254635D01*
X132465500Y-129175206D01*
X132357176Y-128913689D01*
X132505915Y-128764950D01*
X132625500Y-128476246D01*
X132625500Y-128163754D01*
X132505915Y-127875050D01*
X132284950Y-127654085D01*
X131996246Y-127534500D01*
X131683754Y-127534500D01*
X131395050Y-127654085D01*
X131174085Y-127875050D01*
X131054500Y-128163754D01*
X131054500Y-128476246D01*
X131162824Y-128737763D01*
X131014085Y-128886502D01*
X130894500Y-129175206D01*
X130894500Y-129487698D01*
X131014085Y-129776402D01*
X131092367Y-129854684D01*
X129186634Y-131760417D01*
X129127254Y-131800094D01*
X129087578Y-131859473D01*
X129087576Y-131859475D01*
X129033001Y-131941153D01*
X128970064Y-132035344D01*
X128928800Y-132242794D01*
X128928800Y-132242798D01*
X128914868Y-132312839D01*
X128928800Y-132382881D01*
X128928801Y-134464500D01*
X128803754Y-134464500D01*
X128515050Y-134584085D01*
X128294085Y-134805050D01*
X128174500Y-135093754D01*
X128174500Y-135406246D01*
X128294085Y-135694950D01*
X128515050Y-135915915D01*
X128755036Y-136015320D01*
X128569375Y-136139375D01*
X128370000Y-136437761D01*
X128170625Y-136139375D01*
X127679418Y-135811161D01*
X127246256Y-135725000D01*
X126953744Y-135725000D01*
X126520582Y-135811161D01*
X126029375Y-136139375D01*
X125830000Y-136437761D01*
X125630625Y-136139375D01*
X125139418Y-135811161D01*
X124706256Y-135725000D01*
X124413744Y-135725000D01*
X123980582Y-135811161D01*
X123489375Y-136139375D01*
X123290000Y-136437761D01*
X123090625Y-136139375D01*
X122599418Y-135811161D01*
X122166256Y-135725000D01*
X121873744Y-135725000D01*
X121440582Y-135811161D01*
X120949375Y-136139375D01*
X120750000Y-136437761D01*
X120550625Y-136139375D01*
X120059418Y-135811161D01*
X119626256Y-135725000D01*
X119333744Y-135725000D01*
X118900582Y-135811161D01*
X118409375Y-136139375D01*
X118210000Y-136437761D01*
X118010625Y-136139375D01*
X117519418Y-135811161D01*
X117086256Y-135725000D01*
X116793744Y-135725000D01*
X116360582Y-135811161D01*
X115869375Y-136139375D01*
X115670000Y-136437761D01*
X115470625Y-136139375D01*
X114979418Y-135811161D01*
X114546256Y-135725000D01*
X114253744Y-135725000D01*
X113820582Y-135811161D01*
X113329375Y-136139375D01*
X113001161Y-136630582D01*
X112960000Y-136837513D01*
X112960000Y-134123754D01*
X126114500Y-134123754D01*
X126114500Y-134436246D01*
X126234085Y-134724950D01*
X126455050Y-134945915D01*
X126743754Y-135065500D01*
X127056246Y-135065500D01*
X127344950Y-134945915D01*
X127565915Y-134724950D01*
X127685500Y-134436246D01*
X127685500Y-134123754D01*
X127565915Y-133835050D01*
X127344950Y-133614085D01*
X127056246Y-133494500D01*
X126743754Y-133494500D01*
X126455050Y-133614085D01*
X126234085Y-133835050D01*
X126114500Y-134123754D01*
X112960000Y-134123754D01*
X112960000Y-129853754D01*
X117414500Y-129853754D01*
X117414500Y-130166246D01*
X117534085Y-130454950D01*
X117755050Y-130675915D01*
X118043754Y-130795500D01*
X118356246Y-130795500D01*
X118644950Y-130675915D01*
X118865915Y-130454950D01*
X118985500Y-130166246D01*
X118985500Y-129853754D01*
X118865915Y-129565050D01*
X118644950Y-129344085D01*
X118356246Y-129224500D01*
X118043754Y-129224500D01*
X117755050Y-129344085D01*
X117534085Y-129565050D01*
X117414500Y-129853754D01*
X112960000Y-129853754D01*
X112960000Y-127673754D01*
X119544500Y-127673754D01*
X119544500Y-127986246D01*
X119664085Y-128274950D01*
X119885050Y-128495915D01*
X120173754Y-128615500D01*
X120486246Y-128615500D01*
X120774950Y-128495915D01*
X120837111Y-128433754D01*
X121554500Y-128433754D01*
X121554500Y-128746246D01*
X121674085Y-129034950D01*
X121895050Y-129255915D01*
X122183754Y-129375500D01*
X122496246Y-129375500D01*
X122784950Y-129255915D01*
X123005915Y-129034950D01*
X123125500Y-128746246D01*
X123125500Y-128433754D01*
X123098737Y-128369142D01*
X123145500Y-128256246D01*
X123145500Y-127943754D01*
X123025915Y-127655050D01*
X122804950Y-127434085D01*
X122516246Y-127314500D01*
X122203754Y-127314500D01*
X121915050Y-127434085D01*
X121694085Y-127655050D01*
X121574500Y-127943754D01*
X121574500Y-128256246D01*
X121601263Y-128320858D01*
X121554500Y-128433754D01*
X120837111Y-128433754D01*
X120995915Y-128274950D01*
X121115500Y-127986246D01*
X121115500Y-127673754D01*
X120995915Y-127385050D01*
X120794619Y-127183754D01*
X124244500Y-127183754D01*
X124244500Y-127496246D01*
X124364085Y-127784950D01*
X124585050Y-128005915D01*
X124873754Y-128125500D01*
X125186246Y-128125500D01*
X125474950Y-128005915D01*
X125695915Y-127784950D01*
X125815500Y-127496246D01*
X125815500Y-127183754D01*
X125695915Y-126895050D01*
X125474950Y-126674085D01*
X125186246Y-126554500D01*
X124873754Y-126554500D01*
X124585050Y-126674085D01*
X124364085Y-126895050D01*
X124244500Y-127183754D01*
X120794619Y-127183754D01*
X120774950Y-127164085D01*
X120486246Y-127044500D01*
X120173754Y-127044500D01*
X119885050Y-127164085D01*
X119664085Y-127385050D01*
X119544500Y-127673754D01*
X112960000Y-127673754D01*
X112960000Y-124073754D01*
X116274500Y-124073754D01*
X116274500Y-124386246D01*
X116394085Y-124674950D01*
X116615050Y-124895915D01*
X116903754Y-125015500D01*
X117216246Y-125015500D01*
X117504950Y-124895915D01*
X117725915Y-124674950D01*
X117845500Y-124386246D01*
X117845500Y-124210954D01*
X118073754Y-124305500D01*
X118386246Y-124305500D01*
X118674950Y-124185915D01*
X118707111Y-124153754D01*
X119204500Y-124153754D01*
X119204500Y-124466246D01*
X119324085Y-124754950D01*
X119545050Y-124975915D01*
X119833754Y-125095500D01*
X120146246Y-125095500D01*
X120434950Y-124975915D01*
X120655915Y-124754950D01*
X120775500Y-124466246D01*
X120775500Y-124153754D01*
X120655915Y-123865050D01*
X120434950Y-123644085D01*
X120146246Y-123524500D01*
X119833754Y-123524500D01*
X119545050Y-123644085D01*
X119324085Y-123865050D01*
X119204500Y-124153754D01*
X118707111Y-124153754D01*
X118895915Y-123964950D01*
X119015500Y-123676246D01*
X119015500Y-123363754D01*
X118895915Y-123075050D01*
X118674950Y-122854085D01*
X118386246Y-122734500D01*
X118073754Y-122734500D01*
X117785050Y-122854085D01*
X117564085Y-123075050D01*
X117444500Y-123363754D01*
X117444500Y-123539046D01*
X117216246Y-123444500D01*
X116903754Y-123444500D01*
X116615050Y-123564085D01*
X116394085Y-123785050D01*
X116274500Y-124073754D01*
X112960000Y-124073754D01*
X112960000Y-120468354D01*
X116232300Y-120468354D01*
X116232300Y-120780846D01*
X116351885Y-121069550D01*
X116572850Y-121290515D01*
X116861554Y-121410100D01*
X117174046Y-121410100D01*
X117462750Y-121290515D01*
X117683715Y-121069550D01*
X117803300Y-120780846D01*
X117803300Y-120468354D01*
X117683715Y-120179650D01*
X117462750Y-119958685D01*
X117174046Y-119839100D01*
X116861554Y-119839100D01*
X116572850Y-119958685D01*
X116351885Y-120179650D01*
X116232300Y-120468354D01*
X112960000Y-120468354D01*
X112960000Y-114572213D01*
X113011161Y-114829418D01*
X113011161Y-114829418D01*
G37*
X113011161Y-114829418D02*
X113339375Y-115320625D01*
X113830582Y-115648839D01*
X114263744Y-115735000D01*
X114556256Y-115735000D01*
X114833971Y-115679759D01*
X124296679Y-125142468D01*
X124336355Y-125201847D01*
X124395734Y-125241523D01*
X124395736Y-125241525D01*
X124571603Y-125359036D01*
X124571604Y-125359036D01*
X124571605Y-125359037D01*
X124779055Y-125400301D01*
X124779058Y-125400301D01*
X124849100Y-125414233D01*
X124919142Y-125400301D01*
X127465175Y-125400301D01*
X127554085Y-125614950D01*
X127775050Y-125835915D01*
X128063754Y-125955500D01*
X128376246Y-125955500D01*
X128664950Y-125835915D01*
X128885915Y-125614950D01*
X128974825Y-125400301D01*
X133018834Y-125400301D01*
X132974085Y-125445050D01*
X132927341Y-125557901D01*
X131740941Y-125557901D01*
X131670899Y-125543969D01*
X131600858Y-125557901D01*
X131600853Y-125557901D01*
X131467130Y-125584500D01*
X131413754Y-125584500D01*
X131125050Y-125704085D01*
X130904085Y-125925050D01*
X130784500Y-126213754D01*
X130784500Y-126526246D01*
X130904085Y-126814950D01*
X131125050Y-127035915D01*
X131413754Y-127155500D01*
X131726246Y-127155500D01*
X132014950Y-127035915D01*
X132070564Y-126980301D01*
X133033534Y-126980301D01*
X132963485Y-127050350D01*
X132843900Y-127339054D01*
X132843900Y-127651546D01*
X132949068Y-127905445D01*
X132854500Y-128133754D01*
X132854500Y-128446246D01*
X132974085Y-128734950D01*
X133076673Y-128837538D01*
X132562538Y-129351673D01*
X132465500Y-129254635D01*
X132465500Y-129175206D01*
X132357176Y-128913689D01*
X132505915Y-128764950D01*
X132625500Y-128476246D01*
X132625500Y-128163754D01*
X132505915Y-127875050D01*
X132284950Y-127654085D01*
X131996246Y-127534500D01*
X131683754Y-127534500D01*
X131395050Y-127654085D01*
X131174085Y-127875050D01*
X131054500Y-128163754D01*
X131054500Y-128476246D01*
X131162824Y-128737763D01*
X131014085Y-128886502D01*
X130894500Y-129175206D01*
X130894500Y-129487698D01*
X131014085Y-129776402D01*
X131092367Y-129854684D01*
X129186634Y-131760417D01*
X129127254Y-131800094D01*
X129087578Y-131859473D01*
X129087576Y-131859475D01*
X129033001Y-131941153D01*
X128970064Y-132035344D01*
X128928800Y-132242794D01*
X128928800Y-132242798D01*
X128914868Y-132312839D01*
X128928800Y-132382881D01*
X128928801Y-134464500D01*
X128803754Y-134464500D01*
X128515050Y-134584085D01*
X128294085Y-134805050D01*
X128174500Y-135093754D01*
X128174500Y-135406246D01*
X128294085Y-135694950D01*
X128515050Y-135915915D01*
X128755036Y-136015320D01*
X128569375Y-136139375D01*
X128370000Y-136437761D01*
X128170625Y-136139375D01*
X127679418Y-135811161D01*
X127246256Y-135725000D01*
X126953744Y-135725000D01*
X126520582Y-135811161D01*
X126029375Y-136139375D01*
X125830000Y-136437761D01*
X125630625Y-136139375D01*
X125139418Y-135811161D01*
X124706256Y-135725000D01*
X124413744Y-135725000D01*
X123980582Y-135811161D01*
X123489375Y-136139375D01*
X123290000Y-136437761D01*
X123090625Y-136139375D01*
X122599418Y-135811161D01*
X122166256Y-135725000D01*
X121873744Y-135725000D01*
X121440582Y-135811161D01*
X120949375Y-136139375D01*
X120750000Y-136437761D01*
X120550625Y-136139375D01*
X120059418Y-135811161D01*
X119626256Y-135725000D01*
X119333744Y-135725000D01*
X118900582Y-135811161D01*
X118409375Y-136139375D01*
X118210000Y-136437761D01*
X118010625Y-136139375D01*
X117519418Y-135811161D01*
X117086256Y-135725000D01*
X116793744Y-135725000D01*
X116360582Y-135811161D01*
X115869375Y-136139375D01*
X115670000Y-136437761D01*
X115470625Y-136139375D01*
X114979418Y-135811161D01*
X114546256Y-135725000D01*
X114253744Y-135725000D01*
X113820582Y-135811161D01*
X113329375Y-136139375D01*
X113001161Y-136630582D01*
X112960000Y-136837513D01*
X112960000Y-134123754D01*
X126114500Y-134123754D01*
X126114500Y-134436246D01*
X126234085Y-134724950D01*
X126455050Y-134945915D01*
X126743754Y-135065500D01*
X127056246Y-135065500D01*
X127344950Y-134945915D01*
X127565915Y-134724950D01*
X127685500Y-134436246D01*
X127685500Y-134123754D01*
X127565915Y-133835050D01*
X127344950Y-133614085D01*
X127056246Y-133494500D01*
X126743754Y-133494500D01*
X126455050Y-133614085D01*
X126234085Y-133835050D01*
X126114500Y-134123754D01*
X112960000Y-134123754D01*
X112960000Y-129853754D01*
X117414500Y-129853754D01*
X117414500Y-130166246D01*
X117534085Y-130454950D01*
X117755050Y-130675915D01*
X118043754Y-130795500D01*
X118356246Y-130795500D01*
X118644950Y-130675915D01*
X118865915Y-130454950D01*
X118985500Y-130166246D01*
X118985500Y-129853754D01*
X118865915Y-129565050D01*
X118644950Y-129344085D01*
X118356246Y-129224500D01*
X118043754Y-129224500D01*
X117755050Y-129344085D01*
X117534085Y-129565050D01*
X117414500Y-129853754D01*
X112960000Y-129853754D01*
X112960000Y-127673754D01*
X119544500Y-127673754D01*
X119544500Y-127986246D01*
X119664085Y-128274950D01*
X119885050Y-128495915D01*
X120173754Y-128615500D01*
X120486246Y-128615500D01*
X120774950Y-128495915D01*
X120837111Y-128433754D01*
X121554500Y-128433754D01*
X121554500Y-128746246D01*
X121674085Y-129034950D01*
X121895050Y-129255915D01*
X122183754Y-129375500D01*
X122496246Y-129375500D01*
X122784950Y-129255915D01*
X123005915Y-129034950D01*
X123125500Y-128746246D01*
X123125500Y-128433754D01*
X123098737Y-128369142D01*
X123145500Y-128256246D01*
X123145500Y-127943754D01*
X123025915Y-127655050D01*
X122804950Y-127434085D01*
X122516246Y-127314500D01*
X122203754Y-127314500D01*
X121915050Y-127434085D01*
X121694085Y-127655050D01*
X121574500Y-127943754D01*
X121574500Y-128256246D01*
X121601263Y-128320858D01*
X121554500Y-128433754D01*
X120837111Y-128433754D01*
X120995915Y-128274950D01*
X121115500Y-127986246D01*
X121115500Y-127673754D01*
X120995915Y-127385050D01*
X120794619Y-127183754D01*
X124244500Y-127183754D01*
X124244500Y-127496246D01*
X124364085Y-127784950D01*
X124585050Y-128005915D01*
X124873754Y-128125500D01*
X125186246Y-128125500D01*
X125474950Y-128005915D01*
X125695915Y-127784950D01*
X125815500Y-127496246D01*
X125815500Y-127183754D01*
X125695915Y-126895050D01*
X125474950Y-126674085D01*
X125186246Y-126554500D01*
X124873754Y-126554500D01*
X124585050Y-126674085D01*
X124364085Y-126895050D01*
X124244500Y-127183754D01*
X120794619Y-127183754D01*
X120774950Y-127164085D01*
X120486246Y-127044500D01*
X120173754Y-127044500D01*
X119885050Y-127164085D01*
X119664085Y-127385050D01*
X119544500Y-127673754D01*
X112960000Y-127673754D01*
X112960000Y-124073754D01*
X116274500Y-124073754D01*
X116274500Y-124386246D01*
X116394085Y-124674950D01*
X116615050Y-124895915D01*
X116903754Y-125015500D01*
X117216246Y-125015500D01*
X117504950Y-124895915D01*
X117725915Y-124674950D01*
X117845500Y-124386246D01*
X117845500Y-124210954D01*
X118073754Y-124305500D01*
X118386246Y-124305500D01*
X118674950Y-124185915D01*
X118707111Y-124153754D01*
X119204500Y-124153754D01*
X119204500Y-124466246D01*
X119324085Y-124754950D01*
X119545050Y-124975915D01*
X119833754Y-125095500D01*
X120146246Y-125095500D01*
X120434950Y-124975915D01*
X120655915Y-124754950D01*
X120775500Y-124466246D01*
X120775500Y-124153754D01*
X120655915Y-123865050D01*
X120434950Y-123644085D01*
X120146246Y-123524500D01*
X119833754Y-123524500D01*
X119545050Y-123644085D01*
X119324085Y-123865050D01*
X119204500Y-124153754D01*
X118707111Y-124153754D01*
X118895915Y-123964950D01*
X119015500Y-123676246D01*
X119015500Y-123363754D01*
X118895915Y-123075050D01*
X118674950Y-122854085D01*
X118386246Y-122734500D01*
X118073754Y-122734500D01*
X117785050Y-122854085D01*
X117564085Y-123075050D01*
X117444500Y-123363754D01*
X117444500Y-123539046D01*
X117216246Y-123444500D01*
X116903754Y-123444500D01*
X116615050Y-123564085D01*
X116394085Y-123785050D01*
X116274500Y-124073754D01*
X112960000Y-124073754D01*
X112960000Y-120468354D01*
X116232300Y-120468354D01*
X116232300Y-120780846D01*
X116351885Y-121069550D01*
X116572850Y-121290515D01*
X116861554Y-121410100D01*
X117174046Y-121410100D01*
X117462750Y-121290515D01*
X117683715Y-121069550D01*
X117803300Y-120780846D01*
X117803300Y-120468354D01*
X117683715Y-120179650D01*
X117462750Y-119958685D01*
X117174046Y-119839100D01*
X116861554Y-119839100D01*
X116572850Y-119958685D01*
X116351885Y-120179650D01*
X116232300Y-120468354D01*
X112960000Y-120468354D01*
X112960000Y-114572213D01*
X113011161Y-114829418D01*
G36*
X180979375Y-110639375D02*
X180651161Y-111130582D01*
X180535908Y-111710000D01*
X180651161Y-112289418D01*
X180979375Y-112780625D01*
X181277761Y-112980000D01*
X180979375Y-113179375D01*
X180651161Y-113670582D01*
X180535908Y-114250000D01*
X180651161Y-114829418D01*
X180979375Y-115320625D01*
X181470582Y-115648839D01*
X181903744Y-115735000D01*
X182124835Y-115735000D01*
X182074385Y-115785450D01*
X182000085Y-115964826D01*
X180845512Y-117119400D01*
X168305822Y-117119400D01*
X168126446Y-117045100D01*
X167813954Y-117045100D01*
X167525250Y-117164685D01*
X167304285Y-117385650D01*
X167184700Y-117674354D01*
X167184700Y-117986846D01*
X167304285Y-118275550D01*
X167525250Y-118496515D01*
X167798501Y-118609699D01*
X167515142Y-118609699D01*
X167445100Y-118595767D01*
X167375058Y-118609699D01*
X167375055Y-118609699D01*
X167167605Y-118650963D01*
X167167604Y-118650964D01*
X167167603Y-118650964D01*
X166991736Y-118768475D01*
X166991734Y-118768477D01*
X166932355Y-118808153D01*
X166892679Y-118867532D01*
X166885538Y-118874673D01*
X166744950Y-118734085D01*
X166456246Y-118614500D01*
X166143754Y-118614500D01*
X165855050Y-118734085D01*
X165634085Y-118955050D01*
X165514500Y-119243754D01*
X165514500Y-119556246D01*
X165634085Y-119844950D01*
X165722135Y-119933000D01*
X165704085Y-119951050D01*
X165584500Y-120239754D01*
X165584500Y-120552246D01*
X165704085Y-120840950D01*
X165925050Y-121061915D01*
X166213754Y-121181500D01*
X166346500Y-121181500D01*
X166346500Y-121314246D01*
X166466085Y-121602950D01*
X166687050Y-121823915D01*
X166975754Y-121943500D01*
X167288246Y-121943500D01*
X167576950Y-121823915D01*
X167788801Y-121612064D01*
X167788801Y-122809499D01*
X161258364Y-122809499D01*
X161226950Y-122778085D01*
X161151703Y-122746917D01*
X161088291Y-122704546D01*
X161013492Y-122689668D01*
X160938246Y-122658500D01*
X160856798Y-122658500D01*
X160782000Y-122643622D01*
X160707202Y-122658500D01*
X160625754Y-122658500D01*
X160550508Y-122689668D01*
X160475709Y-122704546D01*
X160412297Y-122746917D01*
X160337050Y-122778085D01*
X160279458Y-122835677D01*
X160216047Y-122878047D01*
X160173677Y-122941458D01*
X160116085Y-122999050D01*
X160084917Y-123074297D01*
X160042546Y-123137709D01*
X160027668Y-123212508D01*
X159996500Y-123287754D01*
X159996500Y-123369202D01*
X159981622Y-123444000D01*
X159996500Y-123518798D01*
X159996500Y-123600246D01*
X160027668Y-123675492D01*
X160042546Y-123750291D01*
X160084917Y-123813703D01*
X160116085Y-123888950D01*
X160324176Y-124097041D01*
X160366546Y-124160452D01*
X160626207Y-124333953D01*
X160855183Y-124379499D01*
X160855187Y-124379499D01*
X160932499Y-124394877D01*
X161009811Y-124379499D01*
X170214500Y-124379499D01*
X170214500Y-124656246D01*
X170334085Y-124944950D01*
X170555050Y-125165915D01*
X170843754Y-125285500D01*
X171156246Y-125285500D01*
X171250000Y-125246666D01*
X171343754Y-125285500D01*
X171656246Y-125285500D01*
X171944950Y-125165915D01*
X172032854Y-125078011D01*
X173128585Y-126173743D01*
X173129085Y-126174950D01*
X173350050Y-126395915D01*
X173425295Y-126427082D01*
X173488707Y-126469453D01*
X173563506Y-126484331D01*
X173623600Y-126509223D01*
X173623600Y-126749846D01*
X173743185Y-127038550D01*
X173964150Y-127259515D01*
X174252854Y-127379100D01*
X174565346Y-127379100D01*
X174854050Y-127259515D01*
X174973353Y-127140212D01*
X176241347Y-128408205D01*
X176097750Y-128467685D01*
X175876785Y-128688650D01*
X175757200Y-128977354D01*
X175757200Y-129289846D01*
X175876785Y-129578550D01*
X176097750Y-129799515D01*
X176386454Y-129919100D01*
X176698946Y-129919100D01*
X176987650Y-129799515D01*
X177208615Y-129578550D01*
X177268095Y-129434953D01*
X180125208Y-132292067D01*
X180164884Y-132351446D01*
X180224263Y-132391122D01*
X180224265Y-132391124D01*
X180400132Y-132508635D01*
X180400133Y-132508635D01*
X180400134Y-132508636D01*
X180607584Y-132549900D01*
X180607587Y-132549900D01*
X180677629Y-132563832D01*
X180747671Y-132549900D01*
X193504478Y-132549900D01*
X193683854Y-132624200D01*
X193996346Y-132624200D01*
X194285050Y-132504615D01*
X194506015Y-132283650D01*
X194625600Y-131994946D01*
X194625600Y-131682454D01*
X194506015Y-131393750D01*
X194285050Y-131172785D01*
X193996346Y-131053200D01*
X193683854Y-131053200D01*
X193504478Y-131127500D01*
X192627130Y-131127500D01*
X192537515Y-130911150D01*
X192316550Y-130690185D01*
X192027846Y-130570600D01*
X191715354Y-130570600D01*
X191426650Y-130690185D01*
X191205685Y-130911150D01*
X191116070Y-131127500D01*
X181846106Y-131127500D01*
X181912900Y-130966246D01*
X181912900Y-130653754D01*
X181793315Y-130365050D01*
X181572350Y-130144085D01*
X181283646Y-130024500D01*
X180971154Y-130024500D01*
X180682450Y-130144085D01*
X180677827Y-130148708D01*
X180623246Y-130126100D01*
X180310754Y-130126100D01*
X180070383Y-130225665D01*
X174328218Y-124483500D01*
X174400246Y-124483500D01*
X174688950Y-124363915D01*
X174909915Y-124142950D01*
X175029500Y-123854246D01*
X175029500Y-123821154D01*
X179262400Y-123821154D01*
X179262400Y-124133646D01*
X179381985Y-124422350D01*
X179602950Y-124643315D01*
X179782327Y-124717615D01*
X181563046Y-126498335D01*
X181535700Y-126564354D01*
X181535700Y-126876846D01*
X181655285Y-127165550D01*
X181876250Y-127386515D01*
X182164954Y-127506100D01*
X182477446Y-127506100D01*
X182766150Y-127386515D01*
X182987115Y-127165550D01*
X183106700Y-126876846D01*
X183106700Y-126706000D01*
X183214046Y-126706000D01*
X183502750Y-126586415D01*
X183723715Y-126365450D01*
X183843300Y-126076746D01*
X183843300Y-125764254D01*
X183723715Y-125475550D01*
X183502750Y-125254585D01*
X183214046Y-125135000D01*
X182901554Y-125135000D01*
X182612850Y-125254585D01*
X182471862Y-125395573D01*
X180788115Y-123711827D01*
X180713815Y-123532450D01*
X180492850Y-123311485D01*
X180204146Y-123191900D01*
X179891654Y-123191900D01*
X179602950Y-123311485D01*
X179381985Y-123532450D01*
X179262400Y-123821154D01*
X175029500Y-123821154D01*
X175029500Y-123541754D01*
X174909915Y-123253050D01*
X174688950Y-123032085D01*
X174400246Y-122912500D01*
X174087754Y-122912500D01*
X173994794Y-122951005D01*
X171791543Y-120747754D01*
X172950500Y-120747754D01*
X172950500Y-121060246D01*
X173070085Y-121348950D01*
X173291050Y-121569915D01*
X173579754Y-121689500D01*
X173892246Y-121689500D01*
X174180950Y-121569915D01*
X174401915Y-121348950D01*
X174521500Y-121060246D01*
X174521500Y-120747754D01*
X174401915Y-120459050D01*
X174180950Y-120238085D01*
X173892246Y-120118500D01*
X173579754Y-120118500D01*
X173291050Y-120238085D01*
X173070085Y-120459050D01*
X172950500Y-120747754D01*
X171791543Y-120747754D01*
X169911323Y-118867535D01*
X169871645Y-118808153D01*
X169636395Y-118650963D01*
X169428945Y-118609699D01*
X169428940Y-118609699D01*
X169358899Y-118595767D01*
X169288858Y-118609699D01*
X168141899Y-118609699D01*
X168305822Y-118541800D01*
X170014500Y-118541800D01*
X170014500Y-118656246D01*
X170134085Y-118944950D01*
X170355050Y-119165915D01*
X170643754Y-119285500D01*
X170956246Y-119285500D01*
X171244950Y-119165915D01*
X171439330Y-118971535D01*
X171593754Y-119035500D01*
X171906246Y-119035500D01*
X172000000Y-118996666D01*
X172093754Y-119035500D01*
X172379000Y-119035500D01*
X172379000Y-119066346D01*
X172498585Y-119355050D01*
X172719550Y-119576015D01*
X173008254Y-119695600D01*
X173320746Y-119695600D01*
X173609450Y-119576015D01*
X173830415Y-119355050D01*
X173950000Y-119066346D01*
X173950000Y-118753854D01*
X173862164Y-118541800D01*
X181070059Y-118541800D01*
X181140100Y-118555732D01*
X181210141Y-118541800D01*
X181210146Y-118541800D01*
X181417596Y-118500536D01*
X181652846Y-118343346D01*
X181692524Y-118283964D01*
X182417401Y-117559087D01*
X182417401Y-119560710D01*
X181585500Y-120392612D01*
X181585500Y-120143754D01*
X181465915Y-119855050D01*
X181244950Y-119634085D01*
X180956246Y-119514500D01*
X180643754Y-119514500D01*
X180355050Y-119634085D01*
X180134085Y-119855050D01*
X180014500Y-120143754D01*
X180014500Y-120296300D01*
X179955154Y-120296300D01*
X179666450Y-120415885D01*
X179445485Y-120636850D01*
X179325900Y-120925554D01*
X179325900Y-121238046D01*
X179445485Y-121526750D01*
X179666450Y-121747715D01*
X179955154Y-121867300D01*
X180267646Y-121867300D01*
X180556350Y-121747715D01*
X180697500Y-121606565D01*
X180697500Y-121657146D01*
X180817085Y-121945850D01*
X181038050Y-122166815D01*
X181326754Y-122286400D01*
X181444065Y-122286400D01*
X181330150Y-122333585D01*
X181109185Y-122554550D01*
X180989600Y-122843254D01*
X180989600Y-123155746D01*
X181109185Y-123444450D01*
X181330150Y-123665415D01*
X181618854Y-123785000D01*
X181931346Y-123785000D01*
X182220050Y-123665415D01*
X182441015Y-123444450D01*
X182515315Y-123265073D01*
X185820034Y-119960354D01*
X189155700Y-119960354D01*
X189155700Y-120272846D01*
X189275285Y-120561550D01*
X189496250Y-120782515D01*
X189784954Y-120902100D01*
X190097446Y-120902100D01*
X190386150Y-120782515D01*
X190607115Y-120561550D01*
X190726700Y-120272846D01*
X190726700Y-119960354D01*
X190607115Y-119671650D01*
X190386150Y-119450685D01*
X190097446Y-119331100D01*
X189784954Y-119331100D01*
X189496250Y-119450685D01*
X189275285Y-119671650D01*
X189155700Y-119960354D01*
X185820034Y-119960354D01*
X186504768Y-119275621D01*
X186564144Y-119235947D01*
X186603819Y-119176570D01*
X186603823Y-119176566D01*
X186721334Y-119000699D01*
X186721334Y-119000698D01*
X186721335Y-119000697D01*
X186762599Y-118793247D01*
X186762599Y-118793244D01*
X186776531Y-118723202D01*
X186762599Y-118653160D01*
X186762599Y-115691012D01*
X186983744Y-115735000D01*
X187276256Y-115735000D01*
X187709418Y-115648839D01*
X188200625Y-115320625D01*
X188400000Y-115022239D01*
X188599375Y-115320625D01*
X189090582Y-115648839D01*
X189523744Y-115735000D01*
X189816256Y-115735000D01*
X190249418Y-115648839D01*
X190740625Y-115320625D01*
X190940000Y-115022239D01*
X191139375Y-115320625D01*
X191630582Y-115648839D01*
X192063744Y-115735000D01*
X192356256Y-115735000D01*
X192789418Y-115648839D01*
X193280625Y-115320625D01*
X193292816Y-115302381D01*
X193301843Y-115347765D01*
X193442191Y-115557809D01*
X193652235Y-115698157D01*
X193900000Y-115747440D01*
X194164695Y-115747440D01*
X193961585Y-115950550D01*
X193842000Y-116239254D01*
X193842000Y-116551746D01*
X193961585Y-116840450D01*
X194182550Y-117061415D01*
X194471254Y-117181000D01*
X194783746Y-117181000D01*
X195072450Y-117061415D01*
X195293415Y-116840450D01*
X195413000Y-116551746D01*
X195413000Y-116239254D01*
X195293415Y-115950550D01*
X195090305Y-115747440D01*
X195600000Y-115747440D01*
X195847765Y-115698157D01*
X196040000Y-115569709D01*
X196040001Y-136477694D01*
X195820625Y-136149375D01*
X195329418Y-135821161D01*
X194896256Y-135735000D01*
X194603744Y-135735000D01*
X194170582Y-135821161D01*
X193679375Y-136149375D01*
X193480000Y-136447761D01*
X193280625Y-136149375D01*
X192789418Y-135821161D01*
X192356256Y-135735000D01*
X192063744Y-135735000D01*
X191630582Y-135821161D01*
X191139375Y-136149375D01*
X190940000Y-136447761D01*
X190740625Y-136149375D01*
X190249418Y-135821161D01*
X189816256Y-135735000D01*
X189523744Y-135735000D01*
X189090582Y-135821161D01*
X188599375Y-136149375D01*
X188400000Y-136447761D01*
X188200625Y-136149375D01*
X187961361Y-135989504D01*
X188015915Y-135934950D01*
X188135500Y-135646246D01*
X188135500Y-135333754D01*
X188015915Y-135045050D01*
X187794950Y-134824085D01*
X187506246Y-134704500D01*
X187193754Y-134704500D01*
X186905050Y-134824085D01*
X186724635Y-135004500D01*
X186573754Y-135004500D01*
X186285050Y-135124085D01*
X186064085Y-135345050D01*
X185994684Y-135512599D01*
X180157318Y-135512599D01*
X178538473Y-133893754D01*
X180164500Y-133893754D01*
X180164500Y-134206246D01*
X180284085Y-134494950D01*
X180505050Y-134715915D01*
X180793754Y-134835500D01*
X181106246Y-134835500D01*
X181394950Y-134715915D01*
X181615915Y-134494950D01*
X181735500Y-134206246D01*
X181735500Y-133893754D01*
X181615915Y-133605050D01*
X181394950Y-133384085D01*
X181106246Y-133264500D01*
X180793754Y-133264500D01*
X180505050Y-133384085D01*
X180284085Y-133605050D01*
X180164500Y-133893754D01*
X178538473Y-133893754D01*
X178037529Y-133392810D01*
X178219550Y-133317415D01*
X178440515Y-133096450D01*
X178560100Y-132807746D01*
X178560100Y-132495254D01*
X178440515Y-132206550D01*
X178219550Y-131985585D01*
X177930846Y-131866000D01*
X177618354Y-131866000D01*
X177329650Y-131985585D01*
X177108685Y-132206550D01*
X177033290Y-132388571D01*
X176637448Y-131992729D01*
X176873350Y-131895015D01*
X177094315Y-131674050D01*
X177213900Y-131385346D01*
X177213900Y-131072854D01*
X177094315Y-130784150D01*
X176873350Y-130563185D01*
X176584646Y-130443600D01*
X176272154Y-130443600D01*
X175983450Y-130563185D01*
X175762485Y-130784150D01*
X175664771Y-131020053D01*
X171731451Y-127086733D01*
X171785500Y-126956246D01*
X171785500Y-126863432D01*
X171933050Y-126802315D01*
X172154015Y-126581350D01*
X172273600Y-126292646D01*
X172273600Y-125980154D01*
X172154015Y-125691450D01*
X171933050Y-125470485D01*
X171644346Y-125350900D01*
X171331854Y-125350900D01*
X171043150Y-125470485D01*
X170822185Y-125691450D01*
X170702600Y-125980154D01*
X170702600Y-126057882D01*
X169578055Y-124933337D01*
X169538377Y-124873955D01*
X169303127Y-124716765D01*
X169095677Y-124675501D01*
X169095672Y-124675501D01*
X169025631Y-124661569D01*
X168955590Y-124675501D01*
X143754992Y-124675501D01*
X143988015Y-124578980D01*
X144208980Y-124358015D01*
X144328565Y-124069311D01*
X144328565Y-123756819D01*
X144208980Y-123468115D01*
X143988015Y-123247150D01*
X143699311Y-123127565D01*
X143386819Y-123127565D01*
X143098115Y-123247150D01*
X142877150Y-123468115D01*
X142757565Y-123756819D01*
X142757565Y-124069311D01*
X142877150Y-124358015D01*
X143098115Y-124578980D01*
X143331138Y-124675501D01*
X142319557Y-124675501D01*
X142318633Y-124673270D01*
X142415900Y-124438446D01*
X142415900Y-124125954D01*
X142321263Y-123897480D01*
X142428600Y-123638346D01*
X142428600Y-123325854D01*
X142370099Y-123184619D01*
X145110964Y-120443754D01*
X162114500Y-120443754D01*
X162114500Y-120756246D01*
X162234085Y-121044950D01*
X162455050Y-121265915D01*
X162743754Y-121385500D01*
X163056246Y-121385500D01*
X163344950Y-121265915D01*
X163565915Y-121044950D01*
X163685500Y-120756246D01*
X163685500Y-120443754D01*
X163565915Y-120155050D01*
X163344950Y-119934085D01*
X163056246Y-119814500D01*
X162743754Y-119814500D01*
X162455050Y-119934085D01*
X162234085Y-120155050D01*
X162114500Y-120443754D01*
X145110964Y-120443754D01*
X146343519Y-119211200D01*
X155348560Y-119211200D01*
X155418601Y-119225132D01*
X155488642Y-119211200D01*
X155488647Y-119211200D01*
X155696097Y-119169936D01*
X155931347Y-119012746D01*
X155971025Y-118953364D01*
X156390635Y-118533754D01*
X157824500Y-118533754D01*
X157824500Y-118846246D01*
X157944085Y-119134950D01*
X158165050Y-119355915D01*
X158453754Y-119475500D01*
X158766246Y-119475500D01*
X159054950Y-119355915D01*
X159275915Y-119134950D01*
X159395500Y-118846246D01*
X159395500Y-118533754D01*
X159358221Y-118443754D01*
X161414500Y-118443754D01*
X161414500Y-118756246D01*
X161534085Y-119044950D01*
X161755050Y-119265915D01*
X162043754Y-119385500D01*
X162356246Y-119385500D01*
X162644950Y-119265915D01*
X162865915Y-119044950D01*
X162985500Y-118756246D01*
X162985500Y-118443754D01*
X162865915Y-118155050D01*
X162644950Y-117934085D01*
X162356246Y-117814500D01*
X162043754Y-117814500D01*
X161755050Y-117934085D01*
X161534085Y-118155050D01*
X161414500Y-118443754D01*
X159358221Y-118443754D01*
X159275915Y-118245050D01*
X159054950Y-118024085D01*
X158766246Y-117904500D01*
X158453754Y-117904500D01*
X158165050Y-118024085D01*
X157944085Y-118245050D01*
X157824500Y-118533754D01*
X156390635Y-118533754D01*
X158280635Y-116643754D01*
X164914500Y-116643754D01*
X164914500Y-116956246D01*
X165034085Y-117244950D01*
X165255050Y-117465915D01*
X165543754Y-117585500D01*
X165856246Y-117585500D01*
X166144950Y-117465915D01*
X166365915Y-117244950D01*
X166485500Y-116956246D01*
X166485500Y-116643754D01*
X166365915Y-116355050D01*
X166144950Y-116134085D01*
X165926872Y-116043754D01*
X179614500Y-116043754D01*
X179614500Y-116356246D01*
X179734085Y-116644950D01*
X179955050Y-116865915D01*
X180243754Y-116985500D01*
X180556246Y-116985500D01*
X180844950Y-116865915D01*
X181065915Y-116644950D01*
X181185500Y-116356246D01*
X181185500Y-116043754D01*
X181065915Y-115755050D01*
X180844950Y-115534085D01*
X180556246Y-115414500D01*
X180243754Y-115414500D01*
X179955050Y-115534085D01*
X179734085Y-115755050D01*
X179614500Y-116043754D01*
X165926872Y-116043754D01*
X165856246Y-116014500D01*
X165543754Y-116014500D01*
X165255050Y-116134085D01*
X165034085Y-116355050D01*
X164914500Y-116643754D01*
X158280635Y-116643754D01*
X158354175Y-116570215D01*
X158533551Y-116495915D01*
X158754516Y-116274950D01*
X158828816Y-116095573D01*
X158954589Y-115969801D01*
X160271443Y-115969801D01*
X160345484Y-116148551D01*
X160566449Y-116369516D01*
X160855153Y-116489101D01*
X161167645Y-116489101D01*
X161456349Y-116369516D01*
X161677314Y-116148551D01*
X161751355Y-115969801D01*
X165077688Y-115969801D01*
X165147729Y-115983733D01*
X165217770Y-115969801D01*
X165217775Y-115969801D01*
X165425225Y-115928537D01*
X165660475Y-115771347D01*
X165700153Y-115711965D01*
X166171509Y-115240610D01*
X166403076Y-115451645D01*
X166813110Y-115621476D01*
X167043000Y-115500155D01*
X167043000Y-114307000D01*
X167297000Y-114307000D01*
X167297000Y-115500155D01*
X167526890Y-115621476D01*
X167936924Y-115451645D01*
X168365183Y-115061358D01*
X168611486Y-114536892D01*
X168490819Y-114307000D01*
X167297000Y-114307000D01*
X167043000Y-114307000D01*
X167023000Y-114307000D01*
X167023000Y-114053000D01*
X167043000Y-114053000D01*
X167043000Y-114033000D01*
X167297000Y-114033000D01*
X167297000Y-114053000D01*
X168490819Y-114053000D01*
X168611486Y-113823108D01*
X168365183Y-113298642D01*
X167940214Y-112911353D01*
X168240625Y-112710625D01*
X168568839Y-112219418D01*
X168684092Y-111640000D01*
X168568839Y-111060582D01*
X168240625Y-110569375D01*
X168076934Y-110460000D01*
X181247829Y-110460000D01*
X180979375Y-110639375D01*
X180979375Y-110639375D01*
G37*
X180979375Y-110639375D02*
X180651161Y-111130582D01*
X180535908Y-111710000D01*
X180651161Y-112289418D01*
X180979375Y-112780625D01*
X181277761Y-112980000D01*
X180979375Y-113179375D01*
X180651161Y-113670582D01*
X180535908Y-114250000D01*
X180651161Y-114829418D01*
X180979375Y-115320625D01*
X181470582Y-115648839D01*
X181903744Y-115735000D01*
X182124835Y-115735000D01*
X182074385Y-115785450D01*
X182000085Y-115964826D01*
X180845512Y-117119400D01*
X168305822Y-117119400D01*
X168126446Y-117045100D01*
X167813954Y-117045100D01*
X167525250Y-117164685D01*
X167304285Y-117385650D01*
X167184700Y-117674354D01*
X167184700Y-117986846D01*
X167304285Y-118275550D01*
X167525250Y-118496515D01*
X167798501Y-118609699D01*
X167515142Y-118609699D01*
X167445100Y-118595767D01*
X167375058Y-118609699D01*
X167375055Y-118609699D01*
X167167605Y-118650963D01*
X167167604Y-118650964D01*
X167167603Y-118650964D01*
X166991736Y-118768475D01*
X166991734Y-118768477D01*
X166932355Y-118808153D01*
X166892679Y-118867532D01*
X166885538Y-118874673D01*
X166744950Y-118734085D01*
X166456246Y-118614500D01*
X166143754Y-118614500D01*
X165855050Y-118734085D01*
X165634085Y-118955050D01*
X165514500Y-119243754D01*
X165514500Y-119556246D01*
X165634085Y-119844950D01*
X165722135Y-119933000D01*
X165704085Y-119951050D01*
X165584500Y-120239754D01*
X165584500Y-120552246D01*
X165704085Y-120840950D01*
X165925050Y-121061915D01*
X166213754Y-121181500D01*
X166346500Y-121181500D01*
X166346500Y-121314246D01*
X166466085Y-121602950D01*
X166687050Y-121823915D01*
X166975754Y-121943500D01*
X167288246Y-121943500D01*
X167576950Y-121823915D01*
X167788801Y-121612064D01*
X167788801Y-122809499D01*
X161258364Y-122809499D01*
X161226950Y-122778085D01*
X161151703Y-122746917D01*
X161088291Y-122704546D01*
X161013492Y-122689668D01*
X160938246Y-122658500D01*
X160856798Y-122658500D01*
X160782000Y-122643622D01*
X160707202Y-122658500D01*
X160625754Y-122658500D01*
X160550508Y-122689668D01*
X160475709Y-122704546D01*
X160412297Y-122746917D01*
X160337050Y-122778085D01*
X160279458Y-122835677D01*
X160216047Y-122878047D01*
X160173677Y-122941458D01*
X160116085Y-122999050D01*
X160084917Y-123074297D01*
X160042546Y-123137709D01*
X160027668Y-123212508D01*
X159996500Y-123287754D01*
X159996500Y-123369202D01*
X159981622Y-123444000D01*
X159996500Y-123518798D01*
X159996500Y-123600246D01*
X160027668Y-123675492D01*
X160042546Y-123750291D01*
X160084917Y-123813703D01*
X160116085Y-123888950D01*
X160324176Y-124097041D01*
X160366546Y-124160452D01*
X160626207Y-124333953D01*
X160855183Y-124379499D01*
X160855187Y-124379499D01*
X160932499Y-124394877D01*
X161009811Y-124379499D01*
X170214500Y-124379499D01*
X170214500Y-124656246D01*
X170334085Y-124944950D01*
X170555050Y-125165915D01*
X170843754Y-125285500D01*
X171156246Y-125285500D01*
X171250000Y-125246666D01*
X171343754Y-125285500D01*
X171656246Y-125285500D01*
X171944950Y-125165915D01*
X172032854Y-125078011D01*
X173128585Y-126173743D01*
X173129085Y-126174950D01*
X173350050Y-126395915D01*
X173425295Y-126427082D01*
X173488707Y-126469453D01*
X173563506Y-126484331D01*
X173623600Y-126509223D01*
X173623600Y-126749846D01*
X173743185Y-127038550D01*
X173964150Y-127259515D01*
X174252854Y-127379100D01*
X174565346Y-127379100D01*
X174854050Y-127259515D01*
X174973353Y-127140212D01*
X176241347Y-128408205D01*
X176097750Y-128467685D01*
X175876785Y-128688650D01*
X175757200Y-128977354D01*
X175757200Y-129289846D01*
X175876785Y-129578550D01*
X176097750Y-129799515D01*
X176386454Y-129919100D01*
X176698946Y-129919100D01*
X176987650Y-129799515D01*
X177208615Y-129578550D01*
X177268095Y-129434953D01*
X180125208Y-132292067D01*
X180164884Y-132351446D01*
X180224263Y-132391122D01*
X180224265Y-132391124D01*
X180400132Y-132508635D01*
X180400133Y-132508635D01*
X180400134Y-132508636D01*
X180607584Y-132549900D01*
X180607587Y-132549900D01*
X180677629Y-132563832D01*
X180747671Y-132549900D01*
X193504478Y-132549900D01*
X193683854Y-132624200D01*
X193996346Y-132624200D01*
X194285050Y-132504615D01*
X194506015Y-132283650D01*
X194625600Y-131994946D01*
X194625600Y-131682454D01*
X194506015Y-131393750D01*
X194285050Y-131172785D01*
X193996346Y-131053200D01*
X193683854Y-131053200D01*
X193504478Y-131127500D01*
X192627130Y-131127500D01*
X192537515Y-130911150D01*
X192316550Y-130690185D01*
X192027846Y-130570600D01*
X191715354Y-130570600D01*
X191426650Y-130690185D01*
X191205685Y-130911150D01*
X191116070Y-131127500D01*
X181846106Y-131127500D01*
X181912900Y-130966246D01*
X181912900Y-130653754D01*
X181793315Y-130365050D01*
X181572350Y-130144085D01*
X181283646Y-130024500D01*
X180971154Y-130024500D01*
X180682450Y-130144085D01*
X180677827Y-130148708D01*
X180623246Y-130126100D01*
X180310754Y-130126100D01*
X180070383Y-130225665D01*
X174328218Y-124483500D01*
X174400246Y-124483500D01*
X174688950Y-124363915D01*
X174909915Y-124142950D01*
X175029500Y-123854246D01*
X175029500Y-123821154D01*
X179262400Y-123821154D01*
X179262400Y-124133646D01*
X179381985Y-124422350D01*
X179602950Y-124643315D01*
X179782327Y-124717615D01*
X181563046Y-126498335D01*
X181535700Y-126564354D01*
X181535700Y-126876846D01*
X181655285Y-127165550D01*
X181876250Y-127386515D01*
X182164954Y-127506100D01*
X182477446Y-127506100D01*
X182766150Y-127386515D01*
X182987115Y-127165550D01*
X183106700Y-126876846D01*
X183106700Y-126706000D01*
X183214046Y-126706000D01*
X183502750Y-126586415D01*
X183723715Y-126365450D01*
X183843300Y-126076746D01*
X183843300Y-125764254D01*
X183723715Y-125475550D01*
X183502750Y-125254585D01*
X183214046Y-125135000D01*
X182901554Y-125135000D01*
X182612850Y-125254585D01*
X182471862Y-125395573D01*
X180788115Y-123711827D01*
X180713815Y-123532450D01*
X180492850Y-123311485D01*
X180204146Y-123191900D01*
X179891654Y-123191900D01*
X179602950Y-123311485D01*
X179381985Y-123532450D01*
X179262400Y-123821154D01*
X175029500Y-123821154D01*
X175029500Y-123541754D01*
X174909915Y-123253050D01*
X174688950Y-123032085D01*
X174400246Y-122912500D01*
X174087754Y-122912500D01*
X173994794Y-122951005D01*
X171791543Y-120747754D01*
X172950500Y-120747754D01*
X172950500Y-121060246D01*
X173070085Y-121348950D01*
X173291050Y-121569915D01*
X173579754Y-121689500D01*
X173892246Y-121689500D01*
X174180950Y-121569915D01*
X174401915Y-121348950D01*
X174521500Y-121060246D01*
X174521500Y-120747754D01*
X174401915Y-120459050D01*
X174180950Y-120238085D01*
X173892246Y-120118500D01*
X173579754Y-120118500D01*
X173291050Y-120238085D01*
X173070085Y-120459050D01*
X172950500Y-120747754D01*
X171791543Y-120747754D01*
X169911323Y-118867535D01*
X169871645Y-118808153D01*
X169636395Y-118650963D01*
X169428945Y-118609699D01*
X169428940Y-118609699D01*
X169358899Y-118595767D01*
X169288858Y-118609699D01*
X168141899Y-118609699D01*
X168305822Y-118541800D01*
X170014500Y-118541800D01*
X170014500Y-118656246D01*
X170134085Y-118944950D01*
X170355050Y-119165915D01*
X170643754Y-119285500D01*
X170956246Y-119285500D01*
X171244950Y-119165915D01*
X171439330Y-118971535D01*
X171593754Y-119035500D01*
X171906246Y-119035500D01*
X172000000Y-118996666D01*
X172093754Y-119035500D01*
X172379000Y-119035500D01*
X172379000Y-119066346D01*
X172498585Y-119355050D01*
X172719550Y-119576015D01*
X173008254Y-119695600D01*
X173320746Y-119695600D01*
X173609450Y-119576015D01*
X173830415Y-119355050D01*
X173950000Y-119066346D01*
X173950000Y-118753854D01*
X173862164Y-118541800D01*
X181070059Y-118541800D01*
X181140100Y-118555732D01*
X181210141Y-118541800D01*
X181210146Y-118541800D01*
X181417596Y-118500536D01*
X181652846Y-118343346D01*
X181692524Y-118283964D01*
X182417401Y-117559087D01*
X182417401Y-119560710D01*
X181585500Y-120392612D01*
X181585500Y-120143754D01*
X181465915Y-119855050D01*
X181244950Y-119634085D01*
X180956246Y-119514500D01*
X180643754Y-119514500D01*
X180355050Y-119634085D01*
X180134085Y-119855050D01*
X180014500Y-120143754D01*
X180014500Y-120296300D01*
X179955154Y-120296300D01*
X179666450Y-120415885D01*
X179445485Y-120636850D01*
X179325900Y-120925554D01*
X179325900Y-121238046D01*
X179445485Y-121526750D01*
X179666450Y-121747715D01*
X179955154Y-121867300D01*
X180267646Y-121867300D01*
X180556350Y-121747715D01*
X180697500Y-121606565D01*
X180697500Y-121657146D01*
X180817085Y-121945850D01*
X181038050Y-122166815D01*
X181326754Y-122286400D01*
X181444065Y-122286400D01*
X181330150Y-122333585D01*
X181109185Y-122554550D01*
X180989600Y-122843254D01*
X180989600Y-123155746D01*
X181109185Y-123444450D01*
X181330150Y-123665415D01*
X181618854Y-123785000D01*
X181931346Y-123785000D01*
X182220050Y-123665415D01*
X182441015Y-123444450D01*
X182515315Y-123265073D01*
X185820034Y-119960354D01*
X189155700Y-119960354D01*
X189155700Y-120272846D01*
X189275285Y-120561550D01*
X189496250Y-120782515D01*
X189784954Y-120902100D01*
X190097446Y-120902100D01*
X190386150Y-120782515D01*
X190607115Y-120561550D01*
X190726700Y-120272846D01*
X190726700Y-119960354D01*
X190607115Y-119671650D01*
X190386150Y-119450685D01*
X190097446Y-119331100D01*
X189784954Y-119331100D01*
X189496250Y-119450685D01*
X189275285Y-119671650D01*
X189155700Y-119960354D01*
X185820034Y-119960354D01*
X186504768Y-119275621D01*
X186564144Y-119235947D01*
X186603819Y-119176570D01*
X186603823Y-119176566D01*
X186721334Y-119000699D01*
X186721334Y-119000698D01*
X186721335Y-119000697D01*
X186762599Y-118793247D01*
X186762599Y-118793244D01*
X186776531Y-118723202D01*
X186762599Y-118653160D01*
X186762599Y-115691012D01*
X186983744Y-115735000D01*
X187276256Y-115735000D01*
X187709418Y-115648839D01*
X188200625Y-115320625D01*
X188400000Y-115022239D01*
X188599375Y-115320625D01*
X189090582Y-115648839D01*
X189523744Y-115735000D01*
X189816256Y-115735000D01*
X190249418Y-115648839D01*
X190740625Y-115320625D01*
X190940000Y-115022239D01*
X191139375Y-115320625D01*
X191630582Y-115648839D01*
X192063744Y-115735000D01*
X192356256Y-115735000D01*
X192789418Y-115648839D01*
X193280625Y-115320625D01*
X193292816Y-115302381D01*
X193301843Y-115347765D01*
X193442191Y-115557809D01*
X193652235Y-115698157D01*
X193900000Y-115747440D01*
X194164695Y-115747440D01*
X193961585Y-115950550D01*
X193842000Y-116239254D01*
X193842000Y-116551746D01*
X193961585Y-116840450D01*
X194182550Y-117061415D01*
X194471254Y-117181000D01*
X194783746Y-117181000D01*
X195072450Y-117061415D01*
X195293415Y-116840450D01*
X195413000Y-116551746D01*
X195413000Y-116239254D01*
X195293415Y-115950550D01*
X195090305Y-115747440D01*
X195600000Y-115747440D01*
X195847765Y-115698157D01*
X196040000Y-115569709D01*
X196040001Y-136477694D01*
X195820625Y-136149375D01*
X195329418Y-135821161D01*
X194896256Y-135735000D01*
X194603744Y-135735000D01*
X194170582Y-135821161D01*
X193679375Y-136149375D01*
X193480000Y-136447761D01*
X193280625Y-136149375D01*
X192789418Y-135821161D01*
X192356256Y-135735000D01*
X192063744Y-135735000D01*
X191630582Y-135821161D01*
X191139375Y-136149375D01*
X190940000Y-136447761D01*
X190740625Y-136149375D01*
X190249418Y-135821161D01*
X189816256Y-135735000D01*
X189523744Y-135735000D01*
X189090582Y-135821161D01*
X188599375Y-136149375D01*
X188400000Y-136447761D01*
X188200625Y-136149375D01*
X187961361Y-135989504D01*
X188015915Y-135934950D01*
X188135500Y-135646246D01*
X188135500Y-135333754D01*
X188015915Y-135045050D01*
X187794950Y-134824085D01*
X187506246Y-134704500D01*
X187193754Y-134704500D01*
X186905050Y-134824085D01*
X186724635Y-135004500D01*
X186573754Y-135004500D01*
X186285050Y-135124085D01*
X186064085Y-135345050D01*
X185994684Y-135512599D01*
X180157318Y-135512599D01*
X178538473Y-133893754D01*
X180164500Y-133893754D01*
X180164500Y-134206246D01*
X180284085Y-134494950D01*
X180505050Y-134715915D01*
X180793754Y-134835500D01*
X181106246Y-134835500D01*
X181394950Y-134715915D01*
X181615915Y-134494950D01*
X181735500Y-134206246D01*
X181735500Y-133893754D01*
X181615915Y-133605050D01*
X181394950Y-133384085D01*
X181106246Y-133264500D01*
X180793754Y-133264500D01*
X180505050Y-133384085D01*
X180284085Y-133605050D01*
X180164500Y-133893754D01*
X178538473Y-133893754D01*
X178037529Y-133392810D01*
X178219550Y-133317415D01*
X178440515Y-133096450D01*
X178560100Y-132807746D01*
X178560100Y-132495254D01*
X178440515Y-132206550D01*
X178219550Y-131985585D01*
X177930846Y-131866000D01*
X177618354Y-131866000D01*
X177329650Y-131985585D01*
X177108685Y-132206550D01*
X177033290Y-132388571D01*
X176637448Y-131992729D01*
X176873350Y-131895015D01*
X177094315Y-131674050D01*
X177213900Y-131385346D01*
X177213900Y-131072854D01*
X177094315Y-130784150D01*
X176873350Y-130563185D01*
X176584646Y-130443600D01*
X176272154Y-130443600D01*
X175983450Y-130563185D01*
X175762485Y-130784150D01*
X175664771Y-131020053D01*
X171731451Y-127086733D01*
X171785500Y-126956246D01*
X171785500Y-126863432D01*
X171933050Y-126802315D01*
X172154015Y-126581350D01*
X172273600Y-126292646D01*
X172273600Y-125980154D01*
X172154015Y-125691450D01*
X171933050Y-125470485D01*
X171644346Y-125350900D01*
X171331854Y-125350900D01*
X171043150Y-125470485D01*
X170822185Y-125691450D01*
X170702600Y-125980154D01*
X170702600Y-126057882D01*
X169578055Y-124933337D01*
X169538377Y-124873955D01*
X169303127Y-124716765D01*
X169095677Y-124675501D01*
X169095672Y-124675501D01*
X169025631Y-124661569D01*
X168955590Y-124675501D01*
X143754992Y-124675501D01*
X143988015Y-124578980D01*
X144208980Y-124358015D01*
X144328565Y-124069311D01*
X144328565Y-123756819D01*
X144208980Y-123468115D01*
X143988015Y-123247150D01*
X143699311Y-123127565D01*
X143386819Y-123127565D01*
X143098115Y-123247150D01*
X142877150Y-123468115D01*
X142757565Y-123756819D01*
X142757565Y-124069311D01*
X142877150Y-124358015D01*
X143098115Y-124578980D01*
X143331138Y-124675501D01*
X142319557Y-124675501D01*
X142318633Y-124673270D01*
X142415900Y-124438446D01*
X142415900Y-124125954D01*
X142321263Y-123897480D01*
X142428600Y-123638346D01*
X142428600Y-123325854D01*
X142370099Y-123184619D01*
X145110964Y-120443754D01*
X162114500Y-120443754D01*
X162114500Y-120756246D01*
X162234085Y-121044950D01*
X162455050Y-121265915D01*
X162743754Y-121385500D01*
X163056246Y-121385500D01*
X163344950Y-121265915D01*
X163565915Y-121044950D01*
X163685500Y-120756246D01*
X163685500Y-120443754D01*
X163565915Y-120155050D01*
X163344950Y-119934085D01*
X163056246Y-119814500D01*
X162743754Y-119814500D01*
X162455050Y-119934085D01*
X162234085Y-120155050D01*
X162114500Y-120443754D01*
X145110964Y-120443754D01*
X146343519Y-119211200D01*
X155348560Y-119211200D01*
X155418601Y-119225132D01*
X155488642Y-119211200D01*
X155488647Y-119211200D01*
X155696097Y-119169936D01*
X155931347Y-119012746D01*
X155971025Y-118953364D01*
X156390635Y-118533754D01*
X157824500Y-118533754D01*
X157824500Y-118846246D01*
X157944085Y-119134950D01*
X158165050Y-119355915D01*
X158453754Y-119475500D01*
X158766246Y-119475500D01*
X159054950Y-119355915D01*
X159275915Y-119134950D01*
X159395500Y-118846246D01*
X159395500Y-118533754D01*
X159358221Y-118443754D01*
X161414500Y-118443754D01*
X161414500Y-118756246D01*
X161534085Y-119044950D01*
X161755050Y-119265915D01*
X162043754Y-119385500D01*
X162356246Y-119385500D01*
X162644950Y-119265915D01*
X162865915Y-119044950D01*
X162985500Y-118756246D01*
X162985500Y-118443754D01*
X162865915Y-118155050D01*
X162644950Y-117934085D01*
X162356246Y-117814500D01*
X162043754Y-117814500D01*
X161755050Y-117934085D01*
X161534085Y-118155050D01*
X161414500Y-118443754D01*
X159358221Y-118443754D01*
X159275915Y-118245050D01*
X159054950Y-118024085D01*
X158766246Y-117904500D01*
X158453754Y-117904500D01*
X158165050Y-118024085D01*
X157944085Y-118245050D01*
X157824500Y-118533754D01*
X156390635Y-118533754D01*
X158280635Y-116643754D01*
X164914500Y-116643754D01*
X164914500Y-116956246D01*
X165034085Y-117244950D01*
X165255050Y-117465915D01*
X165543754Y-117585500D01*
X165856246Y-117585500D01*
X166144950Y-117465915D01*
X166365915Y-117244950D01*
X166485500Y-116956246D01*
X166485500Y-116643754D01*
X166365915Y-116355050D01*
X166144950Y-116134085D01*
X165926872Y-116043754D01*
X179614500Y-116043754D01*
X179614500Y-116356246D01*
X179734085Y-116644950D01*
X179955050Y-116865915D01*
X180243754Y-116985500D01*
X180556246Y-116985500D01*
X180844950Y-116865915D01*
X181065915Y-116644950D01*
X181185500Y-116356246D01*
X181185500Y-116043754D01*
X181065915Y-115755050D01*
X180844950Y-115534085D01*
X180556246Y-115414500D01*
X180243754Y-115414500D01*
X179955050Y-115534085D01*
X179734085Y-115755050D01*
X179614500Y-116043754D01*
X165926872Y-116043754D01*
X165856246Y-116014500D01*
X165543754Y-116014500D01*
X165255050Y-116134085D01*
X165034085Y-116355050D01*
X164914500Y-116643754D01*
X158280635Y-116643754D01*
X158354175Y-116570215D01*
X158533551Y-116495915D01*
X158754516Y-116274950D01*
X158828816Y-116095573D01*
X158954589Y-115969801D01*
X160271443Y-115969801D01*
X160345484Y-116148551D01*
X160566449Y-116369516D01*
X160855153Y-116489101D01*
X161167645Y-116489101D01*
X161456349Y-116369516D01*
X161677314Y-116148551D01*
X161751355Y-115969801D01*
X165077688Y-115969801D01*
X165147729Y-115983733D01*
X165217770Y-115969801D01*
X165217775Y-115969801D01*
X165425225Y-115928537D01*
X165660475Y-115771347D01*
X165700153Y-115711965D01*
X166171509Y-115240610D01*
X166403076Y-115451645D01*
X166813110Y-115621476D01*
X167043000Y-115500155D01*
X167043000Y-114307000D01*
X167297000Y-114307000D01*
X167297000Y-115500155D01*
X167526890Y-115621476D01*
X167936924Y-115451645D01*
X168365183Y-115061358D01*
X168611486Y-114536892D01*
X168490819Y-114307000D01*
X167297000Y-114307000D01*
X167043000Y-114307000D01*
X167023000Y-114307000D01*
X167023000Y-114053000D01*
X167043000Y-114053000D01*
X167043000Y-114033000D01*
X167297000Y-114033000D01*
X167297000Y-114053000D01*
X168490819Y-114053000D01*
X168611486Y-113823108D01*
X168365183Y-113298642D01*
X167940214Y-112911353D01*
X168240625Y-112710625D01*
X168568839Y-112219418D01*
X168684092Y-111640000D01*
X168568839Y-111060582D01*
X168240625Y-110569375D01*
X168076934Y-110460000D01*
X181247829Y-110460000D01*
X180979375Y-110639375D01*
G36*
X165102599Y-135044010D02*
X165102599Y-135990331D01*
X164849418Y-135821161D01*
X164416256Y-135735000D01*
X164123744Y-135735000D01*
X163690582Y-135821161D01*
X163199375Y-136149375D01*
X163175409Y-136185242D01*
X160266801Y-133276635D01*
X160227124Y-133217254D01*
X159991874Y-133060064D01*
X159784424Y-133018800D01*
X159784419Y-133018800D01*
X159714378Y-133004868D01*
X159644337Y-133018800D01*
X145784589Y-133018800D01*
X144099543Y-131333754D01*
X153054500Y-131333754D01*
X153054500Y-131646246D01*
X153174085Y-131934950D01*
X153395050Y-132155915D01*
X153683754Y-132275500D01*
X153996246Y-132275500D01*
X154284950Y-132155915D01*
X154505915Y-131934950D01*
X154625500Y-131646246D01*
X154625500Y-131333754D01*
X154505915Y-131045050D01*
X154284950Y-130824085D01*
X153996246Y-130704500D01*
X153683754Y-130704500D01*
X153395050Y-130824085D01*
X153174085Y-131045050D01*
X153054500Y-131333754D01*
X144099543Y-131333754D01*
X142843689Y-130077901D01*
X160136491Y-130077901D01*
X165102599Y-135044010D01*
X165102599Y-135044010D01*
G37*
X165102599Y-135044010D02*
X165102599Y-135990331D01*
X164849418Y-135821161D01*
X164416256Y-135735000D01*
X164123744Y-135735000D01*
X163690582Y-135821161D01*
X163199375Y-136149375D01*
X163175409Y-136185242D01*
X160266801Y-133276635D01*
X160227124Y-133217254D01*
X159991874Y-133060064D01*
X159784424Y-133018800D01*
X159784419Y-133018800D01*
X159714378Y-133004868D01*
X159644337Y-133018800D01*
X145784589Y-133018800D01*
X144099543Y-131333754D01*
X153054500Y-131333754D01*
X153054500Y-131646246D01*
X153174085Y-131934950D01*
X153395050Y-132155915D01*
X153683754Y-132275500D01*
X153996246Y-132275500D01*
X154284950Y-132155915D01*
X154505915Y-131934950D01*
X154625500Y-131646246D01*
X154625500Y-131333754D01*
X154505915Y-131045050D01*
X154284950Y-130824085D01*
X153996246Y-130704500D01*
X153683754Y-130704500D01*
X153395050Y-130824085D01*
X153174085Y-131045050D01*
X153054500Y-131333754D01*
X144099543Y-131333754D01*
X142843689Y-130077901D01*
X160136491Y-130077901D01*
X165102599Y-135044010D01*
G36*
X131757902Y-134936309D02*
X130617237Y-136076975D01*
X130351200Y-135899215D01*
X130351200Y-132607427D01*
X131757901Y-131200727D01*
X131757902Y-134936309D01*
X131757902Y-134936309D01*
G37*
X131757902Y-134936309D02*
X130617237Y-136076975D01*
X130351200Y-135899215D01*
X130351200Y-132607427D01*
X131757901Y-131200727D01*
X131757902Y-134936309D01*
G36*
X140085002Y-134830791D02*
X140085002Y-135752598D01*
X139946256Y-135725000D01*
X139653744Y-135725000D01*
X139220582Y-135811161D01*
X138967401Y-135980331D01*
X138967401Y-134404600D01*
X139016246Y-134404600D01*
X139304950Y-134285015D01*
X139422088Y-134167877D01*
X140085002Y-134830791D01*
X140085002Y-134830791D01*
G37*
X140085002Y-134830791D02*
X140085002Y-135752598D01*
X139946256Y-135725000D01*
X139653744Y-135725000D01*
X139220582Y-135811161D01*
X138967401Y-135980331D01*
X138967401Y-134404600D01*
X139016246Y-134404600D01*
X139304950Y-134285015D01*
X139422088Y-134167877D01*
X140085002Y-134830791D01*
G36*
X137644500Y-125897000D02*
X137473754Y-125897000D01*
X137185050Y-126016585D01*
X136964085Y-126237550D01*
X136844500Y-126526254D01*
X136844500Y-126697100D01*
X136683754Y-126697100D01*
X136440000Y-126798066D01*
X136233328Y-126712460D01*
X136320946Y-126624842D01*
X136487350Y-126555915D01*
X136708315Y-126334950D01*
X136827900Y-126046246D01*
X136827900Y-125791200D01*
X137644500Y-125791200D01*
X137644500Y-125897000D01*
X137644500Y-125897000D01*
G37*
X137644500Y-125897000D02*
X137473754Y-125897000D01*
X137185050Y-126016585D01*
X136964085Y-126237550D01*
X136844500Y-126526254D01*
X136844500Y-126697100D01*
X136683754Y-126697100D01*
X136440000Y-126798066D01*
X136233328Y-126712460D01*
X136320946Y-126624842D01*
X136487350Y-126555915D01*
X136708315Y-126334950D01*
X136827900Y-126046246D01*
X136827900Y-125791200D01*
X137644500Y-125791200D01*
X137644500Y-125897000D01*
G36*
X132124939Y-123960728D02*
X132117826Y-123977901D01*
X125143690Y-123977901D01*
X123186989Y-122021200D01*
X130185412Y-122021200D01*
X132124939Y-123960728D01*
X132124939Y-123960728D01*
G37*
X132124939Y-123960728D02*
X132117826Y-123977901D01*
X125143690Y-123977901D01*
X123186989Y-122021200D01*
X130185412Y-122021200D01*
X132124939Y-123960728D01*
G36*
X142635002Y-119518327D02*
X142521625Y-119631704D01*
X142457842Y-119536246D01*
X142409125Y-119463336D01*
X142409123Y-119463334D01*
X142369447Y-119403955D01*
X142310068Y-119364279D01*
X142031289Y-119085500D01*
X142236246Y-119085500D01*
X142524950Y-118965915D01*
X142635002Y-118855863D01*
X142635002Y-119518327D01*
X142635002Y-119518327D01*
G37*
X142635002Y-119518327D02*
X142521625Y-119631704D01*
X142457842Y-119536246D01*
X142409125Y-119463336D01*
X142409123Y-119463334D01*
X142369447Y-119403955D01*
X142310068Y-119364279D01*
X142031289Y-119085500D01*
X142236246Y-119085500D01*
X142524950Y-118965915D01*
X142635002Y-118855863D01*
X142635002Y-119518327D01*
G36*
X155561843Y-110542235D02*
X155512560Y-110790000D01*
X155512560Y-112490000D01*
X155561843Y-112737765D01*
X155702191Y-112947809D01*
X155912235Y-113088157D01*
X156021855Y-113109961D01*
X155814817Y-113298642D01*
X155568514Y-113823108D01*
X155689181Y-114053000D01*
X156883000Y-114053000D01*
X156883000Y-114033000D01*
X157137000Y-114033000D01*
X157137000Y-114053000D01*
X157157000Y-114053000D01*
X157157000Y-114307000D01*
X157137000Y-114307000D01*
X157137000Y-114327000D01*
X156883000Y-114327000D01*
X156883000Y-114307000D01*
X155689181Y-114307000D01*
X155568514Y-114536892D01*
X155814817Y-115061358D01*
X155987872Y-115219069D01*
X155855050Y-115274085D01*
X155634085Y-115495050D01*
X155514500Y-115783754D01*
X155514500Y-116096246D01*
X155634085Y-116384950D01*
X155855050Y-116605915D01*
X156143754Y-116725500D01*
X156187313Y-116725500D01*
X155124013Y-117788800D01*
X147115500Y-117788800D01*
X147115500Y-117613754D01*
X146995915Y-117325050D01*
X146774950Y-117104085D01*
X146486246Y-116984500D01*
X146173754Y-116984500D01*
X145885050Y-117104085D01*
X145664085Y-117325050D01*
X145601200Y-117476868D01*
X145601200Y-115560785D01*
X145960625Y-115320625D01*
X146160000Y-115022239D01*
X146359375Y-115320625D01*
X146850582Y-115648839D01*
X147283744Y-115735000D01*
X147576256Y-115735000D01*
X148009418Y-115648839D01*
X148431868Y-115366567D01*
X148266985Y-115531450D01*
X148147400Y-115820154D01*
X148147400Y-116132646D01*
X148266985Y-116421350D01*
X148487950Y-116642315D01*
X148776654Y-116761900D01*
X149089146Y-116761900D01*
X149377850Y-116642315D01*
X149598815Y-116421350D01*
X149718400Y-116132646D01*
X149718400Y-115820154D01*
X149670502Y-115704518D01*
X149823744Y-115735000D01*
X150116256Y-115735000D01*
X150549418Y-115648839D01*
X151040625Y-115320625D01*
X151052816Y-115302381D01*
X151061843Y-115347765D01*
X151202191Y-115557809D01*
X151412235Y-115698157D01*
X151660000Y-115747440D01*
X153360000Y-115747440D01*
X153607765Y-115698157D01*
X153817809Y-115557809D01*
X153958157Y-115347765D01*
X154007440Y-115100000D01*
X154007440Y-113400000D01*
X153958157Y-113152235D01*
X153817809Y-112942191D01*
X153607765Y-112801843D01*
X153562381Y-112792816D01*
X153580625Y-112780625D01*
X153908839Y-112289418D01*
X154024092Y-111710000D01*
X153908839Y-111130582D01*
X153580625Y-110639375D01*
X153312171Y-110460000D01*
X155616791Y-110460000D01*
X155561843Y-110542235D01*
X155561843Y-110542235D01*
G37*
X155561843Y-110542235D02*
X155512560Y-110790000D01*
X155512560Y-112490000D01*
X155561843Y-112737765D01*
X155702191Y-112947809D01*
X155912235Y-113088157D01*
X156021855Y-113109961D01*
X155814817Y-113298642D01*
X155568514Y-113823108D01*
X155689181Y-114053000D01*
X156883000Y-114053000D01*
X156883000Y-114033000D01*
X157137000Y-114033000D01*
X157137000Y-114053000D01*
X157157000Y-114053000D01*
X157157000Y-114307000D01*
X157137000Y-114307000D01*
X157137000Y-114327000D01*
X156883000Y-114327000D01*
X156883000Y-114307000D01*
X155689181Y-114307000D01*
X155568514Y-114536892D01*
X155814817Y-115061358D01*
X155987872Y-115219069D01*
X155855050Y-115274085D01*
X155634085Y-115495050D01*
X155514500Y-115783754D01*
X155514500Y-116096246D01*
X155634085Y-116384950D01*
X155855050Y-116605915D01*
X156143754Y-116725500D01*
X156187313Y-116725500D01*
X155124013Y-117788800D01*
X147115500Y-117788800D01*
X147115500Y-117613754D01*
X146995915Y-117325050D01*
X146774950Y-117104085D01*
X146486246Y-116984500D01*
X146173754Y-116984500D01*
X145885050Y-117104085D01*
X145664085Y-117325050D01*
X145601200Y-117476868D01*
X145601200Y-115560785D01*
X145960625Y-115320625D01*
X146160000Y-115022239D01*
X146359375Y-115320625D01*
X146850582Y-115648839D01*
X147283744Y-115735000D01*
X147576256Y-115735000D01*
X148009418Y-115648839D01*
X148431868Y-115366567D01*
X148266985Y-115531450D01*
X148147400Y-115820154D01*
X148147400Y-116132646D01*
X148266985Y-116421350D01*
X148487950Y-116642315D01*
X148776654Y-116761900D01*
X149089146Y-116761900D01*
X149377850Y-116642315D01*
X149598815Y-116421350D01*
X149718400Y-116132646D01*
X149718400Y-115820154D01*
X149670502Y-115704518D01*
X149823744Y-115735000D01*
X150116256Y-115735000D01*
X150549418Y-115648839D01*
X151040625Y-115320625D01*
X151052816Y-115302381D01*
X151061843Y-115347765D01*
X151202191Y-115557809D01*
X151412235Y-115698157D01*
X151660000Y-115747440D01*
X153360000Y-115747440D01*
X153607765Y-115698157D01*
X153817809Y-115557809D01*
X153958157Y-115347765D01*
X154007440Y-115100000D01*
X154007440Y-113400000D01*
X153958157Y-113152235D01*
X153817809Y-112942191D01*
X153607765Y-112801843D01*
X153562381Y-112792816D01*
X153580625Y-112780625D01*
X153908839Y-112289418D01*
X154024092Y-111710000D01*
X153908839Y-111130582D01*
X153580625Y-110639375D01*
X153312171Y-110460000D01*
X155616791Y-110460000D01*
X155561843Y-110542235D01*
G04 #@! TD*
M02*
