G04 #@! TF.GenerationSoftware,KiCad,Pcbnew,5.0.0-rc2-dev-unknown-6940f92~62~ubuntu16.04.1*
G04 #@! TF.CreationDate,2018-03-25T22:17:42+02:00*
G04 #@! TF.ProjectId,roboy_sno,726F626F795F736E6F2E6B696361645F,rev?*
G04 #@! TF.SameCoordinates,Original*
G04 #@! TF.FileFunction,Legend,Top*
G04 #@! TF.FilePolarity,Positive*
%FSLAX46Y46*%
G04 Gerber Fmt 4.6, Leading zero omitted, Abs format (unit mm)*
G04 Created by KiCad (PCBNEW 5.0.0-rc2-dev-unknown-6940f92~62~ubuntu16.04.1) date Sun Mar 25 22:17:42 2018*
%MOMM*%
%LPD*%
G01*
G04 APERTURE LIST*
%ADD10C,0.120000*%
%ADD11C,0.100000*%
%ADD12C,0.127000*%
%ADD13C,0.150000*%
%ADD14C,0.152400*%
%ADD15C,0.050000*%
G04 APERTURE END LIST*
D10*
X125438000Y-110486000D02*
X125438000Y-109986000D01*
X124498000Y-109986000D02*
X124498000Y-110486000D01*
D11*
X159021000Y-111569000D02*
G75*
G03X159021000Y-111569000I-200000J0D01*
G01*
D12*
X170346000Y-122594000D02*
X159346000Y-122594000D01*
X170346000Y-111594000D02*
X159346000Y-111594000D01*
X170346000Y-122594000D02*
X170346000Y-111594000D01*
X159346000Y-122594000D02*
X159346000Y-111594000D01*
D10*
X153962000Y-112526000D02*
X153962000Y-113026000D01*
X154902000Y-113026000D02*
X154902000Y-112526000D01*
X156426000Y-113026000D02*
X156426000Y-112526000D01*
X155486000Y-112526000D02*
X155486000Y-113026000D01*
X150787000Y-112526000D02*
X150787000Y-113026000D01*
X151727000Y-113026000D02*
X151727000Y-112526000D01*
X153378000Y-113026000D02*
X153378000Y-112526000D01*
X152438000Y-112526000D02*
X152438000Y-113026000D01*
X127724000Y-106168000D02*
X127724000Y-105668000D01*
X126784000Y-105668000D02*
X126784000Y-106168000D01*
X118656000Y-119638000D02*
X118656000Y-120138000D01*
X119596000Y-120138000D02*
X119596000Y-119638000D01*
X116582000Y-113576000D02*
X116082000Y-113576000D01*
X116082000Y-114516000D02*
X116582000Y-114516000D01*
X124930000Y-116328000D02*
X124930000Y-115828000D01*
X123990000Y-115828000D02*
X123990000Y-116328000D01*
X123406000Y-120138000D02*
X123406000Y-119638000D01*
X122466000Y-119638000D02*
X122466000Y-120138000D01*
X117332000Y-116164000D02*
X117332000Y-120014000D01*
X115332000Y-116164000D02*
X115332000Y-120014000D01*
X117332000Y-116164000D02*
X115332000Y-116164000D01*
X116582000Y-114846000D02*
X116082000Y-114846000D01*
X116082000Y-115786000D02*
X116582000Y-115786000D01*
X121858000Y-105012000D02*
X120458000Y-105012000D01*
X120458000Y-107332000D02*
X122358000Y-107332000D01*
X154174000Y-110341000D02*
X153674000Y-110341000D01*
X153674000Y-111401000D02*
X154174000Y-111401000D01*
X158073500Y-112893500D02*
X158073500Y-112393500D01*
X157013500Y-112393500D02*
X157013500Y-112893500D01*
X156087000Y-111528000D02*
X156587000Y-111528000D01*
X156587000Y-110468000D02*
X156087000Y-110468000D01*
X167580500Y-111464500D02*
X168080500Y-111464500D01*
X168080500Y-110404500D02*
X167580500Y-110404500D01*
X162175000Y-110404500D02*
X161675000Y-110404500D01*
X161675000Y-111464500D02*
X162175000Y-111464500D01*
X157730000Y-115548000D02*
X157230000Y-115548000D01*
X157230000Y-116608000D02*
X157730000Y-116608000D01*
X157730000Y-114024000D02*
X157230000Y-114024000D01*
X157230000Y-115084000D02*
X157730000Y-115084000D01*
X154200000Y-119630000D02*
X154200000Y-119130000D01*
X153140000Y-119130000D02*
X153140000Y-119630000D01*
X124946000Y-105414000D02*
X124946000Y-105914000D01*
X126006000Y-105914000D02*
X126006000Y-105414000D01*
X118894000Y-105977500D02*
X118894000Y-105477500D01*
X117834000Y-105477500D02*
X117834000Y-105977500D01*
X124228000Y-106739500D02*
X124228000Y-106239500D01*
X123168000Y-106239500D02*
X123168000Y-106739500D01*
X120672000Y-109470000D02*
X120672000Y-108970000D01*
X119612000Y-108970000D02*
X119612000Y-109470000D01*
X121644000Y-108970000D02*
X121644000Y-109470000D01*
X122704000Y-109470000D02*
X122704000Y-108970000D01*
X120926000Y-120392000D02*
X120926000Y-119892000D01*
X119866000Y-119892000D02*
X119866000Y-120392000D01*
X121136000Y-119892000D02*
X121136000Y-120392000D01*
X122196000Y-120392000D02*
X122196000Y-119892000D01*
D13*
X130762000Y-111886000D02*
X128007000Y-111886000D01*
X130057000Y-108586000D02*
X128007000Y-108586000D01*
D10*
X155072000Y-120193000D02*
X158872000Y-120193000D01*
X155072000Y-117043000D02*
X155072000Y-120193000D01*
D14*
X95631000Y-125349000D02*
X95631000Y-126111000D01*
X95631000Y-126111000D02*
X111633000Y-126111000D01*
X111633000Y-126111000D02*
X111633000Y-125349000D01*
D13*
X123054000Y-113420000D02*
X122279000Y-113420000D01*
X123054000Y-117720000D02*
X122279000Y-117720000D01*
X118754000Y-117720000D02*
X119529000Y-117720000D01*
X118754000Y-113420000D02*
X119529000Y-113420000D01*
X123054000Y-117720000D02*
X123054000Y-116945000D01*
X118754000Y-117720000D02*
X118754000Y-116945000D01*
X123054000Y-113420000D02*
X123054000Y-114195000D01*
D10*
X144014000Y-118211500D02*
X143514000Y-118211500D01*
X143514000Y-119151500D02*
X144014000Y-119151500D01*
X131534000Y-120138000D02*
X131534000Y-119638000D01*
X130594000Y-119638000D02*
X130594000Y-120138000D01*
X128528000Y-114516000D02*
X129028000Y-114516000D01*
X129028000Y-113576000D02*
X128528000Y-113576000D01*
X137376000Y-116582000D02*
X137376000Y-116082000D01*
X136436000Y-116082000D02*
X136436000Y-116582000D01*
X134912000Y-119638000D02*
X134912000Y-120138000D01*
X135852000Y-120138000D02*
X135852000Y-119638000D01*
X129778000Y-116164000D02*
X129778000Y-120014000D01*
X127778000Y-116164000D02*
X127778000Y-120014000D01*
X129778000Y-116164000D02*
X127778000Y-116164000D01*
X128528000Y-115786000D02*
X129028000Y-115786000D01*
X129028000Y-114846000D02*
X128528000Y-114846000D01*
X131931000Y-119892000D02*
X131931000Y-120392000D01*
X132991000Y-120392000D02*
X132991000Y-119892000D01*
X134388000Y-120392000D02*
X134388000Y-119892000D01*
X133328000Y-119892000D02*
X133328000Y-120392000D01*
D13*
X135500000Y-113420000D02*
X134725000Y-113420000D01*
X135500000Y-117720000D02*
X134725000Y-117720000D01*
X131200000Y-117720000D02*
X131975000Y-117720000D01*
X131200000Y-113420000D02*
X131975000Y-113420000D01*
X135500000Y-117720000D02*
X135500000Y-116945000D01*
X131200000Y-117720000D02*
X131200000Y-116945000D01*
X135500000Y-113420000D02*
X135500000Y-114195000D01*
D10*
X141318000Y-120209000D02*
X140515530Y-120209000D01*
X139900470Y-120209000D02*
X139098000Y-120209000D01*
X141318000Y-125224000D02*
X141318000Y-120209000D01*
X139098000Y-125224000D02*
X139098000Y-120209000D01*
X141318000Y-125224000D02*
X140771471Y-125224000D01*
X139644529Y-125224000D02*
X139098000Y-125224000D01*
X141318000Y-125984000D02*
X141318000Y-126744000D01*
X141318000Y-126744000D02*
X140208000Y-126744000D01*
X148292000Y-106978000D02*
X148292000Y-105918000D01*
X149352000Y-106978000D02*
X148292000Y-106978000D01*
X150352000Y-106978000D02*
X150352000Y-104858000D01*
X150352000Y-104858000D02*
X188412000Y-104858000D01*
X150352000Y-106978000D02*
X188412000Y-106978000D01*
X188412000Y-106978000D02*
X188412000Y-104858000D01*
X148546000Y-110280000D02*
X148546000Y-109220000D01*
X149606000Y-110280000D02*
X148546000Y-110280000D01*
X150606000Y-110280000D02*
X150606000Y-108160000D01*
X150606000Y-108160000D02*
X176666000Y-108160000D01*
X150606000Y-110280000D02*
X176666000Y-110280000D01*
X176666000Y-110280000D02*
X176666000Y-108160000D01*
X130258000Y-106978000D02*
X130258000Y-105918000D01*
X131318000Y-106978000D02*
X130258000Y-106978000D01*
X132318000Y-106978000D02*
X132318000Y-104858000D01*
X132318000Y-104858000D02*
X146378000Y-104858000D01*
X132318000Y-106978000D02*
X146378000Y-106978000D01*
X146378000Y-106978000D02*
X146378000Y-104858000D01*
X177336000Y-124416000D02*
X177336000Y-125476000D01*
X176276000Y-124416000D02*
X177336000Y-124416000D01*
X175276000Y-124416000D02*
X175276000Y-126536000D01*
X175276000Y-126536000D02*
X147216000Y-126536000D01*
X175276000Y-124416000D02*
X147216000Y-124416000D01*
X147216000Y-124416000D02*
X147216000Y-126536000D01*
X91015000Y-104350000D02*
X92075000Y-104350000D01*
X91015000Y-105410000D02*
X91015000Y-104350000D01*
X91015000Y-106410000D02*
X93135000Y-106410000D01*
X93135000Y-106410000D02*
X93135000Y-126470000D01*
X91015000Y-106410000D02*
X91015000Y-126470000D01*
X91015000Y-126470000D02*
X93135000Y-126470000D01*
X133312000Y-110486000D02*
X133312000Y-109986000D01*
X132372000Y-109986000D02*
X132372000Y-110486000D01*
X125222000Y-123582000D02*
X124842000Y-123582000D01*
X125222000Y-127632000D02*
X125222000Y-127892000D01*
X125222000Y-123582000D02*
X125222000Y-125352000D01*
X117602000Y-123582000D02*
X117982000Y-123582000D01*
X117602000Y-125352000D02*
X117602000Y-123582000D01*
X117602000Y-127892000D02*
X117602000Y-127632000D01*
X129667000Y-127892000D02*
X129667000Y-127632000D01*
X129667000Y-125352000D02*
X129667000Y-123582000D01*
X129667000Y-123582000D02*
X130047000Y-123582000D01*
X137287000Y-123582000D02*
X137287000Y-125352000D01*
X137287000Y-127632000D02*
X137287000Y-127892000D01*
X137287000Y-123582000D02*
X136907000Y-123582000D01*
X144493000Y-126807500D02*
X143383000Y-126807500D01*
X144493000Y-126047500D02*
X144493000Y-126807500D01*
X142819529Y-125287500D02*
X142273000Y-125287500D01*
X144493000Y-125287500D02*
X143946471Y-125287500D01*
X142273000Y-125287500D02*
X142273000Y-120272500D01*
X144493000Y-125287500D02*
X144493000Y-120272500D01*
X143075470Y-120272500D02*
X142273000Y-120272500D01*
X144493000Y-120272500D02*
X143690530Y-120272500D01*
D13*
X124055142Y-110402666D02*
X124102761Y-110450285D01*
X124150380Y-110593142D01*
X124150380Y-110688380D01*
X124102761Y-110831238D01*
X124007523Y-110926476D01*
X123912285Y-110974095D01*
X123721809Y-111021714D01*
X123578952Y-111021714D01*
X123388476Y-110974095D01*
X123293238Y-110926476D01*
X123198000Y-110831238D01*
X123150380Y-110688380D01*
X123150380Y-110593142D01*
X123198000Y-110450285D01*
X123245619Y-110402666D01*
X123150380Y-109545523D02*
X123150380Y-109736000D01*
X123198000Y-109831238D01*
X123245619Y-109878857D01*
X123388476Y-109974095D01*
X123578952Y-110021714D01*
X123959904Y-110021714D01*
X124055142Y-109974095D01*
X124102761Y-109926476D01*
X124150380Y-109831238D01*
X124150380Y-109640761D01*
X124102761Y-109545523D01*
X124055142Y-109497904D01*
X123959904Y-109450285D01*
X123721809Y-109450285D01*
X123626571Y-109497904D01*
X123578952Y-109545523D01*
X123531333Y-109640761D01*
X123531333Y-109831238D01*
X123578952Y-109926476D01*
X123626571Y-109974095D01*
X123721809Y-110021714D01*
D15*
X158150195Y-106222077D02*
X158150195Y-107363919D01*
X158217362Y-107498253D01*
X158284530Y-107565420D01*
X158418864Y-107632587D01*
X158687532Y-107632587D01*
X158821867Y-107565420D01*
X158889034Y-107498253D01*
X158956201Y-107363919D01*
X158956201Y-106222077D01*
X159493538Y-106222077D02*
X160366711Y-106222077D01*
X159896541Y-106759415D01*
X160098042Y-106759415D01*
X160232377Y-106826582D01*
X160299544Y-106893749D01*
X160366711Y-107028083D01*
X160366711Y-107363919D01*
X160299544Y-107498253D01*
X160232377Y-107565420D01*
X160098042Y-107632587D01*
X159695040Y-107632587D01*
X159560705Y-107565420D01*
X159493538Y-107498253D01*
X151684177Y-127755577D02*
X150883869Y-127755577D01*
X151284023Y-127755577D02*
X151284023Y-126355037D01*
X151150638Y-126555114D01*
X151017253Y-126688499D01*
X150883869Y-126755191D01*
X152551178Y-126355037D02*
X152684563Y-126355037D01*
X152817948Y-126421730D01*
X152884640Y-126488422D01*
X152951332Y-126621807D01*
X153018025Y-126888576D01*
X153018025Y-127222038D01*
X152951332Y-127488808D01*
X152884640Y-127622192D01*
X152817948Y-127688885D01*
X152684563Y-127755577D01*
X152551178Y-127755577D01*
X152417793Y-127688885D01*
X152351101Y-127622192D01*
X152284409Y-127488808D01*
X152217716Y-127222038D01*
X152217716Y-126888576D01*
X152284409Y-126621807D01*
X152351101Y-126488422D01*
X152417793Y-126421730D01*
X152551178Y-126355037D01*
X153618256Y-127755577D02*
X153618256Y-126355037D01*
X154085103Y-127355423D01*
X154551950Y-126355037D01*
X154551950Y-127755577D01*
X155952490Y-127755577D02*
X155152181Y-127755577D01*
X155552335Y-127755577D02*
X155552335Y-126355037D01*
X155418950Y-126555114D01*
X155285566Y-126688499D01*
X155152181Y-126755191D01*
X157152952Y-126355037D02*
X156886183Y-126355037D01*
X156752798Y-126421730D01*
X156686106Y-126488422D01*
X156552721Y-126688499D01*
X156486029Y-126955269D01*
X156486029Y-127488808D01*
X156552721Y-127622192D01*
X156619413Y-127688885D01*
X156752798Y-127755577D01*
X157019568Y-127755577D01*
X157152952Y-127688885D01*
X157219645Y-127622192D01*
X157286337Y-127488808D01*
X157286337Y-127155346D01*
X157219645Y-127021961D01*
X157152952Y-126955269D01*
X157019568Y-126888576D01*
X156752798Y-126888576D01*
X156619413Y-126955269D01*
X156552721Y-127021961D01*
X156486029Y-127155346D01*
X157819876Y-127688885D02*
X158019953Y-127755577D01*
X158353415Y-127755577D01*
X158486800Y-127688885D01*
X158553492Y-127622192D01*
X158620185Y-127488808D01*
X158620185Y-127355423D01*
X158553492Y-127222038D01*
X158486800Y-127155346D01*
X158353415Y-127088653D01*
X158086646Y-127021961D01*
X157953261Y-126955269D01*
X157886569Y-126888576D01*
X157819876Y-126755191D01*
X157819876Y-126621807D01*
X157886569Y-126488422D01*
X157953261Y-126421730D01*
X158086646Y-126355037D01*
X158420108Y-126355037D01*
X158620185Y-126421730D01*
X159153724Y-127355423D02*
X159820648Y-127355423D01*
X159020339Y-127755577D02*
X159487186Y-126355037D01*
X159954032Y-127755577D01*
X160420879Y-126355037D02*
X160420879Y-127488808D01*
X160487571Y-127622192D01*
X160554264Y-127688885D01*
X160687649Y-127755577D01*
X160954418Y-127755577D01*
X161087803Y-127688885D01*
X161154495Y-127622192D01*
X161221188Y-127488808D01*
X161221188Y-126355037D01*
X162621728Y-127755577D02*
X161821419Y-127755577D01*
X162221573Y-127755577D02*
X162221573Y-126355037D01*
X162088189Y-126555114D01*
X161954804Y-126688499D01*
X161821419Y-126755191D01*
X163822190Y-126355037D02*
X163555421Y-126355037D01*
X163422036Y-126421730D01*
X163355344Y-126488422D01*
X163221959Y-126688499D01*
X163155267Y-126955269D01*
X163155267Y-127488808D01*
X163221959Y-127622192D01*
X163288651Y-127688885D01*
X163422036Y-127755577D01*
X163688806Y-127755577D01*
X163822190Y-127688885D01*
X163888883Y-127622192D01*
X163955575Y-127488808D01*
X163955575Y-127155346D01*
X163888883Y-127021961D01*
X163822190Y-126955269D01*
X163688806Y-126888576D01*
X163422036Y-126888576D01*
X163288651Y-126955269D01*
X163221959Y-127021961D01*
X163155267Y-127155346D01*
X164622499Y-127755577D02*
X164889269Y-127755577D01*
X165022653Y-127688885D01*
X165089346Y-127622192D01*
X165222730Y-127422115D01*
X165289423Y-127155346D01*
X165289423Y-126621807D01*
X165222730Y-126488422D01*
X165156038Y-126421730D01*
X165022653Y-126355037D01*
X164755884Y-126355037D01*
X164622499Y-126421730D01*
X164555807Y-126488422D01*
X164489114Y-126621807D01*
X164489114Y-126955269D01*
X164555807Y-127088653D01*
X164622499Y-127155346D01*
X164755884Y-127222038D01*
X165022653Y-127222038D01*
X165156038Y-127155346D01*
X165222730Y-127088653D01*
X165289423Y-126955269D01*
X166689963Y-127622192D02*
X166623270Y-127688885D01*
X166423193Y-127755577D01*
X166289809Y-127755577D01*
X166089731Y-127688885D01*
X165956347Y-127555500D01*
X165889654Y-127422115D01*
X165822962Y-127155346D01*
X165822962Y-126955269D01*
X165889654Y-126688499D01*
X165956347Y-126555114D01*
X166089731Y-126421730D01*
X166289809Y-126355037D01*
X166423193Y-126355037D01*
X166623270Y-126421730D01*
X166689963Y-126488422D01*
X167490271Y-126955269D02*
X167356887Y-126888576D01*
X167290194Y-126821884D01*
X167223502Y-126688499D01*
X167223502Y-126621807D01*
X167290194Y-126488422D01*
X167356887Y-126421730D01*
X167490271Y-126355037D01*
X167757041Y-126355037D01*
X167890426Y-126421730D01*
X167957118Y-126488422D01*
X168023810Y-126621807D01*
X168023810Y-126688499D01*
X167957118Y-126821884D01*
X167890426Y-126888576D01*
X167757041Y-126955269D01*
X167490271Y-126955269D01*
X167356887Y-127021961D01*
X167290194Y-127088653D01*
X167223502Y-127222038D01*
X167223502Y-127488808D01*
X167290194Y-127622192D01*
X167356887Y-127688885D01*
X167490271Y-127755577D01*
X167757041Y-127755577D01*
X167890426Y-127688885D01*
X167957118Y-127622192D01*
X168023810Y-127488808D01*
X168023810Y-127222038D01*
X167957118Y-127088653D01*
X167890426Y-127021961D01*
X167757041Y-126955269D01*
X169357658Y-126421730D02*
X169224273Y-126355037D01*
X169024196Y-126355037D01*
X168824119Y-126421730D01*
X168690734Y-126555114D01*
X168624042Y-126688499D01*
X168557350Y-126955269D01*
X168557350Y-127155346D01*
X168624042Y-127422115D01*
X168690734Y-127555500D01*
X168824119Y-127688885D01*
X169024196Y-127755577D01*
X169157581Y-127755577D01*
X169357658Y-127688885D01*
X169424350Y-127622192D01*
X169424350Y-127155346D01*
X169157581Y-127155346D01*
D13*
X148883642Y-112879166D02*
X148931261Y-112926785D01*
X148978880Y-113069642D01*
X148978880Y-113164880D01*
X148931261Y-113307738D01*
X148836023Y-113402976D01*
X148740785Y-113450595D01*
X148550309Y-113498214D01*
X148407452Y-113498214D01*
X148216976Y-113450595D01*
X148121738Y-113402976D01*
X148026500Y-113307738D01*
X147978880Y-113164880D01*
X147978880Y-113069642D01*
X148026500Y-112926785D01*
X148074119Y-112879166D01*
X148978880Y-111926785D02*
X148978880Y-112498214D01*
X148978880Y-112212500D02*
X147978880Y-112212500D01*
X148121738Y-112307738D01*
X148216976Y-112402976D01*
X148264595Y-112498214D01*
X157583142Y-112942666D02*
X157630761Y-112990285D01*
X157678380Y-113133142D01*
X157678380Y-113228380D01*
X157630761Y-113371238D01*
X157535523Y-113466476D01*
X157440285Y-113514095D01*
X157249809Y-113561714D01*
X157106952Y-113561714D01*
X156916476Y-113514095D01*
X156821238Y-113466476D01*
X156726000Y-113371238D01*
X156678380Y-113228380D01*
X156678380Y-113133142D01*
X156726000Y-112990285D01*
X156773619Y-112942666D01*
X156678380Y-112609333D02*
X156678380Y-111990285D01*
X157059333Y-112323619D01*
X157059333Y-112180761D01*
X157106952Y-112085523D01*
X157154571Y-112037904D01*
X157249809Y-111990285D01*
X157487904Y-111990285D01*
X157583142Y-112037904D01*
X157630761Y-112085523D01*
X157678380Y-112180761D01*
X157678380Y-112466476D01*
X157630761Y-112561714D01*
X157583142Y-112609333D01*
X146343642Y-112942666D02*
X146391261Y-112990285D01*
X146438880Y-113133142D01*
X146438880Y-113228380D01*
X146391261Y-113371238D01*
X146296023Y-113466476D01*
X146200785Y-113514095D01*
X146010309Y-113561714D01*
X145867452Y-113561714D01*
X145676976Y-113514095D01*
X145581738Y-113466476D01*
X145486500Y-113371238D01*
X145438880Y-113228380D01*
X145438880Y-113133142D01*
X145486500Y-112990285D01*
X145534119Y-112942666D01*
X145772214Y-112085523D02*
X146438880Y-112085523D01*
X145391261Y-112323619D02*
X146105547Y-112561714D01*
X146105547Y-111942666D01*
X147613642Y-112942666D02*
X147661261Y-112990285D01*
X147708880Y-113133142D01*
X147708880Y-113228380D01*
X147661261Y-113371238D01*
X147566023Y-113466476D01*
X147470785Y-113514095D01*
X147280309Y-113561714D01*
X147137452Y-113561714D01*
X146946976Y-113514095D01*
X146851738Y-113466476D01*
X146756500Y-113371238D01*
X146708880Y-113228380D01*
X146708880Y-113133142D01*
X146756500Y-112990285D01*
X146804119Y-112942666D01*
X146708880Y-112037904D02*
X146708880Y-112514095D01*
X147185071Y-112561714D01*
X147137452Y-112514095D01*
X147089833Y-112418857D01*
X147089833Y-112180761D01*
X147137452Y-112085523D01*
X147185071Y-112037904D01*
X147280309Y-111990285D01*
X147518404Y-111990285D01*
X147613642Y-112037904D01*
X147661261Y-112085523D01*
X147708880Y-112180761D01*
X147708880Y-112418857D01*
X147661261Y-112514095D01*
X147613642Y-112561714D01*
X128754142Y-106021166D02*
X128801761Y-106068785D01*
X128849380Y-106211642D01*
X128849380Y-106306880D01*
X128801761Y-106449738D01*
X128706523Y-106544976D01*
X128611285Y-106592595D01*
X128420809Y-106640214D01*
X128277952Y-106640214D01*
X128087476Y-106592595D01*
X127992238Y-106544976D01*
X127897000Y-106449738D01*
X127849380Y-106306880D01*
X127849380Y-106211642D01*
X127897000Y-106068785D01*
X127944619Y-106021166D01*
X127849380Y-105687833D02*
X127849380Y-105021166D01*
X128849380Y-105449738D01*
X118467142Y-120054666D02*
X118514761Y-120102285D01*
X118562380Y-120245142D01*
X118562380Y-120340380D01*
X118514761Y-120483238D01*
X118419523Y-120578476D01*
X118324285Y-120626095D01*
X118133809Y-120673714D01*
X117990952Y-120673714D01*
X117800476Y-120626095D01*
X117705238Y-120578476D01*
X117610000Y-120483238D01*
X117562380Y-120340380D01*
X117562380Y-120245142D01*
X117610000Y-120102285D01*
X117657619Y-120054666D01*
X117990952Y-119483238D02*
X117943333Y-119578476D01*
X117895714Y-119626095D01*
X117800476Y-119673714D01*
X117752857Y-119673714D01*
X117657619Y-119626095D01*
X117610000Y-119578476D01*
X117562380Y-119483238D01*
X117562380Y-119292761D01*
X117610000Y-119197523D01*
X117657619Y-119149904D01*
X117752857Y-119102285D01*
X117800476Y-119102285D01*
X117895714Y-119149904D01*
X117943333Y-119197523D01*
X117990952Y-119292761D01*
X117990952Y-119483238D01*
X118038571Y-119578476D01*
X118086190Y-119626095D01*
X118181428Y-119673714D01*
X118371904Y-119673714D01*
X118467142Y-119626095D01*
X118514761Y-119578476D01*
X118562380Y-119483238D01*
X118562380Y-119292761D01*
X118514761Y-119197523D01*
X118467142Y-119149904D01*
X118371904Y-119102285D01*
X118181428Y-119102285D01*
X118086190Y-119149904D01*
X118038571Y-119197523D01*
X117990952Y-119292761D01*
X116165333Y-115673142D02*
X116117714Y-115720761D01*
X115974857Y-115768380D01*
X115879619Y-115768380D01*
X115736761Y-115720761D01*
X115641523Y-115625523D01*
X115593904Y-115530285D01*
X115546285Y-115339809D01*
X115546285Y-115196952D01*
X115593904Y-115006476D01*
X115641523Y-114911238D01*
X115736761Y-114816000D01*
X115879619Y-114768380D01*
X115974857Y-114768380D01*
X116117714Y-114816000D01*
X116165333Y-114863619D01*
X116641523Y-115768380D02*
X116832000Y-115768380D01*
X116927238Y-115720761D01*
X116974857Y-115673142D01*
X117070095Y-115530285D01*
X117117714Y-115339809D01*
X117117714Y-114958857D01*
X117070095Y-114863619D01*
X117022476Y-114816000D01*
X116927238Y-114768380D01*
X116736761Y-114768380D01*
X116641523Y-114816000D01*
X116593904Y-114863619D01*
X116546285Y-114958857D01*
X116546285Y-115196952D01*
X116593904Y-115292190D01*
X116641523Y-115339809D01*
X116736761Y-115387428D01*
X116927238Y-115387428D01*
X117022476Y-115339809D01*
X117070095Y-115292190D01*
X117117714Y-115196952D01*
X123547142Y-116720857D02*
X123594761Y-116768476D01*
X123642380Y-116911333D01*
X123642380Y-117006571D01*
X123594761Y-117149428D01*
X123499523Y-117244666D01*
X123404285Y-117292285D01*
X123213809Y-117339904D01*
X123070952Y-117339904D01*
X122880476Y-117292285D01*
X122785238Y-117244666D01*
X122690000Y-117149428D01*
X122642380Y-117006571D01*
X122642380Y-116911333D01*
X122690000Y-116768476D01*
X122737619Y-116720857D01*
X123642380Y-115768476D02*
X123642380Y-116339904D01*
X123642380Y-116054190D02*
X122642380Y-116054190D01*
X122785238Y-116149428D01*
X122880476Y-116244666D01*
X122928095Y-116339904D01*
X122642380Y-115149428D02*
X122642380Y-115054190D01*
X122690000Y-114958952D01*
X122737619Y-114911333D01*
X122832857Y-114863714D01*
X123023333Y-114816095D01*
X123261428Y-114816095D01*
X123451904Y-114863714D01*
X123547142Y-114911333D01*
X123594761Y-114958952D01*
X123642380Y-115054190D01*
X123642380Y-115149428D01*
X123594761Y-115244666D01*
X123547142Y-115292285D01*
X123451904Y-115339904D01*
X123261428Y-115387523D01*
X123023333Y-115387523D01*
X122832857Y-115339904D01*
X122737619Y-115292285D01*
X122690000Y-115244666D01*
X122642380Y-115149428D01*
X125769642Y-120657857D02*
X125817261Y-120705476D01*
X125864880Y-120848333D01*
X125864880Y-120943571D01*
X125817261Y-121086428D01*
X125722023Y-121181666D01*
X125626785Y-121229285D01*
X125436309Y-121276904D01*
X125293452Y-121276904D01*
X125102976Y-121229285D01*
X125007738Y-121181666D01*
X124912500Y-121086428D01*
X124864880Y-120943571D01*
X124864880Y-120848333D01*
X124912500Y-120705476D01*
X124960119Y-120657857D01*
X125864880Y-119705476D02*
X125864880Y-120276904D01*
X125864880Y-119991190D02*
X124864880Y-119991190D01*
X125007738Y-120086428D01*
X125102976Y-120181666D01*
X125150595Y-120276904D01*
X125864880Y-118753095D02*
X125864880Y-119324523D01*
X125864880Y-119038809D02*
X124864880Y-119038809D01*
X125007738Y-119134047D01*
X125102976Y-119229285D01*
X125150595Y-119324523D01*
X114942880Y-118975095D02*
X113942880Y-118975095D01*
X113942880Y-118737000D01*
X113990500Y-118594142D01*
X114085738Y-118498904D01*
X114180976Y-118451285D01*
X114371452Y-118403666D01*
X114514309Y-118403666D01*
X114704785Y-118451285D01*
X114800023Y-118498904D01*
X114895261Y-118594142D01*
X114942880Y-118737000D01*
X114942880Y-118975095D01*
X114942880Y-117451285D02*
X114942880Y-118022714D01*
X114942880Y-117737000D02*
X113942880Y-117737000D01*
X114085738Y-117832238D01*
X114180976Y-117927476D01*
X114228595Y-118022714D01*
X116165333Y-114498380D02*
X115689142Y-114498380D01*
X115689142Y-113498380D01*
X117022476Y-114498380D02*
X116451047Y-114498380D01*
X116736761Y-114498380D02*
X116736761Y-113498380D01*
X116641523Y-113641238D01*
X116546285Y-113736476D01*
X116451047Y-113784095D01*
X121062761Y-108719619D02*
X120967523Y-108672000D01*
X120872285Y-108576761D01*
X120729428Y-108433904D01*
X120634190Y-108386285D01*
X120538952Y-108386285D01*
X120586571Y-108624380D02*
X120491333Y-108576761D01*
X120396095Y-108481523D01*
X120348476Y-108291047D01*
X120348476Y-107957714D01*
X120396095Y-107767238D01*
X120491333Y-107672000D01*
X120586571Y-107624380D01*
X120777047Y-107624380D01*
X120872285Y-107672000D01*
X120967523Y-107767238D01*
X121015142Y-107957714D01*
X121015142Y-108291047D01*
X120967523Y-108481523D01*
X120872285Y-108576761D01*
X120777047Y-108624380D01*
X120586571Y-108624380D01*
X121967523Y-108624380D02*
X121396095Y-108624380D01*
X121681809Y-108624380D02*
X121681809Y-107624380D01*
X121586571Y-107767238D01*
X121491333Y-107862476D01*
X121396095Y-107910095D01*
X151979333Y-111386880D02*
X151646000Y-110910690D01*
X151407904Y-111386880D02*
X151407904Y-110386880D01*
X151788857Y-110386880D01*
X151884095Y-110434500D01*
X151931714Y-110482119D01*
X151979333Y-110577357D01*
X151979333Y-110720214D01*
X151931714Y-110815452D01*
X151884095Y-110863071D01*
X151788857Y-110910690D01*
X151407904Y-110910690D01*
X152931714Y-111386880D02*
X152360285Y-111386880D01*
X152646000Y-111386880D02*
X152646000Y-110386880D01*
X152550761Y-110529738D01*
X152455523Y-110624976D01*
X152360285Y-110672595D01*
X150312380Y-112942666D02*
X149836190Y-113276000D01*
X150312380Y-113514095D02*
X149312380Y-113514095D01*
X149312380Y-113133142D01*
X149360000Y-113037904D01*
X149407619Y-112990285D01*
X149502857Y-112942666D01*
X149645714Y-112942666D01*
X149740952Y-112990285D01*
X149788571Y-113037904D01*
X149836190Y-113133142D01*
X149836190Y-113514095D01*
X149407619Y-112561714D02*
X149360000Y-112514095D01*
X149312380Y-112418857D01*
X149312380Y-112180761D01*
X149360000Y-112085523D01*
X149407619Y-112037904D01*
X149502857Y-111990285D01*
X149598095Y-111990285D01*
X149740952Y-112037904D01*
X150312380Y-112609333D01*
X150312380Y-111990285D01*
X158011833Y-111450380D02*
X157678500Y-110974190D01*
X157440404Y-111450380D02*
X157440404Y-110450380D01*
X157821357Y-110450380D01*
X157916595Y-110498000D01*
X157964214Y-110545619D01*
X158011833Y-110640857D01*
X158011833Y-110783714D01*
X157964214Y-110878952D01*
X157916595Y-110926571D01*
X157821357Y-110974190D01*
X157440404Y-110974190D01*
X158345166Y-110450380D02*
X158964214Y-110450380D01*
X158630880Y-110831333D01*
X158773738Y-110831333D01*
X158868976Y-110878952D01*
X158916595Y-110926571D01*
X158964214Y-111021809D01*
X158964214Y-111259904D01*
X158916595Y-111355142D01*
X158868976Y-111402761D01*
X158773738Y-111450380D01*
X158488023Y-111450380D01*
X158392785Y-111402761D01*
X158345166Y-111355142D01*
X167663833Y-112736880D02*
X167330500Y-112260690D01*
X167092404Y-112736880D02*
X167092404Y-111736880D01*
X167473357Y-111736880D01*
X167568595Y-111784500D01*
X167616214Y-111832119D01*
X167663833Y-111927357D01*
X167663833Y-112070214D01*
X167616214Y-112165452D01*
X167568595Y-112213071D01*
X167473357Y-112260690D01*
X167092404Y-112260690D01*
X168520976Y-112070214D02*
X168520976Y-112736880D01*
X168282880Y-111689261D02*
X168044785Y-112403547D01*
X168663833Y-112403547D01*
X159916833Y-111323380D02*
X159583500Y-110847190D01*
X159345404Y-111323380D02*
X159345404Y-110323380D01*
X159726357Y-110323380D01*
X159821595Y-110371000D01*
X159869214Y-110418619D01*
X159916833Y-110513857D01*
X159916833Y-110656714D01*
X159869214Y-110751952D01*
X159821595Y-110799571D01*
X159726357Y-110847190D01*
X159345404Y-110847190D01*
X160821595Y-110323380D02*
X160345404Y-110323380D01*
X160297785Y-110799571D01*
X160345404Y-110751952D01*
X160440642Y-110704333D01*
X160678738Y-110704333D01*
X160773976Y-110751952D01*
X160821595Y-110799571D01*
X160869214Y-110894809D01*
X160869214Y-111132904D01*
X160821595Y-111228142D01*
X160773976Y-111275761D01*
X160678738Y-111323380D01*
X160440642Y-111323380D01*
X160345404Y-111275761D01*
X160297785Y-111228142D01*
X155408333Y-116593880D02*
X155075000Y-116117690D01*
X154836904Y-116593880D02*
X154836904Y-115593880D01*
X155217857Y-115593880D01*
X155313095Y-115641500D01*
X155360714Y-115689119D01*
X155408333Y-115784357D01*
X155408333Y-115927214D01*
X155360714Y-116022452D01*
X155313095Y-116070071D01*
X155217857Y-116117690D01*
X154836904Y-116117690D01*
X156265476Y-115593880D02*
X156075000Y-115593880D01*
X155979761Y-115641500D01*
X155932142Y-115689119D01*
X155836904Y-115831976D01*
X155789285Y-116022452D01*
X155789285Y-116403404D01*
X155836904Y-116498642D01*
X155884523Y-116546261D01*
X155979761Y-116593880D01*
X156170238Y-116593880D01*
X156265476Y-116546261D01*
X156313095Y-116498642D01*
X156360714Y-116403404D01*
X156360714Y-116165309D01*
X156313095Y-116070071D01*
X156265476Y-116022452D01*
X156170238Y-115974833D01*
X155979761Y-115974833D01*
X155884523Y-116022452D01*
X155836904Y-116070071D01*
X155789285Y-116165309D01*
X155535333Y-115133380D02*
X155202000Y-114657190D01*
X154963904Y-115133380D02*
X154963904Y-114133380D01*
X155344857Y-114133380D01*
X155440095Y-114181000D01*
X155487714Y-114228619D01*
X155535333Y-114323857D01*
X155535333Y-114466714D01*
X155487714Y-114561952D01*
X155440095Y-114609571D01*
X155344857Y-114657190D01*
X154963904Y-114657190D01*
X155868666Y-114133380D02*
X156535333Y-114133380D01*
X156106761Y-115133380D01*
X152915880Y-119419666D02*
X152439690Y-119753000D01*
X152915880Y-119991095D02*
X151915880Y-119991095D01*
X151915880Y-119610142D01*
X151963500Y-119514904D01*
X152011119Y-119467285D01*
X152106357Y-119419666D01*
X152249214Y-119419666D01*
X152344452Y-119467285D01*
X152392071Y-119514904D01*
X152439690Y-119610142D01*
X152439690Y-119991095D01*
X152344452Y-118848238D02*
X152296833Y-118943476D01*
X152249214Y-118991095D01*
X152153976Y-119038714D01*
X152106357Y-119038714D01*
X152011119Y-118991095D01*
X151963500Y-118943476D01*
X151915880Y-118848238D01*
X151915880Y-118657761D01*
X151963500Y-118562523D01*
X152011119Y-118514904D01*
X152106357Y-118467285D01*
X152153976Y-118467285D01*
X152249214Y-118514904D01*
X152296833Y-118562523D01*
X152344452Y-118657761D01*
X152344452Y-118848238D01*
X152392071Y-118943476D01*
X152439690Y-118991095D01*
X152534928Y-119038714D01*
X152725404Y-119038714D01*
X152820642Y-118991095D01*
X152868261Y-118943476D01*
X152915880Y-118848238D01*
X152915880Y-118657761D01*
X152868261Y-118562523D01*
X152820642Y-118514904D01*
X152725404Y-118467285D01*
X152534928Y-118467285D01*
X152439690Y-118514904D01*
X152392071Y-118562523D01*
X152344452Y-118657761D01*
X126055380Y-107608666D02*
X125579190Y-107942000D01*
X126055380Y-108180095D02*
X125055380Y-108180095D01*
X125055380Y-107799142D01*
X125103000Y-107703904D01*
X125150619Y-107656285D01*
X125245857Y-107608666D01*
X125388714Y-107608666D01*
X125483952Y-107656285D01*
X125531571Y-107703904D01*
X125579190Y-107799142D01*
X125579190Y-108180095D01*
X126055380Y-107132476D02*
X126055380Y-106942000D01*
X126007761Y-106846761D01*
X125960142Y-106799142D01*
X125817285Y-106703904D01*
X125626809Y-106656285D01*
X125245857Y-106656285D01*
X125150619Y-106703904D01*
X125103000Y-106751523D01*
X125055380Y-106846761D01*
X125055380Y-107037238D01*
X125103000Y-107132476D01*
X125150619Y-107180095D01*
X125245857Y-107227714D01*
X125483952Y-107227714D01*
X125579190Y-107180095D01*
X125626809Y-107132476D01*
X125674428Y-107037238D01*
X125674428Y-106846761D01*
X125626809Y-106751523D01*
X125579190Y-106703904D01*
X125483952Y-106656285D01*
X117546380Y-106370357D02*
X117070190Y-106703690D01*
X117546380Y-106941785D02*
X116546380Y-106941785D01*
X116546380Y-106560833D01*
X116594000Y-106465595D01*
X116641619Y-106417976D01*
X116736857Y-106370357D01*
X116879714Y-106370357D01*
X116974952Y-106417976D01*
X117022571Y-106465595D01*
X117070190Y-106560833D01*
X117070190Y-106941785D01*
X117546380Y-105417976D02*
X117546380Y-105989404D01*
X117546380Y-105703690D02*
X116546380Y-105703690D01*
X116689238Y-105798928D01*
X116784476Y-105894166D01*
X116832095Y-105989404D01*
X116546380Y-104798928D02*
X116546380Y-104703690D01*
X116594000Y-104608452D01*
X116641619Y-104560833D01*
X116736857Y-104513214D01*
X116927333Y-104465595D01*
X117165428Y-104465595D01*
X117355904Y-104513214D01*
X117451142Y-104560833D01*
X117498761Y-104608452D01*
X117546380Y-104703690D01*
X117546380Y-104798928D01*
X117498761Y-104894166D01*
X117451142Y-104941785D01*
X117355904Y-104989404D01*
X117165428Y-105037023D01*
X116927333Y-105037023D01*
X116736857Y-104989404D01*
X116641619Y-104941785D01*
X116594000Y-104894166D01*
X116546380Y-104798928D01*
X122800380Y-107132357D02*
X122324190Y-107465690D01*
X122800380Y-107703785D02*
X121800380Y-107703785D01*
X121800380Y-107322833D01*
X121848000Y-107227595D01*
X121895619Y-107179976D01*
X121990857Y-107132357D01*
X122133714Y-107132357D01*
X122228952Y-107179976D01*
X122276571Y-107227595D01*
X122324190Y-107322833D01*
X122324190Y-107703785D01*
X122800380Y-106179976D02*
X122800380Y-106751404D01*
X122800380Y-106465690D02*
X121800380Y-106465690D01*
X121943238Y-106560928D01*
X122038476Y-106656166D01*
X122086095Y-106751404D01*
X122800380Y-105227595D02*
X122800380Y-105799023D01*
X122800380Y-105513309D02*
X121800380Y-105513309D01*
X121943238Y-105608547D01*
X122038476Y-105703785D01*
X122086095Y-105799023D01*
X119387880Y-109799357D02*
X118911690Y-110132690D01*
X119387880Y-110370785D02*
X118387880Y-110370785D01*
X118387880Y-109989833D01*
X118435500Y-109894595D01*
X118483119Y-109846976D01*
X118578357Y-109799357D01*
X118721214Y-109799357D01*
X118816452Y-109846976D01*
X118864071Y-109894595D01*
X118911690Y-109989833D01*
X118911690Y-110370785D01*
X119387880Y-108846976D02*
X119387880Y-109418404D01*
X119387880Y-109132690D02*
X118387880Y-109132690D01*
X118530738Y-109227928D01*
X118625976Y-109323166D01*
X118673595Y-109418404D01*
X118483119Y-108466023D02*
X118435500Y-108418404D01*
X118387880Y-108323166D01*
X118387880Y-108085071D01*
X118435500Y-107989833D01*
X118483119Y-107942214D01*
X118578357Y-107894595D01*
X118673595Y-107894595D01*
X118816452Y-107942214D01*
X119387880Y-108513642D01*
X119387880Y-107894595D01*
X123832880Y-109799357D02*
X123356690Y-110132690D01*
X123832880Y-110370785D02*
X122832880Y-110370785D01*
X122832880Y-109989833D01*
X122880500Y-109894595D01*
X122928119Y-109846976D01*
X123023357Y-109799357D01*
X123166214Y-109799357D01*
X123261452Y-109846976D01*
X123309071Y-109894595D01*
X123356690Y-109989833D01*
X123356690Y-110370785D01*
X123832880Y-108846976D02*
X123832880Y-109418404D01*
X123832880Y-109132690D02*
X122832880Y-109132690D01*
X122975738Y-109227928D01*
X123070976Y-109323166D01*
X123118595Y-109418404D01*
X122832880Y-108513642D02*
X122832880Y-107894595D01*
X123213833Y-108227928D01*
X123213833Y-108085071D01*
X123261452Y-107989833D01*
X123309071Y-107942214D01*
X123404309Y-107894595D01*
X123642404Y-107894595D01*
X123737642Y-107942214D01*
X123785261Y-107989833D01*
X123832880Y-108085071D01*
X123832880Y-108370785D01*
X123785261Y-108466023D01*
X123737642Y-108513642D01*
X120388142Y-119133880D02*
X120054809Y-118657690D01*
X119816714Y-119133880D02*
X119816714Y-118133880D01*
X120197666Y-118133880D01*
X120292904Y-118181500D01*
X120340523Y-118229119D01*
X120388142Y-118324357D01*
X120388142Y-118467214D01*
X120340523Y-118562452D01*
X120292904Y-118610071D01*
X120197666Y-118657690D01*
X119816714Y-118657690D01*
X121340523Y-119133880D02*
X120769095Y-119133880D01*
X121054809Y-119133880D02*
X121054809Y-118133880D01*
X120959571Y-118276738D01*
X120864333Y-118371976D01*
X120769095Y-118419595D01*
X122197666Y-118467214D02*
X122197666Y-119133880D01*
X121959571Y-118086261D02*
X121721476Y-118800547D01*
X122340523Y-118800547D01*
X124658380Y-120594357D02*
X124182190Y-120927690D01*
X124658380Y-121165785D02*
X123658380Y-121165785D01*
X123658380Y-120784833D01*
X123706000Y-120689595D01*
X123753619Y-120641976D01*
X123848857Y-120594357D01*
X123991714Y-120594357D01*
X124086952Y-120641976D01*
X124134571Y-120689595D01*
X124182190Y-120784833D01*
X124182190Y-121165785D01*
X124658380Y-119641976D02*
X124658380Y-120213404D01*
X124658380Y-119927690D02*
X123658380Y-119927690D01*
X123801238Y-120022928D01*
X123896476Y-120118166D01*
X123944095Y-120213404D01*
X123658380Y-118737214D02*
X123658380Y-119213404D01*
X124134571Y-119261023D01*
X124086952Y-119213404D01*
X124039333Y-119118166D01*
X124039333Y-118880071D01*
X124086952Y-118784833D01*
X124134571Y-118737214D01*
X124229809Y-118689595D01*
X124467904Y-118689595D01*
X124563142Y-118737214D01*
X124610761Y-118784833D01*
X124658380Y-118880071D01*
X124658380Y-119118166D01*
X124610761Y-119213404D01*
X124563142Y-119261023D01*
X182308666Y-112672761D02*
X182451523Y-112720380D01*
X182689619Y-112720380D01*
X182784857Y-112672761D01*
X182832476Y-112625142D01*
X182880095Y-112529904D01*
X182880095Y-112434666D01*
X182832476Y-112339428D01*
X182784857Y-112291809D01*
X182689619Y-112244190D01*
X182499142Y-112196571D01*
X182403904Y-112148952D01*
X182356285Y-112101333D01*
X182308666Y-112006095D01*
X182308666Y-111910857D01*
X182356285Y-111815619D01*
X182403904Y-111768000D01*
X182499142Y-111720380D01*
X182737238Y-111720380D01*
X182880095Y-111768000D01*
X183213428Y-111720380D02*
X183451523Y-112720380D01*
X183642000Y-112006095D01*
X183832476Y-112720380D01*
X184070571Y-111720380D01*
X184975333Y-112720380D02*
X184403904Y-112720380D01*
X184689619Y-112720380D02*
X184689619Y-111720380D01*
X184594380Y-111863238D01*
X184499142Y-111958476D01*
X184403904Y-112006095D01*
X128270095Y-112263380D02*
X128270095Y-113072904D01*
X128317714Y-113168142D01*
X128365333Y-113215761D01*
X128460571Y-113263380D01*
X128651047Y-113263380D01*
X128746285Y-113215761D01*
X128793904Y-113168142D01*
X128841523Y-113072904D01*
X128841523Y-112263380D01*
X129841523Y-113263380D02*
X129270095Y-113263380D01*
X129555809Y-113263380D02*
X129555809Y-112263380D01*
X129460571Y-112406238D01*
X129365333Y-112501476D01*
X129270095Y-112549095D01*
X156210095Y-115620380D02*
X156210095Y-116429904D01*
X156257714Y-116525142D01*
X156305333Y-116572761D01*
X156400571Y-116620380D01*
X156591047Y-116620380D01*
X156686285Y-116572761D01*
X156733904Y-116525142D01*
X156781523Y-116429904D01*
X156781523Y-115620380D01*
X157210095Y-115715619D02*
X157257714Y-115668000D01*
X157352952Y-115620380D01*
X157591047Y-115620380D01*
X157686285Y-115668000D01*
X157733904Y-115715619D01*
X157781523Y-115810857D01*
X157781523Y-115906095D01*
X157733904Y-116048952D01*
X157162476Y-116620380D01*
X157781523Y-116620380D01*
X104989380Y-117601904D02*
X105798904Y-117601904D01*
X105894142Y-117554285D01*
X105941761Y-117506666D01*
X105989380Y-117411428D01*
X105989380Y-117220952D01*
X105941761Y-117125714D01*
X105894142Y-117078095D01*
X105798904Y-117030476D01*
X104989380Y-117030476D01*
X105322714Y-116125714D02*
X105989380Y-116125714D01*
X104941761Y-116363809D02*
X105656047Y-116601904D01*
X105656047Y-115982857D01*
X120142095Y-111692380D02*
X120142095Y-112501904D01*
X120189714Y-112597142D01*
X120237333Y-112644761D01*
X120332571Y-112692380D01*
X120523047Y-112692380D01*
X120618285Y-112644761D01*
X120665904Y-112597142D01*
X120713523Y-112501904D01*
X120713523Y-111692380D01*
X121665904Y-111692380D02*
X121189714Y-111692380D01*
X121142095Y-112168571D01*
X121189714Y-112120952D01*
X121284952Y-112073333D01*
X121523047Y-112073333D01*
X121618285Y-112120952D01*
X121665904Y-112168571D01*
X121713523Y-112263809D01*
X121713523Y-112501904D01*
X121665904Y-112597142D01*
X121618285Y-112644761D01*
X121523047Y-112692380D01*
X121284952Y-112692380D01*
X121189714Y-112644761D01*
X121142095Y-112597142D01*
X143121142Y-117768642D02*
X143073523Y-117816261D01*
X142930666Y-117863880D01*
X142835428Y-117863880D01*
X142692571Y-117816261D01*
X142597333Y-117721023D01*
X142549714Y-117625785D01*
X142502095Y-117435309D01*
X142502095Y-117292452D01*
X142549714Y-117101976D01*
X142597333Y-117006738D01*
X142692571Y-116911500D01*
X142835428Y-116863880D01*
X142930666Y-116863880D01*
X143073523Y-116911500D01*
X143121142Y-116959119D01*
X144073523Y-117863880D02*
X143502095Y-117863880D01*
X143787809Y-117863880D02*
X143787809Y-116863880D01*
X143692571Y-117006738D01*
X143597333Y-117101976D01*
X143502095Y-117149595D01*
X144454476Y-116959119D02*
X144502095Y-116911500D01*
X144597333Y-116863880D01*
X144835428Y-116863880D01*
X144930666Y-116911500D01*
X144978285Y-116959119D01*
X145025904Y-117054357D01*
X145025904Y-117149595D01*
X144978285Y-117292452D01*
X144406857Y-117863880D01*
X145025904Y-117863880D01*
X130468642Y-120530857D02*
X130516261Y-120578476D01*
X130563880Y-120721333D01*
X130563880Y-120816571D01*
X130516261Y-120959428D01*
X130421023Y-121054666D01*
X130325785Y-121102285D01*
X130135309Y-121149904D01*
X129992452Y-121149904D01*
X129801976Y-121102285D01*
X129706738Y-121054666D01*
X129611500Y-120959428D01*
X129563880Y-120816571D01*
X129563880Y-120721333D01*
X129611500Y-120578476D01*
X129659119Y-120530857D01*
X130563880Y-119578476D02*
X130563880Y-120149904D01*
X130563880Y-119864190D02*
X129563880Y-119864190D01*
X129706738Y-119959428D01*
X129801976Y-120054666D01*
X129849595Y-120149904D01*
X129563880Y-119245142D02*
X129563880Y-118626095D01*
X129944833Y-118959428D01*
X129944833Y-118816571D01*
X129992452Y-118721333D01*
X130040071Y-118673714D01*
X130135309Y-118626095D01*
X130373404Y-118626095D01*
X130468642Y-118673714D01*
X130516261Y-118721333D01*
X130563880Y-118816571D01*
X130563880Y-119102285D01*
X130516261Y-119197523D01*
X130468642Y-119245142D01*
X128135142Y-115673142D02*
X128087523Y-115720761D01*
X127944666Y-115768380D01*
X127849428Y-115768380D01*
X127706571Y-115720761D01*
X127611333Y-115625523D01*
X127563714Y-115530285D01*
X127516095Y-115339809D01*
X127516095Y-115196952D01*
X127563714Y-115006476D01*
X127611333Y-114911238D01*
X127706571Y-114816000D01*
X127849428Y-114768380D01*
X127944666Y-114768380D01*
X128087523Y-114816000D01*
X128135142Y-114863619D01*
X129087523Y-115768380D02*
X128516095Y-115768380D01*
X128801809Y-115768380D02*
X128801809Y-114768380D01*
X128706571Y-114911238D01*
X128611333Y-115006476D01*
X128516095Y-115054095D01*
X129944666Y-115101714D02*
X129944666Y-115768380D01*
X129706571Y-114720761D02*
X129468476Y-115435047D01*
X130087523Y-115435047D01*
X135993142Y-116974857D02*
X136040761Y-117022476D01*
X136088380Y-117165333D01*
X136088380Y-117260571D01*
X136040761Y-117403428D01*
X135945523Y-117498666D01*
X135850285Y-117546285D01*
X135659809Y-117593904D01*
X135516952Y-117593904D01*
X135326476Y-117546285D01*
X135231238Y-117498666D01*
X135136000Y-117403428D01*
X135088380Y-117260571D01*
X135088380Y-117165333D01*
X135136000Y-117022476D01*
X135183619Y-116974857D01*
X136088380Y-116022476D02*
X136088380Y-116593904D01*
X136088380Y-116308190D02*
X135088380Y-116308190D01*
X135231238Y-116403428D01*
X135326476Y-116498666D01*
X135374095Y-116593904D01*
X135088380Y-115117714D02*
X135088380Y-115593904D01*
X135564571Y-115641523D01*
X135516952Y-115593904D01*
X135469333Y-115498666D01*
X135469333Y-115260571D01*
X135516952Y-115165333D01*
X135564571Y-115117714D01*
X135659809Y-115070095D01*
X135897904Y-115070095D01*
X135993142Y-115117714D01*
X136040761Y-115165333D01*
X136088380Y-115260571D01*
X136088380Y-115498666D01*
X136040761Y-115593904D01*
X135993142Y-115641523D01*
X138660142Y-120530857D02*
X138707761Y-120578476D01*
X138755380Y-120721333D01*
X138755380Y-120816571D01*
X138707761Y-120959428D01*
X138612523Y-121054666D01*
X138517285Y-121102285D01*
X138326809Y-121149904D01*
X138183952Y-121149904D01*
X137993476Y-121102285D01*
X137898238Y-121054666D01*
X137803000Y-120959428D01*
X137755380Y-120816571D01*
X137755380Y-120721333D01*
X137803000Y-120578476D01*
X137850619Y-120530857D01*
X138755380Y-119578476D02*
X138755380Y-120149904D01*
X138755380Y-119864190D02*
X137755380Y-119864190D01*
X137898238Y-119959428D01*
X137993476Y-120054666D01*
X138041095Y-120149904D01*
X137755380Y-118721333D02*
X137755380Y-118911809D01*
X137803000Y-119007047D01*
X137850619Y-119054666D01*
X137993476Y-119149904D01*
X138183952Y-119197523D01*
X138564904Y-119197523D01*
X138660142Y-119149904D01*
X138707761Y-119102285D01*
X138755380Y-119007047D01*
X138755380Y-118816571D01*
X138707761Y-118721333D01*
X138660142Y-118673714D01*
X138564904Y-118626095D01*
X138326809Y-118626095D01*
X138231571Y-118673714D01*
X138183952Y-118721333D01*
X138136333Y-118816571D01*
X138136333Y-119007047D01*
X138183952Y-119102285D01*
X138231571Y-119149904D01*
X138326809Y-119197523D01*
X127452380Y-118911595D02*
X126452380Y-118911595D01*
X126452380Y-118673500D01*
X126500000Y-118530642D01*
X126595238Y-118435404D01*
X126690476Y-118387785D01*
X126880952Y-118340166D01*
X127023809Y-118340166D01*
X127214285Y-118387785D01*
X127309523Y-118435404D01*
X127404761Y-118530642D01*
X127452380Y-118673500D01*
X127452380Y-118911595D01*
X126547619Y-117959214D02*
X126500000Y-117911595D01*
X126452380Y-117816357D01*
X126452380Y-117578261D01*
X126500000Y-117483023D01*
X126547619Y-117435404D01*
X126642857Y-117387785D01*
X126738095Y-117387785D01*
X126880952Y-117435404D01*
X127452380Y-118006833D01*
X127452380Y-117387785D01*
X128611333Y-114498380D02*
X128135142Y-114498380D01*
X128135142Y-113498380D01*
X128897047Y-113593619D02*
X128944666Y-113546000D01*
X129039904Y-113498380D01*
X129278000Y-113498380D01*
X129373238Y-113546000D01*
X129420857Y-113593619D01*
X129468476Y-113688857D01*
X129468476Y-113784095D01*
X129420857Y-113926952D01*
X128849428Y-114498380D01*
X129468476Y-114498380D01*
X132135642Y-119133880D02*
X131802309Y-118657690D01*
X131564214Y-119133880D02*
X131564214Y-118133880D01*
X131945166Y-118133880D01*
X132040404Y-118181500D01*
X132088023Y-118229119D01*
X132135642Y-118324357D01*
X132135642Y-118467214D01*
X132088023Y-118562452D01*
X132040404Y-118610071D01*
X131945166Y-118657690D01*
X131564214Y-118657690D01*
X133088023Y-119133880D02*
X132516595Y-119133880D01*
X132802309Y-119133880D02*
X132802309Y-118133880D01*
X132707071Y-118276738D01*
X132611833Y-118371976D01*
X132516595Y-118419595D01*
X133945166Y-118133880D02*
X133754690Y-118133880D01*
X133659452Y-118181500D01*
X133611833Y-118229119D01*
X133516595Y-118371976D01*
X133468976Y-118562452D01*
X133468976Y-118943404D01*
X133516595Y-119038642D01*
X133564214Y-119086261D01*
X133659452Y-119133880D01*
X133849928Y-119133880D01*
X133945166Y-119086261D01*
X133992785Y-119038642D01*
X134040404Y-118943404D01*
X134040404Y-118705309D01*
X133992785Y-118610071D01*
X133945166Y-118562452D01*
X133849928Y-118514833D01*
X133659452Y-118514833D01*
X133564214Y-118562452D01*
X133516595Y-118610071D01*
X133468976Y-118705309D01*
X137358380Y-120530857D02*
X136882190Y-120864190D01*
X137358380Y-121102285D02*
X136358380Y-121102285D01*
X136358380Y-120721333D01*
X136406000Y-120626095D01*
X136453619Y-120578476D01*
X136548857Y-120530857D01*
X136691714Y-120530857D01*
X136786952Y-120578476D01*
X136834571Y-120626095D01*
X136882190Y-120721333D01*
X136882190Y-121102285D01*
X137358380Y-119578476D02*
X137358380Y-120149904D01*
X137358380Y-119864190D02*
X136358380Y-119864190D01*
X136501238Y-119959428D01*
X136596476Y-120054666D01*
X136644095Y-120149904D01*
X136358380Y-119245142D02*
X136358380Y-118578476D01*
X137358380Y-119007047D01*
X130429095Y-111910880D02*
X130429095Y-112720404D01*
X130476714Y-112815642D01*
X130524333Y-112863261D01*
X130619571Y-112910880D01*
X130810047Y-112910880D01*
X130905285Y-112863261D01*
X130952904Y-112815642D01*
X131000523Y-112720404D01*
X131000523Y-111910880D01*
X131905285Y-111910880D02*
X131714809Y-111910880D01*
X131619571Y-111958500D01*
X131571952Y-112006119D01*
X131476714Y-112148976D01*
X131429095Y-112339452D01*
X131429095Y-112720404D01*
X131476714Y-112815642D01*
X131524333Y-112863261D01*
X131619571Y-112910880D01*
X131810047Y-112910880D01*
X131905285Y-112863261D01*
X131952904Y-112815642D01*
X132000523Y-112720404D01*
X132000523Y-112482309D01*
X131952904Y-112387071D01*
X131905285Y-112339452D01*
X131810047Y-112291833D01*
X131619571Y-112291833D01*
X131524333Y-112339452D01*
X131476714Y-112387071D01*
X131429095Y-112482309D01*
X139874666Y-118387880D02*
X139874666Y-119102166D01*
X139827047Y-119245023D01*
X139731809Y-119340261D01*
X139588952Y-119387880D01*
X139493714Y-119387880D01*
X140493714Y-118816452D02*
X140398476Y-118768833D01*
X140350857Y-118721214D01*
X140303238Y-118625976D01*
X140303238Y-118578357D01*
X140350857Y-118483119D01*
X140398476Y-118435500D01*
X140493714Y-118387880D01*
X140684190Y-118387880D01*
X140779428Y-118435500D01*
X140827047Y-118483119D01*
X140874666Y-118578357D01*
X140874666Y-118625976D01*
X140827047Y-118721214D01*
X140779428Y-118768833D01*
X140684190Y-118816452D01*
X140493714Y-118816452D01*
X140398476Y-118864071D01*
X140350857Y-118911690D01*
X140303238Y-119006928D01*
X140303238Y-119197404D01*
X140350857Y-119292642D01*
X140398476Y-119340261D01*
X140493714Y-119387880D01*
X140684190Y-119387880D01*
X140779428Y-119340261D01*
X140827047Y-119292642D01*
X140874666Y-119197404D01*
X140874666Y-119006928D01*
X140827047Y-118911690D01*
X140779428Y-118864071D01*
X140684190Y-118816452D01*
X146744380Y-106251333D02*
X147458666Y-106251333D01*
X147601523Y-106298952D01*
X147696761Y-106394190D01*
X147744380Y-106537047D01*
X147744380Y-106632285D01*
X146839619Y-105822761D02*
X146792000Y-105775142D01*
X146744380Y-105679904D01*
X146744380Y-105441809D01*
X146792000Y-105346571D01*
X146839619Y-105298952D01*
X146934857Y-105251333D01*
X147030095Y-105251333D01*
X147172952Y-105298952D01*
X147744380Y-105870380D01*
X147744380Y-105251333D01*
X146998380Y-109553333D02*
X147712666Y-109553333D01*
X147855523Y-109600952D01*
X147950761Y-109696190D01*
X147998380Y-109839047D01*
X147998380Y-109934285D01*
X146998380Y-109172380D02*
X146998380Y-108553333D01*
X147379333Y-108886666D01*
X147379333Y-108743809D01*
X147426952Y-108648571D01*
X147474571Y-108600952D01*
X147569809Y-108553333D01*
X147807904Y-108553333D01*
X147903142Y-108600952D01*
X147950761Y-108648571D01*
X147998380Y-108743809D01*
X147998380Y-109029523D01*
X147950761Y-109124761D01*
X147903142Y-109172380D01*
X129119380Y-106314833D02*
X129833666Y-106314833D01*
X129976523Y-106362452D01*
X130071761Y-106457690D01*
X130119380Y-106600547D01*
X130119380Y-106695785D01*
X129452714Y-105410071D02*
X130119380Y-105410071D01*
X129071761Y-105648166D02*
X129786047Y-105886261D01*
X129786047Y-105267214D01*
X176069666Y-123023380D02*
X176069666Y-123737666D01*
X176022047Y-123880523D01*
X175926809Y-123975761D01*
X175783952Y-124023380D01*
X175688714Y-124023380D01*
X177022047Y-123023380D02*
X176545857Y-123023380D01*
X176498238Y-123499571D01*
X176545857Y-123451952D01*
X176641095Y-123404333D01*
X176879190Y-123404333D01*
X176974428Y-123451952D01*
X177022047Y-123499571D01*
X177069666Y-123594809D01*
X177069666Y-123832904D01*
X177022047Y-123928142D01*
X176974428Y-123975761D01*
X176879190Y-124023380D01*
X176641095Y-124023380D01*
X176545857Y-123975761D01*
X176498238Y-123928142D01*
X91741666Y-102802380D02*
X91741666Y-103516666D01*
X91694047Y-103659523D01*
X91598809Y-103754761D01*
X91455952Y-103802380D01*
X91360714Y-103802380D01*
X92646428Y-102802380D02*
X92455952Y-102802380D01*
X92360714Y-102850000D01*
X92313095Y-102897619D01*
X92217857Y-103040476D01*
X92170238Y-103230952D01*
X92170238Y-103611904D01*
X92217857Y-103707142D01*
X92265476Y-103754761D01*
X92360714Y-103802380D01*
X92551190Y-103802380D01*
X92646428Y-103754761D01*
X92694047Y-103707142D01*
X92741666Y-103611904D01*
X92741666Y-103373809D01*
X92694047Y-103278571D01*
X92646428Y-103230952D01*
X92551190Y-103183333D01*
X92360714Y-103183333D01*
X92265476Y-103230952D01*
X92217857Y-103278571D01*
X92170238Y-103373809D01*
X134469142Y-110402666D02*
X134516761Y-110450285D01*
X134564380Y-110593142D01*
X134564380Y-110688380D01*
X134516761Y-110831238D01*
X134421523Y-110926476D01*
X134326285Y-110974095D01*
X134135809Y-111021714D01*
X133992952Y-111021714D01*
X133802476Y-110974095D01*
X133707238Y-110926476D01*
X133612000Y-110831238D01*
X133564380Y-110688380D01*
X133564380Y-110593142D01*
X133612000Y-110450285D01*
X133659619Y-110402666D01*
X133659619Y-110021714D02*
X133612000Y-109974095D01*
X133564380Y-109878857D01*
X133564380Y-109640761D01*
X133612000Y-109545523D01*
X133659619Y-109497904D01*
X133754857Y-109450285D01*
X133850095Y-109450285D01*
X133992952Y-109497904D01*
X134564380Y-110069333D01*
X134564380Y-109450285D01*
X121078666Y-121444380D02*
X121078666Y-122158666D01*
X121031047Y-122301523D01*
X120935809Y-122396761D01*
X120792952Y-122444380D01*
X120697714Y-122444380D01*
X121459619Y-121444380D02*
X122126285Y-121444380D01*
X121697714Y-122444380D01*
X133143666Y-121444380D02*
X133143666Y-122158666D01*
X133096047Y-122301523D01*
X133000809Y-122396761D01*
X132857952Y-122444380D01*
X132762714Y-122444380D01*
X133667476Y-122444380D02*
X133857952Y-122444380D01*
X133953190Y-122396761D01*
X134000809Y-122349142D01*
X134096047Y-122206285D01*
X134143666Y-122015809D01*
X134143666Y-121634857D01*
X134096047Y-121539619D01*
X134048428Y-121492000D01*
X133953190Y-121444380D01*
X133762714Y-121444380D01*
X133667476Y-121492000D01*
X133619857Y-121539619D01*
X133572238Y-121634857D01*
X133572238Y-121872952D01*
X133619857Y-121968190D01*
X133667476Y-122015809D01*
X133762714Y-122063428D01*
X133953190Y-122063428D01*
X134048428Y-122015809D01*
X134096047Y-121968190D01*
X134143666Y-121872952D01*
X143049666Y-127194880D02*
X143049666Y-127909166D01*
X143002047Y-128052023D01*
X142906809Y-128147261D01*
X142763952Y-128194880D01*
X142668714Y-128194880D01*
X144049666Y-128194880D02*
X143478238Y-128194880D01*
X143763952Y-128194880D02*
X143763952Y-127194880D01*
X143668714Y-127337738D01*
X143573476Y-127432976D01*
X143478238Y-127480595D01*
M02*
