M48
;DRILL file {KiCad 5.0.0-rc3-unknown-14ce5182~65~ubuntu16.04.1} date Sun Aug 12 21:53:19 2018
;FORMAT={-:-/ absolute / inch / decimal}
FMAT,2
INCH,TZ
T1C0.0118
T2C0.0315
T3C0.0394
%
G90
G05
M72
T1
X4.493Y-5.027
X4.504Y-5.2925
X4.547Y-5.394
X4.559Y-5.1345
X4.567Y-4.511
X4.569Y-4.9375
X4.576Y-4.985
X4.587Y-5.1125
X4.587Y-5.1735
X4.5872Y-4.5088
X4.6005Y-5.209
X4.6018Y-5.2808
X4.604Y-4.398
X4.626Y-5.394
X4.6425Y-5.004
X4.646Y-4.511
X4.646Y-5.282
X4.6655Y-4.9986
X4.684Y-4.4
X4.693Y-4.582
X4.6945Y-4.6595
X4.6985Y-4.617
X4.702Y-5.045
X4.705Y-5.395
X4.713Y-4.9375
X4.7225Y-5.177
X4.723Y-5.282
X4.7235Y-4.845
X4.7278Y-4.512
X4.7285Y-4.7645
X4.745Y-4.51
X4.745Y-5.281
X4.763Y-4.399
X4.78Y-5.041
X4.783Y-5.396
X4.7997Y-5.0413
X4.801Y-4.51
X4.801Y-5.281
X4.8225Y-5.2095
X4.823Y-4.509
X4.824Y-5.281
X4.826Y-5.042
X4.8265Y-4.8905
X4.829Y-5.012
X4.83Y-4.817
X4.8305Y-4.7835
X4.842Y-4.4
X4.8485Y-5.0925
X4.861Y-5.396
X4.867Y-4.6175
X4.8675Y-4.655
X4.882Y-4.505
X4.9141Y-4.709
X4.916Y-4.646
X4.921Y-4.402
X4.9335Y-5.1635
X4.94Y-5.396
X4.945Y-4.581
X4.945Y-4.753
X4.946Y-4.884
X4.946Y-4.926
X4.947Y-4.84
X4.948Y-4.797
X4.959Y-4.506
X4.96Y-5.282
X4.966Y-4.619
X4.979Y-5.283
X4.988Y-4.746
X4.999Y-4.402
X5.019Y-5.397
X5.029Y-5.132
X5.039Y-4.508
X5.039Y-5.281
X5.059Y-4.711
X5.059Y-5.28
X5.064Y-4.788
X5.0778Y-4.9902
X5.078Y-4.404
X5.09Y-4.9114
X5.098Y-5.399
X5.109Y-4.751
X5.112Y-5.007
X5.113Y-4.944
X5.113Y-5.037
X5.113Y-5.101
X5.1138Y-5.1378
X5.117Y-5.281
X5.12Y-4.514
X5.138Y-5.28
X5.145Y-4.946
X5.147Y-4.757
X5.147Y-4.915
X5.147Y-5.009
X5.147Y-5.04
X5.147Y-5.103
X5.148Y-4.881
X5.158Y-4.405
X5.177Y-5.401
X5.178Y-4.788
X5.178Y-4.914
X5.178Y-5.072
X5.178Y-5.104
X5.179Y-4.757
X5.179Y-5.04
X5.181Y-4.946
X5.197Y-4.51
X5.209Y-4.786
X5.209Y-4.946
X5.21Y-4.757
X5.21Y-4.821
X5.21Y-4.883
X5.21Y-4.978
X5.21Y-5.072
X5.21Y-5.103
X5.237Y-4.405
X5.241Y-4.757
X5.241Y-4.883
X5.241Y-4.978
X5.241Y-5.072
X5.242Y-4.819
X5.242Y-4.946
X5.242Y-5.04
X5.242Y-5.103
X5.2449Y-5.2636
X5.251Y-5.23
X5.255Y-5.403
X5.2723Y-5.0116
X5.2725Y-4.818
X5.273Y-4.757
X5.273Y-4.851
X5.273Y-4.882
X5.273Y-4.913
X5.273Y-5.04
X5.273Y-5.071
X5.275Y-5.282
X5.276Y-4.95
X5.293Y-5.282
X5.303Y-4.883
X5.304Y-5.072
X5.3043Y-5.1025
X5.305Y-4.851
X5.305Y-5.041
X5.315Y-4.405
X5.334Y-5.137
X5.335Y-5.01
X5.336Y-4.788
X5.336Y-4.82
X5.336Y-4.852
X5.336Y-4.883
X5.336Y-4.946
X5.336Y-4.976
X5.336Y-5.0392
X5.348Y-5.222
X5.366Y-4.757
X5.367Y-4.786
X5.367Y-4.822
X5.367Y-4.851
X5.367Y-4.883
X5.367Y-5.008
X5.367Y-5.072
X5.367Y-5.103
X5.368Y-5.137
X5.392Y-4.687
X5.398Y-4.789
X5.398Y-4.852
X5.398Y-4.979
X5.398Y-5.008
X5.398Y-5.135
X5.399Y-4.883
X5.399Y-4.944
X5.399Y-5.072
X5.4295Y-4.9455
X5.43Y-4.789
X5.43Y-4.851
X5.43Y-4.883
X5.43Y-4.978
X5.43Y-5.008
X5.43Y-5.04
X5.43Y-5.103
X5.443Y-4.614
X5.461Y-4.789
X5.461Y-4.82
X5.461Y-4.883
X5.461Y-5.04
X5.461Y-5.071
X5.4615Y-4.9445
X5.4617Y-4.8523
X5.492Y-4.757
X5.493Y-4.789
X5.493Y-4.819
X5.493Y-4.979
X5.493Y-5.008
X5.493Y-5.04
X5.493Y-5.071
X5.493Y-5.103
X5.494Y-4.853
X5.494Y-4.945
X5.496Y-4.883
X5.526Y-5.073
X5.527Y-4.852
X5.527Y-4.882
X5.527Y-4.944
X5.527Y-5.105
X5.529Y-4.729
X5.543Y-5.02
X5.587Y-4.954
X5.587Y-5.395
X5.59Y-4.916
X5.619Y-5.28
X5.646Y-4.382
X5.665Y-5.396
X5.6698Y-4.5078
X5.683Y-5.28
X5.704Y-5.282
X5.723Y-4.383
X5.744Y-5.395
X5.7467Y-4.5097
X5.756Y-4.962
X5.763Y-5.282
X5.783Y-5.282
X5.802Y-4.385
X5.823Y-5.393
X5.836Y-4.511
X5.844Y-5.28
X5.861Y-4.511
X5.864Y-5.279
X5.87Y-5.232
X5.881Y-4.386
X5.901Y-5.11
X5.901Y-5.394
X5.9029Y-4.5109
X5.92Y-5.281
X5.925Y-4.608
X5.929Y-5.2171
X5.941Y-5.28
X5.96Y-4.388
X5.9721Y-5.2021
X5.981Y-5.396
X5.991Y-4.639
X5.998Y-4.51
X6.019Y-4.508
X6.039Y-4.387
X6.042Y-4.518
X6.059Y-5.398
X6.076Y-4.512
X6.089Y-5.127
X6.096Y-4.513
X6.1Y-5.28
X6.117Y-4.39
X6.128Y-4.771
X6.128Y-4.692
X6.137Y-5.399
X6.142Y-5.116
X6.153Y-4.514
X6.158Y-5.28
X6.176Y-4.514
X6.177Y-5.281
X6.197Y-4.39
X6.217Y-5.397
X6.234Y-4.512
X6.236Y-5.28
X6.25Y-4.673
X6.255Y-4.513
X6.259Y-5.278
X6.274Y-4.391
X6.296Y-5.395
X6.312Y-4.51
X6.315Y-5.281
X6.334Y-4.51
X6.334Y-5.282
X6.3495Y-5.2705
X6.353Y-4.392
X6.368Y-5.273
X6.412Y-5.257
X6.446Y-4.669
X6.4628Y-5.074
X6.478Y-4.45
X6.478Y-5.299
X6.492Y-4.513
X6.553Y-4.319
X6.565Y-4.508
X6.587Y-4.471
X6.594Y-4.316
X6.639Y-5.336
X6.641Y-4.684
X6.645Y-4.536
X6.649Y-4.281
X6.67Y-4.281
X6.675Y-4.23
X6.692Y-5.261
X6.714Y-4.532
X6.718Y-5.367
X6.72Y-4.508
X6.745Y-4.466
X6.745Y-5.37
X6.765Y-4.264
X6.773Y-4.23
X6.8089Y-4.4479
X6.832Y-4.353
X6.835Y-5.263
X6.857Y-5.351
X6.869Y-4.264
X6.898Y-4.495
X6.9Y-4.374
X6.931Y-5.432
X6.937Y-5.33
T2
X4.632Y-4.8722
T3
X4.49Y-4.6
X4.49Y-4.7
X5.706Y-4.732
X5.706Y-4.832
X5.706Y-4.932
X5.706Y-5.032
X5.706Y-5.132
X5.806Y-4.732
X5.806Y-4.832
X5.806Y-4.932
X5.806Y-5.032
X5.806Y-5.132
T0
M30
