G04 #@! TF.GenerationSoftware,KiCad,Pcbnew,5.0.0-rc2-dev-unknown-6940f92~62~ubuntu16.04.1*
G04 #@! TF.CreationDate,2018-03-25T22:17:42+02:00*
G04 #@! TF.ProjectId,roboy_sno,726F626F795F736E6F2E6B696361645F,rev?*
G04 #@! TF.SameCoordinates,Original*
G04 #@! TF.FileFunction,Copper,L3,Inr,Signal*
G04 #@! TF.FilePolarity,Positive*
%FSLAX46Y46*%
G04 Gerber Fmt 4.6, Leading zero omitted, Abs format (unit mm)*
G04 Created by KiCad (PCBNEW 5.0.0-rc2-dev-unknown-6940f92~62~ubuntu16.04.1) date Sun Mar 25 22:17:42 2018*
%MOMM*%
%LPD*%
G01*
G04 APERTURE LIST*
%ADD10R,1.000000X1.000000*%
%ADD11O,1.000000X1.000000*%
%ADD12O,1.350000X1.350000*%
%ADD13R,1.350000X1.350000*%
%ADD14C,0.301000*%
%ADD15C,0.152400*%
%ADD16C,0.254000*%
G04 APERTURE END LIST*
D10*
X140208000Y-125984000D03*
D11*
X140208000Y-124714000D03*
X140208000Y-123444000D03*
X140208000Y-122174000D03*
X140208000Y-120904000D03*
D12*
X187352000Y-105918000D03*
X185352000Y-105918000D03*
X183352000Y-105918000D03*
X181352000Y-105918000D03*
X179352000Y-105918000D03*
X177352000Y-105918000D03*
X175352000Y-105918000D03*
X173352000Y-105918000D03*
X171352000Y-105918000D03*
X169352000Y-105918000D03*
X167352000Y-105918000D03*
X165352000Y-105918000D03*
X163352000Y-105918000D03*
X161352000Y-105918000D03*
X159352000Y-105918000D03*
X157352000Y-105918000D03*
X155352000Y-105918000D03*
X153352000Y-105918000D03*
X151352000Y-105918000D03*
D13*
X149352000Y-105918000D03*
D12*
X175606000Y-109220000D03*
X173606000Y-109220000D03*
X171606000Y-109220000D03*
X169606000Y-109220000D03*
X167606000Y-109220000D03*
X165606000Y-109220000D03*
X163606000Y-109220000D03*
X161606000Y-109220000D03*
X159606000Y-109220000D03*
X157606000Y-109220000D03*
X155606000Y-109220000D03*
X153606000Y-109220000D03*
X151606000Y-109220000D03*
D13*
X149606000Y-109220000D03*
D12*
X145318000Y-105918000D03*
X143318000Y-105918000D03*
X141318000Y-105918000D03*
X139318000Y-105918000D03*
X137318000Y-105918000D03*
X135318000Y-105918000D03*
X133318000Y-105918000D03*
D13*
X131318000Y-105918000D03*
D12*
X148276000Y-125476000D03*
X150276000Y-125476000D03*
X152276000Y-125476000D03*
X154276000Y-125476000D03*
X156276000Y-125476000D03*
X158276000Y-125476000D03*
X160276000Y-125476000D03*
X162276000Y-125476000D03*
X164276000Y-125476000D03*
X166276000Y-125476000D03*
X168276000Y-125476000D03*
X170276000Y-125476000D03*
X172276000Y-125476000D03*
X174276000Y-125476000D03*
D13*
X176276000Y-125476000D03*
D12*
X92075000Y-125410000D03*
X92075000Y-123410000D03*
X92075000Y-121410000D03*
X92075000Y-119410000D03*
X92075000Y-117410000D03*
X92075000Y-115410000D03*
X92075000Y-113410000D03*
X92075000Y-111410000D03*
X92075000Y-109410000D03*
X92075000Y-107410000D03*
D13*
X92075000Y-105410000D03*
D11*
X143383000Y-120967500D03*
X143383000Y-122237500D03*
X143383000Y-123507500D03*
X143383000Y-124777500D03*
D10*
X143383000Y-126047500D03*
D14*
X144653000Y-125666500D03*
X149288500Y-118745000D03*
X145859500Y-126936500D03*
X144525474Y-127125100D03*
X113099411Y-126942411D03*
X140208000Y-119951500D03*
X141284774Y-118681500D03*
X167640000Y-112712500D03*
X139509500Y-127508000D03*
X186309000Y-108585000D03*
X152209500Y-112014000D03*
X153853100Y-112014000D03*
X158115000Y-111377100D03*
X159067500Y-119697500D03*
X154876500Y-123888500D03*
X159512000Y-122366400D03*
X141541500Y-107696000D03*
X162560000Y-107823000D03*
X164158733Y-110030634D03*
X164465000Y-121475500D03*
X168783000Y-123698000D03*
X170053000Y-122428000D03*
X171450000Y-107632500D03*
X172085000Y-111125000D03*
X172212000Y-115443000D03*
X156647952Y-112714400D03*
X159467780Y-112439220D03*
X155892500Y-114300000D03*
X156647952Y-112714400D03*
X168425100Y-117475000D03*
X160464500Y-115125500D03*
X162877500Y-119126000D03*
X166878000Y-119888000D03*
X165227000Y-117475000D03*
X162052000Y-115887500D03*
X168465500Y-115125500D03*
X162877500Y-114300000D03*
X162052000Y-114300000D03*
X166052500Y-112712500D03*
X97663000Y-124712100D03*
X182816500Y-108521500D03*
X164973000Y-107886500D03*
X182689500Y-115570000D03*
X163610065Y-119932155D03*
X153352500Y-122110500D03*
X159170910Y-121958518D03*
X166306500Y-108390701D03*
X170751500Y-123507500D03*
X159455102Y-118661701D03*
X175450500Y-116078000D03*
X162834601Y-115082601D03*
X122237500Y-108140500D03*
X120078500Y-108077000D03*
X152654000Y-114046000D03*
X170468699Y-111116855D03*
X160888701Y-111252000D03*
X172720000Y-116586000D03*
X166814500Y-113538000D03*
X166052000Y-119888000D03*
X162052000Y-119126000D03*
X168465500Y-118300500D03*
X119316500Y-109156500D03*
X164427000Y-117475000D03*
X123634500Y-117221000D03*
X119253000Y-113919000D03*
X121348500Y-118427500D03*
X120777000Y-118999000D03*
X148653500Y-120650000D03*
X159448500Y-117538500D03*
X151384000Y-119888000D03*
X159321500Y-116141500D03*
X163639500Y-115887500D03*
X161226500Y-119126000D03*
X163639500Y-116713000D03*
X158877000Y-115883701D03*
X162849717Y-115879924D03*
X166814500Y-116713000D03*
X167640000Y-116713000D03*
X171005500Y-116141500D03*
X171259500Y-115697000D03*
X171132500Y-116840000D03*
X170688000Y-115697000D03*
X166052500Y-116713000D03*
X171226900Y-111188500D03*
X167640000Y-115887500D03*
X169735500Y-110744000D03*
X166052500Y-115887500D03*
X166878000Y-115125500D03*
X172275500Y-110680500D03*
X168465500Y-112712500D03*
X168465500Y-113538000D03*
X167640000Y-113474500D03*
X170432100Y-112585500D03*
X166814500Y-115887500D03*
X164909500Y-110553500D03*
X166052500Y-114300000D03*
X163766500Y-107251500D03*
X169081499Y-107632500D03*
X168465500Y-114300000D03*
X166243000Y-110617000D03*
X167640000Y-114300000D03*
X168465500Y-116713000D03*
X166814500Y-117475000D03*
X166052500Y-117538500D03*
X170053000Y-118300500D03*
X169227500Y-117538500D03*
X166878000Y-118300500D03*
X167640000Y-117475000D03*
X169227500Y-119126000D03*
X169227500Y-118300500D03*
X168465500Y-119126000D03*
X169227500Y-119888000D03*
X166878000Y-119126000D03*
X167605053Y-119144113D03*
X157670500Y-122364500D03*
X160591869Y-122469673D03*
X150032815Y-121521315D03*
X156464000Y-122299100D03*
X161607578Y-122484862D03*
X139382500Y-122872500D03*
X130429000Y-114935000D03*
X165163500Y-121475500D03*
X166052500Y-121475500D03*
X161226500Y-121539000D03*
X162052000Y-119888000D03*
X162877500Y-119888000D03*
X163639500Y-119126000D03*
X162877500Y-121475500D03*
X165290500Y-120713500D03*
X164465000Y-119126000D03*
X164465000Y-119888000D03*
X165227000Y-119062500D03*
X165227000Y-119888000D03*
X102489000Y-124396500D03*
X93662500Y-124333000D03*
X103886000Y-123634500D03*
X93535500Y-121729500D03*
X108839000Y-120269000D03*
X93662500Y-120650000D03*
X108648500Y-118999000D03*
X93726000Y-119824500D03*
X109283500Y-110807500D03*
X97853500Y-113601500D03*
X93853000Y-107950000D03*
X117538500Y-115760500D03*
X123761500Y-116078000D03*
X103632000Y-122682000D03*
X119316500Y-110426500D03*
X121158000Y-105727500D03*
X119316500Y-105727500D03*
X121158000Y-106553000D03*
X122936000Y-106045000D03*
X98742500Y-110934500D03*
X123000120Y-105596155D03*
X122110500Y-110426500D03*
X157797500Y-110553500D03*
X160464500Y-112712500D03*
X163639500Y-113538000D03*
X158623000Y-111887000D03*
X164465000Y-115887500D03*
X162814000Y-113474500D03*
X165925500Y-111506000D03*
X165227000Y-115062000D03*
X145097500Y-118681500D03*
X146240500Y-110172500D03*
X146177000Y-107886500D03*
X163195000Y-111633000D03*
X150177500Y-117157500D03*
X158750000Y-121475500D03*
X136461500Y-107886500D03*
X151511000Y-115125500D03*
X155257500Y-115125500D03*
X159575500Y-115062000D03*
X97980500Y-114490500D03*
X124777500Y-107188000D03*
X162941338Y-122863962D03*
X158813500Y-122237500D03*
X135953500Y-109982000D03*
X176325435Y-113523935D03*
X167640000Y-119888000D03*
X178244500Y-112141000D03*
X167640000Y-120713500D03*
X171005500Y-121666000D03*
X174752000Y-117516901D03*
X166052500Y-119062500D03*
X170751500Y-118046500D03*
X166052500Y-118300500D03*
X177736500Y-119062500D03*
X168465500Y-119888000D03*
X177609500Y-121094500D03*
X168465500Y-120713500D03*
X126682500Y-109220000D03*
X134683500Y-110871000D03*
X151066500Y-118808500D03*
X152717500Y-120326299D03*
X154559000Y-120713499D03*
X148526500Y-119737701D03*
X149923500Y-119951500D03*
X150749000Y-120967500D03*
X161226500Y-119888000D03*
X160464500Y-113474500D03*
X161226500Y-114300000D03*
X161226500Y-117538500D03*
X159512000Y-114300000D03*
X163639500Y-117475000D03*
X161226500Y-115125500D03*
X162052000Y-117538500D03*
X162052000Y-115125500D03*
X162814000Y-117538500D03*
X160464500Y-121475500D03*
X151003000Y-116586000D03*
X156019500Y-115951000D03*
X114490500Y-115760500D03*
X162052000Y-121539000D03*
X113220500Y-123571000D03*
X163639501Y-120713500D03*
X162056011Y-122417923D03*
X156146500Y-122872500D03*
X150876000Y-122618500D03*
X113157000Y-115125500D03*
X162657685Y-122393815D03*
X121740615Y-112787115D03*
X117919500Y-116649500D03*
X109410500Y-124333000D03*
X118117789Y-115146227D03*
X135318500Y-117475000D03*
X131762500Y-113792000D03*
X133794500Y-118491000D03*
X132969000Y-118935500D03*
X136207500Y-116268500D03*
X130365500Y-115443000D03*
D15*
X141652501Y-126776101D02*
X144233381Y-126776101D01*
X140860400Y-125984000D02*
X141652501Y-126776101D01*
X144233381Y-126776101D02*
X147451172Y-123558310D01*
X140208000Y-125984000D02*
X140860400Y-125984000D01*
X147451172Y-123558310D02*
X154546310Y-123558310D01*
X154546310Y-123558310D02*
X154876500Y-123888500D01*
X138800570Y-126238000D02*
X115887500Y-126238000D01*
X115887500Y-126238000D02*
X113220500Y-123571000D01*
X145859500Y-126936500D02*
X145291799Y-127504201D01*
X145291799Y-127504201D02*
X140066771Y-127504201D01*
X140066771Y-127504201D02*
X138800570Y-126238000D01*
X118288171Y-116841899D02*
X143818969Y-116841899D01*
X118101469Y-117028601D02*
X118288171Y-116841899D01*
X115060101Y-117028601D02*
X118101469Y-117028601D01*
X113157000Y-115125500D02*
X115060101Y-117028601D01*
X143818969Y-116841899D02*
X146000830Y-119023760D01*
X146000830Y-119023760D02*
X146000830Y-123253500D01*
X146000830Y-123253500D02*
X161798000Y-123253500D01*
X161798000Y-123253500D02*
X162657685Y-122393815D01*
X155892500Y-114300000D02*
X155446101Y-114746399D01*
X155446101Y-114746399D02*
X154941899Y-114746399D01*
X154941899Y-114746399D02*
X152359999Y-112164499D01*
X152359999Y-112164499D02*
X152209500Y-112014000D01*
X159662499Y-120292499D02*
X159662499Y-122215901D01*
X179197000Y-115824000D02*
X186309000Y-108712000D01*
X186309000Y-108712000D02*
X186309000Y-108585000D01*
X175757570Y-115824000D02*
X175829601Y-115896031D01*
X175376570Y-115443000D02*
X175757570Y-115824000D01*
X175757570Y-115824000D02*
X179197000Y-115824000D01*
X172212000Y-115443000D02*
X175376570Y-115443000D01*
X175829601Y-115896031D02*
X175829601Y-117402969D01*
X175829601Y-117402969D02*
X170804570Y-122428000D01*
X170804570Y-122428000D02*
X170265839Y-122428000D01*
X170265839Y-122428000D02*
X170053000Y-122428000D01*
X159467780Y-112439220D02*
X159467780Y-112170710D01*
X159467780Y-112170710D02*
X158674170Y-111377100D01*
X158674170Y-111377100D02*
X158115000Y-111377100D01*
X162877500Y-119126000D02*
X162877500Y-119338839D01*
X162877500Y-119338839D02*
X163957000Y-119634000D01*
X163957000Y-119634000D02*
X164465000Y-121262661D01*
X164465000Y-121262661D02*
X164465000Y-121475500D01*
X159512000Y-122366400D02*
X159662499Y-122215901D01*
X159662499Y-120292499D02*
X159067500Y-119697500D01*
X146793178Y-107941608D02*
X146358969Y-107507399D01*
X141730101Y-107507399D02*
X141541500Y-107696000D01*
X152951170Y-107941608D02*
X146793178Y-107941608D01*
X146358969Y-107507399D02*
X141730101Y-107507399D01*
X156282170Y-107823000D02*
X152951170Y-107941608D01*
X162560000Y-107823000D02*
X156282170Y-107823000D01*
X166052500Y-112712500D02*
X164147500Y-110807500D01*
X164147500Y-110807500D02*
X164147500Y-110045500D01*
X160464500Y-115125500D02*
X160021899Y-114682899D01*
X160021899Y-114682899D02*
X158616451Y-114682899D01*
X167821969Y-120267101D02*
X168086399Y-120531531D01*
X168086399Y-120531531D02*
X168086399Y-120895469D01*
X167257101Y-120267101D02*
X167821969Y-120267101D01*
X168465500Y-115125500D02*
X172085000Y-111506000D01*
X172085000Y-111506000D02*
X172085000Y-111125000D01*
X166433500Y-123634500D02*
X168719500Y-123634500D01*
X168719500Y-123634500D02*
X168783000Y-123698000D01*
X164465000Y-121475500D02*
X166433500Y-123444000D01*
X166433500Y-123444000D02*
X166433500Y-123634500D01*
X166878000Y-119888000D02*
X167257101Y-120267101D01*
X168086399Y-120895469D02*
X169618930Y-122428000D01*
X169618930Y-122428000D02*
X170053000Y-122428000D01*
X156798451Y-112864899D02*
X156647952Y-112714400D01*
X158616451Y-114682899D02*
X156798451Y-112864899D01*
X168465500Y-118300500D02*
X168844601Y-118679601D01*
X168844601Y-118679601D02*
X168844601Y-120066171D01*
X168844601Y-120066171D02*
X169045531Y-120267101D01*
X169045531Y-120267101D02*
X169409469Y-120267101D01*
X172720000Y-116798839D02*
X172720000Y-116586000D01*
X169409469Y-120267101D02*
X172720000Y-116956570D01*
X172720000Y-116956570D02*
X172720000Y-116798839D01*
X164702399Y-108786271D02*
X165172271Y-108316399D01*
X165172271Y-108316399D02*
X166232198Y-108316399D01*
X164702399Y-109653729D02*
X164702399Y-108786271D01*
X166814500Y-111765830D02*
X164702399Y-109653729D01*
X166232198Y-108316399D02*
X166306500Y-108390701D01*
X166814500Y-113538000D02*
X166814500Y-111765830D01*
X166052000Y-119888000D02*
X166264839Y-119888000D01*
X169884339Y-123507500D02*
X170751500Y-123507500D01*
X166264839Y-119888000D02*
X169884339Y-123507500D01*
X163639500Y-115887500D02*
X163260399Y-116266601D01*
X163260399Y-116266601D02*
X159446601Y-116266601D01*
X159446601Y-116266601D02*
X159321500Y-116141500D01*
X162849717Y-115879924D02*
X162478192Y-115508399D01*
X162478192Y-115508399D02*
X159252302Y-115508399D01*
X159252302Y-115508399D02*
X158877000Y-115883701D01*
X177352000Y-105918000D02*
X177352000Y-109033000D01*
X177352000Y-109033000D02*
X170688000Y-115697000D01*
X175352000Y-105918000D02*
X172702399Y-108567601D01*
X167458031Y-116266601D02*
X167193601Y-116531031D01*
X172702399Y-108567601D02*
X172702399Y-111449671D01*
X167885469Y-116266601D02*
X167458031Y-116266601D01*
X172702399Y-111449671D02*
X167885469Y-116266601D01*
X167193601Y-116531031D02*
X167193601Y-116894969D01*
X167193601Y-116894969D02*
X166996469Y-117092101D01*
X166996469Y-117092101D02*
X166431601Y-117092101D01*
X166431601Y-117092101D02*
X166202999Y-116863499D01*
X166202999Y-116863499D02*
X166052500Y-116713000D01*
X169735500Y-110744000D02*
X169735500Y-112829070D01*
X168256833Y-113917101D02*
X168019101Y-114154833D01*
X169735500Y-112829070D02*
X168647469Y-113917101D01*
X168647469Y-113917101D02*
X168256833Y-113917101D01*
X166202999Y-116037999D02*
X166052500Y-115887500D01*
X168019101Y-114154833D02*
X168019101Y-114880031D01*
X166996469Y-116266601D02*
X166431601Y-116266601D01*
X166431601Y-116266601D02*
X166202999Y-116037999D01*
X168019101Y-114880031D02*
X167193601Y-115705531D01*
X167193601Y-115705531D02*
X167193601Y-116069469D01*
X167193601Y-116069469D02*
X166996469Y-116266601D01*
X167458031Y-113920899D02*
X166878000Y-114500930D01*
X168086399Y-113656469D02*
X167821969Y-113920899D01*
X166878000Y-114500930D02*
X166878000Y-115125500D01*
X168781101Y-113158899D02*
X168283531Y-113158899D01*
X168283531Y-113158899D02*
X168086399Y-113356031D01*
X168086399Y-113356031D02*
X168086399Y-113656469D01*
X168702399Y-106567601D02*
X168702399Y-111938399D01*
X167821969Y-113920899D02*
X167458031Y-113920899D01*
X169352000Y-105918000D02*
X168702399Y-106567601D01*
X168702399Y-111938399D02*
X169352000Y-112588000D01*
X169352000Y-112588000D02*
X168781101Y-113158899D01*
X168465500Y-112712500D02*
X166702399Y-110949399D01*
X166702399Y-110949399D02*
X166702399Y-107268399D01*
X166702399Y-107268399D02*
X166026999Y-106592999D01*
X166026999Y-106592999D02*
X165352000Y-105918000D01*
X163766500Y-107251500D02*
X153066500Y-107632500D01*
X153066500Y-107632500D02*
X151352000Y-105918000D01*
X170040310Y-111000260D02*
X170509601Y-110530969D01*
X170040310Y-112955326D02*
X170040310Y-111000260D01*
X169355830Y-107632500D02*
X169081499Y-107632500D01*
X168695636Y-114300000D02*
X170040310Y-112955326D01*
X168465500Y-114300000D02*
X168695636Y-114300000D01*
X170509601Y-110530969D02*
X170509601Y-108786271D01*
X170509601Y-108786271D02*
X169355830Y-107632500D01*
X173606000Y-109220000D02*
X174280999Y-109894999D01*
X174280999Y-109894999D02*
X174280999Y-110897501D01*
X174280999Y-110897501D02*
X168615999Y-116562501D01*
X168615999Y-116562501D02*
X168465500Y-116713000D01*
X167458031Y-117095899D02*
X167193601Y-117360329D01*
X167821969Y-117095899D02*
X167458031Y-117095899D01*
X167193601Y-117656969D02*
X166932969Y-117917601D01*
X165673399Y-117720469D02*
X165673399Y-116069469D01*
X168019101Y-117656969D02*
X168019101Y-117293031D01*
X165870531Y-117917601D02*
X165673399Y-117720469D01*
X168283531Y-117921399D02*
X168019101Y-117656969D01*
X167193601Y-117360329D02*
X167193601Y-117656969D01*
X163524829Y-113920899D02*
X162306899Y-113920899D01*
X168848399Y-117921399D02*
X168283531Y-117921399D01*
X166932969Y-117917601D02*
X165870531Y-117917601D01*
X168019101Y-117293031D02*
X167821969Y-117095899D01*
X169227500Y-118300500D02*
X168848399Y-117921399D01*
X165673399Y-116069469D02*
X163524829Y-113920899D01*
X162306899Y-113920899D02*
X157606000Y-109220000D01*
X164018601Y-115705531D02*
X164018601Y-116463733D01*
X162992171Y-114679101D02*
X164018601Y-115705531D01*
X160528000Y-114744500D02*
X162992171Y-114679101D01*
X155606000Y-109220000D02*
X160528000Y-114744500D01*
X168019101Y-118679601D02*
X168315001Y-118975501D01*
X164018601Y-116463733D02*
X164847899Y-117293031D01*
X164847899Y-117293031D02*
X164847899Y-117656969D01*
X164847899Y-117656969D02*
X165870531Y-118679601D01*
X165870531Y-118679601D02*
X168019101Y-118679601D01*
X168315001Y-118975501D02*
X168465500Y-119126000D01*
X175785729Y-105014399D02*
X164918271Y-105014399D01*
X169227500Y-119888000D02*
X169606601Y-119508899D01*
X176255601Y-105484271D02*
X175785729Y-105014399D01*
X174585808Y-111023758D02*
X174585808Y-108021522D01*
X164448399Y-108158931D02*
X164290931Y-108316399D01*
X176255601Y-106351729D02*
X176255601Y-105484271D01*
X164448399Y-105484271D02*
X164448399Y-108158931D01*
X174585808Y-108021522D02*
X176255601Y-106351729D01*
X169606601Y-119508899D02*
X169606601Y-116002965D01*
X164918271Y-105014399D02*
X164448399Y-105484271D01*
X169606601Y-116002965D02*
X174585808Y-111023758D01*
X164290931Y-108316399D02*
X154509601Y-108316399D01*
X154509601Y-108316399D02*
X153606000Y-109220000D01*
X165870531Y-119441601D02*
X166562399Y-119441601D01*
X165673399Y-118913535D02*
X165673399Y-119244469D01*
X164613965Y-117854101D02*
X165673399Y-118913535D01*
X164245031Y-117854101D02*
X164613965Y-117854101D01*
X164047899Y-117656969D02*
X164245031Y-117854101D01*
X166562399Y-119441601D02*
X166878000Y-119126000D01*
X151606000Y-109220000D02*
X159478101Y-117092101D01*
X159478101Y-117092101D02*
X163846969Y-117092101D01*
X163846969Y-117092101D02*
X164047899Y-117293031D01*
X165673399Y-119244469D02*
X165870531Y-119441601D01*
X164047899Y-117293031D02*
X164047899Y-117656969D01*
X162877500Y-121475500D02*
X162877500Y-122077500D01*
X162877500Y-122077500D02*
X166276000Y-125476000D01*
X170276000Y-125476000D02*
X170276000Y-124521406D01*
X170276000Y-124521406D02*
X166021695Y-120267101D01*
X166021695Y-120267101D02*
X165045031Y-120267101D01*
X165045031Y-120267101D02*
X164844101Y-120066171D01*
X164615499Y-119276499D02*
X164465000Y-119126000D01*
X164844101Y-120066171D02*
X164844101Y-119505101D01*
X164844101Y-119505101D02*
X164615499Y-119276499D01*
X103632000Y-122682000D02*
X115887500Y-110426500D01*
X115887500Y-110426500D02*
X119316500Y-110426500D01*
X158750000Y-121475500D02*
X154495500Y-121475500D01*
X154495500Y-121475500D02*
X150177500Y-117157500D01*
X97980500Y-114490500D02*
X102871899Y-109599101D01*
X102871899Y-109599101D02*
X122366399Y-109599101D01*
X122366399Y-109599101D02*
X123188101Y-108777399D01*
X123188101Y-108777399D02*
X124777500Y-107188000D01*
X160464500Y-121475500D02*
X160464500Y-121974970D01*
X160464500Y-121974970D02*
X159693969Y-122745501D01*
X159693969Y-122745501D02*
X158739571Y-122745501D01*
X158739571Y-122745501D02*
X157914070Y-121920000D01*
X149798399Y-116975531D02*
X150187930Y-116586000D01*
X157914070Y-121920000D02*
X153723070Y-121920000D01*
X150790161Y-116586000D02*
X151003000Y-116586000D01*
X153723070Y-121920000D02*
X152070171Y-120267101D01*
X152070171Y-120267101D02*
X151202031Y-120267101D01*
X151202031Y-120267101D02*
X149798399Y-118863469D01*
X149798399Y-118863469D02*
X149798399Y-116975531D01*
X150187930Y-116586000D02*
X150790161Y-116586000D01*
X118101469Y-116270399D02*
X115000399Y-116270399D01*
X115000399Y-116270399D02*
X114490500Y-115760500D01*
X136025531Y-115889399D02*
X135447399Y-116467531D01*
X155375969Y-115889399D02*
X136025531Y-115889399D01*
X160337500Y-120269000D02*
X155375969Y-115889399D01*
X162052000Y-121539000D02*
X160337500Y-120269000D01*
X135447399Y-116467531D02*
X118298601Y-116467531D01*
X118298601Y-116467531D02*
X118101469Y-116270399D01*
D16*
G36*
X189285701Y-127116846D02*
X146601298Y-127198253D01*
X146645000Y-127092746D01*
X146645000Y-126780254D01*
X146525415Y-126491550D01*
X146304450Y-126270585D01*
X146015746Y-126151000D01*
X145864270Y-126151000D01*
X147039921Y-124975349D01*
X146940336Y-125476000D01*
X147042007Y-125987136D01*
X147331543Y-126420457D01*
X147764864Y-126709993D01*
X148146978Y-126786000D01*
X148405022Y-126786000D01*
X148787136Y-126709993D01*
X149220457Y-126420457D01*
X149276000Y-126337331D01*
X149331543Y-126420457D01*
X149764864Y-126709993D01*
X150146978Y-126786000D01*
X150405022Y-126786000D01*
X150787136Y-126709993D01*
X151220457Y-126420457D01*
X151276000Y-126337331D01*
X151331543Y-126420457D01*
X151764864Y-126709993D01*
X152146978Y-126786000D01*
X152405022Y-126786000D01*
X152787136Y-126709993D01*
X153220457Y-126420457D01*
X153276000Y-126337331D01*
X153331543Y-126420457D01*
X153764864Y-126709993D01*
X154146978Y-126786000D01*
X154405022Y-126786000D01*
X154787136Y-126709993D01*
X155220457Y-126420457D01*
X155276000Y-126337331D01*
X155331543Y-126420457D01*
X155764864Y-126709993D01*
X156146978Y-126786000D01*
X156405022Y-126786000D01*
X156787136Y-126709993D01*
X157220457Y-126420457D01*
X157276000Y-126337331D01*
X157331543Y-126420457D01*
X157764864Y-126709993D01*
X158146978Y-126786000D01*
X158405022Y-126786000D01*
X158787136Y-126709993D01*
X159220457Y-126420457D01*
X159276000Y-126337331D01*
X159331543Y-126420457D01*
X159764864Y-126709993D01*
X160146978Y-126786000D01*
X160405022Y-126786000D01*
X160787136Y-126709993D01*
X161220457Y-126420457D01*
X161276000Y-126337331D01*
X161331543Y-126420457D01*
X161764864Y-126709993D01*
X162146978Y-126786000D01*
X162405022Y-126786000D01*
X162787136Y-126709993D01*
X163220457Y-126420457D01*
X163276000Y-126337331D01*
X163331543Y-126420457D01*
X163764864Y-126709993D01*
X164146978Y-126786000D01*
X164405022Y-126786000D01*
X164787136Y-126709993D01*
X165220457Y-126420457D01*
X165276000Y-126337331D01*
X165331543Y-126420457D01*
X165764864Y-126709993D01*
X166146978Y-126786000D01*
X166405022Y-126786000D01*
X166787136Y-126709993D01*
X167220457Y-126420457D01*
X167276000Y-126337331D01*
X167331543Y-126420457D01*
X167764864Y-126709993D01*
X168146978Y-126786000D01*
X168405022Y-126786000D01*
X168787136Y-126709993D01*
X169220457Y-126420457D01*
X169276000Y-126337331D01*
X169331543Y-126420457D01*
X169764864Y-126709993D01*
X170146978Y-126786000D01*
X170405022Y-126786000D01*
X170787136Y-126709993D01*
X171220457Y-126420457D01*
X171276000Y-126337331D01*
X171331543Y-126420457D01*
X171764864Y-126709993D01*
X172146978Y-126786000D01*
X172405022Y-126786000D01*
X172787136Y-126709993D01*
X173220457Y-126420457D01*
X173276000Y-126337331D01*
X173331543Y-126420457D01*
X173764864Y-126709993D01*
X174146978Y-126786000D01*
X174405022Y-126786000D01*
X174787136Y-126709993D01*
X175080032Y-126514286D01*
X175143191Y-126608809D01*
X175353235Y-126749157D01*
X175601000Y-126798440D01*
X176951000Y-126798440D01*
X177198765Y-126749157D01*
X177408809Y-126608809D01*
X177549157Y-126398765D01*
X177598440Y-126151000D01*
X177598440Y-124801000D01*
X177549157Y-124553235D01*
X177408809Y-124343191D01*
X177198765Y-124202843D01*
X176951000Y-124153560D01*
X175601000Y-124153560D01*
X175353235Y-124202843D01*
X175143191Y-124343191D01*
X175080032Y-124437714D01*
X174787136Y-124242007D01*
X174405022Y-124166000D01*
X174146978Y-124166000D01*
X173764864Y-124242007D01*
X173331543Y-124531543D01*
X173276000Y-124614669D01*
X173220457Y-124531543D01*
X172787136Y-124242007D01*
X172405022Y-124166000D01*
X172146978Y-124166000D01*
X171764864Y-124242007D01*
X171331543Y-124531543D01*
X171276000Y-124614669D01*
X171220457Y-124531543D01*
X170969840Y-124364086D01*
X170945936Y-124243910D01*
X170841669Y-124087864D01*
X170828424Y-124068041D01*
X170828422Y-124068039D01*
X170788746Y-124008660D01*
X170729367Y-123968984D01*
X169973883Y-123213500D01*
X170209246Y-123213500D01*
X170388622Y-123139200D01*
X170734529Y-123139200D01*
X170804570Y-123153132D01*
X170874611Y-123139200D01*
X170874616Y-123139200D01*
X171082066Y-123097936D01*
X171317316Y-122940746D01*
X171356994Y-122881364D01*
X173300104Y-120938254D01*
X176824000Y-120938254D01*
X176824000Y-121250746D01*
X176943585Y-121539450D01*
X177164550Y-121760415D01*
X177453254Y-121880000D01*
X177765746Y-121880000D01*
X178054450Y-121760415D01*
X178275415Y-121539450D01*
X178395000Y-121250746D01*
X178395000Y-120938254D01*
X178275415Y-120649550D01*
X178054450Y-120428585D01*
X177765746Y-120309000D01*
X177453254Y-120309000D01*
X177164550Y-120428585D01*
X176943585Y-120649550D01*
X176824000Y-120938254D01*
X173300104Y-120938254D01*
X175332104Y-118906254D01*
X176951000Y-118906254D01*
X176951000Y-119218746D01*
X177070585Y-119507450D01*
X177291550Y-119728415D01*
X177580254Y-119848000D01*
X177892746Y-119848000D01*
X178181450Y-119728415D01*
X178402415Y-119507450D01*
X178522000Y-119218746D01*
X178522000Y-118906254D01*
X178402415Y-118617550D01*
X178181450Y-118396585D01*
X177892746Y-118277000D01*
X177580254Y-118277000D01*
X177291550Y-118396585D01*
X177070585Y-118617550D01*
X176951000Y-118906254D01*
X175332104Y-118906254D01*
X176282968Y-117955391D01*
X176342347Y-117915715D01*
X176382023Y-117856336D01*
X176382025Y-117856334D01*
X176486041Y-117700663D01*
X176499537Y-117680465D01*
X176540801Y-117473015D01*
X176540801Y-117473011D01*
X176554733Y-117402969D01*
X176540801Y-117332928D01*
X176540801Y-116535200D01*
X179126959Y-116535200D01*
X179197000Y-116549132D01*
X179267041Y-116535200D01*
X179267046Y-116535200D01*
X179474496Y-116493936D01*
X179709746Y-116336746D01*
X179749424Y-116277364D01*
X186762369Y-109264420D01*
X186821745Y-109224746D01*
X186861420Y-109165369D01*
X186861424Y-109165365D01*
X186905571Y-109099294D01*
X186974915Y-109029950D01*
X187094500Y-108741246D01*
X187094500Y-108428754D01*
X186974915Y-108140050D01*
X186753950Y-107919085D01*
X186465246Y-107799500D01*
X186152754Y-107799500D01*
X185864050Y-107919085D01*
X185643085Y-108140050D01*
X185523500Y-108428754D01*
X185523500Y-108491711D01*
X178902412Y-115112800D01*
X176052158Y-115112800D01*
X175928994Y-114989636D01*
X175889316Y-114930254D01*
X175654066Y-114773064D01*
X175446616Y-114731800D01*
X175446611Y-114731800D01*
X175376570Y-114717868D01*
X175306529Y-114731800D01*
X172658988Y-114731800D01*
X174023099Y-113367689D01*
X175539935Y-113367689D01*
X175539935Y-113680181D01*
X175659520Y-113968885D01*
X175880485Y-114189850D01*
X176169189Y-114309435D01*
X176481681Y-114309435D01*
X176770385Y-114189850D01*
X176991350Y-113968885D01*
X177110935Y-113680181D01*
X177110935Y-113367689D01*
X176991350Y-113078985D01*
X176770385Y-112858020D01*
X176481681Y-112738435D01*
X176169189Y-112738435D01*
X175880485Y-112858020D01*
X175659520Y-113078985D01*
X175539935Y-113367689D01*
X174023099Y-113367689D01*
X175406034Y-111984754D01*
X177459000Y-111984754D01*
X177459000Y-112297246D01*
X177578585Y-112585950D01*
X177799550Y-112806915D01*
X178088254Y-112926500D01*
X178400746Y-112926500D01*
X178689450Y-112806915D01*
X178910415Y-112585950D01*
X179030000Y-112297246D01*
X179030000Y-111984754D01*
X178910415Y-111696050D01*
X178689450Y-111475085D01*
X178400746Y-111355500D01*
X178088254Y-111355500D01*
X177799550Y-111475085D01*
X177578585Y-111696050D01*
X177459000Y-111984754D01*
X175406034Y-111984754D01*
X177805367Y-109585422D01*
X177864746Y-109545746D01*
X177904422Y-109486367D01*
X177904424Y-109486365D01*
X178021935Y-109310498D01*
X178021935Y-109310497D01*
X178021936Y-109310496D01*
X178063200Y-109103046D01*
X178063200Y-109103043D01*
X178077132Y-109033001D01*
X178063200Y-108962959D01*
X178063200Y-107018314D01*
X178296457Y-106862457D01*
X178352000Y-106779331D01*
X178407543Y-106862457D01*
X178840864Y-107151993D01*
X179222978Y-107228000D01*
X179481022Y-107228000D01*
X179863136Y-107151993D01*
X180296457Y-106862457D01*
X180352000Y-106779331D01*
X180407543Y-106862457D01*
X180840864Y-107151993D01*
X181222978Y-107228000D01*
X181481022Y-107228000D01*
X181863136Y-107151993D01*
X182296457Y-106862457D01*
X182352000Y-106779331D01*
X182407543Y-106862457D01*
X182840864Y-107151993D01*
X183222978Y-107228000D01*
X183481022Y-107228000D01*
X183863136Y-107151993D01*
X184296457Y-106862457D01*
X184352000Y-106779331D01*
X184407543Y-106862457D01*
X184840864Y-107151993D01*
X185222978Y-107228000D01*
X185481022Y-107228000D01*
X185863136Y-107151993D01*
X186296457Y-106862457D01*
X186352000Y-106779331D01*
X186407543Y-106862457D01*
X186840864Y-107151993D01*
X187222978Y-107228000D01*
X187481022Y-107228000D01*
X187863136Y-107151993D01*
X188296457Y-106862457D01*
X188585993Y-106429136D01*
X188687664Y-105918000D01*
X188585993Y-105406864D01*
X188296457Y-104973543D01*
X187863136Y-104684007D01*
X187481022Y-104608000D01*
X187222978Y-104608000D01*
X186840864Y-104684007D01*
X186407543Y-104973543D01*
X186352000Y-105056669D01*
X186296457Y-104973543D01*
X185863136Y-104684007D01*
X185481022Y-104608000D01*
X185222978Y-104608000D01*
X184840864Y-104684007D01*
X184407543Y-104973543D01*
X184352000Y-105056669D01*
X184296457Y-104973543D01*
X183863136Y-104684007D01*
X183481022Y-104608000D01*
X183222978Y-104608000D01*
X182840864Y-104684007D01*
X182407543Y-104973543D01*
X182352000Y-105056669D01*
X182296457Y-104973543D01*
X181863136Y-104684007D01*
X181481022Y-104608000D01*
X181222978Y-104608000D01*
X180840864Y-104684007D01*
X180407543Y-104973543D01*
X180352000Y-105056669D01*
X180296457Y-104973543D01*
X179863136Y-104684007D01*
X179481022Y-104608000D01*
X179222978Y-104608000D01*
X178840864Y-104684007D01*
X178407543Y-104973543D01*
X178352000Y-105056669D01*
X178296457Y-104973543D01*
X177863136Y-104684007D01*
X177481022Y-104608000D01*
X177222978Y-104608000D01*
X176840864Y-104684007D01*
X176613228Y-104836109D01*
X176338153Y-104561035D01*
X176298475Y-104501653D01*
X176063225Y-104344463D01*
X175855775Y-104303199D01*
X175855770Y-104303199D01*
X175785729Y-104289267D01*
X175715688Y-104303199D01*
X164988312Y-104303199D01*
X164918270Y-104289267D01*
X164848228Y-104303199D01*
X164848225Y-104303199D01*
X164640775Y-104344463D01*
X164640774Y-104344464D01*
X164640773Y-104344464D01*
X164464906Y-104461975D01*
X164464904Y-104461977D01*
X164405525Y-104501653D01*
X164365849Y-104561033D01*
X164090773Y-104836109D01*
X163863136Y-104684007D01*
X163481022Y-104608000D01*
X163222978Y-104608000D01*
X162840864Y-104684007D01*
X162407543Y-104973543D01*
X162352000Y-105056669D01*
X162296457Y-104973543D01*
X161863136Y-104684007D01*
X161481022Y-104608000D01*
X161222978Y-104608000D01*
X160840864Y-104684007D01*
X160407543Y-104973543D01*
X160352000Y-105056669D01*
X160296457Y-104973543D01*
X159863136Y-104684007D01*
X159481022Y-104608000D01*
X159222978Y-104608000D01*
X158840864Y-104684007D01*
X158407543Y-104973543D01*
X158352000Y-105056669D01*
X158296457Y-104973543D01*
X157863136Y-104684007D01*
X157481022Y-104608000D01*
X157222978Y-104608000D01*
X156840864Y-104684007D01*
X156407543Y-104973543D01*
X156352000Y-105056669D01*
X156296457Y-104973543D01*
X155863136Y-104684007D01*
X155481022Y-104608000D01*
X155222978Y-104608000D01*
X154840864Y-104684007D01*
X154407543Y-104973543D01*
X154352000Y-105056669D01*
X154296457Y-104973543D01*
X153863136Y-104684007D01*
X153481022Y-104608000D01*
X153222978Y-104608000D01*
X152840864Y-104684007D01*
X152407543Y-104973543D01*
X152352000Y-105056669D01*
X152296457Y-104973543D01*
X151863136Y-104684007D01*
X151481022Y-104608000D01*
X151222978Y-104608000D01*
X150840864Y-104684007D01*
X150547968Y-104879714D01*
X150484809Y-104785191D01*
X150274765Y-104644843D01*
X150027000Y-104595560D01*
X148677000Y-104595560D01*
X148429235Y-104644843D01*
X148219191Y-104785191D01*
X148078843Y-104995235D01*
X148029560Y-105243000D01*
X148029560Y-106593000D01*
X148078843Y-106840765D01*
X148219191Y-107050809D01*
X148429235Y-107191157D01*
X148626565Y-107230408D01*
X147087766Y-107230408D01*
X146911393Y-107054035D01*
X146871715Y-106994653D01*
X146636465Y-106837463D01*
X146429015Y-106796199D01*
X146429010Y-106796199D01*
X146358969Y-106782267D01*
X146309458Y-106792115D01*
X146551993Y-106429136D01*
X146653664Y-105918000D01*
X146551993Y-105406864D01*
X146262457Y-104973543D01*
X145829136Y-104684007D01*
X145447022Y-104608000D01*
X145188978Y-104608000D01*
X144806864Y-104684007D01*
X144373543Y-104973543D01*
X144318000Y-105056669D01*
X144262457Y-104973543D01*
X143829136Y-104684007D01*
X143447022Y-104608000D01*
X143188978Y-104608000D01*
X142806864Y-104684007D01*
X142373543Y-104973543D01*
X142318000Y-105056669D01*
X142262457Y-104973543D01*
X141829136Y-104684007D01*
X141447022Y-104608000D01*
X141188978Y-104608000D01*
X140806864Y-104684007D01*
X140373543Y-104973543D01*
X140318000Y-105056669D01*
X140262457Y-104973543D01*
X139829136Y-104684007D01*
X139447022Y-104608000D01*
X139188978Y-104608000D01*
X138806864Y-104684007D01*
X138373543Y-104973543D01*
X138318000Y-105056669D01*
X138262457Y-104973543D01*
X137829136Y-104684007D01*
X137447022Y-104608000D01*
X137188978Y-104608000D01*
X136806864Y-104684007D01*
X136373543Y-104973543D01*
X136318000Y-105056669D01*
X136262457Y-104973543D01*
X135829136Y-104684007D01*
X135447022Y-104608000D01*
X135188978Y-104608000D01*
X134806864Y-104684007D01*
X134373543Y-104973543D01*
X134318000Y-105056669D01*
X134262457Y-104973543D01*
X133829136Y-104684007D01*
X133447022Y-104608000D01*
X133188978Y-104608000D01*
X132806864Y-104684007D01*
X132513968Y-104879714D01*
X132450809Y-104785191D01*
X132240765Y-104644843D01*
X131993000Y-104595560D01*
X130643000Y-104595560D01*
X130395235Y-104644843D01*
X130185191Y-104785191D01*
X130044843Y-104995235D01*
X129995560Y-105243000D01*
X129995560Y-106593000D01*
X130044843Y-106840765D01*
X130185191Y-107050809D01*
X130395235Y-107191157D01*
X130643000Y-107240440D01*
X131993000Y-107240440D01*
X132240765Y-107191157D01*
X132450809Y-107050809D01*
X132513968Y-106956286D01*
X132806864Y-107151993D01*
X133188978Y-107228000D01*
X133447022Y-107228000D01*
X133829136Y-107151993D01*
X134262457Y-106862457D01*
X134318000Y-106779331D01*
X134373543Y-106862457D01*
X134806864Y-107151993D01*
X135188978Y-107228000D01*
X135447022Y-107228000D01*
X135829136Y-107151993D01*
X136262457Y-106862457D01*
X136318000Y-106779331D01*
X136373543Y-106862457D01*
X136806864Y-107151993D01*
X137188978Y-107228000D01*
X137447022Y-107228000D01*
X137829136Y-107151993D01*
X138262457Y-106862457D01*
X138318000Y-106779331D01*
X138373543Y-106862457D01*
X138806864Y-107151993D01*
X139188978Y-107228000D01*
X139447022Y-107228000D01*
X139829136Y-107151993D01*
X140262457Y-106862457D01*
X140318000Y-106779331D01*
X140373543Y-106862457D01*
X140806864Y-107151993D01*
X140946806Y-107179829D01*
X140875585Y-107251050D01*
X140756000Y-107539754D01*
X140756000Y-107852246D01*
X140875585Y-108140950D01*
X141096550Y-108361915D01*
X141385254Y-108481500D01*
X141697746Y-108481500D01*
X141986450Y-108361915D01*
X142129766Y-108218599D01*
X145464341Y-108218599D01*
X145511085Y-108331450D01*
X145732050Y-108552415D01*
X146020754Y-108672000D01*
X146333246Y-108672000D01*
X146501721Y-108602216D01*
X146515680Y-108611543D01*
X146515681Y-108611543D01*
X146515682Y-108611544D01*
X146723132Y-108652808D01*
X146723135Y-108652808D01*
X146793177Y-108666740D01*
X146863219Y-108652808D01*
X148283560Y-108652808D01*
X148283560Y-109895000D01*
X148332843Y-110142765D01*
X148473191Y-110352809D01*
X148683235Y-110493157D01*
X148931000Y-110542440D01*
X150281000Y-110542440D01*
X150528765Y-110493157D01*
X150738809Y-110352809D01*
X150801968Y-110258286D01*
X151094864Y-110453993D01*
X151476978Y-110530000D01*
X151735022Y-110530000D01*
X151881146Y-110500934D01*
X153117499Y-111737287D01*
X153067600Y-111857754D01*
X153067600Y-111866312D01*
X152949716Y-111748427D01*
X152875415Y-111569050D01*
X152654450Y-111348085D01*
X152365746Y-111228500D01*
X152053254Y-111228500D01*
X151764550Y-111348085D01*
X151543585Y-111569050D01*
X151424000Y-111857754D01*
X151424000Y-112170246D01*
X151543585Y-112458950D01*
X151764550Y-112679915D01*
X151943927Y-112754216D01*
X154367910Y-115178199D01*
X152296500Y-115178199D01*
X152296500Y-114969254D01*
X152176915Y-114680550D01*
X151955950Y-114459585D01*
X151667246Y-114340000D01*
X151354754Y-114340000D01*
X151066050Y-114459585D01*
X150845085Y-114680550D01*
X150725500Y-114969254D01*
X150725500Y-115178199D01*
X136095572Y-115178199D01*
X136025530Y-115164267D01*
X135955488Y-115178199D01*
X135955485Y-115178199D01*
X135748035Y-115219463D01*
X135748034Y-115219464D01*
X135748033Y-115219464D01*
X135572166Y-115336975D01*
X135572164Y-115336977D01*
X135512785Y-115376653D01*
X135473109Y-115436033D01*
X135152811Y-115756331D01*
X131085933Y-115756331D01*
X131151000Y-115599246D01*
X131151000Y-115286754D01*
X131142259Y-115265651D01*
X131214500Y-115091246D01*
X131214500Y-114778754D01*
X131094915Y-114490050D01*
X130873950Y-114269085D01*
X130585246Y-114149500D01*
X130272754Y-114149500D01*
X129984050Y-114269085D01*
X129763085Y-114490050D01*
X129643500Y-114778754D01*
X129643500Y-115091246D01*
X129652241Y-115112349D01*
X129580000Y-115286754D01*
X129580000Y-115599246D01*
X129645067Y-115756331D01*
X124478480Y-115756331D01*
X124427415Y-115633050D01*
X124206450Y-115412085D01*
X123917746Y-115292500D01*
X123605254Y-115292500D01*
X123316550Y-115412085D01*
X123095585Y-115633050D01*
X123044520Y-115756331D01*
X118618550Y-115756331D01*
X118783704Y-115591177D01*
X118903289Y-115302473D01*
X118903289Y-114989981D01*
X118783704Y-114701277D01*
X118562739Y-114480312D01*
X118274035Y-114360727D01*
X117961543Y-114360727D01*
X117672839Y-114480312D01*
X117451874Y-114701277D01*
X117332289Y-114989981D01*
X117332289Y-114995696D01*
X117093550Y-115094585D01*
X116872585Y-115315550D01*
X116771662Y-115559199D01*
X115294988Y-115559199D01*
X115230715Y-115494927D01*
X115156415Y-115315550D01*
X114995488Y-115154623D01*
X114988182Y-113762754D01*
X118467500Y-113762754D01*
X118467500Y-114075246D01*
X118587085Y-114363950D01*
X118808050Y-114584915D01*
X119096754Y-114704500D01*
X119409246Y-114704500D01*
X119697950Y-114584915D01*
X119918915Y-114363950D01*
X120038500Y-114075246D01*
X120038500Y-113762754D01*
X119985895Y-113635754D01*
X130977000Y-113635754D01*
X130977000Y-113948246D01*
X131096585Y-114236950D01*
X131317550Y-114457915D01*
X131606254Y-114577500D01*
X131918746Y-114577500D01*
X132207450Y-114457915D01*
X132428415Y-114236950D01*
X132548000Y-113948246D01*
X132548000Y-113635754D01*
X132428415Y-113347050D01*
X132207450Y-113126085D01*
X131918746Y-113006500D01*
X131606254Y-113006500D01*
X131317550Y-113126085D01*
X131096585Y-113347050D01*
X130977000Y-113635754D01*
X119985895Y-113635754D01*
X119918915Y-113474050D01*
X119697950Y-113253085D01*
X119409246Y-113133500D01*
X119096754Y-113133500D01*
X118808050Y-113253085D01*
X118587085Y-113474050D01*
X118467500Y-113762754D01*
X114988182Y-113762754D01*
X114982240Y-112630869D01*
X120955115Y-112630869D01*
X120955115Y-112943361D01*
X121074700Y-113232065D01*
X121295665Y-113453030D01*
X121584369Y-113572615D01*
X121896861Y-113572615D01*
X122185565Y-113453030D01*
X122406530Y-113232065D01*
X122526115Y-112943361D01*
X122526115Y-112630869D01*
X122406530Y-112342165D01*
X122185565Y-112121200D01*
X121896861Y-112001615D01*
X121584369Y-112001615D01*
X121295665Y-112121200D01*
X121074700Y-112342165D01*
X120955115Y-112630869D01*
X114982240Y-112630869D01*
X114980708Y-112339081D01*
X116182089Y-111137700D01*
X118980878Y-111137700D01*
X119160254Y-111212000D01*
X119472746Y-111212000D01*
X119761450Y-111092415D01*
X119982415Y-110871450D01*
X120102000Y-110582746D01*
X120102000Y-110310301D01*
X121325000Y-110310301D01*
X121325000Y-110582746D01*
X121444585Y-110871450D01*
X121665550Y-111092415D01*
X121954254Y-111212000D01*
X122266746Y-111212000D01*
X122555450Y-111092415D01*
X122776415Y-110871450D01*
X122841320Y-110714754D01*
X133898000Y-110714754D01*
X133898000Y-111027246D01*
X134017585Y-111315950D01*
X134238550Y-111536915D01*
X134527254Y-111656500D01*
X134839746Y-111656500D01*
X135128450Y-111536915D01*
X135349415Y-111315950D01*
X135469000Y-111027246D01*
X135469000Y-110714754D01*
X135393772Y-110533137D01*
X135508550Y-110647915D01*
X135797254Y-110767500D01*
X136109746Y-110767500D01*
X136398450Y-110647915D01*
X136619415Y-110426950D01*
X136739000Y-110138246D01*
X136739000Y-110016254D01*
X145455000Y-110016254D01*
X145455000Y-110328746D01*
X145574585Y-110617450D01*
X145795550Y-110838415D01*
X146084254Y-110958000D01*
X146396746Y-110958000D01*
X146685450Y-110838415D01*
X146906415Y-110617450D01*
X147026000Y-110328746D01*
X147026000Y-110016254D01*
X146906415Y-109727550D01*
X146685450Y-109506585D01*
X146396746Y-109387000D01*
X146084254Y-109387000D01*
X145795550Y-109506585D01*
X145574585Y-109727550D01*
X145455000Y-110016254D01*
X136739000Y-110016254D01*
X136739000Y-109825754D01*
X136619415Y-109537050D01*
X136398450Y-109316085D01*
X136109746Y-109196500D01*
X135797254Y-109196500D01*
X135508550Y-109316085D01*
X135287585Y-109537050D01*
X135168000Y-109825754D01*
X135168000Y-110138246D01*
X135243228Y-110319863D01*
X135128450Y-110205085D01*
X134839746Y-110085500D01*
X134527254Y-110085500D01*
X134238550Y-110205085D01*
X134017585Y-110426050D01*
X133898000Y-110714754D01*
X122841320Y-110714754D01*
X122896000Y-110582746D01*
X122896000Y-110270254D01*
X122840955Y-110137365D01*
X122879145Y-110111847D01*
X122918823Y-110052465D01*
X123740525Y-109230764D01*
X123740527Y-109230761D01*
X123907534Y-109063754D01*
X125897000Y-109063754D01*
X125897000Y-109376246D01*
X126016585Y-109664950D01*
X126237550Y-109885915D01*
X126526254Y-110005500D01*
X126838746Y-110005500D01*
X127127450Y-109885915D01*
X127348415Y-109664950D01*
X127468000Y-109376246D01*
X127468000Y-109063754D01*
X127348415Y-108775050D01*
X127127450Y-108554085D01*
X126838746Y-108434500D01*
X126526254Y-108434500D01*
X126237550Y-108554085D01*
X126016585Y-108775050D01*
X125897000Y-109063754D01*
X123907534Y-109063754D01*
X125043074Y-107928215D01*
X125222450Y-107853915D01*
X125346111Y-107730254D01*
X135676000Y-107730254D01*
X135676000Y-108042746D01*
X135795585Y-108331450D01*
X136016550Y-108552415D01*
X136305254Y-108672000D01*
X136617746Y-108672000D01*
X136906450Y-108552415D01*
X137127415Y-108331450D01*
X137247000Y-108042746D01*
X137247000Y-107730254D01*
X137127415Y-107441550D01*
X136906450Y-107220585D01*
X136617746Y-107101000D01*
X136305254Y-107101000D01*
X136016550Y-107220585D01*
X135795585Y-107441550D01*
X135676000Y-107730254D01*
X125346111Y-107730254D01*
X125443415Y-107632950D01*
X125563000Y-107344246D01*
X125563000Y-107031754D01*
X125443415Y-106743050D01*
X125222450Y-106522085D01*
X124933746Y-106402500D01*
X124621254Y-106402500D01*
X124332550Y-106522085D01*
X124111585Y-106743050D01*
X124037285Y-106922426D01*
X122734739Y-108224973D01*
X122734736Y-108224975D01*
X122071811Y-108887901D01*
X114962591Y-108887901D01*
X114945182Y-105571254D01*
X118531000Y-105571254D01*
X118531000Y-105883746D01*
X118650585Y-106172450D01*
X118871550Y-106393415D01*
X119160254Y-106513000D01*
X119472746Y-106513000D01*
X119761450Y-106393415D01*
X119982415Y-106172450D01*
X120102000Y-105883746D01*
X120102000Y-105571254D01*
X120372500Y-105571254D01*
X120372500Y-105883746D01*
X120478747Y-106140250D01*
X120372500Y-106396754D01*
X120372500Y-106709246D01*
X120492085Y-106997950D01*
X120713050Y-107218915D01*
X121001754Y-107338500D01*
X121314246Y-107338500D01*
X121602950Y-107218915D01*
X121823915Y-106997950D01*
X121943500Y-106709246D01*
X121943500Y-106396754D01*
X121837253Y-106140250D01*
X121941425Y-105888754D01*
X122150500Y-105888754D01*
X122150500Y-106201246D01*
X122270085Y-106489950D01*
X122491050Y-106710915D01*
X122779754Y-106830500D01*
X123092246Y-106830500D01*
X123380950Y-106710915D01*
X123601915Y-106489950D01*
X123721500Y-106201246D01*
X123721500Y-105907201D01*
X123785620Y-105752401D01*
X123785620Y-105439909D01*
X123666035Y-105151205D01*
X123445070Y-104930240D01*
X123156366Y-104810655D01*
X122843874Y-104810655D01*
X122555170Y-104930240D01*
X122334205Y-105151205D01*
X122214620Y-105439909D01*
X122214620Y-105733954D01*
X122150500Y-105888754D01*
X121941425Y-105888754D01*
X121943500Y-105883746D01*
X121943500Y-105571254D01*
X121823915Y-105282550D01*
X121602950Y-105061585D01*
X121314246Y-104942000D01*
X121001754Y-104942000D01*
X120713050Y-105061585D01*
X120492085Y-105282550D01*
X120372500Y-105571254D01*
X120102000Y-105571254D01*
X119982415Y-105282550D01*
X119761450Y-105061585D01*
X119472746Y-104942000D01*
X119160254Y-104942000D01*
X118871550Y-105061585D01*
X118650585Y-105282550D01*
X118531000Y-105571254D01*
X114945182Y-105571254D01*
X114938062Y-104215000D01*
X189405606Y-104215000D01*
X189285701Y-127116846D01*
X189285701Y-127116846D01*
G37*
X189285701Y-127116846D02*
X146601298Y-127198253D01*
X146645000Y-127092746D01*
X146645000Y-126780254D01*
X146525415Y-126491550D01*
X146304450Y-126270585D01*
X146015746Y-126151000D01*
X145864270Y-126151000D01*
X147039921Y-124975349D01*
X146940336Y-125476000D01*
X147042007Y-125987136D01*
X147331543Y-126420457D01*
X147764864Y-126709993D01*
X148146978Y-126786000D01*
X148405022Y-126786000D01*
X148787136Y-126709993D01*
X149220457Y-126420457D01*
X149276000Y-126337331D01*
X149331543Y-126420457D01*
X149764864Y-126709993D01*
X150146978Y-126786000D01*
X150405022Y-126786000D01*
X150787136Y-126709993D01*
X151220457Y-126420457D01*
X151276000Y-126337331D01*
X151331543Y-126420457D01*
X151764864Y-126709993D01*
X152146978Y-126786000D01*
X152405022Y-126786000D01*
X152787136Y-126709993D01*
X153220457Y-126420457D01*
X153276000Y-126337331D01*
X153331543Y-126420457D01*
X153764864Y-126709993D01*
X154146978Y-126786000D01*
X154405022Y-126786000D01*
X154787136Y-126709993D01*
X155220457Y-126420457D01*
X155276000Y-126337331D01*
X155331543Y-126420457D01*
X155764864Y-126709993D01*
X156146978Y-126786000D01*
X156405022Y-126786000D01*
X156787136Y-126709993D01*
X157220457Y-126420457D01*
X157276000Y-126337331D01*
X157331543Y-126420457D01*
X157764864Y-126709993D01*
X158146978Y-126786000D01*
X158405022Y-126786000D01*
X158787136Y-126709993D01*
X159220457Y-126420457D01*
X159276000Y-126337331D01*
X159331543Y-126420457D01*
X159764864Y-126709993D01*
X160146978Y-126786000D01*
X160405022Y-126786000D01*
X160787136Y-126709993D01*
X161220457Y-126420457D01*
X161276000Y-126337331D01*
X161331543Y-126420457D01*
X161764864Y-126709993D01*
X162146978Y-126786000D01*
X162405022Y-126786000D01*
X162787136Y-126709993D01*
X163220457Y-126420457D01*
X163276000Y-126337331D01*
X163331543Y-126420457D01*
X163764864Y-126709993D01*
X164146978Y-126786000D01*
X164405022Y-126786000D01*
X164787136Y-126709993D01*
X165220457Y-126420457D01*
X165276000Y-126337331D01*
X165331543Y-126420457D01*
X165764864Y-126709993D01*
X166146978Y-126786000D01*
X166405022Y-126786000D01*
X166787136Y-126709993D01*
X167220457Y-126420457D01*
X167276000Y-126337331D01*
X167331543Y-126420457D01*
X167764864Y-126709993D01*
X168146978Y-126786000D01*
X168405022Y-126786000D01*
X168787136Y-126709993D01*
X169220457Y-126420457D01*
X169276000Y-126337331D01*
X169331543Y-126420457D01*
X169764864Y-126709993D01*
X170146978Y-126786000D01*
X170405022Y-126786000D01*
X170787136Y-126709993D01*
X171220457Y-126420457D01*
X171276000Y-126337331D01*
X171331543Y-126420457D01*
X171764864Y-126709993D01*
X172146978Y-126786000D01*
X172405022Y-126786000D01*
X172787136Y-126709993D01*
X173220457Y-126420457D01*
X173276000Y-126337331D01*
X173331543Y-126420457D01*
X173764864Y-126709993D01*
X174146978Y-126786000D01*
X174405022Y-126786000D01*
X174787136Y-126709993D01*
X175080032Y-126514286D01*
X175143191Y-126608809D01*
X175353235Y-126749157D01*
X175601000Y-126798440D01*
X176951000Y-126798440D01*
X177198765Y-126749157D01*
X177408809Y-126608809D01*
X177549157Y-126398765D01*
X177598440Y-126151000D01*
X177598440Y-124801000D01*
X177549157Y-124553235D01*
X177408809Y-124343191D01*
X177198765Y-124202843D01*
X176951000Y-124153560D01*
X175601000Y-124153560D01*
X175353235Y-124202843D01*
X175143191Y-124343191D01*
X175080032Y-124437714D01*
X174787136Y-124242007D01*
X174405022Y-124166000D01*
X174146978Y-124166000D01*
X173764864Y-124242007D01*
X173331543Y-124531543D01*
X173276000Y-124614669D01*
X173220457Y-124531543D01*
X172787136Y-124242007D01*
X172405022Y-124166000D01*
X172146978Y-124166000D01*
X171764864Y-124242007D01*
X171331543Y-124531543D01*
X171276000Y-124614669D01*
X171220457Y-124531543D01*
X170969840Y-124364086D01*
X170945936Y-124243910D01*
X170841669Y-124087864D01*
X170828424Y-124068041D01*
X170828422Y-124068039D01*
X170788746Y-124008660D01*
X170729367Y-123968984D01*
X169973883Y-123213500D01*
X170209246Y-123213500D01*
X170388622Y-123139200D01*
X170734529Y-123139200D01*
X170804570Y-123153132D01*
X170874611Y-123139200D01*
X170874616Y-123139200D01*
X171082066Y-123097936D01*
X171317316Y-122940746D01*
X171356994Y-122881364D01*
X173300104Y-120938254D01*
X176824000Y-120938254D01*
X176824000Y-121250746D01*
X176943585Y-121539450D01*
X177164550Y-121760415D01*
X177453254Y-121880000D01*
X177765746Y-121880000D01*
X178054450Y-121760415D01*
X178275415Y-121539450D01*
X178395000Y-121250746D01*
X178395000Y-120938254D01*
X178275415Y-120649550D01*
X178054450Y-120428585D01*
X177765746Y-120309000D01*
X177453254Y-120309000D01*
X177164550Y-120428585D01*
X176943585Y-120649550D01*
X176824000Y-120938254D01*
X173300104Y-120938254D01*
X175332104Y-118906254D01*
X176951000Y-118906254D01*
X176951000Y-119218746D01*
X177070585Y-119507450D01*
X177291550Y-119728415D01*
X177580254Y-119848000D01*
X177892746Y-119848000D01*
X178181450Y-119728415D01*
X178402415Y-119507450D01*
X178522000Y-119218746D01*
X178522000Y-118906254D01*
X178402415Y-118617550D01*
X178181450Y-118396585D01*
X177892746Y-118277000D01*
X177580254Y-118277000D01*
X177291550Y-118396585D01*
X177070585Y-118617550D01*
X176951000Y-118906254D01*
X175332104Y-118906254D01*
X176282968Y-117955391D01*
X176342347Y-117915715D01*
X176382023Y-117856336D01*
X176382025Y-117856334D01*
X176486041Y-117700663D01*
X176499537Y-117680465D01*
X176540801Y-117473015D01*
X176540801Y-117473011D01*
X176554733Y-117402969D01*
X176540801Y-117332928D01*
X176540801Y-116535200D01*
X179126959Y-116535200D01*
X179197000Y-116549132D01*
X179267041Y-116535200D01*
X179267046Y-116535200D01*
X179474496Y-116493936D01*
X179709746Y-116336746D01*
X179749424Y-116277364D01*
X186762369Y-109264420D01*
X186821745Y-109224746D01*
X186861420Y-109165369D01*
X186861424Y-109165365D01*
X186905571Y-109099294D01*
X186974915Y-109029950D01*
X187094500Y-108741246D01*
X187094500Y-108428754D01*
X186974915Y-108140050D01*
X186753950Y-107919085D01*
X186465246Y-107799500D01*
X186152754Y-107799500D01*
X185864050Y-107919085D01*
X185643085Y-108140050D01*
X185523500Y-108428754D01*
X185523500Y-108491711D01*
X178902412Y-115112800D01*
X176052158Y-115112800D01*
X175928994Y-114989636D01*
X175889316Y-114930254D01*
X175654066Y-114773064D01*
X175446616Y-114731800D01*
X175446611Y-114731800D01*
X175376570Y-114717868D01*
X175306529Y-114731800D01*
X172658988Y-114731800D01*
X174023099Y-113367689D01*
X175539935Y-113367689D01*
X175539935Y-113680181D01*
X175659520Y-113968885D01*
X175880485Y-114189850D01*
X176169189Y-114309435D01*
X176481681Y-114309435D01*
X176770385Y-114189850D01*
X176991350Y-113968885D01*
X177110935Y-113680181D01*
X177110935Y-113367689D01*
X176991350Y-113078985D01*
X176770385Y-112858020D01*
X176481681Y-112738435D01*
X176169189Y-112738435D01*
X175880485Y-112858020D01*
X175659520Y-113078985D01*
X175539935Y-113367689D01*
X174023099Y-113367689D01*
X175406034Y-111984754D01*
X177459000Y-111984754D01*
X177459000Y-112297246D01*
X177578585Y-112585950D01*
X177799550Y-112806915D01*
X178088254Y-112926500D01*
X178400746Y-112926500D01*
X178689450Y-112806915D01*
X178910415Y-112585950D01*
X179030000Y-112297246D01*
X179030000Y-111984754D01*
X178910415Y-111696050D01*
X178689450Y-111475085D01*
X178400746Y-111355500D01*
X178088254Y-111355500D01*
X177799550Y-111475085D01*
X177578585Y-111696050D01*
X177459000Y-111984754D01*
X175406034Y-111984754D01*
X177805367Y-109585422D01*
X177864746Y-109545746D01*
X177904422Y-109486367D01*
X177904424Y-109486365D01*
X178021935Y-109310498D01*
X178021935Y-109310497D01*
X178021936Y-109310496D01*
X178063200Y-109103046D01*
X178063200Y-109103043D01*
X178077132Y-109033001D01*
X178063200Y-108962959D01*
X178063200Y-107018314D01*
X178296457Y-106862457D01*
X178352000Y-106779331D01*
X178407543Y-106862457D01*
X178840864Y-107151993D01*
X179222978Y-107228000D01*
X179481022Y-107228000D01*
X179863136Y-107151993D01*
X180296457Y-106862457D01*
X180352000Y-106779331D01*
X180407543Y-106862457D01*
X180840864Y-107151993D01*
X181222978Y-107228000D01*
X181481022Y-107228000D01*
X181863136Y-107151993D01*
X182296457Y-106862457D01*
X182352000Y-106779331D01*
X182407543Y-106862457D01*
X182840864Y-107151993D01*
X183222978Y-107228000D01*
X183481022Y-107228000D01*
X183863136Y-107151993D01*
X184296457Y-106862457D01*
X184352000Y-106779331D01*
X184407543Y-106862457D01*
X184840864Y-107151993D01*
X185222978Y-107228000D01*
X185481022Y-107228000D01*
X185863136Y-107151993D01*
X186296457Y-106862457D01*
X186352000Y-106779331D01*
X186407543Y-106862457D01*
X186840864Y-107151993D01*
X187222978Y-107228000D01*
X187481022Y-107228000D01*
X187863136Y-107151993D01*
X188296457Y-106862457D01*
X188585993Y-106429136D01*
X188687664Y-105918000D01*
X188585993Y-105406864D01*
X188296457Y-104973543D01*
X187863136Y-104684007D01*
X187481022Y-104608000D01*
X187222978Y-104608000D01*
X186840864Y-104684007D01*
X186407543Y-104973543D01*
X186352000Y-105056669D01*
X186296457Y-104973543D01*
X185863136Y-104684007D01*
X185481022Y-104608000D01*
X185222978Y-104608000D01*
X184840864Y-104684007D01*
X184407543Y-104973543D01*
X184352000Y-105056669D01*
X184296457Y-104973543D01*
X183863136Y-104684007D01*
X183481022Y-104608000D01*
X183222978Y-104608000D01*
X182840864Y-104684007D01*
X182407543Y-104973543D01*
X182352000Y-105056669D01*
X182296457Y-104973543D01*
X181863136Y-104684007D01*
X181481022Y-104608000D01*
X181222978Y-104608000D01*
X180840864Y-104684007D01*
X180407543Y-104973543D01*
X180352000Y-105056669D01*
X180296457Y-104973543D01*
X179863136Y-104684007D01*
X179481022Y-104608000D01*
X179222978Y-104608000D01*
X178840864Y-104684007D01*
X178407543Y-104973543D01*
X178352000Y-105056669D01*
X178296457Y-104973543D01*
X177863136Y-104684007D01*
X177481022Y-104608000D01*
X177222978Y-104608000D01*
X176840864Y-104684007D01*
X176613228Y-104836109D01*
X176338153Y-104561035D01*
X176298475Y-104501653D01*
X176063225Y-104344463D01*
X175855775Y-104303199D01*
X175855770Y-104303199D01*
X175785729Y-104289267D01*
X175715688Y-104303199D01*
X164988312Y-104303199D01*
X164918270Y-104289267D01*
X164848228Y-104303199D01*
X164848225Y-104303199D01*
X164640775Y-104344463D01*
X164640774Y-104344464D01*
X164640773Y-104344464D01*
X164464906Y-104461975D01*
X164464904Y-104461977D01*
X164405525Y-104501653D01*
X164365849Y-104561033D01*
X164090773Y-104836109D01*
X163863136Y-104684007D01*
X163481022Y-104608000D01*
X163222978Y-104608000D01*
X162840864Y-104684007D01*
X162407543Y-104973543D01*
X162352000Y-105056669D01*
X162296457Y-104973543D01*
X161863136Y-104684007D01*
X161481022Y-104608000D01*
X161222978Y-104608000D01*
X160840864Y-104684007D01*
X160407543Y-104973543D01*
X160352000Y-105056669D01*
X160296457Y-104973543D01*
X159863136Y-104684007D01*
X159481022Y-104608000D01*
X159222978Y-104608000D01*
X158840864Y-104684007D01*
X158407543Y-104973543D01*
X158352000Y-105056669D01*
X158296457Y-104973543D01*
X157863136Y-104684007D01*
X157481022Y-104608000D01*
X157222978Y-104608000D01*
X156840864Y-104684007D01*
X156407543Y-104973543D01*
X156352000Y-105056669D01*
X156296457Y-104973543D01*
X155863136Y-104684007D01*
X155481022Y-104608000D01*
X155222978Y-104608000D01*
X154840864Y-104684007D01*
X154407543Y-104973543D01*
X154352000Y-105056669D01*
X154296457Y-104973543D01*
X153863136Y-104684007D01*
X153481022Y-104608000D01*
X153222978Y-104608000D01*
X152840864Y-104684007D01*
X152407543Y-104973543D01*
X152352000Y-105056669D01*
X152296457Y-104973543D01*
X151863136Y-104684007D01*
X151481022Y-104608000D01*
X151222978Y-104608000D01*
X150840864Y-104684007D01*
X150547968Y-104879714D01*
X150484809Y-104785191D01*
X150274765Y-104644843D01*
X150027000Y-104595560D01*
X148677000Y-104595560D01*
X148429235Y-104644843D01*
X148219191Y-104785191D01*
X148078843Y-104995235D01*
X148029560Y-105243000D01*
X148029560Y-106593000D01*
X148078843Y-106840765D01*
X148219191Y-107050809D01*
X148429235Y-107191157D01*
X148626565Y-107230408D01*
X147087766Y-107230408D01*
X146911393Y-107054035D01*
X146871715Y-106994653D01*
X146636465Y-106837463D01*
X146429015Y-106796199D01*
X146429010Y-106796199D01*
X146358969Y-106782267D01*
X146309458Y-106792115D01*
X146551993Y-106429136D01*
X146653664Y-105918000D01*
X146551993Y-105406864D01*
X146262457Y-104973543D01*
X145829136Y-104684007D01*
X145447022Y-104608000D01*
X145188978Y-104608000D01*
X144806864Y-104684007D01*
X144373543Y-104973543D01*
X144318000Y-105056669D01*
X144262457Y-104973543D01*
X143829136Y-104684007D01*
X143447022Y-104608000D01*
X143188978Y-104608000D01*
X142806864Y-104684007D01*
X142373543Y-104973543D01*
X142318000Y-105056669D01*
X142262457Y-104973543D01*
X141829136Y-104684007D01*
X141447022Y-104608000D01*
X141188978Y-104608000D01*
X140806864Y-104684007D01*
X140373543Y-104973543D01*
X140318000Y-105056669D01*
X140262457Y-104973543D01*
X139829136Y-104684007D01*
X139447022Y-104608000D01*
X139188978Y-104608000D01*
X138806864Y-104684007D01*
X138373543Y-104973543D01*
X138318000Y-105056669D01*
X138262457Y-104973543D01*
X137829136Y-104684007D01*
X137447022Y-104608000D01*
X137188978Y-104608000D01*
X136806864Y-104684007D01*
X136373543Y-104973543D01*
X136318000Y-105056669D01*
X136262457Y-104973543D01*
X135829136Y-104684007D01*
X135447022Y-104608000D01*
X135188978Y-104608000D01*
X134806864Y-104684007D01*
X134373543Y-104973543D01*
X134318000Y-105056669D01*
X134262457Y-104973543D01*
X133829136Y-104684007D01*
X133447022Y-104608000D01*
X133188978Y-104608000D01*
X132806864Y-104684007D01*
X132513968Y-104879714D01*
X132450809Y-104785191D01*
X132240765Y-104644843D01*
X131993000Y-104595560D01*
X130643000Y-104595560D01*
X130395235Y-104644843D01*
X130185191Y-104785191D01*
X130044843Y-104995235D01*
X129995560Y-105243000D01*
X129995560Y-106593000D01*
X130044843Y-106840765D01*
X130185191Y-107050809D01*
X130395235Y-107191157D01*
X130643000Y-107240440D01*
X131993000Y-107240440D01*
X132240765Y-107191157D01*
X132450809Y-107050809D01*
X132513968Y-106956286D01*
X132806864Y-107151993D01*
X133188978Y-107228000D01*
X133447022Y-107228000D01*
X133829136Y-107151993D01*
X134262457Y-106862457D01*
X134318000Y-106779331D01*
X134373543Y-106862457D01*
X134806864Y-107151993D01*
X135188978Y-107228000D01*
X135447022Y-107228000D01*
X135829136Y-107151993D01*
X136262457Y-106862457D01*
X136318000Y-106779331D01*
X136373543Y-106862457D01*
X136806864Y-107151993D01*
X137188978Y-107228000D01*
X137447022Y-107228000D01*
X137829136Y-107151993D01*
X138262457Y-106862457D01*
X138318000Y-106779331D01*
X138373543Y-106862457D01*
X138806864Y-107151993D01*
X139188978Y-107228000D01*
X139447022Y-107228000D01*
X139829136Y-107151993D01*
X140262457Y-106862457D01*
X140318000Y-106779331D01*
X140373543Y-106862457D01*
X140806864Y-107151993D01*
X140946806Y-107179829D01*
X140875585Y-107251050D01*
X140756000Y-107539754D01*
X140756000Y-107852246D01*
X140875585Y-108140950D01*
X141096550Y-108361915D01*
X141385254Y-108481500D01*
X141697746Y-108481500D01*
X141986450Y-108361915D01*
X142129766Y-108218599D01*
X145464341Y-108218599D01*
X145511085Y-108331450D01*
X145732050Y-108552415D01*
X146020754Y-108672000D01*
X146333246Y-108672000D01*
X146501721Y-108602216D01*
X146515680Y-108611543D01*
X146515681Y-108611543D01*
X146515682Y-108611544D01*
X146723132Y-108652808D01*
X146723135Y-108652808D01*
X146793177Y-108666740D01*
X146863219Y-108652808D01*
X148283560Y-108652808D01*
X148283560Y-109895000D01*
X148332843Y-110142765D01*
X148473191Y-110352809D01*
X148683235Y-110493157D01*
X148931000Y-110542440D01*
X150281000Y-110542440D01*
X150528765Y-110493157D01*
X150738809Y-110352809D01*
X150801968Y-110258286D01*
X151094864Y-110453993D01*
X151476978Y-110530000D01*
X151735022Y-110530000D01*
X151881146Y-110500934D01*
X153117499Y-111737287D01*
X153067600Y-111857754D01*
X153067600Y-111866312D01*
X152949716Y-111748427D01*
X152875415Y-111569050D01*
X152654450Y-111348085D01*
X152365746Y-111228500D01*
X152053254Y-111228500D01*
X151764550Y-111348085D01*
X151543585Y-111569050D01*
X151424000Y-111857754D01*
X151424000Y-112170246D01*
X151543585Y-112458950D01*
X151764550Y-112679915D01*
X151943927Y-112754216D01*
X154367910Y-115178199D01*
X152296500Y-115178199D01*
X152296500Y-114969254D01*
X152176915Y-114680550D01*
X151955950Y-114459585D01*
X151667246Y-114340000D01*
X151354754Y-114340000D01*
X151066050Y-114459585D01*
X150845085Y-114680550D01*
X150725500Y-114969254D01*
X150725500Y-115178199D01*
X136095572Y-115178199D01*
X136025530Y-115164267D01*
X135955488Y-115178199D01*
X135955485Y-115178199D01*
X135748035Y-115219463D01*
X135748034Y-115219464D01*
X135748033Y-115219464D01*
X135572166Y-115336975D01*
X135572164Y-115336977D01*
X135512785Y-115376653D01*
X135473109Y-115436033D01*
X135152811Y-115756331D01*
X131085933Y-115756331D01*
X131151000Y-115599246D01*
X131151000Y-115286754D01*
X131142259Y-115265651D01*
X131214500Y-115091246D01*
X131214500Y-114778754D01*
X131094915Y-114490050D01*
X130873950Y-114269085D01*
X130585246Y-114149500D01*
X130272754Y-114149500D01*
X129984050Y-114269085D01*
X129763085Y-114490050D01*
X129643500Y-114778754D01*
X129643500Y-115091246D01*
X129652241Y-115112349D01*
X129580000Y-115286754D01*
X129580000Y-115599246D01*
X129645067Y-115756331D01*
X124478480Y-115756331D01*
X124427415Y-115633050D01*
X124206450Y-115412085D01*
X123917746Y-115292500D01*
X123605254Y-115292500D01*
X123316550Y-115412085D01*
X123095585Y-115633050D01*
X123044520Y-115756331D01*
X118618550Y-115756331D01*
X118783704Y-115591177D01*
X118903289Y-115302473D01*
X118903289Y-114989981D01*
X118783704Y-114701277D01*
X118562739Y-114480312D01*
X118274035Y-114360727D01*
X117961543Y-114360727D01*
X117672839Y-114480312D01*
X117451874Y-114701277D01*
X117332289Y-114989981D01*
X117332289Y-114995696D01*
X117093550Y-115094585D01*
X116872585Y-115315550D01*
X116771662Y-115559199D01*
X115294988Y-115559199D01*
X115230715Y-115494927D01*
X115156415Y-115315550D01*
X114995488Y-115154623D01*
X114988182Y-113762754D01*
X118467500Y-113762754D01*
X118467500Y-114075246D01*
X118587085Y-114363950D01*
X118808050Y-114584915D01*
X119096754Y-114704500D01*
X119409246Y-114704500D01*
X119697950Y-114584915D01*
X119918915Y-114363950D01*
X120038500Y-114075246D01*
X120038500Y-113762754D01*
X119985895Y-113635754D01*
X130977000Y-113635754D01*
X130977000Y-113948246D01*
X131096585Y-114236950D01*
X131317550Y-114457915D01*
X131606254Y-114577500D01*
X131918746Y-114577500D01*
X132207450Y-114457915D01*
X132428415Y-114236950D01*
X132548000Y-113948246D01*
X132548000Y-113635754D01*
X132428415Y-113347050D01*
X132207450Y-113126085D01*
X131918746Y-113006500D01*
X131606254Y-113006500D01*
X131317550Y-113126085D01*
X131096585Y-113347050D01*
X130977000Y-113635754D01*
X119985895Y-113635754D01*
X119918915Y-113474050D01*
X119697950Y-113253085D01*
X119409246Y-113133500D01*
X119096754Y-113133500D01*
X118808050Y-113253085D01*
X118587085Y-113474050D01*
X118467500Y-113762754D01*
X114988182Y-113762754D01*
X114982240Y-112630869D01*
X120955115Y-112630869D01*
X120955115Y-112943361D01*
X121074700Y-113232065D01*
X121295665Y-113453030D01*
X121584369Y-113572615D01*
X121896861Y-113572615D01*
X122185565Y-113453030D01*
X122406530Y-113232065D01*
X122526115Y-112943361D01*
X122526115Y-112630869D01*
X122406530Y-112342165D01*
X122185565Y-112121200D01*
X121896861Y-112001615D01*
X121584369Y-112001615D01*
X121295665Y-112121200D01*
X121074700Y-112342165D01*
X120955115Y-112630869D01*
X114982240Y-112630869D01*
X114980708Y-112339081D01*
X116182089Y-111137700D01*
X118980878Y-111137700D01*
X119160254Y-111212000D01*
X119472746Y-111212000D01*
X119761450Y-111092415D01*
X119982415Y-110871450D01*
X120102000Y-110582746D01*
X120102000Y-110310301D01*
X121325000Y-110310301D01*
X121325000Y-110582746D01*
X121444585Y-110871450D01*
X121665550Y-111092415D01*
X121954254Y-111212000D01*
X122266746Y-111212000D01*
X122555450Y-111092415D01*
X122776415Y-110871450D01*
X122841320Y-110714754D01*
X133898000Y-110714754D01*
X133898000Y-111027246D01*
X134017585Y-111315950D01*
X134238550Y-111536915D01*
X134527254Y-111656500D01*
X134839746Y-111656500D01*
X135128450Y-111536915D01*
X135349415Y-111315950D01*
X135469000Y-111027246D01*
X135469000Y-110714754D01*
X135393772Y-110533137D01*
X135508550Y-110647915D01*
X135797254Y-110767500D01*
X136109746Y-110767500D01*
X136398450Y-110647915D01*
X136619415Y-110426950D01*
X136739000Y-110138246D01*
X136739000Y-110016254D01*
X145455000Y-110016254D01*
X145455000Y-110328746D01*
X145574585Y-110617450D01*
X145795550Y-110838415D01*
X146084254Y-110958000D01*
X146396746Y-110958000D01*
X146685450Y-110838415D01*
X146906415Y-110617450D01*
X147026000Y-110328746D01*
X147026000Y-110016254D01*
X146906415Y-109727550D01*
X146685450Y-109506585D01*
X146396746Y-109387000D01*
X146084254Y-109387000D01*
X145795550Y-109506585D01*
X145574585Y-109727550D01*
X145455000Y-110016254D01*
X136739000Y-110016254D01*
X136739000Y-109825754D01*
X136619415Y-109537050D01*
X136398450Y-109316085D01*
X136109746Y-109196500D01*
X135797254Y-109196500D01*
X135508550Y-109316085D01*
X135287585Y-109537050D01*
X135168000Y-109825754D01*
X135168000Y-110138246D01*
X135243228Y-110319863D01*
X135128450Y-110205085D01*
X134839746Y-110085500D01*
X134527254Y-110085500D01*
X134238550Y-110205085D01*
X134017585Y-110426050D01*
X133898000Y-110714754D01*
X122841320Y-110714754D01*
X122896000Y-110582746D01*
X122896000Y-110270254D01*
X122840955Y-110137365D01*
X122879145Y-110111847D01*
X122918823Y-110052465D01*
X123740525Y-109230764D01*
X123740527Y-109230761D01*
X123907534Y-109063754D01*
X125897000Y-109063754D01*
X125897000Y-109376246D01*
X126016585Y-109664950D01*
X126237550Y-109885915D01*
X126526254Y-110005500D01*
X126838746Y-110005500D01*
X127127450Y-109885915D01*
X127348415Y-109664950D01*
X127468000Y-109376246D01*
X127468000Y-109063754D01*
X127348415Y-108775050D01*
X127127450Y-108554085D01*
X126838746Y-108434500D01*
X126526254Y-108434500D01*
X126237550Y-108554085D01*
X126016585Y-108775050D01*
X125897000Y-109063754D01*
X123907534Y-109063754D01*
X125043074Y-107928215D01*
X125222450Y-107853915D01*
X125346111Y-107730254D01*
X135676000Y-107730254D01*
X135676000Y-108042746D01*
X135795585Y-108331450D01*
X136016550Y-108552415D01*
X136305254Y-108672000D01*
X136617746Y-108672000D01*
X136906450Y-108552415D01*
X137127415Y-108331450D01*
X137247000Y-108042746D01*
X137247000Y-107730254D01*
X137127415Y-107441550D01*
X136906450Y-107220585D01*
X136617746Y-107101000D01*
X136305254Y-107101000D01*
X136016550Y-107220585D01*
X135795585Y-107441550D01*
X135676000Y-107730254D01*
X125346111Y-107730254D01*
X125443415Y-107632950D01*
X125563000Y-107344246D01*
X125563000Y-107031754D01*
X125443415Y-106743050D01*
X125222450Y-106522085D01*
X124933746Y-106402500D01*
X124621254Y-106402500D01*
X124332550Y-106522085D01*
X124111585Y-106743050D01*
X124037285Y-106922426D01*
X122734739Y-108224973D01*
X122734736Y-108224975D01*
X122071811Y-108887901D01*
X114962591Y-108887901D01*
X114945182Y-105571254D01*
X118531000Y-105571254D01*
X118531000Y-105883746D01*
X118650585Y-106172450D01*
X118871550Y-106393415D01*
X119160254Y-106513000D01*
X119472746Y-106513000D01*
X119761450Y-106393415D01*
X119982415Y-106172450D01*
X120102000Y-105883746D01*
X120102000Y-105571254D01*
X120372500Y-105571254D01*
X120372500Y-105883746D01*
X120478747Y-106140250D01*
X120372500Y-106396754D01*
X120372500Y-106709246D01*
X120492085Y-106997950D01*
X120713050Y-107218915D01*
X121001754Y-107338500D01*
X121314246Y-107338500D01*
X121602950Y-107218915D01*
X121823915Y-106997950D01*
X121943500Y-106709246D01*
X121943500Y-106396754D01*
X121837253Y-106140250D01*
X121941425Y-105888754D01*
X122150500Y-105888754D01*
X122150500Y-106201246D01*
X122270085Y-106489950D01*
X122491050Y-106710915D01*
X122779754Y-106830500D01*
X123092246Y-106830500D01*
X123380950Y-106710915D01*
X123601915Y-106489950D01*
X123721500Y-106201246D01*
X123721500Y-105907201D01*
X123785620Y-105752401D01*
X123785620Y-105439909D01*
X123666035Y-105151205D01*
X123445070Y-104930240D01*
X123156366Y-104810655D01*
X122843874Y-104810655D01*
X122555170Y-104930240D01*
X122334205Y-105151205D01*
X122214620Y-105439909D01*
X122214620Y-105733954D01*
X122150500Y-105888754D01*
X121941425Y-105888754D01*
X121943500Y-105883746D01*
X121943500Y-105571254D01*
X121823915Y-105282550D01*
X121602950Y-105061585D01*
X121314246Y-104942000D01*
X121001754Y-104942000D01*
X120713050Y-105061585D01*
X120492085Y-105282550D01*
X120372500Y-105571254D01*
X120102000Y-105571254D01*
X119982415Y-105282550D01*
X119761450Y-105061585D01*
X119472746Y-104942000D01*
X119160254Y-104942000D01*
X118871550Y-105061585D01*
X118650585Y-105282550D01*
X118531000Y-105571254D01*
X114945182Y-105571254D01*
X114938062Y-104215000D01*
X189405606Y-104215000D01*
X189285701Y-127116846D01*
G36*
X122968585Y-117665950D02*
X123189550Y-117886915D01*
X123478254Y-118006500D01*
X123790746Y-118006500D01*
X124079450Y-117886915D01*
X124300415Y-117665950D01*
X124347159Y-117553099D01*
X134533000Y-117553099D01*
X134533000Y-117631246D01*
X134652585Y-117919950D01*
X134873550Y-118140915D01*
X135162254Y-118260500D01*
X135474746Y-118260500D01*
X135763450Y-118140915D01*
X135984415Y-117919950D01*
X136104000Y-117631246D01*
X136104000Y-117553099D01*
X143524381Y-117553099D01*
X144366049Y-118394768D01*
X144312000Y-118525254D01*
X144312000Y-118837746D01*
X144431585Y-119126450D01*
X144652550Y-119347415D01*
X144941254Y-119467000D01*
X145253746Y-119467000D01*
X145289630Y-119452136D01*
X145289631Y-123183449D01*
X145275697Y-123253500D01*
X145330894Y-123530996D01*
X145488084Y-123766246D01*
X145723334Y-123923436D01*
X145930784Y-123964700D01*
X146000830Y-123978633D01*
X146031077Y-123972617D01*
X145030887Y-124972807D01*
X144809246Y-124881000D01*
X144519648Y-124881000D01*
X144540235Y-124777500D01*
X144452146Y-124334645D01*
X144323759Y-124142500D01*
X144452146Y-123950355D01*
X144540235Y-123507500D01*
X144452146Y-123064645D01*
X144323759Y-122872500D01*
X144452146Y-122680355D01*
X144540235Y-122237500D01*
X144452146Y-121794645D01*
X144323759Y-121602500D01*
X144452146Y-121410355D01*
X144540235Y-120967500D01*
X144452146Y-120524645D01*
X144201289Y-120149211D01*
X143825855Y-119898354D01*
X143494783Y-119832500D01*
X143271217Y-119832500D01*
X142940145Y-119898354D01*
X142564711Y-120149211D01*
X142313854Y-120524645D01*
X142225765Y-120967500D01*
X142313854Y-121410355D01*
X142442241Y-121602500D01*
X142313854Y-121794645D01*
X142225765Y-122237500D01*
X142313854Y-122680355D01*
X142442241Y-122872500D01*
X142313854Y-123064645D01*
X142225765Y-123507500D01*
X142313854Y-123950355D01*
X142442241Y-124142500D01*
X142313854Y-124334645D01*
X142225765Y-124777500D01*
X142313854Y-125220355D01*
X142325869Y-125238336D01*
X142284843Y-125299735D01*
X142235560Y-125547500D01*
X142235560Y-126064901D01*
X141947090Y-126064901D01*
X141412824Y-125530636D01*
X141373146Y-125471254D01*
X141349802Y-125455656D01*
X141306157Y-125236235D01*
X141247322Y-125148183D01*
X141302119Y-125015874D01*
X141175954Y-124841000D01*
X140730322Y-124841000D01*
X140708000Y-124836560D01*
X139708000Y-124836560D01*
X139685678Y-124841000D01*
X139240046Y-124841000D01*
X139113881Y-125015874D01*
X139168678Y-125148183D01*
X139109843Y-125236235D01*
X139060560Y-125484000D01*
X139060560Y-125564582D01*
X138870616Y-125526800D01*
X138870611Y-125526800D01*
X138800570Y-125512868D01*
X138730529Y-125526800D01*
X116182089Y-125526800D01*
X115043960Y-124388672D01*
X115035182Y-122716254D01*
X138597000Y-122716254D01*
X138597000Y-123028746D01*
X138716585Y-123317450D01*
X138937550Y-123538415D01*
X139081397Y-123597998D01*
X139138854Y-123886855D01*
X139275199Y-124090910D01*
X139220873Y-124153791D01*
X139113881Y-124412126D01*
X139240046Y-124587000D01*
X140081000Y-124587000D01*
X140081000Y-124575973D01*
X140096217Y-124579000D01*
X140319783Y-124579000D01*
X140335000Y-124575973D01*
X140335000Y-124587000D01*
X141175954Y-124587000D01*
X141302119Y-124412126D01*
X141195127Y-124153791D01*
X141140801Y-124090910D01*
X141277146Y-123886855D01*
X141365235Y-123444000D01*
X141277146Y-123001145D01*
X141148759Y-122809000D01*
X141277146Y-122616855D01*
X141365235Y-122174000D01*
X141277146Y-121731145D01*
X141148759Y-121539000D01*
X141277146Y-121346855D01*
X141365235Y-120904000D01*
X141277146Y-120461145D01*
X141026289Y-120085711D01*
X140993500Y-120063802D01*
X140993500Y-119795254D01*
X140873915Y-119506550D01*
X140652950Y-119285585D01*
X140364246Y-119166000D01*
X140051754Y-119166000D01*
X139763050Y-119285585D01*
X139542085Y-119506550D01*
X139422500Y-119795254D01*
X139422500Y-120063802D01*
X139389711Y-120085711D01*
X139138854Y-120461145D01*
X139050765Y-120904000D01*
X139138854Y-121346855D01*
X139267241Y-121539000D01*
X139138854Y-121731145D01*
X139053867Y-122158405D01*
X138937550Y-122206585D01*
X138716585Y-122427550D01*
X138597000Y-122716254D01*
X115035182Y-122716254D01*
X115014848Y-118842754D01*
X119991500Y-118842754D01*
X119991500Y-119155246D01*
X120111085Y-119443950D01*
X120332050Y-119664915D01*
X120620754Y-119784500D01*
X120933246Y-119784500D01*
X121221950Y-119664915D01*
X121442915Y-119443950D01*
X121545584Y-119196084D01*
X121793450Y-119093415D01*
X122014415Y-118872450D01*
X122053018Y-118779254D01*
X132183500Y-118779254D01*
X132183500Y-119091746D01*
X132303085Y-119380450D01*
X132524050Y-119601415D01*
X132812754Y-119721000D01*
X133125246Y-119721000D01*
X133413950Y-119601415D01*
X133634915Y-119380450D01*
X133677972Y-119276500D01*
X133950746Y-119276500D01*
X134239450Y-119156915D01*
X134460415Y-118935950D01*
X134580000Y-118647246D01*
X134580000Y-118525254D01*
X140499274Y-118525254D01*
X140499274Y-118837746D01*
X140618859Y-119126450D01*
X140839824Y-119347415D01*
X141128528Y-119467000D01*
X141441020Y-119467000D01*
X141729724Y-119347415D01*
X141950689Y-119126450D01*
X142070274Y-118837746D01*
X142070274Y-118525254D01*
X141950689Y-118236550D01*
X141729724Y-118015585D01*
X141441020Y-117896000D01*
X141128528Y-117896000D01*
X140839824Y-118015585D01*
X140618859Y-118236550D01*
X140499274Y-118525254D01*
X134580000Y-118525254D01*
X134580000Y-118334754D01*
X134460415Y-118046050D01*
X134239450Y-117825085D01*
X133950746Y-117705500D01*
X133638254Y-117705500D01*
X133349550Y-117825085D01*
X133128585Y-118046050D01*
X133085528Y-118150000D01*
X132812754Y-118150000D01*
X132524050Y-118269585D01*
X132303085Y-118490550D01*
X132183500Y-118779254D01*
X122053018Y-118779254D01*
X122134000Y-118583746D01*
X122134000Y-118271254D01*
X122014415Y-117982550D01*
X121793450Y-117761585D01*
X121504746Y-117642000D01*
X121192254Y-117642000D01*
X120903550Y-117761585D01*
X120682585Y-117982550D01*
X120579916Y-118230416D01*
X120332050Y-118333085D01*
X120111085Y-118554050D01*
X119991500Y-118842754D01*
X115014848Y-118842754D01*
X115009078Y-117743584D01*
X115060100Y-117753733D01*
X115130142Y-117739801D01*
X118031428Y-117739801D01*
X118101469Y-117753733D01*
X118171510Y-117739801D01*
X118171515Y-117739801D01*
X118378965Y-117698537D01*
X118596627Y-117553099D01*
X122921841Y-117553099D01*
X122968585Y-117665950D01*
X122968585Y-117665950D01*
G37*
X122968585Y-117665950D02*
X123189550Y-117886915D01*
X123478254Y-118006500D01*
X123790746Y-118006500D01*
X124079450Y-117886915D01*
X124300415Y-117665950D01*
X124347159Y-117553099D01*
X134533000Y-117553099D01*
X134533000Y-117631246D01*
X134652585Y-117919950D01*
X134873550Y-118140915D01*
X135162254Y-118260500D01*
X135474746Y-118260500D01*
X135763450Y-118140915D01*
X135984415Y-117919950D01*
X136104000Y-117631246D01*
X136104000Y-117553099D01*
X143524381Y-117553099D01*
X144366049Y-118394768D01*
X144312000Y-118525254D01*
X144312000Y-118837746D01*
X144431585Y-119126450D01*
X144652550Y-119347415D01*
X144941254Y-119467000D01*
X145253746Y-119467000D01*
X145289630Y-119452136D01*
X145289631Y-123183449D01*
X145275697Y-123253500D01*
X145330894Y-123530996D01*
X145488084Y-123766246D01*
X145723334Y-123923436D01*
X145930784Y-123964700D01*
X146000830Y-123978633D01*
X146031077Y-123972617D01*
X145030887Y-124972807D01*
X144809246Y-124881000D01*
X144519648Y-124881000D01*
X144540235Y-124777500D01*
X144452146Y-124334645D01*
X144323759Y-124142500D01*
X144452146Y-123950355D01*
X144540235Y-123507500D01*
X144452146Y-123064645D01*
X144323759Y-122872500D01*
X144452146Y-122680355D01*
X144540235Y-122237500D01*
X144452146Y-121794645D01*
X144323759Y-121602500D01*
X144452146Y-121410355D01*
X144540235Y-120967500D01*
X144452146Y-120524645D01*
X144201289Y-120149211D01*
X143825855Y-119898354D01*
X143494783Y-119832500D01*
X143271217Y-119832500D01*
X142940145Y-119898354D01*
X142564711Y-120149211D01*
X142313854Y-120524645D01*
X142225765Y-120967500D01*
X142313854Y-121410355D01*
X142442241Y-121602500D01*
X142313854Y-121794645D01*
X142225765Y-122237500D01*
X142313854Y-122680355D01*
X142442241Y-122872500D01*
X142313854Y-123064645D01*
X142225765Y-123507500D01*
X142313854Y-123950355D01*
X142442241Y-124142500D01*
X142313854Y-124334645D01*
X142225765Y-124777500D01*
X142313854Y-125220355D01*
X142325869Y-125238336D01*
X142284843Y-125299735D01*
X142235560Y-125547500D01*
X142235560Y-126064901D01*
X141947090Y-126064901D01*
X141412824Y-125530636D01*
X141373146Y-125471254D01*
X141349802Y-125455656D01*
X141306157Y-125236235D01*
X141247322Y-125148183D01*
X141302119Y-125015874D01*
X141175954Y-124841000D01*
X140730322Y-124841000D01*
X140708000Y-124836560D01*
X139708000Y-124836560D01*
X139685678Y-124841000D01*
X139240046Y-124841000D01*
X139113881Y-125015874D01*
X139168678Y-125148183D01*
X139109843Y-125236235D01*
X139060560Y-125484000D01*
X139060560Y-125564582D01*
X138870616Y-125526800D01*
X138870611Y-125526800D01*
X138800570Y-125512868D01*
X138730529Y-125526800D01*
X116182089Y-125526800D01*
X115043960Y-124388672D01*
X115035182Y-122716254D01*
X138597000Y-122716254D01*
X138597000Y-123028746D01*
X138716585Y-123317450D01*
X138937550Y-123538415D01*
X139081397Y-123597998D01*
X139138854Y-123886855D01*
X139275199Y-124090910D01*
X139220873Y-124153791D01*
X139113881Y-124412126D01*
X139240046Y-124587000D01*
X140081000Y-124587000D01*
X140081000Y-124575973D01*
X140096217Y-124579000D01*
X140319783Y-124579000D01*
X140335000Y-124575973D01*
X140335000Y-124587000D01*
X141175954Y-124587000D01*
X141302119Y-124412126D01*
X141195127Y-124153791D01*
X141140801Y-124090910D01*
X141277146Y-123886855D01*
X141365235Y-123444000D01*
X141277146Y-123001145D01*
X141148759Y-122809000D01*
X141277146Y-122616855D01*
X141365235Y-122174000D01*
X141277146Y-121731145D01*
X141148759Y-121539000D01*
X141277146Y-121346855D01*
X141365235Y-120904000D01*
X141277146Y-120461145D01*
X141026289Y-120085711D01*
X140993500Y-120063802D01*
X140993500Y-119795254D01*
X140873915Y-119506550D01*
X140652950Y-119285585D01*
X140364246Y-119166000D01*
X140051754Y-119166000D01*
X139763050Y-119285585D01*
X139542085Y-119506550D01*
X139422500Y-119795254D01*
X139422500Y-120063802D01*
X139389711Y-120085711D01*
X139138854Y-120461145D01*
X139050765Y-120904000D01*
X139138854Y-121346855D01*
X139267241Y-121539000D01*
X139138854Y-121731145D01*
X139053867Y-122158405D01*
X138937550Y-122206585D01*
X138716585Y-122427550D01*
X138597000Y-122716254D01*
X115035182Y-122716254D01*
X115014848Y-118842754D01*
X119991500Y-118842754D01*
X119991500Y-119155246D01*
X120111085Y-119443950D01*
X120332050Y-119664915D01*
X120620754Y-119784500D01*
X120933246Y-119784500D01*
X121221950Y-119664915D01*
X121442915Y-119443950D01*
X121545584Y-119196084D01*
X121793450Y-119093415D01*
X122014415Y-118872450D01*
X122053018Y-118779254D01*
X132183500Y-118779254D01*
X132183500Y-119091746D01*
X132303085Y-119380450D01*
X132524050Y-119601415D01*
X132812754Y-119721000D01*
X133125246Y-119721000D01*
X133413950Y-119601415D01*
X133634915Y-119380450D01*
X133677972Y-119276500D01*
X133950746Y-119276500D01*
X134239450Y-119156915D01*
X134460415Y-118935950D01*
X134580000Y-118647246D01*
X134580000Y-118525254D01*
X140499274Y-118525254D01*
X140499274Y-118837746D01*
X140618859Y-119126450D01*
X140839824Y-119347415D01*
X141128528Y-119467000D01*
X141441020Y-119467000D01*
X141729724Y-119347415D01*
X141950689Y-119126450D01*
X142070274Y-118837746D01*
X142070274Y-118525254D01*
X141950689Y-118236550D01*
X141729724Y-118015585D01*
X141441020Y-117896000D01*
X141128528Y-117896000D01*
X140839824Y-118015585D01*
X140618859Y-118236550D01*
X140499274Y-118525254D01*
X134580000Y-118525254D01*
X134580000Y-118334754D01*
X134460415Y-118046050D01*
X134239450Y-117825085D01*
X133950746Y-117705500D01*
X133638254Y-117705500D01*
X133349550Y-117825085D01*
X133128585Y-118046050D01*
X133085528Y-118150000D01*
X132812754Y-118150000D01*
X132524050Y-118269585D01*
X132303085Y-118490550D01*
X132183500Y-118779254D01*
X122053018Y-118779254D01*
X122134000Y-118583746D01*
X122134000Y-118271254D01*
X122014415Y-117982550D01*
X121793450Y-117761585D01*
X121504746Y-117642000D01*
X121192254Y-117642000D01*
X120903550Y-117761585D01*
X120682585Y-117982550D01*
X120579916Y-118230416D01*
X120332050Y-118333085D01*
X120111085Y-118554050D01*
X119991500Y-118842754D01*
X115014848Y-118842754D01*
X115009078Y-117743584D01*
X115060100Y-117753733D01*
X115130142Y-117739801D01*
X118031428Y-117739801D01*
X118101469Y-117753733D01*
X118171510Y-117739801D01*
X118171515Y-117739801D01*
X118378965Y-117698537D01*
X118596627Y-117553099D01*
X122921841Y-117553099D01*
X122968585Y-117665950D01*
G36*
X175118401Y-116190619D02*
X175118402Y-116818450D01*
X174908246Y-116731401D01*
X174595754Y-116731401D01*
X174307050Y-116850986D01*
X174086085Y-117071951D01*
X173966500Y-117360655D01*
X173966500Y-117673147D01*
X174086085Y-117961851D01*
X174175508Y-118051274D01*
X171292233Y-120934549D01*
X171161746Y-120880500D01*
X170849254Y-120880500D01*
X170560550Y-121000085D01*
X170339585Y-121221050D01*
X170220000Y-121509754D01*
X170220000Y-121646954D01*
X170209246Y-121642500D01*
X169896754Y-121642500D01*
X169856070Y-121659352D01*
X169196951Y-121000232D01*
X169251000Y-120869746D01*
X169251000Y-120673500D01*
X169383746Y-120673500D01*
X169672450Y-120553915D01*
X169893415Y-120332950D01*
X169967716Y-120153572D01*
X170059967Y-120061321D01*
X170119346Y-120021645D01*
X170159023Y-119962265D01*
X170159025Y-119962263D01*
X170270162Y-119795935D01*
X170276537Y-119786395D01*
X170317801Y-119578945D01*
X170317801Y-119578941D01*
X170331733Y-119508899D01*
X170317801Y-119438857D01*
X170317801Y-119041035D01*
X170497950Y-118966415D01*
X170632365Y-118832000D01*
X170907746Y-118832000D01*
X171196450Y-118712415D01*
X171417415Y-118491450D01*
X171537000Y-118202746D01*
X171537000Y-117890254D01*
X171417415Y-117601550D01*
X171396664Y-117580799D01*
X171577450Y-117505915D01*
X171798415Y-117284950D01*
X171918000Y-116996246D01*
X171918000Y-116683754D01*
X171798415Y-116395050D01*
X171764672Y-116361307D01*
X171791000Y-116297746D01*
X171791000Y-116276365D01*
X171902390Y-116164975D01*
X172055754Y-116228500D01*
X172368246Y-116228500D01*
X172547622Y-116154200D01*
X175081982Y-116154200D01*
X175118401Y-116190619D01*
X175118401Y-116190619D01*
G37*
X175118401Y-116190619D02*
X175118402Y-116818450D01*
X174908246Y-116731401D01*
X174595754Y-116731401D01*
X174307050Y-116850986D01*
X174086085Y-117071951D01*
X173966500Y-117360655D01*
X173966500Y-117673147D01*
X174086085Y-117961851D01*
X174175508Y-118051274D01*
X171292233Y-120934549D01*
X171161746Y-120880500D01*
X170849254Y-120880500D01*
X170560550Y-121000085D01*
X170339585Y-121221050D01*
X170220000Y-121509754D01*
X170220000Y-121646954D01*
X170209246Y-121642500D01*
X169896754Y-121642500D01*
X169856070Y-121659352D01*
X169196951Y-121000232D01*
X169251000Y-120869746D01*
X169251000Y-120673500D01*
X169383746Y-120673500D01*
X169672450Y-120553915D01*
X169893415Y-120332950D01*
X169967716Y-120153572D01*
X170059967Y-120061321D01*
X170119346Y-120021645D01*
X170159023Y-119962265D01*
X170159025Y-119962263D01*
X170270162Y-119795935D01*
X170276537Y-119786395D01*
X170317801Y-119578945D01*
X170317801Y-119578941D01*
X170331733Y-119508899D01*
X170317801Y-119438857D01*
X170317801Y-119041035D01*
X170497950Y-118966415D01*
X170632365Y-118832000D01*
X170907746Y-118832000D01*
X171196450Y-118712415D01*
X171417415Y-118491450D01*
X171537000Y-118202746D01*
X171537000Y-117890254D01*
X171417415Y-117601550D01*
X171396664Y-117580799D01*
X171577450Y-117505915D01*
X171798415Y-117284950D01*
X171918000Y-116996246D01*
X171918000Y-116683754D01*
X171798415Y-116395050D01*
X171764672Y-116361307D01*
X171791000Y-116297746D01*
X171791000Y-116276365D01*
X171902390Y-116164975D01*
X172055754Y-116228500D01*
X172368246Y-116228500D01*
X172547622Y-116154200D01*
X175081982Y-116154200D01*
X175118401Y-116190619D01*
G36*
X160560585Y-117983450D02*
X160781550Y-118204415D01*
X161070254Y-118324000D01*
X161382746Y-118324000D01*
X161639250Y-118217753D01*
X161895754Y-118324000D01*
X162208246Y-118324000D01*
X162433000Y-118230904D01*
X162657754Y-118324000D01*
X162970246Y-118324000D01*
X163258950Y-118204415D01*
X163284989Y-118178376D01*
X163483254Y-118260500D01*
X163645642Y-118260500D01*
X163692607Y-118307465D01*
X163714680Y-118340500D01*
X163483254Y-118340500D01*
X163258500Y-118433596D01*
X163033746Y-118340500D01*
X162721254Y-118340500D01*
X162432550Y-118460085D01*
X162211585Y-118681050D01*
X162092000Y-118969754D01*
X162092000Y-119102500D01*
X162012000Y-119102500D01*
X162012000Y-118969754D01*
X161892415Y-118681050D01*
X161671450Y-118460085D01*
X161382746Y-118340500D01*
X161070254Y-118340500D01*
X160781550Y-118460085D01*
X160560585Y-118681050D01*
X160441000Y-118969754D01*
X160441000Y-119282246D01*
X160525540Y-119486345D01*
X159134924Y-118258832D01*
X159292254Y-118324000D01*
X159604746Y-118324000D01*
X159893450Y-118204415D01*
X160114415Y-117983450D01*
X160189035Y-117803301D01*
X160485965Y-117803301D01*
X160560585Y-117983450D01*
X160560585Y-117983450D01*
G37*
X160560585Y-117983450D02*
X160781550Y-118204415D01*
X161070254Y-118324000D01*
X161382746Y-118324000D01*
X161639250Y-118217753D01*
X161895754Y-118324000D01*
X162208246Y-118324000D01*
X162433000Y-118230904D01*
X162657754Y-118324000D01*
X162970246Y-118324000D01*
X163258950Y-118204415D01*
X163284989Y-118178376D01*
X163483254Y-118260500D01*
X163645642Y-118260500D01*
X163692607Y-118307465D01*
X163714680Y-118340500D01*
X163483254Y-118340500D01*
X163258500Y-118433596D01*
X163033746Y-118340500D01*
X162721254Y-118340500D01*
X162432550Y-118460085D01*
X162211585Y-118681050D01*
X162092000Y-118969754D01*
X162092000Y-119102500D01*
X162012000Y-119102500D01*
X162012000Y-118969754D01*
X161892415Y-118681050D01*
X161671450Y-118460085D01*
X161382746Y-118340500D01*
X161070254Y-118340500D01*
X160781550Y-118460085D01*
X160560585Y-118681050D01*
X160441000Y-118969754D01*
X160441000Y-119282246D01*
X160525540Y-119486345D01*
X159134924Y-118258832D01*
X159292254Y-118324000D01*
X159604746Y-118324000D01*
X159893450Y-118204415D01*
X160114415Y-117983450D01*
X160189035Y-117803301D01*
X160485965Y-117803301D01*
X160560585Y-117983450D01*
G36*
X162661543Y-110164457D02*
X163094864Y-110453993D01*
X163436300Y-110521909D01*
X163436300Y-110737459D01*
X163422368Y-110807500D01*
X163436300Y-110877541D01*
X163436300Y-110877545D01*
X163437424Y-110883196D01*
X163351246Y-110847500D01*
X163038754Y-110847500D01*
X162750050Y-110967085D01*
X162529085Y-111188050D01*
X162409500Y-111476754D01*
X162409500Y-111789246D01*
X162529085Y-112077950D01*
X162750050Y-112298915D01*
X163038754Y-112418500D01*
X163351246Y-112418500D01*
X163639950Y-112298915D01*
X163860915Y-112077950D01*
X163980500Y-111789246D01*
X163980500Y-111646288D01*
X165312285Y-112978074D01*
X165386585Y-113157450D01*
X165607550Y-113378415D01*
X165896254Y-113498000D01*
X166208746Y-113498000D01*
X166497450Y-113378415D01*
X166718415Y-113157450D01*
X166838000Y-112868746D01*
X166838000Y-112556254D01*
X166718415Y-112267550D01*
X166497450Y-112046585D01*
X166496269Y-112046096D01*
X166591415Y-111950950D01*
X166622680Y-111875469D01*
X166994423Y-112247212D01*
X166974085Y-112267550D01*
X166854500Y-112556254D01*
X166854500Y-112868746D01*
X166947596Y-113093500D01*
X166854500Y-113318254D01*
X166854500Y-113518641D01*
X166618253Y-113754888D01*
X166497450Y-113634085D01*
X166208746Y-113514500D01*
X165896254Y-113514500D01*
X165607550Y-113634085D01*
X165386585Y-113855050D01*
X165267000Y-114143754D01*
X165267000Y-114276500D01*
X165070754Y-114276500D01*
X164940268Y-114330549D01*
X164389549Y-113779831D01*
X164425000Y-113694246D01*
X164425000Y-113381754D01*
X164305415Y-113093050D01*
X164084450Y-112872085D01*
X163795746Y-112752500D01*
X163483254Y-112752500D01*
X163284989Y-112834624D01*
X163258950Y-112808585D01*
X162970246Y-112689000D01*
X162657754Y-112689000D01*
X162369050Y-112808585D01*
X162284712Y-112892923D01*
X159890802Y-110499014D01*
X160117136Y-110453993D01*
X160550457Y-110164457D01*
X160606000Y-110081331D01*
X160661543Y-110164457D01*
X161094864Y-110453993D01*
X161476978Y-110530000D01*
X161735022Y-110530000D01*
X162117136Y-110453993D01*
X162550457Y-110164457D01*
X162606000Y-110081331D01*
X162661543Y-110164457D01*
X162661543Y-110164457D01*
G37*
X162661543Y-110164457D02*
X163094864Y-110453993D01*
X163436300Y-110521909D01*
X163436300Y-110737459D01*
X163422368Y-110807500D01*
X163436300Y-110877541D01*
X163436300Y-110877545D01*
X163437424Y-110883196D01*
X163351246Y-110847500D01*
X163038754Y-110847500D01*
X162750050Y-110967085D01*
X162529085Y-111188050D01*
X162409500Y-111476754D01*
X162409500Y-111789246D01*
X162529085Y-112077950D01*
X162750050Y-112298915D01*
X163038754Y-112418500D01*
X163351246Y-112418500D01*
X163639950Y-112298915D01*
X163860915Y-112077950D01*
X163980500Y-111789246D01*
X163980500Y-111646288D01*
X165312285Y-112978074D01*
X165386585Y-113157450D01*
X165607550Y-113378415D01*
X165896254Y-113498000D01*
X166208746Y-113498000D01*
X166497450Y-113378415D01*
X166718415Y-113157450D01*
X166838000Y-112868746D01*
X166838000Y-112556254D01*
X166718415Y-112267550D01*
X166497450Y-112046585D01*
X166496269Y-112046096D01*
X166591415Y-111950950D01*
X166622680Y-111875469D01*
X166994423Y-112247212D01*
X166974085Y-112267550D01*
X166854500Y-112556254D01*
X166854500Y-112868746D01*
X166947596Y-113093500D01*
X166854500Y-113318254D01*
X166854500Y-113518641D01*
X166618253Y-113754888D01*
X166497450Y-113634085D01*
X166208746Y-113514500D01*
X165896254Y-113514500D01*
X165607550Y-113634085D01*
X165386585Y-113855050D01*
X165267000Y-114143754D01*
X165267000Y-114276500D01*
X165070754Y-114276500D01*
X164940268Y-114330549D01*
X164389549Y-113779831D01*
X164425000Y-113694246D01*
X164425000Y-113381754D01*
X164305415Y-113093050D01*
X164084450Y-112872085D01*
X163795746Y-112752500D01*
X163483254Y-112752500D01*
X163284989Y-112834624D01*
X163258950Y-112808585D01*
X162970246Y-112689000D01*
X162657754Y-112689000D01*
X162369050Y-112808585D01*
X162284712Y-112892923D01*
X159890802Y-110499014D01*
X160117136Y-110453993D01*
X160550457Y-110164457D01*
X160606000Y-110081331D01*
X160661543Y-110164457D01*
X161094864Y-110453993D01*
X161476978Y-110530000D01*
X161735022Y-110530000D01*
X162117136Y-110453993D01*
X162550457Y-110164457D01*
X162606000Y-110081331D01*
X162661543Y-110164457D01*
M02*
