G04 #@! TF.GenerationSoftware,KiCad,Pcbnew,5.0.0-rc3-unknown-101b68b~65~ubuntu16.04.1*
G04 #@! TF.CreationDate,2018-07-05T16:56:31+02:00*
G04 #@! TF.ProjectId,roboy_sno,726F626F795F736E6F2E6B696361645F,rev?*
G04 #@! TF.SameCoordinates,Original*
G04 #@! TF.FileFunction,Copper,L4,Bot,Signal*
G04 #@! TF.FilePolarity,Positive*
%FSLAX46Y46*%
G04 Gerber Fmt 4.6, Leading zero omitted, Abs format (unit mm)*
G04 Created by KiCad (PCBNEW 5.0.0-rc3-unknown-101b68b~65~ubuntu16.04.1) date Thu Jul  5 16:56:31 2018*
%MOMM*%
%LPD*%
G01*
G04 APERTURE LIST*
G04 #@! TA.AperFunction,ComponentPad*
%ADD10R,1.700000X1.700000*%
G04 #@! TD*
G04 #@! TA.AperFunction,ComponentPad*
%ADD11O,1.700000X1.700000*%
G04 #@! TD*
G04 #@! TA.AperFunction,ViaPad*
%ADD12C,0.301000*%
G04 #@! TD*
G04 #@! TA.AperFunction,Conductor*
%ADD13C,0.152400*%
G04 #@! TD*
G04 #@! TA.AperFunction,Conductor*
%ADD14C,0.254000*%
G04 #@! TD*
G04 APERTURE END LIST*
D10*
G04 #@! TO.P,J1,1*
G04 #@! TO.N,/D0*
X152510000Y-114250000D03*
D11*
G04 #@! TO.P,J1,2*
G04 #@! TO.N,/E0*
X152510000Y-111710000D03*
G04 #@! TO.P,J1,3*
G04 #@! TO.N,/D1*
X149970000Y-114250000D03*
G04 #@! TO.P,J1,4*
G04 #@! TO.N,/E1*
X149970000Y-111710000D03*
G04 #@! TO.P,J1,5*
G04 #@! TO.N,/D2*
X147430000Y-114250000D03*
G04 #@! TO.P,J1,6*
G04 #@! TO.N,/E2*
X147430000Y-111710000D03*
G04 #@! TO.P,J1,7*
G04 #@! TO.N,/D3*
X144890000Y-114250000D03*
G04 #@! TO.P,J1,8*
G04 #@! TO.N,/E3*
X144890000Y-111710000D03*
G04 #@! TO.P,J1,9*
G04 #@! TO.N,/D4*
X142350000Y-114250000D03*
G04 #@! TO.P,J1,10*
G04 #@! TO.N,/E4*
X142350000Y-111710000D03*
G04 #@! TO.P,J1,11*
G04 #@! TO.N,/D5*
X139810000Y-114250000D03*
G04 #@! TO.P,J1,12*
G04 #@! TO.N,/E5*
X139810000Y-111710000D03*
G04 #@! TO.P,J1,13*
G04 #@! TO.N,/D6*
X137270000Y-114250000D03*
G04 #@! TO.P,J1,14*
G04 #@! TO.N,/E6*
X137270000Y-111710000D03*
G04 #@! TO.P,J1,15*
G04 #@! TO.N,/D7*
X134730000Y-114250000D03*
G04 #@! TO.P,J1,16*
G04 #@! TO.N,/E7*
X134730000Y-111710000D03*
G04 #@! TO.P,J1,17*
G04 #@! TO.N,/D8*
X132190000Y-114250000D03*
G04 #@! TO.P,J1,18*
G04 #@! TO.N,/E8*
X132190000Y-111710000D03*
G04 #@! TO.P,J1,19*
G04 #@! TO.N,/D9*
X129650000Y-114250000D03*
G04 #@! TO.P,J1,20*
G04 #@! TO.N,/E9*
X129650000Y-111710000D03*
G04 #@! TO.P,J1,21*
G04 #@! TO.N,/D10*
X127110000Y-114250000D03*
G04 #@! TO.P,J1,22*
G04 #@! TO.N,/E10*
X127110000Y-111710000D03*
G04 #@! TO.P,J1,23*
G04 #@! TO.N,/D11*
X124570000Y-114250000D03*
G04 #@! TO.P,J1,24*
G04 #@! TO.N,/E11*
X124570000Y-111710000D03*
G04 #@! TO.P,J1,25*
G04 #@! TO.N,/D12*
X122030000Y-114250000D03*
G04 #@! TO.P,J1,26*
G04 #@! TO.N,/E12*
X122030000Y-111710000D03*
G04 #@! TO.P,J1,27*
G04 #@! TO.N,/D13*
X119490000Y-114250000D03*
G04 #@! TO.P,J1,28*
G04 #@! TO.N,/E13*
X119490000Y-111710000D03*
G04 #@! TO.P,J1,29*
G04 #@! TO.N,/D14*
X116950000Y-114250000D03*
G04 #@! TO.P,J1,30*
G04 #@! TO.N,/E14*
X116950000Y-111710000D03*
G04 #@! TO.P,J1,31*
G04 #@! TO.N,/D15*
X114410000Y-114250000D03*
G04 #@! TO.P,J1,32*
G04 #@! TO.N,/E15*
X114410000Y-111710000D03*
G04 #@! TD*
G04 #@! TO.P,J2,32*
G04 #@! TO.N,3.3V*
X114400000Y-137210000D03*
G04 #@! TO.P,J2,31*
G04 #@! TO.N,GND*
X114400000Y-139750000D03*
G04 #@! TO.P,J2,30*
G04 #@! TO.N,3.3V*
X116940000Y-137210000D03*
G04 #@! TO.P,J2,29*
G04 #@! TO.N,GND*
X116940000Y-139750000D03*
G04 #@! TO.P,J2,28*
G04 #@! TO.N,3.3V*
X119480000Y-137210000D03*
G04 #@! TO.P,J2,27*
G04 #@! TO.N,GND*
X119480000Y-139750000D03*
G04 #@! TO.P,J2,26*
G04 #@! TO.N,3.3V*
X122020000Y-137210000D03*
G04 #@! TO.P,J2,25*
G04 #@! TO.N,GND*
X122020000Y-139750000D03*
G04 #@! TO.P,J2,24*
G04 #@! TO.N,3.3V*
X124560000Y-137210000D03*
G04 #@! TO.P,J2,23*
G04 #@! TO.N,GND*
X124560000Y-139750000D03*
G04 #@! TO.P,J2,22*
G04 #@! TO.N,/E42*
X127100000Y-137210000D03*
G04 #@! TO.P,J2,21*
G04 #@! TO.N,/D42*
X127100000Y-139750000D03*
G04 #@! TO.P,J2,20*
G04 #@! TO.N,/E41*
X129640000Y-137210000D03*
G04 #@! TO.P,J2,19*
G04 #@! TO.N,/D41*
X129640000Y-139750000D03*
G04 #@! TO.P,J2,18*
G04 #@! TO.N,/E40*
X132180000Y-137210000D03*
G04 #@! TO.P,J2,17*
G04 #@! TO.N,/D40*
X132180000Y-139750000D03*
G04 #@! TO.P,J2,16*
G04 #@! TO.N,/E39*
X134720000Y-137210000D03*
G04 #@! TO.P,J2,15*
G04 #@! TO.N,/D39*
X134720000Y-139750000D03*
G04 #@! TO.P,J2,14*
G04 #@! TO.N,/E38*
X137260000Y-137210000D03*
G04 #@! TO.P,J2,13*
G04 #@! TO.N,/D38*
X137260000Y-139750000D03*
G04 #@! TO.P,J2,12*
G04 #@! TO.N,/E37*
X139800000Y-137210000D03*
G04 #@! TO.P,J2,11*
G04 #@! TO.N,/D37*
X139800000Y-139750000D03*
G04 #@! TO.P,J2,10*
G04 #@! TO.N,/E36*
X142340000Y-137210000D03*
G04 #@! TO.P,J2,9*
G04 #@! TO.N,/D36*
X142340000Y-139750000D03*
G04 #@! TO.P,J2,8*
G04 #@! TO.N,/E35*
X144880000Y-137210000D03*
G04 #@! TO.P,J2,7*
G04 #@! TO.N,/D35*
X144880000Y-139750000D03*
G04 #@! TO.P,J2,6*
G04 #@! TO.N,/E34*
X147420000Y-137210000D03*
G04 #@! TO.P,J2,5*
G04 #@! TO.N,/D34*
X147420000Y-139750000D03*
G04 #@! TO.P,J2,4*
G04 #@! TO.N,/E33*
X149960000Y-137210000D03*
G04 #@! TO.P,J2,3*
G04 #@! TO.N,/D33*
X149960000Y-139750000D03*
G04 #@! TO.P,J2,2*
G04 #@! TO.N,/E32*
X152500000Y-137210000D03*
D10*
G04 #@! TO.P,J2,1*
G04 #@! TO.N,/D32*
X152500000Y-139750000D03*
G04 #@! TD*
G04 #@! TO.P,J3,1*
G04 #@! TO.N,/D16*
X194750000Y-139760000D03*
D11*
G04 #@! TO.P,J3,2*
G04 #@! TO.N,/E16*
X194750000Y-137220000D03*
G04 #@! TO.P,J3,3*
G04 #@! TO.N,/D17*
X192210000Y-139760000D03*
G04 #@! TO.P,J3,4*
G04 #@! TO.N,/E17*
X192210000Y-137220000D03*
G04 #@! TO.P,J3,5*
G04 #@! TO.N,/D18*
X189670000Y-139760000D03*
G04 #@! TO.P,J3,6*
G04 #@! TO.N,/E18*
X189670000Y-137220000D03*
G04 #@! TO.P,J3,7*
G04 #@! TO.N,/D19*
X187130000Y-139760000D03*
G04 #@! TO.P,J3,8*
G04 #@! TO.N,/E19*
X187130000Y-137220000D03*
G04 #@! TO.P,J3,9*
G04 #@! TO.N,/D20*
X184590000Y-139760000D03*
G04 #@! TO.P,J3,10*
G04 #@! TO.N,/E20*
X184590000Y-137220000D03*
G04 #@! TO.P,J3,11*
G04 #@! TO.N,/D21*
X182050000Y-139760000D03*
G04 #@! TO.P,J3,12*
G04 #@! TO.N,/E21*
X182050000Y-137220000D03*
G04 #@! TO.P,J3,13*
G04 #@! TO.N,/D22*
X179510000Y-139760000D03*
G04 #@! TO.P,J3,14*
G04 #@! TO.N,/E22*
X179510000Y-137220000D03*
G04 #@! TO.P,J3,15*
G04 #@! TO.N,/D23*
X176970000Y-139760000D03*
G04 #@! TO.P,J3,16*
G04 #@! TO.N,/E23*
X176970000Y-137220000D03*
G04 #@! TO.P,J3,17*
G04 #@! TO.N,/D24*
X174430000Y-139760000D03*
G04 #@! TO.P,J3,18*
G04 #@! TO.N,/E24*
X174430000Y-137220000D03*
G04 #@! TO.P,J3,19*
G04 #@! TO.N,/D25*
X171890000Y-139760000D03*
G04 #@! TO.P,J3,20*
G04 #@! TO.N,/E25*
X171890000Y-137220000D03*
G04 #@! TO.P,J3,21*
G04 #@! TO.N,/D26*
X169350000Y-139760000D03*
G04 #@! TO.P,J3,22*
G04 #@! TO.N,/E26*
X169350000Y-137220000D03*
G04 #@! TO.P,J3,23*
G04 #@! TO.N,/D27*
X166810000Y-139760000D03*
G04 #@! TO.P,J3,24*
G04 #@! TO.N,/E27*
X166810000Y-137220000D03*
G04 #@! TO.P,J3,25*
G04 #@! TO.N,/D28*
X164270000Y-139760000D03*
G04 #@! TO.P,J3,26*
G04 #@! TO.N,/E28*
X164270000Y-137220000D03*
G04 #@! TO.P,J3,27*
G04 #@! TO.N,/D29*
X161730000Y-139760000D03*
G04 #@! TO.P,J3,28*
G04 #@! TO.N,/E29*
X161730000Y-137220000D03*
G04 #@! TO.P,J3,29*
G04 #@! TO.N,/D30*
X159190000Y-139760000D03*
G04 #@! TO.P,J3,30*
G04 #@! TO.N,/E30*
X159190000Y-137220000D03*
G04 #@! TO.P,J3,31*
G04 #@! TO.N,/D31*
X156650000Y-139760000D03*
G04 #@! TO.P,J3,32*
G04 #@! TO.N,/E31*
X156650000Y-137220000D03*
G04 #@! TD*
D10*
G04 #@! TO.P,J4,1*
G04 #@! TO.N,/TCK*
X157010000Y-111640000D03*
D11*
G04 #@! TO.P,J4,2*
G04 #@! TO.N,GND*
X157010000Y-114180000D03*
G04 #@! TO.P,J4,3*
G04 #@! TO.N,/TDO*
X159550000Y-111640000D03*
G04 #@! TO.P,J4,4*
G04 #@! TO.N,3.3V*
X159550000Y-114180000D03*
G04 #@! TO.P,J4,5*
G04 #@! TO.N,/TMS*
X162090000Y-111640000D03*
G04 #@! TO.P,J4,6*
G04 #@! TO.N,N/C*
X162090000Y-114180000D03*
G04 #@! TO.P,J4,7*
X164630000Y-111640000D03*
G04 #@! TO.P,J4,8*
X164630000Y-114180000D03*
G04 #@! TO.P,J4,9*
G04 #@! TO.N,/TDI*
X167170000Y-111640000D03*
G04 #@! TO.P,J4,10*
G04 #@! TO.N,GND*
X167170000Y-114180000D03*
G04 #@! TD*
D10*
G04 #@! TO.P,J5,1*
G04 #@! TO.N,/ESP8266-12E/ADC*
X194750000Y-114250000D03*
D11*
G04 #@! TO.P,J5,2*
G04 #@! TO.N,/ESP8266-12E/GPIO2*
X194750000Y-111710000D03*
G04 #@! TO.P,J5,3*
G04 #@! TO.N,/ESP8266-12E/GPIO16*
X192210000Y-114250000D03*
G04 #@! TO.P,J5,4*
G04 #@! TO.N,/ESP8266-12E/GPIO4*
X192210000Y-111710000D03*
G04 #@! TO.P,J5,5*
G04 #@! TO.N,/ESP8266-12E/GPIO15*
X189670000Y-114250000D03*
G04 #@! TO.P,J5,6*
G04 #@! TO.N,/ESP8266-12E/GPIO5*
X189670000Y-111710000D03*
G04 #@! TO.P,J5,7*
G04 #@! TO.N,/ESP8266-12E/GPIO14*
X187130000Y-114250000D03*
G04 #@! TO.P,J5,8*
G04 #@! TO.N,/ESP8266-12E/GPIO9*
X187130000Y-111710000D03*
G04 #@! TO.P,J5,9*
G04 #@! TO.N,/ESP8266-12E/GPIO13*
X184590000Y-114250000D03*
G04 #@! TO.P,J5,10*
G04 #@! TO.N,/ESP8266-12E/GPIO10*
X184590000Y-111710000D03*
G04 #@! TO.P,J5,11*
G04 #@! TO.N,N/C*
X182050000Y-114250000D03*
G04 #@! TO.P,J5,12*
G04 #@! TO.N,/ESP8266-12E/GPIO12*
X182050000Y-111710000D03*
G04 #@! TD*
D12*
G04 #@! TO.N,GND*
X133660000Y-122670000D03*
X137640000Y-121880000D03*
X135260000Y-123470000D03*
X140840000Y-123490000D03*
X140830000Y-125880000D03*
X136840000Y-125870000D03*
X134470000Y-127450000D03*
X139240000Y-128280000D03*
X136810000Y-129080000D03*
X131590000Y-131030000D03*
X134450000Y-124300000D03*
X174441935Y-120078065D03*
X174280000Y-112710000D03*
X167590000Y-121520000D03*
X171670000Y-125470000D03*
X184410000Y-125470000D03*
X131448601Y-123090901D03*
X129100000Y-123080000D03*
X125770000Y-135210000D03*
X129130000Y-129840000D03*
X139260000Y-135370000D03*
X125520000Y-132070000D03*
X157680000Y-125880001D03*
X162350000Y-125830000D03*
X150310000Y-131330000D03*
X157900000Y-137970000D03*
X195780000Y-135520000D03*
X142650000Y-119390000D03*
X130830000Y-133850000D03*
X178690000Y-117240000D03*
G04 #@! TO.N,3.3V*
X180400000Y-116200000D03*
X171000000Y-126800000D03*
X180800000Y-120300000D03*
X165700000Y-116800000D03*
X162900000Y-120600000D03*
X136840000Y-121880000D03*
X135220000Y-122700000D03*
X140030000Y-123470000D03*
X135190000Y-128270000D03*
X137630000Y-126700000D03*
X138450000Y-129100000D03*
X169130000Y-127090000D03*
X169150000Y-128290000D03*
X169120000Y-129210000D03*
X118230000Y-123520000D03*
X118200000Y-130010000D03*
X125030000Y-127340000D03*
X156300000Y-115940000D03*
X158610000Y-118690000D03*
X134420000Y-125120000D03*
X132820000Y-124300000D03*
X128220000Y-125170000D03*
X133640000Y-127584291D03*
X131680000Y-129331452D03*
X130838201Y-119450000D03*
X142720000Y-123410000D03*
X154420000Y-120690000D03*
X140110000Y-126680001D03*
X143960000Y-126680000D03*
X145730000Y-128380000D03*
X151660000Y-134780000D03*
X167750000Y-131100000D03*
X128960000Y-135250000D03*
X126900000Y-134280000D03*
G04 #@! TO.N,Net-(C8-Pad2)*
X171750000Y-118250000D03*
X171000000Y-124500000D03*
G04 #@! TO.N,Net-(C10-Pad1)*
X169200000Y-119700000D03*
X172800000Y-123400000D03*
G04 #@! TO.N,Net-(C11-Pad2)*
X172250000Y-118250000D03*
X171500000Y-124500000D03*
G04 #@! TO.N,/ESP8266-12E/GPIO2*
X178500000Y-119500000D03*
G04 #@! TO.N,/ESP8266-12E/GPIO5*
X180400000Y-126900000D03*
G04 #@! TO.N,/ESP8266-12E/GPIO9*
X180900000Y-128000000D03*
G04 #@! TO.N,/ESP8266-12E/GPIO10*
X185900000Y-131600000D03*
G04 #@! TO.N,GPIO0*
X162200000Y-118600000D03*
X180500000Y-122800000D03*
G04 #@! TO.N,RESET*
X167600000Y-117800000D03*
X195200000Y-118400000D03*
G04 #@! TO.N,DTR*
X166300000Y-119400000D03*
X170800000Y-118500000D03*
G04 #@! TO.N,Net-(R1-Pad1)*
X135240000Y-121870000D03*
X120330000Y-127830000D03*
G04 #@! TO.N,Net-(R2-Pad2)*
X137630000Y-123480000D03*
X122360000Y-128100000D03*
X133640000Y-123470001D03*
G04 #@! TO.N,Net-(R3-Pad1)*
X134440000Y-121870000D03*
X119990000Y-124310000D03*
G04 #@! TO.N,Net-(R4-Pad2)*
X136840000Y-122690000D03*
X122340000Y-128590000D03*
G04 #@! TO.N,RESET_N*
X138820000Y-118800000D03*
X137740000Y-117940000D03*
X136400000Y-115950000D03*
X125650000Y-116380000D03*
X117060000Y-124230000D03*
G04 #@! TO.N,Net-(R9-Pad2)*
X182200000Y-130700000D03*
X189800000Y-120500000D03*
G04 #@! TO.N,Net-(U1-Pad4)*
X133630000Y-126720000D03*
X130570000Y-141372100D03*
G04 #@! TO.N,Net-(U2-Pad3)*
X136050000Y-125890000D03*
X131570000Y-126370000D03*
G04 #@! TO.N,SPI_MOSI*
X135230000Y-129890000D03*
X138400000Y-133240000D03*
X173630000Y-133180000D03*
X187060000Y-131870000D03*
G04 #@! TO.N,SPI_MISO*
X136020000Y-129900000D03*
X138860000Y-133619100D03*
X174120000Y-133620000D03*
X180950000Y-134050000D03*
G04 #@! TO.N,SPI_CLK*
X173920000Y-132610000D03*
X189910000Y-131530000D03*
G04 #@! TO.N,Net-(U4-Pad21)*
X171817785Y-118718345D03*
X176400000Y-128800000D03*
G04 #@! TO.N,Net-(U4-Pad22)*
X168500000Y-119800000D03*
X176400000Y-131000000D03*
G04 #@! TO.N,/D0*
X139240000Y-121890000D03*
G04 #@! TO.N,/E0*
X139240000Y-122680000D03*
G04 #@! TO.N,/D1*
X141560000Y-117170000D03*
G04 #@! TO.N,/E1*
X141750000Y-117780000D03*
G04 #@! TO.N,/D2*
X142080000Y-118300000D03*
G04 #@! TO.N,/D3*
X137630000Y-122690000D03*
G04 #@! TO.N,/E3*
X138440000Y-123510000D03*
G04 #@! TO.N,/D5*
X136820000Y-121110000D03*
G04 #@! TO.N,/E5*
X135240000Y-121090000D03*
G04 #@! TO.N,/D7*
X136840000Y-123510000D03*
G04 #@! TO.N,/E7*
X136050000Y-122690000D03*
X136500000Y-119430000D03*
G04 #@! TO.N,/D8*
X133640000Y-121090000D03*
G04 #@! TO.N,/E8*
X134450000Y-121080000D03*
G04 #@! TO.N,/E9*
X132830000Y-121100000D03*
G04 #@! TO.N,/D10*
X140040000Y-122690000D03*
G04 #@! TO.N,/E10*
X140850000Y-122700000D03*
G04 #@! TO.N,/D11*
X130080000Y-119540000D03*
X138440000Y-122680000D03*
G04 #@! TO.N,/E11*
X139250000Y-123490000D03*
G04 #@! TO.N,/D12*
X141560000Y-120150000D03*
G04 #@! TO.N,/E12*
X141630000Y-121070000D03*
G04 #@! TO.N,/D13*
X140040000Y-121890000D03*
X122530000Y-118630000D03*
G04 #@! TO.N,/E13*
X140840000Y-121880000D03*
X123250000Y-118180000D03*
G04 #@! TO.N,/D14*
X140030000Y-121080000D03*
G04 #@! TO.N,/E14*
X140850000Y-121080000D03*
G04 #@! TO.N,/D15*
X138460000Y-124290000D03*
G04 #@! TO.N,/E15*
X137630000Y-124280000D03*
G04 #@! TO.N,/D16*
X140030000Y-124300000D03*
X186730000Y-135790000D03*
G04 #@! TO.N,/E16*
X139240000Y-124290000D03*
X170110000Y-131840000D03*
G04 #@! TO.N,/D17*
X141630000Y-123480000D03*
G04 #@! TO.N,/E17*
X141640000Y-124300000D03*
X187350000Y-135490000D03*
G04 #@! TO.N,/D18*
X143543065Y-123913065D03*
G04 #@! TO.N,/E18*
X169350000Y-124810000D03*
X181970000Y-129990000D03*
G04 #@! TO.N,/D19*
X140020000Y-125090000D03*
G04 #@! TO.N,/E19*
X139240000Y-125090000D03*
G04 #@! TO.N,/D20*
X140040000Y-127480000D03*
G04 #@! TO.N,/E20*
X140010000Y-128260000D03*
X178580000Y-138530000D03*
G04 #@! TO.N,/D21*
X141630000Y-129070000D03*
X155040000Y-135060000D03*
G04 #@! TO.N,/E21*
X140820000Y-128270000D03*
G04 #@! TO.N,/D22*
X141640000Y-127480000D03*
X173620000Y-135130000D03*
G04 #@! TO.N,/E22*
X141630000Y-128270000D03*
G04 #@! TO.N,/D23*
X140040000Y-125910000D03*
X172650000Y-135440000D03*
G04 #@! TO.N,/E23*
X139230000Y-127470000D03*
G04 #@! TO.N,/D24*
X166160000Y-131851799D03*
G04 #@! TO.N,/E24*
X165630000Y-131851799D03*
G04 #@! TO.N,/D25*
X138430000Y-125890000D03*
G04 #@! TO.N,/E25*
X139230000Y-125900000D03*
G04 #@! TO.N,/D26*
X141630000Y-125080000D03*
X167810000Y-135260000D03*
G04 #@! TO.N,/E26*
X166810000Y-131790000D03*
G04 #@! TO.N,/D27*
X140030000Y-129080000D03*
G04 #@! TO.N,/E27*
X140040000Y-129880000D03*
X165580000Y-139210000D03*
G04 #@! TO.N,/D28*
X138440000Y-127490000D03*
G04 #@! TO.N,/E28*
X138440000Y-126690000D03*
G04 #@! TO.N,/D29*
X140820000Y-129070000D03*
G04 #@! TO.N,/E29*
X140820000Y-129860000D03*
G04 #@! TO.N,/D30*
X141630000Y-129870000D03*
G04 #@! TO.N,/E30*
X153840000Y-131490000D03*
G04 #@! TO.N,/D31*
X142080000Y-131570000D03*
X137640000Y-128280000D03*
G04 #@! TO.N,/E31*
X137640000Y-127490000D03*
G04 #@! TO.N,/D32*
X136840000Y-128290000D03*
G04 #@! TO.N,/E32*
X136840000Y-127480000D03*
G04 #@! TO.N,/D33*
X137620000Y-129850000D03*
G04 #@! TO.N,/E33*
X136800000Y-130750000D03*
G04 #@! TO.N,/D34*
X136040000Y-127470000D03*
G04 #@! TO.N,/E34*
X136040000Y-128280000D03*
X136110000Y-133070000D03*
G04 #@! TO.N,/D35*
X135240000Y-129100000D03*
G04 #@! TO.N,/E35*
X136040000Y-129080000D03*
X136370000Y-132400000D03*
G04 #@! TO.N,/D36*
X138390000Y-130790000D03*
G04 #@! TO.N,/E36*
X139900000Y-130830000D03*
G04 #@! TO.N,/D37*
X139240000Y-129880000D03*
X138720000Y-131200000D03*
G04 #@! TO.N,/E37*
X138440000Y-129880000D03*
G04 #@! TO.N,/D38*
X133640000Y-128290000D03*
G04 #@! TO.N,/E38*
X131840000Y-128320000D03*
G04 #@! TO.N,/E42*
X135250000Y-125890000D03*
G04 #@! TO.N,/D42*
X134440000Y-126680000D03*
G04 #@! TO.N,/E41*
X131920000Y-129820000D03*
G04 #@! TO.N,/D41*
X133650000Y-129870000D03*
G04 #@! TO.N,/E39*
X134410000Y-129870000D03*
G04 #@! TO.N,/D39*
X134430000Y-129090000D03*
G04 #@! TO.N,/TCK*
X133640000Y-125890000D03*
X158088601Y-115830000D03*
G04 #@! TO.N,/TDO*
X136820000Y-124310000D03*
G04 #@! TO.N,/TMS*
X161011399Y-115703601D03*
X135040000Y-119800000D03*
X131220000Y-120110000D03*
G04 #@! TO.N,/TDI*
X135240000Y-124290000D03*
X158910000Y-115830000D03*
G04 #@! TO.N,Net-(R7-Pad2)*
X136040000Y-123470000D03*
X146330000Y-117770000D03*
G04 #@! TD*
D13*
G04 #@! TO.N,GND*
X167439501Y-121670499D02*
X167590000Y-121520000D01*
X163280000Y-125830000D02*
X167439501Y-121670499D01*
X162350000Y-125830000D02*
X163280000Y-125830000D01*
X157900000Y-136873670D02*
X157900000Y-137970000D01*
X157167729Y-136141399D02*
X157900000Y-136873670D01*
X150310000Y-131330000D02*
X155121399Y-136141399D01*
X155121399Y-136141399D02*
X157167729Y-136141399D01*
G04 #@! TO.N,3.3V*
X132820000Y-124300000D02*
X131950000Y-125170000D01*
X131950000Y-125170000D02*
X128220000Y-125170000D01*
X133427161Y-127584291D02*
X131680000Y-129331452D01*
X133640000Y-127584291D02*
X133427161Y-127584291D01*
X159550000Y-115382081D02*
X159897919Y-115730000D01*
X159550000Y-114180000D02*
X159550000Y-115382081D01*
X130838201Y-119450000D02*
X129648201Y-120640000D01*
X129648201Y-120640000D02*
X129410000Y-120640000D01*
X142260899Y-123869101D02*
X142720000Y-123410000D01*
X140030000Y-123470000D02*
X140429101Y-123869101D01*
X140429101Y-123869101D02*
X142260899Y-123869101D01*
G04 #@! TO.N,Net-(C8-Pad2)*
X171750000Y-118250000D02*
X171000000Y-119000000D01*
X171000000Y-119000000D02*
X171000000Y-124500000D01*
G04 #@! TO.N,Net-(C11-Pad2)*
X172129101Y-123870899D02*
X171500000Y-124500000D01*
X172250000Y-118250000D02*
X172250000Y-123750000D01*
X172250000Y-123750000D02*
X172129101Y-123870899D01*
G04 #@! TO.N,/ESP8266-12E/GPIO2*
X183511399Y-114488601D02*
X178500000Y-119500000D01*
X184072271Y-113171399D02*
X183511399Y-113732271D01*
X183511399Y-113732271D02*
X183511399Y-114488601D01*
X194750000Y-111710000D02*
X193288601Y-113171399D01*
X193288601Y-113171399D02*
X184072271Y-113171399D01*
G04 #@! TO.N,/ESP8266-12E/GPIO5*
X181156330Y-126900000D02*
X180400000Y-126900000D01*
X193288601Y-114767729D02*
X181156330Y-126900000D01*
X193288601Y-113602465D02*
X193288601Y-114767729D01*
X194102465Y-112788601D02*
X193288601Y-113602465D01*
X189670000Y-111710000D02*
X190748601Y-110631399D01*
X195267729Y-112788601D02*
X194102465Y-112788601D01*
X195267729Y-110631399D02*
X195828601Y-111192271D01*
X190748601Y-110631399D02*
X195267729Y-110631399D01*
X195828601Y-112227729D02*
X195267729Y-112788601D01*
X195828601Y-111192271D02*
X195828601Y-112227729D01*
G04 #@! TO.N,/ESP8266-12E/GPIO9*
X178120899Y-125220899D02*
X180900000Y-128000000D01*
X178120899Y-116582771D02*
X178120899Y-125220899D01*
X181837081Y-112866589D02*
X178120899Y-116582771D01*
X187130000Y-111710000D02*
X185973411Y-112866589D01*
X185973411Y-112866589D02*
X181837081Y-112866589D01*
G04 #@! TO.N,DTR*
X166450499Y-119249501D02*
X169550499Y-119249501D01*
X166300000Y-119400000D02*
X166450499Y-119249501D01*
X169550499Y-119249501D02*
X170300000Y-118500000D01*
X170300000Y-118500000D02*
X170800000Y-118500000D01*
G04 #@! TO.N,Net-(R1-Pad1)*
X134580171Y-122290899D02*
X125189101Y-122290899D01*
X135240000Y-121870000D02*
X135001070Y-121870000D01*
X135001070Y-121870000D02*
X134580171Y-122290899D01*
X125100000Y-122380000D02*
X123650000Y-122380000D01*
X125189101Y-122290899D02*
X125100000Y-122380000D01*
X123650000Y-122380000D02*
X120700000Y-125330000D01*
X120700000Y-125330000D02*
X120700000Y-127460000D01*
X120700000Y-127460000D02*
X120330000Y-127830000D01*
G04 #@! TO.N,Net-(R2-Pad2)*
X126989999Y-123470001D02*
X122360000Y-128100000D01*
X133640000Y-123470001D02*
X126989999Y-123470001D01*
G04 #@! TO.N,Net-(R3-Pad1)*
X134227161Y-121870000D02*
X134197161Y-121900000D01*
X134440000Y-121870000D02*
X134227161Y-121870000D01*
X134197161Y-121900000D02*
X122400000Y-121900000D01*
X122400000Y-121900000D02*
X119990000Y-124310000D01*
G04 #@! TO.N,Net-(R4-Pad2)*
X127221940Y-123920899D02*
X122552839Y-128590000D01*
X135639101Y-123651969D02*
X135370171Y-123920899D01*
X135639101Y-123288031D02*
X135639101Y-123651969D01*
X122552839Y-128590000D02*
X122340000Y-128590000D01*
X135836233Y-123090899D02*
X135639101Y-123288031D01*
X135370171Y-123920899D02*
X127221940Y-123920899D01*
X136210171Y-123090899D02*
X135836233Y-123090899D01*
X136611070Y-122690000D02*
X136210171Y-123090899D01*
X136840000Y-122690000D02*
X136611070Y-122690000D01*
G04 #@! TO.N,RESET_N*
X138820000Y-118800000D02*
X138600000Y-118800000D01*
X138600000Y-118800000D02*
X137740000Y-117940000D01*
X117060000Y-124128930D02*
X117060000Y-124230000D01*
X125650000Y-116380000D02*
X118889101Y-123140899D01*
X118048031Y-123140899D02*
X117060000Y-124128930D01*
X118889101Y-123140899D02*
X118048031Y-123140899D01*
G04 #@! TO.N,Net-(R9-Pad2)*
X182200000Y-130700000D02*
X189800000Y-123100000D01*
X189800000Y-123100000D02*
X189800000Y-120500000D01*
G04 #@! TO.N,SPI_MOSI*
X173630000Y-133180000D02*
X185750000Y-133180000D01*
X185750000Y-133180000D02*
X187060000Y-131870000D01*
G04 #@! TO.N,SPI_MISO*
X174120000Y-133620000D02*
X174550000Y-134050000D01*
X174550000Y-134050000D02*
X180950000Y-134050000D01*
G04 #@! TO.N,SPI_CLK*
X173920000Y-132610000D02*
X176050000Y-132610000D01*
X176050000Y-132610000D02*
X177380000Y-131280000D01*
X177380000Y-131280000D02*
X177439101Y-131220899D01*
X189600899Y-131220899D02*
X189910000Y-131530000D01*
X177439101Y-131220899D02*
X189600899Y-131220899D01*
G04 #@! TO.N,/D0*
X139089501Y-122040499D02*
X139240000Y-121890000D01*
X138736701Y-122393299D02*
X139089501Y-122040499D01*
X138736701Y-122822417D02*
X138736701Y-122393299D01*
X138562417Y-122996701D02*
X138736701Y-122822417D01*
X144765699Y-122996701D02*
X138562417Y-122996701D01*
X152510000Y-115252400D02*
X144765699Y-122996701D01*
X152510000Y-114250000D02*
X152510000Y-115252400D01*
G04 #@! TO.N,/E0*
X139526701Y-122393299D02*
X139390499Y-122529501D01*
X139975819Y-122393299D02*
X139526701Y-122393299D01*
X140336701Y-122032417D02*
X139975819Y-122393299D01*
X140526701Y-121583299D02*
X140336701Y-121773299D01*
X140785819Y-121583299D02*
X140526701Y-121583299D01*
X141146701Y-121093299D02*
X141146701Y-121222417D01*
X141466701Y-120773299D02*
X141146701Y-121093299D01*
X139390499Y-122529501D02*
X139240000Y-122680000D01*
X141146701Y-121222417D02*
X140785819Y-121583299D01*
X144921079Y-120773299D02*
X141466701Y-120773299D01*
X140336701Y-121773299D02*
X140336701Y-122032417D01*
X150966201Y-113568333D02*
X150966201Y-114728177D01*
X150966201Y-114728177D02*
X144921079Y-120773299D01*
X151660001Y-112874533D02*
X150966201Y-113568333D01*
X151660001Y-112559999D02*
X151660001Y-112874533D01*
X152510000Y-111710000D02*
X151660001Y-112559999D01*
G04 #@! TO.N,/D1*
X150966201Y-111231823D02*
X150966201Y-113253799D01*
X150448177Y-110713799D02*
X150966201Y-111231823D01*
X150966201Y-113253799D02*
X150819999Y-113400001D01*
X146433799Y-111656201D02*
X146433799Y-111156201D01*
X145383799Y-112706201D02*
X146433799Y-111656201D01*
X144959421Y-112706201D02*
X145383799Y-112706201D01*
X150819999Y-113400001D02*
X149970000Y-114250000D01*
X146433799Y-111156201D02*
X146876201Y-110713799D01*
X143346201Y-114319421D02*
X144959421Y-112706201D01*
X146876201Y-110713799D02*
X150448177Y-110713799D01*
X143346201Y-115383799D02*
X143346201Y-114319421D01*
X141560000Y-117170000D02*
X143346201Y-115383799D01*
G04 #@! TO.N,/E1*
X146433799Y-114180579D02*
X146433799Y-113776201D01*
X141750000Y-117780000D02*
X142834378Y-117780000D01*
X142834378Y-117780000D02*
X146433799Y-114180579D01*
X149120001Y-112559999D02*
X149970000Y-111710000D01*
X148973799Y-112706201D02*
X149120001Y-112559999D01*
X147503799Y-112706201D02*
X148973799Y-112706201D01*
X146433799Y-113776201D02*
X147503799Y-112706201D01*
G04 #@! TO.N,/D2*
X143380000Y-118300000D02*
X147430000Y-114250000D01*
X142080000Y-118300000D02*
X143380000Y-118300000D01*
G04 #@! TO.N,/D5*
X136820000Y-117240000D02*
X139810000Y-114250000D01*
X136820000Y-121110000D02*
X136820000Y-117240000D01*
G04 #@! TO.N,/E5*
X135240000Y-121090000D02*
X135950000Y-120380000D01*
X138960001Y-112559999D02*
X139810000Y-111710000D01*
X138813799Y-112706201D02*
X138960001Y-112559999D01*
X136791823Y-112706201D02*
X138813799Y-112706201D01*
X135950000Y-113548024D02*
X136791823Y-112706201D01*
X135950000Y-120380000D02*
X135950000Y-113548024D01*
G04 #@! TO.N,/D7*
X135609101Y-124740899D02*
X135609101Y-124880899D01*
X136840000Y-123510000D02*
X135609101Y-124740899D01*
X135469101Y-124740899D02*
X132919101Y-124740899D01*
X135609101Y-124880899D02*
X135469101Y-124740899D01*
X135726201Y-113253799D02*
X135579999Y-113400001D01*
X135726201Y-110736201D02*
X135726201Y-113253799D01*
X135703799Y-110713799D02*
X135726201Y-110736201D01*
X113906201Y-110713799D02*
X135703799Y-110713799D01*
X113413799Y-111206201D02*
X113906201Y-110713799D01*
X135579999Y-113400001D02*
X134730000Y-114250000D01*
X113413799Y-121474869D02*
X113413799Y-111206201D01*
X124618031Y-128969101D02*
X120908031Y-128969101D01*
X120908031Y-128969101D02*
X113413799Y-121474869D01*
X128038031Y-125549101D02*
X124618031Y-128969101D01*
X132110899Y-125549101D02*
X128038031Y-125549101D01*
X132919101Y-124740899D02*
X132110899Y-125549101D01*
G04 #@! TO.N,/E7*
X136050000Y-122690000D02*
X136200499Y-122539501D01*
X136200499Y-119729501D02*
X136500000Y-119430000D01*
X136200499Y-122539501D02*
X136200499Y-119729501D01*
G04 #@! TO.N,/D8*
X133640000Y-121090000D02*
X131160000Y-118610000D01*
X131160000Y-115280000D02*
X132190000Y-114250000D01*
X131160000Y-118610000D02*
X131160000Y-115280000D01*
G04 #@! TO.N,/E8*
X134450000Y-120867161D02*
X133420000Y-119837161D01*
X134450000Y-121080000D02*
X134450000Y-120867161D01*
X133420000Y-112940000D02*
X132190000Y-111710000D01*
X133420000Y-119837161D02*
X133420000Y-112940000D01*
G04 #@! TO.N,/E9*
X130499999Y-112559999D02*
X129650000Y-111710000D01*
X130646201Y-112706201D02*
X130499999Y-112559999D01*
X130646201Y-118703362D02*
X130646201Y-112706201D01*
X132830000Y-120887161D02*
X130646201Y-118703362D01*
X132830000Y-121100000D02*
X132830000Y-120887161D01*
G04 #@! TO.N,/E16*
X193900001Y-136370001D02*
X194750000Y-137220000D01*
X191959101Y-134429101D02*
X193900001Y-136370001D01*
X172699101Y-134429101D02*
X191959101Y-134429101D01*
X170110000Y-131840000D02*
X172699101Y-134429101D01*
G04 #@! TO.N,/E18*
X178400899Y-126420899D02*
X181970000Y-129990000D01*
X176940499Y-124960499D02*
X178400899Y-126420899D01*
X169350000Y-124810000D02*
X169500499Y-124960499D01*
X169500499Y-124960499D02*
X176940499Y-124960499D01*
G04 #@! TO.N,/D21*
X150980882Y-129070000D02*
X154640000Y-132729118D01*
X141630000Y-129070000D02*
X150980882Y-129070000D01*
X154640000Y-132729118D02*
X154640000Y-134660000D01*
X154640000Y-134660000D02*
X155040000Y-135060000D01*
G04 #@! TO.N,/D22*
X178660001Y-138910001D02*
X179510000Y-139760000D01*
X178520883Y-138910001D02*
X178660001Y-138910001D01*
X177039421Y-138763799D02*
X178374681Y-138763799D01*
X175973799Y-137698177D02*
X177039421Y-138763799D01*
X175973799Y-137289421D02*
X175973799Y-137698177D01*
X173964877Y-135280499D02*
X175973799Y-137289421D01*
X173770499Y-135280499D02*
X173964877Y-135280499D01*
X178374681Y-138763799D02*
X178520883Y-138910001D01*
X173620000Y-135130000D02*
X173770499Y-135280499D01*
G04 #@! TO.N,/E24*
X173580001Y-136370001D02*
X174430000Y-137220000D01*
X172946701Y-135736701D02*
X173580001Y-136370001D01*
X169514902Y-135736701D02*
X172946701Y-135736701D01*
X165630000Y-131851799D02*
X169514902Y-135736701D01*
G04 #@! TO.N,/D25*
X171040001Y-138910001D02*
X171890000Y-139760000D01*
X170893799Y-138763799D02*
X171040001Y-138910001D01*
X169828177Y-136223799D02*
X170893799Y-137289421D01*
X168334681Y-136223799D02*
X169828177Y-136223799D01*
X170893799Y-137289421D02*
X170893799Y-138763799D01*
X158411781Y-126300899D02*
X168334681Y-136223799D01*
X138840899Y-126300899D02*
X158411781Y-126300899D01*
X138430000Y-125890000D02*
X138840899Y-126300899D01*
G04 #@! TO.N,/E25*
X172739999Y-138069999D02*
X171890000Y-137220000D01*
X172886201Y-138216201D02*
X172739999Y-138069999D01*
X163791823Y-140756201D02*
X172368177Y-140756201D01*
X163273799Y-140238177D02*
X163791823Y-140756201D01*
X162430587Y-138438611D02*
X163273799Y-139281823D01*
X156351996Y-138438611D02*
X162430587Y-138438611D01*
X153455795Y-135542410D02*
X156351996Y-138438611D01*
X148607875Y-135542410D02*
X153455795Y-135542410D01*
X144932166Y-131866701D02*
X148607875Y-135542410D01*
X138947583Y-131866701D02*
X144932166Y-131866701D01*
X163273799Y-139281823D02*
X163273799Y-140238177D01*
X138093299Y-131012417D02*
X138947583Y-131866701D01*
X137343299Y-128937583D02*
X138093299Y-129687583D01*
X137497583Y-127193299D02*
X137343299Y-127347583D01*
X172368177Y-140756201D02*
X172886201Y-140238177D01*
X137782417Y-127193299D02*
X137497583Y-127193299D01*
X138133299Y-126842417D02*
X137782417Y-127193299D01*
X172886201Y-140238177D02*
X172886201Y-138216201D01*
X138133299Y-125747583D02*
X138133299Y-126842417D01*
X138093299Y-129687583D02*
X138093299Y-131012417D01*
X138287583Y-125593299D02*
X138133299Y-125747583D01*
X137343299Y-127347583D02*
X137343299Y-128937583D01*
X138923299Y-125593299D02*
X138287583Y-125593299D01*
X139230000Y-125900000D02*
X138923299Y-125593299D01*
G04 #@! TO.N,/D26*
X141630000Y-125080000D02*
X157630000Y-125080000D01*
X157630000Y-125080000D02*
X167810000Y-135260000D01*
G04 #@! TO.N,/D28*
X160186201Y-136741823D02*
X158314378Y-134870000D01*
X160186201Y-137150579D02*
X160186201Y-136741823D01*
X161251823Y-138216201D02*
X160186201Y-137150579D01*
X164270000Y-139760000D02*
X162726201Y-138216201D01*
X162726201Y-138216201D02*
X161251823Y-138216201D01*
X151231079Y-127786701D02*
X138756701Y-127786701D01*
X158314378Y-134870000D02*
X151231079Y-127786701D01*
X138756701Y-127786701D02*
X138669559Y-127699559D01*
X138669559Y-127699559D02*
X138649559Y-127699559D01*
X138649559Y-127699559D02*
X138440000Y-127490000D01*
G04 #@! TO.N,/E28*
X163420001Y-136370001D02*
X164270000Y-137220000D01*
X154223299Y-127173299D02*
X163420001Y-136370001D01*
X138923299Y-127173299D02*
X154223299Y-127173299D01*
X138440000Y-126690000D02*
X138923299Y-127173299D01*
G04 #@! TO.N,/E30*
X159190000Y-136840000D02*
X159190000Y-137220000D01*
X153840000Y-131490000D02*
X159190000Y-136840000D01*
G04 #@! TO.N,/D31*
X141929501Y-131419501D02*
X142080000Y-131570000D01*
X140523299Y-130013299D02*
X141929501Y-131419501D01*
X140523299Y-129717583D02*
X140523299Y-130013299D01*
X140389015Y-129583299D02*
X140523299Y-129717583D01*
X138372229Y-129583299D02*
X140389015Y-129583299D01*
X137640000Y-128851070D02*
X138372229Y-129583299D01*
X137640000Y-128280000D02*
X137640000Y-128851070D01*
G04 #@! TO.N,/E31*
X138809101Y-128659101D02*
X137790499Y-127640499D01*
X140848219Y-128659101D02*
X138809101Y-128659101D01*
X141116701Y-128927583D02*
X140848219Y-128659101D01*
X141116701Y-129795819D02*
X141116701Y-128927583D01*
X137790499Y-127640499D02*
X137640000Y-127490000D01*
X141487583Y-130166701D02*
X141116701Y-129795819D01*
X143546701Y-130166701D02*
X141487583Y-130166701D01*
X148700000Y-135320000D02*
X143546701Y-130166701D01*
X153547919Y-135320000D02*
X148700000Y-135320000D01*
X155447919Y-137220000D02*
X153547919Y-135320000D01*
X156650000Y-137220000D02*
X155447919Y-137220000D01*
G04 #@! TO.N,/E33*
X136950499Y-130900499D02*
X136950499Y-130930499D01*
X136800000Y-130750000D02*
X136950499Y-130900499D01*
X136950499Y-130930499D02*
X140070000Y-134050000D01*
X146800000Y-134050000D02*
X149960000Y-137210000D01*
X140070000Y-134050000D02*
X146800000Y-134050000D01*
G04 #@! TO.N,/E34*
X147420000Y-137210000D02*
X146423799Y-136213799D01*
X139253799Y-136213799D02*
X136110000Y-133070000D01*
X146423799Y-136213799D02*
X139253799Y-136213799D01*
G04 #@! TO.N,/D35*
X138803799Y-140228177D02*
X139705622Y-141130000D01*
X138803799Y-137279421D02*
X138803799Y-140228177D01*
X135609101Y-134084723D02*
X138803799Y-137279421D01*
X135240000Y-129100000D02*
X135609101Y-129469101D01*
X135609101Y-129469101D02*
X135609101Y-134084723D01*
X143500000Y-141130000D02*
X144880000Y-139750000D01*
X139705622Y-141130000D02*
X143500000Y-141130000D01*
G04 #@! TO.N,/E35*
X136399101Y-132370899D02*
X136370000Y-132400000D01*
X136040000Y-129080000D02*
X136399101Y-129439101D01*
X136399101Y-129439101D02*
X136399101Y-132370899D01*
G04 #@! TO.N,/D37*
X139240000Y-130680000D02*
X138720000Y-131200000D01*
X139240000Y-129880000D02*
X139240000Y-130680000D01*
G04 #@! TO.N,/D38*
X136263799Y-136731823D02*
X136263799Y-138753799D01*
X136410001Y-138900001D02*
X137260000Y-139750000D01*
X136263799Y-138753799D02*
X136410001Y-138900001D01*
X133350000Y-133818024D02*
X136263799Y-136731823D01*
X133350000Y-128580000D02*
X133350000Y-133818024D01*
X133640000Y-128290000D02*
X133350000Y-128580000D01*
G04 #@! TO.N,/E38*
X131689501Y-128470499D02*
X131840000Y-128320000D01*
X131689501Y-128650499D02*
X131689501Y-128470499D01*
X131150000Y-129190000D02*
X131689501Y-128650499D01*
X131150000Y-132190000D02*
X131150000Y-129190000D01*
X131665123Y-132705123D02*
X131150000Y-132190000D01*
X131689501Y-132705123D02*
X131665123Y-132705123D01*
X137260000Y-137210000D02*
X138256201Y-138206201D01*
X137738177Y-140746201D02*
X136781823Y-140746201D01*
X138256201Y-140228177D02*
X137738177Y-140746201D01*
X136041389Y-137057011D02*
X131689501Y-132705123D01*
X136781823Y-140746201D02*
X136041389Y-140005767D01*
X138256201Y-138206201D02*
X138256201Y-140228177D01*
X136041389Y-140005767D02*
X136041389Y-137057011D01*
G04 #@! TO.N,/E42*
X135250000Y-126102839D02*
X135250000Y-125890000D01*
X134582417Y-126976701D02*
X135250000Y-126309118D01*
X134259829Y-127099101D02*
X134382229Y-126976701D01*
X132621781Y-127099101D02*
X134259829Y-127099101D01*
X127949999Y-131770883D02*
X132621781Y-127099101D01*
X135250000Y-126309118D02*
X135250000Y-126102839D01*
X134382229Y-126976701D02*
X134582417Y-126976701D01*
X127949999Y-136360001D02*
X127949999Y-131770883D01*
X127100000Y-137210000D02*
X127949999Y-136360001D01*
G04 #@! TO.N,/TDO*
X158700001Y-112489999D02*
X159550000Y-111640000D01*
X158471399Y-112718601D02*
X158700001Y-112489999D01*
X136820000Y-124310000D02*
X137189101Y-124679101D01*
X137189101Y-124679101D02*
X142240899Y-124679101D01*
X142240899Y-124679101D02*
X143618489Y-123301511D01*
X143618489Y-123301511D02*
X145569971Y-123301511D01*
X145569971Y-123301511D02*
X156152881Y-112718601D01*
X156152881Y-112718601D02*
X158471399Y-112718601D01*
G04 #@! TO.N,Net-(R7-Pad2)*
X138060899Y-122820171D02*
X138060899Y-122269101D01*
X137811969Y-123069101D02*
X138060899Y-122820171D01*
X136719829Y-123069101D02*
X137811969Y-123069101D01*
X136040000Y-123470000D02*
X136318930Y-123470000D01*
X136318930Y-123470000D02*
X136719829Y-123069101D01*
X138060899Y-122269101D02*
X141400000Y-118930000D01*
X141400000Y-118930000D02*
X145170000Y-118930000D01*
X145170000Y-118930000D02*
X146330000Y-117770000D01*
G04 #@! TD*
D14*
G04 #@! TO.N,3.3V*
G36*
X112960433Y-122027291D02*
X120355609Y-129422468D01*
X120395285Y-129481847D01*
X120454664Y-129521523D01*
X120454666Y-129521525D01*
X120489874Y-129545050D01*
X120630535Y-129639037D01*
X120837985Y-129680301D01*
X120837989Y-129680301D01*
X120908031Y-129694233D01*
X120978073Y-129680301D01*
X124547990Y-129680301D01*
X124618031Y-129694233D01*
X124688072Y-129680301D01*
X124688077Y-129680301D01*
X124895527Y-129639037D01*
X125130777Y-129481847D01*
X125170455Y-129422465D01*
X128332620Y-126260301D01*
X130784500Y-126260301D01*
X130784500Y-126526246D01*
X130904085Y-126814950D01*
X131125050Y-127035915D01*
X131413754Y-127155500D01*
X131559593Y-127155500D01*
X129550950Y-129164144D01*
X129286246Y-129054500D01*
X128973754Y-129054500D01*
X128685050Y-129174085D01*
X128464085Y-129395050D01*
X128344500Y-129683754D01*
X128344500Y-129996246D01*
X128454144Y-130260950D01*
X127496633Y-131218461D01*
X127437254Y-131258137D01*
X127397578Y-131317516D01*
X127397575Y-131317519D01*
X127280064Y-131493387D01*
X127224867Y-131770883D01*
X127238800Y-131840929D01*
X127238799Y-135725000D01*
X126953744Y-135725000D01*
X126520582Y-135811161D01*
X126029375Y-136139375D01*
X125816157Y-136458478D01*
X125755183Y-136328642D01*
X125326924Y-135938355D01*
X124916890Y-135768524D01*
X124687000Y-135889845D01*
X124687000Y-137083000D01*
X124707000Y-137083000D01*
X124707000Y-137337000D01*
X124687000Y-137337000D01*
X124687000Y-137357000D01*
X124433000Y-137357000D01*
X124433000Y-137337000D01*
X122147000Y-137337000D01*
X122147000Y-137357000D01*
X121893000Y-137357000D01*
X121893000Y-137337000D01*
X119607000Y-137337000D01*
X119607000Y-137357000D01*
X119353000Y-137357000D01*
X119353000Y-137337000D01*
X117067000Y-137337000D01*
X117067000Y-137357000D01*
X116813000Y-137357000D01*
X116813000Y-137337000D01*
X114527000Y-137337000D01*
X114527000Y-137357000D01*
X114273000Y-137357000D01*
X114273000Y-137337000D01*
X114253000Y-137337000D01*
X114253000Y-137083000D01*
X114273000Y-137083000D01*
X114273000Y-135889845D01*
X114527000Y-135889845D01*
X114527000Y-137083000D01*
X116813000Y-137083000D01*
X116813000Y-135889845D01*
X117067000Y-135889845D01*
X117067000Y-137083000D01*
X119353000Y-137083000D01*
X119353000Y-135889845D01*
X119607000Y-135889845D01*
X119607000Y-137083000D01*
X121893000Y-137083000D01*
X121893000Y-135889845D01*
X122147000Y-135889845D01*
X122147000Y-137083000D01*
X124433000Y-137083000D01*
X124433000Y-135889845D01*
X124203110Y-135768524D01*
X123793076Y-135938355D01*
X123364817Y-136328642D01*
X123290000Y-136487954D01*
X123215183Y-136328642D01*
X122786924Y-135938355D01*
X122376890Y-135768524D01*
X122147000Y-135889845D01*
X121893000Y-135889845D01*
X121663110Y-135768524D01*
X121253076Y-135938355D01*
X120824817Y-136328642D01*
X120750000Y-136487954D01*
X120675183Y-136328642D01*
X120246924Y-135938355D01*
X119836890Y-135768524D01*
X119607000Y-135889845D01*
X119353000Y-135889845D01*
X119123110Y-135768524D01*
X118713076Y-135938355D01*
X118284817Y-136328642D01*
X118210000Y-136487954D01*
X118135183Y-136328642D01*
X117706924Y-135938355D01*
X117296890Y-135768524D01*
X117067000Y-135889845D01*
X116813000Y-135889845D01*
X116583110Y-135768524D01*
X116173076Y-135938355D01*
X115744817Y-136328642D01*
X115670000Y-136487954D01*
X115595183Y-136328642D01*
X115166924Y-135938355D01*
X114756890Y-135768524D01*
X114527000Y-135889845D01*
X114273000Y-135889845D01*
X114043110Y-135768524D01*
X113633076Y-135938355D01*
X113204817Y-136328642D01*
X112960000Y-136849944D01*
X112960000Y-135053754D01*
X124984500Y-135053754D01*
X124984500Y-135366246D01*
X125104085Y-135654950D01*
X125325050Y-135875915D01*
X125613754Y-135995500D01*
X125926246Y-135995500D01*
X126214950Y-135875915D01*
X126435915Y-135654950D01*
X126555500Y-135366246D01*
X126555500Y-135053754D01*
X126435915Y-134765050D01*
X126214950Y-134544085D01*
X125926246Y-134424500D01*
X125613754Y-134424500D01*
X125325050Y-134544085D01*
X125104085Y-134765050D01*
X124984500Y-135053754D01*
X112960000Y-135053754D01*
X112960000Y-131913754D01*
X124734500Y-131913754D01*
X124734500Y-132226246D01*
X124854085Y-132514950D01*
X125075050Y-132735915D01*
X125363754Y-132855500D01*
X125676246Y-132855500D01*
X125964950Y-132735915D01*
X126185915Y-132514950D01*
X126305500Y-132226246D01*
X126305500Y-131913754D01*
X126185915Y-131625050D01*
X125964950Y-131404085D01*
X125676246Y-131284500D01*
X125363754Y-131284500D01*
X125075050Y-131404085D01*
X124854085Y-131625050D01*
X124734500Y-131913754D01*
X112960000Y-131913754D01*
X112960000Y-122027002D01*
X112960433Y-122027291D01*
X112960433Y-122027291D01*
G37*
X112960433Y-122027291D02*
X120355609Y-129422468D01*
X120395285Y-129481847D01*
X120454664Y-129521523D01*
X120454666Y-129521525D01*
X120489874Y-129545050D01*
X120630535Y-129639037D01*
X120837985Y-129680301D01*
X120837989Y-129680301D01*
X120908031Y-129694233D01*
X120978073Y-129680301D01*
X124547990Y-129680301D01*
X124618031Y-129694233D01*
X124688072Y-129680301D01*
X124688077Y-129680301D01*
X124895527Y-129639037D01*
X125130777Y-129481847D01*
X125170455Y-129422465D01*
X128332620Y-126260301D01*
X130784500Y-126260301D01*
X130784500Y-126526246D01*
X130904085Y-126814950D01*
X131125050Y-127035915D01*
X131413754Y-127155500D01*
X131559593Y-127155500D01*
X129550950Y-129164144D01*
X129286246Y-129054500D01*
X128973754Y-129054500D01*
X128685050Y-129174085D01*
X128464085Y-129395050D01*
X128344500Y-129683754D01*
X128344500Y-129996246D01*
X128454144Y-130260950D01*
X127496633Y-131218461D01*
X127437254Y-131258137D01*
X127397578Y-131317516D01*
X127397575Y-131317519D01*
X127280064Y-131493387D01*
X127224867Y-131770883D01*
X127238800Y-131840929D01*
X127238799Y-135725000D01*
X126953744Y-135725000D01*
X126520582Y-135811161D01*
X126029375Y-136139375D01*
X125816157Y-136458478D01*
X125755183Y-136328642D01*
X125326924Y-135938355D01*
X124916890Y-135768524D01*
X124687000Y-135889845D01*
X124687000Y-137083000D01*
X124707000Y-137083000D01*
X124707000Y-137337000D01*
X124687000Y-137337000D01*
X124687000Y-137357000D01*
X124433000Y-137357000D01*
X124433000Y-137337000D01*
X122147000Y-137337000D01*
X122147000Y-137357000D01*
X121893000Y-137357000D01*
X121893000Y-137337000D01*
X119607000Y-137337000D01*
X119607000Y-137357000D01*
X119353000Y-137357000D01*
X119353000Y-137337000D01*
X117067000Y-137337000D01*
X117067000Y-137357000D01*
X116813000Y-137357000D01*
X116813000Y-137337000D01*
X114527000Y-137337000D01*
X114527000Y-137357000D01*
X114273000Y-137357000D01*
X114273000Y-137337000D01*
X114253000Y-137337000D01*
X114253000Y-137083000D01*
X114273000Y-137083000D01*
X114273000Y-135889845D01*
X114527000Y-135889845D01*
X114527000Y-137083000D01*
X116813000Y-137083000D01*
X116813000Y-135889845D01*
X117067000Y-135889845D01*
X117067000Y-137083000D01*
X119353000Y-137083000D01*
X119353000Y-135889845D01*
X119607000Y-135889845D01*
X119607000Y-137083000D01*
X121893000Y-137083000D01*
X121893000Y-135889845D01*
X122147000Y-135889845D01*
X122147000Y-137083000D01*
X124433000Y-137083000D01*
X124433000Y-135889845D01*
X124203110Y-135768524D01*
X123793076Y-135938355D01*
X123364817Y-136328642D01*
X123290000Y-136487954D01*
X123215183Y-136328642D01*
X122786924Y-135938355D01*
X122376890Y-135768524D01*
X122147000Y-135889845D01*
X121893000Y-135889845D01*
X121663110Y-135768524D01*
X121253076Y-135938355D01*
X120824817Y-136328642D01*
X120750000Y-136487954D01*
X120675183Y-136328642D01*
X120246924Y-135938355D01*
X119836890Y-135768524D01*
X119607000Y-135889845D01*
X119353000Y-135889845D01*
X119123110Y-135768524D01*
X118713076Y-135938355D01*
X118284817Y-136328642D01*
X118210000Y-136487954D01*
X118135183Y-136328642D01*
X117706924Y-135938355D01*
X117296890Y-135768524D01*
X117067000Y-135889845D01*
X116813000Y-135889845D01*
X116583110Y-135768524D01*
X116173076Y-135938355D01*
X115744817Y-136328642D01*
X115670000Y-136487954D01*
X115595183Y-136328642D01*
X115166924Y-135938355D01*
X114756890Y-135768524D01*
X114527000Y-135889845D01*
X114273000Y-135889845D01*
X114043110Y-135768524D01*
X113633076Y-135938355D01*
X113204817Y-136328642D01*
X112960000Y-136849944D01*
X112960000Y-135053754D01*
X124984500Y-135053754D01*
X124984500Y-135366246D01*
X125104085Y-135654950D01*
X125325050Y-135875915D01*
X125613754Y-135995500D01*
X125926246Y-135995500D01*
X126214950Y-135875915D01*
X126435915Y-135654950D01*
X126555500Y-135366246D01*
X126555500Y-135053754D01*
X126435915Y-134765050D01*
X126214950Y-134544085D01*
X125926246Y-134424500D01*
X125613754Y-134424500D01*
X125325050Y-134544085D01*
X125104085Y-134765050D01*
X124984500Y-135053754D01*
X112960000Y-135053754D01*
X112960000Y-131913754D01*
X124734500Y-131913754D01*
X124734500Y-132226246D01*
X124854085Y-132514950D01*
X125075050Y-132735915D01*
X125363754Y-132855500D01*
X125676246Y-132855500D01*
X125964950Y-132735915D01*
X126185915Y-132514950D01*
X126305500Y-132226246D01*
X126305500Y-131913754D01*
X126185915Y-131625050D01*
X125964950Y-131404085D01*
X125676246Y-131284500D01*
X125363754Y-131284500D01*
X125075050Y-131404085D01*
X124854085Y-131625050D01*
X124734500Y-131913754D01*
X112960000Y-131913754D01*
X112960000Y-122027002D01*
X112960433Y-122027291D01*
G36*
X130438800Y-132119958D02*
X130424868Y-132190000D01*
X130438800Y-132260041D01*
X130438800Y-132260045D01*
X130480064Y-132467495D01*
X130520267Y-132527663D01*
X130597576Y-132643364D01*
X130597578Y-132643366D01*
X130637254Y-132702745D01*
X130696633Y-132742422D01*
X131041668Y-133087456D01*
X130986246Y-133064500D01*
X130673754Y-133064500D01*
X130385050Y-133184085D01*
X130164085Y-133405050D01*
X130044500Y-133693754D01*
X130044500Y-134006246D01*
X130164085Y-134294950D01*
X130385050Y-134515915D01*
X130673754Y-134635500D01*
X130986246Y-134635500D01*
X131274950Y-134515915D01*
X131495915Y-134294950D01*
X131615500Y-134006246D01*
X131615500Y-133693754D01*
X131575305Y-133596715D01*
X133930274Y-135951684D01*
X133649375Y-136139375D01*
X133450000Y-136437761D01*
X133250625Y-136139375D01*
X132759418Y-135811161D01*
X132326256Y-135725000D01*
X132033744Y-135725000D01*
X131600582Y-135811161D01*
X131109375Y-136139375D01*
X130910000Y-136437761D01*
X130710625Y-136139375D01*
X130219418Y-135811161D01*
X129786256Y-135725000D01*
X129493744Y-135725000D01*
X129060582Y-135811161D01*
X128661199Y-136078020D01*
X128661199Y-132065471D01*
X130438801Y-130287870D01*
X130438800Y-132119958D01*
X130438800Y-132119958D01*
G37*
X130438800Y-132119958D02*
X130424868Y-132190000D01*
X130438800Y-132260041D01*
X130438800Y-132260045D01*
X130480064Y-132467495D01*
X130520267Y-132527663D01*
X130597576Y-132643364D01*
X130597578Y-132643366D01*
X130637254Y-132702745D01*
X130696633Y-132742422D01*
X131041668Y-133087456D01*
X130986246Y-133064500D01*
X130673754Y-133064500D01*
X130385050Y-133184085D01*
X130164085Y-133405050D01*
X130044500Y-133693754D01*
X130044500Y-134006246D01*
X130164085Y-134294950D01*
X130385050Y-134515915D01*
X130673754Y-134635500D01*
X130986246Y-134635500D01*
X131274950Y-134515915D01*
X131495915Y-134294950D01*
X131615500Y-134006246D01*
X131615500Y-133693754D01*
X131575305Y-133596715D01*
X133930274Y-135951684D01*
X133649375Y-136139375D01*
X133450000Y-136437761D01*
X133250625Y-136139375D01*
X132759418Y-135811161D01*
X132326256Y-135725000D01*
X132033744Y-135725000D01*
X131600582Y-135811161D01*
X131109375Y-136139375D01*
X130910000Y-136437761D01*
X130710625Y-136139375D01*
X130219418Y-135811161D01*
X129786256Y-135725000D01*
X129493744Y-135725000D01*
X129060582Y-135811161D01*
X128661199Y-136078020D01*
X128661199Y-132065471D01*
X130438801Y-130287870D01*
X130438800Y-132119958D01*
G36*
X180979375Y-110639375D02*
X180651161Y-111130582D01*
X180535908Y-111710000D01*
X180651161Y-112289418D01*
X180954494Y-112743387D01*
X177667533Y-116030349D01*
X177608153Y-116070026D01*
X177568477Y-116129405D01*
X177568475Y-116129407D01*
X177491166Y-116245108D01*
X177450963Y-116305276D01*
X177409699Y-116512726D01*
X177409699Y-116512730D01*
X177395767Y-116582771D01*
X177409699Y-116652812D01*
X177409700Y-124418657D01*
X177217995Y-124290563D01*
X177010545Y-124249299D01*
X177010540Y-124249299D01*
X176940499Y-124235367D01*
X176870458Y-124249299D01*
X172771731Y-124249299D01*
X172814360Y-124185500D01*
X172956246Y-124185500D01*
X173244950Y-124065915D01*
X173465915Y-123844950D01*
X173585500Y-123556246D01*
X173585500Y-123243754D01*
X173465915Y-122955050D01*
X173244950Y-122734085D01*
X172961200Y-122616552D01*
X172961200Y-119921819D01*
X173656435Y-119921819D01*
X173656435Y-120234311D01*
X173776020Y-120523015D01*
X173996985Y-120743980D01*
X174285689Y-120863565D01*
X174598181Y-120863565D01*
X174886885Y-120743980D01*
X175107850Y-120523015D01*
X175227435Y-120234311D01*
X175227435Y-119921819D01*
X175107850Y-119633115D01*
X174886885Y-119412150D01*
X174598181Y-119292565D01*
X174285689Y-119292565D01*
X173996985Y-119412150D01*
X173776020Y-119633115D01*
X173656435Y-119921819D01*
X172961200Y-119921819D01*
X172961200Y-118585622D01*
X173035500Y-118406246D01*
X173035500Y-118093754D01*
X172915915Y-117805050D01*
X172694950Y-117584085D01*
X172406246Y-117464500D01*
X172093754Y-117464500D01*
X172000000Y-117503334D01*
X171906246Y-117464500D01*
X171593754Y-117464500D01*
X171305050Y-117584085D01*
X171110670Y-117778465D01*
X170956246Y-117714500D01*
X170643754Y-117714500D01*
X170464378Y-117788800D01*
X170370041Y-117788800D01*
X170299999Y-117774868D01*
X170229957Y-117788800D01*
X170229954Y-117788800D01*
X170022504Y-117830064D01*
X170022503Y-117830065D01*
X170022502Y-117830065D01*
X169846635Y-117947576D01*
X169846633Y-117947578D01*
X169787254Y-117987254D01*
X169747578Y-118046633D01*
X169255911Y-118538301D01*
X167870195Y-118538301D01*
X168044950Y-118465915D01*
X168265915Y-118244950D01*
X168385500Y-117956246D01*
X168385500Y-117643754D01*
X168265915Y-117355050D01*
X168044950Y-117134085D01*
X167756246Y-117014500D01*
X167443754Y-117014500D01*
X167155050Y-117134085D01*
X166934085Y-117355050D01*
X166814500Y-117643754D01*
X166814500Y-117956246D01*
X166934085Y-118244950D01*
X167155050Y-118465915D01*
X167329805Y-118538301D01*
X166520541Y-118538301D01*
X166450499Y-118524369D01*
X166380458Y-118538301D01*
X166380453Y-118538301D01*
X166173003Y-118579565D01*
X166083151Y-118639603D01*
X165855050Y-118734085D01*
X165634085Y-118955050D01*
X165514500Y-119243754D01*
X165514500Y-119556246D01*
X165634085Y-119844950D01*
X165855050Y-120065915D01*
X166143754Y-120185500D01*
X166456246Y-120185500D01*
X166744950Y-120065915D01*
X166850164Y-119960701D01*
X167716345Y-119960701D01*
X167834085Y-120244950D01*
X168055050Y-120465915D01*
X168343754Y-120585500D01*
X168656246Y-120585500D01*
X168944950Y-120465915D01*
X168960040Y-120450825D01*
X169043754Y-120485500D01*
X169356246Y-120485500D01*
X169644950Y-120365915D01*
X169865915Y-120144950D01*
X169985500Y-119856246D01*
X169985500Y-119814195D01*
X170063245Y-119762247D01*
X170102923Y-119702865D01*
X170288800Y-119516988D01*
X170288801Y-124164376D01*
X170253625Y-124249299D01*
X169900164Y-124249299D01*
X169794950Y-124144085D01*
X169506246Y-124024500D01*
X169193754Y-124024500D01*
X168905050Y-124144085D01*
X168684085Y-124365050D01*
X168564500Y-124653754D01*
X168564500Y-124966246D01*
X168684085Y-125254950D01*
X168905050Y-125475915D01*
X169133151Y-125570397D01*
X169223003Y-125630435D01*
X169430453Y-125671699D01*
X169430458Y-125671699D01*
X169500499Y-125685631D01*
X169570541Y-125671699D01*
X170903327Y-125671699D01*
X171004085Y-125914950D01*
X171225050Y-126135915D01*
X171513754Y-126255500D01*
X171826246Y-126255500D01*
X172114950Y-126135915D01*
X172335915Y-125914950D01*
X172436673Y-125671699D01*
X176645911Y-125671699D01*
X177947534Y-126973323D01*
X177947537Y-126973325D01*
X181229785Y-130255574D01*
X181304085Y-130434950D01*
X181378834Y-130509699D01*
X177509142Y-130509699D01*
X177439100Y-130495767D01*
X177369059Y-130509699D01*
X177369055Y-130509699D01*
X177161605Y-130550963D01*
X177085332Y-130601927D01*
X177065915Y-130555050D01*
X176844950Y-130334085D01*
X176556246Y-130214500D01*
X176243754Y-130214500D01*
X175955050Y-130334085D01*
X175734085Y-130555050D01*
X175614500Y-130843754D01*
X175614500Y-131156246D01*
X175734085Y-131444950D01*
X175955050Y-131665915D01*
X175978559Y-131675653D01*
X175755412Y-131898800D01*
X174255622Y-131898800D01*
X174076246Y-131824500D01*
X173763754Y-131824500D01*
X173475050Y-131944085D01*
X173254085Y-132165050D01*
X173134500Y-132453754D01*
X173134500Y-132564635D01*
X172964085Y-132735050D01*
X172844500Y-133023754D01*
X172844500Y-133336246D01*
X172964085Y-133624950D01*
X173057036Y-133717901D01*
X172993690Y-133717901D01*
X170850215Y-131574427D01*
X170775915Y-131395050D01*
X170554950Y-131174085D01*
X170266246Y-131054500D01*
X169953754Y-131054500D01*
X169665050Y-131174085D01*
X169444085Y-131395050D01*
X169324500Y-131683754D01*
X169324500Y-131996246D01*
X169444085Y-132284950D01*
X169665050Y-132505915D01*
X169844427Y-132580215D01*
X172121673Y-134857462D01*
X171984085Y-134995050D01*
X171971472Y-135025501D01*
X169809491Y-135025501D01*
X167244311Y-132460322D01*
X167254950Y-132455915D01*
X167475915Y-132234950D01*
X167595500Y-131946246D01*
X167595500Y-131633754D01*
X167475915Y-131345050D01*
X167254950Y-131124085D01*
X166966246Y-131004500D01*
X166653754Y-131004500D01*
X166410402Y-131105300D01*
X166316246Y-131066299D01*
X166003754Y-131066299D01*
X165895000Y-131111346D01*
X165786246Y-131066299D01*
X165473754Y-131066299D01*
X165185050Y-131185884D01*
X164964085Y-131406849D01*
X164963661Y-131407872D01*
X162199543Y-128643754D01*
X175614500Y-128643754D01*
X175614500Y-128956246D01*
X175734085Y-129244950D01*
X175955050Y-129465915D01*
X176243754Y-129585500D01*
X176556246Y-129585500D01*
X176844950Y-129465915D01*
X177065915Y-129244950D01*
X177185500Y-128956246D01*
X177185500Y-128643754D01*
X177065915Y-128355050D01*
X176844950Y-128134085D01*
X176556246Y-128014500D01*
X176243754Y-128014500D01*
X175955050Y-128134085D01*
X175734085Y-128355050D01*
X175614500Y-128643754D01*
X162199543Y-128643754D01*
X159229543Y-125673754D01*
X161564500Y-125673754D01*
X161564500Y-125986246D01*
X161684085Y-126274950D01*
X161905050Y-126495915D01*
X162193754Y-126615500D01*
X162506246Y-126615500D01*
X162685622Y-126541200D01*
X163209959Y-126541200D01*
X163280000Y-126555132D01*
X163350041Y-126541200D01*
X163350046Y-126541200D01*
X163557496Y-126499936D01*
X163792746Y-126342746D01*
X163832424Y-126283364D01*
X167855574Y-122260215D01*
X168034950Y-122185915D01*
X168255915Y-121964950D01*
X168375500Y-121676246D01*
X168375500Y-121363754D01*
X168255915Y-121075050D01*
X168034950Y-120854085D01*
X167746246Y-120734500D01*
X167433754Y-120734500D01*
X167145050Y-120854085D01*
X166924085Y-121075050D01*
X166849785Y-121254426D01*
X162985412Y-125118800D01*
X162685622Y-125118800D01*
X162506246Y-125044500D01*
X162193754Y-125044500D01*
X161905050Y-125164085D01*
X161684085Y-125385050D01*
X161564500Y-125673754D01*
X159229543Y-125673754D01*
X158182424Y-124626636D01*
X158142746Y-124567254D01*
X157907496Y-124410064D01*
X157700046Y-124368800D01*
X157700041Y-124368800D01*
X157630000Y-124354868D01*
X157559959Y-124368800D01*
X144198195Y-124368800D01*
X144208980Y-124358015D01*
X144328565Y-124069311D01*
X144328565Y-124012711D01*
X145499930Y-124012711D01*
X145569971Y-124026643D01*
X145640012Y-124012711D01*
X145640017Y-124012711D01*
X145847467Y-123971447D01*
X146082717Y-123814257D01*
X146122395Y-123754875D01*
X151433516Y-118443754D01*
X161414500Y-118443754D01*
X161414500Y-118756246D01*
X161534085Y-119044950D01*
X161755050Y-119265915D01*
X162043754Y-119385500D01*
X162356246Y-119385500D01*
X162644950Y-119265915D01*
X162865915Y-119044950D01*
X162985500Y-118756246D01*
X162985500Y-118443754D01*
X162865915Y-118155050D01*
X162644950Y-117934085D01*
X162356246Y-117814500D01*
X162043754Y-117814500D01*
X161755050Y-117934085D01*
X161534085Y-118155050D01*
X161414500Y-118443754D01*
X151433516Y-118443754D01*
X155529316Y-114347955D01*
X155611161Y-114759418D01*
X155939375Y-115250625D01*
X156430582Y-115578839D01*
X156863744Y-115665000D01*
X157156256Y-115665000D01*
X157320238Y-115632382D01*
X157303101Y-115673754D01*
X157303101Y-115986246D01*
X157422686Y-116274950D01*
X157643651Y-116495915D01*
X157932355Y-116615500D01*
X158244847Y-116615500D01*
X158499301Y-116510102D01*
X158753754Y-116615500D01*
X159066246Y-116615500D01*
X159354950Y-116495915D01*
X159575915Y-116274950D01*
X159695500Y-115986246D01*
X159695500Y-115673754D01*
X159677002Y-115629096D01*
X159677002Y-115500156D01*
X159906890Y-115621476D01*
X160254903Y-115477333D01*
X160225899Y-115547355D01*
X160225899Y-115859847D01*
X160345484Y-116148551D01*
X160566449Y-116369516D01*
X160855153Y-116489101D01*
X161167645Y-116489101D01*
X161456349Y-116369516D01*
X161677314Y-116148551D01*
X161796899Y-115859847D01*
X161796899Y-115635791D01*
X161943744Y-115665000D01*
X162236256Y-115665000D01*
X162669418Y-115578839D01*
X163160625Y-115250625D01*
X163360000Y-114952239D01*
X163559375Y-115250625D01*
X164050582Y-115578839D01*
X164483744Y-115665000D01*
X164776256Y-115665000D01*
X165209418Y-115578839D01*
X165700625Y-115250625D01*
X165900000Y-114952239D01*
X166099375Y-115250625D01*
X166590582Y-115578839D01*
X167023744Y-115665000D01*
X167316256Y-115665000D01*
X167749418Y-115578839D01*
X168240625Y-115250625D01*
X168568839Y-114759418D01*
X168684092Y-114180000D01*
X168568839Y-113600582D01*
X168240625Y-113109375D01*
X167942239Y-112910000D01*
X168240625Y-112710625D01*
X168345442Y-112553754D01*
X173494500Y-112553754D01*
X173494500Y-112866246D01*
X173614085Y-113154950D01*
X173835050Y-113375915D01*
X174123754Y-113495500D01*
X174436246Y-113495500D01*
X174724950Y-113375915D01*
X174945915Y-113154950D01*
X175065500Y-112866246D01*
X175065500Y-112553754D01*
X174945915Y-112265050D01*
X174724950Y-112044085D01*
X174436246Y-111924500D01*
X174123754Y-111924500D01*
X173835050Y-112044085D01*
X173614085Y-112265050D01*
X173494500Y-112553754D01*
X168345442Y-112553754D01*
X168568839Y-112219418D01*
X168684092Y-111640000D01*
X168568839Y-111060582D01*
X168240625Y-110569375D01*
X168076934Y-110460000D01*
X181247829Y-110460000D01*
X180979375Y-110639375D01*
X180979375Y-110639375D01*
G37*
X180979375Y-110639375D02*
X180651161Y-111130582D01*
X180535908Y-111710000D01*
X180651161Y-112289418D01*
X180954494Y-112743387D01*
X177667533Y-116030349D01*
X177608153Y-116070026D01*
X177568477Y-116129405D01*
X177568475Y-116129407D01*
X177491166Y-116245108D01*
X177450963Y-116305276D01*
X177409699Y-116512726D01*
X177409699Y-116512730D01*
X177395767Y-116582771D01*
X177409699Y-116652812D01*
X177409700Y-124418657D01*
X177217995Y-124290563D01*
X177010545Y-124249299D01*
X177010540Y-124249299D01*
X176940499Y-124235367D01*
X176870458Y-124249299D01*
X172771731Y-124249299D01*
X172814360Y-124185500D01*
X172956246Y-124185500D01*
X173244950Y-124065915D01*
X173465915Y-123844950D01*
X173585500Y-123556246D01*
X173585500Y-123243754D01*
X173465915Y-122955050D01*
X173244950Y-122734085D01*
X172961200Y-122616552D01*
X172961200Y-119921819D01*
X173656435Y-119921819D01*
X173656435Y-120234311D01*
X173776020Y-120523015D01*
X173996985Y-120743980D01*
X174285689Y-120863565D01*
X174598181Y-120863565D01*
X174886885Y-120743980D01*
X175107850Y-120523015D01*
X175227435Y-120234311D01*
X175227435Y-119921819D01*
X175107850Y-119633115D01*
X174886885Y-119412150D01*
X174598181Y-119292565D01*
X174285689Y-119292565D01*
X173996985Y-119412150D01*
X173776020Y-119633115D01*
X173656435Y-119921819D01*
X172961200Y-119921819D01*
X172961200Y-118585622D01*
X173035500Y-118406246D01*
X173035500Y-118093754D01*
X172915915Y-117805050D01*
X172694950Y-117584085D01*
X172406246Y-117464500D01*
X172093754Y-117464500D01*
X172000000Y-117503334D01*
X171906246Y-117464500D01*
X171593754Y-117464500D01*
X171305050Y-117584085D01*
X171110670Y-117778465D01*
X170956246Y-117714500D01*
X170643754Y-117714500D01*
X170464378Y-117788800D01*
X170370041Y-117788800D01*
X170299999Y-117774868D01*
X170229957Y-117788800D01*
X170229954Y-117788800D01*
X170022504Y-117830064D01*
X170022503Y-117830065D01*
X170022502Y-117830065D01*
X169846635Y-117947576D01*
X169846633Y-117947578D01*
X169787254Y-117987254D01*
X169747578Y-118046633D01*
X169255911Y-118538301D01*
X167870195Y-118538301D01*
X168044950Y-118465915D01*
X168265915Y-118244950D01*
X168385500Y-117956246D01*
X168385500Y-117643754D01*
X168265915Y-117355050D01*
X168044950Y-117134085D01*
X167756246Y-117014500D01*
X167443754Y-117014500D01*
X167155050Y-117134085D01*
X166934085Y-117355050D01*
X166814500Y-117643754D01*
X166814500Y-117956246D01*
X166934085Y-118244950D01*
X167155050Y-118465915D01*
X167329805Y-118538301D01*
X166520541Y-118538301D01*
X166450499Y-118524369D01*
X166380458Y-118538301D01*
X166380453Y-118538301D01*
X166173003Y-118579565D01*
X166083151Y-118639603D01*
X165855050Y-118734085D01*
X165634085Y-118955050D01*
X165514500Y-119243754D01*
X165514500Y-119556246D01*
X165634085Y-119844950D01*
X165855050Y-120065915D01*
X166143754Y-120185500D01*
X166456246Y-120185500D01*
X166744950Y-120065915D01*
X166850164Y-119960701D01*
X167716345Y-119960701D01*
X167834085Y-120244950D01*
X168055050Y-120465915D01*
X168343754Y-120585500D01*
X168656246Y-120585500D01*
X168944950Y-120465915D01*
X168960040Y-120450825D01*
X169043754Y-120485500D01*
X169356246Y-120485500D01*
X169644950Y-120365915D01*
X169865915Y-120144950D01*
X169985500Y-119856246D01*
X169985500Y-119814195D01*
X170063245Y-119762247D01*
X170102923Y-119702865D01*
X170288800Y-119516988D01*
X170288801Y-124164376D01*
X170253625Y-124249299D01*
X169900164Y-124249299D01*
X169794950Y-124144085D01*
X169506246Y-124024500D01*
X169193754Y-124024500D01*
X168905050Y-124144085D01*
X168684085Y-124365050D01*
X168564500Y-124653754D01*
X168564500Y-124966246D01*
X168684085Y-125254950D01*
X168905050Y-125475915D01*
X169133151Y-125570397D01*
X169223003Y-125630435D01*
X169430453Y-125671699D01*
X169430458Y-125671699D01*
X169500499Y-125685631D01*
X169570541Y-125671699D01*
X170903327Y-125671699D01*
X171004085Y-125914950D01*
X171225050Y-126135915D01*
X171513754Y-126255500D01*
X171826246Y-126255500D01*
X172114950Y-126135915D01*
X172335915Y-125914950D01*
X172436673Y-125671699D01*
X176645911Y-125671699D01*
X177947534Y-126973323D01*
X177947537Y-126973325D01*
X181229785Y-130255574D01*
X181304085Y-130434950D01*
X181378834Y-130509699D01*
X177509142Y-130509699D01*
X177439100Y-130495767D01*
X177369059Y-130509699D01*
X177369055Y-130509699D01*
X177161605Y-130550963D01*
X177085332Y-130601927D01*
X177065915Y-130555050D01*
X176844950Y-130334085D01*
X176556246Y-130214500D01*
X176243754Y-130214500D01*
X175955050Y-130334085D01*
X175734085Y-130555050D01*
X175614500Y-130843754D01*
X175614500Y-131156246D01*
X175734085Y-131444950D01*
X175955050Y-131665915D01*
X175978559Y-131675653D01*
X175755412Y-131898800D01*
X174255622Y-131898800D01*
X174076246Y-131824500D01*
X173763754Y-131824500D01*
X173475050Y-131944085D01*
X173254085Y-132165050D01*
X173134500Y-132453754D01*
X173134500Y-132564635D01*
X172964085Y-132735050D01*
X172844500Y-133023754D01*
X172844500Y-133336246D01*
X172964085Y-133624950D01*
X173057036Y-133717901D01*
X172993690Y-133717901D01*
X170850215Y-131574427D01*
X170775915Y-131395050D01*
X170554950Y-131174085D01*
X170266246Y-131054500D01*
X169953754Y-131054500D01*
X169665050Y-131174085D01*
X169444085Y-131395050D01*
X169324500Y-131683754D01*
X169324500Y-131996246D01*
X169444085Y-132284950D01*
X169665050Y-132505915D01*
X169844427Y-132580215D01*
X172121673Y-134857462D01*
X171984085Y-134995050D01*
X171971472Y-135025501D01*
X169809491Y-135025501D01*
X167244311Y-132460322D01*
X167254950Y-132455915D01*
X167475915Y-132234950D01*
X167595500Y-131946246D01*
X167595500Y-131633754D01*
X167475915Y-131345050D01*
X167254950Y-131124085D01*
X166966246Y-131004500D01*
X166653754Y-131004500D01*
X166410402Y-131105300D01*
X166316246Y-131066299D01*
X166003754Y-131066299D01*
X165895000Y-131111346D01*
X165786246Y-131066299D01*
X165473754Y-131066299D01*
X165185050Y-131185884D01*
X164964085Y-131406849D01*
X164963661Y-131407872D01*
X162199543Y-128643754D01*
X175614500Y-128643754D01*
X175614500Y-128956246D01*
X175734085Y-129244950D01*
X175955050Y-129465915D01*
X176243754Y-129585500D01*
X176556246Y-129585500D01*
X176844950Y-129465915D01*
X177065915Y-129244950D01*
X177185500Y-128956246D01*
X177185500Y-128643754D01*
X177065915Y-128355050D01*
X176844950Y-128134085D01*
X176556246Y-128014500D01*
X176243754Y-128014500D01*
X175955050Y-128134085D01*
X175734085Y-128355050D01*
X175614500Y-128643754D01*
X162199543Y-128643754D01*
X159229543Y-125673754D01*
X161564500Y-125673754D01*
X161564500Y-125986246D01*
X161684085Y-126274950D01*
X161905050Y-126495915D01*
X162193754Y-126615500D01*
X162506246Y-126615500D01*
X162685622Y-126541200D01*
X163209959Y-126541200D01*
X163280000Y-126555132D01*
X163350041Y-126541200D01*
X163350046Y-126541200D01*
X163557496Y-126499936D01*
X163792746Y-126342746D01*
X163832424Y-126283364D01*
X167855574Y-122260215D01*
X168034950Y-122185915D01*
X168255915Y-121964950D01*
X168375500Y-121676246D01*
X168375500Y-121363754D01*
X168255915Y-121075050D01*
X168034950Y-120854085D01*
X167746246Y-120734500D01*
X167433754Y-120734500D01*
X167145050Y-120854085D01*
X166924085Y-121075050D01*
X166849785Y-121254426D01*
X162985412Y-125118800D01*
X162685622Y-125118800D01*
X162506246Y-125044500D01*
X162193754Y-125044500D01*
X161905050Y-125164085D01*
X161684085Y-125385050D01*
X161564500Y-125673754D01*
X159229543Y-125673754D01*
X158182424Y-124626636D01*
X158142746Y-124567254D01*
X157907496Y-124410064D01*
X157700046Y-124368800D01*
X157700041Y-124368800D01*
X157630000Y-124354868D01*
X157559959Y-124368800D01*
X144198195Y-124368800D01*
X144208980Y-124358015D01*
X144328565Y-124069311D01*
X144328565Y-124012711D01*
X145499930Y-124012711D01*
X145569971Y-124026643D01*
X145640012Y-124012711D01*
X145640017Y-124012711D01*
X145847467Y-123971447D01*
X146082717Y-123814257D01*
X146122395Y-123754875D01*
X151433516Y-118443754D01*
X161414500Y-118443754D01*
X161414500Y-118756246D01*
X161534085Y-119044950D01*
X161755050Y-119265915D01*
X162043754Y-119385500D01*
X162356246Y-119385500D01*
X162644950Y-119265915D01*
X162865915Y-119044950D01*
X162985500Y-118756246D01*
X162985500Y-118443754D01*
X162865915Y-118155050D01*
X162644950Y-117934085D01*
X162356246Y-117814500D01*
X162043754Y-117814500D01*
X161755050Y-117934085D01*
X161534085Y-118155050D01*
X161414500Y-118443754D01*
X151433516Y-118443754D01*
X155529316Y-114347955D01*
X155611161Y-114759418D01*
X155939375Y-115250625D01*
X156430582Y-115578839D01*
X156863744Y-115665000D01*
X157156256Y-115665000D01*
X157320238Y-115632382D01*
X157303101Y-115673754D01*
X157303101Y-115986246D01*
X157422686Y-116274950D01*
X157643651Y-116495915D01*
X157932355Y-116615500D01*
X158244847Y-116615500D01*
X158499301Y-116510102D01*
X158753754Y-116615500D01*
X159066246Y-116615500D01*
X159354950Y-116495915D01*
X159575915Y-116274950D01*
X159695500Y-115986246D01*
X159695500Y-115673754D01*
X159677002Y-115629096D01*
X159677002Y-115500156D01*
X159906890Y-115621476D01*
X160254903Y-115477333D01*
X160225899Y-115547355D01*
X160225899Y-115859847D01*
X160345484Y-116148551D01*
X160566449Y-116369516D01*
X160855153Y-116489101D01*
X161167645Y-116489101D01*
X161456349Y-116369516D01*
X161677314Y-116148551D01*
X161796899Y-115859847D01*
X161796899Y-115635791D01*
X161943744Y-115665000D01*
X162236256Y-115665000D01*
X162669418Y-115578839D01*
X163160625Y-115250625D01*
X163360000Y-114952239D01*
X163559375Y-115250625D01*
X164050582Y-115578839D01*
X164483744Y-115665000D01*
X164776256Y-115665000D01*
X165209418Y-115578839D01*
X165700625Y-115250625D01*
X165900000Y-114952239D01*
X166099375Y-115250625D01*
X166590582Y-115578839D01*
X167023744Y-115665000D01*
X167316256Y-115665000D01*
X167749418Y-115578839D01*
X168240625Y-115250625D01*
X168568839Y-114759418D01*
X168684092Y-114180000D01*
X168568839Y-113600582D01*
X168240625Y-113109375D01*
X167942239Y-112910000D01*
X168240625Y-112710625D01*
X168345442Y-112553754D01*
X173494500Y-112553754D01*
X173494500Y-112866246D01*
X173614085Y-113154950D01*
X173835050Y-113375915D01*
X174123754Y-113495500D01*
X174436246Y-113495500D01*
X174724950Y-113375915D01*
X174945915Y-113154950D01*
X175065500Y-112866246D01*
X175065500Y-112553754D01*
X174945915Y-112265050D01*
X174724950Y-112044085D01*
X174436246Y-111924500D01*
X174123754Y-111924500D01*
X173835050Y-112044085D01*
X173614085Y-112265050D01*
X173494500Y-112553754D01*
X168345442Y-112553754D01*
X168568839Y-112219418D01*
X168684092Y-111640000D01*
X168568839Y-111060582D01*
X168240625Y-110569375D01*
X168076934Y-110460000D01*
X181247829Y-110460000D01*
X180979375Y-110639375D01*
G36*
X153928800Y-133023707D02*
X153928801Y-133943012D01*
X151050215Y-131064427D01*
X150975915Y-130885050D01*
X150754950Y-130664085D01*
X150466246Y-130544500D01*
X150153754Y-130544500D01*
X149865050Y-130664085D01*
X149644085Y-130885050D01*
X149524500Y-131173754D01*
X149524500Y-131486246D01*
X149644085Y-131774950D01*
X149865050Y-131995915D01*
X150044427Y-132070215D01*
X152583011Y-134608800D01*
X148994589Y-134608800D01*
X144166988Y-129781200D01*
X150686294Y-129781200D01*
X153928800Y-133023707D01*
X153928800Y-133023707D01*
G37*
X153928800Y-133023707D02*
X153928801Y-133943012D01*
X151050215Y-131064427D01*
X150975915Y-130885050D01*
X150754950Y-130664085D01*
X150466246Y-130544500D01*
X150153754Y-130544500D01*
X149865050Y-130664085D01*
X149644085Y-130885050D01*
X149524500Y-131173754D01*
X149524500Y-131486246D01*
X149644085Y-131774950D01*
X149865050Y-131995915D01*
X150044427Y-132070215D01*
X152583011Y-134608800D01*
X148994589Y-134608800D01*
X144166988Y-129781200D01*
X150686294Y-129781200D01*
X153928800Y-133023707D01*
G36*
X135254500Y-127626246D02*
X135357537Y-127875000D01*
X135254500Y-128123754D01*
X135254500Y-128314500D01*
X135083754Y-128314500D01*
X134847071Y-128412537D01*
X134586246Y-128304500D01*
X134425500Y-128304500D01*
X134425500Y-128235500D01*
X134626246Y-128235500D01*
X134914950Y-128115915D01*
X135135915Y-127894950D01*
X135254500Y-127608660D01*
X135254500Y-127626246D01*
X135254500Y-127626246D01*
G37*
X135254500Y-127626246D02*
X135357537Y-127875000D01*
X135254500Y-128123754D01*
X135254500Y-128314500D01*
X135083754Y-128314500D01*
X134847071Y-128412537D01*
X134586246Y-128304500D01*
X134425500Y-128304500D01*
X134425500Y-128235500D01*
X134626246Y-128235500D01*
X134914950Y-128115915D01*
X135135915Y-127894950D01*
X135254500Y-127608660D01*
X135254500Y-127626246D01*
G36*
X131816311Y-124837901D02*
X128108072Y-124837901D01*
X128038030Y-124823969D01*
X127967988Y-124837901D01*
X127967985Y-124837901D01*
X127760535Y-124879165D01*
X127760534Y-124879166D01*
X127760533Y-124879166D01*
X127584666Y-124996677D01*
X127584664Y-124996679D01*
X127525285Y-125036355D01*
X127485609Y-125095734D01*
X124323443Y-128257901D01*
X123890726Y-128257901D01*
X127516529Y-124632099D01*
X132022112Y-124632099D01*
X131816311Y-124837901D01*
X131816311Y-124837901D01*
G37*
X131816311Y-124837901D02*
X128108072Y-124837901D01*
X128038030Y-124823969D01*
X127967988Y-124837901D01*
X127967985Y-124837901D01*
X127760535Y-124879165D01*
X127760534Y-124879166D01*
X127760533Y-124879166D01*
X127584666Y-124996677D01*
X127584664Y-124996679D01*
X127525285Y-125036355D01*
X127485609Y-125095734D01*
X124323443Y-128257901D01*
X123890726Y-128257901D01*
X127516529Y-124632099D01*
X132022112Y-124632099D01*
X131816311Y-124837901D01*
G36*
X128579375Y-115320625D02*
X129070582Y-115648839D01*
X129503744Y-115735000D01*
X129796256Y-115735000D01*
X129935001Y-115707402D01*
X129935001Y-118633321D01*
X129921069Y-118703362D01*
X129931241Y-118754500D01*
X129923754Y-118754500D01*
X129635050Y-118874085D01*
X129414085Y-119095050D01*
X129294500Y-119383754D01*
X129294500Y-119696246D01*
X129414085Y-119984950D01*
X129635050Y-120205915D01*
X129923754Y-120325500D01*
X130236246Y-120325500D01*
X130434500Y-120243381D01*
X130434500Y-120266246D01*
X130554085Y-120554950D01*
X130775050Y-120775915D01*
X131063754Y-120895500D01*
X131376246Y-120895500D01*
X131664950Y-120775915D01*
X131688958Y-120751907D01*
X132044500Y-121107450D01*
X132044500Y-121188800D01*
X122470042Y-121188800D01*
X122400000Y-121174868D01*
X122329958Y-121188800D01*
X122329954Y-121188800D01*
X122122504Y-121230064D01*
X122122502Y-121230065D01*
X122122503Y-121230065D01*
X121946635Y-121347576D01*
X121946633Y-121347578D01*
X121887254Y-121387254D01*
X121847578Y-121446633D01*
X119724427Y-123569785D01*
X119545050Y-123644085D01*
X119324085Y-123865050D01*
X119204500Y-124153754D01*
X119204500Y-124466246D01*
X119324085Y-124754950D01*
X119545050Y-124975915D01*
X119833754Y-125095500D01*
X120021512Y-125095500D01*
X119988800Y-125259955D01*
X119988800Y-125259959D01*
X119974868Y-125330000D01*
X119988800Y-125400042D01*
X119988801Y-127044082D01*
X117672792Y-124728073D01*
X117725915Y-124674950D01*
X117845500Y-124386246D01*
X117845500Y-124349218D01*
X118342620Y-123852099D01*
X118819060Y-123852099D01*
X118889101Y-123866031D01*
X118959142Y-123852099D01*
X118959147Y-123852099D01*
X119166597Y-123810835D01*
X119401847Y-123653645D01*
X119441525Y-123594263D01*
X125915574Y-117120215D01*
X126094950Y-117045915D01*
X126315915Y-116824950D01*
X126435500Y-116536246D01*
X126435500Y-116223754D01*
X126315915Y-115935050D01*
X126094950Y-115714085D01*
X125806246Y-115594500D01*
X125493754Y-115594500D01*
X125205050Y-115714085D01*
X124984085Y-115935050D01*
X124909785Y-116114426D01*
X123564260Y-117459951D01*
X123406246Y-117394500D01*
X123093754Y-117394500D01*
X122805050Y-117514085D01*
X122584085Y-117735050D01*
X122538749Y-117844500D01*
X122373754Y-117844500D01*
X122085050Y-117964085D01*
X121864085Y-118185050D01*
X121744500Y-118473754D01*
X121744500Y-118786246D01*
X121864085Y-119074950D01*
X121906673Y-119117538D01*
X118594513Y-122429699D01*
X118118073Y-122429699D01*
X118048031Y-122415767D01*
X117977989Y-122429699D01*
X117977985Y-122429699D01*
X117770535Y-122470963D01*
X117710367Y-122511166D01*
X117594666Y-122588475D01*
X117594664Y-122588477D01*
X117535285Y-122628153D01*
X117495609Y-122687532D01*
X116621890Y-123561252D01*
X116615050Y-123564085D01*
X116594558Y-123584577D01*
X116555436Y-123610718D01*
X114124999Y-121180281D01*
X114124999Y-115707402D01*
X114263744Y-115735000D01*
X114556256Y-115735000D01*
X114989418Y-115648839D01*
X115480625Y-115320625D01*
X115680000Y-115022239D01*
X115879375Y-115320625D01*
X116370582Y-115648839D01*
X116803744Y-115735000D01*
X117096256Y-115735000D01*
X117529418Y-115648839D01*
X118020625Y-115320625D01*
X118220000Y-115022239D01*
X118419375Y-115320625D01*
X118910582Y-115648839D01*
X119343744Y-115735000D01*
X119636256Y-115735000D01*
X120069418Y-115648839D01*
X120560625Y-115320625D01*
X120760000Y-115022239D01*
X120959375Y-115320625D01*
X121450582Y-115648839D01*
X121883744Y-115735000D01*
X122176256Y-115735000D01*
X122609418Y-115648839D01*
X123100625Y-115320625D01*
X123300000Y-115022239D01*
X123499375Y-115320625D01*
X123990582Y-115648839D01*
X124423744Y-115735000D01*
X124716256Y-115735000D01*
X125149418Y-115648839D01*
X125640625Y-115320625D01*
X125840000Y-115022239D01*
X126039375Y-115320625D01*
X126530582Y-115648839D01*
X126963744Y-115735000D01*
X127256256Y-115735000D01*
X127689418Y-115648839D01*
X128180625Y-115320625D01*
X128380000Y-115022239D01*
X128579375Y-115320625D01*
X128579375Y-115320625D01*
G37*
X128579375Y-115320625D02*
X129070582Y-115648839D01*
X129503744Y-115735000D01*
X129796256Y-115735000D01*
X129935001Y-115707402D01*
X129935001Y-118633321D01*
X129921069Y-118703362D01*
X129931241Y-118754500D01*
X129923754Y-118754500D01*
X129635050Y-118874085D01*
X129414085Y-119095050D01*
X129294500Y-119383754D01*
X129294500Y-119696246D01*
X129414085Y-119984950D01*
X129635050Y-120205915D01*
X129923754Y-120325500D01*
X130236246Y-120325500D01*
X130434500Y-120243381D01*
X130434500Y-120266246D01*
X130554085Y-120554950D01*
X130775050Y-120775915D01*
X131063754Y-120895500D01*
X131376246Y-120895500D01*
X131664950Y-120775915D01*
X131688958Y-120751907D01*
X132044500Y-121107450D01*
X132044500Y-121188800D01*
X122470042Y-121188800D01*
X122400000Y-121174868D01*
X122329958Y-121188800D01*
X122329954Y-121188800D01*
X122122504Y-121230064D01*
X122122502Y-121230065D01*
X122122503Y-121230065D01*
X121946635Y-121347576D01*
X121946633Y-121347578D01*
X121887254Y-121387254D01*
X121847578Y-121446633D01*
X119724427Y-123569785D01*
X119545050Y-123644085D01*
X119324085Y-123865050D01*
X119204500Y-124153754D01*
X119204500Y-124466246D01*
X119324085Y-124754950D01*
X119545050Y-124975915D01*
X119833754Y-125095500D01*
X120021512Y-125095500D01*
X119988800Y-125259955D01*
X119988800Y-125259959D01*
X119974868Y-125330000D01*
X119988800Y-125400042D01*
X119988801Y-127044082D01*
X117672792Y-124728073D01*
X117725915Y-124674950D01*
X117845500Y-124386246D01*
X117845500Y-124349218D01*
X118342620Y-123852099D01*
X118819060Y-123852099D01*
X118889101Y-123866031D01*
X118959142Y-123852099D01*
X118959147Y-123852099D01*
X119166597Y-123810835D01*
X119401847Y-123653645D01*
X119441525Y-123594263D01*
X125915574Y-117120215D01*
X126094950Y-117045915D01*
X126315915Y-116824950D01*
X126435500Y-116536246D01*
X126435500Y-116223754D01*
X126315915Y-115935050D01*
X126094950Y-115714085D01*
X125806246Y-115594500D01*
X125493754Y-115594500D01*
X125205050Y-115714085D01*
X124984085Y-115935050D01*
X124909785Y-116114426D01*
X123564260Y-117459951D01*
X123406246Y-117394500D01*
X123093754Y-117394500D01*
X122805050Y-117514085D01*
X122584085Y-117735050D01*
X122538749Y-117844500D01*
X122373754Y-117844500D01*
X122085050Y-117964085D01*
X121864085Y-118185050D01*
X121744500Y-118473754D01*
X121744500Y-118786246D01*
X121864085Y-119074950D01*
X121906673Y-119117538D01*
X118594513Y-122429699D01*
X118118073Y-122429699D01*
X118048031Y-122415767D01*
X117977989Y-122429699D01*
X117977985Y-122429699D01*
X117770535Y-122470963D01*
X117710367Y-122511166D01*
X117594666Y-122588475D01*
X117594664Y-122588477D01*
X117535285Y-122628153D01*
X117495609Y-122687532D01*
X116621890Y-123561252D01*
X116615050Y-123564085D01*
X116594558Y-123584577D01*
X116555436Y-123610718D01*
X114124999Y-121180281D01*
X114124999Y-115707402D01*
X114263744Y-115735000D01*
X114556256Y-115735000D01*
X114989418Y-115648839D01*
X115480625Y-115320625D01*
X115680000Y-115022239D01*
X115879375Y-115320625D01*
X116370582Y-115648839D01*
X116803744Y-115735000D01*
X117096256Y-115735000D01*
X117529418Y-115648839D01*
X118020625Y-115320625D01*
X118220000Y-115022239D01*
X118419375Y-115320625D01*
X118910582Y-115648839D01*
X119343744Y-115735000D01*
X119636256Y-115735000D01*
X120069418Y-115648839D01*
X120560625Y-115320625D01*
X120760000Y-115022239D01*
X120959375Y-115320625D01*
X121450582Y-115648839D01*
X121883744Y-115735000D01*
X122176256Y-115735000D01*
X122609418Y-115648839D01*
X123100625Y-115320625D01*
X123300000Y-115022239D01*
X123499375Y-115320625D01*
X123990582Y-115648839D01*
X124423744Y-115735000D01*
X124716256Y-115735000D01*
X125149418Y-115648839D01*
X125640625Y-115320625D01*
X125840000Y-115022239D01*
X126039375Y-115320625D01*
X126530582Y-115648839D01*
X126963744Y-115735000D01*
X127256256Y-115735000D01*
X127689418Y-115648839D01*
X128180625Y-115320625D01*
X128380000Y-115022239D01*
X128579375Y-115320625D01*
G36*
X191139375Y-115320625D02*
X191493379Y-115557163D01*
X180861742Y-126188800D01*
X180735622Y-126188800D01*
X180556246Y-126114500D01*
X180243754Y-126114500D01*
X180085740Y-126179951D01*
X178832099Y-124926311D01*
X178832099Y-122643754D01*
X179714500Y-122643754D01*
X179714500Y-122956246D01*
X179834085Y-123244950D01*
X180055050Y-123465915D01*
X180343754Y-123585500D01*
X180656246Y-123585500D01*
X180944950Y-123465915D01*
X181165915Y-123244950D01*
X181285500Y-122956246D01*
X181285500Y-122643754D01*
X181165915Y-122355050D01*
X180944950Y-122134085D01*
X180656246Y-122014500D01*
X180343754Y-122014500D01*
X180055050Y-122134085D01*
X179834085Y-122355050D01*
X179714500Y-122643754D01*
X178832099Y-122643754D01*
X178832099Y-120212659D01*
X178944950Y-120165915D01*
X179165915Y-119944950D01*
X179240216Y-119765573D01*
X183618758Y-115387031D01*
X184010582Y-115648839D01*
X184443744Y-115735000D01*
X184736256Y-115735000D01*
X185169418Y-115648839D01*
X185660625Y-115320625D01*
X185860000Y-115022239D01*
X186059375Y-115320625D01*
X186550582Y-115648839D01*
X186983744Y-115735000D01*
X187276256Y-115735000D01*
X187709418Y-115648839D01*
X188200625Y-115320625D01*
X188400000Y-115022239D01*
X188599375Y-115320625D01*
X189090582Y-115648839D01*
X189523744Y-115735000D01*
X189816256Y-115735000D01*
X190249418Y-115648839D01*
X190740625Y-115320625D01*
X190940000Y-115022239D01*
X191139375Y-115320625D01*
X191139375Y-115320625D01*
G37*
X191139375Y-115320625D02*
X191493379Y-115557163D01*
X180861742Y-126188800D01*
X180735622Y-126188800D01*
X180556246Y-126114500D01*
X180243754Y-126114500D01*
X180085740Y-126179951D01*
X178832099Y-124926311D01*
X178832099Y-122643754D01*
X179714500Y-122643754D01*
X179714500Y-122956246D01*
X179834085Y-123244950D01*
X180055050Y-123465915D01*
X180343754Y-123585500D01*
X180656246Y-123585500D01*
X180944950Y-123465915D01*
X181165915Y-123244950D01*
X181285500Y-122956246D01*
X181285500Y-122643754D01*
X181165915Y-122355050D01*
X180944950Y-122134085D01*
X180656246Y-122014500D01*
X180343754Y-122014500D01*
X180055050Y-122134085D01*
X179834085Y-122355050D01*
X179714500Y-122643754D01*
X178832099Y-122643754D01*
X178832099Y-120212659D01*
X178944950Y-120165915D01*
X179165915Y-119944950D01*
X179240216Y-119765573D01*
X183618758Y-115387031D01*
X184010582Y-115648839D01*
X184443744Y-115735000D01*
X184736256Y-115735000D01*
X185169418Y-115648839D01*
X185660625Y-115320625D01*
X185860000Y-115022239D01*
X186059375Y-115320625D01*
X186550582Y-115648839D01*
X186983744Y-115735000D01*
X187276256Y-115735000D01*
X187709418Y-115648839D01*
X188200625Y-115320625D01*
X188400000Y-115022239D01*
X188599375Y-115320625D01*
X189090582Y-115648839D01*
X189523744Y-115735000D01*
X189816256Y-115735000D01*
X190249418Y-115648839D01*
X190740625Y-115320625D01*
X190940000Y-115022239D01*
X191139375Y-115320625D01*
G36*
X135264500Y-122656844D02*
X135236844Y-122684500D01*
X135192358Y-122684500D01*
X135221358Y-122655500D01*
X135264500Y-122655500D01*
X135264500Y-122656844D01*
X135264500Y-122656844D01*
G37*
X135264500Y-122656844D02*
X135236844Y-122684500D01*
X135192358Y-122684500D01*
X135221358Y-122655500D01*
X135264500Y-122655500D01*
X135264500Y-122656844D01*
G36*
X180979375Y-115320625D02*
X181395524Y-115598687D01*
X179388904Y-117605308D01*
X179475500Y-117396246D01*
X179475500Y-117083754D01*
X179355915Y-116795050D01*
X179135162Y-116574297D01*
X180742837Y-114966621D01*
X180979375Y-115320625D01*
X180979375Y-115320625D01*
G37*
X180979375Y-115320625D02*
X181395524Y-115598687D01*
X179388904Y-117605308D01*
X179475500Y-117396246D01*
X179475500Y-117083754D01*
X179355915Y-116795050D01*
X179135162Y-116574297D01*
X180742837Y-114966621D01*
X180979375Y-115320625D01*
G36*
X159677000Y-114053000D02*
X159697000Y-114053000D01*
X159697000Y-114307000D01*
X159677000Y-114307000D01*
X159677000Y-114327000D01*
X159423000Y-114327000D01*
X159423000Y-114307000D01*
X159403000Y-114307000D01*
X159403000Y-114053000D01*
X159423000Y-114053000D01*
X159423000Y-114033000D01*
X159677000Y-114033000D01*
X159677000Y-114053000D01*
X159677000Y-114053000D01*
G37*
X159677000Y-114053000D02*
X159697000Y-114053000D01*
X159697000Y-114307000D01*
X159677000Y-114307000D01*
X159677000Y-114327000D01*
X159423000Y-114327000D01*
X159423000Y-114307000D01*
X159403000Y-114307000D01*
X159403000Y-114053000D01*
X159423000Y-114053000D01*
X159423000Y-114033000D01*
X159677000Y-114033000D01*
X159677000Y-114053000D01*
G04 #@! TD*
M02*
