G04 #@! TF.GenerationSoftware,KiCad,Pcbnew,5.0.0-rc2-dev-unknown-6940f92~62~ubuntu16.04.1*
G04 #@! TF.CreationDate,2018-03-25T22:17:42+02:00*
G04 #@! TF.ProjectId,roboy_sno,726F626F795F736E6F2E6B696361645F,rev?*
G04 #@! TF.SameCoordinates,Original*
G04 #@! TF.FileFunction,Copper,L2,Inr,Signal*
G04 #@! TF.FilePolarity,Positive*
%FSLAX46Y46*%
G04 Gerber Fmt 4.6, Leading zero omitted, Abs format (unit mm)*
G04 Created by KiCad (PCBNEW 5.0.0-rc2-dev-unknown-6940f92~62~ubuntu16.04.1) date Sun Mar 25 22:17:42 2018*
%MOMM*%
%LPD*%
G01*
G04 APERTURE LIST*
%ADD10R,1.000000X1.000000*%
%ADD11O,1.000000X1.000000*%
%ADD12O,1.350000X1.350000*%
%ADD13R,1.350000X1.350000*%
%ADD14C,0.301000*%
%ADD15C,0.152400*%
%ADD16C,0.254000*%
G04 APERTURE END LIST*
D10*
X140208000Y-125984000D03*
D11*
X140208000Y-124714000D03*
X140208000Y-123444000D03*
X140208000Y-122174000D03*
X140208000Y-120904000D03*
D12*
X187352000Y-105918000D03*
X185352000Y-105918000D03*
X183352000Y-105918000D03*
X181352000Y-105918000D03*
X179352000Y-105918000D03*
X177352000Y-105918000D03*
X175352000Y-105918000D03*
X173352000Y-105918000D03*
X171352000Y-105918000D03*
X169352000Y-105918000D03*
X167352000Y-105918000D03*
X165352000Y-105918000D03*
X163352000Y-105918000D03*
X161352000Y-105918000D03*
X159352000Y-105918000D03*
X157352000Y-105918000D03*
X155352000Y-105918000D03*
X153352000Y-105918000D03*
X151352000Y-105918000D03*
D13*
X149352000Y-105918000D03*
D12*
X175606000Y-109220000D03*
X173606000Y-109220000D03*
X171606000Y-109220000D03*
X169606000Y-109220000D03*
X167606000Y-109220000D03*
X165606000Y-109220000D03*
X163606000Y-109220000D03*
X161606000Y-109220000D03*
X159606000Y-109220000D03*
X157606000Y-109220000D03*
X155606000Y-109220000D03*
X153606000Y-109220000D03*
X151606000Y-109220000D03*
D13*
X149606000Y-109220000D03*
D12*
X145318000Y-105918000D03*
X143318000Y-105918000D03*
X141318000Y-105918000D03*
X139318000Y-105918000D03*
X137318000Y-105918000D03*
X135318000Y-105918000D03*
X133318000Y-105918000D03*
D13*
X131318000Y-105918000D03*
D12*
X148276000Y-125476000D03*
X150276000Y-125476000D03*
X152276000Y-125476000D03*
X154276000Y-125476000D03*
X156276000Y-125476000D03*
X158276000Y-125476000D03*
X160276000Y-125476000D03*
X162276000Y-125476000D03*
X164276000Y-125476000D03*
X166276000Y-125476000D03*
X168276000Y-125476000D03*
X170276000Y-125476000D03*
X172276000Y-125476000D03*
X174276000Y-125476000D03*
D13*
X176276000Y-125476000D03*
D12*
X92075000Y-125410000D03*
X92075000Y-123410000D03*
X92075000Y-121410000D03*
X92075000Y-119410000D03*
X92075000Y-117410000D03*
X92075000Y-115410000D03*
X92075000Y-113410000D03*
X92075000Y-111410000D03*
X92075000Y-109410000D03*
X92075000Y-107410000D03*
D13*
X92075000Y-105410000D03*
D11*
X143383000Y-120967500D03*
X143383000Y-122237500D03*
X143383000Y-123507500D03*
X143383000Y-124777500D03*
D10*
X143383000Y-126047500D03*
D14*
X144653000Y-125666500D03*
X149288500Y-118745000D03*
X145859500Y-126936500D03*
X144525474Y-127125100D03*
X113099411Y-126942411D03*
X140208000Y-119951500D03*
X141284774Y-118681500D03*
X167640000Y-112712500D03*
X139509500Y-127508000D03*
X186309000Y-108585000D03*
X152209500Y-112014000D03*
X153853100Y-112014000D03*
X158115000Y-111377100D03*
X159067500Y-119697500D03*
X154876500Y-123888500D03*
X159512000Y-122366400D03*
X141541500Y-107696000D03*
X162560000Y-107823000D03*
X164158733Y-110030634D03*
X164465000Y-121475500D03*
X168783000Y-123698000D03*
X170053000Y-122428000D03*
X171450000Y-107632500D03*
X172085000Y-111125000D03*
X172212000Y-115443000D03*
X156647952Y-112714400D03*
X159467780Y-112439220D03*
X155892500Y-114300000D03*
X156647952Y-112714400D03*
X168425100Y-117475000D03*
X160464500Y-115125500D03*
X162877500Y-119126000D03*
X166878000Y-119888000D03*
X165227000Y-117475000D03*
X162052000Y-115887500D03*
X168465500Y-115125500D03*
X162877500Y-114300000D03*
X162052000Y-114300000D03*
X166052500Y-112712500D03*
X97663000Y-124712100D03*
X182816500Y-108521500D03*
X164973000Y-107886500D03*
X182689500Y-115570000D03*
X163610065Y-119932155D03*
X153352500Y-122110500D03*
X159170910Y-121958518D03*
X166306500Y-108390701D03*
X170751500Y-123507500D03*
X159455102Y-118661701D03*
X175450500Y-116078000D03*
X162834601Y-115082601D03*
X122237500Y-108140500D03*
X120078500Y-108077000D03*
X152654000Y-114046000D03*
X170468699Y-111116855D03*
X160888701Y-111252000D03*
X172720000Y-116586000D03*
X166814500Y-113538000D03*
X166052000Y-119888000D03*
X162052000Y-119126000D03*
X168465500Y-118300500D03*
X119316500Y-109156500D03*
X164427000Y-117475000D03*
X123634500Y-117221000D03*
X119253000Y-113919000D03*
X121348500Y-118427500D03*
X120777000Y-118999000D03*
X148653500Y-120650000D03*
X159448500Y-117538500D03*
X151384000Y-119888000D03*
X159321500Y-116141500D03*
X163639500Y-115887500D03*
X161226500Y-119126000D03*
X163639500Y-116713000D03*
X158877000Y-115883701D03*
X162849717Y-115879924D03*
X166814500Y-116713000D03*
X167640000Y-116713000D03*
X171005500Y-116141500D03*
X171259500Y-115697000D03*
X171132500Y-116840000D03*
X170688000Y-115697000D03*
X166052500Y-116713000D03*
X171226900Y-111188500D03*
X167640000Y-115887500D03*
X169735500Y-110744000D03*
X166052500Y-115887500D03*
X166878000Y-115125500D03*
X172275500Y-110680500D03*
X168465500Y-112712500D03*
X168465500Y-113538000D03*
X167640000Y-113474500D03*
X170432100Y-112585500D03*
X166814500Y-115887500D03*
X164909500Y-110553500D03*
X166052500Y-114300000D03*
X163766500Y-107251500D03*
X169081499Y-107632500D03*
X168465500Y-114300000D03*
X166243000Y-110617000D03*
X167640000Y-114300000D03*
X168465500Y-116713000D03*
X166814500Y-117475000D03*
X166052500Y-117538500D03*
X170053000Y-118300500D03*
X169227500Y-117538500D03*
X166878000Y-118300500D03*
X167640000Y-117475000D03*
X169227500Y-119126000D03*
X169227500Y-118300500D03*
X168465500Y-119126000D03*
X169227500Y-119888000D03*
X166878000Y-119126000D03*
X167605053Y-119144113D03*
X157670500Y-122364500D03*
X160591869Y-122469673D03*
X150032815Y-121521315D03*
X156464000Y-122299100D03*
X161607578Y-122484862D03*
X139382500Y-122872500D03*
X130429000Y-114935000D03*
X165163500Y-121475500D03*
X166052500Y-121475500D03*
X161226500Y-121539000D03*
X162052000Y-119888000D03*
X162877500Y-119888000D03*
X163639500Y-119126000D03*
X162877500Y-121475500D03*
X165290500Y-120713500D03*
X164465000Y-119126000D03*
X164465000Y-119888000D03*
X165227000Y-119062500D03*
X165227000Y-119888000D03*
X102489000Y-124396500D03*
X93662500Y-124333000D03*
X103886000Y-123634500D03*
X93535500Y-121729500D03*
X108839000Y-120269000D03*
X93662500Y-120650000D03*
X108648500Y-118999000D03*
X93726000Y-119824500D03*
X109283500Y-110807500D03*
X97853500Y-113601500D03*
X93853000Y-107950000D03*
X117538500Y-115760500D03*
X123761500Y-116078000D03*
X103632000Y-122682000D03*
X119316500Y-110426500D03*
X121158000Y-105727500D03*
X119316500Y-105727500D03*
X121158000Y-106553000D03*
X122936000Y-106045000D03*
X98742500Y-110934500D03*
X123000120Y-105596155D03*
X122110500Y-110426500D03*
X157797500Y-110553500D03*
X160464500Y-112712500D03*
X163639500Y-113538000D03*
X158623000Y-111887000D03*
X164465000Y-115887500D03*
X162814000Y-113474500D03*
X165925500Y-111506000D03*
X165227000Y-115062000D03*
X145097500Y-118681500D03*
X146240500Y-110172500D03*
X146177000Y-107886500D03*
X163195000Y-111633000D03*
X150177500Y-117157500D03*
X158750000Y-121475500D03*
X136461500Y-107886500D03*
X151511000Y-115125500D03*
X155257500Y-115125500D03*
X159575500Y-115062000D03*
X97980500Y-114490500D03*
X124777500Y-107188000D03*
X162941338Y-122863962D03*
X158813500Y-122237500D03*
X135953500Y-109982000D03*
X176325435Y-113523935D03*
X167640000Y-119888000D03*
X178244500Y-112141000D03*
X167640000Y-120713500D03*
X171005500Y-121666000D03*
X174752000Y-117516901D03*
X166052500Y-119062500D03*
X170751500Y-118046500D03*
X166052500Y-118300500D03*
X177736500Y-119062500D03*
X168465500Y-119888000D03*
X177609500Y-121094500D03*
X168465500Y-120713500D03*
X126682500Y-109220000D03*
X134683500Y-110871000D03*
X151066500Y-118808500D03*
X152717500Y-120326299D03*
X154559000Y-120713499D03*
X148526500Y-119737701D03*
X149923500Y-119951500D03*
X150749000Y-120967500D03*
X161226500Y-119888000D03*
X160464500Y-113474500D03*
X161226500Y-114300000D03*
X161226500Y-117538500D03*
X159512000Y-114300000D03*
X163639500Y-117475000D03*
X161226500Y-115125500D03*
X162052000Y-117538500D03*
X162052000Y-115125500D03*
X162814000Y-117538500D03*
X160464500Y-121475500D03*
X151003000Y-116586000D03*
X156019500Y-115951000D03*
X114490500Y-115760500D03*
X162052000Y-121539000D03*
X113220500Y-123571000D03*
X163639501Y-120713500D03*
X162056011Y-122417923D03*
X156146500Y-122872500D03*
X150876000Y-122618500D03*
X113157000Y-115125500D03*
X162657685Y-122393815D03*
X121740615Y-112787115D03*
X117919500Y-116649500D03*
X109410500Y-124333000D03*
X118117789Y-115146227D03*
X135318500Y-117475000D03*
X131762500Y-113792000D03*
X133794500Y-118491000D03*
X132969000Y-118935500D03*
X136207500Y-116268500D03*
X130365500Y-115443000D03*
D15*
X149288500Y-121036900D02*
X149282600Y-121036900D01*
X149282600Y-121036900D02*
X144653000Y-125666500D01*
X149288500Y-118745000D02*
X149288500Y-121036900D01*
X150302601Y-120577969D02*
X144834969Y-126045601D01*
X150876000Y-120523000D02*
X150302601Y-120577969D01*
X144273899Y-118863469D02*
X135318000Y-109907570D01*
X151246569Y-120713499D02*
X150876000Y-120523000D01*
X144273899Y-125848469D02*
X144273899Y-118863469D01*
X154559000Y-120713499D02*
X151246569Y-120713499D01*
X144834969Y-126045601D02*
X144471031Y-126045601D01*
X135318000Y-106872594D02*
X135318000Y-105918000D01*
X144471031Y-126045601D02*
X144273899Y-125848469D01*
X135318000Y-109907570D02*
X135318000Y-106872594D01*
X139509500Y-127508000D02*
X139509500Y-126030100D01*
X139509500Y-126030100D02*
X139555600Y-125984000D01*
X139555600Y-125984000D02*
X140208000Y-125984000D01*
X159512000Y-122366400D02*
X157989900Y-123888500D01*
X157989900Y-123888500D02*
X157723570Y-123888500D01*
X157723570Y-123888500D02*
X154876500Y-123888500D01*
X168425100Y-117475000D02*
X168844601Y-117055499D01*
X168844601Y-117055499D02*
X168844601Y-115504601D01*
X168615999Y-115275999D02*
X168465500Y-115125500D01*
X168844601Y-115504601D02*
X168615999Y-115275999D01*
X162052000Y-114300000D02*
X162877500Y-114300000D01*
X159467780Y-112439220D02*
X159467780Y-112652059D01*
X159467780Y-112652059D02*
X159911120Y-113095399D01*
X161060238Y-113095399D02*
X162052000Y-114087161D01*
X159911120Y-113095399D02*
X161060238Y-113095399D01*
X162052000Y-114087161D02*
X162052000Y-114300000D01*
X162877500Y-119126000D02*
X163639500Y-118364000D01*
X163639500Y-118364000D02*
X164338000Y-118364000D01*
X164338000Y-118364000D02*
X165076501Y-117625499D01*
X165076501Y-117625499D02*
X165227000Y-117475000D01*
X114998500Y-109156500D02*
X113218600Y-109156500D01*
X113218600Y-109156500D02*
X97663000Y-124712100D01*
X167223080Y-104709590D02*
X183480920Y-104709590D01*
X183480920Y-104709590D02*
X184255601Y-105484271D01*
X166448399Y-106411101D02*
X166448399Y-105484271D01*
X184255601Y-105484271D02*
X184255601Y-107082399D01*
X166448399Y-105484271D02*
X167223080Y-104709590D01*
X184255601Y-107082399D02*
X182816500Y-108521500D01*
X164973000Y-107886500D02*
X166448399Y-106411101D01*
X163610065Y-119932155D02*
X163183011Y-119505101D01*
X163183011Y-119505101D02*
X162431101Y-119505101D01*
X162431101Y-119505101D02*
X162202499Y-119276499D01*
X162202499Y-119276499D02*
X162052000Y-119126000D01*
X159455102Y-118661701D02*
X159455102Y-121674326D01*
X159455102Y-121674326D02*
X159170910Y-121958518D01*
X162052000Y-119126000D02*
X161672899Y-119505101D01*
X160298502Y-119505101D02*
X159455102Y-118661701D01*
X161672899Y-119505101D02*
X160298502Y-119505101D01*
X172720000Y-116586000D02*
X174942500Y-116586000D01*
X174942500Y-116586000D02*
X175450500Y-116078000D01*
X114998500Y-109156500D02*
X117548930Y-109156500D01*
X117548930Y-109156500D02*
X119316500Y-109156500D01*
X163639500Y-116713000D02*
X163193101Y-117159399D01*
X163193101Y-117159399D02*
X163193101Y-117720469D01*
X163193101Y-117720469D02*
X162166671Y-118746899D01*
X161376999Y-118975501D02*
X161226500Y-119126000D01*
X162166671Y-118746899D02*
X161605601Y-118746899D01*
X161605601Y-118746899D02*
X161376999Y-118975501D01*
X166814500Y-116713000D02*
X167197399Y-117095899D01*
X167197399Y-117095899D02*
X167821969Y-117095899D01*
X167821969Y-117095899D02*
X168019101Y-117293031D01*
X168019101Y-117293031D02*
X168019101Y-118415171D01*
X187352000Y-105918000D02*
X174285589Y-118984411D01*
X174285589Y-118984411D02*
X169714279Y-118984411D01*
X169714279Y-118984411D02*
X169409469Y-118679601D01*
X169409469Y-118679601D02*
X168283531Y-118679601D01*
X168283531Y-118679601D02*
X168019101Y-118415171D01*
X171259500Y-115697000D02*
X181038500Y-105918000D01*
X181038500Y-105918000D02*
X181352000Y-105918000D01*
X171132500Y-116840000D02*
X171767330Y-116840000D01*
X171767330Y-116840000D02*
X182255601Y-106351729D01*
X182255601Y-106351729D02*
X182255601Y-105484271D01*
X182255601Y-105484271D02*
X181785729Y-105014399D01*
X181785729Y-105014399D02*
X180255601Y-105014399D01*
X180255601Y-105014399D02*
X180026999Y-105243001D01*
X180026999Y-105243001D02*
X179352000Y-105918000D01*
X172275500Y-110680500D02*
X171729170Y-110680500D01*
X171729170Y-110680500D02*
X170509601Y-109460931D01*
X170509601Y-109460931D02*
X170509601Y-108499532D01*
X170509601Y-108499532D02*
X168603068Y-106592999D01*
X168603068Y-106592999D02*
X168026999Y-106592999D01*
X168026999Y-106592999D02*
X167352000Y-105918000D01*
X163352000Y-105918000D02*
X164509601Y-107075601D01*
X164509601Y-107075601D02*
X164509601Y-109460931D01*
X164509601Y-109460931D02*
X167382069Y-112333399D01*
X167382069Y-112333399D02*
X167821969Y-112333399D01*
X167821969Y-112333399D02*
X168086399Y-112597829D01*
X168086399Y-112597829D02*
X168086399Y-113158899D01*
X168086399Y-113158899D02*
X168315001Y-113387501D01*
X168315001Y-113387501D02*
X168465500Y-113538000D01*
X161352000Y-105918000D02*
X161352000Y-107628670D01*
X161352000Y-107628670D02*
X162702399Y-108979069D01*
X162702399Y-108979069D02*
X162702399Y-109653729D01*
X162702399Y-109653729D02*
X165382069Y-112333399D01*
X165382069Y-112333399D02*
X166498899Y-112333399D01*
X166498899Y-112333399D02*
X167489501Y-113324001D01*
X167489501Y-113324001D02*
X167640000Y-113474500D01*
X155352000Y-105918000D02*
X157750399Y-108316399D01*
X160702399Y-108786271D02*
X160702399Y-109775399D01*
X157750399Y-108316399D02*
X160232527Y-108316399D01*
X160702399Y-109775399D02*
X166664001Y-115737001D01*
X160232527Y-108316399D02*
X160702399Y-108786271D01*
X166664001Y-115737001D02*
X166814500Y-115887500D01*
X167606000Y-109220000D02*
X170053000Y-111667000D01*
X170053000Y-111667000D02*
X170053000Y-118300500D01*
X169227500Y-117538500D02*
X169227500Y-112841500D01*
X169227500Y-112841500D02*
X165606000Y-109220000D01*
X167006899Y-117854101D02*
X167386000Y-117475000D01*
X167386000Y-117475000D02*
X167640000Y-117475000D01*
X167821969Y-116333899D02*
X166632531Y-116333899D01*
X166632531Y-117854101D02*
X167006899Y-117854101D01*
X168019101Y-116136767D02*
X167821969Y-116333899D01*
X161606000Y-109220000D02*
X168019101Y-115633101D01*
X166435399Y-117656969D02*
X166632531Y-117854101D01*
X168019101Y-115633101D02*
X168019101Y-116136767D01*
X166632531Y-116333899D02*
X166435399Y-116531031D01*
X166435399Y-116531031D02*
X166435399Y-117656969D01*
X165673399Y-116531031D02*
X165673399Y-117720469D01*
X162995969Y-113853601D02*
X165673399Y-116531031D01*
X166498899Y-118151535D02*
X166498899Y-118482469D01*
X159606000Y-109220000D02*
X160509601Y-110123601D01*
X165673399Y-117720469D02*
X165870531Y-117917601D01*
X160509601Y-110123601D02*
X160509601Y-111731171D01*
X165870531Y-117917601D02*
X166264965Y-117917601D01*
X160509601Y-111731171D02*
X162632031Y-113853601D01*
X166264965Y-117917601D02*
X166498899Y-118151535D01*
X162632031Y-113853601D02*
X162995969Y-113853601D01*
X166498899Y-118482469D02*
X166696031Y-118679601D01*
X168021000Y-119570500D02*
X168283531Y-119505101D01*
X166696031Y-118679601D02*
X167059969Y-118679601D01*
X168848399Y-119505101D02*
X169077001Y-119276499D01*
X167059969Y-118679601D02*
X167957500Y-118808500D01*
X169077001Y-119276499D02*
X169227500Y-119126000D01*
X167957500Y-118808500D02*
X168021000Y-119570500D01*
X168283531Y-119505101D02*
X168848399Y-119505101D01*
X157670500Y-122364500D02*
X156827315Y-121521315D01*
X156827315Y-121521315D02*
X150032815Y-121521315D01*
X130429000Y-114935000D02*
X131445000Y-114935000D01*
X131445000Y-114935000D02*
X139382500Y-122872500D01*
X158276000Y-125476000D02*
X160147000Y-122301000D01*
X160147000Y-122301000D02*
X161226500Y-121539000D01*
X161605601Y-121720969D02*
X161605601Y-120334399D01*
X161217996Y-122108574D02*
X161605601Y-121720969D01*
X161217996Y-124534004D02*
X161217996Y-122108574D01*
X160276000Y-125476000D02*
X161217996Y-124534004D01*
X161605601Y-120334399D02*
X162052000Y-119888000D01*
X162877500Y-119888000D02*
X162877500Y-120215930D01*
X162950999Y-124801001D02*
X162276000Y-125476000D01*
X162877500Y-120215930D02*
X163256601Y-120595031D01*
X163195000Y-121719070D02*
X163195000Y-122556554D01*
X163195000Y-122556554D02*
X163320439Y-122681993D01*
X163256601Y-120595031D02*
X163256601Y-121657469D01*
X163320439Y-122681993D02*
X163320439Y-124431561D01*
X163256601Y-121657469D02*
X163195000Y-121719070D01*
X163320439Y-124431561D02*
X162950999Y-124801001D01*
X164276000Y-125476000D02*
X164276000Y-124521406D01*
X164276000Y-124521406D02*
X164018601Y-124264007D01*
X164018601Y-124264007D02*
X164018601Y-119505101D01*
X164018601Y-119505101D02*
X163789999Y-119276499D01*
X163789999Y-119276499D02*
X163639500Y-119126000D01*
X165227000Y-119062500D02*
X165227000Y-119275339D01*
X165227000Y-119275339D02*
X164847899Y-119654440D01*
X164847899Y-119654440D02*
X164847899Y-120831969D01*
X164847899Y-120831969D02*
X165112329Y-121096399D01*
X165112329Y-121096399D02*
X165476267Y-121096399D01*
X165476267Y-121096399D02*
X165673399Y-121293531D01*
X165673399Y-121293531D02*
X165673399Y-121657469D01*
X168588329Y-124572399D02*
X173372399Y-124572399D01*
X165673399Y-121657469D02*
X168588329Y-124572399D01*
X173372399Y-124572399D02*
X173601001Y-124801001D01*
X173601001Y-124801001D02*
X174276000Y-125476000D01*
X174690400Y-123063000D02*
X168402000Y-123063000D01*
X168402000Y-123063000D02*
X165227000Y-119888000D01*
X176276000Y-125476000D02*
X176276000Y-124648600D01*
X176276000Y-124648600D02*
X174690400Y-123063000D01*
X92075000Y-109410000D02*
X107886000Y-109410000D01*
X107886000Y-109410000D02*
X109283500Y-110807500D01*
X160464500Y-112712500D02*
X158305500Y-110553500D01*
X158305500Y-110553500D02*
X157797500Y-110553500D01*
X155257500Y-115125500D02*
X151511000Y-115125500D01*
X135953500Y-109982000D02*
X144193911Y-118222411D01*
X144193911Y-118222411D02*
X154798411Y-118222411D01*
X154798411Y-118222411D02*
X158813500Y-122237500D01*
X168019101Y-120531531D02*
X167754671Y-120267101D01*
X167754671Y-120267101D02*
X167454233Y-120267101D01*
X171005500Y-121666000D02*
X170432101Y-121092601D01*
X170432101Y-121092601D02*
X168216233Y-121092601D01*
X168216233Y-121092601D02*
X168019101Y-120895469D01*
X168019101Y-120895469D02*
X168019101Y-120531531D01*
X167257101Y-120069969D02*
X167257101Y-119706031D01*
X166495101Y-119505101D02*
X166202999Y-119212999D01*
X167454233Y-120267101D02*
X167257101Y-120069969D01*
X167257101Y-119706031D02*
X167056171Y-119505101D01*
X167056171Y-119505101D02*
X166495101Y-119505101D01*
X166202999Y-119212999D02*
X166052500Y-119062500D01*
X168465500Y-119888000D02*
X168844601Y-120267101D01*
X168844601Y-120267101D02*
X176531899Y-120267101D01*
X176531899Y-120267101D02*
X176911000Y-119888000D01*
X177736500Y-119062500D02*
X176911000Y-119888000D01*
X168465500Y-120713500D02*
X177228500Y-120713500D01*
X177228500Y-120713500D02*
X177609500Y-121094500D01*
X152717500Y-120326299D02*
X151199701Y-118808500D01*
X151199701Y-118808500D02*
X151066500Y-118808500D01*
X143318000Y-105918000D02*
X152079101Y-114679101D01*
X152079101Y-114679101D02*
X160847399Y-114679101D01*
X160847399Y-114679101D02*
X161076001Y-114450499D01*
X161076001Y-114450499D02*
X161226500Y-114300000D01*
X161226500Y-117538500D02*
X160847399Y-117159399D01*
X160847399Y-117159399D02*
X160847399Y-114679101D01*
X154039729Y-108316399D02*
X154702399Y-108979069D01*
X147716399Y-108316399D02*
X154039729Y-108316399D01*
X154702399Y-108979069D02*
X154702399Y-109653729D01*
X145318000Y-105918000D02*
X147716399Y-108316399D01*
X154702399Y-109653729D02*
X159348670Y-114300000D01*
X159348670Y-114300000D02*
X159512000Y-114300000D01*
X141318000Y-105918000D02*
X153317601Y-117917601D01*
X153317601Y-117917601D02*
X161408469Y-117917601D01*
X161408469Y-117917601D02*
X161605601Y-117720469D01*
X161605601Y-117720469D02*
X161605601Y-115504601D01*
X161605601Y-115504601D02*
X161376999Y-115275999D01*
X161376999Y-115275999D02*
X161226500Y-115125500D01*
X161607500Y-116881161D02*
X161607500Y-115506500D01*
X161607500Y-115506500D02*
X161226500Y-115125500D01*
X162052000Y-117538500D02*
X162052000Y-117325661D01*
X162052000Y-117325661D02*
X161607500Y-116881161D01*
X139318000Y-105918000D02*
X140221601Y-105014399D01*
X140221601Y-105014399D02*
X150209881Y-105014399D01*
X161408469Y-113920899D02*
X161672899Y-114185329D01*
X150209881Y-105014399D02*
X150448399Y-105252917D01*
X150448399Y-105252917D02*
X150448399Y-106351729D01*
X150448399Y-106351729D02*
X150918271Y-106821601D01*
X150918271Y-106821601D02*
X154544931Y-106821601D01*
X161672899Y-114185329D02*
X161672899Y-114746399D01*
X154544931Y-106821601D02*
X156509601Y-108786271D01*
X159837027Y-113920899D02*
X161408469Y-113920899D01*
X156509601Y-108786271D02*
X156509601Y-110593473D01*
X156509601Y-110593473D02*
X159837027Y-113920899D01*
X161672899Y-114746399D02*
X161901501Y-114975001D01*
X161901501Y-114975001D02*
X162052000Y-115125500D01*
X162814000Y-117538500D02*
X162369500Y-115443000D01*
X162369500Y-115443000D02*
X162052000Y-115125500D01*
X162056011Y-122417923D02*
X162056011Y-124358659D01*
X162056011Y-124358659D02*
X161179601Y-125235069D01*
X161179601Y-125235069D02*
X161179601Y-125909729D01*
X161179601Y-125909729D02*
X160709729Y-126379601D01*
X155933661Y-122872500D02*
X156146500Y-122872500D01*
X160709729Y-126379601D02*
X152709729Y-126379601D01*
X152709729Y-126379601D02*
X153179601Y-125909729D01*
X155331430Y-122872500D02*
X155933661Y-122872500D01*
X153179601Y-125909729D02*
X153179601Y-125024329D01*
X153179601Y-125024329D02*
X155331430Y-122872500D01*
X156146500Y-122872500D02*
X155829000Y-122555000D01*
X155829000Y-122555000D02*
X150876000Y-122618500D01*
X117919500Y-116649500D02*
X121740615Y-112828385D01*
X121740615Y-112828385D02*
X121740615Y-112787115D01*
X118117789Y-115890141D02*
X109674930Y-124333000D01*
X109674930Y-124333000D02*
X109410500Y-124333000D01*
X118117789Y-115146227D02*
X118117789Y-115890141D01*
D16*
G36*
X166670658Y-104256223D02*
X166090773Y-104836109D01*
X165863136Y-104684007D01*
X165481022Y-104608000D01*
X165222978Y-104608000D01*
X164840864Y-104684007D01*
X164407543Y-104973543D01*
X164352000Y-105056669D01*
X164296457Y-104973543D01*
X163863136Y-104684007D01*
X163481022Y-104608000D01*
X163222978Y-104608000D01*
X162840864Y-104684007D01*
X162407543Y-104973543D01*
X162352000Y-105056669D01*
X162296457Y-104973543D01*
X161863136Y-104684007D01*
X161481022Y-104608000D01*
X161222978Y-104608000D01*
X160840864Y-104684007D01*
X160407543Y-104973543D01*
X160352000Y-105056669D01*
X160296457Y-104973543D01*
X159863136Y-104684007D01*
X159481022Y-104608000D01*
X159222978Y-104608000D01*
X158840864Y-104684007D01*
X158407543Y-104973543D01*
X158352000Y-105056669D01*
X158296457Y-104973543D01*
X157863136Y-104684007D01*
X157481022Y-104608000D01*
X157222978Y-104608000D01*
X156840864Y-104684007D01*
X156407543Y-104973543D01*
X156352000Y-105056669D01*
X156296457Y-104973543D01*
X155863136Y-104684007D01*
X155481022Y-104608000D01*
X155222978Y-104608000D01*
X154840864Y-104684007D01*
X154407543Y-104973543D01*
X154352000Y-105056669D01*
X154296457Y-104973543D01*
X153863136Y-104684007D01*
X153481022Y-104608000D01*
X153222978Y-104608000D01*
X152840864Y-104684007D01*
X152407543Y-104973543D01*
X152352000Y-105056669D01*
X152296457Y-104973543D01*
X151863136Y-104684007D01*
X151481022Y-104608000D01*
X151222978Y-104608000D01*
X150877908Y-104676638D01*
X150762305Y-104561035D01*
X150722627Y-104501653D01*
X150487377Y-104344463D01*
X150279927Y-104303199D01*
X150279922Y-104303199D01*
X150209881Y-104289267D01*
X150139840Y-104303199D01*
X140291643Y-104303199D01*
X140221601Y-104289267D01*
X140151559Y-104303199D01*
X140151555Y-104303199D01*
X139944105Y-104344463D01*
X139944103Y-104344464D01*
X139944104Y-104344464D01*
X139768236Y-104461975D01*
X139768234Y-104461977D01*
X139708855Y-104501653D01*
X139669179Y-104561032D01*
X139593145Y-104637066D01*
X139447022Y-104608000D01*
X139188978Y-104608000D01*
X138806864Y-104684007D01*
X138373543Y-104973543D01*
X138318000Y-105056669D01*
X138262457Y-104973543D01*
X137829136Y-104684007D01*
X137447022Y-104608000D01*
X137188978Y-104608000D01*
X136806864Y-104684007D01*
X136373543Y-104973543D01*
X136318000Y-105056669D01*
X136262457Y-104973543D01*
X135829136Y-104684007D01*
X135447022Y-104608000D01*
X135188978Y-104608000D01*
X134806864Y-104684007D01*
X134373543Y-104973543D01*
X134318000Y-105056669D01*
X134262457Y-104973543D01*
X133829136Y-104684007D01*
X133447022Y-104608000D01*
X133188978Y-104608000D01*
X132806864Y-104684007D01*
X132513968Y-104879714D01*
X132450809Y-104785191D01*
X132240765Y-104644843D01*
X131993000Y-104595560D01*
X130643000Y-104595560D01*
X130395235Y-104644843D01*
X130185191Y-104785191D01*
X130044843Y-104995235D01*
X129995560Y-105243000D01*
X129995560Y-106593000D01*
X130044843Y-106840765D01*
X130185191Y-107050809D01*
X130395235Y-107191157D01*
X130643000Y-107240440D01*
X131993000Y-107240440D01*
X132240765Y-107191157D01*
X132450809Y-107050809D01*
X132513968Y-106956286D01*
X132806864Y-107151993D01*
X133188978Y-107228000D01*
X133447022Y-107228000D01*
X133829136Y-107151993D01*
X134262457Y-106862457D01*
X134318000Y-106779331D01*
X134373543Y-106862457D01*
X134606801Y-107018315D01*
X134606800Y-109837528D01*
X134592868Y-109907570D01*
X134606800Y-109977611D01*
X134606800Y-109977615D01*
X134628259Y-110085500D01*
X134527254Y-110085500D01*
X134238550Y-110205085D01*
X134017585Y-110426050D01*
X133898000Y-110714754D01*
X133898000Y-111027246D01*
X134017585Y-111315950D01*
X134238550Y-111536915D01*
X134527254Y-111656500D01*
X134839746Y-111656500D01*
X135128450Y-111536915D01*
X135349415Y-111315950D01*
X135458130Y-111053488D01*
X143562700Y-119158059D01*
X143562700Y-119846009D01*
X143494783Y-119832500D01*
X143271217Y-119832500D01*
X142940145Y-119898354D01*
X142564711Y-120149211D01*
X142313854Y-120524645D01*
X142225765Y-120967500D01*
X142313854Y-121410355D01*
X142442241Y-121602500D01*
X142313854Y-121794645D01*
X142225765Y-122237500D01*
X142313854Y-122680355D01*
X142442241Y-122872500D01*
X142313854Y-123064645D01*
X142225765Y-123507500D01*
X142313854Y-123950355D01*
X142442241Y-124142500D01*
X142313854Y-124334645D01*
X142225765Y-124777500D01*
X142313854Y-125220355D01*
X142325869Y-125238336D01*
X142284843Y-125299735D01*
X142235560Y-125547500D01*
X142235560Y-126547500D01*
X142284843Y-126795265D01*
X142425191Y-127005309D01*
X142635235Y-127145657D01*
X142883000Y-127194940D01*
X143739974Y-127194940D01*
X143739974Y-127203710D01*
X115059025Y-127258410D01*
X115053836Y-126269750D01*
X139073000Y-126269750D01*
X139073000Y-126610310D01*
X139169673Y-126843699D01*
X139348302Y-127022327D01*
X139581691Y-127119000D01*
X139922250Y-127119000D01*
X140081000Y-126960250D01*
X140081000Y-126111000D01*
X140335000Y-126111000D01*
X140335000Y-126960250D01*
X140493750Y-127119000D01*
X140834309Y-127119000D01*
X141067698Y-127022327D01*
X141246327Y-126843699D01*
X141343000Y-126610310D01*
X141343000Y-126269750D01*
X141184250Y-126111000D01*
X140335000Y-126111000D01*
X140081000Y-126111000D01*
X139231750Y-126111000D01*
X139073000Y-126269750D01*
X115053836Y-126269750D01*
X115020885Y-119992834D01*
X116170965Y-118842754D01*
X119991500Y-118842754D01*
X119991500Y-119155246D01*
X120111085Y-119443950D01*
X120332050Y-119664915D01*
X120620754Y-119784500D01*
X120933246Y-119784500D01*
X121221950Y-119664915D01*
X121442915Y-119443950D01*
X121545584Y-119196084D01*
X121793450Y-119093415D01*
X122014415Y-118872450D01*
X122134000Y-118583746D01*
X122134000Y-118271254D01*
X122014415Y-117982550D01*
X121793450Y-117761585D01*
X121504746Y-117642000D01*
X121192254Y-117642000D01*
X120903550Y-117761585D01*
X120682585Y-117982550D01*
X120579916Y-118230416D01*
X120332050Y-118333085D01*
X120111085Y-118554050D01*
X119991500Y-118842754D01*
X116170965Y-118842754D01*
X117632768Y-117380951D01*
X117763254Y-117435000D01*
X118075746Y-117435000D01*
X118364450Y-117315415D01*
X118585415Y-117094450D01*
X118597715Y-117064754D01*
X122849000Y-117064754D01*
X122849000Y-117377246D01*
X122968585Y-117665950D01*
X123189550Y-117886915D01*
X123478254Y-118006500D01*
X123790746Y-118006500D01*
X124079450Y-117886915D01*
X124300415Y-117665950D01*
X124420000Y-117377246D01*
X124420000Y-117064754D01*
X124300415Y-116776050D01*
X124237365Y-116713000D01*
X124427415Y-116522950D01*
X124547000Y-116234246D01*
X124547000Y-115921754D01*
X124427415Y-115633050D01*
X124206450Y-115412085D01*
X123917746Y-115292500D01*
X123605254Y-115292500D01*
X123316550Y-115412085D01*
X123095585Y-115633050D01*
X122976000Y-115921754D01*
X122976000Y-116234246D01*
X123095585Y-116522950D01*
X123158635Y-116586000D01*
X122968585Y-116776050D01*
X122849000Y-117064754D01*
X118597715Y-117064754D01*
X118659715Y-116915073D01*
X120288034Y-115286754D01*
X129580000Y-115286754D01*
X129580000Y-115599246D01*
X129699585Y-115887950D01*
X129920550Y-116108915D01*
X130209254Y-116228500D01*
X130521746Y-116228500D01*
X130810450Y-116108915D01*
X131031415Y-115887950D01*
X131131551Y-115646200D01*
X131150412Y-115646200D01*
X133339423Y-117835212D01*
X133128585Y-118046050D01*
X133085528Y-118150000D01*
X132812754Y-118150000D01*
X132524050Y-118269585D01*
X132303085Y-118490550D01*
X132183500Y-118779254D01*
X132183500Y-119091746D01*
X132303085Y-119380450D01*
X132524050Y-119601415D01*
X132812754Y-119721000D01*
X133125246Y-119721000D01*
X133413950Y-119601415D01*
X133634915Y-119380450D01*
X133677972Y-119276500D01*
X133950746Y-119276500D01*
X134239450Y-119156915D01*
X134450288Y-118946077D01*
X138642285Y-123138074D01*
X138716585Y-123317450D01*
X138937550Y-123538415D01*
X139081397Y-123597998D01*
X139138854Y-123886855D01*
X139267241Y-124079000D01*
X139138854Y-124271145D01*
X139050765Y-124714000D01*
X139138854Y-125156855D01*
X139149555Y-125172870D01*
X139073000Y-125357690D01*
X139073000Y-125698250D01*
X139231750Y-125857000D01*
X140081000Y-125857000D01*
X140081000Y-125845973D01*
X140096217Y-125849000D01*
X140319783Y-125849000D01*
X140335000Y-125845973D01*
X140335000Y-125857000D01*
X141184250Y-125857000D01*
X141343000Y-125698250D01*
X141343000Y-125357690D01*
X141266445Y-125172870D01*
X141277146Y-125156855D01*
X141365235Y-124714000D01*
X141277146Y-124271145D01*
X141148759Y-124079000D01*
X141277146Y-123886855D01*
X141365235Y-123444000D01*
X141277146Y-123001145D01*
X141148759Y-122809000D01*
X141277146Y-122616855D01*
X141365235Y-122174000D01*
X141277146Y-121731145D01*
X141148759Y-121539000D01*
X141277146Y-121346855D01*
X141365235Y-120904000D01*
X141277146Y-120461145D01*
X141026289Y-120085711D01*
X140993500Y-120063802D01*
X140993500Y-119795254D01*
X140873915Y-119506550D01*
X140652950Y-119285585D01*
X140364246Y-119166000D01*
X140051754Y-119166000D01*
X139763050Y-119285585D01*
X139542085Y-119506550D01*
X139422500Y-119795254D01*
X139422500Y-120063802D01*
X139389711Y-120085711D01*
X139138854Y-120461145D01*
X139050765Y-120904000D01*
X139138854Y-121346855D01*
X139267241Y-121539000D01*
X139182145Y-121666356D01*
X136041043Y-118525254D01*
X140499274Y-118525254D01*
X140499274Y-118837746D01*
X140618859Y-119126450D01*
X140839824Y-119347415D01*
X141128528Y-119467000D01*
X141441020Y-119467000D01*
X141729724Y-119347415D01*
X141950689Y-119126450D01*
X142070274Y-118837746D01*
X142070274Y-118525254D01*
X141950689Y-118236550D01*
X141729724Y-118015585D01*
X141441020Y-117896000D01*
X141128528Y-117896000D01*
X140839824Y-118015585D01*
X140618859Y-118236550D01*
X140499274Y-118525254D01*
X136041043Y-118525254D01*
X135687969Y-118172180D01*
X135763450Y-118140915D01*
X135984415Y-117919950D01*
X136104000Y-117631246D01*
X136104000Y-117318754D01*
X135984415Y-117030050D01*
X135978038Y-117023673D01*
X136051254Y-117054000D01*
X136363746Y-117054000D01*
X136652450Y-116934415D01*
X136873415Y-116713450D01*
X136993000Y-116424746D01*
X136993000Y-116112254D01*
X136873415Y-115823550D01*
X136652450Y-115602585D01*
X136363746Y-115483000D01*
X136051254Y-115483000D01*
X135762550Y-115602585D01*
X135541585Y-115823550D01*
X135422000Y-116112254D01*
X135422000Y-116424746D01*
X135541585Y-116713450D01*
X135547962Y-116719827D01*
X135474746Y-116689500D01*
X135162254Y-116689500D01*
X134873550Y-116809085D01*
X134652585Y-117030050D01*
X134621320Y-117105531D01*
X132042166Y-114526378D01*
X132207450Y-114457915D01*
X132428415Y-114236950D01*
X132548000Y-113948246D01*
X132548000Y-113635754D01*
X132428415Y-113347050D01*
X132207450Y-113126085D01*
X131918746Y-113006500D01*
X131606254Y-113006500D01*
X131317550Y-113126085D01*
X131096585Y-113347050D01*
X130977000Y-113635754D01*
X130977000Y-113948246D01*
X131091138Y-114223800D01*
X130764622Y-114223800D01*
X130585246Y-114149500D01*
X130272754Y-114149500D01*
X129984050Y-114269085D01*
X129763085Y-114490050D01*
X129643500Y-114778754D01*
X129643500Y-115091246D01*
X129652241Y-115112349D01*
X129580000Y-115286754D01*
X120288034Y-115286754D01*
X122076641Y-113498148D01*
X122185565Y-113453030D01*
X122406530Y-113232065D01*
X122526115Y-112943361D01*
X122526115Y-112630869D01*
X122406530Y-112342165D01*
X122185565Y-112121200D01*
X121896861Y-112001615D01*
X121584369Y-112001615D01*
X121295665Y-112121200D01*
X121074700Y-112342165D01*
X120971218Y-112591993D01*
X119968779Y-113594432D01*
X119918915Y-113474050D01*
X119697950Y-113253085D01*
X119409246Y-113133500D01*
X119096754Y-113133500D01*
X118808050Y-113253085D01*
X118587085Y-113474050D01*
X118467500Y-113762754D01*
X118467500Y-114075246D01*
X118587085Y-114363950D01*
X118808050Y-114584915D01*
X118928433Y-114634779D01*
X118806617Y-114756594D01*
X118783704Y-114701277D01*
X118562739Y-114480312D01*
X118274035Y-114360727D01*
X117961543Y-114360727D01*
X117672839Y-114480312D01*
X117451874Y-114701277D01*
X117332289Y-114989981D01*
X117332289Y-114995696D01*
X117093550Y-115094585D01*
X116872585Y-115315550D01*
X116753000Y-115604254D01*
X116753000Y-115916746D01*
X116850356Y-116151785D01*
X115010381Y-117991761D01*
X115001815Y-116360050D01*
X115156415Y-116205450D01*
X115276000Y-115916746D01*
X115276000Y-115604254D01*
X115156415Y-115315550D01*
X114995488Y-115154623D01*
X114967735Y-109867700D01*
X118764435Y-109867700D01*
X118650585Y-109981550D01*
X118531000Y-110270254D01*
X118531000Y-110582746D01*
X118650585Y-110871450D01*
X118871550Y-111092415D01*
X119160254Y-111212000D01*
X119472746Y-111212000D01*
X119761450Y-111092415D01*
X119982415Y-110871450D01*
X120102000Y-110582746D01*
X120102000Y-110270254D01*
X121325000Y-110270254D01*
X121325000Y-110582746D01*
X121444585Y-110871450D01*
X121665550Y-111092415D01*
X121954254Y-111212000D01*
X122266746Y-111212000D01*
X122555450Y-111092415D01*
X122776415Y-110871450D01*
X122896000Y-110582746D01*
X122896000Y-110270254D01*
X122776415Y-109981550D01*
X122555450Y-109760585D01*
X122266746Y-109641000D01*
X121954254Y-109641000D01*
X121665550Y-109760585D01*
X121444585Y-109981550D01*
X121325000Y-110270254D01*
X120102000Y-110270254D01*
X119982415Y-109981550D01*
X119792365Y-109791500D01*
X119982415Y-109601450D01*
X120102000Y-109312746D01*
X120102000Y-109063754D01*
X125897000Y-109063754D01*
X125897000Y-109376246D01*
X126016585Y-109664950D01*
X126237550Y-109885915D01*
X126526254Y-110005500D01*
X126838746Y-110005500D01*
X127127450Y-109885915D01*
X127348415Y-109664950D01*
X127468000Y-109376246D01*
X127468000Y-109063754D01*
X127348415Y-108775050D01*
X127127450Y-108554085D01*
X126838746Y-108434500D01*
X126526254Y-108434500D01*
X126237550Y-108554085D01*
X126016585Y-108775050D01*
X125897000Y-109063754D01*
X120102000Y-109063754D01*
X120102000Y-109000254D01*
X120044940Y-108862500D01*
X120234746Y-108862500D01*
X120523450Y-108742915D01*
X120744415Y-108521950D01*
X120864000Y-108233246D01*
X120864000Y-107984254D01*
X121452000Y-107984254D01*
X121452000Y-108296746D01*
X121571585Y-108585450D01*
X121792550Y-108806415D01*
X122081254Y-108926000D01*
X122393746Y-108926000D01*
X122682450Y-108806415D01*
X122903415Y-108585450D01*
X123023000Y-108296746D01*
X123023000Y-107984254D01*
X122903415Y-107695550D01*
X122682450Y-107474585D01*
X122393746Y-107355000D01*
X122081254Y-107355000D01*
X121792550Y-107474585D01*
X121571585Y-107695550D01*
X121452000Y-107984254D01*
X120864000Y-107984254D01*
X120864000Y-107920754D01*
X120744415Y-107632050D01*
X120523450Y-107411085D01*
X120234746Y-107291500D01*
X119922254Y-107291500D01*
X119633550Y-107411085D01*
X119412585Y-107632050D01*
X119293000Y-107920754D01*
X119293000Y-108233246D01*
X119350060Y-108371000D01*
X119160254Y-108371000D01*
X118980878Y-108445300D01*
X114960268Y-108445300D01*
X114945182Y-105571254D01*
X118531000Y-105571254D01*
X118531000Y-105883746D01*
X118650585Y-106172450D01*
X118871550Y-106393415D01*
X119160254Y-106513000D01*
X119472746Y-106513000D01*
X119761450Y-106393415D01*
X119982415Y-106172450D01*
X120102000Y-105883746D01*
X120102000Y-105571254D01*
X120372500Y-105571254D01*
X120372500Y-105883746D01*
X120478747Y-106140250D01*
X120372500Y-106396754D01*
X120372500Y-106709246D01*
X120492085Y-106997950D01*
X120713050Y-107218915D01*
X121001754Y-107338500D01*
X121314246Y-107338500D01*
X121602950Y-107218915D01*
X121790111Y-107031754D01*
X123992000Y-107031754D01*
X123992000Y-107344246D01*
X124111585Y-107632950D01*
X124332550Y-107853915D01*
X124621254Y-107973500D01*
X124933746Y-107973500D01*
X125222450Y-107853915D01*
X125443415Y-107632950D01*
X125563000Y-107344246D01*
X125563000Y-107031754D01*
X125443415Y-106743050D01*
X125222450Y-106522085D01*
X124933746Y-106402500D01*
X124621254Y-106402500D01*
X124332550Y-106522085D01*
X124111585Y-106743050D01*
X123992000Y-107031754D01*
X121790111Y-107031754D01*
X121823915Y-106997950D01*
X121943500Y-106709246D01*
X121943500Y-106396754D01*
X121837253Y-106140250D01*
X121941425Y-105888754D01*
X122150500Y-105888754D01*
X122150500Y-106201246D01*
X122270085Y-106489950D01*
X122491050Y-106710915D01*
X122779754Y-106830500D01*
X123092246Y-106830500D01*
X123380950Y-106710915D01*
X123601915Y-106489950D01*
X123721500Y-106201246D01*
X123721500Y-105907201D01*
X123785620Y-105752401D01*
X123785620Y-105439909D01*
X123666035Y-105151205D01*
X123445070Y-104930240D01*
X123156366Y-104810655D01*
X122843874Y-104810655D01*
X122555170Y-104930240D01*
X122334205Y-105151205D01*
X122214620Y-105439909D01*
X122214620Y-105733954D01*
X122150500Y-105888754D01*
X121941425Y-105888754D01*
X121943500Y-105883746D01*
X121943500Y-105571254D01*
X121823915Y-105282550D01*
X121602950Y-105061585D01*
X121314246Y-104942000D01*
X121001754Y-104942000D01*
X120713050Y-105061585D01*
X120492085Y-105282550D01*
X120372500Y-105571254D01*
X120102000Y-105571254D01*
X119982415Y-105282550D01*
X119761450Y-105061585D01*
X119472746Y-104942000D01*
X119160254Y-104942000D01*
X118871550Y-105061585D01*
X118650585Y-105282550D01*
X118531000Y-105571254D01*
X114945182Y-105571254D01*
X114938062Y-104215000D01*
X166698202Y-104215000D01*
X166670658Y-104256223D01*
X166670658Y-104256223D01*
G37*
X166670658Y-104256223D02*
X166090773Y-104836109D01*
X165863136Y-104684007D01*
X165481022Y-104608000D01*
X165222978Y-104608000D01*
X164840864Y-104684007D01*
X164407543Y-104973543D01*
X164352000Y-105056669D01*
X164296457Y-104973543D01*
X163863136Y-104684007D01*
X163481022Y-104608000D01*
X163222978Y-104608000D01*
X162840864Y-104684007D01*
X162407543Y-104973543D01*
X162352000Y-105056669D01*
X162296457Y-104973543D01*
X161863136Y-104684007D01*
X161481022Y-104608000D01*
X161222978Y-104608000D01*
X160840864Y-104684007D01*
X160407543Y-104973543D01*
X160352000Y-105056669D01*
X160296457Y-104973543D01*
X159863136Y-104684007D01*
X159481022Y-104608000D01*
X159222978Y-104608000D01*
X158840864Y-104684007D01*
X158407543Y-104973543D01*
X158352000Y-105056669D01*
X158296457Y-104973543D01*
X157863136Y-104684007D01*
X157481022Y-104608000D01*
X157222978Y-104608000D01*
X156840864Y-104684007D01*
X156407543Y-104973543D01*
X156352000Y-105056669D01*
X156296457Y-104973543D01*
X155863136Y-104684007D01*
X155481022Y-104608000D01*
X155222978Y-104608000D01*
X154840864Y-104684007D01*
X154407543Y-104973543D01*
X154352000Y-105056669D01*
X154296457Y-104973543D01*
X153863136Y-104684007D01*
X153481022Y-104608000D01*
X153222978Y-104608000D01*
X152840864Y-104684007D01*
X152407543Y-104973543D01*
X152352000Y-105056669D01*
X152296457Y-104973543D01*
X151863136Y-104684007D01*
X151481022Y-104608000D01*
X151222978Y-104608000D01*
X150877908Y-104676638D01*
X150762305Y-104561035D01*
X150722627Y-104501653D01*
X150487377Y-104344463D01*
X150279927Y-104303199D01*
X150279922Y-104303199D01*
X150209881Y-104289267D01*
X150139840Y-104303199D01*
X140291643Y-104303199D01*
X140221601Y-104289267D01*
X140151559Y-104303199D01*
X140151555Y-104303199D01*
X139944105Y-104344463D01*
X139944103Y-104344464D01*
X139944104Y-104344464D01*
X139768236Y-104461975D01*
X139768234Y-104461977D01*
X139708855Y-104501653D01*
X139669179Y-104561032D01*
X139593145Y-104637066D01*
X139447022Y-104608000D01*
X139188978Y-104608000D01*
X138806864Y-104684007D01*
X138373543Y-104973543D01*
X138318000Y-105056669D01*
X138262457Y-104973543D01*
X137829136Y-104684007D01*
X137447022Y-104608000D01*
X137188978Y-104608000D01*
X136806864Y-104684007D01*
X136373543Y-104973543D01*
X136318000Y-105056669D01*
X136262457Y-104973543D01*
X135829136Y-104684007D01*
X135447022Y-104608000D01*
X135188978Y-104608000D01*
X134806864Y-104684007D01*
X134373543Y-104973543D01*
X134318000Y-105056669D01*
X134262457Y-104973543D01*
X133829136Y-104684007D01*
X133447022Y-104608000D01*
X133188978Y-104608000D01*
X132806864Y-104684007D01*
X132513968Y-104879714D01*
X132450809Y-104785191D01*
X132240765Y-104644843D01*
X131993000Y-104595560D01*
X130643000Y-104595560D01*
X130395235Y-104644843D01*
X130185191Y-104785191D01*
X130044843Y-104995235D01*
X129995560Y-105243000D01*
X129995560Y-106593000D01*
X130044843Y-106840765D01*
X130185191Y-107050809D01*
X130395235Y-107191157D01*
X130643000Y-107240440D01*
X131993000Y-107240440D01*
X132240765Y-107191157D01*
X132450809Y-107050809D01*
X132513968Y-106956286D01*
X132806864Y-107151993D01*
X133188978Y-107228000D01*
X133447022Y-107228000D01*
X133829136Y-107151993D01*
X134262457Y-106862457D01*
X134318000Y-106779331D01*
X134373543Y-106862457D01*
X134606801Y-107018315D01*
X134606800Y-109837528D01*
X134592868Y-109907570D01*
X134606800Y-109977611D01*
X134606800Y-109977615D01*
X134628259Y-110085500D01*
X134527254Y-110085500D01*
X134238550Y-110205085D01*
X134017585Y-110426050D01*
X133898000Y-110714754D01*
X133898000Y-111027246D01*
X134017585Y-111315950D01*
X134238550Y-111536915D01*
X134527254Y-111656500D01*
X134839746Y-111656500D01*
X135128450Y-111536915D01*
X135349415Y-111315950D01*
X135458130Y-111053488D01*
X143562700Y-119158059D01*
X143562700Y-119846009D01*
X143494783Y-119832500D01*
X143271217Y-119832500D01*
X142940145Y-119898354D01*
X142564711Y-120149211D01*
X142313854Y-120524645D01*
X142225765Y-120967500D01*
X142313854Y-121410355D01*
X142442241Y-121602500D01*
X142313854Y-121794645D01*
X142225765Y-122237500D01*
X142313854Y-122680355D01*
X142442241Y-122872500D01*
X142313854Y-123064645D01*
X142225765Y-123507500D01*
X142313854Y-123950355D01*
X142442241Y-124142500D01*
X142313854Y-124334645D01*
X142225765Y-124777500D01*
X142313854Y-125220355D01*
X142325869Y-125238336D01*
X142284843Y-125299735D01*
X142235560Y-125547500D01*
X142235560Y-126547500D01*
X142284843Y-126795265D01*
X142425191Y-127005309D01*
X142635235Y-127145657D01*
X142883000Y-127194940D01*
X143739974Y-127194940D01*
X143739974Y-127203710D01*
X115059025Y-127258410D01*
X115053836Y-126269750D01*
X139073000Y-126269750D01*
X139073000Y-126610310D01*
X139169673Y-126843699D01*
X139348302Y-127022327D01*
X139581691Y-127119000D01*
X139922250Y-127119000D01*
X140081000Y-126960250D01*
X140081000Y-126111000D01*
X140335000Y-126111000D01*
X140335000Y-126960250D01*
X140493750Y-127119000D01*
X140834309Y-127119000D01*
X141067698Y-127022327D01*
X141246327Y-126843699D01*
X141343000Y-126610310D01*
X141343000Y-126269750D01*
X141184250Y-126111000D01*
X140335000Y-126111000D01*
X140081000Y-126111000D01*
X139231750Y-126111000D01*
X139073000Y-126269750D01*
X115053836Y-126269750D01*
X115020885Y-119992834D01*
X116170965Y-118842754D01*
X119991500Y-118842754D01*
X119991500Y-119155246D01*
X120111085Y-119443950D01*
X120332050Y-119664915D01*
X120620754Y-119784500D01*
X120933246Y-119784500D01*
X121221950Y-119664915D01*
X121442915Y-119443950D01*
X121545584Y-119196084D01*
X121793450Y-119093415D01*
X122014415Y-118872450D01*
X122134000Y-118583746D01*
X122134000Y-118271254D01*
X122014415Y-117982550D01*
X121793450Y-117761585D01*
X121504746Y-117642000D01*
X121192254Y-117642000D01*
X120903550Y-117761585D01*
X120682585Y-117982550D01*
X120579916Y-118230416D01*
X120332050Y-118333085D01*
X120111085Y-118554050D01*
X119991500Y-118842754D01*
X116170965Y-118842754D01*
X117632768Y-117380951D01*
X117763254Y-117435000D01*
X118075746Y-117435000D01*
X118364450Y-117315415D01*
X118585415Y-117094450D01*
X118597715Y-117064754D01*
X122849000Y-117064754D01*
X122849000Y-117377246D01*
X122968585Y-117665950D01*
X123189550Y-117886915D01*
X123478254Y-118006500D01*
X123790746Y-118006500D01*
X124079450Y-117886915D01*
X124300415Y-117665950D01*
X124420000Y-117377246D01*
X124420000Y-117064754D01*
X124300415Y-116776050D01*
X124237365Y-116713000D01*
X124427415Y-116522950D01*
X124547000Y-116234246D01*
X124547000Y-115921754D01*
X124427415Y-115633050D01*
X124206450Y-115412085D01*
X123917746Y-115292500D01*
X123605254Y-115292500D01*
X123316550Y-115412085D01*
X123095585Y-115633050D01*
X122976000Y-115921754D01*
X122976000Y-116234246D01*
X123095585Y-116522950D01*
X123158635Y-116586000D01*
X122968585Y-116776050D01*
X122849000Y-117064754D01*
X118597715Y-117064754D01*
X118659715Y-116915073D01*
X120288034Y-115286754D01*
X129580000Y-115286754D01*
X129580000Y-115599246D01*
X129699585Y-115887950D01*
X129920550Y-116108915D01*
X130209254Y-116228500D01*
X130521746Y-116228500D01*
X130810450Y-116108915D01*
X131031415Y-115887950D01*
X131131551Y-115646200D01*
X131150412Y-115646200D01*
X133339423Y-117835212D01*
X133128585Y-118046050D01*
X133085528Y-118150000D01*
X132812754Y-118150000D01*
X132524050Y-118269585D01*
X132303085Y-118490550D01*
X132183500Y-118779254D01*
X132183500Y-119091746D01*
X132303085Y-119380450D01*
X132524050Y-119601415D01*
X132812754Y-119721000D01*
X133125246Y-119721000D01*
X133413950Y-119601415D01*
X133634915Y-119380450D01*
X133677972Y-119276500D01*
X133950746Y-119276500D01*
X134239450Y-119156915D01*
X134450288Y-118946077D01*
X138642285Y-123138074D01*
X138716585Y-123317450D01*
X138937550Y-123538415D01*
X139081397Y-123597998D01*
X139138854Y-123886855D01*
X139267241Y-124079000D01*
X139138854Y-124271145D01*
X139050765Y-124714000D01*
X139138854Y-125156855D01*
X139149555Y-125172870D01*
X139073000Y-125357690D01*
X139073000Y-125698250D01*
X139231750Y-125857000D01*
X140081000Y-125857000D01*
X140081000Y-125845973D01*
X140096217Y-125849000D01*
X140319783Y-125849000D01*
X140335000Y-125845973D01*
X140335000Y-125857000D01*
X141184250Y-125857000D01*
X141343000Y-125698250D01*
X141343000Y-125357690D01*
X141266445Y-125172870D01*
X141277146Y-125156855D01*
X141365235Y-124714000D01*
X141277146Y-124271145D01*
X141148759Y-124079000D01*
X141277146Y-123886855D01*
X141365235Y-123444000D01*
X141277146Y-123001145D01*
X141148759Y-122809000D01*
X141277146Y-122616855D01*
X141365235Y-122174000D01*
X141277146Y-121731145D01*
X141148759Y-121539000D01*
X141277146Y-121346855D01*
X141365235Y-120904000D01*
X141277146Y-120461145D01*
X141026289Y-120085711D01*
X140993500Y-120063802D01*
X140993500Y-119795254D01*
X140873915Y-119506550D01*
X140652950Y-119285585D01*
X140364246Y-119166000D01*
X140051754Y-119166000D01*
X139763050Y-119285585D01*
X139542085Y-119506550D01*
X139422500Y-119795254D01*
X139422500Y-120063802D01*
X139389711Y-120085711D01*
X139138854Y-120461145D01*
X139050765Y-120904000D01*
X139138854Y-121346855D01*
X139267241Y-121539000D01*
X139182145Y-121666356D01*
X136041043Y-118525254D01*
X140499274Y-118525254D01*
X140499274Y-118837746D01*
X140618859Y-119126450D01*
X140839824Y-119347415D01*
X141128528Y-119467000D01*
X141441020Y-119467000D01*
X141729724Y-119347415D01*
X141950689Y-119126450D01*
X142070274Y-118837746D01*
X142070274Y-118525254D01*
X141950689Y-118236550D01*
X141729724Y-118015585D01*
X141441020Y-117896000D01*
X141128528Y-117896000D01*
X140839824Y-118015585D01*
X140618859Y-118236550D01*
X140499274Y-118525254D01*
X136041043Y-118525254D01*
X135687969Y-118172180D01*
X135763450Y-118140915D01*
X135984415Y-117919950D01*
X136104000Y-117631246D01*
X136104000Y-117318754D01*
X135984415Y-117030050D01*
X135978038Y-117023673D01*
X136051254Y-117054000D01*
X136363746Y-117054000D01*
X136652450Y-116934415D01*
X136873415Y-116713450D01*
X136993000Y-116424746D01*
X136993000Y-116112254D01*
X136873415Y-115823550D01*
X136652450Y-115602585D01*
X136363746Y-115483000D01*
X136051254Y-115483000D01*
X135762550Y-115602585D01*
X135541585Y-115823550D01*
X135422000Y-116112254D01*
X135422000Y-116424746D01*
X135541585Y-116713450D01*
X135547962Y-116719827D01*
X135474746Y-116689500D01*
X135162254Y-116689500D01*
X134873550Y-116809085D01*
X134652585Y-117030050D01*
X134621320Y-117105531D01*
X132042166Y-114526378D01*
X132207450Y-114457915D01*
X132428415Y-114236950D01*
X132548000Y-113948246D01*
X132548000Y-113635754D01*
X132428415Y-113347050D01*
X132207450Y-113126085D01*
X131918746Y-113006500D01*
X131606254Y-113006500D01*
X131317550Y-113126085D01*
X131096585Y-113347050D01*
X130977000Y-113635754D01*
X130977000Y-113948246D01*
X131091138Y-114223800D01*
X130764622Y-114223800D01*
X130585246Y-114149500D01*
X130272754Y-114149500D01*
X129984050Y-114269085D01*
X129763085Y-114490050D01*
X129643500Y-114778754D01*
X129643500Y-115091246D01*
X129652241Y-115112349D01*
X129580000Y-115286754D01*
X120288034Y-115286754D01*
X122076641Y-113498148D01*
X122185565Y-113453030D01*
X122406530Y-113232065D01*
X122526115Y-112943361D01*
X122526115Y-112630869D01*
X122406530Y-112342165D01*
X122185565Y-112121200D01*
X121896861Y-112001615D01*
X121584369Y-112001615D01*
X121295665Y-112121200D01*
X121074700Y-112342165D01*
X120971218Y-112591993D01*
X119968779Y-113594432D01*
X119918915Y-113474050D01*
X119697950Y-113253085D01*
X119409246Y-113133500D01*
X119096754Y-113133500D01*
X118808050Y-113253085D01*
X118587085Y-113474050D01*
X118467500Y-113762754D01*
X118467500Y-114075246D01*
X118587085Y-114363950D01*
X118808050Y-114584915D01*
X118928433Y-114634779D01*
X118806617Y-114756594D01*
X118783704Y-114701277D01*
X118562739Y-114480312D01*
X118274035Y-114360727D01*
X117961543Y-114360727D01*
X117672839Y-114480312D01*
X117451874Y-114701277D01*
X117332289Y-114989981D01*
X117332289Y-114995696D01*
X117093550Y-115094585D01*
X116872585Y-115315550D01*
X116753000Y-115604254D01*
X116753000Y-115916746D01*
X116850356Y-116151785D01*
X115010381Y-117991761D01*
X115001815Y-116360050D01*
X115156415Y-116205450D01*
X115276000Y-115916746D01*
X115276000Y-115604254D01*
X115156415Y-115315550D01*
X114995488Y-115154623D01*
X114967735Y-109867700D01*
X118764435Y-109867700D01*
X118650585Y-109981550D01*
X118531000Y-110270254D01*
X118531000Y-110582746D01*
X118650585Y-110871450D01*
X118871550Y-111092415D01*
X119160254Y-111212000D01*
X119472746Y-111212000D01*
X119761450Y-111092415D01*
X119982415Y-110871450D01*
X120102000Y-110582746D01*
X120102000Y-110270254D01*
X121325000Y-110270254D01*
X121325000Y-110582746D01*
X121444585Y-110871450D01*
X121665550Y-111092415D01*
X121954254Y-111212000D01*
X122266746Y-111212000D01*
X122555450Y-111092415D01*
X122776415Y-110871450D01*
X122896000Y-110582746D01*
X122896000Y-110270254D01*
X122776415Y-109981550D01*
X122555450Y-109760585D01*
X122266746Y-109641000D01*
X121954254Y-109641000D01*
X121665550Y-109760585D01*
X121444585Y-109981550D01*
X121325000Y-110270254D01*
X120102000Y-110270254D01*
X119982415Y-109981550D01*
X119792365Y-109791500D01*
X119982415Y-109601450D01*
X120102000Y-109312746D01*
X120102000Y-109063754D01*
X125897000Y-109063754D01*
X125897000Y-109376246D01*
X126016585Y-109664950D01*
X126237550Y-109885915D01*
X126526254Y-110005500D01*
X126838746Y-110005500D01*
X127127450Y-109885915D01*
X127348415Y-109664950D01*
X127468000Y-109376246D01*
X127468000Y-109063754D01*
X127348415Y-108775050D01*
X127127450Y-108554085D01*
X126838746Y-108434500D01*
X126526254Y-108434500D01*
X126237550Y-108554085D01*
X126016585Y-108775050D01*
X125897000Y-109063754D01*
X120102000Y-109063754D01*
X120102000Y-109000254D01*
X120044940Y-108862500D01*
X120234746Y-108862500D01*
X120523450Y-108742915D01*
X120744415Y-108521950D01*
X120864000Y-108233246D01*
X120864000Y-107984254D01*
X121452000Y-107984254D01*
X121452000Y-108296746D01*
X121571585Y-108585450D01*
X121792550Y-108806415D01*
X122081254Y-108926000D01*
X122393746Y-108926000D01*
X122682450Y-108806415D01*
X122903415Y-108585450D01*
X123023000Y-108296746D01*
X123023000Y-107984254D01*
X122903415Y-107695550D01*
X122682450Y-107474585D01*
X122393746Y-107355000D01*
X122081254Y-107355000D01*
X121792550Y-107474585D01*
X121571585Y-107695550D01*
X121452000Y-107984254D01*
X120864000Y-107984254D01*
X120864000Y-107920754D01*
X120744415Y-107632050D01*
X120523450Y-107411085D01*
X120234746Y-107291500D01*
X119922254Y-107291500D01*
X119633550Y-107411085D01*
X119412585Y-107632050D01*
X119293000Y-107920754D01*
X119293000Y-108233246D01*
X119350060Y-108371000D01*
X119160254Y-108371000D01*
X118980878Y-108445300D01*
X114960268Y-108445300D01*
X114945182Y-105571254D01*
X118531000Y-105571254D01*
X118531000Y-105883746D01*
X118650585Y-106172450D01*
X118871550Y-106393415D01*
X119160254Y-106513000D01*
X119472746Y-106513000D01*
X119761450Y-106393415D01*
X119982415Y-106172450D01*
X120102000Y-105883746D01*
X120102000Y-105571254D01*
X120372500Y-105571254D01*
X120372500Y-105883746D01*
X120478747Y-106140250D01*
X120372500Y-106396754D01*
X120372500Y-106709246D01*
X120492085Y-106997950D01*
X120713050Y-107218915D01*
X121001754Y-107338500D01*
X121314246Y-107338500D01*
X121602950Y-107218915D01*
X121790111Y-107031754D01*
X123992000Y-107031754D01*
X123992000Y-107344246D01*
X124111585Y-107632950D01*
X124332550Y-107853915D01*
X124621254Y-107973500D01*
X124933746Y-107973500D01*
X125222450Y-107853915D01*
X125443415Y-107632950D01*
X125563000Y-107344246D01*
X125563000Y-107031754D01*
X125443415Y-106743050D01*
X125222450Y-106522085D01*
X124933746Y-106402500D01*
X124621254Y-106402500D01*
X124332550Y-106522085D01*
X124111585Y-106743050D01*
X123992000Y-107031754D01*
X121790111Y-107031754D01*
X121823915Y-106997950D01*
X121943500Y-106709246D01*
X121943500Y-106396754D01*
X121837253Y-106140250D01*
X121941425Y-105888754D01*
X122150500Y-105888754D01*
X122150500Y-106201246D01*
X122270085Y-106489950D01*
X122491050Y-106710915D01*
X122779754Y-106830500D01*
X123092246Y-106830500D01*
X123380950Y-106710915D01*
X123601915Y-106489950D01*
X123721500Y-106201246D01*
X123721500Y-105907201D01*
X123785620Y-105752401D01*
X123785620Y-105439909D01*
X123666035Y-105151205D01*
X123445070Y-104930240D01*
X123156366Y-104810655D01*
X122843874Y-104810655D01*
X122555170Y-104930240D01*
X122334205Y-105151205D01*
X122214620Y-105439909D01*
X122214620Y-105733954D01*
X122150500Y-105888754D01*
X121941425Y-105888754D01*
X121943500Y-105883746D01*
X121943500Y-105571254D01*
X121823915Y-105282550D01*
X121602950Y-105061585D01*
X121314246Y-104942000D01*
X121001754Y-104942000D01*
X120713050Y-105061585D01*
X120492085Y-105282550D01*
X120372500Y-105571254D01*
X120102000Y-105571254D01*
X119982415Y-105282550D01*
X119761450Y-105061585D01*
X119472746Y-104942000D01*
X119160254Y-104942000D01*
X118871550Y-105061585D01*
X118650585Y-105282550D01*
X118531000Y-105571254D01*
X114945182Y-105571254D01*
X114938062Y-104215000D01*
X166698202Y-104215000D01*
X166670658Y-104256223D01*
G36*
X189285701Y-127116846D02*
X146601298Y-127198253D01*
X146645000Y-127092746D01*
X146645000Y-126780254D01*
X146525415Y-126491550D01*
X146304450Y-126270585D01*
X146015746Y-126151000D01*
X145735358Y-126151000D01*
X147284680Y-124601678D01*
X147042007Y-124964864D01*
X146940336Y-125476000D01*
X147042007Y-125987136D01*
X147331543Y-126420457D01*
X147764864Y-126709993D01*
X148146978Y-126786000D01*
X148405022Y-126786000D01*
X148787136Y-126709993D01*
X149220457Y-126420457D01*
X149276000Y-126337331D01*
X149331543Y-126420457D01*
X149764864Y-126709993D01*
X150146978Y-126786000D01*
X150405022Y-126786000D01*
X150787136Y-126709993D01*
X151220457Y-126420457D01*
X151276000Y-126337331D01*
X151331543Y-126420457D01*
X151764864Y-126709993D01*
X152122697Y-126781170D01*
X152196983Y-126892347D01*
X152432233Y-127049537D01*
X152639683Y-127090801D01*
X152639688Y-127090801D01*
X152709729Y-127104733D01*
X152779770Y-127090801D01*
X160639688Y-127090801D01*
X160709729Y-127104733D01*
X160779770Y-127090801D01*
X160779775Y-127090801D01*
X160987225Y-127049537D01*
X161222475Y-126892347D01*
X161262153Y-126832965D01*
X161537228Y-126557891D01*
X161764864Y-126709993D01*
X162146978Y-126786000D01*
X162405022Y-126786000D01*
X162787136Y-126709993D01*
X163220457Y-126420457D01*
X163276000Y-126337331D01*
X163331543Y-126420457D01*
X163764864Y-126709993D01*
X164146978Y-126786000D01*
X164405022Y-126786000D01*
X164787136Y-126709993D01*
X165220457Y-126420457D01*
X165276000Y-126337331D01*
X165331543Y-126420457D01*
X165764864Y-126709993D01*
X166146978Y-126786000D01*
X166405022Y-126786000D01*
X166787136Y-126709993D01*
X167220457Y-126420457D01*
X167276000Y-126337331D01*
X167331543Y-126420457D01*
X167764864Y-126709993D01*
X168146978Y-126786000D01*
X168405022Y-126786000D01*
X168787136Y-126709993D01*
X169220457Y-126420457D01*
X169276000Y-126337331D01*
X169331543Y-126420457D01*
X169764864Y-126709993D01*
X170146978Y-126786000D01*
X170405022Y-126786000D01*
X170787136Y-126709993D01*
X171220457Y-126420457D01*
X171276000Y-126337331D01*
X171331543Y-126420457D01*
X171764864Y-126709993D01*
X172146978Y-126786000D01*
X172405022Y-126786000D01*
X172787136Y-126709993D01*
X173220457Y-126420457D01*
X173276000Y-126337331D01*
X173331543Y-126420457D01*
X173764864Y-126709993D01*
X174146978Y-126786000D01*
X174405022Y-126786000D01*
X174787136Y-126709993D01*
X175080032Y-126514286D01*
X175143191Y-126608809D01*
X175353235Y-126749157D01*
X175601000Y-126798440D01*
X176951000Y-126798440D01*
X177198765Y-126749157D01*
X177408809Y-126608809D01*
X177549157Y-126398765D01*
X177598440Y-126151000D01*
X177598440Y-124801000D01*
X177549157Y-124553235D01*
X177408809Y-124343191D01*
X177198765Y-124202843D01*
X176951000Y-124153560D01*
X176800577Y-124153560D01*
X176788746Y-124135854D01*
X176729367Y-124096178D01*
X175242823Y-122609635D01*
X175203146Y-122550254D01*
X174967896Y-122393064D01*
X174760446Y-122351800D01*
X174760441Y-122351800D01*
X174690400Y-122337868D01*
X174620359Y-122351800D01*
X171402443Y-122351800D01*
X171450450Y-122331915D01*
X171671415Y-122110950D01*
X171791000Y-121822246D01*
X171791000Y-121509754D01*
X171755770Y-121424700D01*
X176896054Y-121424700D01*
X176943585Y-121539450D01*
X177164550Y-121760415D01*
X177453254Y-121880000D01*
X177765746Y-121880000D01*
X178054450Y-121760415D01*
X178275415Y-121539450D01*
X178395000Y-121250746D01*
X178395000Y-120938254D01*
X178275415Y-120649550D01*
X178054450Y-120428585D01*
X177875072Y-120354284D01*
X177780924Y-120260136D01*
X177741246Y-120200754D01*
X177658994Y-120145795D01*
X178002074Y-119802715D01*
X178181450Y-119728415D01*
X178402415Y-119507450D01*
X178522000Y-119218746D01*
X178522000Y-118906254D01*
X178402415Y-118617550D01*
X178181450Y-118396585D01*
X177892746Y-118277000D01*
X177580254Y-118277000D01*
X177291550Y-118396585D01*
X177070585Y-118617550D01*
X176996285Y-118796926D01*
X176457636Y-119335576D01*
X176237311Y-119555901D01*
X174710419Y-119555901D01*
X174798335Y-119497157D01*
X174838013Y-119437775D01*
X178862034Y-115413754D01*
X181904000Y-115413754D01*
X181904000Y-115726246D01*
X182023585Y-116014950D01*
X182244550Y-116235915D01*
X182533254Y-116355500D01*
X182845746Y-116355500D01*
X183134450Y-116235915D01*
X183355415Y-116014950D01*
X183475000Y-115726246D01*
X183475000Y-115413754D01*
X183355415Y-115125050D01*
X183134450Y-114904085D01*
X182845746Y-114784500D01*
X182533254Y-114784500D01*
X182244550Y-114904085D01*
X182023585Y-115125050D01*
X181904000Y-115413754D01*
X178862034Y-115413754D01*
X187076855Y-107198934D01*
X187222978Y-107228000D01*
X187481022Y-107228000D01*
X187863136Y-107151993D01*
X188296457Y-106862457D01*
X188585993Y-106429136D01*
X188687664Y-105918000D01*
X188585993Y-105406864D01*
X188296457Y-104973543D01*
X187863136Y-104684007D01*
X187481022Y-104608000D01*
X187222978Y-104608000D01*
X186840864Y-104684007D01*
X186407543Y-104973543D01*
X186352000Y-105056669D01*
X186296457Y-104973543D01*
X185863136Y-104684007D01*
X185481022Y-104608000D01*
X185222978Y-104608000D01*
X184840864Y-104684007D01*
X184613228Y-104836109D01*
X184033344Y-104256226D01*
X184005798Y-104215000D01*
X189405606Y-104215000D01*
X189285701Y-127116846D01*
X189285701Y-127116846D01*
G37*
X189285701Y-127116846D02*
X146601298Y-127198253D01*
X146645000Y-127092746D01*
X146645000Y-126780254D01*
X146525415Y-126491550D01*
X146304450Y-126270585D01*
X146015746Y-126151000D01*
X145735358Y-126151000D01*
X147284680Y-124601678D01*
X147042007Y-124964864D01*
X146940336Y-125476000D01*
X147042007Y-125987136D01*
X147331543Y-126420457D01*
X147764864Y-126709993D01*
X148146978Y-126786000D01*
X148405022Y-126786000D01*
X148787136Y-126709993D01*
X149220457Y-126420457D01*
X149276000Y-126337331D01*
X149331543Y-126420457D01*
X149764864Y-126709993D01*
X150146978Y-126786000D01*
X150405022Y-126786000D01*
X150787136Y-126709993D01*
X151220457Y-126420457D01*
X151276000Y-126337331D01*
X151331543Y-126420457D01*
X151764864Y-126709993D01*
X152122697Y-126781170D01*
X152196983Y-126892347D01*
X152432233Y-127049537D01*
X152639683Y-127090801D01*
X152639688Y-127090801D01*
X152709729Y-127104733D01*
X152779770Y-127090801D01*
X160639688Y-127090801D01*
X160709729Y-127104733D01*
X160779770Y-127090801D01*
X160779775Y-127090801D01*
X160987225Y-127049537D01*
X161222475Y-126892347D01*
X161262153Y-126832965D01*
X161537228Y-126557891D01*
X161764864Y-126709993D01*
X162146978Y-126786000D01*
X162405022Y-126786000D01*
X162787136Y-126709993D01*
X163220457Y-126420457D01*
X163276000Y-126337331D01*
X163331543Y-126420457D01*
X163764864Y-126709993D01*
X164146978Y-126786000D01*
X164405022Y-126786000D01*
X164787136Y-126709993D01*
X165220457Y-126420457D01*
X165276000Y-126337331D01*
X165331543Y-126420457D01*
X165764864Y-126709993D01*
X166146978Y-126786000D01*
X166405022Y-126786000D01*
X166787136Y-126709993D01*
X167220457Y-126420457D01*
X167276000Y-126337331D01*
X167331543Y-126420457D01*
X167764864Y-126709993D01*
X168146978Y-126786000D01*
X168405022Y-126786000D01*
X168787136Y-126709993D01*
X169220457Y-126420457D01*
X169276000Y-126337331D01*
X169331543Y-126420457D01*
X169764864Y-126709993D01*
X170146978Y-126786000D01*
X170405022Y-126786000D01*
X170787136Y-126709993D01*
X171220457Y-126420457D01*
X171276000Y-126337331D01*
X171331543Y-126420457D01*
X171764864Y-126709993D01*
X172146978Y-126786000D01*
X172405022Y-126786000D01*
X172787136Y-126709993D01*
X173220457Y-126420457D01*
X173276000Y-126337331D01*
X173331543Y-126420457D01*
X173764864Y-126709993D01*
X174146978Y-126786000D01*
X174405022Y-126786000D01*
X174787136Y-126709993D01*
X175080032Y-126514286D01*
X175143191Y-126608809D01*
X175353235Y-126749157D01*
X175601000Y-126798440D01*
X176951000Y-126798440D01*
X177198765Y-126749157D01*
X177408809Y-126608809D01*
X177549157Y-126398765D01*
X177598440Y-126151000D01*
X177598440Y-124801000D01*
X177549157Y-124553235D01*
X177408809Y-124343191D01*
X177198765Y-124202843D01*
X176951000Y-124153560D01*
X176800577Y-124153560D01*
X176788746Y-124135854D01*
X176729367Y-124096178D01*
X175242823Y-122609635D01*
X175203146Y-122550254D01*
X174967896Y-122393064D01*
X174760446Y-122351800D01*
X174760441Y-122351800D01*
X174690400Y-122337868D01*
X174620359Y-122351800D01*
X171402443Y-122351800D01*
X171450450Y-122331915D01*
X171671415Y-122110950D01*
X171791000Y-121822246D01*
X171791000Y-121509754D01*
X171755770Y-121424700D01*
X176896054Y-121424700D01*
X176943585Y-121539450D01*
X177164550Y-121760415D01*
X177453254Y-121880000D01*
X177765746Y-121880000D01*
X178054450Y-121760415D01*
X178275415Y-121539450D01*
X178395000Y-121250746D01*
X178395000Y-120938254D01*
X178275415Y-120649550D01*
X178054450Y-120428585D01*
X177875072Y-120354284D01*
X177780924Y-120260136D01*
X177741246Y-120200754D01*
X177658994Y-120145795D01*
X178002074Y-119802715D01*
X178181450Y-119728415D01*
X178402415Y-119507450D01*
X178522000Y-119218746D01*
X178522000Y-118906254D01*
X178402415Y-118617550D01*
X178181450Y-118396585D01*
X177892746Y-118277000D01*
X177580254Y-118277000D01*
X177291550Y-118396585D01*
X177070585Y-118617550D01*
X176996285Y-118796926D01*
X176457636Y-119335576D01*
X176237311Y-119555901D01*
X174710419Y-119555901D01*
X174798335Y-119497157D01*
X174838013Y-119437775D01*
X178862034Y-115413754D01*
X181904000Y-115413754D01*
X181904000Y-115726246D01*
X182023585Y-116014950D01*
X182244550Y-116235915D01*
X182533254Y-116355500D01*
X182845746Y-116355500D01*
X183134450Y-116235915D01*
X183355415Y-116014950D01*
X183475000Y-115726246D01*
X183475000Y-115413754D01*
X183355415Y-115125050D01*
X183134450Y-114904085D01*
X182845746Y-114784500D01*
X182533254Y-114784500D01*
X182244550Y-114904085D01*
X182023585Y-115125050D01*
X181904000Y-115413754D01*
X178862034Y-115413754D01*
X187076855Y-107198934D01*
X187222978Y-107228000D01*
X187481022Y-107228000D01*
X187863136Y-107151993D01*
X188296457Y-106862457D01*
X188585993Y-106429136D01*
X188687664Y-105918000D01*
X188585993Y-105406864D01*
X188296457Y-104973543D01*
X187863136Y-104684007D01*
X187481022Y-104608000D01*
X187222978Y-104608000D01*
X186840864Y-104684007D01*
X186407543Y-104973543D01*
X186352000Y-105056669D01*
X186296457Y-104973543D01*
X185863136Y-104684007D01*
X185481022Y-104608000D01*
X185222978Y-104608000D01*
X184840864Y-104684007D01*
X184613228Y-104836109D01*
X184033344Y-104256226D01*
X184005798Y-104215000D01*
X189405606Y-104215000D01*
X189285701Y-127116846D01*
G36*
X157225550Y-123030415D02*
X157514254Y-123150000D01*
X157826746Y-123150000D01*
X158115450Y-123030415D01*
X158305500Y-122840365D01*
X158368550Y-122903415D01*
X158657254Y-123023000D01*
X158896030Y-123023000D01*
X158222470Y-124166000D01*
X158146978Y-124166000D01*
X157764864Y-124242007D01*
X157331543Y-124531543D01*
X157276000Y-124614669D01*
X157220457Y-124531543D01*
X156787136Y-124242007D01*
X156405022Y-124166000D01*
X156146978Y-124166000D01*
X155764864Y-124242007D01*
X155331543Y-124531543D01*
X155276000Y-124614669D01*
X155220457Y-124531543D01*
X154895383Y-124314335D01*
X155626019Y-123583700D01*
X155810878Y-123583700D01*
X155990254Y-123658000D01*
X156302746Y-123658000D01*
X156591450Y-123538415D01*
X156812415Y-123317450D01*
X156932000Y-123028746D01*
X156932000Y-122941965D01*
X157034550Y-122839415D01*
X157225550Y-123030415D01*
X157225550Y-123030415D01*
G37*
X157225550Y-123030415D02*
X157514254Y-123150000D01*
X157826746Y-123150000D01*
X158115450Y-123030415D01*
X158305500Y-122840365D01*
X158368550Y-122903415D01*
X158657254Y-123023000D01*
X158896030Y-123023000D01*
X158222470Y-124166000D01*
X158146978Y-124166000D01*
X157764864Y-124242007D01*
X157331543Y-124531543D01*
X157276000Y-124614669D01*
X157220457Y-124531543D01*
X156787136Y-124242007D01*
X156405022Y-124166000D01*
X156146978Y-124166000D01*
X155764864Y-124242007D01*
X155331543Y-124531543D01*
X155276000Y-124614669D01*
X155220457Y-124531543D01*
X154895383Y-124314335D01*
X155626019Y-123583700D01*
X155810878Y-123583700D01*
X155990254Y-123658000D01*
X156302746Y-123658000D01*
X156591450Y-123538415D01*
X156812415Y-123317450D01*
X156932000Y-123028746D01*
X156932000Y-122941965D01*
X157034550Y-122839415D01*
X157225550Y-123030415D01*
G36*
X165120975Y-118173833D02*
X165120978Y-118173836D01*
X165160654Y-118233215D01*
X165220033Y-118272891D01*
X165224142Y-118277000D01*
X165070754Y-118277000D01*
X164782050Y-118396585D01*
X164774610Y-118404025D01*
X164621246Y-118340500D01*
X164308754Y-118340500D01*
X164052250Y-118446747D01*
X163795746Y-118340500D01*
X163578859Y-118340500D01*
X163646468Y-118272891D01*
X163665012Y-118260500D01*
X163795746Y-118260500D01*
X164033250Y-118162123D01*
X164270754Y-118260500D01*
X164583246Y-118260500D01*
X164871950Y-118140915D01*
X165008045Y-118004820D01*
X165120975Y-118173833D01*
X165120975Y-118173833D01*
G37*
X165120975Y-118173833D02*
X165120978Y-118173836D01*
X165160654Y-118233215D01*
X165220033Y-118272891D01*
X165224142Y-118277000D01*
X165070754Y-118277000D01*
X164782050Y-118396585D01*
X164774610Y-118404025D01*
X164621246Y-118340500D01*
X164308754Y-118340500D01*
X164052250Y-118446747D01*
X163795746Y-118340500D01*
X163578859Y-118340500D01*
X163646468Y-118272891D01*
X163665012Y-118260500D01*
X163795746Y-118260500D01*
X164033250Y-118162123D01*
X164270754Y-118260500D01*
X164583246Y-118260500D01*
X164871950Y-118140915D01*
X165008045Y-118004820D01*
X165120975Y-118173833D01*
G36*
X140373543Y-106862457D02*
X140806864Y-107151993D01*
X141188978Y-107228000D01*
X141447022Y-107228000D01*
X141593146Y-107198934D01*
X150436173Y-116041962D01*
X150337085Y-116141050D01*
X150241422Y-116372000D01*
X150021254Y-116372000D01*
X149732550Y-116491585D01*
X149511585Y-116712550D01*
X149392000Y-117001254D01*
X149392000Y-117313746D01*
X149473793Y-117511211D01*
X144488500Y-117511211D01*
X136693716Y-109716427D01*
X136619415Y-109537050D01*
X136398450Y-109316085D01*
X136109746Y-109196500D01*
X136029200Y-109196500D01*
X136029200Y-108557655D01*
X136305254Y-108672000D01*
X136617746Y-108672000D01*
X136906450Y-108552415D01*
X137127415Y-108331450D01*
X137247000Y-108042746D01*
X137247000Y-107730254D01*
X137127415Y-107441550D01*
X136906450Y-107220585D01*
X136617746Y-107101000D01*
X136305254Y-107101000D01*
X136029200Y-107215345D01*
X136029200Y-107018314D01*
X136262457Y-106862457D01*
X136318000Y-106779331D01*
X136373543Y-106862457D01*
X136806864Y-107151993D01*
X137188978Y-107228000D01*
X137447022Y-107228000D01*
X137829136Y-107151993D01*
X138262457Y-106862457D01*
X138318000Y-106779331D01*
X138373543Y-106862457D01*
X138806864Y-107151993D01*
X139188978Y-107228000D01*
X139447022Y-107228000D01*
X139829136Y-107151993D01*
X140262457Y-106862457D01*
X140318000Y-106779331D01*
X140373543Y-106862457D01*
X140373543Y-106862457D01*
G37*
X140373543Y-106862457D02*
X140806864Y-107151993D01*
X141188978Y-107228000D01*
X141447022Y-107228000D01*
X141593146Y-107198934D01*
X150436173Y-116041962D01*
X150337085Y-116141050D01*
X150241422Y-116372000D01*
X150021254Y-116372000D01*
X149732550Y-116491585D01*
X149511585Y-116712550D01*
X149392000Y-117001254D01*
X149392000Y-117313746D01*
X149473793Y-117511211D01*
X144488500Y-117511211D01*
X136693716Y-109716427D01*
X136619415Y-109537050D01*
X136398450Y-109316085D01*
X136109746Y-109196500D01*
X136029200Y-109196500D01*
X136029200Y-108557655D01*
X136305254Y-108672000D01*
X136617746Y-108672000D01*
X136906450Y-108552415D01*
X137127415Y-108331450D01*
X137247000Y-108042746D01*
X137247000Y-107730254D01*
X137127415Y-107441550D01*
X136906450Y-107220585D01*
X136617746Y-107101000D01*
X136305254Y-107101000D01*
X136029200Y-107215345D01*
X136029200Y-107018314D01*
X136262457Y-106862457D01*
X136318000Y-106779331D01*
X136373543Y-106862457D01*
X136806864Y-107151993D01*
X137188978Y-107228000D01*
X137447022Y-107228000D01*
X137829136Y-107151993D01*
X138262457Y-106862457D01*
X138318000Y-106779331D01*
X138373543Y-106862457D01*
X138806864Y-107151993D01*
X139188978Y-107228000D01*
X139447022Y-107228000D01*
X139829136Y-107151993D01*
X140262457Y-106862457D01*
X140318000Y-106779331D01*
X140373543Y-106862457D01*
G36*
X152661543Y-110164457D02*
X153094864Y-110453993D01*
X153476978Y-110530000D01*
X153735022Y-110530000D01*
X154117136Y-110453993D01*
X154344773Y-110301891D01*
X158010782Y-113967901D01*
X153439500Y-113967901D01*
X153439500Y-113889754D01*
X153319915Y-113601050D01*
X153098950Y-113380085D01*
X152810246Y-113260500D01*
X152497754Y-113260500D01*
X152209050Y-113380085D01*
X151997462Y-113591673D01*
X148948229Y-110542440D01*
X150281000Y-110542440D01*
X150528765Y-110493157D01*
X150738809Y-110352809D01*
X150801968Y-110258286D01*
X151094864Y-110453993D01*
X151476978Y-110530000D01*
X151735022Y-110530000D01*
X152117136Y-110453993D01*
X152550457Y-110164457D01*
X152606000Y-110081331D01*
X152661543Y-110164457D01*
X152661543Y-110164457D01*
G37*
X152661543Y-110164457D02*
X153094864Y-110453993D01*
X153476978Y-110530000D01*
X153735022Y-110530000D01*
X154117136Y-110453993D01*
X154344773Y-110301891D01*
X158010782Y-113967901D01*
X153439500Y-113967901D01*
X153439500Y-113889754D01*
X153319915Y-113601050D01*
X153098950Y-113380085D01*
X152810246Y-113260500D01*
X152497754Y-113260500D01*
X152209050Y-113380085D01*
X151997462Y-113591673D01*
X148948229Y-110542440D01*
X150281000Y-110542440D01*
X150528765Y-110493157D01*
X150738809Y-110352809D01*
X150801968Y-110258286D01*
X151094864Y-110453993D01*
X151476978Y-110530000D01*
X151735022Y-110530000D01*
X152117136Y-110453993D01*
X152550457Y-110164457D01*
X152606000Y-110081331D01*
X152661543Y-110164457D01*
G36*
X178407543Y-106862457D02*
X178815599Y-107135112D01*
X176906665Y-109044047D01*
X176839993Y-108708864D01*
X176550457Y-108275543D01*
X176117136Y-107986007D01*
X175735022Y-107910000D01*
X175476978Y-107910000D01*
X175094864Y-107986007D01*
X174661543Y-108275543D01*
X174606000Y-108358669D01*
X174550457Y-108275543D01*
X174117136Y-107986007D01*
X173735022Y-107910000D01*
X173476978Y-107910000D01*
X173094864Y-107986007D01*
X172661543Y-108275543D01*
X172606000Y-108358669D01*
X172550457Y-108275543D01*
X172117136Y-107986007D01*
X171735022Y-107910000D01*
X171476978Y-107910000D01*
X171094864Y-107986007D01*
X171044370Y-108019746D01*
X171022347Y-107986786D01*
X170962968Y-107947110D01*
X170045799Y-107029941D01*
X170296457Y-106862457D01*
X170352000Y-106779331D01*
X170407543Y-106862457D01*
X170840864Y-107151993D01*
X171222978Y-107228000D01*
X171481022Y-107228000D01*
X171863136Y-107151993D01*
X172296457Y-106862457D01*
X172352000Y-106779331D01*
X172407543Y-106862457D01*
X172840864Y-107151993D01*
X173222978Y-107228000D01*
X173481022Y-107228000D01*
X173863136Y-107151993D01*
X174296457Y-106862457D01*
X174352000Y-106779331D01*
X174407543Y-106862457D01*
X174840864Y-107151993D01*
X175222978Y-107228000D01*
X175481022Y-107228000D01*
X175863136Y-107151993D01*
X176296457Y-106862457D01*
X176352000Y-106779331D01*
X176407543Y-106862457D01*
X176840864Y-107151993D01*
X177222978Y-107228000D01*
X177481022Y-107228000D01*
X177863136Y-107151993D01*
X178296457Y-106862457D01*
X178352000Y-106779331D01*
X178407543Y-106862457D01*
X178407543Y-106862457D01*
G37*
X178407543Y-106862457D02*
X178815599Y-107135112D01*
X176906665Y-109044047D01*
X176839993Y-108708864D01*
X176550457Y-108275543D01*
X176117136Y-107986007D01*
X175735022Y-107910000D01*
X175476978Y-107910000D01*
X175094864Y-107986007D01*
X174661543Y-108275543D01*
X174606000Y-108358669D01*
X174550457Y-108275543D01*
X174117136Y-107986007D01*
X173735022Y-107910000D01*
X173476978Y-107910000D01*
X173094864Y-107986007D01*
X172661543Y-108275543D01*
X172606000Y-108358669D01*
X172550457Y-108275543D01*
X172117136Y-107986007D01*
X171735022Y-107910000D01*
X171476978Y-107910000D01*
X171094864Y-107986007D01*
X171044370Y-108019746D01*
X171022347Y-107986786D01*
X170962968Y-107947110D01*
X170045799Y-107029941D01*
X170296457Y-106862457D01*
X170352000Y-106779331D01*
X170407543Y-106862457D01*
X170840864Y-107151993D01*
X171222978Y-107228000D01*
X171481022Y-107228000D01*
X171863136Y-107151993D01*
X172296457Y-106862457D01*
X172352000Y-106779331D01*
X172407543Y-106862457D01*
X172840864Y-107151993D01*
X173222978Y-107228000D01*
X173481022Y-107228000D01*
X173863136Y-107151993D01*
X174296457Y-106862457D01*
X174352000Y-106779331D01*
X174407543Y-106862457D01*
X174840864Y-107151993D01*
X175222978Y-107228000D01*
X175481022Y-107228000D01*
X175863136Y-107151993D01*
X176296457Y-106862457D01*
X176352000Y-106779331D01*
X176407543Y-106862457D01*
X176840864Y-107151993D01*
X177222978Y-107228000D01*
X177481022Y-107228000D01*
X177863136Y-107151993D01*
X178296457Y-106862457D01*
X178352000Y-106779331D01*
X178407543Y-106862457D01*
G36*
X162407543Y-106862457D02*
X162840864Y-107151993D01*
X162981000Y-107179868D01*
X162981000Y-107407746D01*
X163100585Y-107696450D01*
X163321550Y-107917415D01*
X163359881Y-107933292D01*
X163094864Y-107986007D01*
X162867228Y-108138109D01*
X162063200Y-107334082D01*
X162063200Y-107018314D01*
X162296457Y-106862457D01*
X162352000Y-106779331D01*
X162407543Y-106862457D01*
X162407543Y-106862457D01*
G37*
X162407543Y-106862457D02*
X162840864Y-107151993D01*
X162981000Y-107179868D01*
X162981000Y-107407746D01*
X163100585Y-107696450D01*
X163321550Y-107917415D01*
X163359881Y-107933292D01*
X163094864Y-107986007D01*
X162867228Y-108138109D01*
X162063200Y-107334082D01*
X162063200Y-107018314D01*
X162296457Y-106862457D01*
X162352000Y-106779331D01*
X162407543Y-106862457D01*
M02*
